<svg id="Layer_1" data-name="Layer 1" xmlns="http://www.w3.org/2000/svg" xmlns:xlink="http://www.w3.org/1999/xlink" viewBox="0 0 604 202.21"><defs><style>.cls-1,.cls-11,.cls-12,.cls-13,.cls-20,.cls-22,.cls-23,.cls-24,.cls-30,.cls-32,.cls-38,.cls-40,.cls-9{fill:none;}.cls-2{fill:#282c34;stroke-width:0.41px;}.cls-2,.cls-23,.cls-24{stroke:#000;}.cls-11,.cls-12,.cls-13,.cls-2,.cls-20,.cls-22,.cls-23,.cls-24,.cls-30,.cls-32,.cls-38,.cls-40,.cls-9{stroke-miterlimit:10;}.cls-3{clip-path:url(#clip-path);}.cls-4{fill:gray;}.cls-5{fill:#666;}.cls-6{fill:#3e3e3e;}.cls-7{fill:#505050;}.cls-8{fill:#e9ab8e;}.cls-9{stroke:#a680fb;stroke-width:2.54px;}.cls-10{fill:#faf586;}.cls-11{stroke:#f05e81;stroke-width:1.68px;}.cls-12,.cls-13{stroke:#fff;}.cls-12,.cls-23{stroke-width:4px;}.cls-14{clip-path:url(#clip-path-2);}.cls-15{fill:#5b5b5b;}.cls-16{fill:#494949;}.cls-17{fill:#989898;}.cls-18{fill:#3a3a3a;}.cls-19{fill:#85c345;}.cls-20{stroke:#c553dd;stroke-width:1.57px;}.cls-21{fill:#987692;}.cls-22{stroke:#4202d8;stroke-width:1.19px;}.cls-25{clip-path:url(#clip-path-3);}.cls-26{fill:#818181;}.cls-27{fill:#949494;}.cls-28{fill:#848484;}.cls-29{fill:#9f98c9;}.cls-30{stroke:#ca03e3;stroke-width:1.61px;}.cls-31{fill:#cc4878;}.cls-32{stroke:#c23f1c;stroke-width:1.87px;}.cls-33{clip-path:url(#clip-path-4);}.cls-34{fill:#939393;}.cls-35{fill:#797979;}.cls-36{fill:#444;}.cls-37{fill:#0fd0b6;}.cls-38{stroke:#7ef831;stroke-width:1.56px;}.cls-39{fill:#54e964;}.cls-40{stroke:#c4c256;stroke-width:1.74px;}.cls-41{font-size:65px;fill:#fff;font-family:MarkerFelt-Wide, Marker Felt;}.cls-42{letter-spacing:0.03em;}.cls-43{letter-spacing:0.05em;}.cls-44{letter-spacing:0.03em;}.cls-45{letter-spacing:0.04em;}.cls-46{letter-spacing:0.05em;}.cls-47{letter-spacing:0.04em;}</style><clipPath id="clip-path" transform="translate(2 0.21)"><rect class="cls-1" x="333" y="100" width="100" height="100"/></clipPath><clipPath id="clip-path-2" transform="translate(2 0.21)"><rect class="cls-1" x="166" y="100" width="100" height="100"/></clipPath><clipPath id="clip-path-3" transform="translate(2 0.21)"><rect class="cls-1" x="500" y="100" width="100" height="100"/></clipPath><clipPath id="clip-path-4" transform="translate(2 0.21)"><rect class="cls-1" y="100" width="100" height="100"/></clipPath></defs><rect class="cls-2" x="2" y="0.21" width="600" height="200"/><g id="surface3"><g class="cls-3"><g id="surface6"><path class="cls-4" d="M333,100h50v50H333Z" transform="translate(2 0.21)"/><path class="cls-5" d="M383,100h50v50H383Z" transform="translate(2 0.21)"/><path class="cls-6" d="M383,150h50v50H383Z" transform="translate(2 0.21)"/><path class="cls-7" d="M333,150h50v50H333Z" transform="translate(2 0.21)"/><path class="cls-8" d="M366.1,129.4a11.6,11.6,0,1,1-11.6-11.6,11.6,11.6,0,0,1,11.6,11.6,11.6,11.6,0,1,1-11.6-11.6,11.6,11.6,0,0,1,11.6,11.6" transform="translate(2 0.21)"/><path class="cls-9" d="M406.7,132.8c-17-9,3.7-4.8,19.7-15.6" transform="translate(2 0.21)"/><path class="cls-10" d="M420.2,161.4l-15.1,4.9,1.5,15.1,13.6-20" transform="translate(2 0.21)"/><path class="cls-11" d="M377.6,186l-22.4.6" transform="translate(2 0.21)"/><path class="cls-12" d="M333,100V200" transform="translate(2 0.21)"/><path class="cls-13" d="M383,100V200" transform="translate(2 0.21)"/><path class="cls-12" d="M433,100V200" transform="translate(2 0.21)"/><path class="cls-12" d="M333,100H433" transform="translate(2 0.21)"/><path class="cls-13" d="M333,150H433" transform="translate(2 0.21)"/><path class="cls-12" d="M333,200H433" transform="translate(2 0.21)"/></g></g></g><g id="surface3-2" data-name="surface3"><g class="cls-14"><g id="surface6-2" data-name="surface6"><path class="cls-15" d="M166,100h50v50H166Z" transform="translate(2 0.21)"/><path class="cls-16" d="M216,100h50v50H216Z" transform="translate(2 0.21)"/><path class="cls-17" d="M216,150h50v50H216Z" transform="translate(2 0.21)"/><path class="cls-18" d="M166,150h50v50H166Z" transform="translate(2 0.21)"/><path class="cls-19" d="M194.4,124a8.1,8.1,0,1,1-8.1-8.1,8.1,8.1,0,0,1,8.1,8.1,8.1,8.1,0,1,1-8.1-8.1,8.1,8.1,0,0,1,8.1,8.1" transform="translate(2 0.21)"/><path class="cls-20" d="M250.6,123.4c-3.3,21.3-4.5-11.8-21.6,11.2" transform="translate(2 0.21)"/><path class="cls-21" d="M230.7,185.1l16.3-2.7,2.4-16.3-18.7,19" transform="translate(2 0.21)"/><path class="cls-22" d="M192.7,167.5l18,13.3" transform="translate(2 0.21)"/><path class="cls-23" d="M166,100V200" transform="translate(2 0.21)"/><path class="cls-24" d="M216,100V200" transform="translate(2 0.21)"/><path class="cls-23" d="M266,100V200" transform="translate(2 0.21)"/><path class="cls-23" d="M166,100H266" transform="translate(2 0.21)"/><path class="cls-24" d="M166,150H266" transform="translate(2 0.21)"/><path class="cls-23" d="M166,200H266" transform="translate(2 0.21)"/></g></g></g><g id="surface3-3" data-name="surface3"><g class="cls-25"><g id="surface6-3" data-name="surface6"><path class="cls-7" d="M500,100h50v50H500Z" transform="translate(2 0.21)"/><path class="cls-26" d="M550,100h50v50H550Z" transform="translate(2 0.21)"/><path class="cls-27" d="M550,150h50v50H550Z" transform="translate(2 0.21)"/><path class="cls-28" d="M500,150h50v50H500Z" transform="translate(2 0.21)"/><path class="cls-29" d="M536.5,121a8.5,8.5,0,1,1-8.5-8.5,8.51,8.51,0,0,1,8.5,8.5,8.5,8.5,0,1,1-8.5-8.5,8.51,8.51,0,0,1,8.5,8.5" transform="translate(2 0.21)"/><path class="cls-30" d="M567,130.1c16.8-12.8-5.1-14.8,14.3,7.5" transform="translate(2 0.21)"/><path class="cls-31" d="M588.9,161.2l-18.6-3.6.1,18.6,18.5-15" transform="translate(2 0.21)"/><path class="cls-32" d="M525.9,162.8l-5.5,20.5" transform="translate(2 0.21)"/><path class="cls-23" d="M500,100V200" transform="translate(2 0.21)"/><path class="cls-24" d="M550,100V200" transform="translate(2 0.21)"/><path class="cls-23" d="M600,100V200" transform="translate(2 0.21)"/><path class="cls-23" d="M500,100H600" transform="translate(2 0.21)"/><path class="cls-24" d="M500,150H600" transform="translate(2 0.21)"/><path class="cls-23" d="M500,200H600" transform="translate(2 0.21)"/></g></g></g><g id="surface3-4" data-name="surface3"><g class="cls-33"><g id="surface6-4" data-name="surface6"><path class="cls-34" d="M0,100H50v50H0Z" transform="translate(2 0.21)"/><path class="cls-34" d="M50,100h50v50H50Z" transform="translate(2 0.21)"/><path class="cls-35" d="M50,150h50v50H50Z" transform="translate(2 0.21)"/><path class="cls-36" d="M0,150H50v50H0Z" transform="translate(2 0.21)"/><path class="cls-37" d="M37.3,124.6a8.3,8.3,0,1,1-8.3-8.3,8.31,8.31,0,0,1,8.3,8.3,8.3,8.3,0,1,1-8.3-8.3,8.31,8.31,0,0,1,8.3,8.3" transform="translate(2 0.21)"/><path class="cls-38" d="M89.1,138.3c-14.7-31.5-33.9-29.6-20.6-19.7" transform="translate(2 0.21)"/><path class="cls-39" d="M89.7,163.9l-19.2-3.1L66.3,180l23.4-16.1" transform="translate(2 0.21)"/><path class="cls-40" d="M37.4,189.7l-.6-1" transform="translate(2 0.21)"/><path class="cls-12" d="M0,100V200" transform="translate(2 0.21)"/><path class="cls-13" d="M50,100V200" transform="translate(2 0.21)"/><path class="cls-12" d="M100,100V200" transform="translate(2 0.21)"/><path class="cls-12" d="M0,100H100" transform="translate(2 0.21)"/><path class="cls-13" d="M0,150H100" transform="translate(2 0.21)"/><path class="cls-12" d="M0,200H100" transform="translate(2 0.21)"/></g></g></g><text class="cls-41" transform="translate(36.77 75.01)">A <tspan class="cls-42" x="59.15" y="0">M</tspan><tspan class="cls-43" x="122.52" y="0">o</tspan><tspan class="cls-44" x="156.78" y="0">m</tspan><tspan class="cls-45" x="210.14" y="0">e</tspan><tspan x="241.73" y="0">nt </tspan><tspan class="cls-46" x="316.48" y="0">i</tspan><tspan x="335.65" y="0">n </tspan><tspan class="cls-47" x="384.4" y="0">T</tspan><tspan class="cls-46" x="424.05" y="0">i</tspan><tspan class="cls-44" x="443.23" y="0">m</tspan><tspan x="496.59" y="0">e</tspan></text></svg>