<?xml version="1.0" encoding="UTF-8"?>
<svg xmlns="http://www.w3.org/2000/svg" xmlns:xlink="http://www.w3.org/1999/xlink" width="500pt" height="500pt" viewBox="0 0 500 500" version="1.1">
<defs>
<radialGradient id="radial0" gradientUnits="userSpaceOnUse" cx="0.5" cy="0.5" fx="0.5" fy="0.5" r="0.6" gradientTransform="matrix(500,0,0,500,0,0)">
<stop offset="0.466667" style="stop-color:rgb(96.9%,96.9%,69.2%);stop-opacity:1;"/>
<stop offset="0.6" style="stop-color:rgb(68.1%,90.3%,64.5%);stop-opacity:1;"/>
</radialGradient>
<clipPath id="clip1">
  <rect x="0" y="0" width="500" height="500"/>
</clipPath>
<g id="surface348" clip-path="url(#clip1)">
<rect x="0" y="0" width="500" height="500" style="fill:url(#radial0);stroke:none;"/>
<path style=" stroke:none;fill-rule:nonzero;fill:rgb(98%,69.1%,48.8%);fill-opacity:1;" d="M 45.5 25 C 45.5 36.320312 36.320312 45.5 25 45.5 C 13.679688 45.5 4.5 36.320312 4.5 25 C 4.5 13.679688 13.679688 4.5 25 4.5 C 36.320312 4.5 45.5 13.679688 45.5 25 "/>
<path style=" stroke:none;fill-rule:nonzero;fill:rgb(80.8%,55.9%,71.5%);fill-opacity:1;" d="M 84.5 25 C 84.5 30.246094 80.246094 34.5 75 34.5 C 69.753906 34.5 65.5 30.246094 65.5 25 C 65.5 19.753906 69.753906 15.5 75 15.5 C 80.246094 15.5 84.5 19.753906 84.5 25 "/>
<path style=" stroke:none;fill-rule:nonzero;fill:rgb(93.8%,84.2%,51.3%);fill-opacity:1;" d="M 146.5 25 C 146.5 36.875 136.875 46.5 125 46.5 C 113.125 46.5 103.5 36.875 103.5 25 C 103.5 13.125 113.125 3.5 125 3.5 C 136.875 3.5 146.5 13.125 146.5 25 "/>
<path style=" stroke:none;fill-rule:nonzero;fill:rgb(27.6%,43.3%,72%);fill-opacity:1;" d="M 188.5 25 C 188.5 32.457031 182.457031 38.5 175 38.5 C 167.542969 38.5 161.5 32.457031 161.5 25 C 161.5 17.542969 167.542969 11.5 175 11.5 C 182.457031 11.5 188.5 17.542969 188.5 25 "/>
<path style=" stroke:none;fill-rule:nonzero;fill:rgb(78.4%,15.1%,25%);fill-opacity:1;" d="M 236.5 25 C 236.5 31.351562 231.351562 36.5 225 36.5 C 218.648438 36.5 213.5 31.351562 213.5 25 C 213.5 18.648438 218.648438 13.5 225 13.5 C 231.351562 13.5 236.5 18.648438 236.5 25 "/>
<path style=" stroke:none;fill-rule:nonzero;fill:rgb(63.9%,83.5%,53.8%);fill-opacity:1;" d="M 296.5 25 C 296.5 36.875 286.875 46.5 275 46.5 C 263.125 46.5 253.5 36.875 253.5 25 C 253.5 13.125 263.125 3.5 275 3.5 C 286.875 3.5 296.5 13.125 296.5 25 "/>
<path style=" stroke:none;fill-rule:nonzero;fill:rgb(14.4%,99.4%,32.5%);fill-opacity:1;" d="M 342 25 C 342 34.390625 334.390625 42 325 42 C 315.609375 42 308 34.390625 308 25 C 308 15.609375 315.609375 8 325 8 C 334.390625 8 342 15.609375 342 25 "/>
<path style=" stroke:none;fill-rule:nonzero;fill:rgb(57.4%,99.8%,13%);fill-opacity:1;" d="M 399 25 C 399 38.253906 388.253906 49 375 49 C 361.746094 49 351 38.253906 351 25 C 351 11.746094 361.746094 1 375 1 C 388.253906 1 399 11.746094 399 25 "/>
<path style=" stroke:none;fill-rule:nonzero;fill:rgb(48.4%,54.8%,49%);fill-opacity:1;" d="M 441.5 25 C 441.5 34.113281 434.113281 41.5 425 41.5 C 415.886719 41.5 408.5 34.113281 408.5 25 C 408.5 15.886719 415.886719 8.5 425 8.5 C 434.113281 8.5 441.5 15.886719 441.5 25 "/>
<path style=" stroke:none;fill-rule:nonzero;fill:rgb(33.3%,29.4%,3.3%);fill-opacity:1;" d="M 481 25 C 481 28.3125 478.3125 31 475 31 C 471.6875 31 469 28.3125 469 25 C 469 21.6875 471.6875 19 475 19 C 478.3125 19 481 21.6875 481 25 "/>
<path style=" stroke:none;fill-rule:nonzero;fill:rgb(54.5%,19.4%,14.3%);fill-opacity:1;" d="M 481 75 C 481 78.3125 478.3125 81 475 81 C 471.6875 81 469 78.3125 469 75 C 469 71.6875 471.6875 69 475 69 C 478.3125 69 481 71.6875 481 75 "/>
<path style=" stroke:none;fill-rule:nonzero;fill:rgb(59.6%,97.7%,71%);fill-opacity:1;" d="M 447 75 C 447 87.148438 437.148438 97 425 97 C 412.851562 97 403 87.148438 403 75 C 403 62.851562 412.851562 53 425 53 C 437.148438 53 447 62.851562 447 75 "/>
<path style=" stroke:none;fill-rule:nonzero;fill:rgb(45.9%,82.8%,71.2%);fill-opacity:1;" d="M 385.5 75 C 385.5 80.800781 380.800781 85.5 375 85.5 C 369.199219 85.5 364.5 80.800781 364.5 75 C 364.5 69.199219 369.199219 64.5 375 64.5 C 380.800781 64.5 385.5 69.199219 385.5 75 "/>
<path style=" stroke:none;fill-rule:nonzero;fill:rgb(39.7%,5%,89.7%);fill-opacity:1;" d="M 339 75 C 339 82.730469 332.730469 89 325 89 C 317.269531 89 311 82.730469 311 75 C 311 67.269531 317.269531 61 325 61 C 332.730469 61 339 67.269531 339 75 "/>
<path style=" stroke:none;fill-rule:nonzero;fill:rgb(3.2%,72.7%,14.1%);fill-opacity:1;" d="M 285.5 75 C 285.5 80.800781 280.800781 85.5 275 85.5 C 269.199219 85.5 264.5 80.800781 264.5 75 C 264.5 69.199219 269.199219 64.5 275 64.5 C 280.800781 64.5 285.5 69.199219 285.5 75 "/>
<path style=" stroke:none;fill-rule:nonzero;fill:rgb(79.3%,51.6%,47.9%);fill-opacity:1;" d="M 234 75 C 234 79.96875 229.96875 84 225 84 C 220.03125 84 216 79.96875 216 75 C 216 70.03125 220.03125 66 225 66 C 229.96875 66 234 70.03125 234 75 "/>
<path style=" stroke:none;fill-rule:nonzero;fill:rgb(12.5%,10.5%,83%);fill-opacity:1;" d="M 193 75 C 193 84.941406 184.941406 93 175 93 C 165.058594 93 157 84.941406 157 75 C 157 65.058594 165.058594 57 175 57 C 184.941406 57 193 65.058594 193 75 "/>
<path style=" stroke:none;fill-rule:nonzero;fill:rgb(8.3%,59%,15.6%);fill-opacity:1;" d="M 148.5 75 C 148.5 87.980469 137.980469 98.5 125 98.5 C 112.019531 98.5 101.5 87.980469 101.5 75 C 101.5 62.019531 112.019531 51.5 125 51.5 C 137.980469 51.5 148.5 62.019531 148.5 75 "/>
<path style=" stroke:none;fill-rule:nonzero;fill:rgb(27.8%,57%,22.3%);fill-opacity:1;" d="M 91.5 75 C 91.5 84.113281 84.113281 91.5 75 91.5 C 65.886719 91.5 58.5 84.113281 58.5 75 C 58.5 65.886719 65.886719 58.5 75 58.5 C 84.113281 58.5 91.5 65.886719 91.5 75 "/>
<path style=" stroke:none;fill-rule:nonzero;fill:rgb(24.8%,26.8%,73.9%);fill-opacity:1;" d="M 32.5 75 C 32.5 79.140625 29.140625 82.5 25 82.5 C 20.859375 82.5 17.5 79.140625 17.5 75 C 17.5 70.859375 20.859375 67.5 25 67.5 C 29.140625 67.5 32.5 70.859375 32.5 75 "/>
<path style=" stroke:none;fill-rule:nonzero;fill:rgb(28.4%,65.4%,48.1%);fill-opacity:1;" d="M 32.5 125 C 32.5 129.140625 29.140625 132.5 25 132.5 C 20.859375 132.5 17.5 129.140625 17.5 125 C 17.5 120.859375 20.859375 117.5 25 117.5 C 29.140625 117.5 32.5 120.859375 32.5 125 "/>
<path style=" stroke:none;fill-rule:nonzero;fill:rgb(73%,81.6%,36.9%);fill-opacity:1;" d="M 95 125 C 95 136.046875 86.046875 145 75 145 C 63.953125 145 55 136.046875 55 125 C 55 113.953125 63.953125 105 75 105 C 86.046875 105 95 113.953125 95 125 "/>
<path style=" stroke:none;fill-rule:nonzero;fill:rgb(32.1%,55.7%,35%);fill-opacity:1;" d="M 133 125 C 133 129.417969 129.417969 133 125 133 C 120.582031 133 117 129.417969 117 125 C 117 120.582031 120.582031 117 125 117 C 129.417969 117 133 120.582031 133 125 "/>
<path style=" stroke:none;fill-rule:nonzero;fill:rgb(43.7%,78.4%,38%);fill-opacity:1;" d="M 195 125 C 195 136.046875 186.046875 145 175 145 C 163.953125 145 155 136.046875 155 125 C 155 113.953125 163.953125 105 175 105 C 186.046875 105 195 113.953125 195 125 "/>
<path style=" stroke:none;fill-rule:nonzero;fill:rgb(96%,52.5%,88%);fill-opacity:1;" d="M 244.5 125 C 244.5 135.769531 235.769531 144.5 225 144.5 C 214.230469 144.5 205.5 135.769531 205.5 125 C 205.5 114.230469 214.230469 105.5 225 105.5 C 235.769531 105.5 244.5 114.230469 244.5 125 "/>
<path style=" stroke:none;fill-rule:nonzero;fill:rgb(27.4%,74%,88.4%);fill-opacity:1;" d="M 285.5 125 C 285.5 130.800781 280.800781 135.5 275 135.5 C 269.199219 135.5 264.5 130.800781 264.5 125 C 264.5 119.199219 269.199219 114.5 275 114.5 C 280.800781 114.5 285.5 119.199219 285.5 125 "/>
<path style=" stroke:none;fill-rule:nonzero;fill:rgb(92.2%,23.5%,52.8%);fill-opacity:1;" d="M 344 125 C 344 135.492188 335.492188 144 325 144 C 314.507812 144 306 135.492188 306 125 C 306 114.507812 314.507812 106 325 106 C 335.492188 106 344 114.507812 344 125 "/>
<path style=" stroke:none;fill-rule:nonzero;fill:rgb(80.3%,36.7%,27.3%);fill-opacity:1;" d="M 382 125 C 382 128.867188 378.867188 132 375 132 C 371.132812 132 368 128.867188 368 125 C 368 121.132812 371.132812 118 375 118 C 378.867188 118 382 121.132812 382 125 "/>
<path style=" stroke:none;fill-rule:nonzero;fill:rgb(91.7%,91.6%,83.2%);fill-opacity:1;" d="M 432 125 C 432 128.867188 428.867188 132 425 132 C 421.132812 132 418 128.867188 418 125 C 418 121.132812 421.132812 118 425 118 C 428.867188 118 432 121.132812 432 125 "/>
<path style=" stroke:none;fill-rule:nonzero;fill:rgb(48.4%,92%,75.4%);fill-opacity:1;" d="M 498 125 C 498 137.703125 487.703125 148 475 148 C 462.296875 148 452 137.703125 452 125 C 452 112.296875 462.296875 102 475 102 C 487.703125 102 498 112.296875 498 125 "/>
<path style=" stroke:none;fill-rule:nonzero;fill:rgb(60.5%,83.4%,64.8%);fill-opacity:1;" d="M 500 175 C 500 188.808594 488.808594 200 475 200 C 461.191406 200 450 188.808594 450 175 C 450 161.191406 461.191406 150 475 150 C 488.808594 150 500 161.191406 500 175 "/>
<path style=" stroke:none;fill-rule:nonzero;fill:rgb(33.5%,22.9%,28.6%);fill-opacity:1;" d="M 431 175 C 431 178.3125 428.3125 181 425 181 C 421.6875 181 419 178.3125 419 175 C 419 171.6875 421.6875 169 425 169 C 428.3125 169 431 171.6875 431 175 "/>
<path style=" stroke:none;fill-rule:nonzero;fill:rgb(68.8%,7.2%,51.2%);fill-opacity:1;" d="M 381 175 C 381 178.3125 378.3125 181 375 181 C 371.6875 181 369 178.3125 369 175 C 369 171.6875 371.6875 169 375 169 C 378.3125 169 381 171.6875 381 175 "/>
<path style=" stroke:none;fill-rule:nonzero;fill:rgb(75.7%,29.8%,81.9%);fill-opacity:1;" d="M 336.5 175 C 336.5 181.351562 331.351562 186.5 325 186.5 C 318.648438 186.5 313.5 181.351562 313.5 175 C 313.5 168.648438 318.648438 163.5 325 163.5 C 331.351562 163.5 336.5 168.648438 336.5 175 "/>
<path style=" stroke:none;fill-rule:nonzero;fill:rgb(62.7%,96.4%,0.4%);fill-opacity:1;" d="M 280 175 C 280 181.667969 270 181.667969 270 175 C 270 168.332031 280 168.332031 280 175 "/>
<path style=" stroke:none;fill-rule:nonzero;fill:rgb(5.1%,78.9%,97.9%);fill-opacity:1;" d="M 236.5 175 C 236.5 181.351562 231.351562 186.5 225 186.5 C 218.648438 186.5 213.5 181.351562 213.5 175 C 213.5 168.648438 218.648438 163.5 225 163.5 C 231.351562 163.5 236.5 168.648438 236.5 175 "/>
<path style=" stroke:none;fill-rule:nonzero;fill:rgb(67.9%,65%,79.5%);fill-opacity:1;" d="M 194.5 175 C 194.5 185.769531 185.769531 194.5 175 194.5 C 164.230469 194.5 155.5 185.769531 155.5 175 C 155.5 164.230469 164.230469 155.5 175 155.5 C 185.769531 155.5 194.5 164.230469 194.5 175 "/>
<path style=" stroke:none;fill-rule:nonzero;fill:rgb(73.1%,93.8%,45.1%);fill-opacity:1;" d="M 149 175 C 149 188.253906 138.253906 199 125 199 C 111.746094 199 101 188.253906 101 175 C 101 161.746094 111.746094 151 125 151 C 138.253906 151 149 161.746094 149 175 "/>
<path style=" stroke:none;fill-rule:nonzero;fill:rgb(12.4%,81%,22.9%);fill-opacity:1;" d="M 97 175 C 97 187.148438 87.148438 197 75 197 C 62.851562 197 53 187.148438 53 175 C 53 162.851562 62.851562 153 75 153 C 87.148438 153 97 162.851562 97 175 "/>
<path style=" stroke:none;fill-rule:nonzero;fill:rgb(14.6%,49.2%,50.6%);fill-opacity:1;" d="M 37 175 C 37 181.628906 31.628906 187 25 187 C 18.371094 187 13 181.628906 13 175 C 13 168.371094 18.371094 163 25 163 C 31.628906 163 37 168.371094 37 175 "/>
<path style=" stroke:none;fill-rule:nonzero;fill:rgb(59.6%,51.9%,22%);fill-opacity:1;" d="M 39 225 C 39 232.730469 32.730469 239 25 239 C 17.269531 239 11 232.730469 11 225 C 11 217.269531 17.269531 211 25 211 C 32.730469 211 39 217.269531 39 225 "/>
<path style=" stroke:none;fill-rule:nonzero;fill:rgb(40.1%,71.8%,41.4%);fill-opacity:1;" d="M 90 225 C 90 233.285156 83.285156 240 75 240 C 66.714844 240 60 233.285156 60 225 C 60 216.714844 66.714844 210 75 210 C 83.285156 210 90 216.714844 90 225 "/>
<path style=" stroke:none;fill-rule:nonzero;fill:rgb(34.2%,26.5%,26.2%);fill-opacity:1;" d="M 133 225 C 133 229.417969 129.417969 233 125 233 C 120.582031 233 117 229.417969 117 225 C 117 220.582031 120.582031 217 125 217 C 129.417969 217 133 220.582031 133 225 "/>
<path style=" stroke:none;fill-rule:nonzero;fill:rgb(46.7%,38%,79.9%);fill-opacity:1;" d="M 184.5 225 C 184.5 230.246094 180.246094 234.5 175 234.5 C 169.753906 234.5 165.5 230.246094 165.5 225 C 165.5 219.753906 169.753906 215.5 175 215.5 C 180.246094 215.5 184.5 219.753906 184.5 225 "/>
<path style=" stroke:none;fill-rule:nonzero;fill:rgb(96%,35%,12.2%);fill-opacity:1;" d="M 238.5 225 C 238.5 232.457031 232.457031 238.5 225 238.5 C 217.542969 238.5 211.5 232.457031 211.5 225 C 211.5 217.542969 217.542969 211.5 225 211.5 C 232.457031 211.5 238.5 217.542969 238.5 225 "/>
<path style=" stroke:none;fill-rule:nonzero;fill:rgb(72.8%,46.8%,48.4%);fill-opacity:1;" d="M 292 225 C 292 234.390625 284.390625 242 275 242 C 265.609375 242 258 234.390625 258 225 C 258 215.609375 265.609375 208 275 208 C 284.390625 208 292 215.609375 292 225 "/>
<path style=" stroke:none;fill-rule:nonzero;fill:rgb(33.2%,18.3%,16.8%);fill-opacity:1;" d="M 344 225 C 344 235.492188 335.492188 244 325 244 C 314.507812 244 306 235.492188 306 225 C 306 214.507812 314.507812 206 325 206 C 335.492188 206 344 214.507812 344 225 "/>
<path style=" stroke:none;fill-rule:nonzero;fill:rgb(37.3%,35.9%,69.8%);fill-opacity:1;" d="M 400 225 C 400 238.808594 388.808594 250 375 250 C 361.191406 250 350 238.808594 350 225 C 350 211.191406 361.191406 200 375 200 C 388.808594 200 400 211.191406 400 225 "/>
<path style=" stroke:none;fill-rule:nonzero;fill:rgb(42.3%,67%,30.1%);fill-opacity:1;" d="M 447.5 225 C 447.5 237.425781 437.425781 247.5 425 247.5 C 412.574219 247.5 402.5 237.425781 402.5 225 C 402.5 212.574219 412.574219 202.5 425 202.5 C 437.425781 202.5 447.5 212.574219 447.5 225 "/>
<path style=" stroke:none;fill-rule:nonzero;fill:rgb(10.3%,46.7%,52.2%);fill-opacity:1;" d="M 484.5 225 C 484.5 230.246094 480.246094 234.5 475 234.5 C 469.753906 234.5 465.5 230.246094 465.5 225 C 465.5 219.753906 469.753906 215.5 475 215.5 C 480.246094 215.5 484.5 219.753906 484.5 225 "/>
<path style=" stroke:none;fill-rule:nonzero;fill:rgb(73%,59.3%,55%);fill-opacity:1;" d="M 494.5 275 C 494.5 285.769531 485.769531 294.5 475 294.5 C 464.230469 294.5 455.5 285.769531 455.5 275 C 455.5 264.230469 464.230469 255.5 475 255.5 C 485.769531 255.5 494.5 264.230469 494.5 275 "/>
<path style=" stroke:none;fill-rule:nonzero;fill:rgb(66.5%,33.8%,33%);fill-opacity:1;" d="M 436 275 C 436 281.074219 431.074219 286 425 286 C 418.925781 286 414 281.074219 414 275 C 414 268.925781 418.925781 264 425 264 C 431.074219 264 436 268.925781 436 275 "/>
<path style=" stroke:none;fill-rule:nonzero;fill:rgb(94.5%,86.8%,7.6%);fill-opacity:1;" d="M 383.5 275 C 383.5 279.695312 379.695312 283.5 375 283.5 C 370.304688 283.5 366.5 279.695312 366.5 275 C 366.5 270.304688 370.304688 266.5 375 266.5 C 379.695312 266.5 383.5 270.304688 383.5 275 "/>
<path style=" stroke:none;fill-rule:nonzero;fill:rgb(0%,44.5%,91.9%);fill-opacity:1;" d="M 333 275 C 333 279.417969 329.417969 283 325 283 C 320.582031 283 317 279.417969 317 275 C 317 270.582031 320.582031 267 325 267 C 329.417969 267 333 270.582031 333 275 "/>
<path style=" stroke:none;fill-rule:nonzero;fill:rgb(28.5%,42.8%,97.4%);fill-opacity:1;" d="M 288 275 C 288 282.179688 282.179688 288 275 288 C 267.820312 288 262 282.179688 262 275 C 262 267.820312 267.820312 262 275 262 C 282.179688 262 288 267.820312 288 275 "/>
<path style=" stroke:none;fill-rule:nonzero;fill:rgb(84.6%,61.6%,39.5%);fill-opacity:1;" d="M 236 275 C 236 281.074219 231.074219 286 225 286 C 218.925781 286 214 281.074219 214 275 C 214 268.925781 218.925781 264 225 264 C 231.074219 264 236 268.925781 236 275 "/>
<path style=" stroke:none;fill-rule:nonzero;fill:rgb(42%,60.3%,37.5%);fill-opacity:1;" d="M 190 275 C 190 283.285156 183.285156 290 175 290 C 166.714844 290 160 283.285156 160 275 C 160 266.714844 166.714844 260 175 260 C 183.285156 260 190 266.714844 190 275 "/>
<path style=" stroke:none;fill-rule:nonzero;fill:rgb(43.7%,49.3%,16.9%);fill-opacity:1;" d="M 143 275 C 143 284.941406 134.941406 293 125 293 C 115.058594 293 107 284.941406 107 275 C 107 265.058594 115.058594 257 125 257 C 134.941406 257 143 265.058594 143 275 "/>
<path style=" stroke:none;fill-rule:nonzero;fill:rgb(79.5%,78.1%,8%);fill-opacity:1;" d="M 93.5 275 C 93.5 285.21875 85.21875 293.5 75 293.5 C 64.78125 293.5 56.5 285.21875 56.5 275 C 56.5 264.78125 64.78125 256.5 75 256.5 C 85.21875 256.5 93.5 264.78125 93.5 275 "/>
<path style=" stroke:none;fill-rule:nonzero;fill:rgb(84.3%,14.8%,38%);fill-opacity:1;" d="M 43.5 275 C 43.5 285.21875 35.21875 293.5 25 293.5 C 14.78125 293.5 6.5 285.21875 6.5 275 C 6.5 264.78125 14.78125 256.5 25 256.5 C 35.21875 256.5 43.5 264.78125 43.5 275 "/>
<path style=" stroke:none;fill-rule:nonzero;fill:rgb(47.6%,28.5%,21.3%);fill-opacity:1;" d="M 34 325 C 34 329.96875 29.96875 334 25 334 C 20.03125 334 16 329.96875 16 325 C 16 320.03125 20.03125 316 25 316 C 29.96875 316 34 320.03125 34 325 "/>
<path style=" stroke:none;fill-rule:nonzero;fill:rgb(57.1%,69.2%,5.3%);fill-opacity:1;" d="M 91 325 C 91 333.835938 83.835938 341 75 341 C 66.164062 341 59 333.835938 59 325 C 59 316.164062 66.164062 309 75 309 C 83.835938 309 91 316.164062 91 325 "/>
<path style=" stroke:none;fill-rule:nonzero;fill:rgb(14.3%,30.1%,45.4%);fill-opacity:1;" d="M 135.5 325 C 135.5 330.800781 130.800781 335.5 125 335.5 C 119.199219 335.5 114.5 330.800781 114.5 325 C 114.5 319.199219 119.199219 314.5 125 314.5 C 130.800781 314.5 135.5 319.199219 135.5 325 "/>
<path style=" stroke:none;fill-rule:nonzero;fill:rgb(50.2%,40%,79.6%);fill-opacity:1;" d="M 189.5 325 C 189.5 333.007812 183.007812 339.5 175 339.5 C 166.992188 339.5 160.5 333.007812 160.5 325 C 160.5 316.992188 166.992188 310.5 175 310.5 C 183.007812 310.5 189.5 316.992188 189.5 325 "/>
<path style=" stroke:none;fill-rule:nonzero;fill:rgb(85%,53.4%,97.8%);fill-opacity:1;" d="M 247 325 C 247 337.148438 237.148438 347 225 347 C 212.851562 347 203 337.148438 203 325 C 203 312.851562 212.851562 303 225 303 C 237.148438 303 247 312.851562 247 325 "/>
<path style=" stroke:none;fill-rule:nonzero;fill:rgb(47.2%,27%,10.8%);fill-opacity:1;" d="M 287 325 C 287 331.628906 281.628906 337 275 337 C 268.371094 337 263 331.628906 263 325 C 263 318.371094 268.371094 313 275 313 C 281.628906 313 287 318.371094 287 325 "/>
<path style=" stroke:none;fill-rule:nonzero;fill:rgb(14%,13.4%,98.1%);fill-opacity:1;" d="M 345.5 325 C 345.5 336.320312 336.320312 345.5 325 345.5 C 313.679688 345.5 304.5 336.320312 304.5 325 C 304.5 313.679688 313.679688 304.5 325 304.5 C 336.320312 304.5 345.5 313.679688 345.5 325 "/>
<path style=" stroke:none;fill-rule:nonzero;fill:rgb(43.4%,11.8%,29.4%);fill-opacity:1;" d="M 395.5 325 C 395.5 336.320312 386.320312 345.5 375 345.5 C 363.679688 345.5 354.5 336.320312 354.5 325 C 354.5 313.679688 363.679688 304.5 375 304.5 C 386.320312 304.5 395.5 313.679688 395.5 325 "/>
<path style=" stroke:none;fill-rule:nonzero;fill:rgb(7.1%,0%,10.7%);fill-opacity:1;" d="M 443 325 C 443 334.941406 434.941406 343 425 343 C 415.058594 343 407 334.941406 407 325 C 407 315.058594 415.058594 307 425 307 C 434.941406 307 443 315.058594 443 325 "/>
<path style=" stroke:none;fill-rule:nonzero;fill:rgb(1.6%,5.9%,64.8%);fill-opacity:1;" d="M 492.5 325 C 492.5 334.664062 484.664062 342.5 475 342.5 C 465.335938 342.5 457.5 334.664062 457.5 325 C 457.5 315.335938 465.335938 307.5 475 307.5 C 484.664062 307.5 492.5 315.335938 492.5 325 "/>
<path style=" stroke:none;fill-rule:nonzero;fill:rgb(37.7%,57.1%,18.7%);fill-opacity:1;" d="M 497.5 375 C 497.5 387.425781 487.425781 397.5 475 397.5 C 462.574219 397.5 452.5 387.425781 452.5 375 C 452.5 362.574219 462.574219 352.5 475 352.5 C 487.425781 352.5 497.5 362.574219 497.5 375 "/>
<path style=" stroke:none;fill-rule:nonzero;fill:rgb(17.4%,81.2%,28.3%);fill-opacity:1;" d="M 432 375 C 432 378.867188 428.867188 382 425 382 C 421.132812 382 418 378.867188 418 375 C 418 371.132812 421.132812 368 425 368 C 428.867188 368 432 371.132812 432 375 "/>
<path style=" stroke:none;fill-rule:nonzero;fill:rgb(37.6%,91.4%,91.5%);fill-opacity:1;" d="M 397.5 375 C 397.5 387.425781 387.425781 397.5 375 397.5 C 362.574219 397.5 352.5 387.425781 352.5 375 C 352.5 362.574219 362.574219 352.5 375 352.5 C 387.425781 352.5 397.5 362.574219 397.5 375 "/>
<path style=" stroke:none;fill-rule:nonzero;fill:rgb(99.4%,2.3%,92.4%);fill-opacity:1;" d="M 332.5 375 C 332.5 379.140625 329.140625 382.5 325 382.5 C 320.859375 382.5 317.5 379.140625 317.5 375 C 317.5 370.859375 320.859375 367.5 325 367.5 C 329.140625 367.5 332.5 370.859375 332.5 375 "/>
<path style=" stroke:none;fill-rule:nonzero;fill:rgb(22.4%,49.7%,9.9%);fill-opacity:1;" d="M 297 375 C 297 387.148438 287.148438 397 275 397 C 262.851562 397 253 387.148438 253 375 C 253 362.851562 262.851562 353 275 353 C 287.148438 353 297 362.851562 297 375 "/>
<path style=" stroke:none;fill-rule:nonzero;fill:rgb(69.8%,24.3%,26.8%);fill-opacity:1;" d="M 239.5 375 C 239.5 383.007812 233.007812 389.5 225 389.5 C 216.992188 389.5 210.5 383.007812 210.5 375 C 210.5 366.992188 216.992188 360.5 225 360.5 C 233.007812 360.5 239.5 366.992188 239.5 375 "/>
<path style=" stroke:none;fill-rule:nonzero;fill:rgb(10.6%,33.7%,75.8%);fill-opacity:1;" d="M 189.5 375 C 189.5 383.007812 183.007812 389.5 175 389.5 C 166.992188 389.5 160.5 383.007812 160.5 375 C 160.5 366.992188 166.992188 360.5 175 360.5 C 183.007812 360.5 189.5 366.992188 189.5 375 "/>
<path style=" stroke:none;fill-rule:nonzero;fill:rgb(70.1%,21.8%,27.8%);fill-opacity:1;" d="M 131 375 C 131 378.3125 128.3125 381 125 381 C 121.6875 381 119 378.3125 119 375 C 119 371.6875 121.6875 369 125 369 C 128.3125 369 131 371.6875 131 375 "/>
<path style=" stroke:none;fill-rule:nonzero;fill:rgb(3%,36.9%,85.6%);fill-opacity:1;" d="M 82 375 C 82 378.867188 78.867188 382 75 382 C 71.132812 382 68 378.867188 68 375 C 68 371.132812 71.132812 368 75 368 C 78.867188 368 82 371.132812 82 375 "/>
<path style=" stroke:none;fill-rule:nonzero;fill:rgb(63.3%,0.7%,7.3%);fill-opacity:1;" d="M 31.5 375 C 31.5 378.589844 28.589844 381.5 25 381.5 C 21.410156 381.5 18.5 378.589844 18.5 375 C 18.5 371.410156 21.410156 368.5 25 368.5 C 28.589844 368.5 31.5 371.410156 31.5 375 "/>
<path style=" stroke:none;fill-rule:nonzero;fill:rgb(74.3%,13.5%,98.4%);fill-opacity:1;" d="M 37 425 C 37 431.628906 31.628906 437 25 437 C 18.371094 437 13 431.628906 13 425 C 13 418.371094 18.371094 413 25 413 C 31.628906 413 37 418.371094 37 425 "/>
<path style=" stroke:none;fill-rule:nonzero;fill:rgb(40.9%,30.8%,32.9%);fill-opacity:1;" d="M 100 425 C 100 438.808594 88.808594 450 75 450 C 61.191406 450 50 438.808594 50 425 C 50 411.191406 61.191406 400 75 400 C 88.808594 400 100 411.191406 100 425 "/>
<path style=" stroke:none;fill-rule:nonzero;fill:rgb(64%,25.9%,82.8%);fill-opacity:1;" d="M 147 425 C 147 437.148438 137.148438 447 125 447 C 112.851562 447 103 437.148438 103 425 C 103 412.851562 112.851562 403 125 403 C 137.148438 403 147 412.851562 147 425 "/>
<path style=" stroke:none;fill-rule:nonzero;fill:rgb(7.8%,88.7%,73.5%);fill-opacity:1;" d="M 182.5 425 C 182.5 429.140625 179.140625 432.5 175 432.5 C 170.859375 432.5 167.5 429.140625 167.5 425 C 167.5 420.859375 170.859375 417.5 175 417.5 C 179.140625 417.5 182.5 420.859375 182.5 425 "/>
<path style=" stroke:none;fill-rule:nonzero;fill:rgb(80.6%,32.6%,93.4%);fill-opacity:1;" d="M 246.5 425 C 246.5 436.875 236.875 446.5 225 446.5 C 213.125 446.5 203.5 436.875 203.5 425 C 203.5 413.125 213.125 403.5 225 403.5 C 236.875 403.5 246.5 413.125 246.5 425 "/>
<path style=" stroke:none;fill-rule:nonzero;fill:rgb(53.8%,18.2%,46.6%);fill-opacity:1;" d="M 292 425 C 292 434.390625 284.390625 442 275 442 C 265.609375 442 258 434.390625 258 425 C 258 415.609375 265.609375 408 275 408 C 284.390625 408 292 415.609375 292 425 "/>
<path style=" stroke:none;fill-rule:nonzero;fill:rgb(69%,75.9%,48%);fill-opacity:1;" d="M 342 425 C 342 434.390625 334.390625 442 325 442 C 315.609375 442 308 434.390625 308 425 C 308 415.609375 315.609375 408 325 408 C 334.390625 408 342 415.609375 342 425 "/>
<path style=" stroke:none;fill-rule:nonzero;fill:rgb(76.4%,60.3%,7.2%);fill-opacity:1;" d="M 391.5 425 C 391.5 434.113281 384.113281 441.5 375 441.5 C 365.886719 441.5 358.5 434.113281 358.5 425 C 358.5 415.886719 365.886719 408.5 375 408.5 C 384.113281 408.5 391.5 415.886719 391.5 425 "/>
<path style=" stroke:none;fill-rule:nonzero;fill:rgb(92.6%,61.1%,43.7%);fill-opacity:1;" d="M 444 425 C 444 435.492188 435.492188 444 425 444 C 414.507812 444 406 435.492188 406 425 C 406 414.507812 414.507812 406 425 406 C 435.492188 406 444 414.507812 444 425 "/>
<path style=" stroke:none;fill-rule:nonzero;fill:rgb(59.6%,8.3%,7.2%);fill-opacity:1;" d="M 497.5 425 C 497.5 437.425781 487.425781 447.5 475 447.5 C 462.574219 447.5 452.5 437.425781 452.5 425 C 452.5 412.574219 462.574219 402.5 475 402.5 C 487.425781 402.5 497.5 412.574219 497.5 425 "/>
<path style=" stroke:none;fill-rule:nonzero;fill:rgb(34.3%,39.8%,93.9%);fill-opacity:1;" d="M 495 475 C 495 486.046875 486.046875 495 475 495 C 463.953125 495 455 486.046875 455 475 C 455 463.953125 463.953125 455 475 455 C 486.046875 455 495 463.953125 495 475 "/>
<path style=" stroke:none;fill-rule:nonzero;fill:rgb(71.5%,99.3%,26.8%);fill-opacity:1;" d="M 445.5 475 C 445.5 486.320312 436.320312 495.5 425 495.5 C 413.679688 495.5 404.5 486.320312 404.5 475 C 404.5 463.679688 413.679688 454.5 425 454.5 C 436.320312 454.5 445.5 463.679688 445.5 475 "/>
<path style=" stroke:none;fill-rule:nonzero;fill:rgb(54%,52.4%,36.4%);fill-opacity:1;" d="M 391 475 C 391 483.835938 383.835938 491 375 491 C 366.164062 491 359 483.835938 359 475 C 359 466.164062 366.164062 459 375 459 C 383.835938 459 391 466.164062 391 475 "/>
<path style=" stroke:none;fill-rule:nonzero;fill:rgb(46.9%,61.3%,83.2%);fill-opacity:1;" d="M 343.5 475 C 343.5 485.21875 335.21875 493.5 325 493.5 C 314.78125 493.5 306.5 485.21875 306.5 475 C 306.5 464.78125 314.78125 456.5 325 456.5 C 335.21875 456.5 343.5 464.78125 343.5 475 "/>
<path style=" stroke:none;fill-rule:nonzero;fill:rgb(0.4%,25.1%,35.3%);fill-opacity:1;" d="M 292 475 C 292 484.390625 284.390625 492 275 492 C 265.609375 492 258 484.390625 258 475 C 258 465.609375 265.609375 458 275 458 C 284.390625 458 292 465.609375 292 475 "/>
<path style=" stroke:none;fill-rule:nonzero;fill:rgb(74.9%,25.3%,66.5%);fill-opacity:1;" d="M 230 475 C 230 481.667969 220 481.667969 220 475 C 220 468.332031 230 468.332031 230 475 "/>
<path style=" stroke:none;fill-rule:nonzero;fill:rgb(8.4%,36.8%,91.7%);fill-opacity:1;" d="M 180 475 C 180 481.667969 170 481.667969 170 475 C 170 468.332031 180 468.332031 180 475 "/>
<path style=" stroke:none;fill-rule:nonzero;fill:rgb(1.7%,21.6%,51.3%);fill-opacity:1;" d="M 137.5 475 C 137.5 481.902344 131.902344 487.5 125 487.5 C 118.097656 487.5 112.5 481.902344 112.5 475 C 112.5 468.097656 118.097656 462.5 125 462.5 C 131.902344 462.5 137.5 468.097656 137.5 475 "/>
<path style=" stroke:none;fill-rule:nonzero;fill:rgb(39.4%,84.8%,65.5%);fill-opacity:1;" d="M 96.5 475 C 96.5 486.875 86.875 496.5 75 496.5 C 63.125 496.5 53.5 486.875 53.5 475 C 53.5 463.125 63.125 453.5 75 453.5 C 86.875 453.5 96.5 463.125 96.5 475 "/>
<path style=" stroke:none;fill-rule:nonzero;fill:rgb(78.8%,60.1%,1.5%);fill-opacity:1;" d="M 31 475 C 31 478.3125 28.3125 481 25 481 C 21.6875 481 19 478.3125 19 475 C 19 471.6875 21.6875 469 25 469 C 28.3125 469 31 471.6875 31 475 "/>
<path style="fill:none;stroke-width:0.01;stroke-linecap:butt;stroke-linejoin:miter;stroke:rgb(35.1%,7.7%,93.5%);stroke-opacity:1;stroke-miterlimit:10;" d="M 0.05 0.05 C 0.15 0.05 0.25 0.05 0.35 0.05 " transform="matrix(500,0,0,500,0,0)"/>
<path style="fill:none;stroke-width:0.01;stroke-linecap:butt;stroke-linejoin:miter;stroke:rgb(21.2%,16.5%,15.9%);stroke-opacity:1;stroke-miterlimit:10;" d="M 0.35 0.05 C 0.45 0.05 0.55 0.05 0.65 0.05 " transform="matrix(500,0,0,500,0,0)"/>
<path style="fill:none;stroke-width:0.01;stroke-linecap:butt;stroke-linejoin:miter;stroke:rgb(89%,64.2%,58.3%);stroke-opacity:1;stroke-miterlimit:10;" d="M 0.65 0.05 C 0.75 0.05 0.85 0.05 0.95 0.05 " transform="matrix(500,0,0,500,0,0)"/>
<path style="fill:none;stroke-width:0.01;stroke-linecap:butt;stroke-linejoin:miter;stroke:rgb(4.2%,8.4%,78.2%);stroke-opacity:1;stroke-miterlimit:10;" d="M 0.95 0.05 C 0.95 0.15 0.85 0.15 0.75 0.15 " transform="matrix(500,0,0,500,0,0)"/>
<path style="fill:none;stroke-width:0.01;stroke-linecap:butt;stroke-linejoin:miter;stroke:rgb(20.4%,84.1%,39%);stroke-opacity:1;stroke-miterlimit:10;" d="M 0.75 0.15 C 0.65 0.15 0.55 0.15 0.45 0.15 " transform="matrix(500,0,0,500,0,0)"/>
<path style="fill:none;stroke-width:0.01;stroke-linecap:butt;stroke-linejoin:miter;stroke:rgb(98.7%,39.9%,1.1%);stroke-opacity:1;stroke-miterlimit:10;" d="M 0.45 0.15 C 0.35 0.15 0.25 0.15 0.15 0.15 " transform="matrix(500,0,0,500,0,0)"/>
<path style="fill:none;stroke-width:0.01;stroke-linecap:butt;stroke-linejoin:miter;stroke:rgb(13.7%,49.1%,45.8%);stroke-opacity:1;stroke-miterlimit:10;" d="M 0.15 0.15 C 0.05 0.15 0.05 0.25 0.15 0.25 " transform="matrix(500,0,0,500,0,0)"/>
<path style="fill:none;stroke-width:0.01;stroke-linecap:butt;stroke-linejoin:miter;stroke:rgb(55.2%,98%,29.9%);stroke-opacity:1;stroke-miterlimit:10;" d="M 0.15 0.25 C 0.25 0.25 0.35 0.25 0.45 0.25 " transform="matrix(500,0,0,500,0,0)"/>
<path style="fill:none;stroke-width:0.01;stroke-linecap:butt;stroke-linejoin:miter;stroke:rgb(12.1%,72.8%,9.9%);stroke-opacity:1;stroke-miterlimit:10;" d="M 0.45 0.25 C 0.55 0.25 0.65 0.25 0.75 0.25 " transform="matrix(500,0,0,500,0,0)"/>
<path style="fill:none;stroke-width:0.01;stroke-linecap:butt;stroke-linejoin:miter;stroke:rgb(93.8%,32.3%,62%);stroke-opacity:1;stroke-miterlimit:10;" d="M 0.75 0.25 C 0.85 0.25 0.95 0.25 0.95 0.35 " transform="matrix(500,0,0,500,0,0)"/>
<path style="fill:none;stroke-width:0.01;stroke-linecap:butt;stroke-linejoin:miter;stroke:rgb(83.9%,66.9%,70.5%);stroke-opacity:1;stroke-miterlimit:10;" d="M 0.95 0.35 C 0.85 0.35 0.75 0.35 0.65 0.35 " transform="matrix(500,0,0,500,0,0)"/>
<path style="fill:none;stroke-width:0.01;stroke-linecap:butt;stroke-linejoin:miter;stroke:rgb(38.5%,31%,97.3%);stroke-opacity:1;stroke-miterlimit:10;" d="M 0.65 0.35 C 0.55 0.35 0.45 0.35 0.35 0.35 " transform="matrix(500,0,0,500,0,0)"/>
<path style="fill:none;stroke-width:0.01;stroke-linecap:butt;stroke-linejoin:miter;stroke:rgb(87.5%,24.6%,47.1%);stroke-opacity:1;stroke-miterlimit:10;" d="M 0.35 0.35 C 0.25 0.35 0.15 0.35 0.05 0.35 " transform="matrix(500,0,0,500,0,0)"/>
<path style="fill:none;stroke-width:0.01;stroke-linecap:butt;stroke-linejoin:miter;stroke:rgb(9.8%,78.8%,10.9%);stroke-opacity:1;stroke-miterlimit:10;" d="M 0.05 0.35 C 0.05 0.45 0.15 0.45 0.25 0.45 " transform="matrix(500,0,0,500,0,0)"/>
<path style="fill:none;stroke-width:0.01;stroke-linecap:butt;stroke-linejoin:miter;stroke:rgb(90.2%,75.6%,83.6%);stroke-opacity:1;stroke-miterlimit:10;" d="M 0.25 0.45 C 0.35 0.45 0.45 0.45 0.55 0.45 " transform="matrix(500,0,0,500,0,0)"/>
<path style="fill:none;stroke-width:0.01;stroke-linecap:butt;stroke-linejoin:miter;stroke:rgb(32.6%,90%,63.3%);stroke-opacity:1;stroke-miterlimit:10;" d="M 0.55 0.45 C 0.65 0.45 0.75 0.45 0.85 0.45 " transform="matrix(500,0,0,500,0,0)"/>
<path style="fill:none;stroke-width:0.01;stroke-linecap:butt;stroke-linejoin:miter;stroke:rgb(85.9%,48.9%,99.7%);stroke-opacity:1;stroke-miterlimit:10;" d="M 0.85 0.45 C 0.95 0.45 0.95 0.55 0.85 0.55 " transform="matrix(500,0,0,500,0,0)"/>
<path style="fill:none;stroke-width:0.01;stroke-linecap:butt;stroke-linejoin:miter;stroke:rgb(1.8%,80.8%,89.4%);stroke-opacity:1;stroke-miterlimit:10;" d="M 0.85 0.55 C 0.75 0.55 0.65 0.55 0.55 0.55 " transform="matrix(500,0,0,500,0,0)"/>
<path style="fill:none;stroke-width:0.01;stroke-linecap:butt;stroke-linejoin:miter;stroke:rgb(94%,1.9%,43.5%);stroke-opacity:1;stroke-miterlimit:10;" d="M 0.55 0.55 C 0.45 0.55 0.35 0.55 0.25 0.55 " transform="matrix(500,0,0,500,0,0)"/>
<path style="fill:none;stroke-width:0.01;stroke-linecap:butt;stroke-linejoin:miter;stroke:rgb(47.8%,77%,86.6%);stroke-opacity:1;stroke-miterlimit:10;" d="M 0.25 0.55 C 0.15 0.55 0.05 0.55 0.05 0.65 " transform="matrix(500,0,0,500,0,0)"/>
<path style="fill:none;stroke-width:0.01;stroke-linecap:butt;stroke-linejoin:miter;stroke:rgb(7.2%,98.8%,33%);stroke-opacity:1;stroke-miterlimit:10;" d="M 0.05 0.65 C 0.15 0.65 0.25 0.65 0.35 0.65 " transform="matrix(500,0,0,500,0,0)"/>
<path style="fill:none;stroke-width:0.01;stroke-linecap:butt;stroke-linejoin:miter;stroke:rgb(71.1%,85.1%,80.4%);stroke-opacity:1;stroke-miterlimit:10;" d="M 0.35 0.65 C 0.45 0.65 0.55 0.65 0.65 0.65 " transform="matrix(500,0,0,500,0,0)"/>
<path style="fill:none;stroke-width:0.01;stroke-linecap:butt;stroke-linejoin:miter;stroke:rgb(37.2%,87.6%,54.6%);stroke-opacity:1;stroke-miterlimit:10;" d="M 0.65 0.65 C 0.75 0.65 0.85 0.65 0.95 0.65 " transform="matrix(500,0,0,500,0,0)"/>
<path style="fill:none;stroke-width:0.01;stroke-linecap:butt;stroke-linejoin:miter;stroke:rgb(60.2%,43.4%,44.8%);stroke-opacity:1;stroke-miterlimit:10;" d="M 0.95 0.65 C 0.95 0.75 0.85 0.75 0.75 0.75 " transform="matrix(500,0,0,500,0,0)"/>
<path style="fill:none;stroke-width:0.01;stroke-linecap:butt;stroke-linejoin:miter;stroke:rgb(20.6%,39.6%,6.2%);stroke-opacity:1;stroke-miterlimit:10;" d="M 0.75 0.75 C 0.65 0.75 0.55 0.75 0.45 0.75 " transform="matrix(500,0,0,500,0,0)"/>
<path style="fill:none;stroke-width:0.01;stroke-linecap:butt;stroke-linejoin:miter;stroke:rgb(43.3%,45.6%,7.3%);stroke-opacity:1;stroke-miterlimit:10;" d="M 0.45 0.75 C 0.35 0.75 0.25 0.75 0.15 0.75 " transform="matrix(500,0,0,500,0,0)"/>
<path style="fill:none;stroke-width:0.01;stroke-linecap:butt;stroke-linejoin:miter;stroke:rgb(23.8%,47.2%,70.7%);stroke-opacity:1;stroke-miterlimit:10;" d="M 0.15 0.75 C 0.05 0.75 0.05 0.85 0.15 0.85 " transform="matrix(500,0,0,500,0,0)"/>
<path style="fill:none;stroke-width:0.01;stroke-linecap:butt;stroke-linejoin:miter;stroke:rgb(95.3%,98.3%,28.5%);stroke-opacity:1;stroke-miterlimit:10;" d="M 0.15 0.85 C 0.25 0.85 0.35 0.85 0.45 0.85 " transform="matrix(500,0,0,500,0,0)"/>
<path style="fill:none;stroke-width:0.01;stroke-linecap:butt;stroke-linejoin:miter;stroke:rgb(26.3%,98.3%,60.6%);stroke-opacity:1;stroke-miterlimit:10;" d="M 0.45 0.85 C 0.55 0.85 0.65 0.85 0.75 0.85 " transform="matrix(500,0,0,500,0,0)"/>
<path style="fill:none;stroke-width:0.01;stroke-linecap:butt;stroke-linejoin:miter;stroke:rgb(81.7%,42.6%,51%);stroke-opacity:1;stroke-miterlimit:10;" d="M 0.75 0.85 C 0.85 0.85 0.95 0.85 0.95 0.95 " transform="matrix(500,0,0,500,0,0)"/>
<path style="fill:none;stroke-width:0.01;stroke-linecap:butt;stroke-linejoin:miter;stroke:rgb(47.9%,97.6%,28.8%);stroke-opacity:1;stroke-miterlimit:10;" d="M 0.95 0.95 C 0.85 0.95 0.75 0.95 0.65 0.95 " transform="matrix(500,0,0,500,0,0)"/>
<path style="fill:none;stroke-width:0.01;stroke-linecap:butt;stroke-linejoin:miter;stroke:rgb(24.9%,67.5%,85.1%);stroke-opacity:1;stroke-miterlimit:10;" d="M 0.65 0.95 C 0.55 0.95 0.45 0.95 0.35 0.95 " transform="matrix(500,0,0,500,0,0)"/>
<path style="fill:none;stroke-width:0.01;stroke-linecap:butt;stroke-linejoin:miter;stroke:rgb(12.3%,72.3%,4.1%);stroke-opacity:1;stroke-miterlimit:10;" d="M 0.35 0.95 C 0.25 0.95 0.15 0.95 0.05 0.95 " transform="matrix(500,0,0,500,0,0)"/>
<path style=" stroke:none;fill-rule:nonzero;fill:rgb(37%,1.9%,70.4%);fill-opacity:0.5;" d="M 94 86 L 31 73 L 12.5 8.5 L 94 86 "/>
<path style=" stroke:none;fill-rule:nonzero;fill:rgb(48.9%,48.5%,6.8%);fill-opacity:0.5;" d="M 127 69 L 188 64 L 188.5 13 L 127 69 "/>
<path style=" stroke:none;fill-rule:nonzero;fill:rgb(22.5%,64%,67.2%);fill-opacity:0.5;" d="M 250.5 28.5 L 199.5 31 L 204.5 92.5 L 250.5 28.5 "/>
<path style=" stroke:none;fill-rule:nonzero;fill:rgb(91.8%,69.1%,0%);fill-opacity:0.5;" d="M 368 8.5 L 297.5 -7.5 L 281 65 L 368 8.5 "/>
<path style=" stroke:none;fill-rule:nonzero;fill:rgb(63.7%,67.4%,21%);fill-opacity:0.5;" d="M 439.5 10 L 513 -2.5 L 518 62 L 439.5 10 "/>
<path style=" stroke:none;fill-rule:nonzero;fill:rgb(46.7%,48.9%,74.7%);fill-opacity:0.5;" d="M 460.5 137 L 405 120 L 410.5 184.5 L 460.5 137 "/>
<path style=" stroke:none;fill-rule:nonzero;fill:rgb(81.6%,38.3%,49.4%);fill-opacity:0.5;" d="M 353.5 170 L 279 161 L 263.5 98 L 353.5 170 "/>
<path style=" stroke:none;fill-rule:nonzero;fill:rgb(9.1%,77.8%,90.8%);fill-opacity:0.5;" d="M 270 159.5 L 215 140.5 L 200.5 89 L 270 159.5 "/>
<path style=" stroke:none;fill-rule:nonzero;fill:rgb(44.3%,48.9%,32.8%);fill-opacity:0.5;" d="M 151.5 188 L 77.5 206.5 L 87 140.5 L 151.5 188 "/>
<path style=" stroke:none;fill-rule:nonzero;fill:rgb(14.4%,96.1%,24.5%);fill-opacity:0.5;" d="M 76 139 L 24 150 L 34.5 203 L 76 139 "/>
<path style=" stroke:none;fill-rule:nonzero;fill:rgb(13.8%,22.7%,19.6%);fill-opacity:0.5;" d="M 57.5 289.5 L -4 276 L -13 204.5 L 57.5 289.5 "/>
<path style=" stroke:none;fill-rule:nonzero;fill:rgb(63.6%,94.7%,21.6%);fill-opacity:0.5;" d="M 148 200.5 L 218 190.5 L 216.5 243.5 L 148 200.5 "/>
<path style=" stroke:none;fill-rule:nonzero;fill:rgb(76.3%,0.2%,21.9%);fill-opacity:0.5;" d="M 277.5 287 L 205.5 312 L 195.5 252 L 277.5 287 "/>
<path style=" stroke:none;fill-rule:nonzero;fill:rgb(52.6%,55.9%,20%);fill-opacity:0.5;" d="M 305 285.5 L 367.5 298 L 361.5 232 L 305 285.5 "/>
<path style=" stroke:none;fill-rule:nonzero;fill:rgb(80.3%,71.6%,43.7%);fill-opacity:0.5;" d="M 408.5 250 L 465 272.5 L 445.5 217.5 L 408.5 250 "/>
<path style=" stroke:none;fill-rule:nonzero;fill:rgb(97.5%,32.4%,87.6%);fill-opacity:0.5;" d="M 465.5 331 L 408 348.5 L 402.5 398.5 L 465.5 331 "/>
<path style=" stroke:none;fill-rule:nonzero;fill:rgb(84.9%,82.6%,1.1%);fill-opacity:0.5;" d="M 381 394.5 L 321 386 L 311 320.5 L 381 394.5 "/>
<path style=" stroke:none;fill-rule:nonzero;fill:rgb(28.6%,93.5%,33.4%);fill-opacity:0.5;" d="M 221 349.5 L 274 328 L 260.5 401.5 L 221 349.5 "/>
<path style=" stroke:none;fill-rule:nonzero;fill:rgb(91.3%,3.7%,44.1%);fill-opacity:0.5;" d="M 134 341 L 190.5 317.5 L 177.5 385.5 L 134 341 "/>
<path style=" stroke:none;fill-rule:nonzero;fill:rgb(19.1%,81.2%,38.9%);fill-opacity:0.5;" d="M 37.5 324.5 L 89.5 321 L 94.5 379.5 L 37.5 324.5 "/>
<path style=" stroke:none;fill-rule:nonzero;fill:rgb(8.6%,21.2%,46.3%);fill-opacity:0.5;" d="M 20.5 490.5 L 89 492.5 L 76.5 437 L 20.5 490.5 "/>
<path style=" stroke:none;fill-rule:nonzero;fill:rgb(29.9%,47.1%,76%);fill-opacity:0.5;" d="M 148 421.5 L 207.5 431.5 L 215.5 491.5 L 148 421.5 "/>
<path style=" stroke:none;fill-rule:nonzero;fill:rgb(36.7%,2.8%,30.7%);fill-opacity:0.5;" d="M 268.5 489.5 L 210.5 471 L 209.5 412.5 L 268.5 489.5 "/>
<path style=" stroke:none;fill-rule:nonzero;fill:rgb(93.8%,15%,80.5%);fill-opacity:0.5;" d="M 329.5 450.5 L 401 439.5 L 384.5 386.5 L 329.5 450.5 "/>
<path style=" stroke:none;fill-rule:nonzero;fill:rgb(28%,35.5%,53%);fill-opacity:0.5;" d="M 495.5 497.5 L 435 509 L 452.5 458.5 L 495.5 497.5 "/>
<path style="fill:none;stroke-width:0.002;stroke-linecap:butt;stroke-linejoin:miter;stroke:rgb(48.8%,11.3%,58.6%);stroke-opacity:1;stroke-miterlimit:10;" d="M 0.385 0.901 L 0.66 0.132 " transform="matrix(500,0,0,500,0,0)"/>
<path style="fill:none;stroke-width:0.002;stroke-linecap:butt;stroke-linejoin:miter;stroke:rgb(17.1%,34%,98.5%);stroke-opacity:1;stroke-miterlimit:10;" d="M 0.408 0.2 L 0.969 0.06 " transform="matrix(500,0,0,500,0,0)"/>
<path style="fill:none;stroke-width:0.002;stroke-linecap:butt;stroke-linejoin:miter;stroke:rgb(11.6%,47.2%,81.5%);stroke-opacity:1;stroke-miterlimit:10;" d="M 0.435 0.54 L 0.273 0.933 " transform="matrix(500,0,0,500,0,0)"/>
<path style="fill:none;stroke-width:0.002;stroke-linecap:butt;stroke-linejoin:miter;stroke:rgb(98.8%,28.3%,50.1%);stroke-opacity:1;stroke-miterlimit:10;" d="M 0.309 0.978 L 0.973 0.48 " transform="matrix(500,0,0,500,0,0)"/>
<path style="fill:none;stroke-width:0.002;stroke-linecap:butt;stroke-linejoin:miter;stroke:rgb(10%,78.7%,49.6%);stroke-opacity:1;stroke-miterlimit:10;" d="M 0.813 0.138 L 0.989 0.22 " transform="matrix(500,0,0,500,0,0)"/>
<path style="fill:none;stroke-width:0.002;stroke-linecap:butt;stroke-linejoin:miter;stroke:rgb(2.5%,35%,21.3%);stroke-opacity:1;stroke-miterlimit:10;" d="M 0.302 0.515 L 0.594 0.911 " transform="matrix(500,0,0,500,0,0)"/>
<path style="fill:none;stroke-width:0.002;stroke-linecap:butt;stroke-linejoin:miter;stroke:rgb(61.4%,56.8%,58.1%);stroke-opacity:1;stroke-miterlimit:10;" d="M 0.898 0.084 L 0.69 0.48 " transform="matrix(500,0,0,500,0,0)"/>
<path style="fill:none;stroke-width:0.002;stroke-linecap:butt;stroke-linejoin:miter;stroke:rgb(57.4%,59.7%,20.7%);stroke-opacity:1;stroke-miterlimit:10;" d="M 0.415 0.097 L 0.738 0.297 " transform="matrix(500,0,0,500,0,0)"/>
<path style="fill:none;stroke-width:0.002;stroke-linecap:butt;stroke-linejoin:miter;stroke:rgb(72.7%,57.7%,43.9%);stroke-opacity:1;stroke-miterlimit:10;" d="M 0.105 0.973 L 0.371 0.748 " transform="matrix(500,0,0,500,0,0)"/>
<path style="fill:none;stroke-width:0.002;stroke-linecap:butt;stroke-linejoin:miter;stroke:rgb(71.4%,45.8%,47.3%);stroke-opacity:1;stroke-miterlimit:10;" d="M 0.325 0.239 L 0.293 0.075 " transform="matrix(500,0,0,500,0,0)"/>
</g>
</defs>
<g id="surface345">
<use xlink:href="#surface348"/>
</g>
</svg>
