<?xml version="1.0" encoding="UTF-8"?>
<svg xmlns="http://www.w3.org/2000/svg" xmlns:xlink="http://www.w3.org/1999/xlink" width="500pt" height="500pt" viewBox="0 0 500 500" version="1.1">
<defs>
<linearGradient id="linear0" gradientUnits="userSpaceOnUse" x1="0" y1="0.5" x2="1" y2="0.5" gradientTransform="matrix(500,0,0,500,0,0)">
<stop offset="0.4" style="stop-color:rgb(90.7%,92.3%,99.9%);stop-opacity:1;"/>
<stop offset="0.8" style="stop-color:rgb(92.8%,77.3%,5.5%);stop-opacity:1;"/>
</linearGradient>
<clipPath id="clip1">
  <rect x="0" y="0" width="500" height="500"/>
</clipPath>
<g id="surface348" clip-path="url(#clip1)">
<rect x="0" y="0" width="500" height="500" style="fill:url(#linear0);stroke:none;"/>
<path style=" stroke:none;fill-rule:nonzero;fill:rgb(19.8%,57.4%,69.2%);fill-opacity:1;" d="M 35.5 25 C 35.5 30.800781 30.800781 35.5 25 35.5 C 19.199219 35.5 14.5 30.800781 14.5 25 C 14.5 19.199219 19.199219 14.5 25 14.5 C 30.800781 14.5 35.5 19.199219 35.5 25 "/>
<path style=" stroke:none;fill-rule:nonzero;fill:rgb(76.4%,76.9%,76.1%);fill-opacity:1;" d="M 91.5 25 C 91.5 34.113281 84.113281 41.5 75 41.5 C 65.886719 41.5 58.5 34.113281 58.5 25 C 58.5 15.886719 65.886719 8.5 75 8.5 C 84.113281 8.5 91.5 15.886719 91.5 25 "/>
<path style=" stroke:none;fill-rule:nonzero;fill:rgb(77.2%,53.4%,87.6%);fill-opacity:1;" d="M 131 25 C 131 28.3125 128.3125 31 125 31 C 121.6875 31 119 28.3125 119 25 C 119 21.6875 121.6875 19 125 19 C 128.3125 19 131 21.6875 131 25 "/>
<path style=" stroke:none;fill-rule:nonzero;fill:rgb(38.9%,2.2%,80.3%);fill-opacity:1;" d="M 187 25 C 187 31.628906 181.628906 37 175 37 C 168.371094 37 163 31.628906 163 25 C 163 18.371094 168.371094 13 175 13 C 181.628906 13 187 18.371094 187 25 "/>
<path style=" stroke:none;fill-rule:nonzero;fill:rgb(94.3%,14.3%,13.8%);fill-opacity:1;" d="M 233 25 C 233 29.417969 229.417969 33 225 33 C 220.582031 33 217 29.417969 217 25 C 217 20.582031 220.582031 17 225 17 C 229.417969 17 233 20.582031 233 25 "/>
<path style=" stroke:none;fill-rule:nonzero;fill:rgb(56.9%,95.5%,35.3%);fill-opacity:1;" d="M 289.5 25 C 289.5 33.007812 283.007812 39.5 275 39.5 C 266.992188 39.5 260.5 33.007812 260.5 25 C 260.5 16.992188 266.992188 10.5 275 10.5 C 283.007812 10.5 289.5 16.992188 289.5 25 "/>
<path style=" stroke:none;fill-rule:nonzero;fill:rgb(3.3%,70.2%,91.2%);fill-opacity:1;" d="M 343.5 25 C 343.5 35.21875 335.21875 43.5 325 43.5 C 314.78125 43.5 306.5 35.21875 306.5 25 C 306.5 14.78125 314.78125 6.5 325 6.5 C 335.21875 6.5 343.5 14.78125 343.5 25 "/>
<path style=" stroke:none;fill-rule:nonzero;fill:rgb(83.9%,48.4%,56.5%);fill-opacity:1;" d="M 391 25 C 391 33.835938 383.835938 41 375 41 C 366.164062 41 359 33.835938 359 25 C 359 16.164062 366.164062 9 375 9 C 383.835938 9 391 16.164062 391 25 "/>
<path style=" stroke:none;fill-rule:nonzero;fill:rgb(14.8%,50.1%,13.3%);fill-opacity:1;" d="M 437.5 25 C 437.5 31.902344 431.902344 37.5 425 37.5 C 418.097656 37.5 412.5 31.902344 412.5 25 C 412.5 18.097656 418.097656 12.5 425 12.5 C 431.902344 12.5 437.5 18.097656 437.5 25 "/>
<path style=" stroke:none;fill-rule:nonzero;fill:rgb(69.1%,48.4%,87.4%);fill-opacity:1;" d="M 491 25 C 491 33.835938 483.835938 41 475 41 C 466.164062 41 459 33.835938 459 25 C 459 16.164062 466.164062 9 475 9 C 483.835938 9 491 16.164062 491 25 "/>
<path style=" stroke:none;fill-rule:nonzero;fill:rgb(29.5%,50.1%,95.2%);fill-opacity:1;" d="M 492 75 C 492 84.390625 484.390625 92 475 92 C 465.609375 92 458 84.390625 458 75 C 458 65.609375 465.609375 58 475 58 C 484.390625 58 492 65.609375 492 75 "/>
<path style=" stroke:none;fill-rule:nonzero;fill:rgb(69.6%,69.4%,31.7%);fill-opacity:1;" d="M 435 75 C 435 80.523438 430.523438 85 425 85 C 419.476562 85 415 80.523438 415 75 C 415 69.476562 419.476562 65 425 65 C 430.523438 65 435 69.476562 435 75 "/>
<path style=" stroke:none;fill-rule:nonzero;fill:rgb(78.4%,22.6%,26.3%);fill-opacity:1;" d="M 389.5 75 C 389.5 83.007812 383.007812 89.5 375 89.5 C 366.992188 89.5 360.5 83.007812 360.5 75 C 360.5 66.992188 366.992188 60.5 375 60.5 C 383.007812 60.5 389.5 66.992188 389.5 75 "/>
<path style=" stroke:none;fill-rule:nonzero;fill:rgb(80.2%,19.4%,72.9%);fill-opacity:1;" d="M 349 75 C 349 88.253906 338.253906 99 325 99 C 311.746094 99 301 88.253906 301 75 C 301 61.746094 311.746094 51 325 51 C 338.253906 51 349 61.746094 349 75 "/>
<path style=" stroke:none;fill-rule:nonzero;fill:rgb(57.3%,82.8%,29%);fill-opacity:1;" d="M 292.5 75 C 292.5 84.664062 284.664062 92.5 275 92.5 C 265.335938 92.5 257.5 84.664062 257.5 75 C 257.5 65.335938 265.335938 57.5 275 57.5 C 284.664062 57.5 292.5 65.335938 292.5 75 "/>
<path style=" stroke:none;fill-rule:nonzero;fill:rgb(9.2%,64.7%,18.1%);fill-opacity:1;" d="M 232.5 75 C 232.5 79.140625 229.140625 82.5 225 82.5 C 220.859375 82.5 217.5 79.140625 217.5 75 C 217.5 70.859375 220.859375 67.5 225 67.5 C 229.140625 67.5 232.5 70.859375 232.5 75 "/>
<path style=" stroke:none;fill-rule:nonzero;fill:rgb(60.5%,69.4%,48.9%);fill-opacity:1;" d="M 198.5 75 C 198.5 87.980469 187.980469 98.5 175 98.5 C 162.019531 98.5 151.5 87.980469 151.5 75 C 151.5 62.019531 162.019531 51.5 175 51.5 C 187.980469 51.5 198.5 62.019531 198.5 75 "/>
<path style=" stroke:none;fill-rule:nonzero;fill:rgb(82%,70.8%,14.8%);fill-opacity:1;" d="M 138.5 75 C 138.5 82.457031 132.457031 88.5 125 88.5 C 117.542969 88.5 111.5 82.457031 111.5 75 C 111.5 67.542969 117.542969 61.5 125 61.5 C 132.457031 61.5 138.5 67.542969 138.5 75 "/>
<path style=" stroke:none;fill-rule:nonzero;fill:rgb(40%,42.8%,25.9%);fill-opacity:1;" d="M 85.5 75 C 85.5 80.800781 80.800781 85.5 75 85.5 C 69.199219 85.5 64.5 80.800781 64.5 75 C 64.5 69.199219 69.199219 64.5 75 64.5 C 80.800781 64.5 85.5 69.199219 85.5 75 "/>
<path style=" stroke:none;fill-rule:nonzero;fill:rgb(86.5%,85.3%,27.3%);fill-opacity:1;" d="M 36 75 C 36 81.074219 31.074219 86 25 86 C 18.925781 86 14 81.074219 14 75 C 14 68.925781 18.925781 64 25 64 C 31.074219 64 36 68.925781 36 75 "/>
<path style=" stroke:none;fill-rule:nonzero;fill:rgb(0.8%,1.5%,11%);fill-opacity:1;" d="M 45 125 C 45 136.046875 36.046875 145 25 145 C 13.953125 145 5 136.046875 5 125 C 5 113.953125 13.953125 105 25 105 C 36.046875 105 45 113.953125 45 125 "/>
<path style=" stroke:none;fill-rule:nonzero;fill:rgb(23.3%,78.7%,38.8%);fill-opacity:1;" d="M 94.5 125 C 94.5 135.769531 85.769531 144.5 75 144.5 C 64.230469 144.5 55.5 135.769531 55.5 125 C 55.5 114.230469 64.230469 105.5 75 105.5 C 85.769531 105.5 94.5 114.230469 94.5 125 "/>
<path style=" stroke:none;fill-rule:nonzero;fill:rgb(4.3%,29%,22.4%);fill-opacity:1;" d="M 150 125 C 150 138.808594 138.808594 150 125 150 C 111.191406 150 100 138.808594 100 125 C 100 111.191406 111.191406 100 125 100 C 138.808594 100 150 111.191406 150 125 "/>
<path style=" stroke:none;fill-rule:nonzero;fill:rgb(13.5%,81.2%,32.3%);fill-opacity:1;" d="M 191.5 125 C 191.5 134.113281 184.113281 141.5 175 141.5 C 165.886719 141.5 158.5 134.113281 158.5 125 C 158.5 115.886719 165.886719 108.5 175 108.5 C 184.113281 108.5 191.5 115.886719 191.5 125 "/>
<path style=" stroke:none;fill-rule:nonzero;fill:rgb(64%,79.4%,11.1%);fill-opacity:1;" d="M 233 125 C 233 129.417969 229.417969 133 225 133 C 220.582031 133 217 129.417969 217 125 C 217 120.582031 220.582031 117 225 117 C 229.417969 117 233 120.582031 233 125 "/>
<path style=" stroke:none;fill-rule:nonzero;fill:rgb(67.4%,6.2%,57.8%);fill-opacity:1;" d="M 295 125 C 295 136.046875 286.046875 145 275 145 C 263.953125 145 255 136.046875 255 125 C 255 113.953125 263.953125 105 275 105 C 286.046875 105 295 113.953125 295 125 "/>
<path style=" stroke:none;fill-rule:nonzero;fill:rgb(34.3%,81.1%,30.2%);fill-opacity:1;" d="M 349.5 125 C 349.5 138.53125 338.53125 149.5 325 149.5 C 311.46875 149.5 300.5 138.53125 300.5 125 C 300.5 111.46875 311.46875 100.5 325 100.5 C 338.53125 100.5 349.5 111.46875 349.5 125 "/>
<path style=" stroke:none;fill-rule:nonzero;fill:rgb(70.2%,81%,43.3%);fill-opacity:1;" d="M 388.5 125 C 388.5 132.457031 382.457031 138.5 375 138.5 C 367.542969 138.5 361.5 132.457031 361.5 125 C 361.5 117.542969 367.542969 111.5 375 111.5 C 382.457031 111.5 388.5 117.542969 388.5 125 "/>
<path style=" stroke:none;fill-rule:nonzero;fill:rgb(23.8%,73.4%,74.6%);fill-opacity:1;" d="M 433 125 C 433 129.417969 429.417969 133 425 133 C 420.582031 133 417 129.417969 417 125 C 417 120.582031 420.582031 117 425 117 C 429.417969 117 433 120.582031 433 125 "/>
<path style=" stroke:none;fill-rule:nonzero;fill:rgb(63.7%,33.4%,14.1%);fill-opacity:1;" d="M 480 125 C 480 131.667969 470 131.667969 470 125 C 470 118.332031 480 118.332031 480 125 "/>
<path style=" stroke:none;fill-rule:nonzero;fill:rgb(86.7%,90.4%,26.8%);fill-opacity:1;" d="M 488 175 C 488 182.179688 482.179688 188 475 188 C 467.820312 188 462 182.179688 462 175 C 462 167.820312 467.820312 162 475 162 C 482.179688 162 488 167.820312 488 175 "/>
<path style=" stroke:none;fill-rule:nonzero;fill:rgb(51.4%,9.7%,10.5%);fill-opacity:1;" d="M 446.5 175 C 446.5 186.875 436.875 196.5 425 196.5 C 413.125 196.5 403.5 186.875 403.5 175 C 403.5 163.125 413.125 153.5 425 153.5 C 436.875 153.5 446.5 163.125 446.5 175 "/>
<path style=" stroke:none;fill-rule:nonzero;fill:rgb(67.1%,40.5%,25.7%);fill-opacity:1;" d="M 383.5 175 C 383.5 179.695312 379.695312 183.5 375 183.5 C 370.304688 183.5 366.5 179.695312 366.5 175 C 366.5 170.304688 370.304688 166.5 375 166.5 C 379.695312 166.5 383.5 170.304688 383.5 175 "/>
<path style=" stroke:none;fill-rule:nonzero;fill:rgb(74.6%,9.1%,21.8%);fill-opacity:1;" d="M 345 175 C 345 186.046875 336.046875 195 325 195 C 313.953125 195 305 186.046875 305 175 C 305 163.953125 313.953125 155 325 155 C 336.046875 155 345 163.953125 345 175 "/>
<path style=" stroke:none;fill-rule:nonzero;fill:rgb(37.5%,65.7%,66.4%);fill-opacity:1;" d="M 283 175 C 283 179.417969 279.417969 183 275 183 C 270.582031 183 267 179.417969 267 175 C 267 170.582031 270.582031 167 275 167 C 279.417969 167 283 170.582031 283 175 "/>
<path style=" stroke:none;fill-rule:nonzero;fill:rgb(22.7%,18.4%,92.1%);fill-opacity:1;" d="M 238.5 175 C 238.5 182.457031 232.457031 188.5 225 188.5 C 217.542969 188.5 211.5 182.457031 211.5 175 C 211.5 167.542969 217.542969 161.5 225 161.5 C 232.457031 161.5 238.5 167.542969 238.5 175 "/>
<path style=" stroke:none;fill-rule:nonzero;fill:rgb(10.7%,29.4%,9.7%);fill-opacity:1;" d="M 191 175 C 191 183.835938 183.835938 191 175 191 C 166.164062 191 159 183.835938 159 175 C 159 166.164062 166.164062 159 175 159 C 183.835938 159 191 166.164062 191 175 "/>
<path style=" stroke:none;fill-rule:nonzero;fill:rgb(83.1%,37.6%,72.7%);fill-opacity:1;" d="M 136.5 175 C 136.5 181.351562 131.351562 186.5 125 186.5 C 118.648438 186.5 113.5 181.351562 113.5 175 C 113.5 168.648438 118.648438 163.5 125 163.5 C 131.351562 163.5 136.5 168.648438 136.5 175 "/>
<path style=" stroke:none;fill-rule:nonzero;fill:rgb(69.4%,34.5%,21.8%);fill-opacity:1;" d="M 98 175 C 98 187.703125 87.703125 198 75 198 C 62.296875 198 52 187.703125 52 175 C 52 162.296875 62.296875 152 75 152 C 87.703125 152 98 162.296875 98 175 "/>
<path style=" stroke:none;fill-rule:nonzero;fill:rgb(2%,75.4%,38.7%);fill-opacity:1;" d="M 35.5 175 C 35.5 180.800781 30.800781 185.5 25 185.5 C 19.199219 185.5 14.5 180.800781 14.5 175 C 14.5 169.199219 19.199219 164.5 25 164.5 C 30.800781 164.5 35.5 169.199219 35.5 175 "/>
<path style=" stroke:none;fill-rule:nonzero;fill:rgb(3.3%,43.8%,85.2%);fill-opacity:1;" d="M 44.5 225 C 44.5 235.769531 35.769531 244.5 25 244.5 C 14.230469 244.5 5.5 235.769531 5.5 225 C 5.5 214.230469 14.230469 205.5 25 205.5 C 35.769531 205.5 44.5 214.230469 44.5 225 "/>
<path style=" stroke:none;fill-rule:nonzero;fill:rgb(75.2%,55.9%,82.2%);fill-opacity:1;" d="M 84 225 C 84 229.96875 79.96875 234 75 234 C 70.03125 234 66 229.96875 66 225 C 66 220.03125 70.03125 216 75 216 C 79.96875 216 84 220.03125 84 225 "/>
<path style=" stroke:none;fill-rule:nonzero;fill:rgb(71%,70.6%,63.5%);fill-opacity:1;" d="M 140 225 C 140 233.285156 133.285156 240 125 240 C 116.714844 240 110 233.285156 110 225 C 110 216.714844 116.714844 210 125 210 C 133.285156 210 140 216.714844 140 225 "/>
<path style=" stroke:none;fill-rule:nonzero;fill:rgb(59.5%,8.9%,41%);fill-opacity:1;" d="M 181.5 225 C 181.5 228.589844 178.589844 231.5 175 231.5 C 171.410156 231.5 168.5 228.589844 168.5 225 C 168.5 221.410156 171.410156 218.5 175 218.5 C 178.589844 218.5 181.5 221.410156 181.5 225 "/>
<path style=" stroke:none;fill-rule:nonzero;fill:rgb(94.3%,52.1%,75%);fill-opacity:1;" d="M 238 225 C 238 232.179688 232.179688 238 225 238 C 217.820312 238 212 232.179688 212 225 C 212 217.820312 217.820312 212 225 212 C 232.179688 212 238 217.820312 238 225 "/>
<path style=" stroke:none;fill-rule:nonzero;fill:rgb(54.3%,30.3%,1.3%);fill-opacity:1;" d="M 299.5 225 C 299.5 238.53125 288.53125 249.5 275 249.5 C 261.46875 249.5 250.5 238.53125 250.5 225 C 250.5 211.46875 261.46875 200.5 275 200.5 C 288.53125 200.5 299.5 211.46875 299.5 225 "/>
<path style=" stroke:none;fill-rule:nonzero;fill:rgb(94.4%,26.4%,71.5%);fill-opacity:1;" d="M 334 225 C 334 229.96875 329.96875 234 325 234 C 320.03125 234 316 229.96875 316 225 C 316 220.03125 320.03125 216 325 216 C 329.96875 216 334 220.03125 334 225 "/>
<path style=" stroke:none;fill-rule:nonzero;fill:rgb(29.6%,43.7%,80.9%);fill-opacity:1;" d="M 395.5 225 C 395.5 236.320312 386.320312 245.5 375 245.5 C 363.679688 245.5 354.5 236.320312 354.5 225 C 354.5 213.679688 363.679688 204.5 375 204.5 C 386.320312 204.5 395.5 213.679688 395.5 225 "/>
<path style=" stroke:none;fill-rule:nonzero;fill:rgb(52.1%,58.8%,50.1%);fill-opacity:1;" d="M 449 225 C 449 238.253906 438.253906 249 425 249 C 411.746094 249 401 238.253906 401 225 C 401 211.746094 411.746094 201 425 201 C 438.253906 201 449 211.746094 449 225 "/>
<path style=" stroke:none;fill-rule:nonzero;fill:rgb(15.7%,19%,49.9%);fill-opacity:1;" d="M 484.5 225 C 484.5 230.246094 480.246094 234.5 475 234.5 C 469.753906 234.5 465.5 230.246094 465.5 225 C 465.5 219.753906 469.753906 215.5 475 215.5 C 480.246094 215.5 484.5 219.753906 484.5 225 "/>
<path style=" stroke:none;fill-rule:nonzero;fill:rgb(94.2%,71.3%,62.2%);fill-opacity:1;" d="M 491 275 C 491 283.835938 483.835938 291 475 291 C 466.164062 291 459 283.835938 459 275 C 459 266.164062 466.164062 259 475 259 C 483.835938 259 491 266.164062 491 275 "/>
<path style=" stroke:none;fill-rule:nonzero;fill:rgb(3.7%,75.3%,53.7%);fill-opacity:1;" d="M 436 275 C 436 281.074219 431.074219 286 425 286 C 418.925781 286 414 281.074219 414 275 C 414 268.925781 418.925781 264 425 264 C 431.074219 264 436 268.925781 436 275 "/>
<path style=" stroke:none;fill-rule:nonzero;fill:rgb(12.5%,18.6%,70.1%);fill-opacity:1;" d="M 380.5 275 C 380.5 278.039062 378.039062 280.5 375 280.5 C 371.960938 280.5 369.5 278.039062 369.5 275 C 369.5 271.960938 371.960938 269.5 375 269.5 C 378.039062 269.5 380.5 271.960938 380.5 275 "/>
<path style=" stroke:none;fill-rule:nonzero;fill:rgb(82.4%,77.6%,10.6%);fill-opacity:1;" d="M 334 275 C 334 279.96875 329.96875 284 325 284 C 320.03125 284 316 279.96875 316 275 C 316 270.03125 320.03125 266 325 266 C 329.96875 266 334 270.03125 334 275 "/>
<path style=" stroke:none;fill-rule:nonzero;fill:rgb(29.8%,9.3%,8.5%);fill-opacity:1;" d="M 297 275 C 297 287.148438 287.148438 297 275 297 C 262.851562 297 253 287.148438 253 275 C 253 262.851562 262.851562 253 275 253 C 287.148438 253 297 262.851562 297 275 "/>
<path style=" stroke:none;fill-rule:nonzero;fill:rgb(71.3%,30.4%,83.9%);fill-opacity:1;" d="M 237.5 275 C 237.5 281.902344 231.902344 287.5 225 287.5 C 218.097656 287.5 212.5 281.902344 212.5 275 C 212.5 268.097656 218.097656 262.5 225 262.5 C 231.902344 262.5 237.5 268.097656 237.5 275 "/>
<path style=" stroke:none;fill-rule:nonzero;fill:rgb(74.2%,52.3%,24.9%);fill-opacity:1;" d="M 199 275 C 199 288.253906 188.253906 299 175 299 C 161.746094 299 151 288.253906 151 275 C 151 261.746094 161.746094 251 175 251 C 188.253906 251 199 261.746094 199 275 "/>
<path style=" stroke:none;fill-rule:nonzero;fill:rgb(68.2%,17.3%,1.9%);fill-opacity:1;" d="M 137.5 275 C 137.5 281.902344 131.902344 287.5 125 287.5 C 118.097656 287.5 112.5 281.902344 112.5 275 C 112.5 268.097656 118.097656 262.5 125 262.5 C 131.902344 262.5 137.5 268.097656 137.5 275 "/>
<path style=" stroke:none;fill-rule:nonzero;fill:rgb(83.5%,58.5%,93.4%);fill-opacity:1;" d="M 83.5 275 C 83.5 279.695312 79.695312 283.5 75 283.5 C 70.304688 283.5 66.5 279.695312 66.5 275 C 66.5 270.304688 70.304688 266.5 75 266.5 C 79.695312 266.5 83.5 270.304688 83.5 275 "/>
<path style=" stroke:none;fill-rule:nonzero;fill:rgb(28.2%,74.8%,93.9%);fill-opacity:1;" d="M 32 275 C 32 278.867188 28.867188 282 25 282 C 21.132812 282 18 278.867188 18 275 C 18 271.132812 21.132812 268 25 268 C 28.867188 268 32 271.132812 32 275 "/>
<path style=" stroke:none;fill-rule:nonzero;fill:rgb(43.3%,50.6%,38.7%);fill-opacity:1;" d="M 38 325 C 38 332.179688 32.179688 338 25 338 C 17.820312 338 12 332.179688 12 325 C 12 317.820312 17.820312 312 25 312 C 32.179688 312 38 317.820312 38 325 "/>
<path style=" stroke:none;fill-rule:nonzero;fill:rgb(99.1%,62.4%,5.3%);fill-opacity:1;" d="M 90.5 325 C 90.5 333.558594 83.558594 340.5 75 340.5 C 66.441406 340.5 59.5 333.558594 59.5 325 C 59.5 316.441406 66.441406 309.5 75 309.5 C 83.558594 309.5 90.5 316.441406 90.5 325 "/>
<path style=" stroke:none;fill-rule:nonzero;fill:rgb(26.8%,5.2%,36.3%);fill-opacity:1;" d="M 144.5 325 C 144.5 335.769531 135.769531 344.5 125 344.5 C 114.230469 344.5 105.5 335.769531 105.5 325 C 105.5 314.230469 114.230469 305.5 125 305.5 C 135.769531 305.5 144.5 314.230469 144.5 325 "/>
<path style=" stroke:none;fill-rule:nonzero;fill:rgb(81.9%,80.2%,74.8%);fill-opacity:1;" d="M 181 325 C 181 328.3125 178.3125 331 175 331 C 171.6875 331 169 328.3125 169 325 C 169 321.6875 171.6875 319 175 319 C 178.3125 319 181 321.6875 181 325 "/>
<path style=" stroke:none;fill-rule:nonzero;fill:rgb(55.1%,83.9%,13.3%);fill-opacity:1;" d="M 237 325 C 237 331.628906 231.628906 337 225 337 C 218.371094 337 213 331.628906 213 325 C 213 318.371094 218.371094 313 225 313 C 231.628906 313 237 318.371094 237 325 "/>
<path style=" stroke:none;fill-rule:nonzero;fill:rgb(62.5%,86.4%,78.6%);fill-opacity:1;" d="M 291.5 325 C 291.5 334.113281 284.113281 341.5 275 341.5 C 265.886719 341.5 258.5 334.113281 258.5 325 C 258.5 315.886719 265.886719 308.5 275 308.5 C 284.113281 308.5 291.5 315.886719 291.5 325 "/>
<path style=" stroke:none;fill-rule:nonzero;fill:rgb(27%,14.2%,60.1%);fill-opacity:1;" d="M 350 325 C 350 338.808594 338.808594 350 325 350 C 311.191406 350 300 338.808594 300 325 C 300 311.191406 311.191406 300 325 300 C 338.808594 300 350 311.191406 350 325 "/>
<path style=" stroke:none;fill-rule:nonzero;fill:rgb(95.1%,43.1%,3.9%);fill-opacity:1;" d="M 388 325 C 388 332.179688 382.179688 338 375 338 C 367.820312 338 362 332.179688 362 325 C 362 317.820312 367.820312 312 375 312 C 382.179688 312 388 317.820312 388 325 "/>
<path style=" stroke:none;fill-rule:nonzero;fill:rgb(33.5%,11.6%,93%);fill-opacity:1;" d="M 434 325 C 434 329.96875 429.96875 334 425 334 C 420.03125 334 416 329.96875 416 325 C 416 320.03125 420.03125 316 425 316 C 429.96875 316 434 320.03125 434 325 "/>
<path style=" stroke:none;fill-rule:nonzero;fill:rgb(81.6%,87.2%,89%);fill-opacity:1;" d="M 480.5 325 C 480.5 328.039062 478.039062 330.5 475 330.5 C 471.960938 330.5 469.5 328.039062 469.5 325 C 469.5 321.960938 471.960938 319.5 475 319.5 C 478.039062 319.5 480.5 321.960938 480.5 325 "/>
<path style=" stroke:none;fill-rule:nonzero;fill:rgb(49.3%,12.5%,41.5%);fill-opacity:1;" d="M 497 375 C 497 387.148438 487.148438 397 475 397 C 462.851562 397 453 387.148438 453 375 C 453 362.851562 462.851562 353 475 353 C 487.148438 353 497 362.851562 497 375 "/>
<path style=" stroke:none;fill-rule:nonzero;fill:rgb(4.4%,86.4%,19.9%);fill-opacity:1;" d="M 444 375 C 444 385.492188 435.492188 394 425 394 C 414.507812 394 406 385.492188 406 375 C 406 364.507812 414.507812 356 425 356 C 435.492188 356 444 364.507812 444 375 "/>
<path style=" stroke:none;fill-rule:nonzero;fill:rgb(65.5%,78.2%,86%);fill-opacity:1;" d="M 382 375 C 382 378.867188 378.867188 382 375 382 C 371.132812 382 368 378.867188 368 375 C 368 371.132812 371.132812 368 375 368 C 378.867188 368 382 371.132812 382 375 "/>
<path style=" stroke:none;fill-rule:nonzero;fill:rgb(13.2%,96.6%,34.8%);fill-opacity:1;" d="M 332.5 375 C 332.5 379.140625 329.140625 382.5 325 382.5 C 320.859375 382.5 317.5 379.140625 317.5 375 C 317.5 370.859375 320.859375 367.5 325 367.5 C 329.140625 367.5 332.5 370.859375 332.5 375 "/>
<path style=" stroke:none;fill-rule:nonzero;fill:rgb(7.6%,19%,22.9%);fill-opacity:1;" d="M 288.5 375 C 288.5 382.457031 282.457031 388.5 275 388.5 C 267.542969 388.5 261.5 382.457031 261.5 375 C 261.5 367.542969 267.542969 361.5 275 361.5 C 282.457031 361.5 288.5 367.542969 288.5 375 "/>
<path style=" stroke:none;fill-rule:nonzero;fill:rgb(93.9%,95.9%,32.5%);fill-opacity:1;" d="M 239 375 C 239 382.730469 232.730469 389 225 389 C 217.269531 389 211 382.730469 211 375 C 211 367.269531 217.269531 361 225 361 C 232.730469 361 239 367.269531 239 375 "/>
<path style=" stroke:none;fill-rule:nonzero;fill:rgb(97.5%,84.6%,31.7%);fill-opacity:1;" d="M 198 375 C 198 387.703125 187.703125 398 175 398 C 162.296875 398 152 387.703125 152 375 C 152 362.296875 162.296875 352 175 352 C 187.703125 352 198 362.296875 198 375 "/>
<path style=" stroke:none;fill-rule:nonzero;fill:rgb(2.6%,22.8%,88.8%);fill-opacity:1;" d="M 144.5 375 C 144.5 385.769531 135.769531 394.5 125 394.5 C 114.230469 394.5 105.5 385.769531 105.5 375 C 105.5 364.230469 114.230469 355.5 125 355.5 C 135.769531 355.5 144.5 364.230469 144.5 375 "/>
<path style=" stroke:none;fill-rule:nonzero;fill:rgb(20.1%,96.9%,58.9%);fill-opacity:1;" d="M 100 375 C 100 388.808594 88.808594 400 75 400 C 61.191406 400 50 388.808594 50 375 C 50 361.191406 61.191406 350 75 350 C 88.808594 350 100 361.191406 100 375 "/>
<path style=" stroke:none;fill-rule:nonzero;fill:rgb(27.4%,16.9%,62.6%);fill-opacity:1;" d="M 33 375 C 33 379.417969 29.417969 383 25 383 C 20.582031 383 17 379.417969 17 375 C 17 370.582031 20.582031 367 25 367 C 29.417969 367 33 370.582031 33 375 "/>
<path style=" stroke:none;fill-rule:nonzero;fill:rgb(81.5%,47%,77.3%);fill-opacity:1;" d="M 32.5 425 C 32.5 429.140625 29.140625 432.5 25 432.5 C 20.859375 432.5 17.5 429.140625 17.5 425 C 17.5 420.859375 20.859375 417.5 25 417.5 C 29.140625 417.5 32.5 420.859375 32.5 425 "/>
<path style=" stroke:none;fill-rule:nonzero;fill:rgb(97.9%,83%,64.4%);fill-opacity:1;" d="M 99.5 425 C 99.5 438.53125 88.53125 449.5 75 449.5 C 61.46875 449.5 50.5 438.53125 50.5 425 C 50.5 411.46875 61.46875 400.5 75 400.5 C 88.53125 400.5 99.5 411.46875 99.5 425 "/>
<path style=" stroke:none;fill-rule:nonzero;fill:rgb(35.9%,16.4%,71.6%);fill-opacity:1;" d="M 134 425 C 134 429.96875 129.96875 434 125 434 C 120.03125 434 116 429.96875 116 425 C 116 420.03125 120.03125 416 125 416 C 129.96875 416 134 420.03125 134 425 "/>
<path style=" stroke:none;fill-rule:nonzero;fill:rgb(82%,6.5%,67.1%);fill-opacity:1;" d="M 188 425 C 188 432.179688 182.179688 438 175 438 C 167.820312 438 162 432.179688 162 425 C 162 417.820312 167.820312 412 175 412 C 182.179688 412 188 417.820312 188 425 "/>
<path style=" stroke:none;fill-rule:nonzero;fill:rgb(90%,21.9%,77.8%);fill-opacity:1;" d="M 243 425 C 243 434.941406 234.941406 443 225 443 C 215.058594 443 207 434.941406 207 425 C 207 415.058594 215.058594 407 225 407 C 234.941406 407 243 415.058594 243 425 "/>
<path style=" stroke:none;fill-rule:nonzero;fill:rgb(66.8%,95.9%,38.4%);fill-opacity:1;" d="M 299.5 425 C 299.5 438.53125 288.53125 449.5 275 449.5 C 261.46875 449.5 250.5 438.53125 250.5 425 C 250.5 411.46875 261.46875 400.5 275 400.5 C 288.53125 400.5 299.5 411.46875 299.5 425 "/>
<path style=" stroke:none;fill-rule:nonzero;fill:rgb(80%,36.3%,7%);fill-opacity:1;" d="M 338 425 C 338 432.179688 332.179688 438 325 438 C 317.820312 438 312 432.179688 312 425 C 312 417.820312 317.820312 412 325 412 C 332.179688 412 338 417.820312 338 425 "/>
<path style=" stroke:none;fill-rule:nonzero;fill:rgb(87.2%,10.8%,61.4%);fill-opacity:1;" d="M 385 425 C 385 430.523438 380.523438 435 375 435 C 369.476562 435 365 430.523438 365 425 C 365 419.476562 369.476562 415 375 415 C 380.523438 415 385 419.476562 385 425 "/>
<path style=" stroke:none;fill-rule:nonzero;fill:rgb(77.5%,90.8%,83.8%);fill-opacity:1;" d="M 446.5 425 C 446.5 436.875 436.875 446.5 425 446.5 C 413.125 446.5 403.5 436.875 403.5 425 C 403.5 413.125 413.125 403.5 425 403.5 C 436.875 403.5 446.5 413.125 446.5 425 "/>
<path style=" stroke:none;fill-rule:nonzero;fill:rgb(24.4%,85.7%,78.1%);fill-opacity:1;" d="M 484 425 C 484 429.96875 479.96875 434 475 434 C 470.03125 434 466 429.96875 466 425 C 466 420.03125 470.03125 416 475 416 C 479.96875 416 484 420.03125 484 425 "/>
<path style=" stroke:none;fill-rule:nonzero;fill:rgb(91.8%,31.9%,54.9%);fill-opacity:1;" d="M 490 475 C 490 483.285156 483.285156 490 475 490 C 466.714844 490 460 483.285156 460 475 C 460 466.714844 466.714844 460 475 460 C 483.285156 460 490 466.714844 490 475 "/>
<path style=" stroke:none;fill-rule:nonzero;fill:rgb(24.2%,80.1%,69.2%);fill-opacity:1;" d="M 445 475 C 445 486.046875 436.046875 495 425 495 C 413.953125 495 405 486.046875 405 475 C 405 463.953125 413.953125 455 425 455 C 436.046875 455 445 463.953125 445 475 "/>
<path style=" stroke:none;fill-rule:nonzero;fill:rgb(32.1%,90.3%,32.1%);fill-opacity:1;" d="M 397 475 C 397 487.148438 387.148438 497 375 497 C 362.851562 497 353 487.148438 353 475 C 353 462.851562 362.851562 453 375 453 C 387.148438 453 397 462.851562 397 475 "/>
<path style=" stroke:none;fill-rule:nonzero;fill:rgb(84.9%,95%,24.8%);fill-opacity:1;" d="M 340 475 C 340 483.285156 333.285156 490 325 490 C 316.714844 490 310 483.285156 310 475 C 310 466.714844 316.714844 460 325 460 C 333.285156 460 340 466.714844 340 475 "/>
<path style=" stroke:none;fill-rule:nonzero;fill:rgb(13.4%,3%,55.9%);fill-opacity:1;" d="M 289.5 475 C 289.5 483.007812 283.007812 489.5 275 489.5 C 266.992188 489.5 260.5 483.007812 260.5 475 C 260.5 466.992188 266.992188 460.5 275 460.5 C 283.007812 460.5 289.5 466.992188 289.5 475 "/>
<path style=" stroke:none;fill-rule:nonzero;fill:rgb(11.3%,39.6%,67.6%);fill-opacity:1;" d="M 237 475 C 237 481.628906 231.628906 487 225 487 C 218.371094 487 213 481.628906 213 475 C 213 468.371094 218.371094 463 225 463 C 231.628906 463 237 468.371094 237 475 "/>
<path style=" stroke:none;fill-rule:nonzero;fill:rgb(90.1%,76.2%,76.6%);fill-opacity:1;" d="M 191.5 475 C 191.5 484.113281 184.113281 491.5 175 491.5 C 165.886719 491.5 158.5 484.113281 158.5 475 C 158.5 465.886719 165.886719 458.5 175 458.5 C 184.113281 458.5 191.5 465.886719 191.5 475 "/>
<path style=" stroke:none;fill-rule:nonzero;fill:rgb(59.2%,29.3%,34.4%);fill-opacity:1;" d="M 133 475 C 133 479.417969 129.417969 483 125 483 C 120.582031 483 117 479.417969 117 475 C 117 470.582031 120.582031 467 125 467 C 129.417969 467 133 470.582031 133 475 "/>
<path style=" stroke:none;fill-rule:nonzero;fill:rgb(10.9%,72.9%,26.8%);fill-opacity:1;" d="M 93.5 475 C 93.5 485.21875 85.21875 493.5 75 493.5 C 64.78125 493.5 56.5 485.21875 56.5 475 C 56.5 464.78125 64.78125 456.5 75 456.5 C 85.21875 456.5 93.5 464.78125 93.5 475 "/>
<path style=" stroke:none;fill-rule:nonzero;fill:rgb(46.4%,33.9%,98.9%);fill-opacity:1;" d="M 40 475 C 40 483.285156 33.285156 490 25 490 C 16.714844 490 10 483.285156 10 475 C 10 466.714844 16.714844 460 25 460 C 33.285156 460 40 466.714844 40 475 "/>
<path style="fill:none;stroke-width:0.01;stroke-linecap:butt;stroke-linejoin:miter;stroke:rgb(34.3%,19.2%,96.8%);stroke-opacity:1;stroke-miterlimit:10;" d="M 0.05 0.05 C 0.15 0.05 0.25 0.05 0.35 0.05 " transform="matrix(500,0,0,500,0,0)"/>
<path style="fill:none;stroke-width:0.01;stroke-linecap:butt;stroke-linejoin:miter;stroke:rgb(13.3%,79.1%,45.2%);stroke-opacity:1;stroke-miterlimit:10;" d="M 0.35 0.05 C 0.45 0.05 0.55 0.05 0.65 0.05 " transform="matrix(500,0,0,500,0,0)"/>
<path style="fill:none;stroke-width:0.01;stroke-linecap:butt;stroke-linejoin:miter;stroke:rgb(30.4%,67.8%,91.5%);stroke-opacity:1;stroke-miterlimit:10;" d="M 0.65 0.05 C 0.75 0.05 0.85 0.05 0.95 0.05 " transform="matrix(500,0,0,500,0,0)"/>
<path style="fill:none;stroke-width:0.01;stroke-linecap:butt;stroke-linejoin:miter;stroke:rgb(12.8%,35.3%,87.5%);stroke-opacity:1;stroke-miterlimit:10;" d="M 0.95 0.05 C 0.95 0.15 0.85 0.15 0.75 0.15 " transform="matrix(500,0,0,500,0,0)"/>
<path style="fill:none;stroke-width:0.01;stroke-linecap:butt;stroke-linejoin:miter;stroke:rgb(15.3%,20.8%,30.6%);stroke-opacity:1;stroke-miterlimit:10;" d="M 0.75 0.15 C 0.65 0.15 0.55 0.15 0.45 0.15 " transform="matrix(500,0,0,500,0,0)"/>
<path style="fill:none;stroke-width:0.01;stroke-linecap:butt;stroke-linejoin:miter;stroke:rgb(38.4%,83.7%,48.4%);stroke-opacity:1;stroke-miterlimit:10;" d="M 0.45 0.15 C 0.35 0.15 0.25 0.15 0.15 0.15 " transform="matrix(500,0,0,500,0,0)"/>
<path style="fill:none;stroke-width:0.01;stroke-linecap:butt;stroke-linejoin:miter;stroke:rgb(58.6%,71.1%,61.3%);stroke-opacity:1;stroke-miterlimit:10;" d="M 0.15 0.15 C 0.05 0.15 0.05 0.25 0.15 0.25 " transform="matrix(500,0,0,500,0,0)"/>
<path style="fill:none;stroke-width:0.01;stroke-linecap:butt;stroke-linejoin:miter;stroke:rgb(42.1%,64.3%,81.3%);stroke-opacity:1;stroke-miterlimit:10;" d="M 0.15 0.25 C 0.25 0.25 0.35 0.25 0.45 0.25 " transform="matrix(500,0,0,500,0,0)"/>
<path style="fill:none;stroke-width:0.01;stroke-linecap:butt;stroke-linejoin:miter;stroke:rgb(18.8%,73.4%,1.1%);stroke-opacity:1;stroke-miterlimit:10;" d="M 0.45 0.25 C 0.55 0.25 0.65 0.25 0.75 0.25 " transform="matrix(500,0,0,500,0,0)"/>
<path style="fill:none;stroke-width:0.01;stroke-linecap:butt;stroke-linejoin:miter;stroke:rgb(99.7%,23.4%,0.5%);stroke-opacity:1;stroke-miterlimit:10;" d="M 0.75 0.25 C 0.85 0.25 0.95 0.25 0.95 0.35 " transform="matrix(500,0,0,500,0,0)"/>
<path style="fill:none;stroke-width:0.01;stroke-linecap:butt;stroke-linejoin:miter;stroke:rgb(23.6%,54.3%,54.3%);stroke-opacity:1;stroke-miterlimit:10;" d="M 0.95 0.35 C 0.85 0.35 0.75 0.35 0.65 0.35 " transform="matrix(500,0,0,500,0,0)"/>
<path style="fill:none;stroke-width:0.01;stroke-linecap:butt;stroke-linejoin:miter;stroke:rgb(56.7%,87.9%,94.8%);stroke-opacity:1;stroke-miterlimit:10;" d="M 0.65 0.35 C 0.55 0.35 0.45 0.35 0.35 0.35 " transform="matrix(500,0,0,500,0,0)"/>
<path style="fill:none;stroke-width:0.01;stroke-linecap:butt;stroke-linejoin:miter;stroke:rgb(16.6%,58.1%,3.7%);stroke-opacity:1;stroke-miterlimit:10;" d="M 0.35 0.35 C 0.25 0.35 0.15 0.35 0.05 0.35 " transform="matrix(500,0,0,500,0,0)"/>
<path style="fill:none;stroke-width:0.01;stroke-linecap:butt;stroke-linejoin:miter;stroke:rgb(67.6%,59.9%,91.2%);stroke-opacity:1;stroke-miterlimit:10;" d="M 0.05 0.35 C 0.05 0.45 0.15 0.45 0.25 0.45 " transform="matrix(500,0,0,500,0,0)"/>
<path style="fill:none;stroke-width:0.01;stroke-linecap:butt;stroke-linejoin:miter;stroke:rgb(9.8%,34.1%,23.8%);stroke-opacity:1;stroke-miterlimit:10;" d="M 0.25 0.45 C 0.35 0.45 0.45 0.45 0.55 0.45 " transform="matrix(500,0,0,500,0,0)"/>
<path style="fill:none;stroke-width:0.01;stroke-linecap:butt;stroke-linejoin:miter;stroke:rgb(43%,70.5%,19.8%);stroke-opacity:1;stroke-miterlimit:10;" d="M 0.55 0.45 C 0.65 0.45 0.75 0.45 0.85 0.45 " transform="matrix(500,0,0,500,0,0)"/>
<path style="fill:none;stroke-width:0.01;stroke-linecap:butt;stroke-linejoin:miter;stroke:rgb(25.3%,2%,71.3%);stroke-opacity:1;stroke-miterlimit:10;" d="M 0.85 0.45 C 0.95 0.45 0.95 0.55 0.85 0.55 " transform="matrix(500,0,0,500,0,0)"/>
<path style="fill:none;stroke-width:0.01;stroke-linecap:butt;stroke-linejoin:miter;stroke:rgb(27.7%,5.3%,18%);stroke-opacity:1;stroke-miterlimit:10;" d="M 0.85 0.55 C 0.75 0.55 0.65 0.55 0.55 0.55 " transform="matrix(500,0,0,500,0,0)"/>
<path style="fill:none;stroke-width:0.01;stroke-linecap:butt;stroke-linejoin:miter;stroke:rgb(5.2%,39.6%,82.2%);stroke-opacity:1;stroke-miterlimit:10;" d="M 0.55 0.55 C 0.45 0.55 0.35 0.55 0.25 0.55 " transform="matrix(500,0,0,500,0,0)"/>
<path style="fill:none;stroke-width:0.01;stroke-linecap:butt;stroke-linejoin:miter;stroke:rgb(76.5%,31.5%,91%);stroke-opacity:1;stroke-miterlimit:10;" d="M 0.25 0.55 C 0.15 0.55 0.05 0.55 0.05 0.65 " transform="matrix(500,0,0,500,0,0)"/>
<path style="fill:none;stroke-width:0.01;stroke-linecap:butt;stroke-linejoin:miter;stroke:rgb(80.3%,49.9%,79.4%);stroke-opacity:1;stroke-miterlimit:10;" d="M 0.05 0.65 C 0.15 0.65 0.25 0.65 0.35 0.65 " transform="matrix(500,0,0,500,0,0)"/>
<path style="fill:none;stroke-width:0.01;stroke-linecap:butt;stroke-linejoin:miter;stroke:rgb(2.2%,37%,4.4%);stroke-opacity:1;stroke-miterlimit:10;" d="M 0.35 0.65 C 0.45 0.65 0.55 0.65 0.65 0.65 " transform="matrix(500,0,0,500,0,0)"/>
<path style="fill:none;stroke-width:0.01;stroke-linecap:butt;stroke-linejoin:miter;stroke:rgb(96%,87.9%,74.8%);stroke-opacity:1;stroke-miterlimit:10;" d="M 0.65 0.65 C 0.75 0.65 0.85 0.65 0.95 0.65 " transform="matrix(500,0,0,500,0,0)"/>
<path style="fill:none;stroke-width:0.01;stroke-linecap:butt;stroke-linejoin:miter;stroke:rgb(41.8%,55.3%,84.7%);stroke-opacity:1;stroke-miterlimit:10;" d="M 0.95 0.65 C 0.95 0.75 0.85 0.75 0.75 0.75 " transform="matrix(500,0,0,500,0,0)"/>
<path style="fill:none;stroke-width:0.01;stroke-linecap:butt;stroke-linejoin:miter;stroke:rgb(85.5%,42.2%,91.6%);stroke-opacity:1;stroke-miterlimit:10;" d="M 0.75 0.75 C 0.65 0.75 0.55 0.75 0.45 0.75 " transform="matrix(500,0,0,500,0,0)"/>
<path style="fill:none;stroke-width:0.01;stroke-linecap:butt;stroke-linejoin:miter;stroke:rgb(93.2%,66.4%,86.4%);stroke-opacity:1;stroke-miterlimit:10;" d="M 0.45 0.75 C 0.35 0.75 0.25 0.75 0.15 0.75 " transform="matrix(500,0,0,500,0,0)"/>
<path style="fill:none;stroke-width:0.01;stroke-linecap:butt;stroke-linejoin:miter;stroke:rgb(47.1%,87.9%,54.9%);stroke-opacity:1;stroke-miterlimit:10;" d="M 0.15 0.75 C 0.05 0.75 0.05 0.85 0.15 0.85 " transform="matrix(500,0,0,500,0,0)"/>
<path style="fill:none;stroke-width:0.01;stroke-linecap:butt;stroke-linejoin:miter;stroke:rgb(47.7%,91.7%,82.5%);stroke-opacity:1;stroke-miterlimit:10;" d="M 0.15 0.85 C 0.25 0.85 0.35 0.85 0.45 0.85 " transform="matrix(500,0,0,500,0,0)"/>
<path style="fill:none;stroke-width:0.01;stroke-linecap:butt;stroke-linejoin:miter;stroke:rgb(42.1%,60.5%,74.8%);stroke-opacity:1;stroke-miterlimit:10;" d="M 0.45 0.85 C 0.55 0.85 0.65 0.85 0.75 0.85 " transform="matrix(500,0,0,500,0,0)"/>
<path style="fill:none;stroke-width:0.01;stroke-linecap:butt;stroke-linejoin:miter;stroke:rgb(59.2%,5.4%,3.8%);stroke-opacity:1;stroke-miterlimit:10;" d="M 0.75 0.85 C 0.85 0.85 0.95 0.85 0.95 0.95 " transform="matrix(500,0,0,500,0,0)"/>
<path style="fill:none;stroke-width:0.01;stroke-linecap:butt;stroke-linejoin:miter;stroke:rgb(57.7%,93.2%,55.5%);stroke-opacity:1;stroke-miterlimit:10;" d="M 0.95 0.95 C 0.85 0.95 0.75 0.95 0.65 0.95 " transform="matrix(500,0,0,500,0,0)"/>
<path style="fill:none;stroke-width:0.01;stroke-linecap:butt;stroke-linejoin:miter;stroke:rgb(35.4%,94.6%,72.9%);stroke-opacity:1;stroke-miterlimit:10;" d="M 0.65 0.95 C 0.55 0.95 0.45 0.95 0.35 0.95 " transform="matrix(500,0,0,500,0,0)"/>
<path style="fill:none;stroke-width:0.01;stroke-linecap:butt;stroke-linejoin:miter;stroke:rgb(4.9%,25.1%,18%);stroke-opacity:1;stroke-miterlimit:10;" d="M 0.35 0.95 C 0.25 0.95 0.15 0.95 0.05 0.95 " transform="matrix(500,0,0,500,0,0)"/>
<path style=" stroke:none;fill-rule:nonzero;fill:rgb(73.7%,43.1%,40.1%);fill-opacity:0.5;" d="M 31 34.5 L 81 13.5 L 98 74.5 L 31 34.5 "/>
<path style=" stroke:none;fill-rule:nonzero;fill:rgb(93.7%,56.6%,91.9%);fill-opacity:0.5;" d="M 128.5 24 L 182 -1 L 194.5 73 L 128.5 24 "/>
<path style=" stroke:none;fill-rule:nonzero;fill:rgb(71.6%,8.2%,59.9%);fill-opacity:0.5;" d="M 264.5 73.5 L 197.5 75.5 L 211 21 L 264.5 73.5 "/>
<path style=" stroke:none;fill-rule:nonzero;fill:rgb(74%,88.3%,93.6%);fill-opacity:0.5;" d="M 302 31 L 369 19.5 L 385.5 69.5 L 302 31 "/>
<path style=" stroke:none;fill-rule:nonzero;fill:rgb(68.5%,38.3%,10.2%);fill-opacity:0.5;" d="M 496.5 55 L 437.5 44 L 430 -17 L 496.5 55 "/>
<path style=" stroke:none;fill-rule:nonzero;fill:rgb(93.2%,32.7%,18.2%);fill-opacity:0.5;" d="M 418 122 L 483.5 134 L 472.5 198 L 418 122 "/>
<path style=" stroke:none;fill-rule:nonzero;fill:rgb(6.4%,60.3%,69%);fill-opacity:0.5;" d="M 336.5 152.5 L 395.5 176 L 417 115 L 336.5 152.5 "/>
<path style=" stroke:none;fill-rule:nonzero;fill:rgb(1.1%,39.6%,37.8%);fill-opacity:0.5;" d="M 288.5 199.5 L 232.5 198.5 L 253.5 139.5 L 288.5 199.5 "/>
<path style=" stroke:none;fill-rule:nonzero;fill:rgb(11.2%,57.2%,83.9%);fill-opacity:0.5;" d="M 102 187 L 173.5 179 L 165 127 L 102 187 "/>
<path style=" stroke:none;fill-rule:nonzero;fill:rgb(61.3%,75.1%,48.4%);fill-opacity:0.5;" d="M 56 120 L -15 122 L -22.5 189 L 56 120 "/>
<path style=" stroke:none;fill-rule:nonzero;fill:rgb(96.2%,98%,54.5%);fill-opacity:0.5;" d="M 30 258 L 85 274.5 L 103 200 L 30 258 "/>
<path style=" stroke:none;fill-rule:nonzero;fill:rgb(41.5%,62.8%,53%);fill-opacity:0.5;" d="M 129.5 224.5 L 179.5 249 L 157 306 L 129.5 224.5 "/>
<path style=" stroke:none;fill-rule:nonzero;fill:rgb(84.3%,74.8%,71.4%);fill-opacity:0.5;" d="M 286 284 L 227 263.5 L 249 192 L 286 284 "/>
<path style=" stroke:none;fill-rule:nonzero;fill:rgb(14.8%,4%,43.8%);fill-opacity:0.5;" d="M 333.5 240.5 L 386.5 240.5 L 406.5 291 L 333.5 240.5 "/>
<path style=" stroke:none;fill-rule:nonzero;fill:rgb(95.1%,40.9%,28%);fill-opacity:0.5;" d="M 474 242 L 419.5 223 L 405 294 L 474 242 "/>
<path style=" stroke:none;fill-rule:nonzero;fill:rgb(36.4%,74.9%,88.8%);fill-opacity:0.5;" d="M 406.5 363 L 460 370.5 L 442 296.5 L 406.5 363 "/>
<path style=" stroke:none;fill-rule:nonzero;fill:rgb(96.9%,1.3%,60%);fill-opacity:0.5;" d="M 331 392.5 L 390 398 L 368.5 344 L 331 392.5 "/>
<path style=" stroke:none;fill-rule:nonzero;fill:rgb(43.6%,28.2%,31.5%);fill-opacity:0.5;" d="M 266 300.5 L 216 325 L 220 393.5 L 266 300.5 "/>
<path style=" stroke:none;fill-rule:nonzero;fill:rgb(11.3%,67.5%,73.4%);fill-opacity:0.5;" d="M 122 376 L 182.5 376 L 165.5 313.5 L 122 376 "/>
<path style=" stroke:none;fill-rule:nonzero;fill:rgb(87.1%,25.3%,34.2%);fill-opacity:0.5;" d="M 90.5 328 L 28 329.5 L 10 399 L 90.5 328 "/>
<path style=" stroke:none;fill-rule:nonzero;fill:rgb(3.2%,62.6%,4.9%);fill-opacity:0.5;" d="M 30 454.5 L 96 434 L 117.5 382.5 L 30 454.5 "/>
<path style=" stroke:none;fill-rule:nonzero;fill:rgb(48.2%,32.4%,62.8%);fill-opacity:0.5;" d="M 137.5 419.5 L 201 400 L 202.5 467.5 L 137.5 419.5 "/>
<path style=" stroke:none;fill-rule:nonzero;fill:rgb(93.7%,67.3%,82.2%);fill-opacity:0.5;" d="M 284.5 436 L 222 434.5 L 201.5 493.5 L 284.5 436 "/>
<path style=" stroke:none;fill-rule:nonzero;fill:rgb(81.2%,28%,96.1%);fill-opacity:0.5;" d="M 361.5 411 L 299.5 416.5 L 281 486.5 L 361.5 411 "/>
<path style=" stroke:none;fill-rule:nonzero;fill:rgb(97.7%,62.7%,73%);fill-opacity:0.5;" d="M 499 476 L 425.5 498 L 429.5 435.5 L 499 476 "/>
<path style="fill:none;stroke-width:0.002;stroke-linecap:butt;stroke-linejoin:miter;stroke:rgb(83.1%,54.6%,3.5%);stroke-opacity:1;stroke-miterlimit:10;" d="M 0.204 0.548 L 0.914 0.879 " transform="matrix(500,0,0,500,0,0)"/>
<path style="fill:none;stroke-width:0.002;stroke-linecap:butt;stroke-linejoin:miter;stroke:rgb(20.5%,24.9%,22.3%);stroke-opacity:1;stroke-miterlimit:10;" d="M 0.091 0.569 L 0.783 0.766 " transform="matrix(500,0,0,500,0,0)"/>
<path style="fill:none;stroke-width:0.002;stroke-linecap:butt;stroke-linejoin:miter;stroke:rgb(79.3%,54.6%,35.8%);stroke-opacity:1;stroke-miterlimit:10;" d="M 0.949 0.99 L 0.989 0.669 " transform="matrix(500,0,0,500,0,0)"/>
<path style="fill:none;stroke-width:0.002;stroke-linecap:butt;stroke-linejoin:miter;stroke:rgb(74.4%,79.3%,81.6%);stroke-opacity:1;stroke-miterlimit:10;" d="M 0.843 0.747 L 0.592 0.207 " transform="matrix(500,0,0,500,0,0)"/>
<path style="fill:none;stroke-width:0.002;stroke-linecap:butt;stroke-linejoin:miter;stroke:rgb(12.4%,82.7%,85.6%);stroke-opacity:1;stroke-miterlimit:10;" d="M 0.704 0.464 L 0.65 0.671 " transform="matrix(500,0,0,500,0,0)"/>
<path style="fill:none;stroke-width:0.002;stroke-linecap:butt;stroke-linejoin:miter;stroke:rgb(41.6%,63.2%,14.9%);stroke-opacity:1;stroke-miterlimit:10;" d="M 0.748 0.699 L 0.097 0.162 " transform="matrix(500,0,0,500,0,0)"/>
<path style="fill:none;stroke-width:0.002;stroke-linecap:butt;stroke-linejoin:miter;stroke:rgb(62.9%,97.7%,11.7%);stroke-opacity:1;stroke-miterlimit:10;" d="M 0.082 0.608 L 0.742 0.185 " transform="matrix(500,0,0,500,0,0)"/>
<path style="fill:none;stroke-width:0.002;stroke-linecap:butt;stroke-linejoin:miter;stroke:rgb(23.5%,26.8%,35.1%);stroke-opacity:1;stroke-miterlimit:10;" d="M 0.675 0.182 L 0.654 0.09 " transform="matrix(500,0,0,500,0,0)"/>
<path style="fill:none;stroke-width:0.002;stroke-linecap:butt;stroke-linejoin:miter;stroke:rgb(36.2%,7%,81.6%);stroke-opacity:1;stroke-miterlimit:10;" d="M 0.977 0.984 L 0.396 0.026 " transform="matrix(500,0,0,500,0,0)"/>
<path style="fill:none;stroke-width:0.002;stroke-linecap:butt;stroke-linejoin:miter;stroke:rgb(41.3%,4.8%,76.2%);stroke-opacity:1;stroke-miterlimit:10;" d="M 0.057 0.013 L 0.939 0.127 " transform="matrix(500,0,0,500,0,0)"/>
</g>
</defs>
<g id="surface345">
<use xlink:href="#surface348"/>
</g>
</svg>
