<?xml version="1.0" encoding="UTF-8"?>
<svg xmlns="http://www.w3.org/2000/svg" xmlns:xlink="http://www.w3.org/1999/xlink" width="500pt" height="500pt" viewBox="0 0 500 500" version="1.1">
<defs>
<clipPath id="clip1">
  <rect x="0" y="0" width="500" height="500"/>
</clipPath>
<g id="surface227" clip-path="url(#clip1)">
<rect x="0" y="0" width="500" height="500" style="fill:rgb(42.4%,79.2%,88.8%);fill-opacity:1;stroke:none;"/>
<path style=" stroke:none;fill-rule:nonzero;fill:rgb(46.2%,19.9%,9.3%);fill-opacity:1;" d="M 46 25 C 46 36.597656 36.597656 46 25 46 C 13.402344 46 4 36.597656 4 25 C 4 13.402344 13.402344 4 25 4 C 36.597656 4 46 13.402344 46 25 "/>
<path style=" stroke:none;fill-rule:nonzero;fill:rgb(32.1%,10.1%,36.3%);fill-opacity:1;" d="M 91.5 25 C 91.5 34.113281 84.113281 41.5 75 41.5 C 65.886719 41.5 58.5 34.113281 58.5 25 C 58.5 15.886719 65.886719 8.5 75 8.5 C 84.113281 8.5 91.5 15.886719 91.5 25 "/>
<path style=" stroke:none;fill-rule:nonzero;fill:rgb(13.9%,74.2%,81.7%);fill-opacity:1;" d="M 136.5 25 C 136.5 31.351562 131.351562 36.5 125 36.5 C 118.648438 36.5 113.5 31.351562 113.5 25 C 113.5 18.648438 118.648438 13.5 125 13.5 C 131.351562 13.5 136.5 18.648438 136.5 25 "/>
<path style=" stroke:none;fill-rule:nonzero;fill:rgb(51.8%,19.9%,88.7%);fill-opacity:1;" d="M 187 25 C 187 31.628906 181.628906 37 175 37 C 168.371094 37 163 31.628906 163 25 C 163 18.371094 168.371094 13 175 13 C 181.628906 13 187 18.371094 187 25 "/>
<path style=" stroke:none;fill-rule:nonzero;fill:rgb(35.5%,88.3%,62.7%);fill-opacity:1;" d="M 230 25 C 230 31.667969 220 31.667969 220 25 C 220 18.332031 230 18.332031 230 25 "/>
<path style=" stroke:none;fill-rule:nonzero;fill:rgb(68.9%,84.4%,54.4%);fill-opacity:1;" d="M 295.5 25 C 295.5 36.320312 286.320312 45.5 275 45.5 C 263.679688 45.5 254.5 36.320312 254.5 25 C 254.5 13.679688 263.679688 4.5 275 4.5 C 286.320312 4.5 295.5 13.679688 295.5 25 "/>
<path style=" stroke:none;fill-rule:nonzero;fill:rgb(21.1%,73%,3.8%);fill-opacity:1;" d="M 333.5 25 C 333.5 29.695312 329.695312 33.5 325 33.5 C 320.304688 33.5 316.5 29.695312 316.5 25 C 316.5 20.304688 320.304688 16.5 325 16.5 C 329.695312 16.5 333.5 20.304688 333.5 25 "/>
<path style=" stroke:none;fill-rule:nonzero;fill:rgb(47.6%,55.8%,88.2%);fill-opacity:1;" d="M 384 25 C 384 29.96875 379.96875 34 375 34 C 370.03125 34 366 29.96875 366 25 C 366 20.03125 370.03125 16 375 16 C 379.96875 16 384 20.03125 384 25 "/>
<path style=" stroke:none;fill-rule:nonzero;fill:rgb(1.2%,12.9%,70.3%);fill-opacity:1;" d="M 441.5 25 C 441.5 34.113281 434.113281 41.5 425 41.5 C 415.886719 41.5 408.5 34.113281 408.5 25 C 408.5 15.886719 415.886719 8.5 425 8.5 C 434.113281 8.5 441.5 15.886719 441.5 25 "/>
<path style=" stroke:none;fill-rule:nonzero;fill:rgb(44.8%,8.3%,5.1%);fill-opacity:1;" d="M 497.5 25 C 497.5 37.425781 487.425781 47.5 475 47.5 C 462.574219 47.5 452.5 37.425781 452.5 25 C 452.5 12.574219 462.574219 2.5 475 2.5 C 487.425781 2.5 497.5 12.574219 497.5 25 "/>
<path style=" stroke:none;fill-rule:nonzero;fill:rgb(67.4%,94.4%,64.4%);fill-opacity:1;" d="M 493.5 75 C 493.5 85.21875 485.21875 93.5 475 93.5 C 464.78125 93.5 456.5 85.21875 456.5 75 C 456.5 64.78125 464.78125 56.5 475 56.5 C 485.21875 56.5 493.5 64.78125 493.5 75 "/>
<path style=" stroke:none;fill-rule:nonzero;fill:rgb(21.9%,44.6%,15.6%);fill-opacity:1;" d="M 435.5 75 C 435.5 80.800781 430.800781 85.5 425 85.5 C 419.199219 85.5 414.5 80.800781 414.5 75 C 414.5 69.199219 419.199219 64.5 425 64.5 C 430.800781 64.5 435.5 69.199219 435.5 75 "/>
<path style=" stroke:none;fill-rule:nonzero;fill:rgb(77.4%,91.9%,39.1%);fill-opacity:1;" d="M 387.5 75 C 387.5 81.902344 381.902344 87.5 375 87.5 C 368.097656 87.5 362.5 81.902344 362.5 75 C 362.5 68.097656 368.097656 62.5 375 62.5 C 381.902344 62.5 387.5 68.097656 387.5 75 "/>
<path style=" stroke:none;fill-rule:nonzero;fill:rgb(24.9%,47.1%,93.3%);fill-opacity:1;" d="M 333 75 C 333 79.417969 329.417969 83 325 83 C 320.582031 83 317 79.417969 317 75 C 317 70.582031 320.582031 67 325 67 C 329.417969 67 333 70.582031 333 75 "/>
<path style=" stroke:none;fill-rule:nonzero;fill:rgb(29.6%,63.3%,67.2%);fill-opacity:1;" d="M 299 75 C 299 88.253906 288.253906 99 275 99 C 261.746094 99 251 88.253906 251 75 C 251 61.746094 261.746094 51 275 51 C 288.253906 51 299 61.746094 299 75 "/>
<path style=" stroke:none;fill-rule:nonzero;fill:rgb(1.9%,97.2%,48.5%);fill-opacity:1;" d="M 231 75 C 231 78.3125 228.3125 81 225 81 C 221.6875 81 219 78.3125 219 75 C 219 71.6875 221.6875 69 225 69 C 228.3125 69 231 71.6875 231 75 "/>
<path style=" stroke:none;fill-rule:nonzero;fill:rgb(62.9%,84.6%,64.3%);fill-opacity:1;" d="M 197 75 C 197 87.148438 187.148438 97 175 97 C 162.851562 97 153 87.148438 153 75 C 153 62.851562 162.851562 53 175 53 C 187.148438 53 197 62.851562 197 75 "/>
<path style=" stroke:none;fill-rule:nonzero;fill:rgb(42.2%,11.6%,81.3%);fill-opacity:1;" d="M 146 75 C 146 86.597656 136.597656 96 125 96 C 113.402344 96 104 86.597656 104 75 C 104 63.402344 113.402344 54 125 54 C 136.597656 54 146 63.402344 146 75 "/>
<path style=" stroke:none;fill-rule:nonzero;fill:rgb(86.7%,72.6%,54.9%);fill-opacity:1;" d="M 82.5 75 C 82.5 79.140625 79.140625 82.5 75 82.5 C 70.859375 82.5 67.5 79.140625 67.5 75 C 67.5 70.859375 70.859375 67.5 75 67.5 C 79.140625 67.5 82.5 70.859375 82.5 75 "/>
<path style=" stroke:none;fill-rule:nonzero;fill:rgb(1.5%,74%,60.6%);fill-opacity:1;" d="M 48.5 75 C 48.5 87.980469 37.980469 98.5 25 98.5 C 12.019531 98.5 1.5 87.980469 1.5 75 C 1.5 62.019531 12.019531 51.5 25 51.5 C 37.980469 51.5 48.5 62.019531 48.5 75 "/>
<path style=" stroke:none;fill-rule:nonzero;fill:rgb(32.3%,85.8%,69.4%);fill-opacity:1;" d="M 33.5 125 C 33.5 129.695312 29.695312 133.5 25 133.5 C 20.304688 133.5 16.5 129.695312 16.5 125 C 16.5 120.304688 20.304688 116.5 25 116.5 C 29.695312 116.5 33.5 120.304688 33.5 125 "/>
<path style=" stroke:none;fill-rule:nonzero;fill:rgb(26.7%,7.4%,50.6%);fill-opacity:1;" d="M 96.5 125 C 96.5 136.875 86.875 146.5 75 146.5 C 63.125 146.5 53.5 136.875 53.5 125 C 53.5 113.125 63.125 103.5 75 103.5 C 86.875 103.5 96.5 113.125 96.5 125 "/>
<path style=" stroke:none;fill-rule:nonzero;fill:rgb(76.2%,84.8%,74%);fill-opacity:1;" d="M 132.5 125 C 132.5 129.140625 129.140625 132.5 125 132.5 C 120.859375 132.5 117.5 129.140625 117.5 125 C 117.5 120.859375 120.859375 117.5 125 117.5 C 129.140625 117.5 132.5 120.859375 132.5 125 "/>
<path style=" stroke:none;fill-rule:nonzero;fill:rgb(9.6%,52.4%,1%);fill-opacity:1;" d="M 188.5 125 C 188.5 132.457031 182.457031 138.5 175 138.5 C 167.542969 138.5 161.5 132.457031 161.5 125 C 161.5 117.542969 167.542969 111.5 175 111.5 C 182.457031 111.5 188.5 117.542969 188.5 125 "/>
<path style=" stroke:none;fill-rule:nonzero;fill:rgb(11.3%,49%,44.2%);fill-opacity:1;" d="M 245 125 C 245 136.046875 236.046875 145 225 145 C 213.953125 145 205 136.046875 205 125 C 205 113.953125 213.953125 105 225 105 C 236.046875 105 245 113.953125 245 125 "/>
<path style=" stroke:none;fill-rule:nonzero;fill:rgb(24.4%,29.3%,55.4%);fill-opacity:1;" d="M 297 125 C 297 137.148438 287.148438 147 275 147 C 262.851562 147 253 137.148438 253 125 C 253 112.851562 262.851562 103 275 103 C 287.148438 103 297 112.851562 297 125 "/>
<path style=" stroke:none;fill-rule:nonzero;fill:rgb(37.2%,14.5%,95.3%);fill-opacity:1;" d="M 334 125 C 334 129.96875 329.96875 134 325 134 C 320.03125 134 316 129.96875 316 125 C 316 120.03125 320.03125 116 325 116 C 329.96875 116 334 120.03125 334 125 "/>
<path style=" stroke:none;fill-rule:nonzero;fill:rgb(29.7%,39.2%,91.3%);fill-opacity:1;" d="M 382 125 C 382 128.867188 378.867188 132 375 132 C 371.132812 132 368 128.867188 368 125 C 368 121.132812 371.132812 118 375 118 C 378.867188 118 382 121.132812 382 125 "/>
<path style=" stroke:none;fill-rule:nonzero;fill:rgb(23.4%,59%,81%);fill-opacity:1;" d="M 432.5 125 C 432.5 129.140625 429.140625 132.5 425 132.5 C 420.859375 132.5 417.5 129.140625 417.5 125 C 417.5 120.859375 420.859375 117.5 425 117.5 C 429.140625 117.5 432.5 120.859375 432.5 125 "/>
<path style=" stroke:none;fill-rule:nonzero;fill:rgb(19.3%,66.5%,26.9%);fill-opacity:1;" d="M 497.5 125 C 497.5 137.425781 487.425781 147.5 475 147.5 C 462.574219 147.5 452.5 137.425781 452.5 125 C 452.5 112.574219 462.574219 102.5 475 102.5 C 487.425781 102.5 497.5 112.574219 497.5 125 "/>
<path style=" stroke:none;fill-rule:nonzero;fill:rgb(51%,69%,51.1%);fill-opacity:1;" d="M 490.5 175 C 490.5 183.558594 483.558594 190.5 475 190.5 C 466.441406 190.5 459.5 183.558594 459.5 175 C 459.5 166.441406 466.441406 159.5 475 159.5 C 483.558594 159.5 490.5 166.441406 490.5 175 "/>
<path style=" stroke:none;fill-rule:nonzero;fill:rgb(52.9%,89.8%,41.9%);fill-opacity:1;" d="M 446.5 175 C 446.5 186.875 436.875 196.5 425 196.5 C 413.125 196.5 403.5 186.875 403.5 175 C 403.5 163.125 413.125 153.5 425 153.5 C 436.875 153.5 446.5 163.125 446.5 175 "/>
<path style=" stroke:none;fill-rule:nonzero;fill:rgb(22.8%,95.3%,45%);fill-opacity:1;" d="M 394 175 C 394 185.492188 385.492188 194 375 194 C 364.507812 194 356 185.492188 356 175 C 356 164.507812 364.507812 156 375 156 C 385.492188 156 394 164.507812 394 175 "/>
<path style=" stroke:none;fill-rule:nonzero;fill:rgb(5.4%,21.8%,6.3%);fill-opacity:1;" d="M 331 175 C 331 178.3125 328.3125 181 325 181 C 321.6875 181 319 178.3125 319 175 C 319 171.6875 321.6875 169 325 169 C 328.3125 169 331 171.6875 331 175 "/>
<path style=" stroke:none;fill-rule:nonzero;fill:rgb(83.4%,12.9%,27.7%);fill-opacity:1;" d="M 290 175 C 290 183.285156 283.285156 190 275 190 C 266.714844 190 260 183.285156 260 175 C 260 166.714844 266.714844 160 275 160 C 283.285156 160 290 166.714844 290 175 "/>
<path style=" stroke:none;fill-rule:nonzero;fill:rgb(20.8%,37.4%,27.1%);fill-opacity:1;" d="M 246 175 C 246 186.597656 236.597656 196 225 196 C 213.402344 196 204 186.597656 204 175 C 204 163.402344 213.402344 154 225 154 C 236.597656 154 246 163.402344 246 175 "/>
<path style=" stroke:none;fill-rule:nonzero;fill:rgb(20.9%,89.4%,45.1%);fill-opacity:1;" d="M 185.5 175 C 185.5 180.800781 180.800781 185.5 175 185.5 C 169.199219 185.5 164.5 180.800781 164.5 175 C 164.5 169.199219 169.199219 164.5 175 164.5 C 180.800781 164.5 185.5 169.199219 185.5 175 "/>
<path style=" stroke:none;fill-rule:nonzero;fill:rgb(20%,61.4%,68.5%);fill-opacity:1;" d="M 130 175 C 130 181.667969 120 181.667969 120 175 C 120 168.332031 130 168.332031 130 175 "/>
<path style=" stroke:none;fill-rule:nonzero;fill:rgb(52.4%,70.1%,87.5%);fill-opacity:1;" d="M 93 175 C 93 184.941406 84.941406 193 75 193 C 65.058594 193 57 184.941406 57 175 C 57 165.058594 65.058594 157 75 157 C 84.941406 157 93 165.058594 93 175 "/>
<path style=" stroke:none;fill-rule:nonzero;fill:rgb(37.1%,19.8%,20.5%);fill-opacity:1;" d="M 46 175 C 46 186.597656 36.597656 196 25 196 C 13.402344 196 4 186.597656 4 175 C 4 163.402344 13.402344 154 25 154 C 36.597656 154 46 163.402344 46 175 "/>
<path style=" stroke:none;fill-rule:nonzero;fill:rgb(24.7%,59.4%,7.2%);fill-opacity:1;" d="M 39.5 225 C 39.5 233.007812 33.007812 239.5 25 239.5 C 16.992188 239.5 10.5 233.007812 10.5 225 C 10.5 216.992188 16.992188 210.5 25 210.5 C 33.007812 210.5 39.5 216.992188 39.5 225 "/>
<path style=" stroke:none;fill-rule:nonzero;fill:rgb(43.6%,95.5%,29.8%);fill-opacity:1;" d="M 93.5 225 C 93.5 235.21875 85.21875 243.5 75 243.5 C 64.78125 243.5 56.5 235.21875 56.5 225 C 56.5 214.78125 64.78125 206.5 75 206.5 C 85.21875 206.5 93.5 214.78125 93.5 225 "/>
<path style=" stroke:none;fill-rule:nonzero;fill:rgb(72%,76.5%,67.2%);fill-opacity:1;" d="M 135.5 225 C 135.5 230.800781 130.800781 235.5 125 235.5 C 119.199219 235.5 114.5 230.800781 114.5 225 C 114.5 219.199219 119.199219 214.5 125 214.5 C 130.800781 214.5 135.5 219.199219 135.5 225 "/>
<path style=" stroke:none;fill-rule:nonzero;fill:rgb(47.7%,0.7%,29.3%);fill-opacity:1;" d="M 194.5 225 C 194.5 235.769531 185.769531 244.5 175 244.5 C 164.230469 244.5 155.5 235.769531 155.5 225 C 155.5 214.230469 164.230469 205.5 175 205.5 C 185.769531 205.5 194.5 214.230469 194.5 225 "/>
<path style=" stroke:none;fill-rule:nonzero;fill:rgb(32.9%,85.2%,58.2%);fill-opacity:1;" d="M 235 225 C 235 230.523438 230.523438 235 225 235 C 219.476562 235 215 230.523438 215 225 C 215 219.476562 219.476562 215 225 215 C 230.523438 215 235 219.476562 235 225 "/>
<path style=" stroke:none;fill-rule:nonzero;fill:rgb(28.9%,98.8%,37.6%);fill-opacity:1;" d="M 283.5 225 C 283.5 229.695312 279.695312 233.5 275 233.5 C 270.304688 233.5 266.5 229.695312 266.5 225 C 266.5 220.304688 270.304688 216.5 275 216.5 C 279.695312 216.5 283.5 220.304688 283.5 225 "/>
<path style=" stroke:none;fill-rule:nonzero;fill:rgb(63.1%,30%,17%);fill-opacity:1;" d="M 339 225 C 339 232.730469 332.730469 239 325 239 C 317.269531 239 311 232.730469 311 225 C 311 217.269531 317.269531 211 325 211 C 332.730469 211 339 217.269531 339 225 "/>
<path style=" stroke:none;fill-rule:nonzero;fill:rgb(9.1%,44.7%,72%);fill-opacity:1;" d="M 383 225 C 383 229.417969 379.417969 233 375 233 C 370.582031 233 367 229.417969 367 225 C 367 220.582031 370.582031 217 375 217 C 379.417969 217 383 220.582031 383 225 "/>
<path style=" stroke:none;fill-rule:nonzero;fill:rgb(92.3%,31.5%,47.4%);fill-opacity:1;" d="M 441.5 225 C 441.5 234.113281 434.113281 241.5 425 241.5 C 415.886719 241.5 408.5 234.113281 408.5 225 C 408.5 215.886719 415.886719 208.5 425 208.5 C 434.113281 208.5 441.5 215.886719 441.5 225 "/>
<path style=" stroke:none;fill-rule:nonzero;fill:rgb(15%,81.6%,9.4%);fill-opacity:1;" d="M 484 225 C 484 229.96875 479.96875 234 475 234 C 470.03125 234 466 229.96875 466 225 C 466 220.03125 470.03125 216 475 216 C 479.96875 216 484 220.03125 484 225 "/>
<path style=" stroke:none;fill-rule:nonzero;fill:rgb(29.8%,23.5%,22.1%);fill-opacity:1;" d="M 488 275 C 488 282.179688 482.179688 288 475 288 C 467.820312 288 462 282.179688 462 275 C 462 267.820312 467.820312 262 475 262 C 482.179688 262 488 267.820312 488 275 "/>
<path style=" stroke:none;fill-rule:nonzero;fill:rgb(53.9%,30.2%,88.5%);fill-opacity:1;" d="M 431 275 C 431 278.3125 428.3125 281 425 281 C 421.6875 281 419 278.3125 419 275 C 419 271.6875 421.6875 269 425 269 C 428.3125 269 431 271.6875 431 275 "/>
<path style=" stroke:none;fill-rule:nonzero;fill:rgb(55%,0%,47.4%);fill-opacity:1;" d="M 398 275 C 398 287.703125 387.703125 298 375 298 C 362.296875 298 352 287.703125 352 275 C 352 262.296875 362.296875 252 375 252 C 387.703125 252 398 262.296875 398 275 "/>
<path style=" stroke:none;fill-rule:nonzero;fill:rgb(53.4%,2.9%,14.8%);fill-opacity:1;" d="M 340 275 C 340 283.285156 333.285156 290 325 290 C 316.714844 290 310 283.285156 310 275 C 310 266.714844 316.714844 260 325 260 C 333.285156 260 340 266.714844 340 275 "/>
<path style=" stroke:none;fill-rule:nonzero;fill:rgb(68.8%,37.4%,44.6%);fill-opacity:1;" d="M 285.5 275 C 285.5 280.800781 280.800781 285.5 275 285.5 C 269.199219 285.5 264.5 280.800781 264.5 275 C 264.5 269.199219 269.199219 264.5 275 264.5 C 280.800781 264.5 285.5 269.199219 285.5 275 "/>
<path style=" stroke:none;fill-rule:nonzero;fill:rgb(80.6%,45.7%,26%);fill-opacity:1;" d="M 232.5 275 C 232.5 279.140625 229.140625 282.5 225 282.5 C 220.859375 282.5 217.5 279.140625 217.5 275 C 217.5 270.859375 220.859375 267.5 225 267.5 C 229.140625 267.5 232.5 270.859375 232.5 275 "/>
<path style=" stroke:none;fill-rule:nonzero;fill:rgb(75.5%,2.5%,99.5%);fill-opacity:1;" d="M 188.5 275 C 188.5 282.457031 182.457031 288.5 175 288.5 C 167.542969 288.5 161.5 282.457031 161.5 275 C 161.5 267.542969 167.542969 261.5 175 261.5 C 182.457031 261.5 188.5 267.542969 188.5 275 "/>
<path style=" stroke:none;fill-rule:nonzero;fill:rgb(25%,91.3%,28.5%);fill-opacity:1;" d="M 132.5 275 C 132.5 279.140625 129.140625 282.5 125 282.5 C 120.859375 282.5 117.5 279.140625 117.5 275 C 117.5 270.859375 120.859375 267.5 125 267.5 C 129.140625 267.5 132.5 270.859375 132.5 275 "/>
<path style=" stroke:none;fill-rule:nonzero;fill:rgb(92.7%,28.9%,21.3%);fill-opacity:1;" d="M 85 275 C 85 280.523438 80.523438 285 75 285 C 69.476562 285 65 280.523438 65 275 C 65 269.476562 69.476562 265 75 265 C 80.523438 265 85 269.476562 85 275 "/>
<path style=" stroke:none;fill-rule:nonzero;fill:rgb(49.7%,53.6%,60.2%);fill-opacity:1;" d="M 35.5 275 C 35.5 280.800781 30.800781 285.5 25 285.5 C 19.199219 285.5 14.5 280.800781 14.5 275 C 14.5 269.199219 19.199219 264.5 25 264.5 C 30.800781 264.5 35.5 269.199219 35.5 275 "/>
<path style=" stroke:none;fill-rule:nonzero;fill:rgb(15.5%,46.2%,31.6%);fill-opacity:1;" d="M 49.5 325 C 49.5 338.53125 38.53125 349.5 25 349.5 C 11.46875 349.5 0.5 338.53125 0.5 325 C 0.5 311.46875 11.46875 300.5 25 300.5 C 38.53125 300.5 49.5 311.46875 49.5 325 "/>
<path style=" stroke:none;fill-rule:nonzero;fill:rgb(88.7%,67.1%,74.9%);fill-opacity:1;" d="M 84.5 325 C 84.5 330.246094 80.246094 334.5 75 334.5 C 69.753906 334.5 65.5 330.246094 65.5 325 C 65.5 319.753906 69.753906 315.5 75 315.5 C 80.246094 315.5 84.5 319.753906 84.5 325 "/>
<path style=" stroke:none;fill-rule:nonzero;fill:rgb(78%,6.1%,98.4%);fill-opacity:1;" d="M 147 325 C 147 337.148438 137.148438 347 125 347 C 112.851562 347 103 337.148438 103 325 C 103 312.851562 112.851562 303 125 303 C 137.148438 303 147 312.851562 147 325 "/>
<path style=" stroke:none;fill-rule:nonzero;fill:rgb(69.9%,29.5%,33.3%);fill-opacity:1;" d="M 194.5 325 C 194.5 335.769531 185.769531 344.5 175 344.5 C 164.230469 344.5 155.5 335.769531 155.5 325 C 155.5 314.230469 164.230469 305.5 175 305.5 C 185.769531 305.5 194.5 314.230469 194.5 325 "/>
<path style=" stroke:none;fill-rule:nonzero;fill:rgb(30.7%,14.4%,62.2%);fill-opacity:1;" d="M 232.5 325 C 232.5 329.140625 229.140625 332.5 225 332.5 C 220.859375 332.5 217.5 329.140625 217.5 325 C 217.5 320.859375 220.859375 317.5 225 317.5 C 229.140625 317.5 232.5 320.859375 232.5 325 "/>
<path style=" stroke:none;fill-rule:nonzero;fill:rgb(22.7%,66.2%,95%);fill-opacity:1;" d="M 282 325 C 282 328.867188 278.867188 332 275 332 C 271.132812 332 268 328.867188 268 325 C 268 321.132812 271.132812 318 275 318 C 278.867188 318 282 321.132812 282 325 "/>
<path style=" stroke:none;fill-rule:nonzero;fill:rgb(25.9%,38.5%,14.9%);fill-opacity:1;" d="M 347.5 325 C 347.5 337.425781 337.425781 347.5 325 347.5 C 312.574219 347.5 302.5 337.425781 302.5 325 C 302.5 312.574219 312.574219 302.5 325 302.5 C 337.425781 302.5 347.5 312.574219 347.5 325 "/>
<path style=" stroke:none;fill-rule:nonzero;fill:rgb(90%,85.4%,84.7%);fill-opacity:1;" d="M 381.5 325 C 381.5 328.589844 378.589844 331.5 375 331.5 C 371.410156 331.5 368.5 328.589844 368.5 325 C 368.5 321.410156 371.410156 318.5 375 318.5 C 378.589844 318.5 381.5 321.410156 381.5 325 "/>
<path style=" stroke:none;fill-rule:nonzero;fill:rgb(20.7%,88.8%,40.5%);fill-opacity:1;" d="M 442 325 C 442 334.390625 434.390625 342 425 342 C 415.609375 342 408 334.390625 408 325 C 408 315.609375 415.609375 308 425 308 C 434.390625 308 442 315.609375 442 325 "/>
<path style=" stroke:none;fill-rule:nonzero;fill:rgb(66.6%,64.6%,74.9%);fill-opacity:1;" d="M 498 325 C 498 337.703125 487.703125 348 475 348 C 462.296875 348 452 337.703125 452 325 C 452 312.296875 462.296875 302 475 302 C 487.703125 302 498 312.296875 498 325 "/>
<path style=" stroke:none;fill-rule:nonzero;fill:rgb(36%,87.3%,1.3%);fill-opacity:1;" d="M 497.5 375 C 497.5 387.425781 487.425781 397.5 475 397.5 C 462.574219 397.5 452.5 387.425781 452.5 375 C 452.5 362.574219 462.574219 352.5 475 352.5 C 487.425781 352.5 497.5 362.574219 497.5 375 "/>
<path style=" stroke:none;fill-rule:nonzero;fill:rgb(19.2%,21.5%,63.2%);fill-opacity:1;" d="M 443.5 375 C 443.5 385.21875 435.21875 393.5 425 393.5 C 414.78125 393.5 406.5 385.21875 406.5 375 C 406.5 364.78125 414.78125 356.5 425 356.5 C 435.21875 356.5 443.5 364.78125 443.5 375 "/>
<path style=" stroke:none;fill-rule:nonzero;fill:rgb(36.9%,36.4%,49.9%);fill-opacity:1;" d="M 383.5 375 C 383.5 379.695312 379.695312 383.5 375 383.5 C 370.304688 383.5 366.5 379.695312 366.5 375 C 366.5 370.304688 370.304688 366.5 375 366.5 C 379.695312 366.5 383.5 370.304688 383.5 375 "/>
<path style=" stroke:none;fill-rule:nonzero;fill:rgb(32.9%,24.2%,84.9%);fill-opacity:1;" d="M 330 375 C 330 381.667969 320 381.667969 320 375 C 320 368.332031 330 368.332031 330 375 "/>
<path style=" stroke:none;fill-rule:nonzero;fill:rgb(12.8%,78.5%,51.2%);fill-opacity:1;" d="M 283.5 375 C 283.5 379.695312 279.695312 383.5 275 383.5 C 270.304688 383.5 266.5 379.695312 266.5 375 C 266.5 370.304688 270.304688 366.5 275 366.5 C 279.695312 366.5 283.5 370.304688 283.5 375 "/>
<path style=" stroke:none;fill-rule:nonzero;fill:rgb(1.8%,51.9%,26.2%);fill-opacity:1;" d="M 238.5 375 C 238.5 382.457031 232.457031 388.5 225 388.5 C 217.542969 388.5 211.5 382.457031 211.5 375 C 211.5 367.542969 217.542969 361.5 225 361.5 C 232.457031 361.5 238.5 367.542969 238.5 375 "/>
<path style=" stroke:none;fill-rule:nonzero;fill:rgb(32%,41.8%,84.1%);fill-opacity:1;" d="M 181.5 375 C 181.5 378.589844 178.589844 381.5 175 381.5 C 171.410156 381.5 168.5 378.589844 168.5 375 C 168.5 371.410156 171.410156 368.5 175 368.5 C 178.589844 368.5 181.5 371.410156 181.5 375 "/>
<path style=" stroke:none;fill-rule:nonzero;fill:rgb(55.3%,15.4%,77.5%);fill-opacity:1;" d="M 150 375 C 150 388.808594 138.808594 400 125 400 C 111.191406 400 100 388.808594 100 375 C 100 361.191406 111.191406 350 125 350 C 138.808594 350 150 361.191406 150 375 "/>
<path style=" stroke:none;fill-rule:nonzero;fill:rgb(70.7%,85.2%,39.3%);fill-opacity:1;" d="M 94.5 375 C 94.5 385.769531 85.769531 394.5 75 394.5 C 64.230469 394.5 55.5 385.769531 55.5 375 C 55.5 364.230469 64.230469 355.5 75 355.5 C 85.769531 355.5 94.5 364.230469 94.5 375 "/>
<path style=" stroke:none;fill-rule:nonzero;fill:rgb(46.2%,78.2%,52.1%);fill-opacity:1;" d="M 38 375 C 38 382.179688 32.179688 388 25 388 C 17.820312 388 12 382.179688 12 375 C 12 367.820312 17.820312 362 25 362 C 32.179688 362 38 367.820312 38 375 "/>
<path style=" stroke:none;fill-rule:nonzero;fill:rgb(96.9%,53.9%,73%);fill-opacity:1;" d="M 48.5 425 C 48.5 437.980469 37.980469 448.5 25 448.5 C 12.019531 448.5 1.5 437.980469 1.5 425 C 1.5 412.019531 12.019531 401.5 25 401.5 C 37.980469 401.5 48.5 412.019531 48.5 425 "/>
<path style=" stroke:none;fill-rule:nonzero;fill:rgb(83.6%,14.7%,28%);fill-opacity:1;" d="M 95 425 C 95 436.046875 86.046875 445 75 445 C 63.953125 445 55 436.046875 55 425 C 55 413.953125 63.953125 405 75 405 C 86.046875 405 95 413.953125 95 425 "/>
<path style=" stroke:none;fill-rule:nonzero;fill:rgb(59.4%,99%,1%);fill-opacity:1;" d="M 137.5 425 C 137.5 431.902344 131.902344 437.5 125 437.5 C 118.097656 437.5 112.5 431.902344 112.5 425 C 112.5 418.097656 118.097656 412.5 125 412.5 C 131.902344 412.5 137.5 418.097656 137.5 425 "/>
<path style=" stroke:none;fill-rule:nonzero;fill:rgb(99.9%,79.2%,0.3%);fill-opacity:1;" d="M 199 425 C 199 438.253906 188.253906 449 175 449 C 161.746094 449 151 438.253906 151 425 C 151 411.746094 161.746094 401 175 401 C 188.253906 401 199 411.746094 199 425 "/>
<path style=" stroke:none;fill-rule:nonzero;fill:rgb(55.5%,15.1%,4.1%);fill-opacity:1;" d="M 246 425 C 246 436.597656 236.597656 446 225 446 C 213.402344 446 204 436.597656 204 425 C 204 413.402344 213.402344 404 225 404 C 236.597656 404 246 413.402344 246 425 "/>
<path style=" stroke:none;fill-rule:nonzero;fill:rgb(80.8%,76.1%,35.6%);fill-opacity:1;" d="M 291 425 C 291 433.835938 283.835938 441 275 441 C 266.164062 441 259 433.835938 259 425 C 259 416.164062 266.164062 409 275 409 C 283.835938 409 291 416.164062 291 425 "/>
<path style=" stroke:none;fill-rule:nonzero;fill:rgb(79.2%,9%,80.4%);fill-opacity:1;" d="M 344 425 C 344 435.492188 335.492188 444 325 444 C 314.507812 444 306 435.492188 306 425 C 306 414.507812 314.507812 406 325 406 C 335.492188 406 344 414.507812 344 425 "/>
<path style=" stroke:none;fill-rule:nonzero;fill:rgb(46%,22.4%,27.8%);fill-opacity:1;" d="M 399 425 C 399 438.253906 388.253906 449 375 449 C 361.746094 449 351 438.253906 351 425 C 351 411.746094 361.746094 401 375 401 C 388.253906 401 399 411.746094 399 425 "/>
<path style=" stroke:none;fill-rule:nonzero;fill:rgb(84.4%,90.7%,3.6%);fill-opacity:1;" d="M 439.5 425 C 439.5 433.007812 433.007812 439.5 425 439.5 C 416.992188 439.5 410.5 433.007812 410.5 425 C 410.5 416.992188 416.992188 410.5 425 410.5 C 433.007812 410.5 439.5 416.992188 439.5 425 "/>
<path style=" stroke:none;fill-rule:nonzero;fill:rgb(47.2%,0.8%,40.4%);fill-opacity:1;" d="M 485 425 C 485 430.523438 480.523438 435 475 435 C 469.476562 435 465 430.523438 465 425 C 465 419.476562 469.476562 415 475 415 C 480.523438 415 485 419.476562 485 425 "/>
<path style=" stroke:none;fill-rule:nonzero;fill:rgb(38.1%,26.7%,53.9%);fill-opacity:1;" d="M 482 475 C 482 478.867188 478.867188 482 475 482 C 471.132812 482 468 478.867188 468 475 C 468 471.132812 471.132812 468 475 468 C 478.867188 468 482 471.132812 482 475 "/>
<path style=" stroke:none;fill-rule:nonzero;fill:rgb(99.5%,96.3%,44.7%);fill-opacity:1;" d="M 436 475 C 436 481.074219 431.074219 486 425 486 C 418.925781 486 414 481.074219 414 475 C 414 468.925781 418.925781 464 425 464 C 431.074219 464 436 468.925781 436 475 "/>
<path style=" stroke:none;fill-rule:nonzero;fill:rgb(0.3%,66.9%,6.1%);fill-opacity:1;" d="M 382 475 C 382 478.867188 378.867188 482 375 482 C 371.132812 482 368 478.867188 368 475 C 368 471.132812 371.132812 468 375 468 C 378.867188 468 382 471.132812 382 475 "/>
<path style=" stroke:none;fill-rule:nonzero;fill:rgb(4.6%,16.1%,4.3%);fill-opacity:1;" d="M 346 475 C 346 486.597656 336.597656 496 325 496 C 313.402344 496 304 486.597656 304 475 C 304 463.402344 313.402344 454 325 454 C 336.597656 454 346 463.402344 346 475 "/>
<path style=" stroke:none;fill-rule:nonzero;fill:rgb(60.5%,99.5%,69.5%);fill-opacity:1;" d="M 286.5 475 C 286.5 481.351562 281.351562 486.5 275 486.5 C 268.648438 486.5 263.5 481.351562 263.5 475 C 263.5 468.648438 268.648438 463.5 275 463.5 C 281.351562 463.5 286.5 468.648438 286.5 475 "/>
<path style=" stroke:none;fill-rule:nonzero;fill:rgb(28.4%,11%,82.9%);fill-opacity:1;" d="M 240 475 C 240 483.285156 233.285156 490 225 490 C 216.714844 490 210 483.285156 210 475 C 210 466.714844 216.714844 460 225 460 C 233.285156 460 240 466.714844 240 475 "/>
<path style=" stroke:none;fill-rule:nonzero;fill:rgb(40.1%,14%,97.1%);fill-opacity:1;" d="M 194.5 475 C 194.5 485.769531 185.769531 494.5 175 494.5 C 164.230469 494.5 155.5 485.769531 155.5 475 C 155.5 464.230469 164.230469 455.5 175 455.5 C 185.769531 455.5 194.5 464.230469 194.5 475 "/>
<path style=" stroke:none;fill-rule:nonzero;fill:rgb(41.7%,41.9%,90.9%);fill-opacity:1;" d="M 143 475 C 143 484.941406 134.941406 493 125 493 C 115.058594 493 107 484.941406 107 475 C 107 465.058594 115.058594 457 125 457 C 134.941406 457 143 465.058594 143 475 "/>
<path style=" stroke:none;fill-rule:nonzero;fill:rgb(33.6%,81.7%,17.2%);fill-opacity:1;" d="M 92.5 475 C 92.5 484.664062 84.664062 492.5 75 492.5 C 65.335938 492.5 57.5 484.664062 57.5 475 C 57.5 465.335938 65.335938 457.5 75 457.5 C 84.664062 457.5 92.5 465.335938 92.5 475 "/>
<path style=" stroke:none;fill-rule:nonzero;fill:rgb(10.5%,74.2%,14.9%);fill-opacity:1;" d="M 35.5 475 C 35.5 480.800781 30.800781 485.5 25 485.5 C 19.199219 485.5 14.5 480.800781 14.5 475 C 14.5 469.199219 19.199219 464.5 25 464.5 C 30.800781 464.5 35.5 469.199219 35.5 475 "/>
<path style="fill:none;stroke-width:0.01;stroke-linecap:butt;stroke-linejoin:miter;stroke:rgb(90.9%,16.3%,92%);stroke-opacity:1;stroke-miterlimit:10;" d="M 0.05 0.05 C 0.15 0.05 0.25 0.05 0.35 0.05 " transform="matrix(500,0,0,500,0,0)"/>
<path style="fill:none;stroke-width:0.01;stroke-linecap:butt;stroke-linejoin:miter;stroke:rgb(4.2%,11.4%,0.6%);stroke-opacity:1;stroke-miterlimit:10;" d="M 0.35 0.05 C 0.45 0.05 0.55 0.05 0.65 0.05 " transform="matrix(500,0,0,500,0,0)"/>
<path style="fill:none;stroke-width:0.01;stroke-linecap:butt;stroke-linejoin:miter;stroke:rgb(55.1%,9.6%,90.3%);stroke-opacity:1;stroke-miterlimit:10;" d="M 0.65 0.05 C 0.75 0.05 0.85 0.05 0.95 0.05 " transform="matrix(500,0,0,500,0,0)"/>
<path style="fill:none;stroke-width:0.01;stroke-linecap:butt;stroke-linejoin:miter;stroke:rgb(4.7%,39%,33.8%);stroke-opacity:1;stroke-miterlimit:10;" d="M 0.95 0.05 C 0.95 0.15 0.85 0.15 0.75 0.15 " transform="matrix(500,0,0,500,0,0)"/>
<path style="fill:none;stroke-width:0.01;stroke-linecap:butt;stroke-linejoin:miter;stroke:rgb(53.8%,73.9%,54.2%);stroke-opacity:1;stroke-miterlimit:10;" d="M 0.75 0.15 C 0.65 0.15 0.55 0.15 0.45 0.15 " transform="matrix(500,0,0,500,0,0)"/>
<path style="fill:none;stroke-width:0.01;stroke-linecap:butt;stroke-linejoin:miter;stroke:rgb(37.7%,95.5%,53.8%);stroke-opacity:1;stroke-miterlimit:10;" d="M 0.45 0.15 C 0.35 0.15 0.25 0.15 0.15 0.15 " transform="matrix(500,0,0,500,0,0)"/>
<path style="fill:none;stroke-width:0.01;stroke-linecap:butt;stroke-linejoin:miter;stroke:rgb(19.3%,84.2%,76.1%);stroke-opacity:1;stroke-miterlimit:10;" d="M 0.15 0.15 C 0.05 0.15 0.05 0.25 0.15 0.25 " transform="matrix(500,0,0,500,0,0)"/>
<path style="fill:none;stroke-width:0.01;stroke-linecap:butt;stroke-linejoin:miter;stroke:rgb(66%,73.1%,61%);stroke-opacity:1;stroke-miterlimit:10;" d="M 0.15 0.25 C 0.25 0.25 0.35 0.25 0.45 0.25 " transform="matrix(500,0,0,500,0,0)"/>
<path style="fill:none;stroke-width:0.01;stroke-linecap:butt;stroke-linejoin:miter;stroke:rgb(95.3%,11.5%,38.2%);stroke-opacity:1;stroke-miterlimit:10;" d="M 0.45 0.25 C 0.55 0.25 0.65 0.25 0.75 0.25 " transform="matrix(500,0,0,500,0,0)"/>
<path style="fill:none;stroke-width:0.01;stroke-linecap:butt;stroke-linejoin:miter;stroke:rgb(19.3%,24.2%,85.8%);stroke-opacity:1;stroke-miterlimit:10;" d="M 0.75 0.25 C 0.85 0.25 0.95 0.25 0.95 0.35 " transform="matrix(500,0,0,500,0,0)"/>
<path style="fill:none;stroke-width:0.01;stroke-linecap:butt;stroke-linejoin:miter;stroke:rgb(1.1%,13.8%,48.7%);stroke-opacity:1;stroke-miterlimit:10;" d="M 0.95 0.35 C 0.85 0.35 0.75 0.35 0.65 0.35 " transform="matrix(500,0,0,500,0,0)"/>
<path style="fill:none;stroke-width:0.01;stroke-linecap:butt;stroke-linejoin:miter;stroke:rgb(15.6%,69.7%,47.1%);stroke-opacity:1;stroke-miterlimit:10;" d="M 0.65 0.35 C 0.55 0.35 0.45 0.35 0.35 0.35 " transform="matrix(500,0,0,500,0,0)"/>
<path style="fill:none;stroke-width:0.01;stroke-linecap:butt;stroke-linejoin:miter;stroke:rgb(46.7%,13.2%,62.1%);stroke-opacity:1;stroke-miterlimit:10;" d="M 0.35 0.35 C 0.25 0.35 0.15 0.35 0.05 0.35 " transform="matrix(500,0,0,500,0,0)"/>
<path style="fill:none;stroke-width:0.01;stroke-linecap:butt;stroke-linejoin:miter;stroke:rgb(26.3%,72.7%,5.8%);stroke-opacity:1;stroke-miterlimit:10;" d="M 0.05 0.35 C 0.05 0.45 0.15 0.45 0.25 0.45 " transform="matrix(500,0,0,500,0,0)"/>
<path style="fill:none;stroke-width:0.01;stroke-linecap:butt;stroke-linejoin:miter;stroke:rgb(62.5%,22.5%,41.8%);stroke-opacity:1;stroke-miterlimit:10;" d="M 0.25 0.45 C 0.35 0.45 0.45 0.45 0.55 0.45 " transform="matrix(500,0,0,500,0,0)"/>
<path style="fill:none;stroke-width:0.01;stroke-linecap:butt;stroke-linejoin:miter;stroke:rgb(88.6%,47.2%,22%);stroke-opacity:1;stroke-miterlimit:10;" d="M 0.55 0.45 C 0.65 0.45 0.75 0.45 0.85 0.45 " transform="matrix(500,0,0,500,0,0)"/>
<path style="fill:none;stroke-width:0.01;stroke-linecap:butt;stroke-linejoin:miter;stroke:rgb(17.6%,93.1%,63%);stroke-opacity:1;stroke-miterlimit:10;" d="M 0.85 0.45 C 0.95 0.45 0.95 0.55 0.85 0.55 " transform="matrix(500,0,0,500,0,0)"/>
<path style="fill:none;stroke-width:0.01;stroke-linecap:butt;stroke-linejoin:miter;stroke:rgb(46.2%,94.4%,35.9%);stroke-opacity:1;stroke-miterlimit:10;" d="M 0.85 0.55 C 0.75 0.55 0.65 0.55 0.55 0.55 " transform="matrix(500,0,0,500,0,0)"/>
<path style="fill:none;stroke-width:0.01;stroke-linecap:butt;stroke-linejoin:miter;stroke:rgb(39.2%,68%,21.1%);stroke-opacity:1;stroke-miterlimit:10;" d="M 0.55 0.55 C 0.45 0.55 0.35 0.55 0.25 0.55 " transform="matrix(500,0,0,500,0,0)"/>
<path style="fill:none;stroke-width:0.01;stroke-linecap:butt;stroke-linejoin:miter;stroke:rgb(65.8%,9.8%,54.2%);stroke-opacity:1;stroke-miterlimit:10;" d="M 0.25 0.55 C 0.15 0.55 0.05 0.55 0.05 0.65 " transform="matrix(500,0,0,500,0,0)"/>
<path style="fill:none;stroke-width:0.01;stroke-linecap:butt;stroke-linejoin:miter;stroke:rgb(93.6%,86.7%,88.2%);stroke-opacity:1;stroke-miterlimit:10;" d="M 0.05 0.65 C 0.15 0.65 0.25 0.65 0.35 0.65 " transform="matrix(500,0,0,500,0,0)"/>
<path style="fill:none;stroke-width:0.01;stroke-linecap:butt;stroke-linejoin:miter;stroke:rgb(10.9%,34.8%,29.6%);stroke-opacity:1;stroke-miterlimit:10;" d="M 0.35 0.65 C 0.45 0.65 0.55 0.65 0.65 0.65 " transform="matrix(500,0,0,500,0,0)"/>
<path style="fill:none;stroke-width:0.01;stroke-linecap:butt;stroke-linejoin:miter;stroke:rgb(64.1%,98.5%,100%);stroke-opacity:1;stroke-miterlimit:10;" d="M 0.65 0.65 C 0.75 0.65 0.85 0.65 0.95 0.65 " transform="matrix(500,0,0,500,0,0)"/>
<path style="fill:none;stroke-width:0.01;stroke-linecap:butt;stroke-linejoin:miter;stroke:rgb(33.5%,6.4%,66.4%);stroke-opacity:1;stroke-miterlimit:10;" d="M 0.95 0.65 C 0.95 0.75 0.85 0.75 0.75 0.75 " transform="matrix(500,0,0,500,0,0)"/>
<path style="fill:none;stroke-width:0.01;stroke-linecap:butt;stroke-linejoin:miter;stroke:rgb(62.1%,55.3%,75.8%);stroke-opacity:1;stroke-miterlimit:10;" d="M 0.75 0.75 C 0.65 0.75 0.55 0.75 0.45 0.75 " transform="matrix(500,0,0,500,0,0)"/>
<path style="fill:none;stroke-width:0.01;stroke-linecap:butt;stroke-linejoin:miter;stroke:rgb(45.3%,58%,89.4%);stroke-opacity:1;stroke-miterlimit:10;" d="M 0.45 0.75 C 0.35 0.75 0.25 0.75 0.15 0.75 " transform="matrix(500,0,0,500,0,0)"/>
<path style="fill:none;stroke-width:0.01;stroke-linecap:butt;stroke-linejoin:miter;stroke:rgb(91.3%,24.7%,26.4%);stroke-opacity:1;stroke-miterlimit:10;" d="M 0.15 0.75 C 0.05 0.75 0.05 0.85 0.15 0.85 " transform="matrix(500,0,0,500,0,0)"/>
<path style="fill:none;stroke-width:0.01;stroke-linecap:butt;stroke-linejoin:miter;stroke:rgb(67%,77.3%,24.6%);stroke-opacity:1;stroke-miterlimit:10;" d="M 0.15 0.85 C 0.25 0.85 0.35 0.85 0.45 0.85 " transform="matrix(500,0,0,500,0,0)"/>
<path style="fill:none;stroke-width:0.01;stroke-linecap:butt;stroke-linejoin:miter;stroke:rgb(42.4%,98.3%,60.2%);stroke-opacity:1;stroke-miterlimit:10;" d="M 0.45 0.85 C 0.55 0.85 0.65 0.85 0.75 0.85 " transform="matrix(500,0,0,500,0,0)"/>
<path style="fill:none;stroke-width:0.01;stroke-linecap:butt;stroke-linejoin:miter;stroke:rgb(5.1%,16.3%,15.9%);stroke-opacity:1;stroke-miterlimit:10;" d="M 0.75 0.85 C 0.85 0.85 0.95 0.85 0.95 0.95 " transform="matrix(500,0,0,500,0,0)"/>
<path style="fill:none;stroke-width:0.01;stroke-linecap:butt;stroke-linejoin:miter;stroke:rgb(33.6%,98.7%,96.1%);stroke-opacity:1;stroke-miterlimit:10;" d="M 0.95 0.95 C 0.85 0.95 0.75 0.95 0.65 0.95 " transform="matrix(500,0,0,500,0,0)"/>
<path style="fill:none;stroke-width:0.01;stroke-linecap:butt;stroke-linejoin:miter;stroke:rgb(94.8%,20.8%,79.1%);stroke-opacity:1;stroke-miterlimit:10;" d="M 0.65 0.95 C 0.55 0.95 0.45 0.95 0.35 0.95 " transform="matrix(500,0,0,500,0,0)"/>
<path style="fill:none;stroke-width:0.01;stroke-linecap:butt;stroke-linejoin:miter;stroke:rgb(9%,95.2%,52.3%);stroke-opacity:1;stroke-miterlimit:10;" d="M 0.35 0.95 C 0.25 0.95 0.15 0.95 0.05 0.95 " transform="matrix(500,0,0,500,0,0)"/>
<path style=" stroke:none;fill-rule:nonzero;fill:rgb(26.4%,96.5%,35.4%);fill-opacity:0.5;" d="M 97 72 L 42 59.5 L 18.5 -7.5 L 97 72 "/>
<path style=" stroke:none;fill-rule:nonzero;fill:rgb(90.1%,80.3%,65.8%);fill-opacity:0.5;" d="M 161 38 L 100.5 62.5 L 109.5 116 L 161 38 "/>
<path style=" stroke:none;fill-rule:nonzero;fill:rgb(18.2%,96.4%,70%);fill-opacity:0.5;" d="M 210.5 90 L 273.5 102.5 L 273 41 L 210.5 90 "/>
<path style=" stroke:none;fill-rule:nonzero;fill:rgb(12.1%,9.9%,70.5%);fill-opacity:0.5;" d="M 368 84 L 313.5 89.5 L 337.5 25.5 L 368 84 "/>
<path style=" stroke:none;fill-rule:nonzero;fill:rgb(29.5%,87.1%,22.2%);fill-opacity:0.5;" d="M 423.5 45.5 L 485 60.5 L 480 122.5 L 423.5 45.5 "/>
<path style=" stroke:none;fill-rule:nonzero;fill:rgb(58.2%,52%,29.6%);fill-opacity:0.5;" d="M 435.5 128.5 L 507 122 L 502.5 187.5 L 435.5 128.5 "/>
<path style=" stroke:none;fill-rule:nonzero;fill:rgb(88.1%,12%,16.5%);fill-opacity:0.5;" d="M 357.5 126 L 295 120 L 314.5 191.5 L 357.5 126 "/>
<path style=" stroke:none;fill-rule:nonzero;fill:rgb(41.4%,90.5%,58.2%);fill-opacity:0.5;" d="M 242.5 199.5 L 298 183 L 287.5 119.5 L 242.5 199.5 "/>
<path style=" stroke:none;fill-rule:nonzero;fill:rgb(43.4%,46.3%,57%);fill-opacity:0.5;" d="M 192.5 188 L 121.5 203.5 L 113.5 138.5 L 192.5 188 "/>
<path style=" stroke:none;fill-rule:nonzero;fill:rgb(90.4%,50.2%,31.8%);fill-opacity:0.5;" d="M 21 174 L 93 149.5 L 98.5 89.5 L 21 174 "/>
<path style=" stroke:none;fill-rule:nonzero;fill:rgb(33.5%,70.2%,43.3%);fill-opacity:0.5;" d="M 89.5 294.5 L 22.5 293 L 6.5 221 L 89.5 294.5 "/>
<path style=" stroke:none;fill-rule:nonzero;fill:rgb(94.3%,47.7%,19.6%);fill-opacity:0.5;" d="M 125 250 L 181 227 L 201 281.5 L 125 250 "/>
<path style=" stroke:none;fill-rule:nonzero;fill:rgb(94.1%,37%,41.2%);fill-opacity:0.5;" d="M 209.5 226.5 L 271 216 L 246.5 266.5 L 209.5 226.5 "/>
<path style=" stroke:none;fill-rule:nonzero;fill:rgb(55.8%,57.4%,11%);fill-opacity:0.5;" d="M 333 270.5 L 388.5 258.5 L 388 184 L 333 270.5 "/>
<path style=" stroke:none;fill-rule:nonzero;fill:rgb(46.4%,14.9%,19.2%);fill-opacity:0.5;" d="M 410.5 275.5 L 481 297 L 460 245 L 410.5 275.5 "/>
<path style=" stroke:none;fill-rule:nonzero;fill:rgb(38.7%,36.4%,72.4%);fill-opacity:0.5;" d="M 442 349 L 508 336 L 525 406 L 442 349 "/>
<path style=" stroke:none;fill-rule:nonzero;fill:rgb(11.9%,18.7%,1%);fill-opacity:0.5;" d="M 374.5 396.5 L 322 392 L 301.5 318.5 L 374.5 396.5 "/>
<path style=" stroke:none;fill-rule:nonzero;fill:rgb(34.5%,67.9%,25.3%);fill-opacity:0.5;" d="M 245 341 L 314 354.5 L 321 426 L 245 341 "/>
<path style=" stroke:none;fill-rule:nonzero;fill:rgb(96.2%,73.8%,17.2%);fill-opacity:0.5;" d="M 151.5 347 L 94 356.5 L 117.5 410 L 151.5 347 "/>
<path style=" stroke:none;fill-rule:nonzero;fill:rgb(41.4%,59.8%,93%);fill-opacity:0.5;" d="M 56 379.5 L -6 364 L 17 294 L 56 379.5 "/>
<path style=" stroke:none;fill-rule:nonzero;fill:rgb(69.4%,66.9%,71.8%);fill-opacity:0.5;" d="M 21.5 418 L 73.5 395.5 L 52 446 L 21.5 418 "/>
<path style=" stroke:none;fill-rule:nonzero;fill:rgb(53.4%,17%,82%);fill-opacity:0.5;" d="M 158 482.5 L 89 493 L 65.5 440 L 158 482.5 "/>
<path style=" stroke:none;fill-rule:nonzero;fill:rgb(48.5%,67.9%,40.5%);fill-opacity:0.5;" d="M 245 482.5 L 310.5 484 L 329 410 L 245 482.5 "/>
<path style=" stroke:none;fill-rule:nonzero;fill:rgb(57.5%,4.7%,80.2%);fill-opacity:0.5;" d="M 307.5 483 L 357.5 482.5 L 354 430.5 L 307.5 483 "/>
<path style=" stroke:none;fill-rule:nonzero;fill:rgb(20%,31.7%,44.4%);fill-opacity:0.5;" d="M 472 498.5 L 412.5 490.5 L 400 435.5 L 472 498.5 "/>
<path style="fill:none;stroke-width:0.002;stroke-linecap:butt;stroke-linejoin:miter;stroke:rgb(56.1%,52%,30.8%);stroke-opacity:1;stroke-miterlimit:10;" d="M 0.338 0.46 L 0.809 0.603 " transform="matrix(500,0,0,500,0,0)"/>
<path style="fill:none;stroke-width:0.002;stroke-linecap:butt;stroke-linejoin:miter;stroke:rgb(43.9%,87.8%,14.4%);stroke-opacity:1;stroke-miterlimit:10;" d="M 0.908 0.197 L 0.966 0.192 " transform="matrix(500,0,0,500,0,0)"/>
<path style="fill:none;stroke-width:0.002;stroke-linecap:butt;stroke-linejoin:miter;stroke:rgb(4.2%,11.8%,86.4%);stroke-opacity:1;stroke-miterlimit:10;" d="M 0.565 0.339 L 0.752 0.607 " transform="matrix(500,0,0,500,0,0)"/>
<path style="fill:none;stroke-width:0.002;stroke-linecap:butt;stroke-linejoin:miter;stroke:rgb(30.9%,73.8%,33.5%);stroke-opacity:1;stroke-miterlimit:10;" d="M 0.044 0.389 L 0.995 0.837 " transform="matrix(500,0,0,500,0,0)"/>
<path style="fill:none;stroke-width:0.002;stroke-linecap:butt;stroke-linejoin:miter;stroke:rgb(62.4%,79.9%,82.7%);stroke-opacity:1;stroke-miterlimit:10;" d="M 0.496 0.009 L 0.521 0.772 " transform="matrix(500,0,0,500,0,0)"/>
<path style="fill:none;stroke-width:0.002;stroke-linecap:butt;stroke-linejoin:miter;stroke:rgb(24.5%,94.1%,57.3%);stroke-opacity:1;stroke-miterlimit:10;" d="M 0.29 0.472 L 0.079 0.89 " transform="matrix(500,0,0,500,0,0)"/>
<path style="fill:none;stroke-width:0.002;stroke-linecap:butt;stroke-linejoin:miter;stroke:rgb(0.3%,25%,36.3%);stroke-opacity:1;stroke-miterlimit:10;" d="M 0.4 0.915 L 0.672 0.542 " transform="matrix(500,0,0,500,0,0)"/>
<path style="fill:none;stroke-width:0.002;stroke-linecap:butt;stroke-linejoin:miter;stroke:rgb(54.7%,74.2%,70.9%);stroke-opacity:1;stroke-miterlimit:10;" d="M 0.961 0.975 L 0.041 0.547 " transform="matrix(500,0,0,500,0,0)"/>
<path style="fill:none;stroke-width:0.002;stroke-linecap:butt;stroke-linejoin:miter;stroke:rgb(26.4%,69.3%,64.4%);stroke-opacity:1;stroke-miterlimit:10;" d="M 0.14 0.159 L 0.699 0.408 " transform="matrix(500,0,0,500,0,0)"/>
<path style="fill:none;stroke-width:0.002;stroke-linecap:butt;stroke-linejoin:miter;stroke:rgb(94.1%,95.7%,16%);stroke-opacity:1;stroke-miterlimit:10;" d="M 0.473 0.504 L 0.118 0.981 " transform="matrix(500,0,0,500,0,0)"/>
</g>
</defs>
<g id="surface224">
<use xlink:href="#surface227"/>
</g>
</svg>
