<?xml version="1.0" encoding="UTF-8"?>
<svg xmlns="http://www.w3.org/2000/svg" xmlns:xlink="http://www.w3.org/1999/xlink" width="500pt" height="500pt" viewBox="0 0 500 500" version="1.1">
<defs>
<linearGradient id="linear0" gradientUnits="userSpaceOnUse" x1="0" y1="0.5" x2="1" y2="0.5" gradientTransform="matrix(500,0,0,500,0,0)">
<stop offset="0.4" style="stop-color:rgb(99%,90.5%,5.7%);stop-opacity:1;"/>
<stop offset="0.8" style="stop-color:rgb(94.2%,94.2%,61.4%);stop-opacity:1;"/>
</linearGradient>
<clipPath id="clip1">
  <rect x="0" y="0" width="500" height="500"/>
</clipPath>
<g id="surface348" clip-path="url(#clip1)">
<rect x="0" y="0" width="500" height="500" style="fill:url(#linear0);stroke:none;"/>
<path style=" stroke:none;fill-rule:nonzero;fill:rgb(21.7%,85%,6%);fill-opacity:1;" d="M 34 25 C 34 29.96875 29.96875 34 25 34 C 20.03125 34 16 29.96875 16 25 C 16 20.03125 20.03125 16 25 16 C 29.96875 16 34 20.03125 34 25 "/>
<path style=" stroke:none;fill-rule:nonzero;fill:rgb(62%,73.7%,92.3%);fill-opacity:1;" d="M 95.5 25 C 95.5 36.320312 86.320312 45.5 75 45.5 C 63.679688 45.5 54.5 36.320312 54.5 25 C 54.5 13.679688 63.679688 4.5 75 4.5 C 86.320312 4.5 95.5 13.679688 95.5 25 "/>
<path style=" stroke:none;fill-rule:nonzero;fill:rgb(14.6%,16.2%,56.7%);fill-opacity:1;" d="M 142.5 25 C 142.5 34.664062 134.664062 42.5 125 42.5 C 115.335938 42.5 107.5 34.664062 107.5 25 C 107.5 15.335938 115.335938 7.5 125 7.5 C 134.664062 7.5 142.5 15.335938 142.5 25 "/>
<path style=" stroke:none;fill-rule:nonzero;fill:rgb(8.2%,11.2%,18.2%);fill-opacity:1;" d="M 200 25 C 200 38.808594 188.808594 50 175 50 C 161.191406 50 150 38.808594 150 25 C 150 11.191406 161.191406 0 175 0 C 188.808594 0 200 11.191406 200 25 "/>
<path style=" stroke:none;fill-rule:nonzero;fill:rgb(77.9%,37.7%,97.3%);fill-opacity:1;" d="M 234.5 25 C 234.5 30.246094 230.246094 34.5 225 34.5 C 219.753906 34.5 215.5 30.246094 215.5 25 C 215.5 19.753906 219.753906 15.5 225 15.5 C 230.246094 15.5 234.5 19.753906 234.5 25 "/>
<path style=" stroke:none;fill-rule:nonzero;fill:rgb(55.1%,76.7%,79.1%);fill-opacity:1;" d="M 280.5 25 C 280.5 28.039062 278.039062 30.5 275 30.5 C 271.960938 30.5 269.5 28.039062 269.5 25 C 269.5 21.960938 271.960938 19.5 275 19.5 C 278.039062 19.5 280.5 21.960938 280.5 25 "/>
<path style=" stroke:none;fill-rule:nonzero;fill:rgb(25.9%,66%,2.4%);fill-opacity:1;" d="M 348.5 25 C 348.5 37.980469 337.980469 48.5 325 48.5 C 312.019531 48.5 301.5 37.980469 301.5 25 C 301.5 12.019531 312.019531 1.5 325 1.5 C 337.980469 1.5 348.5 12.019531 348.5 25 "/>
<path style=" stroke:none;fill-rule:nonzero;fill:rgb(59%,63.8%,7.8%);fill-opacity:1;" d="M 389 25 C 389 32.730469 382.730469 39 375 39 C 367.269531 39 361 32.730469 361 25 C 361 17.269531 367.269531 11 375 11 C 382.730469 11 389 17.269531 389 25 "/>
<path style=" stroke:none;fill-rule:nonzero;fill:rgb(58.2%,78.3%,84.1%);fill-opacity:1;" d="M 431 25 C 431 28.3125 428.3125 31 425 31 C 421.6875 31 419 28.3125 419 25 C 419 21.6875 421.6875 19 425 19 C 428.3125 19 431 21.6875 431 25 "/>
<path style=" stroke:none;fill-rule:nonzero;fill:rgb(74.7%,94.6%,16.4%);fill-opacity:1;" d="M 480.5 25 C 480.5 28.039062 478.039062 30.5 475 30.5 C 471.960938 30.5 469.5 28.039062 469.5 25 C 469.5 21.960938 471.960938 19.5 475 19.5 C 478.039062 19.5 480.5 21.960938 480.5 25 "/>
<path style=" stroke:none;fill-rule:nonzero;fill:rgb(80.4%,90.5%,47.3%);fill-opacity:1;" d="M 487.5 75 C 487.5 81.902344 481.902344 87.5 475 87.5 C 468.097656 87.5 462.5 81.902344 462.5 75 C 462.5 68.097656 468.097656 62.5 475 62.5 C 481.902344 62.5 487.5 68.097656 487.5 75 "/>
<path style=" stroke:none;fill-rule:nonzero;fill:rgb(91.9%,44.9%,70.2%);fill-opacity:1;" d="M 450 75 C 450 88.808594 438.808594 100 425 100 C 411.191406 100 400 88.808594 400 75 C 400 61.191406 411.191406 50 425 50 C 438.808594 50 450 61.191406 450 75 "/>
<path style=" stroke:none;fill-rule:nonzero;fill:rgb(63.5%,28.3%,78.1%);fill-opacity:1;" d="M 384.5 75 C 384.5 80.246094 380.246094 84.5 375 84.5 C 369.753906 84.5 365.5 80.246094 365.5 75 C 365.5 69.753906 369.753906 65.5 375 65.5 C 380.246094 65.5 384.5 69.753906 384.5 75 "/>
<path style=" stroke:none;fill-rule:nonzero;fill:rgb(73.1%,23.8%,49.2%);fill-opacity:1;" d="M 347 75 C 347 87.148438 337.148438 97 325 97 C 312.851562 97 303 87.148438 303 75 C 303 62.851562 312.851562 53 325 53 C 337.148438 53 347 62.851562 347 75 "/>
<path style=" stroke:none;fill-rule:nonzero;fill:rgb(4.5%,65.2%,8%);fill-opacity:1;" d="M 299.5 75 C 299.5 88.53125 288.53125 99.5 275 99.5 C 261.46875 99.5 250.5 88.53125 250.5 75 C 250.5 61.46875 261.46875 50.5 275 50.5 C 288.53125 50.5 299.5 61.46875 299.5 75 "/>
<path style=" stroke:none;fill-rule:nonzero;fill:rgb(79.2%,52%,11.3%);fill-opacity:1;" d="M 239 75 C 239 82.730469 232.730469 89 225 89 C 217.269531 89 211 82.730469 211 75 C 211 67.269531 217.269531 61 225 61 C 232.730469 61 239 67.269531 239 75 "/>
<path style=" stroke:none;fill-rule:nonzero;fill:rgb(59.9%,67.5%,66.3%);fill-opacity:1;" d="M 186.5 75 C 186.5 81.351562 181.351562 86.5 175 86.5 C 168.648438 86.5 163.5 81.351562 163.5 75 C 163.5 68.648438 168.648438 63.5 175 63.5 C 181.351562 63.5 186.5 68.648438 186.5 75 "/>
<path style=" stroke:none;fill-rule:nonzero;fill:rgb(20.8%,8.6%,87.5%);fill-opacity:1;" d="M 132 75 C 132 78.867188 128.867188 82 125 82 C 121.132812 82 118 78.867188 118 75 C 118 71.132812 121.132812 68 125 68 C 128.867188 68 132 71.132812 132 75 "/>
<path style=" stroke:none;fill-rule:nonzero;fill:rgb(60.1%,62.3%,67.5%);fill-opacity:1;" d="M 86.5 75 C 86.5 81.351562 81.351562 86.5 75 86.5 C 68.648438 86.5 63.5 81.351562 63.5 75 C 63.5 68.648438 68.648438 63.5 75 63.5 C 81.351562 63.5 86.5 68.648438 86.5 75 "/>
<path style=" stroke:none;fill-rule:nonzero;fill:rgb(61%,79.6%,48.6%);fill-opacity:1;" d="M 31 75 C 31 78.3125 28.3125 81 25 81 C 21.6875 81 19 78.3125 19 75 C 19 71.6875 21.6875 69 25 69 C 28.3125 69 31 71.6875 31 75 "/>
<path style=" stroke:none;fill-rule:nonzero;fill:rgb(60.6%,76.1%,19%);fill-opacity:1;" d="M 40.5 125 C 40.5 133.558594 33.558594 140.5 25 140.5 C 16.441406 140.5 9.5 133.558594 9.5 125 C 9.5 116.441406 16.441406 109.5 25 109.5 C 33.558594 109.5 40.5 116.441406 40.5 125 "/>
<path style=" stroke:none;fill-rule:nonzero;fill:rgb(27%,82.2%,79.2%);fill-opacity:1;" d="M 83.5 125 C 83.5 129.695312 79.695312 133.5 75 133.5 C 70.304688 133.5 66.5 129.695312 66.5 125 C 66.5 120.304688 70.304688 116.5 75 116.5 C 79.695312 116.5 83.5 120.304688 83.5 125 "/>
<path style=" stroke:none;fill-rule:nonzero;fill:rgb(65.5%,19.1%,39.3%);fill-opacity:1;" d="M 132 125 C 132 128.867188 128.867188 132 125 132 C 121.132812 132 118 128.867188 118 125 C 118 121.132812 121.132812 118 125 118 C 128.867188 118 132 121.132812 132 125 "/>
<path style=" stroke:none;fill-rule:nonzero;fill:rgb(44.5%,49.1%,10.2%);fill-opacity:1;" d="M 194 125 C 194 135.492188 185.492188 144 175 144 C 164.507812 144 156 135.492188 156 125 C 156 114.507812 164.507812 106 175 106 C 185.492188 106 194 114.507812 194 125 "/>
<path style=" stroke:none;fill-rule:nonzero;fill:rgb(69.1%,33.1%,14.8%);fill-opacity:1;" d="M 237.5 125 C 237.5 131.902344 231.902344 137.5 225 137.5 C 218.097656 137.5 212.5 131.902344 212.5 125 C 212.5 118.097656 218.097656 112.5 225 112.5 C 231.902344 112.5 237.5 118.097656 237.5 125 "/>
<path style=" stroke:none;fill-rule:nonzero;fill:rgb(39%,59.6%,45.2%);fill-opacity:1;" d="M 287 125 C 287 131.628906 281.628906 137 275 137 C 268.371094 137 263 131.628906 263 125 C 263 118.371094 268.371094 113 275 113 C 281.628906 113 287 118.371094 287 125 "/>
<path style=" stroke:none;fill-rule:nonzero;fill:rgb(70.7%,18.6%,59%);fill-opacity:1;" d="M 342.5 125 C 342.5 134.664062 334.664062 142.5 325 142.5 C 315.335938 142.5 307.5 134.664062 307.5 125 C 307.5 115.335938 315.335938 107.5 325 107.5 C 334.664062 107.5 342.5 115.335938 342.5 125 "/>
<path style=" stroke:none;fill-rule:nonzero;fill:rgb(44.4%,74.4%,38.7%);fill-opacity:1;" d="M 400 125 C 400 138.808594 388.808594 150 375 150 C 361.191406 150 350 138.808594 350 125 C 350 111.191406 361.191406 100 375 100 C 388.808594 100 400 111.191406 400 125 "/>
<path style=" stroke:none;fill-rule:nonzero;fill:rgb(63.3%,62.5%,11.9%);fill-opacity:1;" d="M 436 125 C 436 131.074219 431.074219 136 425 136 C 418.925781 136 414 131.074219 414 125 C 414 118.925781 418.925781 114 425 114 C 431.074219 114 436 118.925781 436 125 "/>
<path style=" stroke:none;fill-rule:nonzero;fill:rgb(13.1%,15.5%,5.8%);fill-opacity:1;" d="M 500 125 C 500 138.808594 488.808594 150 475 150 C 461.191406 150 450 138.808594 450 125 C 450 111.191406 461.191406 100 475 100 C 488.808594 100 500 111.191406 500 125 "/>
<path style=" stroke:none;fill-rule:nonzero;fill:rgb(30.9%,63.4%,74.5%);fill-opacity:1;" d="M 491 175 C 491 183.835938 483.835938 191 475 191 C 466.164062 191 459 183.835938 459 175 C 459 166.164062 466.164062 159 475 159 C 483.835938 159 491 166.164062 491 175 "/>
<path style=" stroke:none;fill-rule:nonzero;fill:rgb(54.5%,56.1%,90.6%);fill-opacity:1;" d="M 444.5 175 C 444.5 185.769531 435.769531 194.5 425 194.5 C 414.230469 194.5 405.5 185.769531 405.5 175 C 405.5 164.230469 414.230469 155.5 425 155.5 C 435.769531 155.5 444.5 164.230469 444.5 175 "/>
<path style=" stroke:none;fill-rule:nonzero;fill:rgb(58.2%,62.3%,74.2%);fill-opacity:1;" d="M 387.5 175 C 387.5 181.902344 381.902344 187.5 375 187.5 C 368.097656 187.5 362.5 181.902344 362.5 175 C 362.5 168.097656 368.097656 162.5 375 162.5 C 381.902344 162.5 387.5 168.097656 387.5 175 "/>
<path style=" stroke:none;fill-rule:nonzero;fill:rgb(7.8%,46%,71.2%);fill-opacity:1;" d="M 339.5 175 C 339.5 183.007812 333.007812 189.5 325 189.5 C 316.992188 189.5 310.5 183.007812 310.5 175 C 310.5 166.992188 316.992188 160.5 325 160.5 C 333.007812 160.5 339.5 166.992188 339.5 175 "/>
<path style=" stroke:none;fill-rule:nonzero;fill:rgb(30.8%,4.8%,12%);fill-opacity:1;" d="M 289.5 175 C 289.5 183.007812 283.007812 189.5 275 189.5 C 266.992188 189.5 260.5 183.007812 260.5 175 C 260.5 166.992188 266.992188 160.5 275 160.5 C 283.007812 160.5 289.5 166.992188 289.5 175 "/>
<path style=" stroke:none;fill-rule:nonzero;fill:rgb(69.4%,93.8%,30.5%);fill-opacity:1;" d="M 239.5 175 C 239.5 183.007812 233.007812 189.5 225 189.5 C 216.992188 189.5 210.5 183.007812 210.5 175 C 210.5 166.992188 216.992188 160.5 225 160.5 C 233.007812 160.5 239.5 166.992188 239.5 175 "/>
<path style=" stroke:none;fill-rule:nonzero;fill:rgb(14.6%,4.7%,42.7%);fill-opacity:1;" d="M 193 175 C 193 184.941406 184.941406 193 175 193 C 165.058594 193 157 184.941406 157 175 C 157 165.058594 165.058594 157 175 157 C 184.941406 157 193 165.058594 193 175 "/>
<path style=" stroke:none;fill-rule:nonzero;fill:rgb(49.7%,43%,36.8%);fill-opacity:1;" d="M 142 175 C 142 184.390625 134.390625 192 125 192 C 115.609375 192 108 184.390625 108 175 C 108 165.609375 115.609375 158 125 158 C 134.390625 158 142 165.609375 142 175 "/>
<path style=" stroke:none;fill-rule:nonzero;fill:rgb(27.7%,11.7%,41.2%);fill-opacity:1;" d="M 100 175 C 100 188.808594 88.808594 200 75 200 C 61.191406 200 50 188.808594 50 175 C 50 161.191406 61.191406 150 75 150 C 88.808594 150 100 161.191406 100 175 "/>
<path style=" stroke:none;fill-rule:nonzero;fill:rgb(59.3%,46.2%,49.9%);fill-opacity:1;" d="M 32 175 C 32 178.867188 28.867188 182 25 182 C 21.132812 182 18 178.867188 18 175 C 18 171.132812 21.132812 168 25 168 C 28.867188 168 32 171.132812 32 175 "/>
<path style=" stroke:none;fill-rule:nonzero;fill:rgb(93.6%,37.9%,26.7%);fill-opacity:1;" d="M 40 225 C 40 233.285156 33.285156 240 25 240 C 16.714844 240 10 233.285156 10 225 C 10 216.714844 16.714844 210 25 210 C 33.285156 210 40 216.714844 40 225 "/>
<path style=" stroke:none;fill-rule:nonzero;fill:rgb(74.3%,22.5%,41.8%);fill-opacity:1;" d="M 86 225 C 86 231.074219 81.074219 236 75 236 C 68.925781 236 64 231.074219 64 225 C 64 218.925781 68.925781 214 75 214 C 81.074219 214 86 218.925781 86 225 "/>
<path style=" stroke:none;fill-rule:nonzero;fill:rgb(10.8%,67.6%,68.8%);fill-opacity:1;" d="M 150 225 C 150 238.808594 138.808594 250 125 250 C 111.191406 250 100 238.808594 100 225 C 100 211.191406 111.191406 200 125 200 C 138.808594 200 150 211.191406 150 225 "/>
<path style=" stroke:none;fill-rule:nonzero;fill:rgb(23.3%,30.1%,84%);fill-opacity:1;" d="M 188.5 225 C 188.5 232.457031 182.457031 238.5 175 238.5 C 167.542969 238.5 161.5 232.457031 161.5 225 C 161.5 217.542969 167.542969 211.5 175 211.5 C 182.457031 211.5 188.5 217.542969 188.5 225 "/>
<path style=" stroke:none;fill-rule:nonzero;fill:rgb(46.4%,18.6%,27.3%);fill-opacity:1;" d="M 244.5 225 C 244.5 235.769531 235.769531 244.5 225 244.5 C 214.230469 244.5 205.5 235.769531 205.5 225 C 205.5 214.230469 214.230469 205.5 225 205.5 C 235.769531 205.5 244.5 214.230469 244.5 225 "/>
<path style=" stroke:none;fill-rule:nonzero;fill:rgb(46.8%,2%,28.7%);fill-opacity:1;" d="M 291.5 225 C 291.5 234.113281 284.113281 241.5 275 241.5 C 265.886719 241.5 258.5 234.113281 258.5 225 C 258.5 215.886719 265.886719 208.5 275 208.5 C 284.113281 208.5 291.5 215.886719 291.5 225 "/>
<path style=" stroke:none;fill-rule:nonzero;fill:rgb(25.4%,86.1%,97.3%);fill-opacity:1;" d="M 331.5 225 C 331.5 228.589844 328.589844 231.5 325 231.5 C 321.410156 231.5 318.5 228.589844 318.5 225 C 318.5 221.410156 321.410156 218.5 325 218.5 C 328.589844 218.5 331.5 221.410156 331.5 225 "/>
<path style=" stroke:none;fill-rule:nonzero;fill:rgb(65.7%,9.5%,3.2%);fill-opacity:1;" d="M 380 225 C 380 231.667969 370 231.667969 370 225 C 370 218.332031 380 218.332031 380 225 "/>
<path style=" stroke:none;fill-rule:nonzero;fill:rgb(96.5%,61%,77.4%);fill-opacity:1;" d="M 449.5 225 C 449.5 238.53125 438.53125 249.5 425 249.5 C 411.46875 249.5 400.5 238.53125 400.5 225 C 400.5 211.46875 411.46875 200.5 425 200.5 C 438.53125 200.5 449.5 211.46875 449.5 225 "/>
<path style=" stroke:none;fill-rule:nonzero;fill:rgb(58.9%,55.1%,43%);fill-opacity:1;" d="M 498 225 C 498 237.703125 487.703125 248 475 248 C 462.296875 248 452 237.703125 452 225 C 452 212.296875 462.296875 202 475 202 C 487.703125 202 498 212.296875 498 225 "/>
<path style=" stroke:none;fill-rule:nonzero;fill:rgb(93.1%,5.6%,16.1%);fill-opacity:1;" d="M 487.5 275 C 487.5 281.902344 481.902344 287.5 475 287.5 C 468.097656 287.5 462.5 281.902344 462.5 275 C 462.5 268.097656 468.097656 262.5 475 262.5 C 481.902344 262.5 487.5 268.097656 487.5 275 "/>
<path style=" stroke:none;fill-rule:nonzero;fill:rgb(85.3%,68.6%,36.9%);fill-opacity:1;" d="M 430.5 275 C 430.5 278.039062 428.039062 280.5 425 280.5 C 421.960938 280.5 419.5 278.039062 419.5 275 C 419.5 271.960938 421.960938 269.5 425 269.5 C 428.039062 269.5 430.5 271.960938 430.5 275 "/>
<path style=" stroke:none;fill-rule:nonzero;fill:rgb(99.1%,94.5%,27.3%);fill-opacity:1;" d="M 394.5 275 C 394.5 285.769531 385.769531 294.5 375 294.5 C 364.230469 294.5 355.5 285.769531 355.5 275 C 355.5 264.230469 364.230469 255.5 375 255.5 C 385.769531 255.5 394.5 264.230469 394.5 275 "/>
<path style=" stroke:none;fill-rule:nonzero;fill:rgb(96.7%,12.4%,58.8%);fill-opacity:1;" d="M 332 275 C 332 278.867188 328.867188 282 325 282 C 321.132812 282 318 278.867188 318 275 C 318 271.132812 321.132812 268 325 268 C 328.867188 268 332 271.132812 332 275 "/>
<path style=" stroke:none;fill-rule:nonzero;fill:rgb(62.1%,20.6%,27.9%);fill-opacity:1;" d="M 300 275 C 300 288.808594 288.808594 300 275 300 C 261.191406 300 250 288.808594 250 275 C 250 261.191406 261.191406 250 275 250 C 288.808594 250 300 261.191406 300 275 "/>
<path style=" stroke:none;fill-rule:nonzero;fill:rgb(73%,82%,69.6%);fill-opacity:1;" d="M 230 275 C 230 281.667969 220 281.667969 220 275 C 220 268.332031 230 268.332031 230 275 "/>
<path style=" stroke:none;fill-rule:nonzero;fill:rgb(78.6%,64.2%,84.3%);fill-opacity:1;" d="M 189 275 C 189 282.730469 182.730469 289 175 289 C 167.269531 289 161 282.730469 161 275 C 161 267.269531 167.269531 261 175 261 C 182.730469 261 189 267.269531 189 275 "/>
<path style=" stroke:none;fill-rule:nonzero;fill:rgb(81.4%,56.4%,97.3%);fill-opacity:1;" d="M 146 275 C 146 286.597656 136.597656 296 125 296 C 113.402344 296 104 286.597656 104 275 C 104 263.402344 113.402344 254 125 254 C 136.597656 254 146 263.402344 146 275 "/>
<path style=" stroke:none;fill-rule:nonzero;fill:rgb(15.2%,53.9%,98%);fill-opacity:1;" d="M 85 275 C 85 280.523438 80.523438 285 75 285 C 69.476562 285 65 280.523438 65 275 C 65 269.476562 69.476562 265 75 265 C 80.523438 265 85 269.476562 85 275 "/>
<path style=" stroke:none;fill-rule:nonzero;fill:rgb(83.5%,80.5%,42.3%);fill-opacity:1;" d="M 44.5 275 C 44.5 285.769531 35.769531 294.5 25 294.5 C 14.230469 294.5 5.5 285.769531 5.5 275 C 5.5 264.230469 14.230469 255.5 25 255.5 C 35.769531 255.5 44.5 264.230469 44.5 275 "/>
<path style=" stroke:none;fill-rule:nonzero;fill:rgb(99.9%,29.2%,63.2%);fill-opacity:1;" d="M 46.5 325 C 46.5 336.875 36.875 346.5 25 346.5 C 13.125 346.5 3.5 336.875 3.5 325 C 3.5 313.125 13.125 303.5 25 303.5 C 36.875 303.5 46.5 313.125 46.5 325 "/>
<path style=" stroke:none;fill-rule:nonzero;fill:rgb(47.1%,69.6%,10.1%);fill-opacity:1;" d="M 97.5 325 C 97.5 337.425781 87.425781 347.5 75 347.5 C 62.574219 347.5 52.5 337.425781 52.5 325 C 52.5 312.574219 62.574219 302.5 75 302.5 C 87.425781 302.5 97.5 312.574219 97.5 325 "/>
<path style=" stroke:none;fill-rule:nonzero;fill:rgb(74%,38.6%,65%);fill-opacity:1;" d="M 140.5 325 C 140.5 333.558594 133.558594 340.5 125 340.5 C 116.441406 340.5 109.5 333.558594 109.5 325 C 109.5 316.441406 116.441406 309.5 125 309.5 C 133.558594 309.5 140.5 316.441406 140.5 325 "/>
<path style=" stroke:none;fill-rule:nonzero;fill:rgb(42%,22.6%,16.4%);fill-opacity:1;" d="M 187.5 325 C 187.5 331.902344 181.902344 337.5 175 337.5 C 168.097656 337.5 162.5 331.902344 162.5 325 C 162.5 318.097656 168.097656 312.5 175 312.5 C 181.902344 312.5 187.5 318.097656 187.5 325 "/>
<path style=" stroke:none;fill-rule:nonzero;fill:rgb(47.8%,35.5%,75.1%);fill-opacity:1;" d="M 250 325 C 250 338.808594 238.808594 350 225 350 C 211.191406 350 200 338.808594 200 325 C 200 311.191406 211.191406 300 225 300 C 238.808594 300 250 311.191406 250 325 "/>
<path style=" stroke:none;fill-rule:nonzero;fill:rgb(24.8%,22.5%,41.9%);fill-opacity:1;" d="M 293 325 C 293 334.941406 284.941406 343 275 343 C 265.058594 343 257 334.941406 257 325 C 257 315.058594 265.058594 307 275 307 C 284.941406 307 293 315.058594 293 325 "/>
<path style=" stroke:none;fill-rule:nonzero;fill:rgb(97.6%,60.9%,50.1%);fill-opacity:1;" d="M 333.5 325 C 333.5 329.695312 329.695312 333.5 325 333.5 C 320.304688 333.5 316.5 329.695312 316.5 325 C 316.5 320.304688 320.304688 316.5 325 316.5 C 329.695312 316.5 333.5 320.304688 333.5 325 "/>
<path style=" stroke:none;fill-rule:nonzero;fill:rgb(14.8%,38.7%,0.7%);fill-opacity:1;" d="M 399 325 C 399 338.253906 388.253906 349 375 349 C 361.746094 349 351 338.253906 351 325 C 351 311.746094 361.746094 301 375 301 C 388.253906 301 399 311.746094 399 325 "/>
<path style=" stroke:none;fill-rule:nonzero;fill:rgb(45.5%,16%,9.8%);fill-opacity:1;" d="M 438 325 C 438 332.179688 432.179688 338 425 338 C 417.820312 338 412 332.179688 412 325 C 412 317.820312 417.820312 312 425 312 C 432.179688 312 438 317.820312 438 325 "/>
<path style=" stroke:none;fill-rule:nonzero;fill:rgb(27.3%,57.2%,88.9%);fill-opacity:1;" d="M 497.5 325 C 497.5 337.425781 487.425781 347.5 475 347.5 C 462.574219 347.5 452.5 337.425781 452.5 325 C 452.5 312.574219 462.574219 302.5 475 302.5 C 487.425781 302.5 497.5 312.574219 497.5 325 "/>
<path style=" stroke:none;fill-rule:nonzero;fill:rgb(22.7%,87.7%,65.8%);fill-opacity:1;" d="M 497.5 375 C 497.5 387.425781 487.425781 397.5 475 397.5 C 462.574219 397.5 452.5 387.425781 452.5 375 C 452.5 362.574219 462.574219 352.5 475 352.5 C 487.425781 352.5 497.5 362.574219 497.5 375 "/>
<path style=" stroke:none;fill-rule:nonzero;fill:rgb(89.8%,24.4%,80.5%);fill-opacity:1;" d="M 435.5 375 C 435.5 380.800781 430.800781 385.5 425 385.5 C 419.199219 385.5 414.5 380.800781 414.5 375 C 414.5 369.199219 419.199219 364.5 425 364.5 C 430.800781 364.5 435.5 369.199219 435.5 375 "/>
<path style=" stroke:none;fill-rule:nonzero;fill:rgb(90.1%,21.1%,63.4%);fill-opacity:1;" d="M 389 375 C 389 382.730469 382.730469 389 375 389 C 367.269531 389 361 382.730469 361 375 C 361 367.269531 367.269531 361 375 361 C 382.730469 361 389 367.269531 389 375 "/>
<path style=" stroke:none;fill-rule:nonzero;fill:rgb(33.9%,48.5%,81.3%);fill-opacity:1;" d="M 344.5 375 C 344.5 385.769531 335.769531 394.5 325 394.5 C 314.230469 394.5 305.5 385.769531 305.5 375 C 305.5 364.230469 314.230469 355.5 325 355.5 C 335.769531 355.5 344.5 364.230469 344.5 375 "/>
<path style=" stroke:none;fill-rule:nonzero;fill:rgb(44%,62.3%,59.3%);fill-opacity:1;" d="M 284.5 375 C 284.5 380.246094 280.246094 384.5 275 384.5 C 269.753906 384.5 265.5 380.246094 265.5 375 C 265.5 369.753906 269.753906 365.5 275 365.5 C 280.246094 365.5 284.5 369.753906 284.5 375 "/>
<path style=" stroke:none;fill-rule:nonzero;fill:rgb(77.3%,84.8%,46.4%);fill-opacity:1;" d="M 230 375 C 230 381.667969 220 381.667969 220 375 C 220 368.332031 230 368.332031 230 375 "/>
<path style=" stroke:none;fill-rule:nonzero;fill:rgb(82%,67.1%,19.3%);fill-opacity:1;" d="M 180.5 375 C 180.5 378.039062 178.039062 380.5 175 380.5 C 171.960938 380.5 169.5 378.039062 169.5 375 C 169.5 371.960938 171.960938 369.5 175 369.5 C 178.039062 369.5 180.5 371.960938 180.5 375 "/>
<path style=" stroke:none;fill-rule:nonzero;fill:rgb(20.8%,8%,34.2%);fill-opacity:1;" d="M 143 375 C 143 384.941406 134.941406 393 125 393 C 115.058594 393 107 384.941406 107 375 C 107 365.058594 115.058594 357 125 357 C 134.941406 357 143 365.058594 143 375 "/>
<path style=" stroke:none;fill-rule:nonzero;fill:rgb(20.9%,86.3%,17.1%);fill-opacity:1;" d="M 89.5 375 C 89.5 383.007812 83.007812 389.5 75 389.5 C 66.992188 389.5 60.5 383.007812 60.5 375 C 60.5 366.992188 66.992188 360.5 75 360.5 C 83.007812 360.5 89.5 366.992188 89.5 375 "/>
<path style=" stroke:none;fill-rule:nonzero;fill:rgb(84%,20.2%,14.7%);fill-opacity:1;" d="M 43 375 C 43 384.941406 34.941406 393 25 393 C 15.058594 393 7 384.941406 7 375 C 7 365.058594 15.058594 357 25 357 C 34.941406 357 43 365.058594 43 375 "/>
<path style=" stroke:none;fill-rule:nonzero;fill:rgb(63.1%,68.8%,16.9%);fill-opacity:1;" d="M 31.5 425 C 31.5 428.589844 28.589844 431.5 25 431.5 C 21.410156 431.5 18.5 428.589844 18.5 425 C 18.5 421.410156 21.410156 418.5 25 418.5 C 28.589844 418.5 31.5 421.410156 31.5 425 "/>
<path style=" stroke:none;fill-rule:nonzero;fill:rgb(72.8%,4.3%,76.9%);fill-opacity:1;" d="M 96 425 C 96 436.597656 86.597656 446 75 446 C 63.402344 446 54 436.597656 54 425 C 54 413.402344 63.402344 404 75 404 C 86.597656 404 96 413.402344 96 425 "/>
<path style=" stroke:none;fill-rule:nonzero;fill:rgb(25.7%,81.6%,71.5%);fill-opacity:1;" d="M 149 425 C 149 438.253906 138.253906 449 125 449 C 111.746094 449 101 438.253906 101 425 C 101 411.746094 111.746094 401 125 401 C 138.253906 401 149 411.746094 149 425 "/>
<path style=" stroke:none;fill-rule:nonzero;fill:rgb(6.4%,69%,29.4%);fill-opacity:1;" d="M 191.5 425 C 191.5 434.113281 184.113281 441.5 175 441.5 C 165.886719 441.5 158.5 434.113281 158.5 425 C 158.5 415.886719 165.886719 408.5 175 408.5 C 184.113281 408.5 191.5 415.886719 191.5 425 "/>
<path style=" stroke:none;fill-rule:nonzero;fill:rgb(82%,57.6%,61%);fill-opacity:1;" d="M 231.5 425 C 231.5 428.589844 228.589844 431.5 225 431.5 C 221.410156 431.5 218.5 428.589844 218.5 425 C 218.5 421.410156 221.410156 418.5 225 418.5 C 228.589844 418.5 231.5 421.410156 231.5 425 "/>
<path style=" stroke:none;fill-rule:nonzero;fill:rgb(50.8%,5%,56.4%);fill-opacity:1;" d="M 289.5 425 C 289.5 433.007812 283.007812 439.5 275 439.5 C 266.992188 439.5 260.5 433.007812 260.5 425 C 260.5 416.992188 266.992188 410.5 275 410.5 C 283.007812 410.5 289.5 416.992188 289.5 425 "/>
<path style=" stroke:none;fill-rule:nonzero;fill:rgb(61.3%,16%,9%);fill-opacity:1;" d="M 332.5 425 C 332.5 429.140625 329.140625 432.5 325 432.5 C 320.859375 432.5 317.5 429.140625 317.5 425 C 317.5 420.859375 320.859375 417.5 325 417.5 C 329.140625 417.5 332.5 420.859375 332.5 425 "/>
<path style=" stroke:none;fill-rule:nonzero;fill:rgb(99.1%,70.2%,56.6%);fill-opacity:1;" d="M 396 425 C 396 436.597656 386.597656 446 375 446 C 363.402344 446 354 436.597656 354 425 C 354 413.402344 363.402344 404 375 404 C 386.597656 404 396 413.402344 396 425 "/>
<path style=" stroke:none;fill-rule:nonzero;fill:rgb(49.7%,87.1%,59.5%);fill-opacity:1;" d="M 440 425 C 440 433.285156 433.285156 440 425 440 C 416.714844 440 410 433.285156 410 425 C 410 416.714844 416.714844 410 425 410 C 433.285156 410 440 416.714844 440 425 "/>
<path style=" stroke:none;fill-rule:nonzero;fill:rgb(25.9%,77.1%,12.4%);fill-opacity:1;" d="M 487.5 425 C 487.5 431.902344 481.902344 437.5 475 437.5 C 468.097656 437.5 462.5 431.902344 462.5 425 C 462.5 418.097656 468.097656 412.5 475 412.5 C 481.902344 412.5 487.5 418.097656 487.5 425 "/>
<path style=" stroke:none;fill-rule:nonzero;fill:rgb(51.1%,96.4%,48.8%);fill-opacity:1;" d="M 494.5 475 C 494.5 485.769531 485.769531 494.5 475 494.5 C 464.230469 494.5 455.5 485.769531 455.5 475 C 455.5 464.230469 464.230469 455.5 475 455.5 C 485.769531 455.5 494.5 464.230469 494.5 475 "/>
<path style=" stroke:none;fill-rule:nonzero;fill:rgb(0.1%,58%,23.3%);fill-opacity:1;" d="M 437 475 C 437 481.628906 431.628906 487 425 487 C 418.371094 487 413 481.628906 413 475 C 413 468.371094 418.371094 463 425 463 C 431.628906 463 437 468.371094 437 475 "/>
<path style=" stroke:none;fill-rule:nonzero;fill:rgb(64.1%,72.8%,5.4%);fill-opacity:1;" d="M 399.5 475 C 399.5 488.53125 388.53125 499.5 375 499.5 C 361.46875 499.5 350.5 488.53125 350.5 475 C 350.5 461.46875 361.46875 450.5 375 450.5 C 388.53125 450.5 399.5 461.46875 399.5 475 "/>
<path style=" stroke:none;fill-rule:nonzero;fill:rgb(37.4%,51.4%,28.5%);fill-opacity:1;" d="M 330 475 C 330 481.667969 320 481.667969 320 475 C 320 468.332031 330 468.332031 330 475 "/>
<path style=" stroke:none;fill-rule:nonzero;fill:rgb(76.8%,54.4%,96.4%);fill-opacity:1;" d="M 281.5 475 C 281.5 478.589844 278.589844 481.5 275 481.5 C 271.410156 481.5 268.5 478.589844 268.5 475 C 268.5 471.410156 271.410156 468.5 275 468.5 C 278.589844 468.5 281.5 471.410156 281.5 475 "/>
<path style=" stroke:none;fill-rule:nonzero;fill:rgb(41.2%,3.8%,65.1%);fill-opacity:1;" d="M 240 475 C 240 483.285156 233.285156 490 225 490 C 216.714844 490 210 483.285156 210 475 C 210 466.714844 216.714844 460 225 460 C 233.285156 460 240 466.714844 240 475 "/>
<path style=" stroke:none;fill-rule:nonzero;fill:rgb(7.4%,83.8%,64.5%);fill-opacity:1;" d="M 182.5 475 C 182.5 479.140625 179.140625 482.5 175 482.5 C 170.859375 482.5 167.5 479.140625 167.5 475 C 167.5 470.859375 170.859375 467.5 175 467.5 C 179.140625 467.5 182.5 470.859375 182.5 475 "/>
<path style=" stroke:none;fill-rule:nonzero;fill:rgb(94.8%,95.5%,81%);fill-opacity:1;" d="M 149.5 475 C 149.5 488.53125 138.53125 499.5 125 499.5 C 111.46875 499.5 100.5 488.53125 100.5 475 C 100.5 461.46875 111.46875 450.5 125 450.5 C 138.53125 450.5 149.5 461.46875 149.5 475 "/>
<path style=" stroke:none;fill-rule:nonzero;fill:rgb(1.4%,67.5%,7.2%);fill-opacity:1;" d="M 86.5 475 C 86.5 481.351562 81.351562 486.5 75 486.5 C 68.648438 486.5 63.5 481.351562 63.5 475 C 63.5 468.648438 68.648438 463.5 75 463.5 C 81.351562 463.5 86.5 468.648438 86.5 475 "/>
<path style=" stroke:none;fill-rule:nonzero;fill:rgb(16.6%,82.1%,82.2%);fill-opacity:1;" d="M 36 475 C 36 481.074219 31.074219 486 25 486 C 18.925781 486 14 481.074219 14 475 C 14 468.925781 18.925781 464 25 464 C 31.074219 464 36 468.925781 36 475 "/>
<path style="fill:none;stroke-width:0.01;stroke-linecap:butt;stroke-linejoin:miter;stroke:rgb(32.4%,50.5%,94.8%);stroke-opacity:1;stroke-miterlimit:10;" d="M 0.05 0.05 C 0.15 0.05 0.25 0.05 0.35 0.05 " transform="matrix(500,0,0,500,0,0)"/>
<path style="fill:none;stroke-width:0.01;stroke-linecap:butt;stroke-linejoin:miter;stroke:rgb(82.5%,83%,33%);stroke-opacity:1;stroke-miterlimit:10;" d="M 0.35 0.05 C 0.45 0.05 0.55 0.05 0.65 0.05 " transform="matrix(500,0,0,500,0,0)"/>
<path style="fill:none;stroke-width:0.01;stroke-linecap:butt;stroke-linejoin:miter;stroke:rgb(22.7%,54.4%,70.3%);stroke-opacity:1;stroke-miterlimit:10;" d="M 0.65 0.05 C 0.75 0.05 0.85 0.05 0.95 0.05 " transform="matrix(500,0,0,500,0,0)"/>
<path style="fill:none;stroke-width:0.01;stroke-linecap:butt;stroke-linejoin:miter;stroke:rgb(73.8%,98.4%,31.3%);stroke-opacity:1;stroke-miterlimit:10;" d="M 0.95 0.05 C 0.95 0.15 0.85 0.15 0.75 0.15 " transform="matrix(500,0,0,500,0,0)"/>
<path style="fill:none;stroke-width:0.01;stroke-linecap:butt;stroke-linejoin:miter;stroke:rgb(39.3%,23.8%,95.6%);stroke-opacity:1;stroke-miterlimit:10;" d="M 0.75 0.15 C 0.65 0.15 0.55 0.15 0.45 0.15 " transform="matrix(500,0,0,500,0,0)"/>
<path style="fill:none;stroke-width:0.01;stroke-linecap:butt;stroke-linejoin:miter;stroke:rgb(78.1%,72%,14.3%);stroke-opacity:1;stroke-miterlimit:10;" d="M 0.45 0.15 C 0.35 0.15 0.25 0.15 0.15 0.15 " transform="matrix(500,0,0,500,0,0)"/>
<path style="fill:none;stroke-width:0.01;stroke-linecap:butt;stroke-linejoin:miter;stroke:rgb(6%,88.1%,22.3%);stroke-opacity:1;stroke-miterlimit:10;" d="M 0.15 0.15 C 0.05 0.15 0.05 0.25 0.15 0.25 " transform="matrix(500,0,0,500,0,0)"/>
<path style="fill:none;stroke-width:0.01;stroke-linecap:butt;stroke-linejoin:miter;stroke:rgb(92.3%,31.6%,30.4%);stroke-opacity:1;stroke-miterlimit:10;" d="M 0.15 0.25 C 0.25 0.25 0.35 0.25 0.45 0.25 " transform="matrix(500,0,0,500,0,0)"/>
<path style="fill:none;stroke-width:0.01;stroke-linecap:butt;stroke-linejoin:miter;stroke:rgb(89.6%,8%,96.5%);stroke-opacity:1;stroke-miterlimit:10;" d="M 0.45 0.25 C 0.55 0.25 0.65 0.25 0.75 0.25 " transform="matrix(500,0,0,500,0,0)"/>
<path style="fill:none;stroke-width:0.01;stroke-linecap:butt;stroke-linejoin:miter;stroke:rgb(31.6%,3.9%,41.1%);stroke-opacity:1;stroke-miterlimit:10;" d="M 0.75 0.25 C 0.85 0.25 0.95 0.25 0.95 0.35 " transform="matrix(500,0,0,500,0,0)"/>
<path style="fill:none;stroke-width:0.01;stroke-linecap:butt;stroke-linejoin:miter;stroke:rgb(43.7%,8.6%,65.5%);stroke-opacity:1;stroke-miterlimit:10;" d="M 0.95 0.35 C 0.85 0.35 0.75 0.35 0.65 0.35 " transform="matrix(500,0,0,500,0,0)"/>
<path style="fill:none;stroke-width:0.01;stroke-linecap:butt;stroke-linejoin:miter;stroke:rgb(84.8%,76%,86%);stroke-opacity:1;stroke-miterlimit:10;" d="M 0.65 0.35 C 0.55 0.35 0.45 0.35 0.35 0.35 " transform="matrix(500,0,0,500,0,0)"/>
<path style="fill:none;stroke-width:0.01;stroke-linecap:butt;stroke-linejoin:miter;stroke:rgb(46.9%,74.4%,46.1%);stroke-opacity:1;stroke-miterlimit:10;" d="M 0.35 0.35 C 0.25 0.35 0.15 0.35 0.05 0.35 " transform="matrix(500,0,0,500,0,0)"/>
<path style="fill:none;stroke-width:0.01;stroke-linecap:butt;stroke-linejoin:miter;stroke:rgb(96.1%,23.3%,60.1%);stroke-opacity:1;stroke-miterlimit:10;" d="M 0.05 0.35 C 0.05 0.45 0.15 0.45 0.25 0.45 " transform="matrix(500,0,0,500,0,0)"/>
<path style="fill:none;stroke-width:0.01;stroke-linecap:butt;stroke-linejoin:miter;stroke:rgb(26.9%,26.2%,82.2%);stroke-opacity:1;stroke-miterlimit:10;" d="M 0.25 0.45 C 0.35 0.45 0.45 0.45 0.55 0.45 " transform="matrix(500,0,0,500,0,0)"/>
<path style="fill:none;stroke-width:0.01;stroke-linecap:butt;stroke-linejoin:miter;stroke:rgb(84.9%,22.8%,48.7%);stroke-opacity:1;stroke-miterlimit:10;" d="M 0.55 0.45 C 0.65 0.45 0.75 0.45 0.85 0.45 " transform="matrix(500,0,0,500,0,0)"/>
<path style="fill:none;stroke-width:0.01;stroke-linecap:butt;stroke-linejoin:miter;stroke:rgb(39.6%,76%,31.2%);stroke-opacity:1;stroke-miterlimit:10;" d="M 0.85 0.45 C 0.95 0.45 0.95 0.55 0.85 0.55 " transform="matrix(500,0,0,500,0,0)"/>
<path style="fill:none;stroke-width:0.01;stroke-linecap:butt;stroke-linejoin:miter;stroke:rgb(91.6%,63.4%,29.8%);stroke-opacity:1;stroke-miterlimit:10;" d="M 0.85 0.55 C 0.75 0.55 0.65 0.55 0.55 0.55 " transform="matrix(500,0,0,500,0,0)"/>
<path style="fill:none;stroke-width:0.01;stroke-linecap:butt;stroke-linejoin:miter;stroke:rgb(11%,49.9%,5.7%);stroke-opacity:1;stroke-miterlimit:10;" d="M 0.55 0.55 C 0.45 0.55 0.35 0.55 0.25 0.55 " transform="matrix(500,0,0,500,0,0)"/>
<path style="fill:none;stroke-width:0.01;stroke-linecap:butt;stroke-linejoin:miter;stroke:rgb(60.9%,91.3%,61.8%);stroke-opacity:1;stroke-miterlimit:10;" d="M 0.25 0.55 C 0.15 0.55 0.05 0.55 0.05 0.65 " transform="matrix(500,0,0,500,0,0)"/>
<path style="fill:none;stroke-width:0.01;stroke-linecap:butt;stroke-linejoin:miter;stroke:rgb(87.3%,21.5%,42.3%);stroke-opacity:1;stroke-miterlimit:10;" d="M 0.05 0.65 C 0.15 0.65 0.25 0.65 0.35 0.65 " transform="matrix(500,0,0,500,0,0)"/>
<path style="fill:none;stroke-width:0.01;stroke-linecap:butt;stroke-linejoin:miter;stroke:rgb(53.6%,77.2%,6.5%);stroke-opacity:1;stroke-miterlimit:10;" d="M 0.35 0.65 C 0.45 0.65 0.55 0.65 0.65 0.65 " transform="matrix(500,0,0,500,0,0)"/>
<path style="fill:none;stroke-width:0.01;stroke-linecap:butt;stroke-linejoin:miter;stroke:rgb(85.6%,53.5%,88.8%);stroke-opacity:1;stroke-miterlimit:10;" d="M 0.65 0.65 C 0.75 0.65 0.85 0.65 0.95 0.65 " transform="matrix(500,0,0,500,0,0)"/>
<path style="fill:none;stroke-width:0.01;stroke-linecap:butt;stroke-linejoin:miter;stroke:rgb(46.7%,69.5%,5.6%);stroke-opacity:1;stroke-miterlimit:10;" d="M 0.95 0.65 C 0.95 0.75 0.85 0.75 0.75 0.75 " transform="matrix(500,0,0,500,0,0)"/>
<path style="fill:none;stroke-width:0.01;stroke-linecap:butt;stroke-linejoin:miter;stroke:rgb(6.2%,92.3%,6.8%);stroke-opacity:1;stroke-miterlimit:10;" d="M 0.75 0.75 C 0.65 0.75 0.55 0.75 0.45 0.75 " transform="matrix(500,0,0,500,0,0)"/>
<path style="fill:none;stroke-width:0.01;stroke-linecap:butt;stroke-linejoin:miter;stroke:rgb(62.3%,72.2%,5.1%);stroke-opacity:1;stroke-miterlimit:10;" d="M 0.45 0.75 C 0.35 0.75 0.25 0.75 0.15 0.75 " transform="matrix(500,0,0,500,0,0)"/>
<path style="fill:none;stroke-width:0.01;stroke-linecap:butt;stroke-linejoin:miter;stroke:rgb(0.4%,52.8%,57.4%);stroke-opacity:1;stroke-miterlimit:10;" d="M 0.15 0.75 C 0.05 0.75 0.05 0.85 0.15 0.85 " transform="matrix(500,0,0,500,0,0)"/>
<path style="fill:none;stroke-width:0.01;stroke-linecap:butt;stroke-linejoin:miter;stroke:rgb(4.4%,73.6%,4.7%);stroke-opacity:1;stroke-miterlimit:10;" d="M 0.15 0.85 C 0.25 0.85 0.35 0.85 0.45 0.85 " transform="matrix(500,0,0,500,0,0)"/>
<path style="fill:none;stroke-width:0.01;stroke-linecap:butt;stroke-linejoin:miter;stroke:rgb(85.7%,22.3%,70.5%);stroke-opacity:1;stroke-miterlimit:10;" d="M 0.45 0.85 C 0.55 0.85 0.65 0.85 0.75 0.85 " transform="matrix(500,0,0,500,0,0)"/>
<path style="fill:none;stroke-width:0.01;stroke-linecap:butt;stroke-linejoin:miter;stroke:rgb(86.1%,30.6%,94.6%);stroke-opacity:1;stroke-miterlimit:10;" d="M 0.75 0.85 C 0.85 0.85 0.95 0.85 0.95 0.95 " transform="matrix(500,0,0,500,0,0)"/>
<path style="fill:none;stroke-width:0.01;stroke-linecap:butt;stroke-linejoin:miter;stroke:rgb(57.8%,13.5%,60.9%);stroke-opacity:1;stroke-miterlimit:10;" d="M 0.95 0.95 C 0.85 0.95 0.75 0.95 0.65 0.95 " transform="matrix(500,0,0,500,0,0)"/>
<path style="fill:none;stroke-width:0.01;stroke-linecap:butt;stroke-linejoin:miter;stroke:rgb(27.3%,69%,58.7%);stroke-opacity:1;stroke-miterlimit:10;" d="M 0.65 0.95 C 0.55 0.95 0.45 0.95 0.35 0.95 " transform="matrix(500,0,0,500,0,0)"/>
<path style="fill:none;stroke-width:0.01;stroke-linecap:butt;stroke-linejoin:miter;stroke:rgb(22.2%,16.5%,91.1%);stroke-opacity:1;stroke-miterlimit:10;" d="M 0.35 0.95 C 0.25 0.95 0.15 0.95 0.05 0.95 " transform="matrix(500,0,0,500,0,0)"/>
<path style=" stroke:none;fill-rule:nonzero;fill:rgb(5.1%,37.5%,20.4%);fill-opacity:0.5;" d="M 98.5 64 L 42.5 56 L 53.5 0 L 98.5 64 "/>
<path style=" stroke:none;fill-rule:nonzero;fill:rgb(69.4%,85.9%,67.1%);fill-opacity:0.5;" d="M 145.5 87 L 199.5 71.5 L 188.5 17 L 145.5 87 "/>
<path style=" stroke:none;fill-rule:nonzero;fill:rgb(79.3%,59.3%,58.5%);fill-opacity:0.5;" d="M 273 13.5 L 203 13.5 L 178 84.5 L 273 13.5 "/>
<path style=" stroke:none;fill-rule:nonzero;fill:rgb(6.5%,56.6%,56%);fill-opacity:0.5;" d="M 333 7 L 400 2 L 383.5 66 L 333 7 "/>
<path style=" stroke:none;fill-rule:nonzero;fill:rgb(27.7%,76.1%,42.1%);fill-opacity:0.5;" d="M 450 12 L 505.5 -3 L 491 62.5 L 450 12 "/>
<path style=" stroke:none;fill-rule:nonzero;fill:rgb(3.4%,41.2%,70.9%);fill-opacity:0.5;" d="M 420.5 119.5 L 483.5 108 L 493.5 161.5 L 420.5 119.5 "/>
<path style=" stroke:none;fill-rule:nonzero;fill:rgb(72.9%,62.7%,66.5%);fill-opacity:0.5;" d="M 303 126.5 L 378 150 L 357.5 221.5 L 303 126.5 "/>
<path style=" stroke:none;fill-rule:nonzero;fill:rgb(26.1%,21%,88.5%);fill-opacity:0.5;" d="M 253.5 125 L 193.5 104 L 213 159 L 253.5 125 "/>
<path style=" stroke:none;fill-rule:nonzero;fill:rgb(28%,51.6%,26%);fill-opacity:0.5;" d="M 149.5 190 L 216 202 L 228 127.5 L 149.5 190 "/>
<path style=" stroke:none;fill-rule:nonzero;fill:rgb(87.4%,85.2%,10.5%);fill-opacity:0.5;" d="M 44.5 115 L 111.5 103.5 L 95.5 158 L 44.5 115 "/>
<path style=" stroke:none;fill-rule:nonzero;fill:rgb(88.4%,18.1%,91.7%);fill-opacity:0.5;" d="M 94.5 299.5 L 25.5 313 L 32 256 L 94.5 299.5 "/>
<path style=" stroke:none;fill-rule:nonzero;fill:rgb(97.9%,85.8%,60.9%);fill-opacity:0.5;" d="M 180.5 261 L 128.5 256 L 147.5 187.5 L 180.5 261 "/>
<path style=" stroke:none;fill-rule:nonzero;fill:rgb(48.5%,51.8%,70.5%);fill-opacity:0.5;" d="M 279.5 230.5 L 223.5 207 L 216 272.5 L 279.5 230.5 "/>
<path style=" stroke:none;fill-rule:nonzero;fill:rgb(61.6%,94.6%,34.7%);fill-opacity:0.5;" d="M 349.5 298.5 L 421.5 308.5 L 445 234 L 349.5 298.5 "/>
<path style=" stroke:none;fill-rule:nonzero;fill:rgb(98%,21.6%,82%);fill-opacity:0.5;" d="M 400.5 205.5 L 455.5 204 L 458.5 257 L 400.5 205.5 "/>
<path style=" stroke:none;fill-rule:nonzero;fill:rgb(51.6%,80.9%,31.7%);fill-opacity:0.5;" d="M 476.5 312 L 414 294.5 L 428 352 L 476.5 312 "/>
<path style=" stroke:none;fill-rule:nonzero;fill:rgb(63.1%,10.7%,67%);fill-opacity:0.5;" d="M 376 366 L 315.5 356.5 L 299 293.5 L 376 366 "/>
<path style=" stroke:none;fill-rule:nonzero;fill:rgb(22.1%,81.6%,2.4%);fill-opacity:0.5;" d="M 287 360.5 L 230.5 341 L 219 277 L 287 360.5 "/>
<path style=" stroke:none;fill-rule:nonzero;fill:rgb(62.6%,28.5%,20.9%);fill-opacity:0.5;" d="M 111 390 L 174.5 407 L 183.5 340.5 L 111 390 "/>
<path style=" stroke:none;fill-rule:nonzero;fill:rgb(59.6%,81.7%,7.8%);fill-opacity:0.5;" d="M 14.5 300 L 66.5 322 L 71 378.5 L 14.5 300 "/>
<path style=" stroke:none;fill-rule:nonzero;fill:rgb(3.4%,63.4%,67.1%);fill-opacity:0.5;" d="M 75.5 433 L 10.5 444.5 L -13 497 L 75.5 433 "/>
<path style=" stroke:none;fill-rule:nonzero;fill:rgb(74%,84.6%,86.9%);fill-opacity:0.5;" d="M 153.5 448.5 L 79 444.5 L 54 508.5 L 153.5 448.5 "/>
<path style=" stroke:none;fill-rule:nonzero;fill:rgb(20.3%,15.3%,84.7%);fill-opacity:0.5;" d="M 208 424 L 264 410.5 L 245.5 470.5 L 208 424 "/>
<path style=" stroke:none;fill-rule:nonzero;fill:rgb(76%,92.1%,30.4%);fill-opacity:0.5;" d="M 387 434 L 330 442 L 334 497 L 387 434 "/>
<path style=" stroke:none;fill-rule:nonzero;fill:rgb(58.5%,66.4%,4.7%);fill-opacity:0.5;" d="M 413 406.5 L 472 405 L 494 480 L 413 406.5 "/>
<path style="fill:none;stroke-width:0.002;stroke-linecap:butt;stroke-linejoin:miter;stroke:rgb(35.4%,13.1%,33.1%);stroke-opacity:1;stroke-miterlimit:10;" d="M 0.491 0.665 L 0.361 0.907 " transform="matrix(500,0,0,500,0,0)"/>
<path style="fill:none;stroke-width:0.002;stroke-linecap:butt;stroke-linejoin:miter;stroke:rgb(98.7%,48.6%,1.3%);stroke-opacity:1;stroke-miterlimit:10;" d="M 0.67 0.181 L 0.061 0.956 " transform="matrix(500,0,0,500,0,0)"/>
<path style="fill:none;stroke-width:0.002;stroke-linecap:butt;stroke-linejoin:miter;stroke:rgb(36.5%,96.7%,84%);stroke-opacity:1;stroke-miterlimit:10;" d="M 0.215 0.839 L 0.743 0.176 " transform="matrix(500,0,0,500,0,0)"/>
<path style="fill:none;stroke-width:0.002;stroke-linecap:butt;stroke-linejoin:miter;stroke:rgb(53.5%,38.7%,10.9%);stroke-opacity:1;stroke-miterlimit:10;" d="M 0.533 0.91 L 0.372 0.036 " transform="matrix(500,0,0,500,0,0)"/>
<path style="fill:none;stroke-width:0.002;stroke-linecap:butt;stroke-linejoin:miter;stroke:rgb(71.6%,22.5%,62.4%);stroke-opacity:1;stroke-miterlimit:10;" d="M 0.947 0.115 L 0.038 0.781 " transform="matrix(500,0,0,500,0,0)"/>
<path style="fill:none;stroke-width:0.002;stroke-linecap:butt;stroke-linejoin:miter;stroke:rgb(22.8%,39.9%,12.8%);stroke-opacity:1;stroke-miterlimit:10;" d="M 0.211 0.852 L 0.95 0.369 " transform="matrix(500,0,0,500,0,0)"/>
<path style="fill:none;stroke-width:0.002;stroke-linecap:butt;stroke-linejoin:miter;stroke:rgb(79.6%,22.8%,61.2%);stroke-opacity:1;stroke-miterlimit:10;" d="M 0.157 0.719 L 0.345 0.814 " transform="matrix(500,0,0,500,0,0)"/>
<path style="fill:none;stroke-width:0.002;stroke-linecap:butt;stroke-linejoin:miter;stroke:rgb(29.4%,10.9%,3.1%);stroke-opacity:1;stroke-miterlimit:10;" d="M 0.78 0.057 L 0.715 0.632 " transform="matrix(500,0,0,500,0,0)"/>
<path style="fill:none;stroke-width:0.002;stroke-linecap:butt;stroke-linejoin:miter;stroke:rgb(30.3%,77.6%,53.2%);stroke-opacity:1;stroke-miterlimit:10;" d="M 0.157 0.947 L 0.061 0.138 " transform="matrix(500,0,0,500,0,0)"/>
<path style="fill:none;stroke-width:0.002;stroke-linecap:butt;stroke-linejoin:miter;stroke:rgb(0.4%,55%,26.7%);stroke-opacity:1;stroke-miterlimit:10;" d="M 0.618 0.989 L 0.439 0.913 " transform="matrix(500,0,0,500,0,0)"/>
</g>
</defs>
<g id="surface345">
<use xlink:href="#surface348"/>
</g>
</svg>
