<?xml version="1.0" encoding="UTF-8"?>
<svg xmlns="http://www.w3.org/2000/svg" xmlns:xlink="http://www.w3.org/1999/xlink" width="500pt" height="500pt" viewBox="0 0 500 500" version="1.1">
<defs>
<radialGradient id="radial0" gradientUnits="userSpaceOnUse" cx="0.5" cy="0.5" fx="0.5" fy="0.5" r="0.6" gradientTransform="matrix(500,0,0,500,0,0)">
<stop offset="0.466667" style="stop-color:rgb(82.9%,77%,78.9%);stop-opacity:1;"/>
<stop offset="0.6" style="stop-color:rgb(94.3%,94.3%,64.9%);stop-opacity:1;"/>
</radialGradient>
<clipPath id="clip1">
  <rect x="0" y="0" width="500" height="500"/>
</clipPath>
<g id="surface348" clip-path="url(#clip1)">
<rect x="0" y="0" width="500" height="500" style="fill:url(#radial0);stroke:none;"/>
<path style=" stroke:none;fill-rule:nonzero;fill:rgb(49.2%,19.4%,10.5%);fill-opacity:1;" d="M 39.5 25 C 39.5 33.007812 33.007812 39.5 25 39.5 C 16.992188 39.5 10.5 33.007812 10.5 25 C 10.5 16.992188 16.992188 10.5 25 10.5 C 33.007812 10.5 39.5 16.992188 39.5 25 "/>
<path style=" stroke:none;fill-rule:nonzero;fill:rgb(56.7%,14%,78.9%);fill-opacity:1;" d="M 83.5 25 C 83.5 29.695312 79.695312 33.5 75 33.5 C 70.304688 33.5 66.5 29.695312 66.5 25 C 66.5 20.304688 70.304688 16.5 75 16.5 C 79.695312 16.5 83.5 20.304688 83.5 25 "/>
<path style=" stroke:none;fill-rule:nonzero;fill:rgb(89.9%,34.7%,72%);fill-opacity:1;" d="M 136 25 C 136 31.074219 131.074219 36 125 36 C 118.925781 36 114 31.074219 114 25 C 114 18.925781 118.925781 14 125 14 C 131.074219 14 136 18.925781 136 25 "/>
<path style=" stroke:none;fill-rule:nonzero;fill:rgb(6%,90.8%,97.1%);fill-opacity:1;" d="M 188.5 25 C 188.5 32.457031 182.457031 38.5 175 38.5 C 167.542969 38.5 161.5 32.457031 161.5 25 C 161.5 17.542969 167.542969 11.5 175 11.5 C 182.457031 11.5 188.5 17.542969 188.5 25 "/>
<path style=" stroke:none;fill-rule:nonzero;fill:rgb(42.4%,79%,11.4%);fill-opacity:1;" d="M 245.5 25 C 245.5 36.320312 236.320312 45.5 225 45.5 C 213.679688 45.5 204.5 36.320312 204.5 25 C 204.5 13.679688 213.679688 4.5 225 4.5 C 236.320312 4.5 245.5 13.679688 245.5 25 "/>
<path style=" stroke:none;fill-rule:nonzero;fill:rgb(84.8%,62.8%,80.8%);fill-opacity:1;" d="M 281.5 25 C 281.5 28.589844 278.589844 31.5 275 31.5 C 271.410156 31.5 268.5 28.589844 268.5 25 C 268.5 21.410156 271.410156 18.5 275 18.5 C 278.589844 18.5 281.5 21.410156 281.5 25 "/>
<path style=" stroke:none;fill-rule:nonzero;fill:rgb(9.2%,53.8%,89.7%);fill-opacity:1;" d="M 333.5 25 C 333.5 29.695312 329.695312 33.5 325 33.5 C 320.304688 33.5 316.5 29.695312 316.5 25 C 316.5 20.304688 320.304688 16.5 325 16.5 C 329.695312 16.5 333.5 20.304688 333.5 25 "/>
<path style=" stroke:none;fill-rule:nonzero;fill:rgb(48.5%,99.6%,77.5%);fill-opacity:1;" d="M 399 25 C 399 38.253906 388.253906 49 375 49 C 361.746094 49 351 38.253906 351 25 C 351 11.746094 361.746094 1 375 1 C 388.253906 1 399 11.746094 399 25 "/>
<path style=" stroke:none;fill-rule:nonzero;fill:rgb(4.6%,81.3%,23.3%);fill-opacity:1;" d="M 436.5 25 C 436.5 31.351562 431.351562 36.5 425 36.5 C 418.648438 36.5 413.5 31.351562 413.5 25 C 413.5 18.648438 418.648438 13.5 425 13.5 C 431.351562 13.5 436.5 18.648438 436.5 25 "/>
<path style=" stroke:none;fill-rule:nonzero;fill:rgb(26.3%,75.7%,44%);fill-opacity:1;" d="M 480 25 C 480 31.667969 470 31.667969 470 25 C 470 18.332031 480 18.332031 480 25 "/>
<path style=" stroke:none;fill-rule:nonzero;fill:rgb(44.4%,1.9%,53.4%);fill-opacity:1;" d="M 495.5 75 C 495.5 86.320312 486.320312 95.5 475 95.5 C 463.679688 95.5 454.5 86.320312 454.5 75 C 454.5 63.679688 463.679688 54.5 475 54.5 C 486.320312 54.5 495.5 63.679688 495.5 75 "/>
<path style=" stroke:none;fill-rule:nonzero;fill:rgb(65.7%,48.6%,75.5%);fill-opacity:1;" d="M 430 75 C 430 81.667969 420 81.667969 420 75 C 420 68.332031 430 68.332031 430 75 "/>
<path style=" stroke:none;fill-rule:nonzero;fill:rgb(66.3%,30%,52.2%);fill-opacity:1;" d="M 391 75 C 391 83.835938 383.835938 91 375 91 C 366.164062 91 359 83.835938 359 75 C 359 66.164062 366.164062 59 375 59 C 383.835938 59 391 66.164062 391 75 "/>
<path style=" stroke:none;fill-rule:nonzero;fill:rgb(5.7%,35.1%,90%);fill-opacity:1;" d="M 343.5 75 C 343.5 85.21875 335.21875 93.5 325 93.5 C 314.78125 93.5 306.5 85.21875 306.5 75 C 306.5 64.78125 314.78125 56.5 325 56.5 C 335.21875 56.5 343.5 64.78125 343.5 75 "/>
<path style=" stroke:none;fill-rule:nonzero;fill:rgb(91%,32.8%,95.2%);fill-opacity:1;" d="M 293 75 C 293 84.941406 284.941406 93 275 93 C 265.058594 93 257 84.941406 257 75 C 257 65.058594 265.058594 57 275 57 C 284.941406 57 293 65.058594 293 75 "/>
<path style=" stroke:none;fill-rule:nonzero;fill:rgb(49.7%,28.2%,34.9%);fill-opacity:1;" d="M 245 75 C 245 86.046875 236.046875 95 225 95 C 213.953125 95 205 86.046875 205 75 C 205 63.953125 213.953125 55 225 55 C 236.046875 55 245 63.953125 245 75 "/>
<path style=" stroke:none;fill-rule:nonzero;fill:rgb(61.9%,35.3%,37.3%);fill-opacity:1;" d="M 191 75 C 191 83.835938 183.835938 91 175 91 C 166.164062 91 159 83.835938 159 75 C 159 66.164062 166.164062 59 175 59 C 183.835938 59 191 66.164062 191 75 "/>
<path style=" stroke:none;fill-rule:nonzero;fill:rgb(70.7%,57.2%,57.6%);fill-opacity:1;" d="M 134.5 75 C 134.5 80.246094 130.246094 84.5 125 84.5 C 119.753906 84.5 115.5 80.246094 115.5 75 C 115.5 69.753906 119.753906 65.5 125 65.5 C 130.246094 65.5 134.5 69.753906 134.5 75 "/>
<path style=" stroke:none;fill-rule:nonzero;fill:rgb(40.6%,42.7%,92.4%);fill-opacity:1;" d="M 96.5 75 C 96.5 86.875 86.875 96.5 75 96.5 C 63.125 96.5 53.5 86.875 53.5 75 C 53.5 63.125 63.125 53.5 75 53.5 C 86.875 53.5 96.5 63.125 96.5 75 "/>
<path style=" stroke:none;fill-rule:nonzero;fill:rgb(44%,65.3%,20.3%);fill-opacity:1;" d="M 32.5 75 C 32.5 79.140625 29.140625 82.5 25 82.5 C 20.859375 82.5 17.5 79.140625 17.5 75 C 17.5 70.859375 20.859375 67.5 25 67.5 C 29.140625 67.5 32.5 70.859375 32.5 75 "/>
<path style=" stroke:none;fill-rule:nonzero;fill:rgb(19.4%,52.7%,91%);fill-opacity:1;" d="M 35 125 C 35 130.523438 30.523438 135 25 135 C 19.476562 135 15 130.523438 15 125 C 15 119.476562 19.476562 115 25 115 C 30.523438 115 35 119.476562 35 125 "/>
<path style=" stroke:none;fill-rule:nonzero;fill:rgb(48.2%,91.9%,46.8%);fill-opacity:1;" d="M 82 125 C 82 128.867188 78.867188 132 75 132 C 71.132812 132 68 128.867188 68 125 C 68 121.132812 71.132812 118 75 118 C 78.867188 118 82 121.132812 82 125 "/>
<path style=" stroke:none;fill-rule:nonzero;fill:rgb(62.8%,40.6%,92.2%);fill-opacity:1;" d="M 136.5 125 C 136.5 131.351562 131.351562 136.5 125 136.5 C 118.648438 136.5 113.5 131.351562 113.5 125 C 113.5 118.648438 118.648438 113.5 125 113.5 C 131.351562 113.5 136.5 118.648438 136.5 125 "/>
<path style=" stroke:none;fill-rule:nonzero;fill:rgb(48.9%,33.8%,48.3%);fill-opacity:1;" d="M 192 125 C 192 134.390625 184.390625 142 175 142 C 165.609375 142 158 134.390625 158 125 C 158 115.609375 165.609375 108 175 108 C 184.390625 108 192 115.609375 192 125 "/>
<path style=" stroke:none;fill-rule:nonzero;fill:rgb(60.3%,53.9%,8.1%);fill-opacity:1;" d="M 232 125 C 232 128.867188 228.867188 132 225 132 C 221.132812 132 218 128.867188 218 125 C 218 121.132812 221.132812 118 225 118 C 228.867188 118 232 121.132812 232 125 "/>
<path style=" stroke:none;fill-rule:nonzero;fill:rgb(63.5%,65.5%,54%);fill-opacity:1;" d="M 286.5 125 C 286.5 131.351562 281.351562 136.5 275 136.5 C 268.648438 136.5 263.5 131.351562 263.5 125 C 263.5 118.648438 268.648438 113.5 275 113.5 C 281.351562 113.5 286.5 118.648438 286.5 125 "/>
<path style=" stroke:none;fill-rule:nonzero;fill:rgb(8.4%,46%,5.7%);fill-opacity:1;" d="M 345 125 C 345 136.046875 336.046875 145 325 145 C 313.953125 145 305 136.046875 305 125 C 305 113.953125 313.953125 105 325 105 C 336.046875 105 345 113.953125 345 125 "/>
<path style=" stroke:none;fill-rule:nonzero;fill:rgb(63.6%,75%,70.8%);fill-opacity:1;" d="M 390 125 C 390 133.285156 383.285156 140 375 140 C 366.714844 140 360 133.285156 360 125 C 360 116.714844 366.714844 110 375 110 C 383.285156 110 390 116.714844 390 125 "/>
<path style=" stroke:none;fill-rule:nonzero;fill:rgb(33.9%,6.4%,45.3%);fill-opacity:1;" d="M 439 125 C 439 132.730469 432.730469 139 425 139 C 417.269531 139 411 132.730469 411 125 C 411 117.269531 417.269531 111 425 111 C 432.730469 111 439 117.269531 439 125 "/>
<path style=" stroke:none;fill-rule:nonzero;fill:rgb(34.9%,92.9%,51.1%);fill-opacity:1;" d="M 488 125 C 488 132.179688 482.179688 138 475 138 C 467.820312 138 462 132.179688 462 125 C 462 117.820312 467.820312 112 475 112 C 482.179688 112 488 117.820312 488 125 "/>
<path style=" stroke:none;fill-rule:nonzero;fill:rgb(70.1%,85.1%,95.3%);fill-opacity:1;" d="M 487.5 175 C 487.5 181.902344 481.902344 187.5 475 187.5 C 468.097656 187.5 462.5 181.902344 462.5 175 C 462.5 168.097656 468.097656 162.5 475 162.5 C 481.902344 162.5 487.5 168.097656 487.5 175 "/>
<path style=" stroke:none;fill-rule:nonzero;fill:rgb(0.9%,2.1%,68.5%);fill-opacity:1;" d="M 437 175 C 437 181.628906 431.628906 187 425 187 C 418.371094 187 413 181.628906 413 175 C 413 168.371094 418.371094 163 425 163 C 431.628906 163 437 168.371094 437 175 "/>
<path style=" stroke:none;fill-rule:nonzero;fill:rgb(82.8%,50.6%,70.3%);fill-opacity:1;" d="M 399.5 175 C 399.5 188.53125 388.53125 199.5 375 199.5 C 361.46875 199.5 350.5 188.53125 350.5 175 C 350.5 161.46875 361.46875 150.5 375 150.5 C 388.53125 150.5 399.5 161.46875 399.5 175 "/>
<path style=" stroke:none;fill-rule:nonzero;fill:rgb(17.6%,50.7%,23%);fill-opacity:1;" d="M 342.5 175 C 342.5 184.664062 334.664062 192.5 325 192.5 C 315.335938 192.5 307.5 184.664062 307.5 175 C 307.5 165.335938 315.335938 157.5 325 157.5 C 334.664062 157.5 342.5 165.335938 342.5 175 "/>
<path style=" stroke:none;fill-rule:nonzero;fill:rgb(23.5%,4.8%,41.5%);fill-opacity:1;" d="M 287.5 175 C 287.5 181.902344 281.902344 187.5 275 187.5 C 268.097656 187.5 262.5 181.902344 262.5 175 C 262.5 168.097656 268.097656 162.5 275 162.5 C 281.902344 162.5 287.5 168.097656 287.5 175 "/>
<path style=" stroke:none;fill-rule:nonzero;fill:rgb(23.1%,71.5%,48.8%);fill-opacity:1;" d="M 231 175 C 231 178.3125 228.3125 181 225 181 C 221.6875 181 219 178.3125 219 175 C 219 171.6875 221.6875 169 225 169 C 228.3125 169 231 171.6875 231 175 "/>
<path style=" stroke:none;fill-rule:nonzero;fill:rgb(60.3%,47%,54.4%);fill-opacity:1;" d="M 184 175 C 184 179.96875 179.96875 184 175 184 C 170.03125 184 166 179.96875 166 175 C 166 170.03125 170.03125 166 175 166 C 179.96875 166 184 170.03125 184 175 "/>
<path style=" stroke:none;fill-rule:nonzero;fill:rgb(46.6%,49.2%,95.3%);fill-opacity:1;" d="M 133.5 175 C 133.5 179.695312 129.695312 183.5 125 183.5 C 120.304688 183.5 116.5 179.695312 116.5 175 C 116.5 170.304688 120.304688 166.5 125 166.5 C 129.695312 166.5 133.5 170.304688 133.5 175 "/>
<path style=" stroke:none;fill-rule:nonzero;fill:rgb(75.4%,20.7%,4%);fill-opacity:1;" d="M 81.5 175 C 81.5 178.589844 78.589844 181.5 75 181.5 C 71.410156 181.5 68.5 178.589844 68.5 175 C 68.5 171.410156 71.410156 168.5 75 168.5 C 78.589844 168.5 81.5 171.410156 81.5 175 "/>
<path style=" stroke:none;fill-rule:nonzero;fill:rgb(5.7%,41.3%,7.6%);fill-opacity:1;" d="M 49.5 175 C 49.5 188.53125 38.53125 199.5 25 199.5 C 11.46875 199.5 0.5 188.53125 0.5 175 C 0.5 161.46875 11.46875 150.5 25 150.5 C 38.53125 150.5 49.5 161.46875 49.5 175 "/>
<path style=" stroke:none;fill-rule:nonzero;fill:rgb(95.2%,4.2%,57.8%);fill-opacity:1;" d="M 32 225 C 32 228.867188 28.867188 232 25 232 C 21.132812 232 18 228.867188 18 225 C 18 221.132812 21.132812 218 25 218 C 28.867188 218 32 221.132812 32 225 "/>
<path style=" stroke:none;fill-rule:nonzero;fill:rgb(97.4%,12.5%,42.6%);fill-opacity:1;" d="M 94.5 225 C 94.5 235.769531 85.769531 244.5 75 244.5 C 64.230469 244.5 55.5 235.769531 55.5 225 C 55.5 214.230469 64.230469 205.5 75 205.5 C 85.769531 205.5 94.5 214.230469 94.5 225 "/>
<path style=" stroke:none;fill-rule:nonzero;fill:rgb(92.2%,3%,6.9%);fill-opacity:1;" d="M 141 225 C 141 233.835938 133.835938 241 125 241 C 116.164062 241 109 233.835938 109 225 C 109 216.164062 116.164062 209 125 209 C 133.835938 209 141 216.164062 141 225 "/>
<path style=" stroke:none;fill-rule:nonzero;fill:rgb(87%,73.9%,25.7%);fill-opacity:1;" d="M 197.5 225 C 197.5 237.425781 187.425781 247.5 175 247.5 C 162.574219 247.5 152.5 237.425781 152.5 225 C 152.5 212.574219 162.574219 202.5 175 202.5 C 187.425781 202.5 197.5 212.574219 197.5 225 "/>
<path style=" stroke:none;fill-rule:nonzero;fill:rgb(74%,91.4%,51.6%);fill-opacity:1;" d="M 234 225 C 234 229.96875 229.96875 234 225 234 C 220.03125 234 216 229.96875 216 225 C 216 220.03125 220.03125 216 225 216 C 229.96875 216 234 220.03125 234 225 "/>
<path style=" stroke:none;fill-rule:nonzero;fill:rgb(77.5%,66.3%,40.7%);fill-opacity:1;" d="M 283 225 C 283 229.417969 279.417969 233 275 233 C 270.582031 233 267 229.417969 267 225 C 267 220.582031 270.582031 217 275 217 C 279.417969 217 283 220.582031 283 225 "/>
<path style=" stroke:none;fill-rule:nonzero;fill:rgb(22.5%,23.4%,4.8%);fill-opacity:1;" d="M 338 225 C 338 232.179688 332.179688 238 325 238 C 317.820312 238 312 232.179688 312 225 C 312 217.820312 317.820312 212 325 212 C 332.179688 212 338 217.820312 338 225 "/>
<path style=" stroke:none;fill-rule:nonzero;fill:rgb(7.4%,66.5%,57.7%);fill-opacity:1;" d="M 389.5 225 C 389.5 233.007812 383.007812 239.5 375 239.5 C 366.992188 239.5 360.5 233.007812 360.5 225 C 360.5 216.992188 366.992188 210.5 375 210.5 C 383.007812 210.5 389.5 216.992188 389.5 225 "/>
<path style=" stroke:none;fill-rule:nonzero;fill:rgb(95.8%,79.3%,19%);fill-opacity:1;" d="M 448.5 225 C 448.5 237.980469 437.980469 248.5 425 248.5 C 412.019531 248.5 401.5 237.980469 401.5 225 C 401.5 212.019531 412.019531 201.5 425 201.5 C 437.980469 201.5 448.5 212.019531 448.5 225 "/>
<path style=" stroke:none;fill-rule:nonzero;fill:rgb(58.3%,30.6%,42.2%);fill-opacity:1;" d="M 486 225 C 486 231.074219 481.074219 236 475 236 C 468.925781 236 464 231.074219 464 225 C 464 218.925781 468.925781 214 475 214 C 481.074219 214 486 218.925781 486 225 "/>
<path style=" stroke:none;fill-rule:nonzero;fill:rgb(26.6%,95.4%,17.3%);fill-opacity:1;" d="M 480.5 275 C 480.5 278.039062 478.039062 280.5 475 280.5 C 471.960938 280.5 469.5 278.039062 469.5 275 C 469.5 271.960938 471.960938 269.5 475 269.5 C 478.039062 269.5 480.5 271.960938 480.5 275 "/>
<path style=" stroke:none;fill-rule:nonzero;fill:rgb(41.5%,98.6%,30.2%);fill-opacity:1;" d="M 442 275 C 442 284.390625 434.390625 292 425 292 C 415.609375 292 408 284.390625 408 275 C 408 265.609375 415.609375 258 425 258 C 434.390625 258 442 265.609375 442 275 "/>
<path style=" stroke:none;fill-rule:nonzero;fill:rgb(13.1%,74.7%,22.5%);fill-opacity:1;" d="M 395 275 C 395 286.046875 386.046875 295 375 295 C 363.953125 295 355 286.046875 355 275 C 355 263.953125 363.953125 255 375 255 C 386.046875 255 395 263.953125 395 275 "/>
<path style=" stroke:none;fill-rule:nonzero;fill:rgb(37.6%,66.4%,96.6%);fill-opacity:1;" d="M 344 275 C 344 285.492188 335.492188 294 325 294 C 314.507812 294 306 285.492188 306 275 C 306 264.507812 314.507812 256 325 256 C 335.492188 256 344 264.507812 344 275 "/>
<path style=" stroke:none;fill-rule:nonzero;fill:rgb(51.1%,17.4%,5.4%);fill-opacity:1;" d="M 282.5 275 C 282.5 279.140625 279.140625 282.5 275 282.5 C 270.859375 282.5 267.5 279.140625 267.5 275 C 267.5 270.859375 270.859375 267.5 275 267.5 C 279.140625 267.5 282.5 270.859375 282.5 275 "/>
<path style=" stroke:none;fill-rule:nonzero;fill:rgb(60.3%,17.4%,75.5%);fill-opacity:1;" d="M 244 275 C 244 285.492188 235.492188 294 225 294 C 214.507812 294 206 285.492188 206 275 C 206 264.507812 214.507812 256 225 256 C 235.492188 256 244 264.507812 244 275 "/>
<path style=" stroke:none;fill-rule:nonzero;fill:rgb(55.8%,28.4%,84.9%);fill-opacity:1;" d="M 183 275 C 183 279.417969 179.417969 283 175 283 C 170.582031 283 167 279.417969 167 275 C 167 270.582031 170.582031 267 175 267 C 179.417969 267 183 270.582031 183 275 "/>
<path style=" stroke:none;fill-rule:nonzero;fill:rgb(46%,3.9%,31%);fill-opacity:1;" d="M 143 275 C 143 284.941406 134.941406 293 125 293 C 115.058594 293 107 284.941406 107 275 C 107 265.058594 115.058594 257 125 257 C 134.941406 257 143 265.058594 143 275 "/>
<path style=" stroke:none;fill-rule:nonzero;fill:rgb(88%,8.7%,29.2%);fill-opacity:1;" d="M 84.5 275 C 84.5 280.246094 80.246094 284.5 75 284.5 C 69.753906 284.5 65.5 280.246094 65.5 275 C 65.5 269.753906 69.753906 265.5 75 265.5 C 80.246094 265.5 84.5 269.753906 84.5 275 "/>
<path style=" stroke:none;fill-rule:nonzero;fill:rgb(81%,83.9%,98.4%);fill-opacity:1;" d="M 49 275 C 49 288.253906 38.253906 299 25 299 C 11.746094 299 1 288.253906 1 275 C 1 261.746094 11.746094 251 25 251 C 38.253906 251 49 261.746094 49 275 "/>
<path style=" stroke:none;fill-rule:nonzero;fill:rgb(56.9%,65.6%,72.2%);fill-opacity:1;" d="M 45.5 325 C 45.5 336.320312 36.320312 345.5 25 345.5 C 13.679688 345.5 4.5 336.320312 4.5 325 C 4.5 313.679688 13.679688 304.5 25 304.5 C 36.320312 304.5 45.5 313.679688 45.5 325 "/>
<path style=" stroke:none;fill-rule:nonzero;fill:rgb(3.2%,63.1%,45.1%);fill-opacity:1;" d="M 95 325 C 95 336.046875 86.046875 345 75 345 C 63.953125 345 55 336.046875 55 325 C 55 313.953125 63.953125 305 75 305 C 86.046875 305 95 313.953125 95 325 "/>
<path style=" stroke:none;fill-rule:nonzero;fill:rgb(1.9%,55.3%,81.9%);fill-opacity:1;" d="M 149 325 C 149 338.253906 138.253906 349 125 349 C 111.746094 349 101 338.253906 101 325 C 101 311.746094 111.746094 301 125 301 C 138.253906 301 149 311.746094 149 325 "/>
<path style=" stroke:none;fill-rule:nonzero;fill:rgb(13.8%,53.2%,23.3%);fill-opacity:1;" d="M 192.5 325 C 192.5 334.664062 184.664062 342.5 175 342.5 C 165.335938 342.5 157.5 334.664062 157.5 325 C 157.5 315.335938 165.335938 307.5 175 307.5 C 184.664062 307.5 192.5 315.335938 192.5 325 "/>
<path style=" stroke:none;fill-rule:nonzero;fill:rgb(6.9%,3%,52.4%);fill-opacity:1;" d="M 245 325 C 245 336.046875 236.046875 345 225 345 C 213.953125 345 205 336.046875 205 325 C 205 313.953125 213.953125 305 225 305 C 236.046875 305 245 313.953125 245 325 "/>
<path style=" stroke:none;fill-rule:nonzero;fill:rgb(15.1%,34.8%,79.7%);fill-opacity:1;" d="M 289 325 C 289 332.730469 282.730469 339 275 339 C 267.269531 339 261 332.730469 261 325 C 261 317.269531 267.269531 311 275 311 C 282.730469 311 289 317.269531 289 325 "/>
<path style=" stroke:none;fill-rule:nonzero;fill:rgb(67.7%,58.6%,87.7%);fill-opacity:1;" d="M 340 325 C 340 333.285156 333.285156 340 325 340 C 316.714844 340 310 333.285156 310 325 C 310 316.714844 316.714844 310 325 310 C 333.285156 310 340 316.714844 340 325 "/>
<path style=" stroke:none;fill-rule:nonzero;fill:rgb(1.6%,79.5%,46.4%);fill-opacity:1;" d="M 386.5 325 C 386.5 331.351562 381.351562 336.5 375 336.5 C 368.648438 336.5 363.5 331.351562 363.5 325 C 363.5 318.648438 368.648438 313.5 375 313.5 C 381.351562 313.5 386.5 318.648438 386.5 325 "/>
<path style=" stroke:none;fill-rule:nonzero;fill:rgb(71.9%,48.3%,70.2%);fill-opacity:1;" d="M 441 325 C 441 333.835938 433.835938 341 425 341 C 416.164062 341 409 333.835938 409 325 C 409 316.164062 416.164062 309 425 309 C 433.835938 309 441 316.164062 441 325 "/>
<path style=" stroke:none;fill-rule:nonzero;fill:rgb(55.4%,60.4%,52.6%);fill-opacity:1;" d="M 482.5 325 C 482.5 329.140625 479.140625 332.5 475 332.5 C 470.859375 332.5 467.5 329.140625 467.5 325 C 467.5 320.859375 470.859375 317.5 475 317.5 C 479.140625 317.5 482.5 320.859375 482.5 325 "/>
<path style=" stroke:none;fill-rule:nonzero;fill:rgb(10.1%,68.3%,23.8%);fill-opacity:1;" d="M 483.5 375 C 483.5 379.695312 479.695312 383.5 475 383.5 C 470.304688 383.5 466.5 379.695312 466.5 375 C 466.5 370.304688 470.304688 366.5 475 366.5 C 479.695312 366.5 483.5 370.304688 483.5 375 "/>
<path style=" stroke:none;fill-rule:nonzero;fill:rgb(95.5%,5.1%,38.9%);fill-opacity:1;" d="M 432 375 C 432 378.867188 428.867188 382 425 382 C 421.132812 382 418 378.867188 418 375 C 418 371.132812 421.132812 368 425 368 C 428.867188 368 432 371.132812 432 375 "/>
<path style=" stroke:none;fill-rule:nonzero;fill:rgb(55.6%,76.5%,42.2%);fill-opacity:1;" d="M 396 375 C 396 386.597656 386.597656 396 375 396 C 363.402344 396 354 386.597656 354 375 C 354 363.402344 363.402344 354 375 354 C 386.597656 354 396 363.402344 396 375 "/>
<path style=" stroke:none;fill-rule:nonzero;fill:rgb(15%,98.6%,29.4%);fill-opacity:1;" d="M 332 375 C 332 378.867188 328.867188 382 325 382 C 321.132812 382 318 378.867188 318 375 C 318 371.132812 321.132812 368 325 368 C 328.867188 368 332 371.132812 332 375 "/>
<path style=" stroke:none;fill-rule:nonzero;fill:rgb(52.7%,65%,48.8%);fill-opacity:1;" d="M 298 375 C 298 387.703125 287.703125 398 275 398 C 262.296875 398 252 387.703125 252 375 C 252 362.296875 262.296875 352 275 352 C 287.703125 352 298 362.296875 298 375 "/>
<path style=" stroke:none;fill-rule:nonzero;fill:rgb(30.8%,16.1%,14.3%);fill-opacity:1;" d="M 245 375 C 245 386.046875 236.046875 395 225 395 C 213.953125 395 205 386.046875 205 375 C 205 363.953125 213.953125 355 225 355 C 236.046875 355 245 363.953125 245 375 "/>
<path style=" stroke:none;fill-rule:nonzero;fill:rgb(62.1%,63.3%,33.4%);fill-opacity:1;" d="M 195 375 C 195 386.046875 186.046875 395 175 395 C 163.953125 395 155 386.046875 155 375 C 155 363.953125 163.953125 355 175 355 C 186.046875 355 195 363.953125 195 375 "/>
<path style=" stroke:none;fill-rule:nonzero;fill:rgb(70.6%,48.6%,0.2%);fill-opacity:1;" d="M 143.5 375 C 143.5 385.21875 135.21875 393.5 125 393.5 C 114.78125 393.5 106.5 385.21875 106.5 375 C 106.5 364.78125 114.78125 356.5 125 356.5 C 135.21875 356.5 143.5 364.78125 143.5 375 "/>
<path style=" stroke:none;fill-rule:nonzero;fill:rgb(40.6%,63.3%,25.5%);fill-opacity:1;" d="M 83 375 C 83 379.417969 79.417969 383 75 383 C 70.582031 383 67 379.417969 67 375 C 67 370.582031 70.582031 367 75 367 C 79.417969 367 83 370.582031 83 375 "/>
<path style=" stroke:none;fill-rule:nonzero;fill:rgb(28.6%,64%,78.2%);fill-opacity:1;" d="M 33.5 375 C 33.5 379.695312 29.695312 383.5 25 383.5 C 20.304688 383.5 16.5 379.695312 16.5 375 C 16.5 370.304688 20.304688 366.5 25 366.5 C 29.695312 366.5 33.5 370.304688 33.5 375 "/>
<path style=" stroke:none;fill-rule:nonzero;fill:rgb(97.9%,61.4%,21.9%);fill-opacity:1;" d="M 30 425 C 30 431.667969 20 431.667969 20 425 C 20 418.332031 30 418.332031 30 425 "/>
<path style=" stroke:none;fill-rule:nonzero;fill:rgb(58.9%,10.8%,50.5%);fill-opacity:1;" d="M 94.5 425 C 94.5 435.769531 85.769531 444.5 75 444.5 C 64.230469 444.5 55.5 435.769531 55.5 425 C 55.5 414.230469 64.230469 405.5 75 405.5 C 85.769531 405.5 94.5 414.230469 94.5 425 "/>
<path style=" stroke:none;fill-rule:nonzero;fill:rgb(51.6%,41%,81.3%);fill-opacity:1;" d="M 148 425 C 148 437.703125 137.703125 448 125 448 C 112.296875 448 102 437.703125 102 425 C 102 412.296875 112.296875 402 125 402 C 137.703125 402 148 412.296875 148 425 "/>
<path style=" stroke:none;fill-rule:nonzero;fill:rgb(62.5%,18.1%,49.7%);fill-opacity:1;" d="M 190.5 425 C 190.5 433.558594 183.558594 440.5 175 440.5 C 166.441406 440.5 159.5 433.558594 159.5 425 C 159.5 416.441406 166.441406 409.5 175 409.5 C 183.558594 409.5 190.5 416.441406 190.5 425 "/>
<path style=" stroke:none;fill-rule:nonzero;fill:rgb(47.7%,56.5%,54.4%);fill-opacity:1;" d="M 242 425 C 242 434.390625 234.390625 442 225 442 C 215.609375 442 208 434.390625 208 425 C 208 415.609375 215.609375 408 225 408 C 234.390625 408 242 415.609375 242 425 "/>
<path style=" stroke:none;fill-rule:nonzero;fill:rgb(57.3%,43.8%,68.1%);fill-opacity:1;" d="M 298 425 C 298 437.703125 287.703125 448 275 448 C 262.296875 448 252 437.703125 252 425 C 252 412.296875 262.296875 402 275 402 C 287.703125 402 298 412.296875 298 425 "/>
<path style=" stroke:none;fill-rule:nonzero;fill:rgb(85.5%,12.1%,5.7%);fill-opacity:1;" d="M 345.5 425 C 345.5 436.320312 336.320312 445.5 325 445.5 C 313.679688 445.5 304.5 436.320312 304.5 425 C 304.5 413.679688 313.679688 404.5 325 404.5 C 336.320312 404.5 345.5 413.679688 345.5 425 "/>
<path style=" stroke:none;fill-rule:nonzero;fill:rgb(3.2%,81%,4.3%);fill-opacity:1;" d="M 381 425 C 381 428.3125 378.3125 431 375 431 C 371.6875 431 369 428.3125 369 425 C 369 421.6875 371.6875 419 375 419 C 378.3125 419 381 421.6875 381 425 "/>
<path style=" stroke:none;fill-rule:nonzero;fill:rgb(44.3%,18.9%,49.6%);fill-opacity:1;" d="M 450 425 C 450 438.808594 438.808594 450 425 450 C 411.191406 450 400 438.808594 400 425 C 400 411.191406 411.191406 400 425 400 C 438.808594 400 450 411.191406 450 425 "/>
<path style=" stroke:none;fill-rule:nonzero;fill:rgb(70.1%,93.7%,41.5%);fill-opacity:1;" d="M 484 425 C 484 429.96875 479.96875 434 475 434 C 470.03125 434 466 429.96875 466 425 C 466 420.03125 470.03125 416 475 416 C 479.96875 416 484 420.03125 484 425 "/>
<path style=" stroke:none;fill-rule:nonzero;fill:rgb(13.1%,28.4%,1.9%);fill-opacity:1;" d="M 485.5 475 C 485.5 480.800781 480.800781 485.5 475 485.5 C 469.199219 485.5 464.5 480.800781 464.5 475 C 464.5 469.199219 469.199219 464.5 475 464.5 C 480.800781 464.5 485.5 469.199219 485.5 475 "/>
<path style=" stroke:none;fill-rule:nonzero;fill:rgb(2.2%,78.1%,37.4%);fill-opacity:1;" d="M 430.5 475 C 430.5 478.039062 428.039062 480.5 425 480.5 C 421.960938 480.5 419.5 478.039062 419.5 475 C 419.5 471.960938 421.960938 469.5 425 469.5 C 428.039062 469.5 430.5 471.960938 430.5 475 "/>
<path style=" stroke:none;fill-rule:nonzero;fill:rgb(15.6%,30.8%,86.4%);fill-opacity:1;" d="M 386 475 C 386 481.074219 381.074219 486 375 486 C 368.925781 486 364 481.074219 364 475 C 364 468.925781 368.925781 464 375 464 C 381.074219 464 386 468.925781 386 475 "/>
<path style=" stroke:none;fill-rule:nonzero;fill:rgb(66.4%,13.5%,61.9%);fill-opacity:1;" d="M 340 475 C 340 483.285156 333.285156 490 325 490 C 316.714844 490 310 483.285156 310 475 C 310 466.714844 316.714844 460 325 460 C 333.285156 460 340 466.714844 340 475 "/>
<path style=" stroke:none;fill-rule:nonzero;fill:rgb(82.1%,78%,19%);fill-opacity:1;" d="M 294.5 475 C 294.5 485.769531 285.769531 494.5 275 494.5 C 264.230469 494.5 255.5 485.769531 255.5 475 C 255.5 464.230469 264.230469 455.5 275 455.5 C 285.769531 455.5 294.5 464.230469 294.5 475 "/>
<path style=" stroke:none;fill-rule:nonzero;fill:rgb(88%,65%,95.7%);fill-opacity:1;" d="M 249.5 475 C 249.5 488.53125 238.53125 499.5 225 499.5 C 211.46875 499.5 200.5 488.53125 200.5 475 C 200.5 461.46875 211.46875 450.5 225 450.5 C 238.53125 450.5 249.5 461.46875 249.5 475 "/>
<path style=" stroke:none;fill-rule:nonzero;fill:rgb(37.6%,38.6%,42.1%);fill-opacity:1;" d="M 183.5 475 C 183.5 479.695312 179.695312 483.5 175 483.5 C 170.304688 483.5 166.5 479.695312 166.5 475 C 166.5 470.304688 170.304688 466.5 175 466.5 C 179.695312 466.5 183.5 470.304688 183.5 475 "/>
<path style=" stroke:none;fill-rule:nonzero;fill:rgb(88.7%,13.5%,46.4%);fill-opacity:1;" d="M 146.5 475 C 146.5 486.875 136.875 496.5 125 496.5 C 113.125 496.5 103.5 486.875 103.5 475 C 103.5 463.125 113.125 453.5 125 453.5 C 136.875 453.5 146.5 463.125 146.5 475 "/>
<path style=" stroke:none;fill-rule:nonzero;fill:rgb(38.3%,19.6%,27.2%);fill-opacity:1;" d="M 93.5 475 C 93.5 485.21875 85.21875 493.5 75 493.5 C 64.78125 493.5 56.5 485.21875 56.5 475 C 56.5 464.78125 64.78125 456.5 75 456.5 C 85.21875 456.5 93.5 464.78125 93.5 475 "/>
<path style=" stroke:none;fill-rule:nonzero;fill:rgb(69.8%,93.6%,22.1%);fill-opacity:1;" d="M 30.5 475 C 30.5 478.039062 28.039062 480.5 25 480.5 C 21.960938 480.5 19.5 478.039062 19.5 475 C 19.5 471.960938 21.960938 469.5 25 469.5 C 28.039062 469.5 30.5 471.960938 30.5 475 "/>
<path style="fill:none;stroke-width:0.01;stroke-linecap:butt;stroke-linejoin:miter;stroke:rgb(0.2%,1.8%,75.2%);stroke-opacity:1;stroke-miterlimit:10;" d="M 0.05 0.05 C 0.15 0.05 0.25 0.05 0.35 0.05 " transform="matrix(500,0,0,500,0,0)"/>
<path style="fill:none;stroke-width:0.01;stroke-linecap:butt;stroke-linejoin:miter;stroke:rgb(7.6%,31.7%,50.8%);stroke-opacity:1;stroke-miterlimit:10;" d="M 0.35 0.05 C 0.45 0.05 0.55 0.05 0.65 0.05 " transform="matrix(500,0,0,500,0,0)"/>
<path style="fill:none;stroke-width:0.01;stroke-linecap:butt;stroke-linejoin:miter;stroke:rgb(45.2%,33.5%,87.3%);stroke-opacity:1;stroke-miterlimit:10;" d="M 0.65 0.05 C 0.75 0.05 0.85 0.05 0.95 0.05 " transform="matrix(500,0,0,500,0,0)"/>
<path style="fill:none;stroke-width:0.01;stroke-linecap:butt;stroke-linejoin:miter;stroke:rgb(17.4%,91.5%,97.9%);stroke-opacity:1;stroke-miterlimit:10;" d="M 0.95 0.05 C 0.95 0.15 0.85 0.15 0.75 0.15 " transform="matrix(500,0,0,500,0,0)"/>
<path style="fill:none;stroke-width:0.01;stroke-linecap:butt;stroke-linejoin:miter;stroke:rgb(54%,5.2%,74.5%);stroke-opacity:1;stroke-miterlimit:10;" d="M 0.75 0.15 C 0.65 0.15 0.55 0.15 0.45 0.15 " transform="matrix(500,0,0,500,0,0)"/>
<path style="fill:none;stroke-width:0.01;stroke-linecap:butt;stroke-linejoin:miter;stroke:rgb(57%,54.6%,42.7%);stroke-opacity:1;stroke-miterlimit:10;" d="M 0.45 0.15 C 0.35 0.15 0.25 0.15 0.15 0.15 " transform="matrix(500,0,0,500,0,0)"/>
<path style="fill:none;stroke-width:0.01;stroke-linecap:butt;stroke-linejoin:miter;stroke:rgb(69.4%,59.9%,92.6%);stroke-opacity:1;stroke-miterlimit:10;" d="M 0.15 0.15 C 0.05 0.15 0.05 0.25 0.15 0.25 " transform="matrix(500,0,0,500,0,0)"/>
<path style="fill:none;stroke-width:0.01;stroke-linecap:butt;stroke-linejoin:miter;stroke:rgb(27.5%,54.5%,90.7%);stroke-opacity:1;stroke-miterlimit:10;" d="M 0.15 0.25 C 0.25 0.25 0.35 0.25 0.45 0.25 " transform="matrix(500,0,0,500,0,0)"/>
<path style="fill:none;stroke-width:0.01;stroke-linecap:butt;stroke-linejoin:miter;stroke:rgb(88.4%,94.9%,24.2%);stroke-opacity:1;stroke-miterlimit:10;" d="M 0.45 0.25 C 0.55 0.25 0.65 0.25 0.75 0.25 " transform="matrix(500,0,0,500,0,0)"/>
<path style="fill:none;stroke-width:0.01;stroke-linecap:butt;stroke-linejoin:miter;stroke:rgb(19.7%,96.5%,32.6%);stroke-opacity:1;stroke-miterlimit:10;" d="M 0.75 0.25 C 0.85 0.25 0.95 0.25 0.95 0.35 " transform="matrix(500,0,0,500,0,0)"/>
<path style="fill:none;stroke-width:0.01;stroke-linecap:butt;stroke-linejoin:miter;stroke:rgb(91.6%,45.4%,41.8%);stroke-opacity:1;stroke-miterlimit:10;" d="M 0.95 0.35 C 0.85 0.35 0.75 0.35 0.65 0.35 " transform="matrix(500,0,0,500,0,0)"/>
<path style="fill:none;stroke-width:0.01;stroke-linecap:butt;stroke-linejoin:miter;stroke:rgb(36.9%,58.9%,52%);stroke-opacity:1;stroke-miterlimit:10;" d="M 0.65 0.35 C 0.55 0.35 0.45 0.35 0.35 0.35 " transform="matrix(500,0,0,500,0,0)"/>
<path style="fill:none;stroke-width:0.01;stroke-linecap:butt;stroke-linejoin:miter;stroke:rgb(42.1%,7.3%,25.5%);stroke-opacity:1;stroke-miterlimit:10;" d="M 0.35 0.35 C 0.25 0.35 0.15 0.35 0.05 0.35 " transform="matrix(500,0,0,500,0,0)"/>
<path style="fill:none;stroke-width:0.01;stroke-linecap:butt;stroke-linejoin:miter;stroke:rgb(43.7%,55.5%,46.9%);stroke-opacity:1;stroke-miterlimit:10;" d="M 0.05 0.35 C 0.05 0.45 0.15 0.45 0.25 0.45 " transform="matrix(500,0,0,500,0,0)"/>
<path style="fill:none;stroke-width:0.01;stroke-linecap:butt;stroke-linejoin:miter;stroke:rgb(47.7%,91.1%,93%);stroke-opacity:1;stroke-miterlimit:10;" d="M 0.25 0.45 C 0.35 0.45 0.45 0.45 0.55 0.45 " transform="matrix(500,0,0,500,0,0)"/>
<path style="fill:none;stroke-width:0.01;stroke-linecap:butt;stroke-linejoin:miter;stroke:rgb(12.7%,90.1%,27%);stroke-opacity:1;stroke-miterlimit:10;" d="M 0.55 0.45 C 0.65 0.45 0.75 0.45 0.85 0.45 " transform="matrix(500,0,0,500,0,0)"/>
<path style="fill:none;stroke-width:0.01;stroke-linecap:butt;stroke-linejoin:miter;stroke:rgb(80.3%,69.4%,45.4%);stroke-opacity:1;stroke-miterlimit:10;" d="M 0.85 0.45 C 0.95 0.45 0.95 0.55 0.85 0.55 " transform="matrix(500,0,0,500,0,0)"/>
<path style="fill:none;stroke-width:0.01;stroke-linecap:butt;stroke-linejoin:miter;stroke:rgb(64.6%,80.4%,59.8%);stroke-opacity:1;stroke-miterlimit:10;" d="M 0.85 0.55 C 0.75 0.55 0.65 0.55 0.55 0.55 " transform="matrix(500,0,0,500,0,0)"/>
<path style="fill:none;stroke-width:0.01;stroke-linecap:butt;stroke-linejoin:miter;stroke:rgb(84.3%,5.8%,10.8%);stroke-opacity:1;stroke-miterlimit:10;" d="M 0.55 0.55 C 0.45 0.55 0.35 0.55 0.25 0.55 " transform="matrix(500,0,0,500,0,0)"/>
<path style="fill:none;stroke-width:0.01;stroke-linecap:butt;stroke-linejoin:miter;stroke:rgb(16.8%,31.2%,55.5%);stroke-opacity:1;stroke-miterlimit:10;" d="M 0.25 0.55 C 0.15 0.55 0.05 0.55 0.05 0.65 " transform="matrix(500,0,0,500,0,0)"/>
<path style="fill:none;stroke-width:0.01;stroke-linecap:butt;stroke-linejoin:miter;stroke:rgb(74.1%,87.8%,74.9%);stroke-opacity:1;stroke-miterlimit:10;" d="M 0.05 0.65 C 0.15 0.65 0.25 0.65 0.35 0.65 " transform="matrix(500,0,0,500,0,0)"/>
<path style="fill:none;stroke-width:0.01;stroke-linecap:butt;stroke-linejoin:miter;stroke:rgb(94.8%,38%,22.5%);stroke-opacity:1;stroke-miterlimit:10;" d="M 0.35 0.65 C 0.45 0.65 0.55 0.65 0.65 0.65 " transform="matrix(500,0,0,500,0,0)"/>
<path style="fill:none;stroke-width:0.01;stroke-linecap:butt;stroke-linejoin:miter;stroke:rgb(61.8%,47%,45.2%);stroke-opacity:1;stroke-miterlimit:10;" d="M 0.65 0.65 C 0.75 0.65 0.85 0.65 0.95 0.65 " transform="matrix(500,0,0,500,0,0)"/>
<path style="fill:none;stroke-width:0.01;stroke-linecap:butt;stroke-linejoin:miter;stroke:rgb(100%,42.4%,33.8%);stroke-opacity:1;stroke-miterlimit:10;" d="M 0.95 0.65 C 0.95 0.75 0.85 0.75 0.75 0.75 " transform="matrix(500,0,0,500,0,0)"/>
<path style="fill:none;stroke-width:0.01;stroke-linecap:butt;stroke-linejoin:miter;stroke:rgb(21.5%,1.6%,22.9%);stroke-opacity:1;stroke-miterlimit:10;" d="M 0.75 0.75 C 0.65 0.75 0.55 0.75 0.45 0.75 " transform="matrix(500,0,0,500,0,0)"/>
<path style="fill:none;stroke-width:0.01;stroke-linecap:butt;stroke-linejoin:miter;stroke:rgb(33.2%,74.1%,71.9%);stroke-opacity:1;stroke-miterlimit:10;" d="M 0.45 0.75 C 0.35 0.75 0.25 0.75 0.15 0.75 " transform="matrix(500,0,0,500,0,0)"/>
<path style="fill:none;stroke-width:0.01;stroke-linecap:butt;stroke-linejoin:miter;stroke:rgb(56.6%,86%,83.1%);stroke-opacity:1;stroke-miterlimit:10;" d="M 0.15 0.75 C 0.05 0.75 0.05 0.85 0.15 0.85 " transform="matrix(500,0,0,500,0,0)"/>
<path style="fill:none;stroke-width:0.01;stroke-linecap:butt;stroke-linejoin:miter;stroke:rgb(74.8%,19%,67.2%);stroke-opacity:1;stroke-miterlimit:10;" d="M 0.15 0.85 C 0.25 0.85 0.35 0.85 0.45 0.85 " transform="matrix(500,0,0,500,0,0)"/>
<path style="fill:none;stroke-width:0.01;stroke-linecap:butt;stroke-linejoin:miter;stroke:rgb(13.7%,55.8%,12.9%);stroke-opacity:1;stroke-miterlimit:10;" d="M 0.45 0.85 C 0.55 0.85 0.65 0.85 0.75 0.85 " transform="matrix(500,0,0,500,0,0)"/>
<path style="fill:none;stroke-width:0.01;stroke-linecap:butt;stroke-linejoin:miter;stroke:rgb(55.4%,59%,92.9%);stroke-opacity:1;stroke-miterlimit:10;" d="M 0.75 0.85 C 0.85 0.85 0.95 0.85 0.95 0.95 " transform="matrix(500,0,0,500,0,0)"/>
<path style="fill:none;stroke-width:0.01;stroke-linecap:butt;stroke-linejoin:miter;stroke:rgb(18.3%,87.4%,56%);stroke-opacity:1;stroke-miterlimit:10;" d="M 0.95 0.95 C 0.85 0.95 0.75 0.95 0.65 0.95 " transform="matrix(500,0,0,500,0,0)"/>
<path style="fill:none;stroke-width:0.01;stroke-linecap:butt;stroke-linejoin:miter;stroke:rgb(86.8%,50.9%,66.1%);stroke-opacity:1;stroke-miterlimit:10;" d="M 0.65 0.95 C 0.55 0.95 0.45 0.95 0.35 0.95 " transform="matrix(500,0,0,500,0,0)"/>
<path style="fill:none;stroke-width:0.01;stroke-linecap:butt;stroke-linejoin:miter;stroke:rgb(18.1%,69.1%,78%);stroke-opacity:1;stroke-miterlimit:10;" d="M 0.35 0.95 C 0.25 0.95 0.15 0.95 0.05 0.95 " transform="matrix(500,0,0,500,0,0)"/>
<path style=" stroke:none;fill-rule:nonzero;fill:rgb(21.6%,85.3%,39.9%);fill-opacity:0.5;" d="M 64.5 63.5 L 9 59.5 L -8.5 -6 L 64.5 63.5 "/>
<path style=" stroke:none;fill-rule:nonzero;fill:rgb(46.9%,46%,39%);fill-opacity:0.5;" d="M 119.5 83 L 179.5 99 L 182.5 42.5 L 119.5 83 "/>
<path style=" stroke:none;fill-rule:nonzero;fill:rgb(36.8%,22%,81.1%);fill-opacity:0.5;" d="M 203.5 60 L 272.5 39.5 L 261 -32.5 L 203.5 60 "/>
<path style=" stroke:none;fill-rule:nonzero;fill:rgb(50.6%,80.4%,73.1%);fill-opacity:0.5;" d="M 375 68 L 310.5 73.5 L 315 5 L 375 68 "/>
<path style=" stroke:none;fill-rule:nonzero;fill:rgb(97.3%,6.3%,64.7%);fill-opacity:0.5;" d="M 405.5 27 L 463.5 2 L 445.5 55.5 L 405.5 27 "/>
<path style=" stroke:none;fill-rule:nonzero;fill:rgb(99.2%,72.8%,8.9%);fill-opacity:0.5;" d="M 458 199.5 L 389 179 L 399.5 110.5 L 458 199.5 "/>
<path style=" stroke:none;fill-rule:nonzero;fill:rgb(46.8%,83.7%,95.7%);fill-opacity:0.5;" d="M 303.5 157.5 L 354.5 175 L 379.5 101 L 303.5 157.5 "/>
<path style=" stroke:none;fill-rule:nonzero;fill:rgb(58%,73.3%,76.4%);fill-opacity:0.5;" d="M 243 126.5 L 310 143.5 L 285 195 L 243 126.5 "/>
<path style=" stroke:none;fill-rule:nonzero;fill:rgb(90.2%,56.1%,60.5%);fill-opacity:0.5;" d="M 190.5 172 L 134 156.5 L 118.5 92.5 L 190.5 172 "/>
<path style=" stroke:none;fill-rule:nonzero;fill:rgb(92%,81.6%,4.5%);fill-opacity:0.5;" d="M 48 165 L 100 174.5 L 86 109.5 L 48 165 "/>
<path style=" stroke:none;fill-rule:nonzero;fill:rgb(26.1%,55.9%,74.5%);fill-opacity:0.5;" d="M 25 298.5 L 88.5 320.5 L 94.5 259 L 25 298.5 "/>
<path style=" stroke:none;fill-rule:nonzero;fill:rgb(50.4%,26.5%,51.4%);fill-opacity:0.5;" d="M 107.5 252 L 180 247 L 172.5 183 L 107.5 252 "/>
<path style=" stroke:none;fill-rule:nonzero;fill:rgb(34.4%,5.1%,5.2%);fill-opacity:0.5;" d="M 249 204.5 L 315.5 221.5 L 328.5 271.5 L 249 204.5 "/>
<path style=" stroke:none;fill-rule:nonzero;fill:rgb(92.6%,32.8%,32%);fill-opacity:0.5;" d="M 376 225 L 325.5 240.5 L 346 301 L 376 225 "/>
<path style=" stroke:none;fill-rule:nonzero;fill:rgb(18.3%,54.5%,71.7%);fill-opacity:0.5;" d="M 422 268.5 L 485 263 L 479.5 208.5 L 422 268.5 "/>
<path style=" stroke:none;fill-rule:nonzero;fill:rgb(5.4%,31.1%,73.5%);fill-opacity:0.5;" d="M 453 346 L 386 341.5 L 409.5 393.5 L 453 346 "/>
<path style=" stroke:none;fill-rule:nonzero;fill:rgb(50.1%,12.9%,9.8%);fill-opacity:0.5;" d="M 319.5 326 L 392 306 L 388.5 373 L 319.5 326 "/>
<path style=" stroke:none;fill-rule:nonzero;fill:rgb(91.5%,11.7%,29.1%);fill-opacity:0.5;" d="M 200.5 336 L 270.5 341.5 L 265.5 407.5 L 200.5 336 "/>
<path style=" stroke:none;fill-rule:nonzero;fill:rgb(39%,22.9%,13.6%);fill-opacity:0.5;" d="M 191 377 L 116.5 369 L 121.5 308 L 191 377 "/>
<path style=" stroke:none;fill-rule:nonzero;fill:rgb(11.1%,61.2%,21.4%);fill-opacity:0.5;" d="M 39 397.5 L 95.5 389.5 L 83.5 320 L 39 397.5 "/>
<path style=" stroke:none;fill-rule:nonzero;fill:rgb(39.8%,49.9%,2.2%);fill-opacity:0.5;" d="M 52 444.5 L -15 446.5 L -31 520 L 52 444.5 "/>
<path style=" stroke:none;fill-rule:nonzero;fill:rgb(53.7%,28%,52.5%);fill-opacity:0.5;" d="M 197.5 406.5 L 138 399.5 L 117 462.5 L 197.5 406.5 "/>
<path style=" stroke:none;fill-rule:nonzero;fill:rgb(18.9%,24%,68.7%);fill-opacity:0.5;" d="M 236 483 L 310.5 504 L 323.5 448.5 L 236 483 "/>
<path style=" stroke:none;fill-rule:nonzero;fill:rgb(62.1%,87.1%,44.6%);fill-opacity:0.5;" d="M 397 497.5 L 326 501 L 346 442.5 L 397 497.5 "/>
<path style=" stroke:none;fill-rule:nonzero;fill:rgb(10%,22.8%,40%);fill-opacity:0.5;" d="M 450 439 L 400 459 L 413.5 519.5 L 450 439 "/>
<path style="fill:none;stroke-width:0.002;stroke-linecap:butt;stroke-linejoin:miter;stroke:rgb(69.5%,47.6%,65.3%);stroke-opacity:1;stroke-miterlimit:10;" d="M 0.145 0.971 L 0.517 0.507 " transform="matrix(500,0,0,500,0,0)"/>
<path style="fill:none;stroke-width:0.002;stroke-linecap:butt;stroke-linejoin:miter;stroke:rgb(28.7%,19.9%,97.4%);stroke-opacity:1;stroke-miterlimit:10;" d="M 0.79 0.954 L 0.965 0.165 " transform="matrix(500,0,0,500,0,0)"/>
<path style="fill:none;stroke-width:0.002;stroke-linecap:butt;stroke-linejoin:miter;stroke:rgb(17%,34.6%,40.5%);stroke-opacity:1;stroke-miterlimit:10;" d="M 0.11 0.849 L 0.773 0.363 " transform="matrix(500,0,0,500,0,0)"/>
<path style="fill:none;stroke-width:0.002;stroke-linecap:butt;stroke-linejoin:miter;stroke:rgb(35.8%,9.7%,0.7%);stroke-opacity:1;stroke-miterlimit:10;" d="M 0.533 0.741 L 0.526 0.526 " transform="matrix(500,0,0,500,0,0)"/>
<path style="fill:none;stroke-width:0.002;stroke-linecap:butt;stroke-linejoin:miter;stroke:rgb(18.3%,88.2%,48.3%);stroke-opacity:1;stroke-miterlimit:10;" d="M 0.907 0.043 L 0.025 0.334 " transform="matrix(500,0,0,500,0,0)"/>
<path style="fill:none;stroke-width:0.002;stroke-linecap:butt;stroke-linejoin:miter;stroke:rgb(65.4%,81.8%,57.2%);stroke-opacity:1;stroke-miterlimit:10;" d="M 0.881 0.882 L 0.302 0.554 " transform="matrix(500,0,0,500,0,0)"/>
<path style="fill:none;stroke-width:0.002;stroke-linecap:butt;stroke-linejoin:miter;stroke:rgb(86.2%,23.4%,57.8%);stroke-opacity:1;stroke-miterlimit:10;" d="M 0.478 0.094 L 0.808 0.676 " transform="matrix(500,0,0,500,0,0)"/>
<path style="fill:none;stroke-width:0.002;stroke-linecap:butt;stroke-linejoin:miter;stroke:rgb(50.7%,29.9%,44.1%);stroke-opacity:1;stroke-miterlimit:10;" d="M 0.899 0.427 L 0.85 0.479 " transform="matrix(500,0,0,500,0,0)"/>
<path style="fill:none;stroke-width:0.002;stroke-linecap:butt;stroke-linejoin:miter;stroke:rgb(24.9%,51.8%,62.4%);stroke-opacity:1;stroke-miterlimit:10;" d="M 0.327 0.416 L 0.009 0.009 " transform="matrix(500,0,0,500,0,0)"/>
<path style="fill:none;stroke-width:0.002;stroke-linecap:butt;stroke-linejoin:miter;stroke:rgb(12.6%,24.4%,54.8%);stroke-opacity:1;stroke-miterlimit:10;" d="M 0.835 0.386 L 0.356 0.087 " transform="matrix(500,0,0,500,0,0)"/>
</g>
</defs>
<g id="surface345">
<use xlink:href="#surface348"/>
</g>
</svg>
