<?xml version="1.0" encoding="UTF-8"?>
<svg xmlns="http://www.w3.org/2000/svg" xmlns:xlink="http://www.w3.org/1999/xlink" width="500pt" height="500pt" viewBox="0 0 500 500" version="1.1">
<defs>
<clipPath id="clip1">
  <rect x="0" y="0" width="500" height="500"/>
</clipPath>
<g id="surface205" clip-path="url(#clip1)">
<rect x="0" y="0" width="500" height="500" style="fill:rgb(100%,100%,100%);fill-opacity:1;stroke:none;"/>
<path style=" stroke:none;fill-rule:nonzero;fill:rgb(40.9%,74.7%,75.4%);fill-opacity:1;" d="M 468 33 C 468 53.160156 451.660156 69.5 431.5 69.5 C 411.339844 69.5 395 53.160156 395 33 C 395 12.839844 411.339844 -3.5 431.5 -3.5 C 451.660156 -3.5 468 12.839844 468 33 "/>
<path style=" stroke:none;fill-rule:nonzero;fill:rgb(14.3%,18.5%,20.5%);fill-opacity:1;" d="M 491 251.5 C 491 264.753906 480.253906 275.5 467 275.5 C 453.746094 275.5 443 264.753906 443 251.5 C 443 238.246094 453.746094 227.5 467 227.5 C 480.253906 227.5 491 238.246094 491 251.5 "/>
<path style=" stroke:none;fill-rule:nonzero;fill:rgb(9%,59.9%,66.2%);fill-opacity:1;" d="M 101 243.5 C 101 268.628906 80.628906 289 55.5 289 C 30.371094 289 10 268.628906 10 243.5 C 10 218.371094 30.371094 198 55.5 198 C 80.628906 198 101 218.371094 101 243.5 "/>
<path style=" stroke:none;fill-rule:nonzero;fill:rgb(8.8%,75.3%,64.7%);fill-opacity:1;" d="M 146.5 169 C 146.5 181.425781 136.425781 191.5 124 191.5 C 111.574219 191.5 101.5 181.425781 101.5 169 C 101.5 156.574219 111.574219 146.5 124 146.5 C 136.425781 146.5 146.5 156.574219 146.5 169 "/>
<path style=" stroke:none;fill-rule:nonzero;fill:rgb(99%,19.2%,44.3%);fill-opacity:1;" d="M 276.5 431 C 276.5 452.539062 259.039062 470 237.5 470 C 215.960938 470 198.5 452.539062 198.5 431 C 198.5 409.460938 215.960938 392 237.5 392 C 259.039062 392 276.5 409.460938 276.5 431 "/>
<path style=" stroke:none;fill-rule:nonzero;fill:rgb(12%,45.8%,80.1%);fill-opacity:1;" d="M 491 265 C 491 282.121094 477.121094 296 460 296 C 442.878906 296 429 282.121094 429 265 C 429 247.878906 442.878906 234 460 234 C 477.121094 234 491 247.878906 491 265 "/>
<path style=" stroke:none;fill-rule:nonzero;fill:rgb(30.3%,87.1%,89.2%);fill-opacity:1;" d="M 60 138.5 C 60 155.898438 45.898438 170 28.5 170 C 11.101562 170 -3 155.898438 -3 138.5 C -3 121.101562 11.101562 107 28.5 107 C 45.898438 107 60 121.101562 60 138.5 "/>
<path style=" stroke:none;fill-rule:nonzero;fill:rgb(20.1%,96%,19.2%);fill-opacity:1;" d="M 274 332.5 C 274 357.628906 253.628906 378 228.5 378 C 203.371094 378 183 357.628906 183 332.5 C 183 307.371094 203.371094 287 228.5 287 C 253.628906 287 274 307.371094 274 332.5 "/>
<path style=" stroke:none;fill-rule:nonzero;fill:rgb(82.8%,12.2%,72.9%);fill-opacity:1;" d="M 282 71 C 282 83.425781 271.925781 93.5 259.5 93.5 C 247.074219 93.5 237 83.425781 237 71 C 237 58.574219 247.074219 48.5 259.5 48.5 C 271.925781 48.5 282 58.574219 282 71 "/>
<path style=" stroke:none;fill-rule:nonzero;fill:rgb(58%,86.4%,29.6%);fill-opacity:1;" d="M 334.5 354 C 334.5 373.054688 319.054688 388.5 300 388.5 C 280.945312 388.5 265.5 373.054688 265.5 354 C 265.5 334.945312 280.945312 319.5 300 319.5 C 319.054688 319.5 334.5 334.945312 334.5 354 "/>
<path style=" stroke:none;fill-rule:nonzero;fill:rgb(90.6%,87.1%,35.2%);fill-opacity:1;" d="M 364.5 252 C 364.5 263.597656 355.097656 273 343.5 273 C 331.902344 273 322.5 263.597656 322.5 252 C 322.5 240.402344 331.902344 231 343.5 231 C 355.097656 231 364.5 240.402344 364.5 252 "/>
<path style=" stroke:none;fill-rule:nonzero;fill:rgb(65.8%,17.6%,9.2%);fill-opacity:1;" d="M 382 221 C 382 232.046875 373.046875 241 362 241 C 350.953125 241 342 232.046875 342 221 C 342 209.953125 350.953125 201 362 201 C 373.046875 201 382 209.953125 382 221 "/>
<path style=" stroke:none;fill-rule:nonzero;fill:rgb(61.9%,88.1%,68.9%);fill-opacity:1;" d="M 291 210 C 291 219.664062 283.164062 227.5 273.5 227.5 C 263.835938 227.5 256 219.664062 256 210 C 256 200.335938 263.835938 192.5 273.5 192.5 C 283.164062 192.5 291 200.335938 291 210 "/>
<path style=" stroke:none;fill-rule:nonzero;fill:rgb(56.6%,80.2%,64.9%);fill-opacity:1;" d="M 175.5 96.5 C 175.5 104.230469 169.230469 110.5 161.5 110.5 C 153.769531 110.5 147.5 104.230469 147.5 96.5 C 147.5 88.769531 153.769531 82.5 161.5 82.5 C 169.230469 82.5 175.5 88.769531 175.5 96.5 "/>
<path style=" stroke:none;fill-rule:nonzero;fill:rgb(41.6%,86.7%,87.3%);fill-opacity:1;" d="M 284.5 150 C 284.5 163.253906 273.753906 174 260.5 174 C 247.246094 174 236.5 163.253906 236.5 150 C 236.5 136.746094 247.246094 126 260.5 126 C 273.753906 126 284.5 136.746094 284.5 150 "/>
<path style=" stroke:none;fill-rule:nonzero;fill:rgb(42.9%,76.7%,3.9%);fill-opacity:1;" d="M 319 87.5 C 319 106 304 121 285.5 121 C 267 121 252 106 252 87.5 C 252 69 267 54 285.5 54 C 304 54 319 69 319 87.5 "/>
<path style=" stroke:none;fill-rule:nonzero;fill:rgb(40.2%,90.7%,0%);fill-opacity:1;" d="M 422.5 136.5 C 422.5 160.800781 402.800781 180.5 378.5 180.5 C 354.199219 180.5 334.5 160.800781 334.5 136.5 C 334.5 112.199219 354.199219 92.5 378.5 92.5 C 402.800781 92.5 422.5 112.199219 422.5 136.5 "/>
<path style=" stroke:none;fill-rule:nonzero;fill:rgb(54.9%,96.9%,80.2%);fill-opacity:1;" d="M 422.5 333.5 C 422.5 357.25 403.25 376.5 379.5 376.5 C 355.75 376.5 336.5 357.25 336.5 333.5 C 336.5 309.75 355.75 290.5 379.5 290.5 C 403.25 290.5 422.5 309.75 422.5 333.5 "/>
<path style=" stroke:none;fill-rule:nonzero;fill:rgb(38%,0.1%,17.5%);fill-opacity:1;" d="M 464.5 290.5 C 464.5 313.695312 445.695312 332.5 422.5 332.5 C 399.304688 332.5 380.5 313.695312 380.5 290.5 C 380.5 267.304688 399.304688 248.5 422.5 248.5 C 445.695312 248.5 464.5 267.304688 464.5 290.5 "/>
<path style=" stroke:none;fill-rule:nonzero;fill:rgb(71.9%,99%,75.9%);fill-opacity:1;" d="M 351.5 314 C 351.5 337.472656 332.472656 356.5 309 356.5 C 285.527344 356.5 266.5 337.472656 266.5 314 C 266.5 290.527344 285.527344 271.5 309 271.5 C 332.472656 271.5 351.5 290.527344 351.5 314 "/>
<path style=" stroke:none;fill-rule:nonzero;fill:rgb(51.3%,74.3%,18.8%);fill-opacity:1;" d="M 269 259 C 269 265.351562 263.851562 270.5 257.5 270.5 C 251.148438 270.5 246 265.351562 246 259 C 246 252.648438 251.148438 247.5 257.5 247.5 C 263.851562 247.5 269 252.648438 269 259 "/>
<path style=" stroke:none;fill-rule:nonzero;fill:rgb(33.9%,53.8%,51%);fill-opacity:1;" d="M 208.5 66 C 208.5 78.148438 198.648438 88 186.5 88 C 174.351562 88 164.5 78.148438 164.5 66 C 164.5 53.851562 174.351562 44 186.5 44 C 198.648438 44 208.5 53.851562 208.5 66 "/>
<path style=" stroke:none;fill-rule:nonzero;fill:rgb(23.3%,91.1%,80.1%);fill-opacity:1;" d="M 453.5 344.5 C 453.5 365.761719 436.261719 383 415 383 C 393.738281 383 376.5 365.761719 376.5 344.5 C 376.5 323.238281 393.738281 306 415 306 C 436.261719 306 453.5 323.238281 453.5 344.5 "/>
<path style=" stroke:none;fill-rule:nonzero;fill:rgb(79.1%,0%,85.5%);fill-opacity:1;" d="M 134.5 188 C 134.5 207.605469 118.605469 223.5 99 223.5 C 79.394531 223.5 63.5 207.605469 63.5 188 C 63.5 168.394531 79.394531 152.5 99 152.5 C 118.605469 152.5 134.5 168.394531 134.5 188 "/>
<path style=" stroke:none;fill-rule:nonzero;fill:rgb(28.1%,78.2%,56.4%);fill-opacity:1;" d="M 335.5 4.5 C 335.5 10.574219 330.574219 15.5 324.5 15.5 C 318.425781 15.5 313.5 10.574219 313.5 4.5 C 313.5 -1.574219 318.425781 -6.5 324.5 -6.5 C 330.574219 -6.5 335.5 -1.574219 335.5 4.5 "/>
<path style=" stroke:none;fill-rule:nonzero;fill:rgb(71.8%,65.3%,89%);fill-opacity:1;" d="M 233 233.5 C 233 253.382812 216.882812 269.5 197 269.5 C 177.117188 269.5 161 253.382812 161 233.5 C 161 213.617188 177.117188 197.5 197 197.5 C 216.882812 197.5 233 213.617188 233 233.5 "/>
<path style=" stroke:none;fill-rule:nonzero;fill:rgb(87.8%,90.3%,86.6%);fill-opacity:1;" d="M 230.5 114 C 230.5 125.597656 221.097656 135 209.5 135 C 197.902344 135 188.5 125.597656 188.5 114 C 188.5 102.402344 197.902344 93 209.5 93 C 221.097656 93 230.5 102.402344 230.5 114 "/>
<path style=" stroke:none;fill-rule:nonzero;fill:rgb(88.9%,2.3%,53.8%);fill-opacity:1;" d="M 340 316 C 340 331.1875 327.6875 343.5 312.5 343.5 C 297.3125 343.5 285 331.1875 285 316 C 285 300.8125 297.3125 288.5 312.5 288.5 C 327.6875 288.5 340 300.8125 340 316 "/>
<path style=" stroke:none;fill-rule:nonzero;fill:rgb(16%,76.3%,34.1%);fill-opacity:1;" d="M 168 479 C 168 486.730469 161.730469 493 154 493 C 146.269531 493 140 486.730469 140 479 C 140 471.269531 146.269531 465 154 465 C 161.730469 465 168 471.269531 168 479 "/>
<path style=" stroke:none;fill-rule:nonzero;fill:rgb(21.9%,6.1%,44.8%);fill-opacity:1;" d="M 126 115.5 C 126 140.628906 105.628906 161 80.5 161 C 55.371094 161 35 140.628906 35 115.5 C 35 90.371094 55.371094 70 80.5 70 C 105.628906 70 126 90.371094 126 115.5 "/>
<path style=" stroke:none;fill-rule:nonzero;fill:rgb(77.3%,13.7%,71.1%);fill-opacity:1;" d="M 360 203.5 C 360 210.679688 354.179688 216.5 347 216.5 C 339.820312 216.5 334 210.679688 334 203.5 C 334 196.320312 339.820312 190.5 347 190.5 C 354.179688 190.5 360 196.320312 360 203.5 "/>
<path style=" stroke:none;fill-rule:nonzero;fill:rgb(8.7%,61.3%,77.1%);fill-opacity:1;" d="M 301.5 417 C 301.5 431.636719 289.636719 443.5 275 443.5 C 260.363281 443.5 248.5 431.636719 248.5 417 C 248.5 402.363281 260.363281 390.5 275 390.5 C 289.636719 390.5 301.5 402.363281 301.5 417 "/>
<path style=" stroke:none;fill-rule:nonzero;fill:rgb(72.5%,37.7%,43%);fill-opacity:1;" d="M 274.5 82.5 C 274.5 97.136719 262.636719 109 248 109 C 233.363281 109 221.5 97.136719 221.5 82.5 C 221.5 67.863281 233.363281 56 248 56 C 262.636719 56 274.5 67.863281 274.5 82.5 "/>
<path style=" stroke:none;fill-rule:nonzero;fill:rgb(10.8%,41.6%,82.2%);fill-opacity:1;" d="M 245 2.5 C 245 15.753906 234.253906 26.5 221 26.5 C 207.746094 26.5 197 15.753906 197 2.5 C 197 -10.753906 207.746094 -21.5 221 -21.5 C 234.253906 -21.5 245 -10.753906 245 2.5 "/>
<path style=" stroke:none;fill-rule:nonzero;fill:rgb(94.3%,15.3%,48.4%);fill-opacity:1;" d="M 29 237 C 29 245.007812 22.507812 251.5 14.5 251.5 C 6.492188 251.5 0 245.007812 0 237 C 0 228.992188 6.492188 222.5 14.5 222.5 C 22.507812 222.5 29 228.992188 29 237 "/>
<path style=" stroke:none;fill-rule:nonzero;fill:rgb(7.6%,81.9%,78.4%);fill-opacity:1;" d="M 307.5 114.5 C 307.5 126.648438 297.648438 136.5 285.5 136.5 C 273.351562 136.5 263.5 126.648438 263.5 114.5 C 263.5 102.351562 273.351562 92.5 285.5 92.5 C 297.648438 92.5 307.5 102.351562 307.5 114.5 "/>
<path style=" stroke:none;fill-rule:nonzero;fill:rgb(30.2%,32.5%,87.6%);fill-opacity:1;" d="M 293.5 256 C 293.5 281.679688 272.679688 302.5 247 302.5 C 221.320312 302.5 200.5 281.679688 200.5 256 C 200.5 230.320312 221.320312 209.5 247 209.5 C 272.679688 209.5 293.5 230.320312 293.5 256 "/>
<path style=" stroke:none;fill-rule:nonzero;fill:rgb(55.7%,53.6%,39%);fill-opacity:1;" d="M 242.5 454.5 C 242.5 473.277344 227.277344 488.5 208.5 488.5 C 189.722656 488.5 174.5 473.277344 174.5 454.5 C 174.5 435.722656 189.722656 420.5 208.5 420.5 C 227.277344 420.5 242.5 435.722656 242.5 454.5 "/>
<path style=" stroke:none;fill-rule:nonzero;fill:rgb(100%,78.1%,8.4%);fill-opacity:1;" d="M 191 80 C 191 107.613281 168.613281 130 141 130 C 113.386719 130 91 107.613281 91 80 C 91 52.386719 113.386719 30 141 30 C 168.613281 30 191 52.386719 191 80 "/>
<path style=" stroke:none;fill-rule:nonzero;fill:rgb(77.8%,37.4%,45.6%);fill-opacity:1;" d="M 187 132.5 C 187 155.144531 168.644531 173.5 146 173.5 C 123.355469 173.5 105 155.144531 105 132.5 C 105 109.855469 123.355469 91.5 146 91.5 C 168.644531 91.5 187 109.855469 187 132.5 "/>
<path style=" stroke:none;fill-rule:nonzero;fill:rgb(31%,55.5%,1%);fill-opacity:1;" d="M 185.5 152 C 185.5 173.539062 168.039062 191 146.5 191 C 124.960938 191 107.5 173.539062 107.5 152 C 107.5 130.460938 124.960938 113 146.5 113 C 168.039062 113 185.5 130.460938 185.5 152 "/>
<path style=" stroke:none;fill-rule:nonzero;fill:rgb(94.2%,61.9%,63.9%);fill-opacity:1;" d="M 160.5 308 C 160.5 313.523438 156.023438 318 150.5 318 C 144.976562 318 140.5 313.523438 140.5 308 C 140.5 302.476562 144.976562 298 150.5 298 C 156.023438 298 160.5 302.476562 160.5 308 "/>
<path style=" stroke:none;fill-rule:nonzero;fill:rgb(50.8%,24.4%,25.4%);fill-opacity:1;" d="M 296.5 477 C 296.5 489.425781 286.425781 499.5 274 499.5 C 261.574219 499.5 251.5 489.425781 251.5 477 C 251.5 464.574219 261.574219 454.5 274 454.5 C 286.425781 454.5 296.5 464.574219 296.5 477 "/>
<path style=" stroke:none;fill-rule:nonzero;fill:rgb(68.4%,55.4%,68.1%);fill-opacity:1;" d="M 138 345.5 C 138 365.382812 121.882812 381.5 102 381.5 C 82.117188 381.5 66 365.382812 66 345.5 C 66 325.617188 82.117188 309.5 102 309.5 C 121.882812 309.5 138 325.617188 138 345.5 "/>
<path style=" stroke:none;fill-rule:nonzero;fill:rgb(99.5%,93.8%,85%);fill-opacity:1;" d="M 422.5 308.5 C 422.5 324.792969 409.292969 338 393 338 C 376.707031 338 363.5 324.792969 363.5 308.5 C 363.5 292.207031 376.707031 279 393 279 C 409.292969 279 422.5 292.207031 422.5 308.5 "/>
<path style=" stroke:none;fill-rule:nonzero;fill:rgb(90.4%,94.2%,27.4%);fill-opacity:1;" d="M 157.5 472.5 C 157.5 497.351562 137.351562 517.5 112.5 517.5 C 87.648438 517.5 67.5 497.351562 67.5 472.5 C 67.5 447.648438 87.648438 427.5 112.5 427.5 C 137.351562 427.5 157.5 447.648438 157.5 472.5 "/>
<path style=" stroke:none;fill-rule:nonzero;fill:rgb(7%,81%,69.4%);fill-opacity:1;" d="M 213 288.5 C 213 312.800781 193.300781 332.5 169 332.5 C 144.699219 332.5 125 312.800781 125 288.5 C 125 264.199219 144.699219 244.5 169 244.5 C 193.300781 244.5 213 264.199219 213 288.5 "/>
<path style=" stroke:none;fill-rule:nonzero;fill:rgb(92%,17.5%,60%);fill-opacity:1;" d="M 438.5 261 C 438.5 281.433594 421.933594 298 401.5 298 C 381.066406 298 364.5 281.433594 364.5 261 C 364.5 240.566406 381.066406 224 401.5 224 C 421.933594 224 438.5 240.566406 438.5 261 "/>
<path style=" stroke:none;fill-rule:nonzero;fill:rgb(1.7%,55%,55.5%);fill-opacity:1;" d="M 322.5 12.5 C 322.5 19.679688 316.679688 25.5 309.5 25.5 C 302.320312 25.5 296.5 19.679688 296.5 12.5 C 296.5 5.320312 302.320312 -0.5 309.5 -0.5 C 316.679688 -0.5 322.5 5.320312 322.5 12.5 "/>
<path style=" stroke:none;fill-rule:nonzero;fill:rgb(92.5%,60.7%,66.5%);fill-opacity:1;" d="M 22 124 C 22 130.351562 16.851562 135.5 10.5 135.5 C 4.148438 135.5 -1 130.351562 -1 124 C -1 117.648438 4.148438 112.5 10.5 112.5 C 16.851562 112.5 22 117.648438 22 124 "/>
<path style=" stroke:none;fill-rule:nonzero;fill:rgb(89.1%,24.5%,38.1%);fill-opacity:1;" d="M 388.5 406.5 C 388.5 433.285156 366.785156 455 340 455 C 313.214844 455 291.5 433.285156 291.5 406.5 C 291.5 379.714844 313.214844 358 340 358 C 366.785156 358 388.5 379.714844 388.5 406.5 "/>
<path style=" stroke:none;fill-rule:nonzero;fill:rgb(25.4%,68.8%,11.1%);fill-opacity:1;" d="M 160.5 347 C 160.5 359.703125 150.203125 370 137.5 370 C 124.796875 370 114.5 359.703125 114.5 347 C 114.5 334.296875 124.796875 324 137.5 324 C 150.203125 324 160.5 334.296875 160.5 347 "/>
<path style=" stroke:none;fill-rule:nonzero;fill:rgb(53.2%,85.4%,90.4%);fill-opacity:1;" d="M 412.5 409 C 412.5 417.835938 405.335938 425 396.5 425 C 387.664062 425 380.5 417.835938 380.5 409 C 380.5 400.164062 387.664062 393 396.5 393 C 405.335938 393 412.5 400.164062 412.5 409 "/>
<path style=" stroke:none;fill-rule:nonzero;fill:rgb(38.6%,31.8%,68.3%);fill-opacity:1;" d="M 308.5 214 C 308.5 220.902344 302.902344 226.5 296 226.5 C 289.097656 226.5 283.5 220.902344 283.5 214 C 283.5 207.097656 289.097656 201.5 296 201.5 C 302.902344 201.5 308.5 207.097656 308.5 214 "/>
<path style=" stroke:none;fill-rule:nonzero;fill:rgb(84.2%,5.1%,9.8%);fill-opacity:1;" d="M 356.5 260 C 356.5 280.988281 339.488281 298 318.5 298 C 297.511719 298 280.5 280.988281 280.5 260 C 280.5 239.011719 297.511719 222 318.5 222 C 339.488281 222 356.5 239.011719 356.5 260 "/>
<path style=" stroke:none;fill-rule:nonzero;fill:rgb(54.1%,20.6%,4.4%);fill-opacity:1;" d="M 167.5 202.5 C 167.5 216.582031 156.082031 228 142 228 C 127.917969 228 116.5 216.582031 116.5 202.5 C 116.5 188.417969 127.917969 177 142 177 C 156.082031 177 167.5 188.417969 167.5 202.5 "/>
<path style=" stroke:none;fill-rule:nonzero;fill:rgb(47.2%,57%,93.6%);fill-opacity:1;" d="M 459.5 475.5 C 459.5 486.546875 450.546875 495.5 439.5 495.5 C 428.453125 495.5 419.5 486.546875 419.5 475.5 C 419.5 464.453125 428.453125 455.5 439.5 455.5 C 450.546875 455.5 459.5 464.453125 459.5 475.5 "/>
<path style=" stroke:none;fill-rule:nonzero;fill:rgb(17.4%,20.9%,96.4%);fill-opacity:1;" d="M 445.5 147.5 C 445.5 171.25 426.25 190.5 402.5 190.5 C 378.75 190.5 359.5 171.25 359.5 147.5 C 359.5 123.75 378.75 104.5 402.5 104.5 C 426.25 104.5 445.5 123.75 445.5 147.5 "/>
<path style=" stroke:none;fill-rule:nonzero;fill:rgb(36.3%,98.4%,81.7%);fill-opacity:1;" d="M 407.5 331.5 C 407.5 344.203125 397.203125 354.5 384.5 354.5 C 371.796875 354.5 361.5 344.203125 361.5 331.5 C 361.5 318.796875 371.796875 308.5 384.5 308.5 C 397.203125 308.5 407.5 318.796875 407.5 331.5 "/>
<path style=" stroke:none;fill-rule:nonzero;fill:rgb(88.2%,50.2%,99.4%);fill-opacity:1;" d="M 116.5 96.5 C 116.5 105.890625 108.890625 113.5 99.5 113.5 C 90.109375 113.5 82.5 105.890625 82.5 96.5 C 82.5 87.109375 90.109375 79.5 99.5 79.5 C 108.890625 79.5 116.5 87.109375 116.5 96.5 "/>
<path style=" stroke:none;fill-rule:nonzero;fill:rgb(12.7%,27.4%,99.5%);fill-opacity:1;" d="M 57.5 139 C 57.5 158.054688 42.054688 173.5 23 173.5 C 3.945312 173.5 -11.5 158.054688 -11.5 139 C -11.5 119.945312 3.945312 104.5 23 104.5 C 42.054688 104.5 57.5 119.945312 57.5 139 "/>
<path style=" stroke:none;fill-rule:nonzero;fill:rgb(69.3%,51.4%,15%);fill-opacity:1;" d="M 390.5 387.5 C 390.5 394.957031 384.457031 401 377 401 C 369.542969 401 363.5 394.957031 363.5 387.5 C 363.5 380.042969 369.542969 374 377 374 C 384.457031 374 390.5 380.042969 390.5 387.5 "/>
<path style=" stroke:none;fill-rule:nonzero;fill:rgb(6.5%,8%,4.2%);fill-opacity:1;" d="M 98 152.5 C 98 170.171875 83.671875 184.5 66 184.5 C 48.328125 184.5 34 170.171875 34 152.5 C 34 134.828125 48.328125 120.5 66 120.5 C 83.671875 120.5 98 134.828125 98 152.5 "/>
<path style=" stroke:none;fill-rule:nonzero;fill:rgb(69.3%,16.3%,55.1%);fill-opacity:1;" d="M 109.5 61 C 109.5 69.835938 102.335938 77 93.5 77 C 84.664062 77 77.5 69.835938 77.5 61 C 77.5 52.164062 84.664062 45 93.5 45 C 102.335938 45 109.5 52.164062 109.5 61 "/>
<path style=" stroke:none;fill-rule:nonzero;fill:rgb(7.5%,73.8%,74%);fill-opacity:1;" d="M 228.5 237 C 228.5 245.007812 222.007812 251.5 214 251.5 C 205.992188 251.5 199.5 245.007812 199.5 237 C 199.5 228.992188 205.992188 222.5 214 222.5 C 222.007812 222.5 228.5 228.992188 228.5 237 "/>
<path style=" stroke:none;fill-rule:nonzero;fill:rgb(90.2%,39.1%,80.1%);fill-opacity:1;" d="M 334 364.5 C 334 378.582031 322.582031 390 308.5 390 C 294.417969 390 283 378.582031 283 364.5 C 283 350.417969 294.417969 339 308.5 339 C 322.582031 339 334 350.417969 334 364.5 "/>
<path style=" stroke:none;fill-rule:nonzero;fill:rgb(83.2%,13.2%,0.1%);fill-opacity:1;" d="M 189 332 C 189 343.046875 180.046875 352 169 352 C 157.953125 352 149 343.046875 149 332 C 149 320.953125 157.953125 312 169 312 C 180.046875 312 189 320.953125 189 332 "/>
<path style=" stroke:none;fill-rule:nonzero;fill:rgb(1%,78.2%,17%);fill-opacity:1;" d="M 26.5 222 C 26.5 232.492188 17.992188 241 7.5 241 C -2.992188 241 -11.5 232.492188 -11.5 222 C -11.5 211.507812 -2.992188 203 7.5 203 C 17.992188 203 26.5 211.507812 26.5 222 "/>
<path style=" stroke:none;fill-rule:nonzero;fill:rgb(1.1%,86.9%,26.7%);fill-opacity:1;" d="M 504 163 C 504 170.730469 497.730469 177 490 177 C 482.269531 177 476 170.730469 476 163 C 476 155.269531 482.269531 149 490 149 C 497.730469 149 504 155.269531 504 163 "/>
<path style=" stroke:none;fill-rule:nonzero;fill:rgb(13.8%,97.2%,74.6%);fill-opacity:1;" d="M 382.5 61.5 C 382.5 81.660156 366.160156 98 346 98 C 325.839844 98 309.5 81.660156 309.5 61.5 C 309.5 41.339844 325.839844 25 346 25 C 366.160156 25 382.5 41.339844 382.5 61.5 "/>
<path style=" stroke:none;fill-rule:nonzero;fill:rgb(48.8%,80.2%,80.4%);fill-opacity:1;" d="M 527 276.5 C 527 292.792969 513.792969 306 497.5 306 C 481.207031 306 468 292.792969 468 276.5 C 468 260.207031 481.207031 247 497.5 247 C 513.792969 247 527 260.207031 527 276.5 "/>
<path style=" stroke:none;fill-rule:nonzero;fill:rgb(29%,91.8%,78.9%);fill-opacity:1;" d="M 313.5 383.5 C 313.5 402.277344 298.277344 417.5 279.5 417.5 C 260.722656 417.5 245.5 402.277344 245.5 383.5 C 245.5 364.722656 260.722656 349.5 279.5 349.5 C 298.277344 349.5 313.5 364.722656 313.5 383.5 "/>
<path style=" stroke:none;fill-rule:nonzero;fill:rgb(10.3%,14.3%,27.2%);fill-opacity:1;" d="M 485.5 399.5 C 485.5 422.695312 466.695312 441.5 443.5 441.5 C 420.304688 441.5 401.5 422.695312 401.5 399.5 C 401.5 376.304688 420.304688 357.5 443.5 357.5 C 466.695312 357.5 485.5 376.304688 485.5 399.5 "/>
<path style=" stroke:none;fill-rule:nonzero;fill:rgb(29.7%,8.5%,47.4%);fill-opacity:1;" d="M 451 354.5 C 451 369.136719 439.136719 381 424.5 381 C 409.863281 381 398 369.136719 398 354.5 C 398 339.863281 409.863281 328 424.5 328 C 439.136719 328 451 339.863281 451 354.5 "/>
<path style=" stroke:none;fill-rule:nonzero;fill:rgb(41.7%,17.1%,7%);fill-opacity:1;" d="M 29 118 C 29 130.148438 19.148438 140 7 140 C -5.148438 140 -15 130.148438 -15 118 C -15 105.851562 -5.148438 96 7 96 C 19.148438 96 29 105.851562 29 118 "/>
<path style=" stroke:none;fill-rule:nonzero;fill:rgb(98.7%,3.5%,23.8%);fill-opacity:1;" d="M 523 100 C 523 122.089844 505.089844 140 483 140 C 460.910156 140 443 122.089844 443 100 C 443 77.910156 460.910156 60 483 60 C 505.089844 60 523 77.910156 523 100 "/>
<path style=" stroke:none;fill-rule:nonzero;fill:rgb(4.7%,38.6%,10.7%);fill-opacity:1;" d="M 494 222.5 C 494 237.410156 481.910156 249.5 467 249.5 C 452.089844 249.5 440 237.410156 440 222.5 C 440 207.589844 452.089844 195.5 467 195.5 C 481.910156 195.5 494 207.589844 494 222.5 "/>
<path style=" stroke:none;fill-rule:nonzero;fill:rgb(87.4%,2.4%,94.5%);fill-opacity:1;" d="M 281 380.5 C 281 390.441406 272.941406 398.5 263 398.5 C 253.058594 398.5 245 390.441406 245 380.5 C 245 370.558594 253.058594 362.5 263 362.5 C 272.941406 362.5 281 370.558594 281 380.5 "/>
<path style=" stroke:none;fill-rule:nonzero;fill:rgb(71%,83.9%,90.9%);fill-opacity:1;" d="M 404.5 208.5 C 404.5 222.308594 393.308594 233.5 379.5 233.5 C 365.691406 233.5 354.5 222.308594 354.5 208.5 C 354.5 194.691406 365.691406 183.5 379.5 183.5 C 393.308594 183.5 404.5 194.691406 404.5 208.5 "/>
<path style=" stroke:none;fill-rule:nonzero;fill:rgb(66.8%,60.6%,46.5%);fill-opacity:1;" d="M 55.5 411.5 C 55.5 426.964844 42.964844 439.5 27.5 439.5 C 12.035156 439.5 -0.5 426.964844 -0.5 411.5 C -0.5 396.035156 12.035156 383.5 27.5 383.5 C 42.964844 383.5 55.5 396.035156 55.5 411.5 "/>
<path style=" stroke:none;fill-rule:nonzero;fill:rgb(66%,34.2%,10.3%);fill-opacity:1;" d="M 269 496.5 C 269 507.269531 260.269531 516 249.5 516 C 238.730469 516 230 507.269531 230 496.5 C 230 485.730469 238.730469 477 249.5 477 C 260.269531 477 269 485.730469 269 496.5 "/>
<path style=" stroke:none;fill-rule:nonzero;fill:rgb(11.4%,44.5%,36.5%);fill-opacity:1;" d="M 176 278 C 176 285.457031 169.957031 291.5 162.5 291.5 C 155.042969 291.5 149 285.457031 149 278 C 149 270.542969 155.042969 264.5 162.5 264.5 C 169.957031 264.5 176 270.542969 176 278 "/>
<path style=" stroke:none;fill-rule:nonzero;fill:rgb(38.8%,85.1%,77%);fill-opacity:1;" d="M 413 456.5 C 413 464.507812 406.507812 471 398.5 471 C 390.492188 471 384 464.507812 384 456.5 C 384 448.492188 390.492188 442 398.5 442 C 406.507812 442 413 448.492188 413 456.5 "/>
<path style=" stroke:none;fill-rule:nonzero;fill:rgb(66.7%,35.3%,0.4%);fill-opacity:1;" d="M 259.5 430 C 259.5 449.605469 243.605469 465.5 224 465.5 C 204.394531 465.5 188.5 449.605469 188.5 430 C 188.5 410.394531 204.394531 394.5 224 394.5 C 243.605469 394.5 259.5 410.394531 259.5 430 "/>
<path style=" stroke:none;fill-rule:nonzero;fill:rgb(94.1%,76.7%,34.4%);fill-opacity:1;" d="M 191 255.5 C 191 272.898438 176.898438 287 159.5 287 C 142.101562 287 128 272.898438 128 255.5 C 128 238.101562 142.101562 224 159.5 224 C 176.898438 224 191 238.101562 191 255.5 "/>
<path style=" stroke:none;fill-rule:nonzero;fill:rgb(23.9%,88.7%,31.3%);fill-opacity:1;" d="M 393 453.5 C 393 475.039062 375.539062 492.5 354 492.5 C 332.460938 492.5 315 475.039062 315 453.5 C 315 431.960938 332.460938 414.5 354 414.5 C 375.539062 414.5 393 431.960938 393 453.5 "/>
<path style=" stroke:none;fill-rule:nonzero;fill:rgb(13.8%,36.3%,13.4%);fill-opacity:1;" d="M 463 167.5 C 463 190.417969 444.417969 209 421.5 209 C 398.582031 209 380 190.417969 380 167.5 C 380 144.582031 398.582031 126 421.5 126 C 444.417969 126 463 144.582031 463 167.5 "/>
<path style=" stroke:none;fill-rule:nonzero;fill:rgb(31.2%,43.2%,64.1%);fill-opacity:1;" d="M 497.5 303 C 497.5 314.597656 488.097656 324 476.5 324 C 464.902344 324 455.5 314.597656 455.5 303 C 455.5 291.402344 464.902344 282 476.5 282 C 488.097656 282 497.5 291.402344 497.5 303 "/>
<path style=" stroke:none;fill-rule:nonzero;fill:rgb(74.3%,48.9%,16%);fill-opacity:1;" d="M 338.5 288 C 338.5 294.902344 332.902344 300.5 326 300.5 C 319.097656 300.5 313.5 294.902344 313.5 288 C 313.5 281.097656 319.097656 275.5 326 275.5 C 332.902344 275.5 338.5 281.097656 338.5 288 "/>
<path style=" stroke:none;fill-rule:nonzero;fill:rgb(17.8%,90.3%,65.6%);fill-opacity:1;" d="M 389 1.5 C 389 15.582031 377.582031 27 363.5 27 C 349.417969 27 338 15.582031 338 1.5 C 338 -12.582031 349.417969 -24 363.5 -24 C 377.582031 -24 389 -12.582031 389 1.5 "/>
<path style=" stroke:none;fill-rule:nonzero;fill:rgb(6.9%,28.9%,95.1%);fill-opacity:1;" d="M 66 395 C 66 400.800781 61.300781 405.5 55.5 405.5 C 49.699219 405.5 45 400.800781 45 395 C 45 389.199219 49.699219 384.5 55.5 384.5 C 61.300781 384.5 66 389.199219 66 395 "/>
<path style=" stroke:none;fill-rule:nonzero;fill:rgb(63.6%,26.2%,18.3%);fill-opacity:1;" d="M 141.5 61 C 141.5 70.113281 134.113281 77.5 125 77.5 C 115.886719 77.5 108.5 70.113281 108.5 61 C 108.5 51.886719 115.886719 44.5 125 44.5 C 134.113281 44.5 141.5 51.886719 141.5 61 "/>
<path style=" stroke:none;fill-rule:nonzero;fill:rgb(70.1%,80.3%,56.6%);fill-opacity:1;" d="M 395.5 155.5 C 395.5 182.839844 373.339844 205 346 205 C 318.660156 205 296.5 182.839844 296.5 155.5 C 296.5 128.160156 318.660156 106 346 106 C 373.339844 106 395.5 128.160156 395.5 155.5 "/>
<path style=" stroke:none;fill-rule:nonzero;fill:rgb(69.8%,12.4%,93.3%);fill-opacity:1;" d="M 429.5 101.5 C 429.5 120.277344 414.277344 135.5 395.5 135.5 C 376.722656 135.5 361.5 120.277344 361.5 101.5 C 361.5 82.722656 376.722656 67.5 395.5 67.5 C 414.277344 67.5 429.5 82.722656 429.5 101.5 "/>
<path style=" stroke:none;fill-rule:nonzero;fill:rgb(59.7%,12.6%,75.7%);fill-opacity:1;" d="M 357.5 325.5 C 357.5 337.375 347.875 347 336 347 C 324.125 347 314.5 337.375 314.5 325.5 C 314.5 313.625 324.125 304 336 304 C 347.875 304 357.5 313.625 357.5 325.5 "/>
<path style=" stroke:none;fill-rule:nonzero;fill:rgb(40.9%,84.4%,29.1%);fill-opacity:1;" d="M 289.5 191 C 289.5 197.351562 284.351562 202.5 278 202.5 C 271.648438 202.5 266.5 197.351562 266.5 191 C 266.5 184.648438 271.648438 179.5 278 179.5 C 284.351562 179.5 289.5 184.648438 289.5 191 "/>
<path style=" stroke:none;fill-rule:nonzero;fill:rgb(14.1%,40%,71.1%);fill-opacity:1;" d="M 227.5 280.5 C 227.5 302.867188 209.367188 321 187 321 C 164.632812 321 146.5 302.867188 146.5 280.5 C 146.5 258.132812 164.632812 240 187 240 C 209.367188 240 227.5 258.132812 227.5 280.5 "/>
<path style=" stroke:none;fill-rule:nonzero;fill:rgb(6.3%,87.6%,32.9%);fill-opacity:1;" d="M 372 386 C 372 397.875 362.375 407.5 350.5 407.5 C 338.625 407.5 329 397.875 329 386 C 329 374.125 338.625 364.5 350.5 364.5 C 362.375 364.5 372 374.125 372 386 "/>
<path style=" stroke:none;fill-rule:nonzero;fill:rgb(13.3%,85.4%,61.7%);fill-opacity:1;" d="M 89 250 C 89 256.902344 83.402344 262.5 76.5 262.5 C 69.597656 262.5 64 256.902344 64 250 C 64 243.097656 69.597656 237.5 76.5 237.5 C 83.402344 237.5 89 243.097656 89 250 "/>
<path style="fill:none;stroke-width:0.003;stroke-linecap:butt;stroke-linejoin:miter;stroke:rgb(71.6%,78.5%,24.8%);stroke-opacity:1;stroke-miterlimit:10;" d="M 0.299 0.628 L 0.439 0.75 L 0.474 0.872 L 0.299 0.628 " transform="matrix(500,0,0,500,0,0)"/>
<path style="fill:none;stroke-width:0.003;stroke-linecap:butt;stroke-linejoin:miter;stroke:rgb(65.4%,69.3%,54.1%);stroke-opacity:1;stroke-miterlimit:10;" d="M 0.255 0.702 L 0.377 0.841 L 0.354 0.98 L 0.255 0.702 " transform="matrix(500,0,0,500,0,0)"/>
<path style="fill:none;stroke-width:0.003;stroke-linecap:butt;stroke-linejoin:miter;stroke:rgb(97.2%,47.1%,25.3%);stroke-opacity:1;stroke-miterlimit:10;" d="M 0.805 0.652 L 0.917 0.793 L 1.14 0.934 L 0.805 0.652 " transform="matrix(500,0,0,500,0,0)"/>
<path style="fill:none;stroke-width:0.003;stroke-linecap:butt;stroke-linejoin:miter;stroke:rgb(80%,3.7%,19.2%);stroke-opacity:1;stroke-miterlimit:10;" d="M 0.099 0.455 L 0.245 0.32 L 0.257 0.59 L 0.099 0.455 " transform="matrix(500,0,0,500,0,0)"/>
<path style="fill:none;stroke-width:0.003;stroke-linecap:butt;stroke-linejoin:miter;stroke:rgb(75.9%,98.1%,78.7%);stroke-opacity:1;stroke-miterlimit:10;" d="M 0.617 0.757 L 0.723 0.861 L 0.954 0.965 L 0.617 0.757 " transform="matrix(500,0,0,500,0,0)"/>
<path style="fill:none;stroke-width:0.003;stroke-linecap:butt;stroke-linejoin:miter;stroke:rgb(44.2%,87.1%,39.7%);stroke-opacity:1;stroke-miterlimit:10;" d="M 0.323 0.495 L 0.173 0.603 L 0.351 0.711 L 0.323 0.495 " transform="matrix(500,0,0,500,0,0)"/>
<path style="fill:none;stroke-width:0.003;stroke-linecap:butt;stroke-linejoin:miter;stroke:rgb(82.6%,80.5%,12.2%);stroke-opacity:1;stroke-miterlimit:10;" d="M 0.286 0.019 L 0.422 -0.112 L 0.409 0.15 L 0.286 0.019 " transform="matrix(500,0,0,500,0,0)"/>
<path style="fill:none;stroke-width:0.003;stroke-linecap:butt;stroke-linejoin:miter;stroke:rgb(39.6%,68.2%,21.1%);stroke-opacity:1;stroke-miterlimit:10;" d="M 0.577 0.327 L 0.428 0.434 L 0.618 0.541 L 0.577 0.327 " transform="matrix(500,0,0,500,0,0)"/>
<path style="fill:none;stroke-width:0.003;stroke-linecap:butt;stroke-linejoin:miter;stroke:rgb(18.5%,79.2%,8.4%);stroke-opacity:1;stroke-miterlimit:10;" d="M 0.656 0.982 L 0.554 0.854 L 0.61 1.11 L 0.656 0.982 " transform="matrix(500,0,0,500,0,0)"/>
<path style="fill:none;stroke-width:0.003;stroke-linecap:butt;stroke-linejoin:miter;stroke:rgb(93.2%,2.5%,7%);stroke-opacity:1;stroke-miterlimit:10;" d="M 0.128 0.517 L 0.023 0.38 L 0.104 0.654 L 0.128 0.517 " transform="matrix(500,0,0,500,0,0)"/>
<path style="fill:none;stroke-width:0.003;stroke-linecap:butt;stroke-linejoin:miter;stroke:rgb(53.4%,21.5%,24.4%);stroke-opacity:1;stroke-miterlimit:10;" d="M 0.933 0.197 L 1.054 0.299 L 1.305 0.401 L 0.933 0.197 " transform="matrix(500,0,0,500,0,0)"/>
<path style="fill:none;stroke-width:0.003;stroke-linecap:butt;stroke-linejoin:miter;stroke:rgb(29.1%,46.1%,42.3%);stroke-opacity:1;stroke-miterlimit:10;" d="M 0.734 0.916 L 0.878 0.803 L 0.874 1.029 L 0.734 0.916 " transform="matrix(500,0,0,500,0,0)"/>
<path style="fill:none;stroke-width:0.003;stroke-linecap:butt;stroke-linejoin:miter;stroke:rgb(72%,4.6%,64.3%);stroke-opacity:1;stroke-miterlimit:10;" d="M 0.893 0.666 L 0.756 0.779 L 0.881 0.892 L 0.893 0.666 " transform="matrix(500,0,0,500,0,0)"/>
<path style="fill:none;stroke-width:0.003;stroke-linecap:butt;stroke-linejoin:miter;stroke:rgb(80.9%,85.9%,10.5%);stroke-opacity:1;stroke-miterlimit:10;" d="M 0.779 0.492 L 0.894 0.391 L 0.887 0.593 L 0.779 0.492 " transform="matrix(500,0,0,500,0,0)"/>
<path style="fill:none;stroke-width:0.003;stroke-linecap:butt;stroke-linejoin:miter;stroke:rgb(93.9%,36%,82.1%);stroke-opacity:1;stroke-miterlimit:10;" d="M 0.182 0.123 L 0.081 0.264 L 0.42 0.405 L 0.182 0.123 " transform="matrix(500,0,0,500,0,0)"/>
<path style="fill:none;stroke-width:0.003;stroke-linecap:butt;stroke-linejoin:miter;stroke:rgb(33.1%,40.1%,58.4%);stroke-opacity:1;stroke-miterlimit:10;" d="M 0.597 0.698 L 0.467 0.846 L 0.621 0.994 L 0.597 0.698 " transform="matrix(500,0,0,500,0,0)"/>
<path style="fill:none;stroke-width:0.003;stroke-linecap:butt;stroke-linejoin:miter;stroke:rgb(81%,8.1%,39.8%);stroke-opacity:1;stroke-miterlimit:10;" d="M 0.284 0.893 L 0.408 0.793 L 0.421 0.993 L 0.284 0.893 " transform="matrix(500,0,0,500,0,0)"/>
<path style="fill:none;stroke-width:0.003;stroke-linecap:butt;stroke-linejoin:miter;stroke:rgb(92.8%,33.1%,93.1%);stroke-opacity:1;stroke-miterlimit:10;" d="M 0.254 0.708 L 0.132 0.808 L 0.484 0.908 L 0.254 0.708 " transform="matrix(500,0,0,500,0,0)"/>
<path style="fill:none;stroke-width:0.003;stroke-linecap:butt;stroke-linejoin:miter;stroke:rgb(26.2%,66.4%,95.1%);stroke-opacity:1;stroke-miterlimit:10;" d="M 0.379 0.417 L 0.244 0.564 L 0.413 0.711 L 0.379 0.417 " transform="matrix(500,0,0,500,0,0)"/>
<path style="fill:none;stroke-width:0.003;stroke-linecap:butt;stroke-linejoin:miter;stroke:rgb(7.4%,69.4%,65.7%);stroke-opacity:1;stroke-miterlimit:10;" d="M 0.529 0.116 L 0.633 0.244 L 0.838 0.372 L 0.529 0.116 " transform="matrix(500,0,0,500,0,0)"/>
<path style="fill:none;stroke-width:0.003;stroke-linecap:butt;stroke-linejoin:miter;stroke:rgb(52.3%,43.6%,1.5%);stroke-opacity:1;stroke-miterlimit:10;" d="M 0.28 0.09 L 0.166 0.21 L 0.533 0.33 L 0.28 0.09 " transform="matrix(500,0,0,500,0,0)"/>
<path style="fill:none;stroke-width:0.003;stroke-linecap:butt;stroke-linejoin:miter;stroke:rgb(30.9%,42.1%,18.3%);stroke-opacity:1;stroke-miterlimit:10;" d="M 0.566 0.725 L 0.425 0.611 L 0.845 0.839 L 0.566 0.725 " transform="matrix(500,0,0,500,0,0)"/>
<path style="fill:none;stroke-width:0.003;stroke-linecap:butt;stroke-linejoin:miter;stroke:rgb(94%,61.1%,2.9%);stroke-opacity:1;stroke-miterlimit:10;" d="M 0.641 0.885 L 0.493 1.006 L 0.891 1.127 L 0.641 0.885 " transform="matrix(500,0,0,500,0,0)"/>
<path style="fill:none;stroke-width:0.003;stroke-linecap:butt;stroke-linejoin:miter;stroke:rgb(8.5%,42.3%,56.8%);stroke-opacity:1;stroke-miterlimit:10;" d="M 0.958 0.772 L 0.856 0.919 L 0.926 1.066 L 0.958 0.772 " transform="matrix(500,0,0,500,0,0)"/>
<path style="fill:none;stroke-width:0.003;stroke-linecap:butt;stroke-linejoin:miter;stroke:rgb(3.8%,28.6%,50.3%);stroke-opacity:1;stroke-miterlimit:10;" d="M 0.28 0.863 L 0.417 0.719 L 0.696 1.007 L 0.28 0.863 " transform="matrix(500,0,0,500,0,0)"/>
<path style="fill:none;stroke-width:0.003;stroke-linecap:butt;stroke-linejoin:miter;stroke:rgb(4.7%,13.3%,33%);stroke-opacity:1;stroke-miterlimit:10;" d="M 0.077 0.354 L -0.06 0.503 L 0.112 0.652 L 0.077 0.354 " transform="matrix(500,0,0,500,0,0)"/>
<path style="fill:none;stroke-width:0.003;stroke-linecap:butt;stroke-linejoin:miter;stroke:rgb(14.3%,7.8%,76.1%);stroke-opacity:1;stroke-miterlimit:10;" d="M 0.062 0.202 L -0.053 0.328 L 0.046 0.454 L 0.062 0.202 " transform="matrix(500,0,0,500,0,0)"/>
<path style="fill:none;stroke-width:0.003;stroke-linecap:butt;stroke-linejoin:miter;stroke:rgb(12.5%,51.9%,93.1%);stroke-opacity:1;stroke-miterlimit:10;" d="M 0.978 0.514 L 1.083 0.619 L 1.296 0.724 L 0.978 0.514 " transform="matrix(500,0,0,500,0,0)"/>
<path style="fill:none;stroke-width:0.003;stroke-linecap:butt;stroke-linejoin:miter;stroke:rgb(51.2%,72.9%,5.2%);stroke-opacity:1;stroke-miterlimit:10;" d="M 0.057 0.913 L -0.055 0.787 L 0.318 1.039 L 0.057 0.913 " transform="matrix(500,0,0,500,0,0)"/>
<path style="fill:none;stroke-width:0.003;stroke-linecap:butt;stroke-linejoin:miter;stroke:rgb(59.6%,20.9%,81.3%);stroke-opacity:1;stroke-miterlimit:10;" d="M 0.138 0.575 L 0.035 0.692 L 0.128 0.809 L 0.138 0.575 " transform="matrix(500,0,0,500,0,0)"/>
<path style="fill:none;stroke-width:0.003;stroke-linecap:butt;stroke-linejoin:miter;stroke:rgb(31.6%,72.6%,26.3%);stroke-opacity:1;stroke-miterlimit:10;" d="M 0.002 0.567 L -0.143 0.694 L 0.037 0.821 L 0.002 0.567 " transform="matrix(500,0,0,500,0,0)"/>
<path style="fill:none;stroke-width:0.003;stroke-linecap:butt;stroke-linejoin:miter;stroke:rgb(1.7%,52.6%,10.4%);stroke-opacity:1;stroke-miterlimit:10;" d="M 0.48 0.295 L 0.379 0.166 L 0.681 0.424 L 0.48 0.295 " transform="matrix(500,0,0,500,0,0)"/>
<path style="fill:none;stroke-width:0.003;stroke-linecap:butt;stroke-linejoin:miter;stroke:rgb(18.2%,86.5%,69.6%);stroke-opacity:1;stroke-miterlimit:10;" d="M 0.191 0.757 L 0.05 0.647 L 0.478 0.867 L 0.191 0.757 " transform="matrix(500,0,0,500,0,0)"/>
<path style="fill:none;stroke-width:0.003;stroke-linecap:butt;stroke-linejoin:miter;stroke:rgb(15.3%,79.9%,54.1%);stroke-opacity:1;stroke-miterlimit:10;" d="M 0.622 0.519 L 0.751 0.669 L 0.763 0.819 L 0.622 0.519 " transform="matrix(500,0,0,500,0,0)"/>
<path style="fill:none;stroke-width:0.003;stroke-linecap:butt;stroke-linejoin:miter;stroke:rgb(46.5%,24.3%,73.3%);stroke-opacity:1;stroke-miterlimit:10;" d="M 0.465 0.664 L 0.58 0.554 L 0.828 0.774 L 0.465 0.664 " transform="matrix(500,0,0,500,0,0)"/>
<path style="fill:none;stroke-width:0.003;stroke-linecap:butt;stroke-linejoin:miter;stroke:rgb(15.2%,100%,47.7%);stroke-opacity:1;stroke-miterlimit:10;" d="M 0.953 0.844 L 1.074 0.98 L 1.295 1.116 L 0.953 0.844 " transform="matrix(500,0,0,500,0,0)"/>
<path style="fill:none;stroke-width:0.003;stroke-linecap:butt;stroke-linejoin:miter;stroke:rgb(49.1%,23.5%,23.7%);stroke-opacity:1;stroke-miterlimit:10;" d="M 0.183 0.032 L 0.065 0.179 L 0.165 0.326 L 0.183 0.032 " transform="matrix(500,0,0,500,0,0)"/>
<path style="fill:none;stroke-width:0.003;stroke-linecap:butt;stroke-linejoin:miter;stroke:rgb(100%,82.1%,41.1%);stroke-opacity:1;stroke-miterlimit:10;" d="M 0.533 0.151 L 0.401 0.293 L 0.531 0.435 L 0.533 0.151 " transform="matrix(500,0,0,500,0,0)"/>
<path style="fill:none;stroke-width:0.003;stroke-linecap:butt;stroke-linejoin:miter;stroke:rgb(26.4%,55.1%,43.7%);stroke-opacity:1;stroke-miterlimit:10;" d="M 0.472 0.569 L 0.332 0.671 L 0.468 0.773 L 0.472 0.569 " transform="matrix(500,0,0,500,0,0)"/>
<path style="fill:none;stroke-width:0.003;stroke-linecap:butt;stroke-linejoin:miter;stroke:rgb(78.6%,67.3%,69.7%);stroke-opacity:1;stroke-miterlimit:10;" d="M 0.723 0.472 L 0.869 0.325 L 1.159 0.619 L 0.723 0.472 " transform="matrix(500,0,0,500,0,0)"/>
<path style="fill:none;stroke-width:0.003;stroke-linecap:butt;stroke-linejoin:miter;stroke:rgb(31.2%,61.7%,56%);stroke-opacity:1;stroke-miterlimit:10;" d="M 0.139 0.979 L 0.018 1.096 L 0.156 1.213 L 0.139 0.979 " transform="matrix(500,0,0,500,0,0)"/>
<path style="fill:none;stroke-width:0.003;stroke-linecap:butt;stroke-linejoin:miter;stroke:rgb(86.2%,28.9%,6.4%);stroke-opacity:1;stroke-miterlimit:10;" d="M 0.362 0.744 L 0.233 0.606 L 0.638 0.882 L 0.362 0.744 " transform="matrix(500,0,0,500,0,0)"/>
<path style="fill:none;stroke-width:0.003;stroke-linecap:butt;stroke-linejoin:miter;stroke:rgb(28.7%,20.6%,65.1%);stroke-opacity:1;stroke-miterlimit:10;" d="M 0.307 0.857 L 0.165 0.73 L 0.336 0.984 L 0.307 0.857 " transform="matrix(500,0,0,500,0,0)"/>
<path style="fill:none;stroke-width:0.003;stroke-linecap:butt;stroke-linejoin:miter;stroke:rgb(38.1%,28.7%,94.7%);stroke-opacity:1;stroke-miterlimit:10;" d="M 0.334 0.309 L 0.482 0.417 L 0.743 0.525 L 0.334 0.309 " transform="matrix(500,0,0,500,0,0)"/>
<path style="fill:none;stroke-width:0.003;stroke-linecap:butt;stroke-linejoin:miter;stroke:rgb(28%,10.1%,77.2%);stroke-opacity:1;stroke-miterlimit:10;" d="M 0.997 0.991 L 1.141 1.137 L 1.168 1.283 L 0.997 0.991 " transform="matrix(500,0,0,500,0,0)"/>
<path style="fill:none;stroke-width:0.003;stroke-linecap:butt;stroke-linejoin:miter;stroke:rgb(77.1%,15.1%,90.5%);stroke-opacity:1;stroke-miterlimit:10;" d="M 0.965 0.983 L 1.108 1.105 L 1.141 1.227 L 0.965 0.983 " transform="matrix(500,0,0,500,0,0)"/>
<path style="fill:none;stroke-width:0.003;stroke-linecap:butt;stroke-linejoin:miter;stroke:rgb(48.8%,10.3%,88.3%);stroke-opacity:1;stroke-miterlimit:10;" d="M 0.477 0.948 L 0.344 0.838 L 0.477 1.058 L 0.477 0.948 " transform="matrix(500,0,0,500,0,0)"/>
<path style="fill:none;stroke-width:0.003;stroke-linecap:butt;stroke-linejoin:miter;stroke:rgb(23.5%,72.6%,11.8%);stroke-opacity:1;stroke-miterlimit:10;" d="M 0.892 0.779 L 1.042 0.915 L 1.315 1.051 L 0.892 0.779 " transform="matrix(500,0,0,500,0,0)"/>
<path style="fill:none;stroke-width:0.003;stroke-linecap:butt;stroke-linejoin:miter;stroke:rgb(98.3%,6.2%,42.7%);stroke-opacity:1;stroke-miterlimit:10;" d="M 0.833 0.779 L 0.708 0.925 L 0.81 1.071 L 0.833 0.779 " transform="matrix(500,0,0,500,0,0)"/>
<path style="fill:none;stroke-width:0.003;stroke-linecap:butt;stroke-linejoin:miter;stroke:rgb(8.9%,44.9%,82.3%);stroke-opacity:1;stroke-miterlimit:10;" d="M 0.822 0.814 L 0.932 0.924 L 0.942 1.034 L 0.822 0.814 " transform="matrix(500,0,0,500,0,0)"/>
<path style="fill:none;stroke-width:0.003;stroke-linecap:butt;stroke-linejoin:miter;stroke:rgb(33.1%,35.3%,57.9%);stroke-opacity:1;stroke-miterlimit:10;" d="M 0.457 0.582 L 0.345 0.724 L 0.685 0.866 L 0.457 0.582 " transform="matrix(500,0,0,500,0,0)"/>
<path style="fill:none;stroke-width:0.003;stroke-linecap:butt;stroke-linejoin:miter;stroke:rgb(87.8%,96.3%,33.8%);stroke-opacity:1;stroke-miterlimit:10;" d="M 0.445 0.714 L 0.297 0.831 L 0.448 0.948 L 0.445 0.714 " transform="matrix(500,0,0,500,0,0)"/>
<path style="fill:none;stroke-width:0.003;stroke-linecap:butt;stroke-linejoin:miter;stroke:rgb(25%,59%,86.3%);stroke-opacity:1;stroke-miterlimit:10;" d="M 0.792 0.006 L 0.664 0.107 L 0.807 0.208 L 0.792 0.006 " transform="matrix(500,0,0,500,0,0)"/>
<path style="fill:none;stroke-width:0.003;stroke-linecap:butt;stroke-linejoin:miter;stroke:rgb(42.7%,30.1%,8.2%);stroke-opacity:1;stroke-miterlimit:10;" d="M 0.072 0.892 L -0.028 1.038 L 0.038 1.184 L 0.072 0.892 " transform="matrix(500,0,0,500,0,0)"/>
<path style="fill:none;stroke-width:0.003;stroke-linecap:butt;stroke-linejoin:miter;stroke:rgb(90%,2.9%,92.4%);stroke-opacity:1;stroke-miterlimit:10;" d="M 0.077 0.203 L -0.065 0.075 L 0.117 0.331 L 0.077 0.203 " transform="matrix(500,0,0,500,0,0)"/>
<path style="fill:none;stroke-width:0.003;stroke-linecap:butt;stroke-linejoin:miter;stroke:rgb(18.5%,11.4%,9.4%);stroke-opacity:1;stroke-miterlimit:10;" d="M 0.304 0.177 L 0.176 0.321 L 0.579 0.465 L 0.304 0.177 " transform="matrix(500,0,0,500,0,0)"/>
<path style="fill:none;stroke-width:0.003;stroke-linecap:butt;stroke-linejoin:miter;stroke:rgb(45.3%,15.9%,78.3%);stroke-opacity:1;stroke-miterlimit:10;" d="M 0.772 0.182 L 0.905 0.296 L 0.934 0.41 L 0.772 0.182 " transform="matrix(500,0,0,500,0,0)"/>
<path style="fill:none;stroke-width:0.003;stroke-linecap:butt;stroke-linejoin:miter;stroke:rgb(38.8%,77.9%,54.5%);stroke-opacity:1;stroke-miterlimit:10;" d="M 0.827 0.355 L 0.711 0.227 L 1.049 0.483 L 0.827 0.355 " transform="matrix(500,0,0,500,0,0)"/>
<path style="fill:none;stroke-width:0.003;stroke-linecap:butt;stroke-linejoin:miter;stroke:rgb(46.9%,88.5%,37.4%);stroke-opacity:1;stroke-miterlimit:10;" d="M 0.929 0.98 L 1.079 1.119 L 1.337 1.258 L 0.929 0.98 " transform="matrix(500,0,0,500,0,0)"/>
<path style="fill:none;stroke-width:0.003;stroke-linecap:butt;stroke-linejoin:miter;stroke:rgb(40.5%,29.9%,93.1%);stroke-opacity:1;stroke-miterlimit:10;" d="M 0.14 0.391 L 0.01 0.283 L 0.124 0.499 L 0.14 0.391 " transform="matrix(500,0,0,500,0,0)"/>
<path style="fill:none;stroke-width:0.003;stroke-linecap:butt;stroke-linejoin:miter;stroke:rgb(57.9%,82%,21.4%);stroke-opacity:1;stroke-miterlimit:10;" d="M 0.149 0.819 L 0.257 0.695 L 0.242 0.943 L 0.149 0.819 " transform="matrix(500,0,0,500,0,0)"/>
<path style="fill:none;stroke-width:0.003;stroke-linecap:butt;stroke-linejoin:miter;stroke:rgb(83.5%,20.4%,6.7%);stroke-opacity:1;stroke-miterlimit:10;" d="M 0.737 0.37 L 0.854 0.27 L 1.082 0.47 L 0.737 0.37 " transform="matrix(500,0,0,500,0,0)"/>
<path style="fill:none;stroke-width:0.003;stroke-linecap:butt;stroke-linejoin:miter;stroke:rgb(44.8%,16.5%,25.8%);stroke-opacity:1;stroke-miterlimit:10;" d="M 0.681 0.544 L 0.572 0.693 L 0.916 0.842 L 0.681 0.544 " transform="matrix(500,0,0,500,0,0)"/>
<path style="fill:none;stroke-width:0.003;stroke-linecap:butt;stroke-linejoin:miter;stroke:rgb(70.3%,70.9%,47%);stroke-opacity:1;stroke-miterlimit:10;" d="M 0.467 0.772 L 0.354 0.89 L 0.48 1.008 L 0.467 0.772 " transform="matrix(500,0,0,500,0,0)"/>
<path style="fill:none;stroke-width:0.003;stroke-linecap:butt;stroke-linejoin:miter;stroke:rgb(15.2%,48.4%,76.7%);stroke-opacity:1;stroke-miterlimit:10;" d="M 0.021 0.492 L -0.085 0.629 L 0.016 0.766 L 0.021 0.492 " transform="matrix(500,0,0,500,0,0)"/>
<path style="fill:none;stroke-width:0.003;stroke-linecap:butt;stroke-linejoin:miter;stroke:rgb(82.1%,35%,40.9%);stroke-opacity:1;stroke-miterlimit:10;" d="M 0.51 0.771 L 0.404 0.894 L 0.734 1.017 L 0.51 0.771 " transform="matrix(500,0,0,500,0,0)"/>
<path style="fill:none;stroke-width:0.003;stroke-linecap:butt;stroke-linejoin:miter;stroke:rgb(40.9%,89.5%,4.5%);stroke-opacity:1;stroke-miterlimit:10;" d="M 0.417 0.959 L 0.523 1.1 L 0.744 1.241 L 0.417 0.959 " transform="matrix(500,0,0,500,0,0)"/>
<path style="fill:none;stroke-width:0.003;stroke-linecap:butt;stroke-linejoin:miter;stroke:rgb(7.1%,63.4%,38%);stroke-opacity:1;stroke-miterlimit:10;" d="M 0.89 0.618 L 1.017 0.495 L 1.007 0.741 L 0.89 0.618 " transform="matrix(500,0,0,500,0,0)"/>
<path style="fill:none;stroke-width:0.003;stroke-linecap:butt;stroke-linejoin:miter;stroke:rgb(51.9%,0.2%,59.3%);stroke-opacity:1;stroke-miterlimit:10;" d="M 0.935 0.017 L 0.794 0.162 L 0.941 0.307 L 0.935 0.017 " transform="matrix(500,0,0,500,0,0)"/>
<path style="fill:none;stroke-width:0.003;stroke-linecap:butt;stroke-linejoin:miter;stroke:rgb(44%,49.4%,34.9%);stroke-opacity:1;stroke-miterlimit:10;" d="M 0.915 0.493 L 0.814 0.608 L 0.904 0.723 L 0.915 0.493 " transform="matrix(500,0,0,500,0,0)"/>
<path style="fill:none;stroke-width:0.003;stroke-linecap:butt;stroke-linejoin:miter;stroke:rgb(28.7%,85.9%,82.1%);stroke-opacity:1;stroke-miterlimit:10;" d="M 0.998 0.738 L 1.135 0.603 L 1.415 0.873 L 0.998 0.738 " transform="matrix(500,0,0,500,0,0)"/>
<path style="fill:none;stroke-width:0.003;stroke-linecap:butt;stroke-linejoin:miter;stroke:rgb(66.1%,59.9%,94.8%);stroke-opacity:1;stroke-miterlimit:10;" d="M 0.763 0.088 L 0.648 0.194 L 0.755 0.3 L 0.763 0.088 " transform="matrix(500,0,0,500,0,0)"/>
<path style="fill:none;stroke-width:0.003;stroke-linecap:butt;stroke-linejoin:miter;stroke:rgb(89.4%,63.4%,1.7%);stroke-opacity:1;stroke-miterlimit:10;" d="M 0.077 0.826 L -0.068 0.713 L 0.084 0.939 L 0.077 0.826 " transform="matrix(500,0,0,500,0,0)"/>
<path style="fill:none;stroke-width:0.003;stroke-linecap:butt;stroke-linejoin:miter;stroke:rgb(2%,54%,30.9%);stroke-opacity:1;stroke-miterlimit:10;" d="M 0.736 0.807 L 0.875 0.944 L 1.154 1.081 L 0.736 0.807 " transform="matrix(500,0,0,500,0,0)"/>
<path style="fill:none;stroke-width:0.003;stroke-linecap:butt;stroke-linejoin:miter;stroke:rgb(58.2%,10%,99.1%);stroke-opacity:1;stroke-miterlimit:10;" d="M 0.872 0.126 L 1.021 0.02 L 1.316 0.232 L 0.872 0.126 " transform="matrix(500,0,0,500,0,0)"/>
<path style="fill:none;stroke-width:0.003;stroke-linecap:butt;stroke-linejoin:miter;stroke:rgb(62.9%,72.9%,64.3%);stroke-opacity:1;stroke-miterlimit:10;" d="M 0.807 0.564 L 0.92 0.665 L 0.889 0.766 L 0.807 0.564 " transform="matrix(500,0,0,500,0,0)"/>
<path style="fill:none;stroke-width:0.003;stroke-linecap:butt;stroke-linejoin:miter;stroke:rgb(69.7%,79.2%,37.9%);stroke-opacity:1;stroke-miterlimit:10;" d="M 0.129 0.324 L 0.263 0.203 L 0.294 0.445 L 0.129 0.324 " transform="matrix(500,0,0,500,0,0)"/>
<path style="fill:none;stroke-width:0.003;stroke-linecap:butt;stroke-linejoin:miter;stroke:rgb(84.7%,41.4%,73.8%);stroke-opacity:1;stroke-miterlimit:10;" d="M 0.024 0.35 L -0.077 0.244 L 0.008 0.456 L 0.024 0.35 " transform="matrix(500,0,0,500,0,0)"/>
<path style="fill:none;stroke-width:0.003;stroke-linecap:butt;stroke-linejoin:miter;stroke:rgb(45.3%,55.9%,21.6%);stroke-opacity:1;stroke-miterlimit:10;" d="M 0.043 0.385 L -0.065 0.239 L 0.03 0.531 L 0.043 0.385 " transform="matrix(500,0,0,500,0,0)"/>
<path style="fill:none;stroke-width:0.003;stroke-linecap:butt;stroke-linejoin:miter;stroke:rgb(75.6%,4.3%,80%);stroke-opacity:1;stroke-miterlimit:10;" d="M 0.768 0.2 L 0.888 0.323 L 1.134 0.446 L 0.768 0.2 " transform="matrix(500,0,0,500,0,0)"/>
<path style="fill:none;stroke-width:0.003;stroke-linecap:butt;stroke-linejoin:miter;stroke:rgb(32.7%,94%,49.9%);stroke-opacity:1;stroke-miterlimit:10;" d="M 0.019 0.762 L 0.141 0.618 L 0.146 0.906 L 0.019 0.762 " transform="matrix(500,0,0,500,0,0)"/>
<path style="fill:none;stroke-width:0.003;stroke-linecap:butt;stroke-linejoin:miter;stroke:rgb(13.6%,89.7%,74.2%);stroke-opacity:1;stroke-miterlimit:10;" d="M 0.35 0.966 L 0.473 1.112 L 0.731 1.258 L 0.35 0.966 " transform="matrix(500,0,0,500,0,0)"/>
<path style="fill:none;stroke-width:0.003;stroke-linecap:butt;stroke-linejoin:miter;stroke:rgb(54.6%,16.1%,26.5%);stroke-opacity:1;stroke-miterlimit:10;" d="M 0.252 0.463 L 0.117 0.612 L 0.504 0.761 L 0.252 0.463 " transform="matrix(500,0,0,500,0,0)"/>
<path style="fill:none;stroke-width:0.003;stroke-linecap:butt;stroke-linejoin:miter;stroke:rgb(83.3%,78.2%,16.8%);stroke-opacity:1;stroke-miterlimit:10;" d="M 0.436 0.176 L 0.548 0.045 L 0.538 0.307 L 0.436 0.176 " transform="matrix(500,0,0,500,0,0)"/>
<path style="fill:none;stroke-width:0.003;stroke-linecap:butt;stroke-linejoin:miter;stroke:rgb(6.3%,79.1%,76.9%);stroke-opacity:1;stroke-miterlimit:10;" d="M 0.517 0.895 L 0.63 0.793 L 0.846 0.997 L 0.517 0.895 " transform="matrix(500,0,0,500,0,0)"/>
<path style="fill:none;stroke-width:0.003;stroke-linecap:butt;stroke-linejoin:miter;stroke:rgb(3.7%,79.1%,89.3%);stroke-opacity:1;stroke-miterlimit:10;" d="M 0.18 0.35 L 0.302 0.244 L 0.317 0.456 L 0.18 0.35 " transform="matrix(500,0,0,500,0,0)"/>
<path style="fill:none;stroke-width:0.003;stroke-linecap:butt;stroke-linejoin:miter;stroke:rgb(26.9%,26.9%,40.1%);stroke-opacity:1;stroke-miterlimit:10;" d="M 0.768 0.825 L 0.918 0.968 L 0.961 1.111 L 0.768 0.825 " transform="matrix(500,0,0,500,0,0)"/>
<path style="fill:none;stroke-width:0.003;stroke-linecap:butt;stroke-linejoin:miter;stroke:rgb(68.7%,49.2%,44.5%);stroke-opacity:1;stroke-miterlimit:10;" d="M 0.302 0.593 L 0.153 0.737 L 0.557 0.881 L 0.302 0.593 " transform="matrix(500,0,0,500,0,0)"/>
<path style="fill:none;stroke-width:0.003;stroke-linecap:butt;stroke-linejoin:miter;stroke:rgb(92.3%,12.4%,75.4%);stroke-opacity:1;stroke-miterlimit:10;" d="M 0.165 0.598 L 0.021 0.698 L 0.184 0.798 L 0.165 0.598 " transform="matrix(500,0,0,500,0,0)"/>
<path style="fill:none;stroke-width:0.003;stroke-linecap:butt;stroke-linejoin:miter;stroke:rgb(63.7%,97.4%,16.3%);stroke-opacity:1;stroke-miterlimit:10;" d="M 0.983 0.766 L 0.845 0.87 L 0.988 0.974 L 0.983 0.766 " transform="matrix(500,0,0,500,0,0)"/>
<path style="fill:none;stroke-width:0.003;stroke-linecap:butt;stroke-linejoin:miter;stroke:rgb(43.4%,93.5%,41.3%);stroke-opacity:1;stroke-miterlimit:10;" d="M 0.992 0.481 L 1.115 0.379 L 1.346 0.583 L 0.992 0.481 " transform="matrix(500,0,0,500,0,0)"/>
<path style="fill:none;stroke-width:0.003;stroke-linecap:butt;stroke-linejoin:miter;stroke:rgb(94.5%,62.3%,79.5%);stroke-opacity:1;stroke-miterlimit:10;" d="M 0.614 0 L 0.715 0.113 L 0.715 0.226 L 0.614 0 " transform="matrix(500,0,0,500,0,0)"/>
<path style="fill:none;stroke-width:0.003;stroke-linecap:butt;stroke-linejoin:miter;stroke:rgb(15.9%,19.1%,52%);stroke-opacity:1;stroke-miterlimit:10;" d="M 0.518 0.585 L 0.638 0.446 L 0.631 0.724 L 0.518 0.585 " transform="matrix(500,0,0,500,0,0)"/>
<path style="fill:none;stroke-width:0.003;stroke-linecap:butt;stroke-linejoin:miter;stroke:rgb(69.7%,0.4%,45.5%);stroke-opacity:1;stroke-miterlimit:10;" d="M 0.4 0 L 0.533 0.143 L 0.79 0.286 L 0.4 0 " transform="matrix(500,0,0,500,0,0)"/>
<path style="fill:none;stroke-width:0.003;stroke-linecap:butt;stroke-linejoin:miter;stroke:rgb(58.2%,18.5%,59.2%);stroke-opacity:1;stroke-miterlimit:10;" d="M 0.161 0.868 L 0.046 0.982 L 0.423 1.096 L 0.161 0.868 " transform="matrix(500,0,0,500,0,0)"/>
<path style="fill:none;stroke-width:0.003;stroke-linecap:butt;stroke-linejoin:miter;stroke:rgb(14.2%,58.8%,21.3%);stroke-opacity:1;stroke-miterlimit:10;" d="M 0.657 0.455 L 0.507 0.566 L 0.667 0.677 L 0.657 0.455 " transform="matrix(500,0,0,500,0,0)"/>
<path style="fill:none;stroke-width:0.003;stroke-linecap:butt;stroke-linejoin:miter;stroke:rgb(80.7%,23.3%,72.3%);stroke-opacity:1;stroke-miterlimit:10;" d="M 0.804 0.658 L 0.933 0.548 L 1.185 0.768 L 0.804 0.658 " transform="matrix(500,0,0,500,0,0)"/>
<path style="fill:none;stroke-width:0.003;stroke-linecap:butt;stroke-linejoin:miter;stroke:rgb(38.6%,29%,69.7%);stroke-opacity:1;stroke-miterlimit:10;" d="M 0.069 0.308 L 0.189 0.184 L 0.159 0.432 L 0.069 0.308 " transform="matrix(500,0,0,500,0,0)"/>
<path style="fill:none;stroke-width:0.003;stroke-linecap:butt;stroke-linejoin:miter;stroke:rgb(13.6%,52.7%,33.3%);stroke-opacity:1;stroke-miterlimit:10;" d="M 0.902 0.626 L 0.771 0.51 L 1.17 0.742 L 0.902 0.626 " transform="matrix(500,0,0,500,0,0)"/>
</g>
</defs>
<g id="surface202">
<use xlink:href="#surface205"/>
</g>
</svg>
