<?xml version="1.0" encoding="UTF-8"?>
<svg xmlns="http://www.w3.org/2000/svg" xmlns:xlink="http://www.w3.org/1999/xlink" width="500pt" height="500pt" viewBox="0 0 500 500" version="1.1">
<defs>
<radialGradient id="radial0" gradientUnits="userSpaceOnUse" cx="0.5" cy="0.5" fx="0.5" fy="0.5" r="0.6" gradientTransform="matrix(500,0,0,500,0,0)">
<stop offset="0.466667" style="stop-color:rgb(98.4%,95.9%,5.9%);stop-opacity:1;"/>
<stop offset="0.6" style="stop-color:rgb(90.3%,76.6%,3.1%);stop-opacity:1;"/>
</radialGradient>
<clipPath id="clip1">
  <rect x="0" y="0" width="500" height="500"/>
</clipPath>
<g id="surface348" clip-path="url(#clip1)">
<rect x="0" y="0" width="500" height="500" style="fill:url(#radial0);stroke:none;"/>
<path style=" stroke:none;fill-rule:nonzero;fill:rgb(12.1%,88.6%,82.5%);fill-opacity:1;" d="M 43.5 25 C 43.5 35.21875 35.21875 43.5 25 43.5 C 14.78125 43.5 6.5 35.21875 6.5 25 C 6.5 14.78125 14.78125 6.5 25 6.5 C 35.21875 6.5 43.5 14.78125 43.5 25 "/>
<path style=" stroke:none;fill-rule:nonzero;fill:rgb(24%,34.3%,88.4%);fill-opacity:1;" d="M 94.5 25 C 94.5 35.769531 85.769531 44.5 75 44.5 C 64.230469 44.5 55.5 35.769531 55.5 25 C 55.5 14.230469 64.230469 5.5 75 5.5 C 85.769531 5.5 94.5 14.230469 94.5 25 "/>
<path style=" stroke:none;fill-rule:nonzero;fill:rgb(41.4%,20.6%,2.7%);fill-opacity:1;" d="M 136 25 C 136 31.074219 131.074219 36 125 36 C 118.925781 36 114 31.074219 114 25 C 114 18.925781 118.925781 14 125 14 C 131.074219 14 136 18.925781 136 25 "/>
<path style=" stroke:none;fill-rule:nonzero;fill:rgb(32.1%,36.2%,70.3%);fill-opacity:1;" d="M 189 25 C 189 32.730469 182.730469 39 175 39 C 167.269531 39 161 32.730469 161 25 C 161 17.269531 167.269531 11 175 11 C 182.730469 11 189 17.269531 189 25 "/>
<path style=" stroke:none;fill-rule:nonzero;fill:rgb(89.8%,94%,63.8%);fill-opacity:1;" d="M 232 25 C 232 28.867188 228.867188 32 225 32 C 221.132812 32 218 28.867188 218 25 C 218 21.132812 221.132812 18 225 18 C 228.867188 18 232 21.132812 232 25 "/>
<path style=" stroke:none;fill-rule:nonzero;fill:rgb(47.1%,42.1%,64.2%);fill-opacity:1;" d="M 296 25 C 296 36.597656 286.597656 46 275 46 C 263.402344 46 254 36.597656 254 25 C 254 13.402344 263.402344 4 275 4 C 286.597656 4 296 13.402344 296 25 "/>
<path style=" stroke:none;fill-rule:nonzero;fill:rgb(39.5%,59.4%,14.7%);fill-opacity:1;" d="M 338.5 25 C 338.5 32.457031 332.457031 38.5 325 38.5 C 317.542969 38.5 311.5 32.457031 311.5 25 C 311.5 17.542969 317.542969 11.5 325 11.5 C 332.457031 11.5 338.5 17.542969 338.5 25 "/>
<path style=" stroke:none;fill-rule:nonzero;fill:rgb(65.6%,50.2%,66.6%);fill-opacity:1;" d="M 389.5 25 C 389.5 33.007812 383.007812 39.5 375 39.5 C 366.992188 39.5 360.5 33.007812 360.5 25 C 360.5 16.992188 366.992188 10.5 375 10.5 C 383.007812 10.5 389.5 16.992188 389.5 25 "/>
<path style=" stroke:none;fill-rule:nonzero;fill:rgb(60.1%,40.2%,3.7%);fill-opacity:1;" d="M 436 25 C 436 31.074219 431.074219 36 425 36 C 418.925781 36 414 31.074219 414 25 C 414 18.925781 418.925781 14 425 14 C 431.074219 14 436 18.925781 436 25 "/>
<path style=" stroke:none;fill-rule:nonzero;fill:rgb(82.3%,0.5%,14.7%);fill-opacity:1;" d="M 481 25 C 481 28.3125 478.3125 31 475 31 C 471.6875 31 469 28.3125 469 25 C 469 21.6875 471.6875 19 475 19 C 478.3125 19 481 21.6875 481 25 "/>
<path style=" stroke:none;fill-rule:nonzero;fill:rgb(30.5%,82.3%,63.8%);fill-opacity:1;" d="M 484 75 C 484 79.96875 479.96875 84 475 84 C 470.03125 84 466 79.96875 466 75 C 466 70.03125 470.03125 66 475 66 C 479.96875 66 484 70.03125 484 75 "/>
<path style=" stroke:none;fill-rule:nonzero;fill:rgb(30.8%,90.4%,50.1%);fill-opacity:1;" d="M 442 75 C 442 84.390625 434.390625 92 425 92 C 415.609375 92 408 84.390625 408 75 C 408 65.609375 415.609375 58 425 58 C 434.390625 58 442 65.609375 442 75 "/>
<path style=" stroke:none;fill-rule:nonzero;fill:rgb(6.3%,38.8%,91.3%);fill-opacity:1;" d="M 400 75 C 400 88.808594 388.808594 100 375 100 C 361.191406 100 350 88.808594 350 75 C 350 61.191406 361.191406 50 375 50 C 388.808594 50 400 61.191406 400 75 "/>
<path style=" stroke:none;fill-rule:nonzero;fill:rgb(17.3%,91.6%,71.8%);fill-opacity:1;" d="M 343.5 75 C 343.5 85.21875 335.21875 93.5 325 93.5 C 314.78125 93.5 306.5 85.21875 306.5 75 C 306.5 64.78125 314.78125 56.5 325 56.5 C 335.21875 56.5 343.5 64.78125 343.5 75 "/>
<path style=" stroke:none;fill-rule:nonzero;fill:rgb(42.3%,60.4%,79.8%);fill-opacity:1;" d="M 295.5 75 C 295.5 86.320312 286.320312 95.5 275 95.5 C 263.679688 95.5 254.5 86.320312 254.5 75 C 254.5 63.679688 263.679688 54.5 275 54.5 C 286.320312 54.5 295.5 63.679688 295.5 75 "/>
<path style=" stroke:none;fill-rule:nonzero;fill:rgb(76.8%,40.3%,43.7%);fill-opacity:1;" d="M 242.5 75 C 242.5 84.664062 234.664062 92.5 225 92.5 C 215.335938 92.5 207.5 84.664062 207.5 75 C 207.5 65.335938 215.335938 57.5 225 57.5 C 234.664062 57.5 242.5 65.335938 242.5 75 "/>
<path style=" stroke:none;fill-rule:nonzero;fill:rgb(60.7%,71.7%,93.2%);fill-opacity:1;" d="M 190.5 75 C 190.5 83.558594 183.558594 90.5 175 90.5 C 166.441406 90.5 159.5 83.558594 159.5 75 C 159.5 66.441406 166.441406 59.5 175 59.5 C 183.558594 59.5 190.5 66.441406 190.5 75 "/>
<path style=" stroke:none;fill-rule:nonzero;fill:rgb(22.5%,52.7%,99.5%);fill-opacity:1;" d="M 141 75 C 141 83.835938 133.835938 91 125 91 C 116.164062 91 109 83.835938 109 75 C 109 66.164062 116.164062 59 125 59 C 133.835938 59 141 66.164062 141 75 "/>
<path style=" stroke:none;fill-rule:nonzero;fill:rgb(66.3%,8.8%,89.2%);fill-opacity:1;" d="M 83 75 C 83 79.417969 79.417969 83 75 83 C 70.582031 83 67 79.417969 67 75 C 67 70.582031 70.582031 67 75 67 C 79.417969 67 83 70.582031 83 75 "/>
<path style=" stroke:none;fill-rule:nonzero;fill:rgb(72.1%,48.2%,53.7%);fill-opacity:1;" d="M 39 75 C 39 82.730469 32.730469 89 25 89 C 17.269531 89 11 82.730469 11 75 C 11 67.269531 17.269531 61 25 61 C 32.730469 61 39 67.269531 39 75 "/>
<path style=" stroke:none;fill-rule:nonzero;fill:rgb(67%,74.4%,9.9%);fill-opacity:1;" d="M 46 125 C 46 136.597656 36.597656 146 25 146 C 13.402344 146 4 136.597656 4 125 C 4 113.402344 13.402344 104 25 104 C 36.597656 104 46 113.402344 46 125 "/>
<path style=" stroke:none;fill-rule:nonzero;fill:rgb(40.1%,37.7%,90.1%);fill-opacity:1;" d="M 88 125 C 88 132.179688 82.179688 138 75 138 C 67.820312 138 62 132.179688 62 125 C 62 117.820312 67.820312 112 75 112 C 82.179688 112 88 117.820312 88 125 "/>
<path style=" stroke:none;fill-rule:nonzero;fill:rgb(80.6%,39.6%,22.1%);fill-opacity:1;" d="M 142 125 C 142 134.390625 134.390625 142 125 142 C 115.609375 142 108 134.390625 108 125 C 108 115.609375 115.609375 108 125 108 C 134.390625 108 142 115.609375 142 125 "/>
<path style=" stroke:none;fill-rule:nonzero;fill:rgb(60.5%,34.5%,13.7%);fill-opacity:1;" d="M 199.5 125 C 199.5 138.53125 188.53125 149.5 175 149.5 C 161.46875 149.5 150.5 138.53125 150.5 125 C 150.5 111.46875 161.46875 100.5 175 100.5 C 188.53125 100.5 199.5 111.46875 199.5 125 "/>
<path style=" stroke:none;fill-rule:nonzero;fill:rgb(27.9%,24.5%,91.3%);fill-opacity:1;" d="M 250 125 C 250 138.808594 238.808594 150 225 150 C 211.191406 150 200 138.808594 200 125 C 200 111.191406 211.191406 100 225 100 C 238.808594 100 250 111.191406 250 125 "/>
<path style=" stroke:none;fill-rule:nonzero;fill:rgb(36.4%,77.1%,31.4%);fill-opacity:1;" d="M 294.5 125 C 294.5 135.769531 285.769531 144.5 275 144.5 C 264.230469 144.5 255.5 135.769531 255.5 125 C 255.5 114.230469 264.230469 105.5 275 105.5 C 285.769531 105.5 294.5 114.230469 294.5 125 "/>
<path style=" stroke:none;fill-rule:nonzero;fill:rgb(75.3%,47.6%,9.9%);fill-opacity:1;" d="M 344.5 125 C 344.5 135.769531 335.769531 144.5 325 144.5 C 314.230469 144.5 305.5 135.769531 305.5 125 C 305.5 114.230469 314.230469 105.5 325 105.5 C 335.769531 105.5 344.5 114.230469 344.5 125 "/>
<path style=" stroke:none;fill-rule:nonzero;fill:rgb(44.2%,92%,43.2%);fill-opacity:1;" d="M 393.5 125 C 393.5 135.21875 385.21875 143.5 375 143.5 C 364.78125 143.5 356.5 135.21875 356.5 125 C 356.5 114.78125 364.78125 106.5 375 106.5 C 385.21875 106.5 393.5 114.78125 393.5 125 "/>
<path style=" stroke:none;fill-rule:nonzero;fill:rgb(87.8%,46%,89.9%);fill-opacity:1;" d="M 449 125 C 449 138.253906 438.253906 149 425 149 C 411.746094 149 401 138.253906 401 125 C 401 111.746094 411.746094 101 425 101 C 438.253906 101 449 111.746094 449 125 "/>
<path style=" stroke:none;fill-rule:nonzero;fill:rgb(91.8%,34.9%,36.4%);fill-opacity:1;" d="M 497 125 C 497 137.148438 487.148438 147 475 147 C 462.851562 147 453 137.148438 453 125 C 453 112.851562 462.851562 103 475 103 C 487.148438 103 497 112.851562 497 125 "/>
<path style=" stroke:none;fill-rule:nonzero;fill:rgb(61.6%,21%,64%);fill-opacity:1;" d="M 482.5 175 C 482.5 179.140625 479.140625 182.5 475 182.5 C 470.859375 182.5 467.5 179.140625 467.5 175 C 467.5 170.859375 470.859375 167.5 475 167.5 C 479.140625 167.5 482.5 170.859375 482.5 175 "/>
<path style=" stroke:none;fill-rule:nonzero;fill:rgb(46.4%,80.7%,1.4%);fill-opacity:1;" d="M 437.5 175 C 437.5 181.902344 431.902344 187.5 425 187.5 C 418.097656 187.5 412.5 181.902344 412.5 175 C 412.5 168.097656 418.097656 162.5 425 162.5 C 431.902344 162.5 437.5 168.097656 437.5 175 "/>
<path style=" stroke:none;fill-rule:nonzero;fill:rgb(86.5%,20.7%,17.6%);fill-opacity:1;" d="M 395.5 175 C 395.5 186.320312 386.320312 195.5 375 195.5 C 363.679688 195.5 354.5 186.320312 354.5 175 C 354.5 163.679688 363.679688 154.5 375 154.5 C 386.320312 154.5 395.5 163.679688 395.5 175 "/>
<path style=" stroke:none;fill-rule:nonzero;fill:rgb(87.3%,29.5%,41.1%);fill-opacity:1;" d="M 335.5 175 C 335.5 180.800781 330.800781 185.5 325 185.5 C 319.199219 185.5 314.5 180.800781 314.5 175 C 314.5 169.199219 319.199219 164.5 325 164.5 C 330.800781 164.5 335.5 169.199219 335.5 175 "/>
<path style=" stroke:none;fill-rule:nonzero;fill:rgb(58.4%,12.2%,43.9%);fill-opacity:1;" d="M 295 175 C 295 186.046875 286.046875 195 275 195 C 263.953125 195 255 186.046875 255 175 C 255 163.953125 263.953125 155 275 155 C 286.046875 155 295 163.953125 295 175 "/>
<path style=" stroke:none;fill-rule:nonzero;fill:rgb(32.1%,27.6%,79.3%);fill-opacity:1;" d="M 245.5 175 C 245.5 186.320312 236.320312 195.5 225 195.5 C 213.679688 195.5 204.5 186.320312 204.5 175 C 204.5 163.679688 213.679688 154.5 225 154.5 C 236.320312 154.5 245.5 163.679688 245.5 175 "/>
<path style=" stroke:none;fill-rule:nonzero;fill:rgb(44.1%,66.7%,74.5%);fill-opacity:1;" d="M 181 175 C 181 178.3125 178.3125 181 175 181 C 171.6875 181 169 178.3125 169 175 C 169 171.6875 171.6875 169 175 169 C 178.3125 169 181 171.6875 181 175 "/>
<path style=" stroke:none;fill-rule:nonzero;fill:rgb(95.6%,95.5%,50.8%);fill-opacity:1;" d="M 140.5 175 C 140.5 183.558594 133.558594 190.5 125 190.5 C 116.441406 190.5 109.5 183.558594 109.5 175 C 109.5 166.441406 116.441406 159.5 125 159.5 C 133.558594 159.5 140.5 166.441406 140.5 175 "/>
<path style=" stroke:none;fill-rule:nonzero;fill:rgb(6.6%,27.1%,93%);fill-opacity:1;" d="M 97.5 175 C 97.5 187.425781 87.425781 197.5 75 197.5 C 62.574219 197.5 52.5 187.425781 52.5 175 C 52.5 162.574219 62.574219 152.5 75 152.5 C 87.425781 152.5 97.5 162.574219 97.5 175 "/>
<path style=" stroke:none;fill-rule:nonzero;fill:rgb(12.2%,96.9%,38.5%);fill-opacity:1;" d="M 37.5 175 C 37.5 181.902344 31.902344 187.5 25 187.5 C 18.097656 187.5 12.5 181.902344 12.5 175 C 12.5 168.097656 18.097656 162.5 25 162.5 C 31.902344 162.5 37.5 168.097656 37.5 175 "/>
<path style=" stroke:none;fill-rule:nonzero;fill:rgb(83.4%,56.7%,40.2%);fill-opacity:1;" d="M 43.5 225 C 43.5 235.21875 35.21875 243.5 25 243.5 C 14.78125 243.5 6.5 235.21875 6.5 225 C 6.5 214.78125 14.78125 206.5 25 206.5 C 35.21875 206.5 43.5 214.78125 43.5 225 "/>
<path style=" stroke:none;fill-rule:nonzero;fill:rgb(55.5%,73%,18.6%);fill-opacity:1;" d="M 80 225 C 80 231.667969 70 231.667969 70 225 C 70 218.332031 80 218.332031 80 225 "/>
<path style=" stroke:none;fill-rule:nonzero;fill:rgb(89.3%,13.9%,20.8%);fill-opacity:1;" d="M 144 225 C 144 235.492188 135.492188 244 125 244 C 114.507812 244 106 235.492188 106 225 C 106 214.507812 114.507812 206 125 206 C 135.492188 206 144 214.507812 144 225 "/>
<path style=" stroke:none;fill-rule:nonzero;fill:rgb(67.8%,15.2%,31.4%);fill-opacity:1;" d="M 189 225 C 189 232.730469 182.730469 239 175 239 C 167.269531 239 161 232.730469 161 225 C 161 217.269531 167.269531 211 175 211 C 182.730469 211 189 217.269531 189 225 "/>
<path style=" stroke:none;fill-rule:nonzero;fill:rgb(21.3%,96.4%,46.2%);fill-opacity:1;" d="M 241.5 225 C 241.5 234.113281 234.113281 241.5 225 241.5 C 215.886719 241.5 208.5 234.113281 208.5 225 C 208.5 215.886719 215.886719 208.5 225 208.5 C 234.113281 208.5 241.5 215.886719 241.5 225 "/>
<path style=" stroke:none;fill-rule:nonzero;fill:rgb(64.3%,12.1%,83.5%);fill-opacity:1;" d="M 285.5 225 C 285.5 230.800781 280.800781 235.5 275 235.5 C 269.199219 235.5 264.5 230.800781 264.5 225 C 264.5 219.199219 269.199219 214.5 275 214.5 C 280.800781 214.5 285.5 219.199219 285.5 225 "/>
<path style=" stroke:none;fill-rule:nonzero;fill:rgb(65.9%,83.7%,69.8%);fill-opacity:1;" d="M 338 225 C 338 232.179688 332.179688 238 325 238 C 317.820312 238 312 232.179688 312 225 C 312 217.820312 317.820312 212 325 212 C 332.179688 212 338 217.820312 338 225 "/>
<path style=" stroke:none;fill-rule:nonzero;fill:rgb(78.2%,45.8%,92.6%);fill-opacity:1;" d="M 397 225 C 397 237.148438 387.148438 247 375 247 C 362.851562 247 353 237.148438 353 225 C 353 212.851562 362.851562 203 375 203 C 387.148438 203 397 212.851562 397 225 "/>
<path style=" stroke:none;fill-rule:nonzero;fill:rgb(47.4%,97.9%,94.1%);fill-opacity:1;" d="M 445 225 C 445 236.046875 436.046875 245 425 245 C 413.953125 245 405 236.046875 405 225 C 405 213.953125 413.953125 205 425 205 C 436.046875 205 445 213.953125 445 225 "/>
<path style=" stroke:none;fill-rule:nonzero;fill:rgb(78.4%,28.6%,63.5%);fill-opacity:1;" d="M 487 225 C 487 231.628906 481.628906 237 475 237 C 468.371094 237 463 231.628906 463 225 C 463 218.371094 468.371094 213 475 213 C 481.628906 213 487 218.371094 487 225 "/>
<path style=" stroke:none;fill-rule:nonzero;fill:rgb(14.3%,47.8%,10.1%);fill-opacity:1;" d="M 495.5 275 C 495.5 286.320312 486.320312 295.5 475 295.5 C 463.679688 295.5 454.5 286.320312 454.5 275 C 454.5 263.679688 463.679688 254.5 475 254.5 C 486.320312 254.5 495.5 263.679688 495.5 275 "/>
<path style=" stroke:none;fill-rule:nonzero;fill:rgb(72.6%,0.2%,19.4%);fill-opacity:1;" d="M 442.5 275 C 442.5 284.664062 434.664062 292.5 425 292.5 C 415.335938 292.5 407.5 284.664062 407.5 275 C 407.5 265.335938 415.335938 257.5 425 257.5 C 434.664062 257.5 442.5 265.335938 442.5 275 "/>
<path style=" stroke:none;fill-rule:nonzero;fill:rgb(79.3%,98.8%,61.3%);fill-opacity:1;" d="M 392 275 C 392 284.390625 384.390625 292 375 292 C 365.609375 292 358 284.390625 358 275 C 358 265.609375 365.609375 258 375 258 C 384.390625 258 392 265.609375 392 275 "/>
<path style=" stroke:none;fill-rule:nonzero;fill:rgb(71.8%,16.6%,68.1%);fill-opacity:1;" d="M 347.5 275 C 347.5 287.425781 337.425781 297.5 325 297.5 C 312.574219 297.5 302.5 287.425781 302.5 275 C 302.5 262.574219 312.574219 252.5 325 252.5 C 337.425781 252.5 347.5 262.574219 347.5 275 "/>
<path style=" stroke:none;fill-rule:nonzero;fill:rgb(76.3%,1.8%,95.3%);fill-opacity:1;" d="M 288 275 C 288 282.179688 282.179688 288 275 288 C 267.820312 288 262 282.179688 262 275 C 262 267.820312 267.820312 262 275 262 C 282.179688 262 288 267.820312 288 275 "/>
<path style=" stroke:none;fill-rule:nonzero;fill:rgb(34.9%,49.6%,85.8%);fill-opacity:1;" d="M 233.5 275 C 233.5 279.695312 229.695312 283.5 225 283.5 C 220.304688 283.5 216.5 279.695312 216.5 275 C 216.5 270.304688 220.304688 266.5 225 266.5 C 229.695312 266.5 233.5 270.304688 233.5 275 "/>
<path style=" stroke:none;fill-rule:nonzero;fill:rgb(25.3%,15.6%,16.3%);fill-opacity:1;" d="M 199.5 275 C 199.5 288.53125 188.53125 299.5 175 299.5 C 161.46875 299.5 150.5 288.53125 150.5 275 C 150.5 261.46875 161.46875 250.5 175 250.5 C 188.53125 250.5 199.5 261.46875 199.5 275 "/>
<path style=" stroke:none;fill-rule:nonzero;fill:rgb(55.6%,28.1%,91.4%);fill-opacity:1;" d="M 144.5 275 C 144.5 285.769531 135.769531 294.5 125 294.5 C 114.230469 294.5 105.5 285.769531 105.5 275 C 105.5 264.230469 114.230469 255.5 125 255.5 C 135.769531 255.5 144.5 264.230469 144.5 275 "/>
<path style=" stroke:none;fill-rule:nonzero;fill:rgb(59.4%,50.6%,2.7%);fill-opacity:1;" d="M 89 275 C 89 282.730469 82.730469 289 75 289 C 67.269531 289 61 282.730469 61 275 C 61 267.269531 67.269531 261 75 261 C 82.730469 261 89 267.269531 89 275 "/>
<path style=" stroke:none;fill-rule:nonzero;fill:rgb(54.8%,58.9%,0.6%);fill-opacity:1;" d="M 33 275 C 33 279.417969 29.417969 283 25 283 C 20.582031 283 17 279.417969 17 275 C 17 270.582031 20.582031 267 25 267 C 29.417969 267 33 270.582031 33 275 "/>
<path style=" stroke:none;fill-rule:nonzero;fill:rgb(40.1%,3.9%,24.8%);fill-opacity:1;" d="M 36.5 325 C 36.5 331.351562 31.351562 336.5 25 336.5 C 18.648438 336.5 13.5 331.351562 13.5 325 C 13.5 318.648438 18.648438 313.5 25 313.5 C 31.351562 313.5 36.5 318.648438 36.5 325 "/>
<path style=" stroke:none;fill-rule:nonzero;fill:rgb(17.6%,89.9%,47.4%);fill-opacity:1;" d="M 94.5 325 C 94.5 335.769531 85.769531 344.5 75 344.5 C 64.230469 344.5 55.5 335.769531 55.5 325 C 55.5 314.230469 64.230469 305.5 75 305.5 C 85.769531 305.5 94.5 314.230469 94.5 325 "/>
<path style=" stroke:none;fill-rule:nonzero;fill:rgb(68.6%,33%,26.9%);fill-opacity:1;" d="M 133 325 C 133 329.417969 129.417969 333 125 333 C 120.582031 333 117 329.417969 117 325 C 117 320.582031 120.582031 317 125 317 C 129.417969 317 133 320.582031 133 325 "/>
<path style=" stroke:none;fill-rule:nonzero;fill:rgb(21.7%,55.3%,30.5%);fill-opacity:1;" d="M 195 325 C 195 336.046875 186.046875 345 175 345 C 163.953125 345 155 336.046875 155 325 C 155 313.953125 163.953125 305 175 305 C 186.046875 305 195 313.953125 195 325 "/>
<path style=" stroke:none;fill-rule:nonzero;fill:rgb(88.3%,27.5%,61.5%);fill-opacity:1;" d="M 237 325 C 237 331.628906 231.628906 337 225 337 C 218.371094 337 213 331.628906 213 325 C 213 318.371094 218.371094 313 225 313 C 231.628906 313 237 318.371094 237 325 "/>
<path style=" stroke:none;fill-rule:nonzero;fill:rgb(0.7%,28.6%,74.4%);fill-opacity:1;" d="M 291.5 325 C 291.5 334.113281 284.113281 341.5 275 341.5 C 265.886719 341.5 258.5 334.113281 258.5 325 C 258.5 315.886719 265.886719 308.5 275 308.5 C 284.113281 308.5 291.5 315.886719 291.5 325 "/>
<path style=" stroke:none;fill-rule:nonzero;fill:rgb(12.7%,99.5%,58.1%);fill-opacity:1;" d="M 349 325 C 349 338.253906 338.253906 349 325 349 C 311.746094 349 301 338.253906 301 325 C 301 311.746094 311.746094 301 325 301 C 338.253906 301 349 311.746094 349 325 "/>
<path style=" stroke:none;fill-rule:nonzero;fill:rgb(30.2%,10.2%,77.7%);fill-opacity:1;" d="M 391 325 C 391 333.835938 383.835938 341 375 341 C 366.164062 341 359 333.835938 359 325 C 359 316.164062 366.164062 309 375 309 C 383.835938 309 391 316.164062 391 325 "/>
<path style=" stroke:none;fill-rule:nonzero;fill:rgb(98.4%,54.5%,57.9%);fill-opacity:1;" d="M 440.5 325 C 440.5 333.558594 433.558594 340.5 425 340.5 C 416.441406 340.5 409.5 333.558594 409.5 325 C 409.5 316.441406 416.441406 309.5 425 309.5 C 433.558594 309.5 440.5 316.441406 440.5 325 "/>
<path style=" stroke:none;fill-rule:nonzero;fill:rgb(55.8%,87.8%,22.3%);fill-opacity:1;" d="M 499 325 C 499 338.253906 488.253906 349 475 349 C 461.746094 349 451 338.253906 451 325 C 451 311.746094 461.746094 301 475 301 C 488.253906 301 499 311.746094 499 325 "/>
<path style=" stroke:none;fill-rule:nonzero;fill:rgb(52.5%,34.3%,2.1%);fill-opacity:1;" d="M 482 375 C 482 378.867188 478.867188 382 475 382 C 471.132812 382 468 378.867188 468 375 C 468 371.132812 471.132812 368 475 368 C 478.867188 368 482 371.132812 482 375 "/>
<path style=" stroke:none;fill-rule:nonzero;fill:rgb(85.2%,54.7%,18.1%);fill-opacity:1;" d="M 431 375 C 431 378.3125 428.3125 381 425 381 C 421.6875 381 419 378.3125 419 375 C 419 371.6875 421.6875 369 425 369 C 428.3125 369 431 371.6875 431 375 "/>
<path style=" stroke:none;fill-rule:nonzero;fill:rgb(30.1%,73.5%,11.2%);fill-opacity:1;" d="M 397 375 C 397 387.148438 387.148438 397 375 397 C 362.851562 397 353 387.148438 353 375 C 353 362.851562 362.851562 353 375 353 C 387.148438 353 397 362.851562 397 375 "/>
<path style=" stroke:none;fill-rule:nonzero;fill:rgb(82.1%,62.6%,21.6%);fill-opacity:1;" d="M 330 375 C 330 381.667969 320 381.667969 320 375 C 320 368.332031 330 368.332031 330 375 "/>
<path style=" stroke:none;fill-rule:nonzero;fill:rgb(17.3%,83%,55.9%);fill-opacity:1;" d="M 297.5 375 C 297.5 387.425781 287.425781 397.5 275 397.5 C 262.574219 397.5 252.5 387.425781 252.5 375 C 252.5 362.574219 262.574219 352.5 275 352.5 C 287.425781 352.5 297.5 362.574219 297.5 375 "/>
<path style=" stroke:none;fill-rule:nonzero;fill:rgb(93.1%,83.5%,80.8%);fill-opacity:1;" d="M 238 375 C 238 382.179688 232.179688 388 225 388 C 217.820312 388 212 382.179688 212 375 C 212 367.820312 217.820312 362 225 362 C 232.179688 362 238 367.820312 238 375 "/>
<path style=" stroke:none;fill-rule:nonzero;fill:rgb(33%,1.5%,28.6%);fill-opacity:1;" d="M 188 375 C 188 382.179688 182.179688 388 175 388 C 167.820312 388 162 382.179688 162 375 C 162 367.820312 167.820312 362 175 362 C 182.179688 362 188 367.820312 188 375 "/>
<path style=" stroke:none;fill-rule:nonzero;fill:rgb(13.6%,28.3%,74.6%);fill-opacity:1;" d="M 138.5 375 C 138.5 382.457031 132.457031 388.5 125 388.5 C 117.542969 388.5 111.5 382.457031 111.5 375 C 111.5 367.542969 117.542969 361.5 125 361.5 C 132.457031 361.5 138.5 367.542969 138.5 375 "/>
<path style=" stroke:none;fill-rule:nonzero;fill:rgb(50.5%,0.8%,17.6%);fill-opacity:1;" d="M 89 375 C 89 382.730469 82.730469 389 75 389 C 67.269531 389 61 382.730469 61 375 C 61 367.269531 67.269531 361 75 361 C 82.730469 361 89 367.269531 89 375 "/>
<path style=" stroke:none;fill-rule:nonzero;fill:rgb(7.2%,90.4%,67.5%);fill-opacity:1;" d="M 39 375 C 39 382.730469 32.730469 389 25 389 C 17.269531 389 11 382.730469 11 375 C 11 367.269531 17.269531 361 25 361 C 32.730469 361 39 367.269531 39 375 "/>
<path style=" stroke:none;fill-rule:nonzero;fill:rgb(67.8%,12.8%,89.4%);fill-opacity:1;" d="M 49.5 425 C 49.5 438.53125 38.53125 449.5 25 449.5 C 11.46875 449.5 0.5 438.53125 0.5 425 C 0.5 411.46875 11.46875 400.5 25 400.5 C 38.53125 400.5 49.5 411.46875 49.5 425 "/>
<path style=" stroke:none;fill-rule:nonzero;fill:rgb(42.3%,26.8%,76.5%);fill-opacity:1;" d="M 95 425 C 95 436.046875 86.046875 445 75 445 C 63.953125 445 55 436.046875 55 425 C 55 413.953125 63.953125 405 75 405 C 86.046875 405 95 413.953125 95 425 "/>
<path style=" stroke:none;fill-rule:nonzero;fill:rgb(63.1%,23.8%,28.3%);fill-opacity:1;" d="M 137.5 425 C 137.5 431.902344 131.902344 437.5 125 437.5 C 118.097656 437.5 112.5 431.902344 112.5 425 C 112.5 418.097656 118.097656 412.5 125 412.5 C 131.902344 412.5 137.5 418.097656 137.5 425 "/>
<path style=" stroke:none;fill-rule:nonzero;fill:rgb(13.3%,27%,26.1%);fill-opacity:1;" d="M 196.5 425 C 196.5 436.875 186.875 446.5 175 446.5 C 163.125 446.5 153.5 436.875 153.5 425 C 153.5 413.125 163.125 403.5 175 403.5 C 186.875 403.5 196.5 413.125 196.5 425 "/>
<path style=" stroke:none;fill-rule:nonzero;fill:rgb(71.9%,39.8%,98.7%);fill-opacity:1;" d="M 231 425 C 231 428.3125 228.3125 431 225 431 C 221.6875 431 219 428.3125 219 425 C 219 421.6875 221.6875 419 225 419 C 228.3125 419 231 421.6875 231 425 "/>
<path style=" stroke:none;fill-rule:nonzero;fill:rgb(42.5%,12.1%,76.9%);fill-opacity:1;" d="M 282 425 C 282 428.867188 278.867188 432 275 432 C 271.132812 432 268 428.867188 268 425 C 268 421.132812 271.132812 418 275 418 C 278.867188 418 282 421.132812 282 425 "/>
<path style=" stroke:none;fill-rule:nonzero;fill:rgb(9.1%,78.7%,57.1%);fill-opacity:1;" d="M 337.5 425 C 337.5 431.902344 331.902344 437.5 325 437.5 C 318.097656 437.5 312.5 431.902344 312.5 425 C 312.5 418.097656 318.097656 412.5 325 412.5 C 331.902344 412.5 337.5 418.097656 337.5 425 "/>
<path style=" stroke:none;fill-rule:nonzero;fill:rgb(10.5%,41%,88.9%);fill-opacity:1;" d="M 393 425 C 393 434.941406 384.941406 443 375 443 C 365.058594 443 357 434.941406 357 425 C 357 415.058594 365.058594 407 375 407 C 384.941406 407 393 415.058594 393 425 "/>
<path style=" stroke:none;fill-rule:nonzero;fill:rgb(41.4%,76.1%,97.2%);fill-opacity:1;" d="M 432 425 C 432 428.867188 428.867188 432 425 432 C 421.132812 432 418 428.867188 418 425 C 418 421.132812 421.132812 418 425 418 C 428.867188 418 432 421.132812 432 425 "/>
<path style=" stroke:none;fill-rule:nonzero;fill:rgb(73.1%,65.9%,59.4%);fill-opacity:1;" d="M 484 425 C 484 429.96875 479.96875 434 475 434 C 470.03125 434 466 429.96875 466 425 C 466 420.03125 470.03125 416 475 416 C 479.96875 416 484 420.03125 484 425 "/>
<path style=" stroke:none;fill-rule:nonzero;fill:rgb(8.9%,39%,57.5%);fill-opacity:1;" d="M 497 475 C 497 487.148438 487.148438 497 475 497 C 462.851562 497 453 487.148438 453 475 C 453 462.851562 462.851562 453 475 453 C 487.148438 453 497 462.851562 497 475 "/>
<path style=" stroke:none;fill-rule:nonzero;fill:rgb(43.4%,19.3%,80.5%);fill-opacity:1;" d="M 440 475 C 440 483.285156 433.285156 490 425 490 C 416.714844 490 410 483.285156 410 475 C 410 466.714844 416.714844 460 425 460 C 433.285156 460 440 466.714844 440 475 "/>
<path style=" stroke:none;fill-rule:nonzero;fill:rgb(90.3%,22.4%,74.5%);fill-opacity:1;" d="M 391.5 475 C 391.5 484.113281 384.113281 491.5 375 491.5 C 365.886719 491.5 358.5 484.113281 358.5 475 C 358.5 465.886719 365.886719 458.5 375 458.5 C 384.113281 458.5 391.5 465.886719 391.5 475 "/>
<path style=" stroke:none;fill-rule:nonzero;fill:rgb(23.2%,49.3%,91%);fill-opacity:1;" d="M 349.5 475 C 349.5 488.53125 338.53125 499.5 325 499.5 C 311.46875 499.5 300.5 488.53125 300.5 475 C 300.5 461.46875 311.46875 450.5 325 450.5 C 338.53125 450.5 349.5 461.46875 349.5 475 "/>
<path style=" stroke:none;fill-rule:nonzero;fill:rgb(15.8%,19.5%,67.9%);fill-opacity:1;" d="M 287.5 475 C 287.5 481.902344 281.902344 487.5 275 487.5 C 268.097656 487.5 262.5 481.902344 262.5 475 C 262.5 468.097656 268.097656 462.5 275 462.5 C 281.902344 462.5 287.5 468.097656 287.5 475 "/>
<path style=" stroke:none;fill-rule:nonzero;fill:rgb(45%,40.1%,56.6%);fill-opacity:1;" d="M 233.5 475 C 233.5 479.695312 229.695312 483.5 225 483.5 C 220.304688 483.5 216.5 479.695312 216.5 475 C 216.5 470.304688 220.304688 466.5 225 466.5 C 229.695312 466.5 233.5 470.304688 233.5 475 "/>
<path style=" stroke:none;fill-rule:nonzero;fill:rgb(22.8%,36.5%,15.4%);fill-opacity:1;" d="M 192.5 475 C 192.5 484.664062 184.664062 492.5 175 492.5 C 165.335938 492.5 157.5 484.664062 157.5 475 C 157.5 465.335938 165.335938 457.5 175 457.5 C 184.664062 457.5 192.5 465.335938 192.5 475 "/>
<path style=" stroke:none;fill-rule:nonzero;fill:rgb(54.5%,9.9%,73.1%);fill-opacity:1;" d="M 136.5 475 C 136.5 481.351562 131.351562 486.5 125 486.5 C 118.648438 486.5 113.5 481.351562 113.5 475 C 113.5 468.648438 118.648438 463.5 125 463.5 C 131.351562 463.5 136.5 468.648438 136.5 475 "/>
<path style=" stroke:none;fill-rule:nonzero;fill:rgb(24.4%,47.4%,65.3%);fill-opacity:1;" d="M 87.5 475 C 87.5 481.902344 81.902344 487.5 75 487.5 C 68.097656 487.5 62.5 481.902344 62.5 475 C 62.5 468.097656 68.097656 462.5 75 462.5 C 81.902344 462.5 87.5 468.097656 87.5 475 "/>
<path style=" stroke:none;fill-rule:nonzero;fill:rgb(80.9%,87.8%,53.1%);fill-opacity:1;" d="M 40.5 475 C 40.5 483.558594 33.558594 490.5 25 490.5 C 16.441406 490.5 9.5 483.558594 9.5 475 C 9.5 466.441406 16.441406 459.5 25 459.5 C 33.558594 459.5 40.5 466.441406 40.5 475 "/>
<path style="fill:none;stroke-width:0.01;stroke-linecap:butt;stroke-linejoin:miter;stroke:rgb(77%,93.3%,74%);stroke-opacity:1;stroke-miterlimit:10;" d="M 0.05 0.05 C 0.15 0.05 0.25 0.05 0.35 0.05 " transform="matrix(500,0,0,500,0,0)"/>
<path style="fill:none;stroke-width:0.01;stroke-linecap:butt;stroke-linejoin:miter;stroke:rgb(46.8%,57.8%,84%);stroke-opacity:1;stroke-miterlimit:10;" d="M 0.35 0.05 C 0.45 0.05 0.55 0.05 0.65 0.05 " transform="matrix(500,0,0,500,0,0)"/>
<path style="fill:none;stroke-width:0.01;stroke-linecap:butt;stroke-linejoin:miter;stroke:rgb(20.4%,90%,36.1%);stroke-opacity:1;stroke-miterlimit:10;" d="M 0.65 0.05 C 0.75 0.05 0.85 0.05 0.95 0.05 " transform="matrix(500,0,0,500,0,0)"/>
<path style="fill:none;stroke-width:0.01;stroke-linecap:butt;stroke-linejoin:miter;stroke:rgb(58.2%,26.7%,49.6%);stroke-opacity:1;stroke-miterlimit:10;" d="M 0.95 0.05 C 0.95 0.15 0.85 0.15 0.75 0.15 " transform="matrix(500,0,0,500,0,0)"/>
<path style="fill:none;stroke-width:0.01;stroke-linecap:butt;stroke-linejoin:miter;stroke:rgb(2.8%,62.4%,4.1%);stroke-opacity:1;stroke-miterlimit:10;" d="M 0.75 0.15 C 0.65 0.15 0.55 0.15 0.45 0.15 " transform="matrix(500,0,0,500,0,0)"/>
<path style="fill:none;stroke-width:0.01;stroke-linecap:butt;stroke-linejoin:miter;stroke:rgb(77.5%,85.1%,78.5%);stroke-opacity:1;stroke-miterlimit:10;" d="M 0.45 0.15 C 0.35 0.15 0.25 0.15 0.15 0.15 " transform="matrix(500,0,0,500,0,0)"/>
<path style="fill:none;stroke-width:0.01;stroke-linecap:butt;stroke-linejoin:miter;stroke:rgb(78.6%,37.7%,70.3%);stroke-opacity:1;stroke-miterlimit:10;" d="M 0.15 0.15 C 0.05 0.15 0.05 0.25 0.15 0.25 " transform="matrix(500,0,0,500,0,0)"/>
<path style="fill:none;stroke-width:0.01;stroke-linecap:butt;stroke-linejoin:miter;stroke:rgb(19.4%,87.5%,35.9%);stroke-opacity:1;stroke-miterlimit:10;" d="M 0.15 0.25 C 0.25 0.25 0.35 0.25 0.45 0.25 " transform="matrix(500,0,0,500,0,0)"/>
<path style="fill:none;stroke-width:0.01;stroke-linecap:butt;stroke-linejoin:miter;stroke:rgb(81.7%,30.3%,48.7%);stroke-opacity:1;stroke-miterlimit:10;" d="M 0.45 0.25 C 0.55 0.25 0.65 0.25 0.75 0.25 " transform="matrix(500,0,0,500,0,0)"/>
<path style="fill:none;stroke-width:0.01;stroke-linecap:butt;stroke-linejoin:miter;stroke:rgb(91.3%,79.6%,14.9%);stroke-opacity:1;stroke-miterlimit:10;" d="M 0.75 0.25 C 0.85 0.25 0.95 0.25 0.95 0.35 " transform="matrix(500,0,0,500,0,0)"/>
<path style="fill:none;stroke-width:0.01;stroke-linecap:butt;stroke-linejoin:miter;stroke:rgb(79.1%,44.8%,53.6%);stroke-opacity:1;stroke-miterlimit:10;" d="M 0.95 0.35 C 0.85 0.35 0.75 0.35 0.65 0.35 " transform="matrix(500,0,0,500,0,0)"/>
<path style="fill:none;stroke-width:0.01;stroke-linecap:butt;stroke-linejoin:miter;stroke:rgb(1%,1.6%,84%);stroke-opacity:1;stroke-miterlimit:10;" d="M 0.65 0.35 C 0.55 0.35 0.45 0.35 0.35 0.35 " transform="matrix(500,0,0,500,0,0)"/>
<path style="fill:none;stroke-width:0.01;stroke-linecap:butt;stroke-linejoin:miter;stroke:rgb(16.6%,8.5%,81.4%);stroke-opacity:1;stroke-miterlimit:10;" d="M 0.35 0.35 C 0.25 0.35 0.15 0.35 0.05 0.35 " transform="matrix(500,0,0,500,0,0)"/>
<path style="fill:none;stroke-width:0.01;stroke-linecap:butt;stroke-linejoin:miter;stroke:rgb(67.8%,66.6%,57.9%);stroke-opacity:1;stroke-miterlimit:10;" d="M 0.05 0.35 C 0.05 0.45 0.15 0.45 0.25 0.45 " transform="matrix(500,0,0,500,0,0)"/>
<path style="fill:none;stroke-width:0.01;stroke-linecap:butt;stroke-linejoin:miter;stroke:rgb(63.5%,50.4%,11.5%);stroke-opacity:1;stroke-miterlimit:10;" d="M 0.25 0.45 C 0.35 0.45 0.45 0.45 0.55 0.45 " transform="matrix(500,0,0,500,0,0)"/>
<path style="fill:none;stroke-width:0.01;stroke-linecap:butt;stroke-linejoin:miter;stroke:rgb(0.1%,11.4%,63.8%);stroke-opacity:1;stroke-miterlimit:10;" d="M 0.55 0.45 C 0.65 0.45 0.75 0.45 0.85 0.45 " transform="matrix(500,0,0,500,0,0)"/>
<path style="fill:none;stroke-width:0.01;stroke-linecap:butt;stroke-linejoin:miter;stroke:rgb(88.7%,44.9%,68.5%);stroke-opacity:1;stroke-miterlimit:10;" d="M 0.85 0.45 C 0.95 0.45 0.95 0.55 0.85 0.55 " transform="matrix(500,0,0,500,0,0)"/>
<path style="fill:none;stroke-width:0.01;stroke-linecap:butt;stroke-linejoin:miter;stroke:rgb(74%,23.2%,26.3%);stroke-opacity:1;stroke-miterlimit:10;" d="M 0.85 0.55 C 0.75 0.55 0.65 0.55 0.55 0.55 " transform="matrix(500,0,0,500,0,0)"/>
<path style="fill:none;stroke-width:0.01;stroke-linecap:butt;stroke-linejoin:miter;stroke:rgb(20.3%,17.7%,41.1%);stroke-opacity:1;stroke-miterlimit:10;" d="M 0.55 0.55 C 0.45 0.55 0.35 0.55 0.25 0.55 " transform="matrix(500,0,0,500,0,0)"/>
<path style="fill:none;stroke-width:0.01;stroke-linecap:butt;stroke-linejoin:miter;stroke:rgb(71.1%,36.5%,18%);stroke-opacity:1;stroke-miterlimit:10;" d="M 0.25 0.55 C 0.15 0.55 0.05 0.55 0.05 0.65 " transform="matrix(500,0,0,500,0,0)"/>
<path style="fill:none;stroke-width:0.01;stroke-linecap:butt;stroke-linejoin:miter;stroke:rgb(68.6%,98.6%,80.1%);stroke-opacity:1;stroke-miterlimit:10;" d="M 0.05 0.65 C 0.15 0.65 0.25 0.65 0.35 0.65 " transform="matrix(500,0,0,500,0,0)"/>
<path style="fill:none;stroke-width:0.01;stroke-linecap:butt;stroke-linejoin:miter;stroke:rgb(28.7%,2.5%,70.5%);stroke-opacity:1;stroke-miterlimit:10;" d="M 0.35 0.65 C 0.45 0.65 0.55 0.65 0.65 0.65 " transform="matrix(500,0,0,500,0,0)"/>
<path style="fill:none;stroke-width:0.01;stroke-linecap:butt;stroke-linejoin:miter;stroke:rgb(44.8%,94.6%,71.3%);stroke-opacity:1;stroke-miterlimit:10;" d="M 0.65 0.65 C 0.75 0.65 0.85 0.65 0.95 0.65 " transform="matrix(500,0,0,500,0,0)"/>
<path style="fill:none;stroke-width:0.01;stroke-linecap:butt;stroke-linejoin:miter;stroke:rgb(100%,77.7%,43.8%);stroke-opacity:1;stroke-miterlimit:10;" d="M 0.95 0.65 C 0.95 0.75 0.85 0.75 0.75 0.75 " transform="matrix(500,0,0,500,0,0)"/>
<path style="fill:none;stroke-width:0.01;stroke-linecap:butt;stroke-linejoin:miter;stroke:rgb(18.5%,99.7%,12.7%);stroke-opacity:1;stroke-miterlimit:10;" d="M 0.75 0.75 C 0.65 0.75 0.55 0.75 0.45 0.75 " transform="matrix(500,0,0,500,0,0)"/>
<path style="fill:none;stroke-width:0.01;stroke-linecap:butt;stroke-linejoin:miter;stroke:rgb(68.2%,87.1%,73.2%);stroke-opacity:1;stroke-miterlimit:10;" d="M 0.45 0.75 C 0.35 0.75 0.25 0.75 0.15 0.75 " transform="matrix(500,0,0,500,0,0)"/>
<path style="fill:none;stroke-width:0.01;stroke-linecap:butt;stroke-linejoin:miter;stroke:rgb(43.8%,10.5%,75.9%);stroke-opacity:1;stroke-miterlimit:10;" d="M 0.15 0.75 C 0.05 0.75 0.05 0.85 0.15 0.85 " transform="matrix(500,0,0,500,0,0)"/>
<path style="fill:none;stroke-width:0.01;stroke-linecap:butt;stroke-linejoin:miter;stroke:rgb(38.5%,51.3%,74%);stroke-opacity:1;stroke-miterlimit:10;" d="M 0.15 0.85 C 0.25 0.85 0.35 0.85 0.45 0.85 " transform="matrix(500,0,0,500,0,0)"/>
<path style="fill:none;stroke-width:0.01;stroke-linecap:butt;stroke-linejoin:miter;stroke:rgb(96.7%,45.9%,84%);stroke-opacity:1;stroke-miterlimit:10;" d="M 0.45 0.85 C 0.55 0.85 0.65 0.85 0.75 0.85 " transform="matrix(500,0,0,500,0,0)"/>
<path style="fill:none;stroke-width:0.01;stroke-linecap:butt;stroke-linejoin:miter;stroke:rgb(67.4%,36.7%,8.4%);stroke-opacity:1;stroke-miterlimit:10;" d="M 0.75 0.85 C 0.85 0.85 0.95 0.85 0.95 0.95 " transform="matrix(500,0,0,500,0,0)"/>
<path style="fill:none;stroke-width:0.01;stroke-linecap:butt;stroke-linejoin:miter;stroke:rgb(16.4%,99.4%,53.5%);stroke-opacity:1;stroke-miterlimit:10;" d="M 0.95 0.95 C 0.85 0.95 0.75 0.95 0.65 0.95 " transform="matrix(500,0,0,500,0,0)"/>
<path style="fill:none;stroke-width:0.01;stroke-linecap:butt;stroke-linejoin:miter;stroke:rgb(44.6%,79.6%,78.7%);stroke-opacity:1;stroke-miterlimit:10;" d="M 0.65 0.95 C 0.55 0.95 0.45 0.95 0.35 0.95 " transform="matrix(500,0,0,500,0,0)"/>
<path style="fill:none;stroke-width:0.01;stroke-linecap:butt;stroke-linejoin:miter;stroke:rgb(66.8%,0.4%,28.3%);stroke-opacity:1;stroke-miterlimit:10;" d="M 0.35 0.95 C 0.25 0.95 0.15 0.95 0.05 0.95 " transform="matrix(500,0,0,500,0,0)"/>
<path style=" stroke:none;fill-rule:nonzero;fill:rgb(57.3%,91%,9.6%);fill-opacity:0.5;" d="M 46 17 L 117.5 27.5 L 97 95 L 46 17 "/>
<path style=" stroke:none;fill-rule:nonzero;fill:rgb(18.6%,95.6%,70.7%);fill-opacity:0.5;" d="M 154.5 52.5 L 98 73 L 115.5 14 L 154.5 52.5 "/>
<path style=" stroke:none;fill-rule:nonzero;fill:rgb(38.6%,89.4%,60.1%);fill-opacity:0.5;" d="M 290 37.5 L 216.5 34.5 L 227.5 93.5 L 290 37.5 "/>
<path style=" stroke:none;fill-rule:nonzero;fill:rgb(68.8%,19.5%,82.2%);fill-opacity:0.5;" d="M 312 41.5 L 368 65.5 L 367 136 L 312 41.5 "/>
<path style=" stroke:none;fill-rule:nonzero;fill:rgb(63.1%,54%,28.9%);fill-opacity:0.5;" d="M 415.5 88 L 468.5 79.5 L 460.5 20 L 415.5 88 "/>
<path style=" stroke:none;fill-rule:nonzero;fill:rgb(89.3%,93.8%,78.9%);fill-opacity:0.5;" d="M 457 171 L 390 168 L 400 113 L 457 171 "/>
<path style=" stroke:none;fill-rule:nonzero;fill:rgb(82.9%,53.6%,33.7%);fill-opacity:0.5;" d="M 387.5 140.5 L 330 119 L 340 176 L 387.5 140.5 "/>
<path style=" stroke:none;fill-rule:nonzero;fill:rgb(0.7%,46.9%,25.8%);fill-opacity:0.5;" d="M 216 173 L 284.5 157.5 L 284.5 102.5 L 216 173 "/>
<path style=" stroke:none;fill-rule:nonzero;fill:rgb(78.4%,0.1%,71%);fill-opacity:0.5;" d="M 129.5 195 L 187.5 178.5 L 192.5 109 L 129.5 195 "/>
<path style=" stroke:none;fill-rule:nonzero;fill:rgb(14%,23.7%,5.9%);fill-opacity:0.5;" d="M 87 100.5 L 30 78 L 12 151.5 L 87 100.5 "/>
<path style=" stroke:none;fill-rule:nonzero;fill:rgb(58%,42%,81.9%);fill-opacity:0.5;" d="M 26 288.5 L 88.5 278 L 65.5 209 L 26 288.5 "/>
<path style=" stroke:none;fill-rule:nonzero;fill:rgb(7.7%,9.6%,47.3%);fill-opacity:0.5;" d="M 106 267.5 L 160.5 249.5 L 176.5 181.5 L 106 267.5 "/>
<path style=" stroke:none;fill-rule:nonzero;fill:rgb(15.9%,19.2%,3%);fill-opacity:0.5;" d="M 285.5 214.5 L 212.5 216 L 213.5 276.5 L 285.5 214.5 "/>
<path style=" stroke:none;fill-rule:nonzero;fill:rgb(34.3%,52.3%,52.3%);fill-opacity:0.5;" d="M 379.5 215.5 L 328 203 L 332 260 L 379.5 215.5 "/>
<path style=" stroke:none;fill-rule:nonzero;fill:rgb(58.9%,45.6%,13.2%);fill-opacity:0.5;" d="M 446 241.5 L 516 236.5 L 528 311.5 L 446 241.5 "/>
<path style=" stroke:none;fill-rule:nonzero;fill:rgb(46.4%,89.7%,83.5%);fill-opacity:0.5;" d="M 479.5 393.5 L 426 413.5 L 439 340.5 L 479.5 393.5 "/>
<path style=" stroke:none;fill-rule:nonzero;fill:rgb(26.4%,85.8%,75.8%);fill-opacity:0.5;" d="M 363.5 351 L 308.5 373.5 L 318 309.5 L 363.5 351 "/>
<path style=" stroke:none;fill-rule:nonzero;fill:rgb(1.3%,19.3%,69.1%);fill-opacity:0.5;" d="M 246 344 L 311 339.5 L 309.5 404 L 246 344 "/>
<path style=" stroke:none;fill-rule:nonzero;fill:rgb(47.9%,48%,63.4%);fill-opacity:0.5;" d="M 112 377 L 176.5 393.5 L 168 334.5 L 112 377 "/>
<path style=" stroke:none;fill-rule:nonzero;fill:rgb(76.9%,72.2%,65.1%);fill-opacity:0.5;" d="M 79 397 L 17.5 396 L 29.5 328.5 L 79 397 "/>
<path style=" stroke:none;fill-rule:nonzero;fill:rgb(4.8%,17.4%,26.8%);fill-opacity:0.5;" d="M 58.5 421.5 L 6 423 L 25.5 482.5 L 58.5 421.5 "/>
<path style=" stroke:none;fill-rule:nonzero;fill:rgb(4.8%,56%,87.8%);fill-opacity:0.5;" d="M 182 404 L 130 421.5 L 120 490.5 L 182 404 "/>
<path style=" stroke:none;fill-rule:nonzero;fill:rgb(34.6%,86.4%,43.2%);fill-opacity:0.5;" d="M 255.5 462 L 196 484 L 212.5 429 L 255.5 462 "/>
<path style=" stroke:none;fill-rule:nonzero;fill:rgb(25.8%,93.6%,55%);fill-opacity:0.5;" d="M 329.5 417.5 L 388.5 431 L 409 494 L 329.5 417.5 "/>
<path style=" stroke:none;fill-rule:nonzero;fill:rgb(3.9%,6%,77.7%);fill-opacity:0.5;" d="M 443.5 403.5 L 494.5 402.5 L 477 458.5 L 443.5 403.5 "/>
<path style="fill:none;stroke-width:0.002;stroke-linecap:butt;stroke-linejoin:miter;stroke:rgb(18.1%,41%,92.3%);stroke-opacity:1;stroke-miterlimit:10;" d="M 0.694 0.664 L 0.84 0.906 " transform="matrix(500,0,0,500,0,0)"/>
<path style="fill:none;stroke-width:0.002;stroke-linecap:butt;stroke-linejoin:miter;stroke:rgb(32.9%,46.5%,23%);stroke-opacity:1;stroke-miterlimit:10;" d="M 0.202 0.706 L 0.274 0.736 " transform="matrix(500,0,0,500,0,0)"/>
<path style="fill:none;stroke-width:0.002;stroke-linecap:butt;stroke-linejoin:miter;stroke:rgb(13.6%,70.1%,17.4%);stroke-opacity:1;stroke-miterlimit:10;" d="M 0.238 0.432 L 0.585 0.696 " transform="matrix(500,0,0,500,0,0)"/>
<path style="fill:none;stroke-width:0.002;stroke-linecap:butt;stroke-linejoin:miter;stroke:rgb(20.1%,45.8%,47.6%);stroke-opacity:1;stroke-miterlimit:10;" d="M 0.251 0.291 L 0.143 0.016 " transform="matrix(500,0,0,500,0,0)"/>
<path style="fill:none;stroke-width:0.002;stroke-linecap:butt;stroke-linejoin:miter;stroke:rgb(36.3%,76%,52.7%);stroke-opacity:1;stroke-miterlimit:10;" d="M 0.016 0.242 L 0.232 0.534 " transform="matrix(500,0,0,500,0,0)"/>
<path style="fill:none;stroke-width:0.002;stroke-linecap:butt;stroke-linejoin:miter;stroke:rgb(67.2%,24.5%,23.8%);stroke-opacity:1;stroke-miterlimit:10;" d="M 0.24 0.841 L 0.798 0.439 " transform="matrix(500,0,0,500,0,0)"/>
<path style="fill:none;stroke-width:0.002;stroke-linecap:butt;stroke-linejoin:miter;stroke:rgb(83.8%,96.1%,98.2%);stroke-opacity:1;stroke-miterlimit:10;" d="M 0.238 0.145 L 0.193 0.413 " transform="matrix(500,0,0,500,0,0)"/>
<path style="fill:none;stroke-width:0.002;stroke-linecap:butt;stroke-linejoin:miter;stroke:rgb(26%,69.5%,67.4%);stroke-opacity:1;stroke-miterlimit:10;" d="M 0.462 0.984 L 0.012 0.986 " transform="matrix(500,0,0,500,0,0)"/>
<path style="fill:none;stroke-width:0.002;stroke-linecap:butt;stroke-linejoin:miter;stroke:rgb(74.9%,23.7%,55%);stroke-opacity:1;stroke-miterlimit:10;" d="M 0.968 0.202 L 0.239 0.012 " transform="matrix(500,0,0,500,0,0)"/>
<path style="fill:none;stroke-width:0.002;stroke-linecap:butt;stroke-linejoin:miter;stroke:rgb(17.9%,74.6%,51.4%);stroke-opacity:1;stroke-miterlimit:10;" d="M 0.46 0.828 L 0.378 0.307 " transform="matrix(500,0,0,500,0,0)"/>
</g>
</defs>
<g id="surface345">
<use xlink:href="#surface348"/>
</g>
</svg>
