<?xml version="1.0" encoding="UTF-8"?>
<svg xmlns="http://www.w3.org/2000/svg" xmlns:xlink="http://www.w3.org/1999/xlink" width="500pt" height="500pt" viewBox="0 0 500 500" version="1.1">
<defs>
<radialGradient id="radial0" gradientUnits="userSpaceOnUse" cx="0.5" cy="0.5" fx="0.5" fy="0.5" r="0.6" gradientTransform="matrix(500,0,0,500,0,0)">
<stop offset="0.466667" style="stop-color:rgb(55.5%,61%,51.5%);stop-opacity:1;"/>
<stop offset="0.6" style="stop-color:rgb(73.6%,48.1%,54.8%);stop-opacity:1;"/>
</radialGradient>
<clipPath id="clip1">
  <rect x="0" y="0" width="500" height="500"/>
</clipPath>
<g id="surface348" clip-path="url(#clip1)">
<rect x="0" y="0" width="500" height="500" style="fill:url(#radial0);stroke:none;"/>
<path style=" stroke:none;fill-rule:nonzero;fill:rgb(53.7%,18.7%,62%);fill-opacity:1;" d="M 45 25 C 45 36.046875 36.046875 45 25 45 C 13.953125 45 5 36.046875 5 25 C 5 13.953125 13.953125 5 25 5 C 36.046875 5 45 13.953125 45 25 "/>
<path style=" stroke:none;fill-rule:nonzero;fill:rgb(61%,3.7%,83.2%);fill-opacity:1;" d="M 90.5 25 C 90.5 33.558594 83.558594 40.5 75 40.5 C 66.441406 40.5 59.5 33.558594 59.5 25 C 59.5 16.441406 66.441406 9.5 75 9.5 C 83.558594 9.5 90.5 16.441406 90.5 25 "/>
<path style=" stroke:none;fill-rule:nonzero;fill:rgb(73.4%,77.6%,17.7%);fill-opacity:1;" d="M 142.5 25 C 142.5 34.664062 134.664062 42.5 125 42.5 C 115.335938 42.5 107.5 34.664062 107.5 25 C 107.5 15.335938 115.335938 7.5 125 7.5 C 134.664062 7.5 142.5 15.335938 142.5 25 "/>
<path style=" stroke:none;fill-rule:nonzero;fill:rgb(48.9%,66.1%,38.7%);fill-opacity:1;" d="M 181 25 C 181 28.3125 178.3125 31 175 31 C 171.6875 31 169 28.3125 169 25 C 169 21.6875 171.6875 19 175 19 C 178.3125 19 181 21.6875 181 25 "/>
<path style=" stroke:none;fill-rule:nonzero;fill:rgb(22.2%,16.5%,85.8%);fill-opacity:1;" d="M 247.5 25 C 247.5 37.425781 237.425781 47.5 225 47.5 C 212.574219 47.5 202.5 37.425781 202.5 25 C 202.5 12.574219 212.574219 2.5 225 2.5 C 237.425781 2.5 247.5 12.574219 247.5 25 "/>
<path style=" stroke:none;fill-rule:nonzero;fill:rgb(85.3%,65.1%,64.3%);fill-opacity:1;" d="M 288.5 25 C 288.5 32.457031 282.457031 38.5 275 38.5 C 267.542969 38.5 261.5 32.457031 261.5 25 C 261.5 17.542969 267.542969 11.5 275 11.5 C 282.457031 11.5 288.5 17.542969 288.5 25 "/>
<path style=" stroke:none;fill-rule:nonzero;fill:rgb(78.8%,96%,38.7%);fill-opacity:1;" d="M 332.5 25 C 332.5 29.140625 329.140625 32.5 325 32.5 C 320.859375 32.5 317.5 29.140625 317.5 25 C 317.5 20.859375 320.859375 17.5 325 17.5 C 329.140625 17.5 332.5 20.859375 332.5 25 "/>
<path style=" stroke:none;fill-rule:nonzero;fill:rgb(59.4%,3.4%,91%);fill-opacity:1;" d="M 398.5 25 C 398.5 37.980469 387.980469 48.5 375 48.5 C 362.019531 48.5 351.5 37.980469 351.5 25 C 351.5 12.019531 362.019531 1.5 375 1.5 C 387.980469 1.5 398.5 12.019531 398.5 25 "/>
<path style=" stroke:none;fill-rule:nonzero;fill:rgb(54%,9.2%,14.1%);fill-opacity:1;" d="M 437 25 C 437 31.628906 431.628906 37 425 37 C 418.371094 37 413 31.628906 413 25 C 413 18.371094 418.371094 13 425 13 C 431.628906 13 437 18.371094 437 25 "/>
<path style=" stroke:none;fill-rule:nonzero;fill:rgb(23.2%,16.3%,26.5%);fill-opacity:1;" d="M 495.5 25 C 495.5 36.320312 486.320312 45.5 475 45.5 C 463.679688 45.5 454.5 36.320312 454.5 25 C 454.5 13.679688 463.679688 4.5 475 4.5 C 486.320312 4.5 495.5 13.679688 495.5 25 "/>
<path style=" stroke:none;fill-rule:nonzero;fill:rgb(40%,51.1%,28.5%);fill-opacity:1;" d="M 500 75 C 500 88.808594 488.808594 100 475 100 C 461.191406 100 450 88.808594 450 75 C 450 61.191406 461.191406 50 475 50 C 488.808594 50 500 61.191406 500 75 "/>
<path style=" stroke:none;fill-rule:nonzero;fill:rgb(40.5%,36.5%,73.6%);fill-opacity:1;" d="M 444 75 C 444 85.492188 435.492188 94 425 94 C 414.507812 94 406 85.492188 406 75 C 406 64.507812 414.507812 56 425 56 C 435.492188 56 444 64.507812 444 75 "/>
<path style=" stroke:none;fill-rule:nonzero;fill:rgb(50.4%,99.6%,2.2%);fill-opacity:1;" d="M 387.5 75 C 387.5 81.902344 381.902344 87.5 375 87.5 C 368.097656 87.5 362.5 81.902344 362.5 75 C 362.5 68.097656 368.097656 62.5 375 62.5 C 381.902344 62.5 387.5 68.097656 387.5 75 "/>
<path style=" stroke:none;fill-rule:nonzero;fill:rgb(68.5%,82.2%,37.8%);fill-opacity:1;" d="M 350 75 C 350 88.808594 338.808594 100 325 100 C 311.191406 100 300 88.808594 300 75 C 300 61.191406 311.191406 50 325 50 C 338.808594 50 350 61.191406 350 75 "/>
<path style=" stroke:none;fill-rule:nonzero;fill:rgb(69.8%,38.9%,91.6%);fill-opacity:1;" d="M 292 75 C 292 84.390625 284.390625 92 275 92 C 265.609375 92 258 84.390625 258 75 C 258 65.609375 265.609375 58 275 58 C 284.390625 58 292 65.609375 292 75 "/>
<path style=" stroke:none;fill-rule:nonzero;fill:rgb(44%,14.1%,47.7%);fill-opacity:1;" d="M 236 75 C 236 81.074219 231.074219 86 225 86 C 218.925781 86 214 81.074219 214 75 C 214 68.925781 218.925781 64 225 64 C 231.074219 64 236 68.925781 236 75 "/>
<path style=" stroke:none;fill-rule:nonzero;fill:rgb(53%,40.1%,86.6%);fill-opacity:1;" d="M 187.5 75 C 187.5 81.902344 181.902344 87.5 175 87.5 C 168.097656 87.5 162.5 81.902344 162.5 75 C 162.5 68.097656 168.097656 62.5 175 62.5 C 181.902344 62.5 187.5 68.097656 187.5 75 "/>
<path style=" stroke:none;fill-rule:nonzero;fill:rgb(84.9%,54.6%,25%);fill-opacity:1;" d="M 135.5 75 C 135.5 80.800781 130.800781 85.5 125 85.5 C 119.199219 85.5 114.5 80.800781 114.5 75 C 114.5 69.199219 119.199219 64.5 125 64.5 C 130.800781 64.5 135.5 69.199219 135.5 75 "/>
<path style=" stroke:none;fill-rule:nonzero;fill:rgb(97.3%,38.2%,58.1%);fill-opacity:1;" d="M 99 75 C 99 88.253906 88.253906 99 75 99 C 61.746094 99 51 88.253906 51 75 C 51 61.746094 61.746094 51 75 51 C 88.253906 51 99 61.746094 99 75 "/>
<path style=" stroke:none;fill-rule:nonzero;fill:rgb(34.3%,89.5%,30.2%);fill-opacity:1;" d="M 37.5 75 C 37.5 81.902344 31.902344 87.5 25 87.5 C 18.097656 87.5 12.5 81.902344 12.5 75 C 12.5 68.097656 18.097656 62.5 25 62.5 C 31.902344 62.5 37.5 68.097656 37.5 75 "/>
<path style=" stroke:none;fill-rule:nonzero;fill:rgb(96.8%,27.6%,35.4%);fill-opacity:1;" d="M 38 125 C 38 132.179688 32.179688 138 25 138 C 17.820312 138 12 132.179688 12 125 C 12 117.820312 17.820312 112 25 112 C 32.179688 112 38 117.820312 38 125 "/>
<path style=" stroke:none;fill-rule:nonzero;fill:rgb(35.7%,98.8%,60%);fill-opacity:1;" d="M 81 125 C 81 128.3125 78.3125 131 75 131 C 71.6875 131 69 128.3125 69 125 C 69 121.6875 71.6875 119 75 119 C 78.3125 119 81 121.6875 81 125 "/>
<path style=" stroke:none;fill-rule:nonzero;fill:rgb(26.5%,86.3%,29.8%);fill-opacity:1;" d="M 134.5 125 C 134.5 130.246094 130.246094 134.5 125 134.5 C 119.753906 134.5 115.5 130.246094 115.5 125 C 115.5 119.753906 119.753906 115.5 125 115.5 C 130.246094 115.5 134.5 119.753906 134.5 125 "/>
<path style=" stroke:none;fill-rule:nonzero;fill:rgb(16.2%,98.3%,29.8%);fill-opacity:1;" d="M 194.5 125 C 194.5 135.769531 185.769531 144.5 175 144.5 C 164.230469 144.5 155.5 135.769531 155.5 125 C 155.5 114.230469 164.230469 105.5 175 105.5 C 185.769531 105.5 194.5 114.230469 194.5 125 "/>
<path style=" stroke:none;fill-rule:nonzero;fill:rgb(96.3%,97.3%,6.3%);fill-opacity:1;" d="M 235.5 125 C 235.5 130.800781 230.800781 135.5 225 135.5 C 219.199219 135.5 214.5 130.800781 214.5 125 C 214.5 119.199219 219.199219 114.5 225 114.5 C 230.800781 114.5 235.5 119.199219 235.5 125 "/>
<path style=" stroke:none;fill-rule:nonzero;fill:rgb(51.2%,99.9%,30.9%);fill-opacity:1;" d="M 285.5 125 C 285.5 130.800781 280.800781 135.5 275 135.5 C 269.199219 135.5 264.5 130.800781 264.5 125 C 264.5 119.199219 269.199219 114.5 275 114.5 C 280.800781 114.5 285.5 119.199219 285.5 125 "/>
<path style=" stroke:none;fill-rule:nonzero;fill:rgb(11%,48.2%,65.5%);fill-opacity:1;" d="M 334 125 C 334 129.96875 329.96875 134 325 134 C 320.03125 134 316 129.96875 316 125 C 316 120.03125 320.03125 116 325 116 C 329.96875 116 334 120.03125 334 125 "/>
<path style=" stroke:none;fill-rule:nonzero;fill:rgb(64.6%,41.7%,96.5%);fill-opacity:1;" d="M 382.5 125 C 382.5 129.140625 379.140625 132.5 375 132.5 C 370.859375 132.5 367.5 129.140625 367.5 125 C 367.5 120.859375 370.859375 117.5 375 117.5 C 379.140625 117.5 382.5 120.859375 382.5 125 "/>
<path style=" stroke:none;fill-rule:nonzero;fill:rgb(9.7%,20.3%,56.9%);fill-opacity:1;" d="M 432 125 C 432 128.867188 428.867188 132 425 132 C 421.132812 132 418 128.867188 418 125 C 418 121.132812 421.132812 118 425 118 C 428.867188 118 432 121.132812 432 125 "/>
<path style=" stroke:none;fill-rule:nonzero;fill:rgb(55.4%,3.4%,7.1%);fill-opacity:1;" d="M 498.5 125 C 498.5 137.980469 487.980469 148.5 475 148.5 C 462.019531 148.5 451.5 137.980469 451.5 125 C 451.5 112.019531 462.019531 101.5 475 101.5 C 487.980469 101.5 498.5 112.019531 498.5 125 "/>
<path style=" stroke:none;fill-rule:nonzero;fill:rgb(28.4%,45.1%,58.7%);fill-opacity:1;" d="M 493 175 C 493 184.941406 484.941406 193 475 193 C 465.058594 193 457 184.941406 457 175 C 457 165.058594 465.058594 157 475 157 C 484.941406 157 493 165.058594 493 175 "/>
<path style=" stroke:none;fill-rule:nonzero;fill:rgb(21.3%,85.3%,28.9%);fill-opacity:1;" d="M 430.5 175 C 430.5 178.039062 428.039062 180.5 425 180.5 C 421.960938 180.5 419.5 178.039062 419.5 175 C 419.5 171.960938 421.960938 169.5 425 169.5 C 428.039062 169.5 430.5 171.960938 430.5 175 "/>
<path style=" stroke:none;fill-rule:nonzero;fill:rgb(56.4%,93%,81.7%);fill-opacity:1;" d="M 382.5 175 C 382.5 179.140625 379.140625 182.5 375 182.5 C 370.859375 182.5 367.5 179.140625 367.5 175 C 367.5 170.859375 370.859375 167.5 375 167.5 C 379.140625 167.5 382.5 170.859375 382.5 175 "/>
<path style=" stroke:none;fill-rule:nonzero;fill:rgb(34.8%,90.9%,15.1%);fill-opacity:1;" d="M 333.5 175 C 333.5 179.695312 329.695312 183.5 325 183.5 C 320.304688 183.5 316.5 179.695312 316.5 175 C 316.5 170.304688 320.304688 166.5 325 166.5 C 329.695312 166.5 333.5 170.304688 333.5 175 "/>
<path style=" stroke:none;fill-rule:nonzero;fill:rgb(65.8%,4.4%,73.2%);fill-opacity:1;" d="M 291.5 175 C 291.5 184.113281 284.113281 191.5 275 191.5 C 265.886719 191.5 258.5 184.113281 258.5 175 C 258.5 165.886719 265.886719 158.5 275 158.5 C 284.113281 158.5 291.5 165.886719 291.5 175 "/>
<path style=" stroke:none;fill-rule:nonzero;fill:rgb(30.9%,75.4%,67.8%);fill-opacity:1;" d="M 237.5 175 C 237.5 181.902344 231.902344 187.5 225 187.5 C 218.097656 187.5 212.5 181.902344 212.5 175 C 212.5 168.097656 218.097656 162.5 225 162.5 C 231.902344 162.5 237.5 168.097656 237.5 175 "/>
<path style=" stroke:none;fill-rule:nonzero;fill:rgb(40.5%,76%,85.4%);fill-opacity:1;" d="M 192.5 175 C 192.5 184.664062 184.664062 192.5 175 192.5 C 165.335938 192.5 157.5 184.664062 157.5 175 C 157.5 165.335938 165.335938 157.5 175 157.5 C 184.664062 157.5 192.5 165.335938 192.5 175 "/>
<path style=" stroke:none;fill-rule:nonzero;fill:rgb(78.8%,49.8%,67.9%);fill-opacity:1;" d="M 146 175 C 146 186.597656 136.597656 196 125 196 C 113.402344 196 104 186.597656 104 175 C 104 163.402344 113.402344 154 125 154 C 136.597656 154 146 163.402344 146 175 "/>
<path style=" stroke:none;fill-rule:nonzero;fill:rgb(9.7%,78.6%,64.7%);fill-opacity:1;" d="M 91 175 C 91 183.835938 83.835938 191 75 191 C 66.164062 191 59 183.835938 59 175 C 59 166.164062 66.164062 159 75 159 C 83.835938 159 91 166.164062 91 175 "/>
<path style=" stroke:none;fill-rule:nonzero;fill:rgb(73.9%,79.6%,5.9%);fill-opacity:1;" d="M 35.5 175 C 35.5 180.800781 30.800781 185.5 25 185.5 C 19.199219 185.5 14.5 180.800781 14.5 175 C 14.5 169.199219 19.199219 164.5 25 164.5 C 30.800781 164.5 35.5 169.199219 35.5 175 "/>
<path style=" stroke:none;fill-rule:nonzero;fill:rgb(29%,9.2%,45.3%);fill-opacity:1;" d="M 42.5 225 C 42.5 234.664062 34.664062 242.5 25 242.5 C 15.335938 242.5 7.5 234.664062 7.5 225 C 7.5 215.335938 15.335938 207.5 25 207.5 C 34.664062 207.5 42.5 215.335938 42.5 225 "/>
<path style=" stroke:none;fill-rule:nonzero;fill:rgb(3%,88.3%,77.6%);fill-opacity:1;" d="M 96.5 225 C 96.5 236.875 86.875 246.5 75 246.5 C 63.125 246.5 53.5 236.875 53.5 225 C 53.5 213.125 63.125 203.5 75 203.5 C 86.875 203.5 96.5 213.125 96.5 225 "/>
<path style=" stroke:none;fill-rule:nonzero;fill:rgb(68.1%,59.7%,44.3%);fill-opacity:1;" d="M 142 225 C 142 234.390625 134.390625 242 125 242 C 115.609375 242 108 234.390625 108 225 C 108 215.609375 115.609375 208 125 208 C 134.390625 208 142 215.609375 142 225 "/>
<path style=" stroke:none;fill-rule:nonzero;fill:rgb(81.2%,73.7%,35.9%);fill-opacity:1;" d="M 189.5 225 C 189.5 233.007812 183.007812 239.5 175 239.5 C 166.992188 239.5 160.5 233.007812 160.5 225 C 160.5 216.992188 166.992188 210.5 175 210.5 C 183.007812 210.5 189.5 216.992188 189.5 225 "/>
<path style=" stroke:none;fill-rule:nonzero;fill:rgb(71.8%,98.2%,63.7%);fill-opacity:1;" d="M 231.5 225 C 231.5 228.589844 228.589844 231.5 225 231.5 C 221.410156 231.5 218.5 228.589844 218.5 225 C 218.5 221.410156 221.410156 218.5 225 218.5 C 228.589844 218.5 231.5 221.410156 231.5 225 "/>
<path style=" stroke:none;fill-rule:nonzero;fill:rgb(90.5%,93.4%,22.7%);fill-opacity:1;" d="M 282 225 C 282 228.867188 278.867188 232 275 232 C 271.132812 232 268 228.867188 268 225 C 268 221.132812 271.132812 218 275 218 C 278.867188 218 282 221.132812 282 225 "/>
<path style=" stroke:none;fill-rule:nonzero;fill:rgb(64%,36.7%,33.2%);fill-opacity:1;" d="M 331 225 C 331 228.3125 328.3125 231 325 231 C 321.6875 231 319 228.3125 319 225 C 319 221.6875 321.6875 219 325 219 C 328.3125 219 331 221.6875 331 225 "/>
<path style=" stroke:none;fill-rule:nonzero;fill:rgb(27.3%,70.8%,22.7%);fill-opacity:1;" d="M 381 225 C 381 228.3125 378.3125 231 375 231 C 371.6875 231 369 228.3125 369 225 C 369 221.6875 371.6875 219 375 219 C 378.3125 219 381 221.6875 381 225 "/>
<path style=" stroke:none;fill-rule:nonzero;fill:rgb(94.5%,59%,39.5%);fill-opacity:1;" d="M 441.5 225 C 441.5 234.113281 434.113281 241.5 425 241.5 C 415.886719 241.5 408.5 234.113281 408.5 225 C 408.5 215.886719 415.886719 208.5 425 208.5 C 434.113281 208.5 441.5 215.886719 441.5 225 "/>
<path style=" stroke:none;fill-rule:nonzero;fill:rgb(38.2%,16.7%,56.9%);fill-opacity:1;" d="M 482 225 C 482 228.867188 478.867188 232 475 232 C 471.132812 232 468 228.867188 468 225 C 468 221.132812 471.132812 218 475 218 C 478.867188 218 482 221.132812 482 225 "/>
<path style=" stroke:none;fill-rule:nonzero;fill:rgb(74.6%,19.8%,84.2%);fill-opacity:1;" d="M 485 275 C 485 280.523438 480.523438 285 475 285 C 469.476562 285 465 280.523438 465 275 C 465 269.476562 469.476562 265 475 265 C 480.523438 265 485 269.476562 485 275 "/>
<path style=" stroke:none;fill-rule:nonzero;fill:rgb(2.9%,29.4%,4.9%);fill-opacity:1;" d="M 447 275 C 447 287.148438 437.148438 297 425 297 C 412.851562 297 403 287.148438 403 275 C 403 262.851562 412.851562 253 425 253 C 437.148438 253 447 262.851562 447 275 "/>
<path style=" stroke:none;fill-rule:nonzero;fill:rgb(4%,56.3%,57.3%);fill-opacity:1;" d="M 383.5 275 C 383.5 279.695312 379.695312 283.5 375 283.5 C 370.304688 283.5 366.5 279.695312 366.5 275 C 366.5 270.304688 370.304688 266.5 375 266.5 C 379.695312 266.5 383.5 270.304688 383.5 275 "/>
<path style=" stroke:none;fill-rule:nonzero;fill:rgb(13.3%,73.7%,52.4%);fill-opacity:1;" d="M 346 275 C 346 286.597656 336.597656 296 325 296 C 313.402344 296 304 286.597656 304 275 C 304 263.402344 313.402344 254 325 254 C 336.597656 254 346 263.402344 346 275 "/>
<path style=" stroke:none;fill-rule:nonzero;fill:rgb(98.3%,88%,6.2%);fill-opacity:1;" d="M 296 275 C 296 286.597656 286.597656 296 275 296 C 263.402344 296 254 286.597656 254 275 C 254 263.402344 263.402344 254 275 254 C 286.597656 254 296 263.402344 296 275 "/>
<path style=" stroke:none;fill-rule:nonzero;fill:rgb(4.9%,51.9%,94.3%);fill-opacity:1;" d="M 233 275 C 233 279.417969 229.417969 283 225 283 C 220.582031 283 217 279.417969 217 275 C 217 270.582031 220.582031 267 225 267 C 229.417969 267 233 270.582031 233 275 "/>
<path style=" stroke:none;fill-rule:nonzero;fill:rgb(84%,17.6%,49.2%);fill-opacity:1;" d="M 197 275 C 197 287.148438 187.148438 297 175 297 C 162.851562 297 153 287.148438 153 275 C 153 262.851562 162.851562 253 175 253 C 187.148438 253 197 262.851562 197 275 "/>
<path style=" stroke:none;fill-rule:nonzero;fill:rgb(22%,89.1%,33.8%);fill-opacity:1;" d="M 147 275 C 147 287.148438 137.148438 297 125 297 C 112.851562 297 103 287.148438 103 275 C 103 262.851562 112.851562 253 125 253 C 137.148438 253 147 262.851562 147 275 "/>
<path style=" stroke:none;fill-rule:nonzero;fill:rgb(98.5%,43.4%,17.7%);fill-opacity:1;" d="M 88 275 C 88 282.179688 82.179688 288 75 288 C 67.820312 288 62 282.179688 62 275 C 62 267.820312 67.820312 262 75 262 C 82.179688 262 88 267.820312 88 275 "/>
<path style=" stroke:none;fill-rule:nonzero;fill:rgb(71.9%,55.6%,25%);fill-opacity:1;" d="M 35 275 C 35 280.523438 30.523438 285 25 285 C 19.476562 285 15 280.523438 15 275 C 15 269.476562 19.476562 265 25 265 C 30.523438 265 35 269.476562 35 275 "/>
<path style=" stroke:none;fill-rule:nonzero;fill:rgb(44.9%,72.5%,89.9%);fill-opacity:1;" d="M 47.5 325 C 47.5 337.425781 37.425781 347.5 25 347.5 C 12.574219 347.5 2.5 337.425781 2.5 325 C 2.5 312.574219 12.574219 302.5 25 302.5 C 37.425781 302.5 47.5 312.574219 47.5 325 "/>
<path style=" stroke:none;fill-rule:nonzero;fill:rgb(16.3%,45.7%,82.9%);fill-opacity:1;" d="M 89.5 325 C 89.5 333.007812 83.007812 339.5 75 339.5 C 66.992188 339.5 60.5 333.007812 60.5 325 C 60.5 316.992188 66.992188 310.5 75 310.5 C 83.007812 310.5 89.5 316.992188 89.5 325 "/>
<path style=" stroke:none;fill-rule:nonzero;fill:rgb(41.4%,57.4%,30.6%);fill-opacity:1;" d="M 139 325 C 139 332.730469 132.730469 339 125 339 C 117.269531 339 111 332.730469 111 325 C 111 317.269531 117.269531 311 125 311 C 132.730469 311 139 317.269531 139 325 "/>
<path style=" stroke:none;fill-rule:nonzero;fill:rgb(68.7%,67.4%,36%);fill-opacity:1;" d="M 184 325 C 184 329.96875 179.96875 334 175 334 C 170.03125 334 166 329.96875 166 325 C 166 320.03125 170.03125 316 175 316 C 179.96875 316 184 320.03125 184 325 "/>
<path style=" stroke:none;fill-rule:nonzero;fill:rgb(9.1%,43.1%,61.8%);fill-opacity:1;" d="M 231.5 325 C 231.5 328.589844 228.589844 331.5 225 331.5 C 221.410156 331.5 218.5 328.589844 218.5 325 C 218.5 321.410156 221.410156 318.5 225 318.5 C 228.589844 318.5 231.5 321.410156 231.5 325 "/>
<path style=" stroke:none;fill-rule:nonzero;fill:rgb(65.9%,46.3%,89.3%);fill-opacity:1;" d="M 288 325 C 288 332.179688 282.179688 338 275 338 C 267.820312 338 262 332.179688 262 325 C 262 317.820312 267.820312 312 275 312 C 282.179688 312 288 317.820312 288 325 "/>
<path style=" stroke:none;fill-rule:nonzero;fill:rgb(79.5%,74.7%,17.5%);fill-opacity:1;" d="M 336 325 C 336 331.074219 331.074219 336 325 336 C 318.925781 336 314 331.074219 314 325 C 314 318.925781 318.925781 314 325 314 C 331.074219 314 336 318.925781 336 325 "/>
<path style=" stroke:none;fill-rule:nonzero;fill:rgb(39.6%,29.8%,27.6%);fill-opacity:1;" d="M 392.5 325 C 392.5 334.664062 384.664062 342.5 375 342.5 C 365.335938 342.5 357.5 334.664062 357.5 325 C 357.5 315.335938 365.335938 307.5 375 307.5 C 384.664062 307.5 392.5 315.335938 392.5 325 "/>
<path style=" stroke:none;fill-rule:nonzero;fill:rgb(67%,3.6%,21.3%);fill-opacity:1;" d="M 434.5 325 C 434.5 330.246094 430.246094 334.5 425 334.5 C 419.753906 334.5 415.5 330.246094 415.5 325 C 415.5 319.753906 419.753906 315.5 425 315.5 C 430.246094 315.5 434.5 319.753906 434.5 325 "/>
<path style=" stroke:none;fill-rule:nonzero;fill:rgb(47.9%,0%,93.4%);fill-opacity:1;" d="M 483.5 325 C 483.5 329.695312 479.695312 333.5 475 333.5 C 470.304688 333.5 466.5 329.695312 466.5 325 C 466.5 320.304688 470.304688 316.5 475 316.5 C 479.695312 316.5 483.5 320.304688 483.5 325 "/>
<path style=" stroke:none;fill-rule:nonzero;fill:rgb(53.1%,1.3%,89.4%);fill-opacity:1;" d="M 488.5 375 C 488.5 382.457031 482.457031 388.5 475 388.5 C 467.542969 388.5 461.5 382.457031 461.5 375 C 461.5 367.542969 467.542969 361.5 475 361.5 C 482.457031 361.5 488.5 367.542969 488.5 375 "/>
<path style=" stroke:none;fill-rule:nonzero;fill:rgb(82.3%,31.6%,36.9%);fill-opacity:1;" d="M 443 375 C 443 384.941406 434.941406 393 425 393 C 415.058594 393 407 384.941406 407 375 C 407 365.058594 415.058594 357 425 357 C 434.941406 357 443 365.058594 443 375 "/>
<path style=" stroke:none;fill-rule:nonzero;fill:rgb(29%,63.4%,8.4%);fill-opacity:1;" d="M 384.5 375 C 384.5 380.246094 380.246094 384.5 375 384.5 C 369.753906 384.5 365.5 380.246094 365.5 375 C 365.5 369.753906 369.753906 365.5 375 365.5 C 380.246094 365.5 384.5 369.753906 384.5 375 "/>
<path style=" stroke:none;fill-rule:nonzero;fill:rgb(2.1%,49.6%,64.1%);fill-opacity:1;" d="M 348 375 C 348 387.703125 337.703125 398 325 398 C 312.296875 398 302 387.703125 302 375 C 302 362.296875 312.296875 352 325 352 C 337.703125 352 348 362.296875 348 375 "/>
<path style=" stroke:none;fill-rule:nonzero;fill:rgb(86.5%,42%,87.1%);fill-opacity:1;" d="M 286 375 C 286 381.074219 281.074219 386 275 386 C 268.925781 386 264 381.074219 264 375 C 264 368.925781 268.925781 364 275 364 C 281.074219 364 286 368.925781 286 375 "/>
<path style=" stroke:none;fill-rule:nonzero;fill:rgb(59.2%,75.1%,37.5%);fill-opacity:1;" d="M 239.5 375 C 239.5 383.007812 233.007812 389.5 225 389.5 C 216.992188 389.5 210.5 383.007812 210.5 375 C 210.5 366.992188 216.992188 360.5 225 360.5 C 233.007812 360.5 239.5 366.992188 239.5 375 "/>
<path style=" stroke:none;fill-rule:nonzero;fill:rgb(98.6%,46.5%,7.8%);fill-opacity:1;" d="M 181 375 C 181 378.3125 178.3125 381 175 381 C 171.6875 381 169 378.3125 169 375 C 169 371.6875 171.6875 369 175 369 C 178.3125 369 181 371.6875 181 375 "/>
<path style=" stroke:none;fill-rule:nonzero;fill:rgb(44.5%,9%,40%);fill-opacity:1;" d="M 133 375 C 133 379.417969 129.417969 383 125 383 C 120.582031 383 117 379.417969 117 375 C 117 370.582031 120.582031 367 125 367 C 129.417969 367 133 370.582031 133 375 "/>
<path style=" stroke:none;fill-rule:nonzero;fill:rgb(45.3%,84.1%,88.3%);fill-opacity:1;" d="M 93 375 C 93 384.941406 84.941406 393 75 393 C 65.058594 393 57 384.941406 57 375 C 57 365.058594 65.058594 357 75 357 C 84.941406 357 93 365.058594 93 375 "/>
<path style=" stroke:none;fill-rule:nonzero;fill:rgb(5%,1.8%,18.1%);fill-opacity:1;" d="M 49.5 375 C 49.5 388.53125 38.53125 399.5 25 399.5 C 11.46875 399.5 0.5 388.53125 0.5 375 C 0.5 361.46875 11.46875 350.5 25 350.5 C 38.53125 350.5 49.5 361.46875 49.5 375 "/>
<path style=" stroke:none;fill-rule:nonzero;fill:rgb(73.2%,30.6%,82.5%);fill-opacity:1;" d="M 43 425 C 43 434.941406 34.941406 443 25 443 C 15.058594 443 7 434.941406 7 425 C 7 415.058594 15.058594 407 25 407 C 34.941406 407 43 415.058594 43 425 "/>
<path style=" stroke:none;fill-rule:nonzero;fill:rgb(7.7%,47.3%,15.7%);fill-opacity:1;" d="M 99 425 C 99 438.253906 88.253906 449 75 449 C 61.746094 449 51 438.253906 51 425 C 51 411.746094 61.746094 401 75 401 C 88.253906 401 99 411.746094 99 425 "/>
<path style=" stroke:none;fill-rule:nonzero;fill:rgb(64.1%,46.8%,85.8%);fill-opacity:1;" d="M 132.5 425 C 132.5 429.140625 129.140625 432.5 125 432.5 C 120.859375 432.5 117.5 429.140625 117.5 425 C 117.5 420.859375 120.859375 417.5 125 417.5 C 129.140625 417.5 132.5 420.859375 132.5 425 "/>
<path style=" stroke:none;fill-rule:nonzero;fill:rgb(22.8%,11.6%,28.4%);fill-opacity:1;" d="M 195 425 C 195 436.046875 186.046875 445 175 445 C 163.953125 445 155 436.046875 155 425 C 155 413.953125 163.953125 405 175 405 C 186.046875 405 195 413.953125 195 425 "/>
<path style=" stroke:none;fill-rule:nonzero;fill:rgb(49.1%,44.5%,85.5%);fill-opacity:1;" d="M 246.5 425 C 246.5 436.875 236.875 446.5 225 446.5 C 213.125 446.5 203.5 436.875 203.5 425 C 203.5 413.125 213.125 403.5 225 403.5 C 236.875 403.5 246.5 413.125 246.5 425 "/>
<path style=" stroke:none;fill-rule:nonzero;fill:rgb(71.4%,61.6%,5.6%);fill-opacity:1;" d="M 287 425 C 287 431.628906 281.628906 437 275 437 C 268.371094 437 263 431.628906 263 425 C 263 418.371094 268.371094 413 275 413 C 281.628906 413 287 418.371094 287 425 "/>
<path style=" stroke:none;fill-rule:nonzero;fill:rgb(61%,23.4%,73.6%);fill-opacity:1;" d="M 341.5 425 C 341.5 434.113281 334.113281 441.5 325 441.5 C 315.886719 441.5 308.5 434.113281 308.5 425 C 308.5 415.886719 315.886719 408.5 325 408.5 C 334.113281 408.5 341.5 415.886719 341.5 425 "/>
<path style=" stroke:none;fill-rule:nonzero;fill:rgb(34.4%,87.7%,78.9%);fill-opacity:1;" d="M 400 425 C 400 438.808594 388.808594 450 375 450 C 361.191406 450 350 438.808594 350 425 C 350 411.191406 361.191406 400 375 400 C 388.808594 400 400 411.191406 400 425 "/>
<path style=" stroke:none;fill-rule:nonzero;fill:rgb(73.6%,6.2%,84.4%);fill-opacity:1;" d="M 435.5 425 C 435.5 430.800781 430.800781 435.5 425 435.5 C 419.199219 435.5 414.5 430.800781 414.5 425 C 414.5 419.199219 419.199219 414.5 425 414.5 C 430.800781 414.5 435.5 419.199219 435.5 425 "/>
<path style=" stroke:none;fill-rule:nonzero;fill:rgb(70.2%,67.2%,34.2%);fill-opacity:1;" d="M 496 425 C 496 436.597656 486.597656 446 475 446 C 463.402344 446 454 436.597656 454 425 C 454 413.402344 463.402344 404 475 404 C 486.597656 404 496 413.402344 496 425 "/>
<path style=" stroke:none;fill-rule:nonzero;fill:rgb(80.3%,13.4%,7.5%);fill-opacity:1;" d="M 480.5 475 C 480.5 478.039062 478.039062 480.5 475 480.5 C 471.960938 480.5 469.5 478.039062 469.5 475 C 469.5 471.960938 471.960938 469.5 475 469.5 C 478.039062 469.5 480.5 471.960938 480.5 475 "/>
<path style=" stroke:none;fill-rule:nonzero;fill:rgb(93.1%,38.9%,2.5%);fill-opacity:1;" d="M 434 475 C 434 479.96875 429.96875 484 425 484 C 420.03125 484 416 479.96875 416 475 C 416 470.03125 420.03125 466 425 466 C 429.96875 466 434 470.03125 434 475 "/>
<path style=" stroke:none;fill-rule:nonzero;fill:rgb(40.2%,32.2%,82.6%);fill-opacity:1;" d="M 389 475 C 389 482.730469 382.730469 489 375 489 C 367.269531 489 361 482.730469 361 475 C 361 467.269531 367.269531 461 375 461 C 382.730469 461 389 467.269531 389 475 "/>
<path style=" stroke:none;fill-rule:nonzero;fill:rgb(62.8%,80.9%,16%);fill-opacity:1;" d="M 348 475 C 348 487.703125 337.703125 498 325 498 C 312.296875 498 302 487.703125 302 475 C 302 462.296875 312.296875 452 325 452 C 337.703125 452 348 462.296875 348 475 "/>
<path style=" stroke:none;fill-rule:nonzero;fill:rgb(48.3%,60.3%,67.7%);fill-opacity:1;" d="M 294.5 475 C 294.5 485.769531 285.769531 494.5 275 494.5 C 264.230469 494.5 255.5 485.769531 255.5 475 C 255.5 464.230469 264.230469 455.5 275 455.5 C 285.769531 455.5 294.5 464.230469 294.5 475 "/>
<path style=" stroke:none;fill-rule:nonzero;fill:rgb(77.7%,6.5%,4.5%);fill-opacity:1;" d="M 236.5 475 C 236.5 481.351562 231.351562 486.5 225 486.5 C 218.648438 486.5 213.5 481.351562 213.5 475 C 213.5 468.648438 218.648438 463.5 225 463.5 C 231.351562 463.5 236.5 468.648438 236.5 475 "/>
<path style=" stroke:none;fill-rule:nonzero;fill:rgb(67.4%,10%,1%);fill-opacity:1;" d="M 187.5 475 C 187.5 481.902344 181.902344 487.5 175 487.5 C 168.097656 487.5 162.5 481.902344 162.5 475 C 162.5 468.097656 168.097656 462.5 175 462.5 C 181.902344 462.5 187.5 468.097656 187.5 475 "/>
<path style=" stroke:none;fill-rule:nonzero;fill:rgb(25.5%,14.7%,27.2%);fill-opacity:1;" d="M 143 475 C 143 484.941406 134.941406 493 125 493 C 115.058594 493 107 484.941406 107 475 C 107 465.058594 115.058594 457 125 457 C 134.941406 457 143 465.058594 143 475 "/>
<path style=" stroke:none;fill-rule:nonzero;fill:rgb(87.9%,11.4%,2.3%);fill-opacity:1;" d="M 87.5 475 C 87.5 481.902344 81.902344 487.5 75 487.5 C 68.097656 487.5 62.5 481.902344 62.5 475 C 62.5 468.097656 68.097656 462.5 75 462.5 C 81.902344 462.5 87.5 468.097656 87.5 475 "/>
<path style=" stroke:none;fill-rule:nonzero;fill:rgb(72.3%,76.9%,86.4%);fill-opacity:1;" d="M 32 475 C 32 478.867188 28.867188 482 25 482 C 21.132812 482 18 478.867188 18 475 C 18 471.132812 21.132812 468 25 468 C 28.867188 468 32 471.132812 32 475 "/>
<path style="fill:none;stroke-width:0.01;stroke-linecap:butt;stroke-linejoin:miter;stroke:rgb(69.3%,94.3%,26.4%);stroke-opacity:1;stroke-miterlimit:10;" d="M 0.05 0.05 C 0.15 0.05 0.25 0.05 0.35 0.05 " transform="matrix(500,0,0,500,0,0)"/>
<path style="fill:none;stroke-width:0.01;stroke-linecap:butt;stroke-linejoin:miter;stroke:rgb(3.5%,38.8%,15.2%);stroke-opacity:1;stroke-miterlimit:10;" d="M 0.35 0.05 C 0.45 0.05 0.55 0.05 0.65 0.05 " transform="matrix(500,0,0,500,0,0)"/>
<path style="fill:none;stroke-width:0.01;stroke-linecap:butt;stroke-linejoin:miter;stroke:rgb(60.5%,43.2%,55.8%);stroke-opacity:1;stroke-miterlimit:10;" d="M 0.65 0.05 C 0.75 0.05 0.85 0.05 0.95 0.05 " transform="matrix(500,0,0,500,0,0)"/>
<path style="fill:none;stroke-width:0.01;stroke-linecap:butt;stroke-linejoin:miter;stroke:rgb(36.3%,57.5%,66.8%);stroke-opacity:1;stroke-miterlimit:10;" d="M 0.95 0.05 C 0.95 0.15 0.85 0.15 0.75 0.15 " transform="matrix(500,0,0,500,0,0)"/>
<path style="fill:none;stroke-width:0.01;stroke-linecap:butt;stroke-linejoin:miter;stroke:rgb(58.4%,90%,38.8%);stroke-opacity:1;stroke-miterlimit:10;" d="M 0.75 0.15 C 0.65 0.15 0.55 0.15 0.45 0.15 " transform="matrix(500,0,0,500,0,0)"/>
<path style="fill:none;stroke-width:0.01;stroke-linecap:butt;stroke-linejoin:miter;stroke:rgb(41.1%,82.9%,86.9%);stroke-opacity:1;stroke-miterlimit:10;" d="M 0.45 0.15 C 0.35 0.15 0.25 0.15 0.15 0.15 " transform="matrix(500,0,0,500,0,0)"/>
<path style="fill:none;stroke-width:0.01;stroke-linecap:butt;stroke-linejoin:miter;stroke:rgb(71.8%,2%,43.7%);stroke-opacity:1;stroke-miterlimit:10;" d="M 0.15 0.15 C 0.05 0.15 0.05 0.25 0.15 0.25 " transform="matrix(500,0,0,500,0,0)"/>
<path style="fill:none;stroke-width:0.01;stroke-linecap:butt;stroke-linejoin:miter;stroke:rgb(40.8%,41.4%,43.9%);stroke-opacity:1;stroke-miterlimit:10;" d="M 0.15 0.25 C 0.25 0.25 0.35 0.25 0.45 0.25 " transform="matrix(500,0,0,500,0,0)"/>
<path style="fill:none;stroke-width:0.01;stroke-linecap:butt;stroke-linejoin:miter;stroke:rgb(13%,33%,58%);stroke-opacity:1;stroke-miterlimit:10;" d="M 0.45 0.25 C 0.55 0.25 0.65 0.25 0.75 0.25 " transform="matrix(500,0,0,500,0,0)"/>
<path style="fill:none;stroke-width:0.01;stroke-linecap:butt;stroke-linejoin:miter;stroke:rgb(76.4%,1.8%,55.4%);stroke-opacity:1;stroke-miterlimit:10;" d="M 0.75 0.25 C 0.85 0.25 0.95 0.25 0.95 0.35 " transform="matrix(500,0,0,500,0,0)"/>
<path style="fill:none;stroke-width:0.01;stroke-linecap:butt;stroke-linejoin:miter;stroke:rgb(2.9%,61.5%,14.7%);stroke-opacity:1;stroke-miterlimit:10;" d="M 0.95 0.35 C 0.85 0.35 0.75 0.35 0.65 0.35 " transform="matrix(500,0,0,500,0,0)"/>
<path style="fill:none;stroke-width:0.01;stroke-linecap:butt;stroke-linejoin:miter;stroke:rgb(25.3%,44.8%,99.9%);stroke-opacity:1;stroke-miterlimit:10;" d="M 0.65 0.35 C 0.55 0.35 0.45 0.35 0.35 0.35 " transform="matrix(500,0,0,500,0,0)"/>
<path style="fill:none;stroke-width:0.01;stroke-linecap:butt;stroke-linejoin:miter;stroke:rgb(57.5%,16.8%,34.1%);stroke-opacity:1;stroke-miterlimit:10;" d="M 0.35 0.35 C 0.25 0.35 0.15 0.35 0.05 0.35 " transform="matrix(500,0,0,500,0,0)"/>
<path style="fill:none;stroke-width:0.01;stroke-linecap:butt;stroke-linejoin:miter;stroke:rgb(40.2%,33.5%,77.5%);stroke-opacity:1;stroke-miterlimit:10;" d="M 0.05 0.35 C 0.05 0.45 0.15 0.45 0.25 0.45 " transform="matrix(500,0,0,500,0,0)"/>
<path style="fill:none;stroke-width:0.01;stroke-linecap:butt;stroke-linejoin:miter;stroke:rgb(32.8%,94.3%,75.9%);stroke-opacity:1;stroke-miterlimit:10;" d="M 0.25 0.45 C 0.35 0.45 0.45 0.45 0.55 0.45 " transform="matrix(500,0,0,500,0,0)"/>
<path style="fill:none;stroke-width:0.01;stroke-linecap:butt;stroke-linejoin:miter;stroke:rgb(41.1%,47.3%,11.6%);stroke-opacity:1;stroke-miterlimit:10;" d="M 0.55 0.45 C 0.65 0.45 0.75 0.45 0.85 0.45 " transform="matrix(500,0,0,500,0,0)"/>
<path style="fill:none;stroke-width:0.01;stroke-linecap:butt;stroke-linejoin:miter;stroke:rgb(76.6%,92.4%,5.9%);stroke-opacity:1;stroke-miterlimit:10;" d="M 0.85 0.45 C 0.95 0.45 0.95 0.55 0.85 0.55 " transform="matrix(500,0,0,500,0,0)"/>
<path style="fill:none;stroke-width:0.01;stroke-linecap:butt;stroke-linejoin:miter;stroke:rgb(52.2%,60.4%,69.1%);stroke-opacity:1;stroke-miterlimit:10;" d="M 0.85 0.55 C 0.75 0.55 0.65 0.55 0.55 0.55 " transform="matrix(500,0,0,500,0,0)"/>
<path style="fill:none;stroke-width:0.01;stroke-linecap:butt;stroke-linejoin:miter;stroke:rgb(98.1%,74.3%,28.6%);stroke-opacity:1;stroke-miterlimit:10;" d="M 0.55 0.55 C 0.45 0.55 0.35 0.55 0.25 0.55 " transform="matrix(500,0,0,500,0,0)"/>
<path style="fill:none;stroke-width:0.01;stroke-linecap:butt;stroke-linejoin:miter;stroke:rgb(30.5%,66%,77.1%);stroke-opacity:1;stroke-miterlimit:10;" d="M 0.25 0.55 C 0.15 0.55 0.05 0.55 0.05 0.65 " transform="matrix(500,0,0,500,0,0)"/>
<path style="fill:none;stroke-width:0.01;stroke-linecap:butt;stroke-linejoin:miter;stroke:rgb(86.3%,10.3%,5.6%);stroke-opacity:1;stroke-miterlimit:10;" d="M 0.05 0.65 C 0.15 0.65 0.25 0.65 0.35 0.65 " transform="matrix(500,0,0,500,0,0)"/>
<path style="fill:none;stroke-width:0.01;stroke-linecap:butt;stroke-linejoin:miter;stroke:rgb(64.8%,40.1%,18.2%);stroke-opacity:1;stroke-miterlimit:10;" d="M 0.35 0.65 C 0.45 0.65 0.55 0.65 0.65 0.65 " transform="matrix(500,0,0,500,0,0)"/>
<path style="fill:none;stroke-width:0.01;stroke-linecap:butt;stroke-linejoin:miter;stroke:rgb(89.7%,7.4%,39.1%);stroke-opacity:1;stroke-miterlimit:10;" d="M 0.65 0.65 C 0.75 0.65 0.85 0.65 0.95 0.65 " transform="matrix(500,0,0,500,0,0)"/>
<path style="fill:none;stroke-width:0.01;stroke-linecap:butt;stroke-linejoin:miter;stroke:rgb(92.4%,77.6%,90.6%);stroke-opacity:1;stroke-miterlimit:10;" d="M 0.95 0.65 C 0.95 0.75 0.85 0.75 0.75 0.75 " transform="matrix(500,0,0,500,0,0)"/>
<path style="fill:none;stroke-width:0.01;stroke-linecap:butt;stroke-linejoin:miter;stroke:rgb(67.9%,86.7%,21.9%);stroke-opacity:1;stroke-miterlimit:10;" d="M 0.75 0.75 C 0.65 0.75 0.55 0.75 0.45 0.75 " transform="matrix(500,0,0,500,0,0)"/>
<path style="fill:none;stroke-width:0.01;stroke-linecap:butt;stroke-linejoin:miter;stroke:rgb(12.4%,25.8%,22.2%);stroke-opacity:1;stroke-miterlimit:10;" d="M 0.45 0.75 C 0.35 0.75 0.25 0.75 0.15 0.75 " transform="matrix(500,0,0,500,0,0)"/>
<path style="fill:none;stroke-width:0.01;stroke-linecap:butt;stroke-linejoin:miter;stroke:rgb(54.2%,5.9%,95.7%);stroke-opacity:1;stroke-miterlimit:10;" d="M 0.15 0.75 C 0.05 0.75 0.05 0.85 0.15 0.85 " transform="matrix(500,0,0,500,0,0)"/>
<path style="fill:none;stroke-width:0.01;stroke-linecap:butt;stroke-linejoin:miter;stroke:rgb(10.9%,15.3%,96.2%);stroke-opacity:1;stroke-miterlimit:10;" d="M 0.15 0.85 C 0.25 0.85 0.35 0.85 0.45 0.85 " transform="matrix(500,0,0,500,0,0)"/>
<path style="fill:none;stroke-width:0.01;stroke-linecap:butt;stroke-linejoin:miter;stroke:rgb(83.3%,62.8%,29.8%);stroke-opacity:1;stroke-miterlimit:10;" d="M 0.45 0.85 C 0.55 0.85 0.65 0.85 0.75 0.85 " transform="matrix(500,0,0,500,0,0)"/>
<path style="fill:none;stroke-width:0.01;stroke-linecap:butt;stroke-linejoin:miter;stroke:rgb(6.9%,24.1%,39.2%);stroke-opacity:1;stroke-miterlimit:10;" d="M 0.75 0.85 C 0.85 0.85 0.95 0.85 0.95 0.95 " transform="matrix(500,0,0,500,0,0)"/>
<path style="fill:none;stroke-width:0.01;stroke-linecap:butt;stroke-linejoin:miter;stroke:rgb(97.5%,38.2%,92.3%);stroke-opacity:1;stroke-miterlimit:10;" d="M 0.95 0.95 C 0.85 0.95 0.75 0.95 0.65 0.95 " transform="matrix(500,0,0,500,0,0)"/>
<path style="fill:none;stroke-width:0.01;stroke-linecap:butt;stroke-linejoin:miter;stroke:rgb(5.2%,65.3%,86.8%);stroke-opacity:1;stroke-miterlimit:10;" d="M 0.65 0.95 C 0.55 0.95 0.45 0.95 0.35 0.95 " transform="matrix(500,0,0,500,0,0)"/>
<path style="fill:none;stroke-width:0.01;stroke-linecap:butt;stroke-linejoin:miter;stroke:rgb(74%,18.7%,15.5%);stroke-opacity:1;stroke-miterlimit:10;" d="M 0.35 0.95 C 0.25 0.95 0.15 0.95 0.05 0.95 " transform="matrix(500,0,0,500,0,0)"/>
<path style=" stroke:none;fill-rule:nonzero;fill:rgb(3.6%,45.5%,5.7%);fill-opacity:0.5;" d="M 20.5 49 L 74.5 47 L 79.5 98 L 20.5 49 "/>
<path style=" stroke:none;fill-rule:nonzero;fill:rgb(85.6%,26.9%,26.8%);fill-opacity:0.5;" d="M 192 19.5 L 131 26.5 L 155 79 L 192 19.5 "/>
<path style=" stroke:none;fill-rule:nonzero;fill:rgb(16.2%,56.2%,65.3%);fill-opacity:0.5;" d="M 239.5 20 L 293 15 L 315.5 79 L 239.5 20 "/>
<path style=" stroke:none;fill-rule:nonzero;fill:rgb(90.5%,20.3%,92%);fill-opacity:0.5;" d="M 327.5 98.5 L 389 84 L 392 26 L 327.5 98.5 "/>
<path style=" stroke:none;fill-rule:nonzero;fill:rgb(58.8%,43.3%,13.9%);fill-opacity:0.5;" d="M 494.5 2 L 430 -6 L 411.5 44 L 494.5 2 "/>
<path style=" stroke:none;fill-rule:nonzero;fill:rgb(55.8%,83%,13.3%);fill-opacity:0.5;" d="M 443.5 133 L 507 131.5 L 495.5 201.5 L 443.5 133 "/>
<path style=" stroke:none;fill-rule:nonzero;fill:rgb(78.4%,68.3%,56.6%);fill-opacity:0.5;" d="M 331 178 L 382.5 203 L 371.5 130 L 331 178 "/>
<path style=" stroke:none;fill-rule:nonzero;fill:rgb(94.7%,9.2%,81.2%);fill-opacity:0.5;" d="M 266.5 144 L 195 147.5 L 188.5 210.5 L 266.5 144 "/>
<path style=" stroke:none;fill-rule:nonzero;fill:rgb(72.3%,76.9%,85.1%);fill-opacity:0.5;" d="M 129 191 L 181 198 L 190.5 148 L 129 191 "/>
<path style=" stroke:none;fill-rule:nonzero;fill:rgb(50.5%,69.2%,20.3%);fill-opacity:0.5;" d="M 87.5 118.5 L 20 112 L 37.5 180 L 87.5 118.5 "/>
<path style=" stroke:none;fill-rule:nonzero;fill:rgb(4%,98.8%,64.7%);fill-opacity:0.5;" d="M 47.5 234.5 L 99.5 226.5 L 109 294 L 47.5 234.5 "/>
<path style=" stroke:none;fill-rule:nonzero;fill:rgb(80.8%,91.3%,71.5%);fill-opacity:0.5;" d="M 141.5 300 L 202 291 L 181 219.5 L 141.5 300 "/>
<path style=" stroke:none;fill-rule:nonzero;fill:rgb(92.9%,62.1%,63.3%);fill-opacity:0.5;" d="M 284 223.5 L 220 218 L 220.5 270.5 L 284 223.5 "/>
<path style=" stroke:none;fill-rule:nonzero;fill:rgb(88.3%,52.3%,69.2%);fill-opacity:0.5;" d="M 313.5 255 L 370.5 232.5 L 386.5 159.5 L 313.5 255 "/>
<path style=" stroke:none;fill-rule:nonzero;fill:rgb(66.4%,94.1%,74.2%);fill-opacity:0.5;" d="M 400.5 235.5 L 459.5 217 L 461.5 287.5 L 400.5 235.5 "/>
<path style=" stroke:none;fill-rule:nonzero;fill:rgb(79.6%,67.2%,85.9%);fill-opacity:0.5;" d="M 467.5 342.5 L 401.5 342 L 415 414 L 467.5 342.5 "/>
<path style=" stroke:none;fill-rule:nonzero;fill:rgb(9%,99.4%,12%);fill-opacity:0.5;" d="M 352.5 316.5 L 300.5 319 L 281 394 L 352.5 316.5 "/>
<path style=" stroke:none;fill-rule:nonzero;fill:rgb(44%,52.1%,41.6%);fill-opacity:0.5;" d="M 205.5 352.5 L 261 371.5 L 272.5 302 L 205.5 352.5 "/>
<path style=" stroke:none;fill-rule:nonzero;fill:rgb(10.1%,68%,69.9%);fill-opacity:0.5;" d="M 104.5 301 L 157 284 L 182 339.5 L 104.5 301 "/>
<path style=" stroke:none;fill-rule:nonzero;fill:rgb(75%,50.1%,95.4%);fill-opacity:0.5;" d="M 55 349 L -8 372.5 L -12 427 L 55 349 "/>
<path style=" stroke:none;fill-rule:nonzero;fill:rgb(45.7%,4.1%,68.9%);fill-opacity:0.5;" d="M 58.5 479 L 4 500 L 3 436.5 L 58.5 479 "/>
<path style=" stroke:none;fill-rule:nonzero;fill:rgb(40.6%,22.4%,29.8%);fill-opacity:0.5;" d="M 141 482 L 196 506.5 L 211 447 L 141 482 "/>
<path style=" stroke:none;fill-rule:nonzero;fill:rgb(60.6%,29.8%,70.6%);fill-opacity:0.5;" d="M 236 429.5 L 301 452 L 318 503 L 236 429.5 "/>
<path style=" stroke:none;fill-rule:nonzero;fill:rgb(10.9%,12.5%,68.9%);fill-opacity:0.5;" d="M 307.5 441 L 373.5 460.5 L 379 526 L 307.5 441 "/>
<path style=" stroke:none;fill-rule:nonzero;fill:rgb(85.3%,26.8%,96.6%);fill-opacity:0.5;" d="M 412 448.5 L 469 453 L 456 526 L 412 448.5 "/>
<path style="fill:none;stroke-width:0.002;stroke-linecap:butt;stroke-linejoin:miter;stroke:rgb(36.3%,62.3%,10.9%);stroke-opacity:1;stroke-miterlimit:10;" d="M 0.629 0.09 L 0.319 0.112 " transform="matrix(500,0,0,500,0,0)"/>
<path style="fill:none;stroke-width:0.002;stroke-linecap:butt;stroke-linejoin:miter;stroke:rgb(36.9%,4.1%,16.6%);stroke-opacity:1;stroke-miterlimit:10;" d="M 0.776 0.509 L 0.074 0.05 " transform="matrix(500,0,0,500,0,0)"/>
<path style="fill:none;stroke-width:0.002;stroke-linecap:butt;stroke-linejoin:miter;stroke:rgb(89.6%,14.1%,45.5%);stroke-opacity:1;stroke-miterlimit:10;" d="M 0.496 0.369 L 0.912 0.604 " transform="matrix(500,0,0,500,0,0)"/>
<path style="fill:none;stroke-width:0.002;stroke-linecap:butt;stroke-linejoin:miter;stroke:rgb(82.2%,13.2%,40.8%);stroke-opacity:1;stroke-miterlimit:10;" d="M 0.881 0.74 L 0.02 0.516 " transform="matrix(500,0,0,500,0,0)"/>
<path style="fill:none;stroke-width:0.002;stroke-linecap:butt;stroke-linejoin:miter;stroke:rgb(85%,44.6%,42.3%);stroke-opacity:1;stroke-miterlimit:10;" d="M 0.274 0.125 L 0.124 0.26 " transform="matrix(500,0,0,500,0,0)"/>
<path style="fill:none;stroke-width:0.002;stroke-linecap:butt;stroke-linejoin:miter;stroke:rgb(4.1%,48.5%,70.7%);stroke-opacity:1;stroke-miterlimit:10;" d="M 0.094 0.894 L 0.761 0.959 " transform="matrix(500,0,0,500,0,0)"/>
<path style="fill:none;stroke-width:0.002;stroke-linecap:butt;stroke-linejoin:miter;stroke:rgb(84.6%,88.1%,17.8%);stroke-opacity:1;stroke-miterlimit:10;" d="M 0.854 0.849 L 0.041 0.538 " transform="matrix(500,0,0,500,0,0)"/>
<path style="fill:none;stroke-width:0.002;stroke-linecap:butt;stroke-linejoin:miter;stroke:rgb(57.5%,82.7%,79.9%);stroke-opacity:1;stroke-miterlimit:10;" d="M 0.178 0.681 L 0.013 0.499 " transform="matrix(500,0,0,500,0,0)"/>
<path style="fill:none;stroke-width:0.002;stroke-linecap:butt;stroke-linejoin:miter;stroke:rgb(18.4%,57.5%,6.5%);stroke-opacity:1;stroke-miterlimit:10;" d="M 0.042 0.205 L 0.949 0.009 " transform="matrix(500,0,0,500,0,0)"/>
<path style="fill:none;stroke-width:0.002;stroke-linecap:butt;stroke-linejoin:miter;stroke:rgb(17.5%,60.3%,22.6%);stroke-opacity:1;stroke-miterlimit:10;" d="M 0.487 0.319 L 0.478 0.246 " transform="matrix(500,0,0,500,0,0)"/>
</g>
</defs>
<g id="surface345">
<use xlink:href="#surface348"/>
</g>
</svg>
