<?xml version="1.0" encoding="UTF-8"?>
<svg xmlns="http://www.w3.org/2000/svg" xmlns:xlink="http://www.w3.org/1999/xlink" width="500pt" height="500pt" viewBox="0 0 500 500" version="1.1">
<defs>
<radialGradient id="radial0" gradientUnits="userSpaceOnUse" cx="0.5" cy="0.5" fx="0.5" fy="0.5" r="0.6" gradientTransform="matrix(500,0,0,500,0,0)">
<stop offset="0.466667" style="stop-color:rgb(52.4%,56.4%,58.2%);stop-opacity:1;"/>
<stop offset="0.6" style="stop-color:rgb(92.9%,76.2%,9.1%);stop-opacity:1;"/>
</radialGradient>
<clipPath id="clip1">
  <rect x="0" y="0" width="500" height="500"/>
</clipPath>
<g id="surface348" clip-path="url(#clip1)">
<rect x="0" y="0" width="500" height="500" style="fill:url(#radial0);stroke:none;"/>
<path style=" stroke:none;fill-rule:nonzero;fill:rgb(71.5%,14.3%,76.7%);fill-opacity:1;" d="M 43 25 C 43 34.941406 34.941406 43 25 43 C 15.058594 43 7 34.941406 7 25 C 7 15.058594 15.058594 7 25 7 C 34.941406 7 43 15.058594 43 25 "/>
<path style=" stroke:none;fill-rule:nonzero;fill:rgb(95.8%,69.3%,98.7%);fill-opacity:1;" d="M 81.5 25 C 81.5 28.589844 78.589844 31.5 75 31.5 C 71.410156 31.5 68.5 28.589844 68.5 25 C 68.5 21.410156 71.410156 18.5 75 18.5 C 78.589844 18.5 81.5 21.410156 81.5 25 "/>
<path style=" stroke:none;fill-rule:nonzero;fill:rgb(94%,73.2%,80.7%);fill-opacity:1;" d="M 133.5 25 C 133.5 29.695312 129.695312 33.5 125 33.5 C 120.304688 33.5 116.5 29.695312 116.5 25 C 116.5 20.304688 120.304688 16.5 125 16.5 C 129.695312 16.5 133.5 20.304688 133.5 25 "/>
<path style=" stroke:none;fill-rule:nonzero;fill:rgb(94.9%,93.5%,92.1%);fill-opacity:1;" d="M 190 25 C 190 33.285156 183.285156 40 175 40 C 166.714844 40 160 33.285156 160 25 C 160 16.714844 166.714844 10 175 10 C 183.285156 10 190 16.714844 190 25 "/>
<path style=" stroke:none;fill-rule:nonzero;fill:rgb(7.2%,71.6%,52.6%);fill-opacity:1;" d="M 231.5 25 C 231.5 28.589844 228.589844 31.5 225 31.5 C 221.410156 31.5 218.5 28.589844 218.5 25 C 218.5 21.410156 221.410156 18.5 225 18.5 C 228.589844 18.5 231.5 21.410156 231.5 25 "/>
<path style=" stroke:none;fill-rule:nonzero;fill:rgb(66.1%,54.1%,21.6%);fill-opacity:1;" d="M 288.5 25 C 288.5 32.457031 282.457031 38.5 275 38.5 C 267.542969 38.5 261.5 32.457031 261.5 25 C 261.5 17.542969 267.542969 11.5 275 11.5 C 282.457031 11.5 288.5 17.542969 288.5 25 "/>
<path style=" stroke:none;fill-rule:nonzero;fill:rgb(23.1%,42%,5.6%);fill-opacity:1;" d="M 337 25 C 337 31.628906 331.628906 37 325 37 C 318.371094 37 313 31.628906 313 25 C 313 18.371094 318.371094 13 325 13 C 331.628906 13 337 18.371094 337 25 "/>
<path style=" stroke:none;fill-rule:nonzero;fill:rgb(24.3%,60.5%,28.6%);fill-opacity:1;" d="M 395.5 25 C 395.5 36.320312 386.320312 45.5 375 45.5 C 363.679688 45.5 354.5 36.320312 354.5 25 C 354.5 13.679688 363.679688 4.5 375 4.5 C 386.320312 4.5 395.5 13.679688 395.5 25 "/>
<path style=" stroke:none;fill-rule:nonzero;fill:rgb(53.2%,40.9%,33.1%);fill-opacity:1;" d="M 443 25 C 443 34.941406 434.941406 43 425 43 C 415.058594 43 407 34.941406 407 25 C 407 15.058594 415.058594 7 425 7 C 434.941406 7 443 15.058594 443 25 "/>
<path style=" stroke:none;fill-rule:nonzero;fill:rgb(67.8%,72%,95.3%);fill-opacity:1;" d="M 494 25 C 494 35.492188 485.492188 44 475 44 C 464.507812 44 456 35.492188 456 25 C 456 14.507812 464.507812 6 475 6 C 485.492188 6 494 14.507812 494 25 "/>
<path style=" stroke:none;fill-rule:nonzero;fill:rgb(38.6%,0.4%,12.7%);fill-opacity:1;" d="M 486.5 75 C 486.5 81.351562 481.351562 86.5 475 86.5 C 468.648438 86.5 463.5 81.351562 463.5 75 C 463.5 68.648438 468.648438 63.5 475 63.5 C 481.351562 63.5 486.5 68.648438 486.5 75 "/>
<path style=" stroke:none;fill-rule:nonzero;fill:rgb(14.3%,45.4%,91.7%);fill-opacity:1;" d="M 433.5 75 C 433.5 79.695312 429.695312 83.5 425 83.5 C 420.304688 83.5 416.5 79.695312 416.5 75 C 416.5 70.304688 420.304688 66.5 425 66.5 C 429.695312 66.5 433.5 70.304688 433.5 75 "/>
<path style=" stroke:none;fill-rule:nonzero;fill:rgb(69.2%,63.8%,62.6%);fill-opacity:1;" d="M 389.5 75 C 389.5 83.007812 383.007812 89.5 375 89.5 C 366.992188 89.5 360.5 83.007812 360.5 75 C 360.5 66.992188 366.992188 60.5 375 60.5 C 383.007812 60.5 389.5 66.992188 389.5 75 "/>
<path style=" stroke:none;fill-rule:nonzero;fill:rgb(7.6%,9.7%,23%);fill-opacity:1;" d="M 345.5 75 C 345.5 86.320312 336.320312 95.5 325 95.5 C 313.679688 95.5 304.5 86.320312 304.5 75 C 304.5 63.679688 313.679688 54.5 325 54.5 C 336.320312 54.5 345.5 63.679688 345.5 75 "/>
<path style=" stroke:none;fill-rule:nonzero;fill:rgb(95%,5.1%,81.3%);fill-opacity:1;" d="M 291 75 C 291 83.835938 283.835938 91 275 91 C 266.164062 91 259 83.835938 259 75 C 259 66.164062 266.164062 59 275 59 C 283.835938 59 291 66.164062 291 75 "/>
<path style=" stroke:none;fill-rule:nonzero;fill:rgb(49.3%,6.4%,86.4%);fill-opacity:1;" d="M 241.5 75 C 241.5 84.113281 234.113281 91.5 225 91.5 C 215.886719 91.5 208.5 84.113281 208.5 75 C 208.5 65.886719 215.886719 58.5 225 58.5 C 234.113281 58.5 241.5 65.886719 241.5 75 "/>
<path style=" stroke:none;fill-rule:nonzero;fill:rgb(52.2%,52.8%,53%);fill-opacity:1;" d="M 190.5 75 C 190.5 83.558594 183.558594 90.5 175 90.5 C 166.441406 90.5 159.5 83.558594 159.5 75 C 159.5 66.441406 166.441406 59.5 175 59.5 C 183.558594 59.5 190.5 66.441406 190.5 75 "/>
<path style=" stroke:none;fill-rule:nonzero;fill:rgb(52.8%,17.3%,73.1%);fill-opacity:1;" d="M 140.5 75 C 140.5 83.558594 133.558594 90.5 125 90.5 C 116.441406 90.5 109.5 83.558594 109.5 75 C 109.5 66.441406 116.441406 59.5 125 59.5 C 133.558594 59.5 140.5 66.441406 140.5 75 "/>
<path style=" stroke:none;fill-rule:nonzero;fill:rgb(69.6%,23.5%,95%);fill-opacity:1;" d="M 82 75 C 82 78.867188 78.867188 82 75 82 C 71.132812 82 68 78.867188 68 75 C 68 71.132812 71.132812 68 75 68 C 78.867188 68 82 71.132812 82 75 "/>
<path style=" stroke:none;fill-rule:nonzero;fill:rgb(52.6%,28.7%,39.3%);fill-opacity:1;" d="M 37 75 C 37 81.628906 31.628906 87 25 87 C 18.371094 87 13 81.628906 13 75 C 13 68.371094 18.371094 63 25 63 C 31.628906 63 37 68.371094 37 75 "/>
<path style=" stroke:none;fill-rule:nonzero;fill:rgb(71.2%,5.4%,44.5%);fill-opacity:1;" d="M 33.5 125 C 33.5 129.695312 29.695312 133.5 25 133.5 C 20.304688 133.5 16.5 129.695312 16.5 125 C 16.5 120.304688 20.304688 116.5 25 116.5 C 29.695312 116.5 33.5 120.304688 33.5 125 "/>
<path style=" stroke:none;fill-rule:nonzero;fill:rgb(19%,11.3%,47.3%);fill-opacity:1;" d="M 91.5 125 C 91.5 134.113281 84.113281 141.5 75 141.5 C 65.886719 141.5 58.5 134.113281 58.5 125 C 58.5 115.886719 65.886719 108.5 75 108.5 C 84.113281 108.5 91.5 115.886719 91.5 125 "/>
<path style=" stroke:none;fill-rule:nonzero;fill:rgb(67.2%,43.4%,43.6%);fill-opacity:1;" d="M 137.5 125 C 137.5 131.902344 131.902344 137.5 125 137.5 C 118.097656 137.5 112.5 131.902344 112.5 125 C 112.5 118.097656 118.097656 112.5 125 112.5 C 131.902344 112.5 137.5 118.097656 137.5 125 "/>
<path style=" stroke:none;fill-rule:nonzero;fill:rgb(70.6%,40.1%,1.2%);fill-opacity:1;" d="M 180.5 125 C 180.5 128.039062 178.039062 130.5 175 130.5 C 171.960938 130.5 169.5 128.039062 169.5 125 C 169.5 121.960938 171.960938 119.5 175 119.5 C 178.039062 119.5 180.5 121.960938 180.5 125 "/>
<path style=" stroke:none;fill-rule:nonzero;fill:rgb(48.3%,23.8%,39.5%);fill-opacity:1;" d="M 235 125 C 235 130.523438 230.523438 135 225 135 C 219.476562 135 215 130.523438 215 125 C 215 119.476562 219.476562 115 225 115 C 230.523438 115 235 119.476562 235 125 "/>
<path style=" stroke:none;fill-rule:nonzero;fill:rgb(20.7%,46%,86.7%);fill-opacity:1;" d="M 297 125 C 297 137.148438 287.148438 147 275 147 C 262.851562 147 253 137.148438 253 125 C 253 112.851562 262.851562 103 275 103 C 287.148438 103 297 112.851562 297 125 "/>
<path style=" stroke:none;fill-rule:nonzero;fill:rgb(89.9%,58.4%,90.1%);fill-opacity:1;" d="M 334.5 125 C 334.5 130.246094 330.246094 134.5 325 134.5 C 319.753906 134.5 315.5 130.246094 315.5 125 C 315.5 119.753906 319.753906 115.5 325 115.5 C 330.246094 115.5 334.5 119.753906 334.5 125 "/>
<path style=" stroke:none;fill-rule:nonzero;fill:rgb(58.2%,40.9%,94.7%);fill-opacity:1;" d="M 383.5 125 C 383.5 129.695312 379.695312 133.5 375 133.5 C 370.304688 133.5 366.5 129.695312 366.5 125 C 366.5 120.304688 370.304688 116.5 375 116.5 C 379.695312 116.5 383.5 120.304688 383.5 125 "/>
<path style=" stroke:none;fill-rule:nonzero;fill:rgb(57.7%,0.8%,74.2%);fill-opacity:1;" d="M 439.5 125 C 439.5 133.007812 433.007812 139.5 425 139.5 C 416.992188 139.5 410.5 133.007812 410.5 125 C 410.5 116.992188 416.992188 110.5 425 110.5 C 433.007812 110.5 439.5 116.992188 439.5 125 "/>
<path style=" stroke:none;fill-rule:nonzero;fill:rgb(32.5%,20.5%,37.1%);fill-opacity:1;" d="M 492 125 C 492 134.390625 484.390625 142 475 142 C 465.609375 142 458 134.390625 458 125 C 458 115.609375 465.609375 108 475 108 C 484.390625 108 492 115.609375 492 125 "/>
<path style=" stroke:none;fill-rule:nonzero;fill:rgb(50.9%,21.3%,9.6%);fill-opacity:1;" d="M 493.5 175 C 493.5 185.21875 485.21875 193.5 475 193.5 C 464.78125 193.5 456.5 185.21875 456.5 175 C 456.5 164.78125 464.78125 156.5 475 156.5 C 485.21875 156.5 493.5 164.78125 493.5 175 "/>
<path style=" stroke:none;fill-rule:nonzero;fill:rgb(41.6%,81.4%,37.7%);fill-opacity:1;" d="M 435 175 C 435 180.523438 430.523438 185 425 185 C 419.476562 185 415 180.523438 415 175 C 415 169.476562 419.476562 165 425 165 C 430.523438 165 435 169.476562 435 175 "/>
<path style=" stroke:none;fill-rule:nonzero;fill:rgb(17.9%,89.4%,68.9%);fill-opacity:1;" d="M 385 175 C 385 180.523438 380.523438 185 375 185 C 369.476562 185 365 180.523438 365 175 C 365 169.476562 369.476562 165 375 165 C 380.523438 165 385 169.476562 385 175 "/>
<path style=" stroke:none;fill-rule:nonzero;fill:rgb(73.1%,37.3%,24.6%);fill-opacity:1;" d="M 339.5 175 C 339.5 183.007812 333.007812 189.5 325 189.5 C 316.992188 189.5 310.5 183.007812 310.5 175 C 310.5 166.992188 316.992188 160.5 325 160.5 C 333.007812 160.5 339.5 166.992188 339.5 175 "/>
<path style=" stroke:none;fill-rule:nonzero;fill:rgb(40.6%,61.5%,43.7%);fill-opacity:1;" d="M 299 175 C 299 188.253906 288.253906 199 275 199 C 261.746094 199 251 188.253906 251 175 C 251 161.746094 261.746094 151 275 151 C 288.253906 151 299 161.746094 299 175 "/>
<path style=" stroke:none;fill-rule:nonzero;fill:rgb(95.9%,9.4%,43%);fill-opacity:1;" d="M 232 175 C 232 178.867188 228.867188 182 225 182 C 221.132812 182 218 178.867188 218 175 C 218 171.132812 221.132812 168 225 168 C 228.867188 168 232 171.132812 232 175 "/>
<path style=" stroke:none;fill-rule:nonzero;fill:rgb(21.7%,44.8%,66.3%);fill-opacity:1;" d="M 195 175 C 195 186.046875 186.046875 195 175 195 C 163.953125 195 155 186.046875 155 175 C 155 163.953125 163.953125 155 175 155 C 186.046875 155 195 163.953125 195 175 "/>
<path style=" stroke:none;fill-rule:nonzero;fill:rgb(1.7%,71%,62.8%);fill-opacity:1;" d="M 131.5 175 C 131.5 178.589844 128.589844 181.5 125 181.5 C 121.410156 181.5 118.5 178.589844 118.5 175 C 118.5 171.410156 121.410156 168.5 125 168.5 C 128.589844 168.5 131.5 171.410156 131.5 175 "/>
<path style=" stroke:none;fill-rule:nonzero;fill:rgb(47.3%,62.6%,74.9%);fill-opacity:1;" d="M 81.5 175 C 81.5 178.589844 78.589844 181.5 75 181.5 C 71.410156 181.5 68.5 178.589844 68.5 175 C 68.5 171.410156 71.410156 168.5 75 168.5 C 78.589844 168.5 81.5 171.410156 81.5 175 "/>
<path style=" stroke:none;fill-rule:nonzero;fill:rgb(29.4%,34.4%,91.8%);fill-opacity:1;" d="M 48.5 175 C 48.5 187.980469 37.980469 198.5 25 198.5 C 12.019531 198.5 1.5 187.980469 1.5 175 C 1.5 162.019531 12.019531 151.5 25 151.5 C 37.980469 151.5 48.5 162.019531 48.5 175 "/>
<path style=" stroke:none;fill-rule:nonzero;fill:rgb(23.6%,85%,17.3%);fill-opacity:1;" d="M 34.5 225 C 34.5 230.246094 30.246094 234.5 25 234.5 C 19.753906 234.5 15.5 230.246094 15.5 225 C 15.5 219.753906 19.753906 215.5 25 215.5 C 30.246094 215.5 34.5 219.753906 34.5 225 "/>
<path style=" stroke:none;fill-rule:nonzero;fill:rgb(44.4%,40.8%,70%);fill-opacity:1;" d="M 89 225 C 89 232.730469 82.730469 239 75 239 C 67.269531 239 61 232.730469 61 225 C 61 217.269531 67.269531 211 75 211 C 82.730469 211 89 217.269531 89 225 "/>
<path style=" stroke:none;fill-rule:nonzero;fill:rgb(30.6%,3.7%,48.9%);fill-opacity:1;" d="M 146 225 C 146 236.597656 136.597656 246 125 246 C 113.402344 246 104 236.597656 104 225 C 104 213.402344 113.402344 204 125 204 C 136.597656 204 146 213.402344 146 225 "/>
<path style=" stroke:none;fill-rule:nonzero;fill:rgb(3.5%,40.1%,29.7%);fill-opacity:1;" d="M 191.5 225 C 191.5 234.113281 184.113281 241.5 175 241.5 C 165.886719 241.5 158.5 234.113281 158.5 225 C 158.5 215.886719 165.886719 208.5 175 208.5 C 184.113281 208.5 191.5 215.886719 191.5 225 "/>
<path style=" stroke:none;fill-rule:nonzero;fill:rgb(12.5%,62.2%,83.1%);fill-opacity:1;" d="M 246.5 225 C 246.5 236.875 236.875 246.5 225 246.5 C 213.125 246.5 203.5 236.875 203.5 225 C 203.5 213.125 213.125 203.5 225 203.5 C 236.875 203.5 246.5 213.125 246.5 225 "/>
<path style=" stroke:none;fill-rule:nonzero;fill:rgb(3.1%,43.8%,54.1%);fill-opacity:1;" d="M 287 225 C 287 231.628906 281.628906 237 275 237 C 268.371094 237 263 231.628906 263 225 C 263 218.371094 268.371094 213 275 213 C 281.628906 213 287 218.371094 287 225 "/>
<path style=" stroke:none;fill-rule:nonzero;fill:rgb(45.3%,9.5%,88.4%);fill-opacity:1;" d="M 336.5 225 C 336.5 231.351562 331.351562 236.5 325 236.5 C 318.648438 236.5 313.5 231.351562 313.5 225 C 313.5 218.648438 318.648438 213.5 325 213.5 C 331.351562 213.5 336.5 218.648438 336.5 225 "/>
<path style=" stroke:none;fill-rule:nonzero;fill:rgb(77.8%,98.4%,2.5%);fill-opacity:1;" d="M 400 225 C 400 238.808594 388.808594 250 375 250 C 361.191406 250 350 238.808594 350 225 C 350 211.191406 361.191406 200 375 200 C 388.808594 200 400 211.191406 400 225 "/>
<path style=" stroke:none;fill-rule:nonzero;fill:rgb(19.5%,57.8%,58.1%);fill-opacity:1;" d="M 440.5 225 C 440.5 233.558594 433.558594 240.5 425 240.5 C 416.441406 240.5 409.5 233.558594 409.5 225 C 409.5 216.441406 416.441406 209.5 425 209.5 C 433.558594 209.5 440.5 216.441406 440.5 225 "/>
<path style=" stroke:none;fill-rule:nonzero;fill:rgb(54.9%,6%,36%);fill-opacity:1;" d="M 492 225 C 492 234.390625 484.390625 242 475 242 C 465.609375 242 458 234.390625 458 225 C 458 215.609375 465.609375 208 475 208 C 484.390625 208 492 215.609375 492 225 "/>
<path style=" stroke:none;fill-rule:nonzero;fill:rgb(88.9%,48.9%,31.9%);fill-opacity:1;" d="M 482.5 275 C 482.5 279.140625 479.140625 282.5 475 282.5 C 470.859375 282.5 467.5 279.140625 467.5 275 C 467.5 270.859375 470.859375 267.5 475 267.5 C 479.140625 267.5 482.5 270.859375 482.5 275 "/>
<path style=" stroke:none;fill-rule:nonzero;fill:rgb(55.8%,92%,28.5%);fill-opacity:1;" d="M 446 275 C 446 286.597656 436.597656 296 425 296 C 413.402344 296 404 286.597656 404 275 C 404 263.402344 413.402344 254 425 254 C 436.597656 254 446 263.402344 446 275 "/>
<path style=" stroke:none;fill-rule:nonzero;fill:rgb(71.2%,94.5%,53.5%);fill-opacity:1;" d="M 393.5 275 C 393.5 285.21875 385.21875 293.5 375 293.5 C 364.78125 293.5 356.5 285.21875 356.5 275 C 356.5 264.78125 364.78125 256.5 375 256.5 C 385.21875 256.5 393.5 264.78125 393.5 275 "/>
<path style=" stroke:none;fill-rule:nonzero;fill:rgb(15.9%,33.6%,47.4%);fill-opacity:1;" d="M 340 275 C 340 283.285156 333.285156 290 325 290 C 316.714844 290 310 283.285156 310 275 C 310 266.714844 316.714844 260 325 260 C 333.285156 260 340 266.714844 340 275 "/>
<path style=" stroke:none;fill-rule:nonzero;fill:rgb(42.6%,36.8%,48%);fill-opacity:1;" d="M 289 275 C 289 282.730469 282.730469 289 275 289 C 267.269531 289 261 282.730469 261 275 C 261 267.269531 267.269531 261 275 261 C 282.730469 261 289 267.269531 289 275 "/>
<path style=" stroke:none;fill-rule:nonzero;fill:rgb(38%,26.9%,18.6%);fill-opacity:1;" d="M 250 275 C 250 288.808594 238.808594 300 225 300 C 211.191406 300 200 288.808594 200 275 C 200 261.191406 211.191406 250 225 250 C 238.808594 250 250 261.191406 250 275 "/>
<path style=" stroke:none;fill-rule:nonzero;fill:rgb(63.4%,71.6%,38.1%);fill-opacity:1;" d="M 200 275 C 200 288.808594 188.808594 300 175 300 C 161.191406 300 150 288.808594 150 275 C 150 261.191406 161.191406 250 175 250 C 188.808594 250 200 261.191406 200 275 "/>
<path style=" stroke:none;fill-rule:nonzero;fill:rgb(44.3%,62.8%,75.8%);fill-opacity:1;" d="M 132 275 C 132 278.867188 128.867188 282 125 282 C 121.132812 282 118 278.867188 118 275 C 118 271.132812 121.132812 268 125 268 C 128.867188 268 132 271.132812 132 275 "/>
<path style=" stroke:none;fill-rule:nonzero;fill:rgb(58%,16.6%,81.9%);fill-opacity:1;" d="M 100 275 C 100 288.808594 88.808594 300 75 300 C 61.191406 300 50 288.808594 50 275 C 50 261.191406 61.191406 250 75 250 C 88.808594 250 100 261.191406 100 275 "/>
<path style=" stroke:none;fill-rule:nonzero;fill:rgb(51.9%,76.2%,96.4%);fill-opacity:1;" d="M 34 275 C 34 279.96875 29.96875 284 25 284 C 20.03125 284 16 279.96875 16 275 C 16 270.03125 20.03125 266 25 266 C 29.96875 266 34 270.03125 34 275 "/>
<path style=" stroke:none;fill-rule:nonzero;fill:rgb(34.2%,40.4%,63.5%);fill-opacity:1;" d="M 35.5 325 C 35.5 330.800781 30.800781 335.5 25 335.5 C 19.199219 335.5 14.5 330.800781 14.5 325 C 14.5 319.199219 19.199219 314.5 25 314.5 C 30.800781 314.5 35.5 319.199219 35.5 325 "/>
<path style=" stroke:none;fill-rule:nonzero;fill:rgb(85.3%,41.6%,11.9%);fill-opacity:1;" d="M 85 325 C 85 330.523438 80.523438 335 75 335 C 69.476562 335 65 330.523438 65 325 C 65 319.476562 69.476562 315 75 315 C 80.523438 315 85 319.476562 85 325 "/>
<path style=" stroke:none;fill-rule:nonzero;fill:rgb(54.1%,62.6%,92.9%);fill-opacity:1;" d="M 148 325 C 148 337.703125 137.703125 348 125 348 C 112.296875 348 102 337.703125 102 325 C 102 312.296875 112.296875 302 125 302 C 137.703125 302 148 312.296875 148 325 "/>
<path style=" stroke:none;fill-rule:nonzero;fill:rgb(58%,12.2%,22%);fill-opacity:1;" d="M 194 325 C 194 335.492188 185.492188 344 175 344 C 164.507812 344 156 335.492188 156 325 C 156 314.507812 164.507812 306 175 306 C 185.492188 306 194 314.507812 194 325 "/>
<path style=" stroke:none;fill-rule:nonzero;fill:rgb(14.9%,86.9%,76.1%);fill-opacity:1;" d="M 231 325 C 231 328.3125 228.3125 331 225 331 C 221.6875 331 219 328.3125 219 325 C 219 321.6875 221.6875 319 225 319 C 228.3125 319 231 321.6875 231 325 "/>
<path style=" stroke:none;fill-rule:nonzero;fill:rgb(78.1%,61.9%,14.8%);fill-opacity:1;" d="M 285.5 325 C 285.5 330.800781 280.800781 335.5 275 335.5 C 269.199219 335.5 264.5 330.800781 264.5 325 C 264.5 319.199219 269.199219 314.5 275 314.5 C 280.800781 314.5 285.5 319.199219 285.5 325 "/>
<path style=" stroke:none;fill-rule:nonzero;fill:rgb(32.8%,59.3%,41.3%);fill-opacity:1;" d="M 342.5 325 C 342.5 334.664062 334.664062 342.5 325 342.5 C 315.335938 342.5 307.5 334.664062 307.5 325 C 307.5 315.335938 315.335938 307.5 325 307.5 C 334.664062 307.5 342.5 315.335938 342.5 325 "/>
<path style=" stroke:none;fill-rule:nonzero;fill:rgb(93.7%,53.8%,14.7%);fill-opacity:1;" d="M 396 325 C 396 336.597656 386.597656 346 375 346 C 363.402344 346 354 336.597656 354 325 C 354 313.402344 363.402344 304 375 304 C 386.597656 304 396 313.402344 396 325 "/>
<path style=" stroke:none;fill-rule:nonzero;fill:rgb(66.8%,43.5%,56.8%);fill-opacity:1;" d="M 441 325 C 441 333.835938 433.835938 341 425 341 C 416.164062 341 409 333.835938 409 325 C 409 316.164062 416.164062 309 425 309 C 433.835938 309 441 316.164062 441 325 "/>
<path style=" stroke:none;fill-rule:nonzero;fill:rgb(95.1%,38.5%,50.8%);fill-opacity:1;" d="M 493 325 C 493 334.941406 484.941406 343 475 343 C 465.058594 343 457 334.941406 457 325 C 457 315.058594 465.058594 307 475 307 C 484.941406 307 493 315.058594 493 325 "/>
<path style=" stroke:none;fill-rule:nonzero;fill:rgb(0.4%,86.3%,34.3%);fill-opacity:1;" d="M 480 375 C 480 381.667969 470 381.667969 470 375 C 470 368.332031 480 368.332031 480 375 "/>
<path style=" stroke:none;fill-rule:nonzero;fill:rgb(39.5%,65.7%,45.5%);fill-opacity:1;" d="M 448 375 C 448 387.703125 437.703125 398 425 398 C 412.296875 398 402 387.703125 402 375 C 402 362.296875 412.296875 352 425 352 C 437.703125 352 448 362.296875 448 375 "/>
<path style=" stroke:none;fill-rule:nonzero;fill:rgb(32.2%,25.4%,84.1%);fill-opacity:1;" d="M 385.5 375 C 385.5 380.800781 380.800781 385.5 375 385.5 C 369.199219 385.5 364.5 380.800781 364.5 375 C 364.5 369.199219 369.199219 364.5 375 364.5 C 380.800781 364.5 385.5 369.199219 385.5 375 "/>
<path style=" stroke:none;fill-rule:nonzero;fill:rgb(58.9%,28.7%,42.8%);fill-opacity:1;" d="M 336.5 375 C 336.5 381.351562 331.351562 386.5 325 386.5 C 318.648438 386.5 313.5 381.351562 313.5 375 C 313.5 368.648438 318.648438 363.5 325 363.5 C 331.351562 363.5 336.5 368.648438 336.5 375 "/>
<path style=" stroke:none;fill-rule:nonzero;fill:rgb(2.5%,73.8%,17.6%);fill-opacity:1;" d="M 287 375 C 287 381.628906 281.628906 387 275 387 C 268.371094 387 263 381.628906 263 375 C 263 368.371094 268.371094 363 275 363 C 281.628906 363 287 368.371094 287 375 "/>
<path style=" stroke:none;fill-rule:nonzero;fill:rgb(33.1%,51.2%,75.7%);fill-opacity:1;" d="M 250 375 C 250 388.808594 238.808594 400 225 400 C 211.191406 400 200 388.808594 200 375 C 200 361.191406 211.191406 350 225 350 C 238.808594 350 250 361.191406 250 375 "/>
<path style=" stroke:none;fill-rule:nonzero;fill:rgb(28.2%,76.5%,70.5%);fill-opacity:1;" d="M 194.5 375 C 194.5 385.769531 185.769531 394.5 175 394.5 C 164.230469 394.5 155.5 385.769531 155.5 375 C 155.5 364.230469 164.230469 355.5 175 355.5 C 185.769531 355.5 194.5 364.230469 194.5 375 "/>
<path style=" stroke:none;fill-rule:nonzero;fill:rgb(21%,0.9%,8.4%);fill-opacity:1;" d="M 139.5 375 C 139.5 383.007812 133.007812 389.5 125 389.5 C 116.992188 389.5 110.5 383.007812 110.5 375 C 110.5 366.992188 116.992188 360.5 125 360.5 C 133.007812 360.5 139.5 366.992188 139.5 375 "/>
<path style=" stroke:none;fill-rule:nonzero;fill:rgb(32.3%,60.5%,24.2%);fill-opacity:1;" d="M 96.5 375 C 96.5 386.875 86.875 396.5 75 396.5 C 63.125 396.5 53.5 386.875 53.5 375 C 53.5 363.125 63.125 353.5 75 353.5 C 86.875 353.5 96.5 363.125 96.5 375 "/>
<path style=" stroke:none;fill-rule:nonzero;fill:rgb(12.1%,31.7%,51.1%);fill-opacity:1;" d="M 49.5 375 C 49.5 388.53125 38.53125 399.5 25 399.5 C 11.46875 399.5 0.5 388.53125 0.5 375 C 0.5 361.46875 11.46875 350.5 25 350.5 C 38.53125 350.5 49.5 361.46875 49.5 375 "/>
<path style=" stroke:none;fill-rule:nonzero;fill:rgb(48%,81.9%,13.8%);fill-opacity:1;" d="M 39 425 C 39 432.730469 32.730469 439 25 439 C 17.269531 439 11 432.730469 11 425 C 11 417.269531 17.269531 411 25 411 C 32.730469 411 39 417.269531 39 425 "/>
<path style=" stroke:none;fill-rule:nonzero;fill:rgb(39.2%,83.2%,30.3%);fill-opacity:1;" d="M 83.5 425 C 83.5 429.695312 79.695312 433.5 75 433.5 C 70.304688 433.5 66.5 429.695312 66.5 425 C 66.5 420.304688 70.304688 416.5 75 416.5 C 79.695312 416.5 83.5 420.304688 83.5 425 "/>
<path style=" stroke:none;fill-rule:nonzero;fill:rgb(49.4%,31.8%,79.3%);fill-opacity:1;" d="M 132 425 C 132 428.867188 128.867188 432 125 432 C 121.132812 432 118 428.867188 118 425 C 118 421.132812 121.132812 418 125 418 C 128.867188 418 132 421.132812 132 425 "/>
<path style=" stroke:none;fill-rule:nonzero;fill:rgb(70.7%,22%,34.3%);fill-opacity:1;" d="M 185.5 425 C 185.5 430.800781 180.800781 435.5 175 435.5 C 169.199219 435.5 164.5 430.800781 164.5 425 C 164.5 419.199219 169.199219 414.5 175 414.5 C 180.800781 414.5 185.5 419.199219 185.5 425 "/>
<path style=" stroke:none;fill-rule:nonzero;fill:rgb(37.4%,40.6%,0.6%);fill-opacity:1;" d="M 242.5 425 C 242.5 434.664062 234.664062 442.5 225 442.5 C 215.335938 442.5 207.5 434.664062 207.5 425 C 207.5 415.335938 215.335938 407.5 225 407.5 C 234.664062 407.5 242.5 415.335938 242.5 425 "/>
<path style=" stroke:none;fill-rule:nonzero;fill:rgb(65.7%,7.9%,57.4%);fill-opacity:1;" d="M 295.5 425 C 295.5 436.320312 286.320312 445.5 275 445.5 C 263.679688 445.5 254.5 436.320312 254.5 425 C 254.5 413.679688 263.679688 404.5 275 404.5 C 286.320312 404.5 295.5 413.679688 295.5 425 "/>
<path style=" stroke:none;fill-rule:nonzero;fill:rgb(28.1%,44.4%,63.9%);fill-opacity:1;" d="M 345 425 C 345 436.046875 336.046875 445 325 445 C 313.953125 445 305 436.046875 305 425 C 305 413.953125 313.953125 405 325 405 C 336.046875 405 345 413.953125 345 425 "/>
<path style=" stroke:none;fill-rule:nonzero;fill:rgb(87.9%,39.4%,28.7%);fill-opacity:1;" d="M 387 425 C 387 431.628906 381.628906 437 375 437 C 368.371094 437 363 431.628906 363 425 C 363 418.371094 368.371094 413 375 413 C 381.628906 413 387 418.371094 387 425 "/>
<path style=" stroke:none;fill-rule:nonzero;fill:rgb(98.2%,93.3%,76.8%);fill-opacity:1;" d="M 448.5 425 C 448.5 437.980469 437.980469 448.5 425 448.5 C 412.019531 448.5 401.5 437.980469 401.5 425 C 401.5 412.019531 412.019531 401.5 425 401.5 C 437.980469 401.5 448.5 412.019531 448.5 425 "/>
<path style=" stroke:none;fill-rule:nonzero;fill:rgb(22.6%,9.8%,22.8%);fill-opacity:1;" d="M 498.5 425 C 498.5 437.980469 487.980469 448.5 475 448.5 C 462.019531 448.5 451.5 437.980469 451.5 425 C 451.5 412.019531 462.019531 401.5 475 401.5 C 487.980469 401.5 498.5 412.019531 498.5 425 "/>
<path style=" stroke:none;fill-rule:nonzero;fill:rgb(11%,61.1%,24.6%);fill-opacity:1;" d="M 492.5 475 C 492.5 484.664062 484.664062 492.5 475 492.5 C 465.335938 492.5 457.5 484.664062 457.5 475 C 457.5 465.335938 465.335938 457.5 475 457.5 C 484.664062 457.5 492.5 465.335938 492.5 475 "/>
<path style=" stroke:none;fill-rule:nonzero;fill:rgb(74.1%,37.6%,89.1%);fill-opacity:1;" d="M 444.5 475 C 444.5 485.769531 435.769531 494.5 425 494.5 C 414.230469 494.5 405.5 485.769531 405.5 475 C 405.5 464.230469 414.230469 455.5 425 455.5 C 435.769531 455.5 444.5 464.230469 444.5 475 "/>
<path style=" stroke:none;fill-rule:nonzero;fill:rgb(3.9%,52.3%,88.7%);fill-opacity:1;" d="M 382.5 475 C 382.5 479.140625 379.140625 482.5 375 482.5 C 370.859375 482.5 367.5 479.140625 367.5 475 C 367.5 470.859375 370.859375 467.5 375 467.5 C 379.140625 467.5 382.5 470.859375 382.5 475 "/>
<path style=" stroke:none;fill-rule:nonzero;fill:rgb(20%,77.1%,46.1%);fill-opacity:1;" d="M 343.5 475 C 343.5 485.21875 335.21875 493.5 325 493.5 C 314.78125 493.5 306.5 485.21875 306.5 475 C 306.5 464.78125 314.78125 456.5 325 456.5 C 335.21875 456.5 343.5 464.78125 343.5 475 "/>
<path style=" stroke:none;fill-rule:nonzero;fill:rgb(62.9%,25.1%,37.9%);fill-opacity:1;" d="M 299 475 C 299 488.253906 288.253906 499 275 499 C 261.746094 499 251 488.253906 251 475 C 251 461.746094 261.746094 451 275 451 C 288.253906 451 299 461.746094 299 475 "/>
<path style=" stroke:none;fill-rule:nonzero;fill:rgb(10.4%,10.6%,49.2%);fill-opacity:1;" d="M 236.5 475 C 236.5 481.351562 231.351562 486.5 225 486.5 C 218.648438 486.5 213.5 481.351562 213.5 475 C 213.5 468.648438 218.648438 463.5 225 463.5 C 231.351562 463.5 236.5 468.648438 236.5 475 "/>
<path style=" stroke:none;fill-rule:nonzero;fill:rgb(81.2%,84.4%,96%);fill-opacity:1;" d="M 193.5 475 C 193.5 485.21875 185.21875 493.5 175 493.5 C 164.78125 493.5 156.5 485.21875 156.5 475 C 156.5 464.78125 164.78125 456.5 175 456.5 C 185.21875 456.5 193.5 464.78125 193.5 475 "/>
<path style=" stroke:none;fill-rule:nonzero;fill:rgb(43.6%,46%,39.2%);fill-opacity:1;" d="M 148.5 475 C 148.5 487.980469 137.980469 498.5 125 498.5 C 112.019531 498.5 101.5 487.980469 101.5 475 C 101.5 462.019531 112.019531 451.5 125 451.5 C 137.980469 451.5 148.5 462.019531 148.5 475 "/>
<path style=" stroke:none;fill-rule:nonzero;fill:rgb(29.5%,88.3%,17.5%);fill-opacity:1;" d="M 96 475 C 96 486.597656 86.597656 496 75 496 C 63.402344 496 54 486.597656 54 475 C 54 463.402344 63.402344 454 75 454 C 86.597656 454 96 463.402344 96 475 "/>
<path style=" stroke:none;fill-rule:nonzero;fill:rgb(76.7%,59.5%,2.4%);fill-opacity:1;" d="M 37.5 475 C 37.5 481.902344 31.902344 487.5 25 487.5 C 18.097656 487.5 12.5 481.902344 12.5 475 C 12.5 468.097656 18.097656 462.5 25 462.5 C 31.902344 462.5 37.5 468.097656 37.5 475 "/>
<path style="fill:none;stroke-width:0.01;stroke-linecap:butt;stroke-linejoin:miter;stroke:rgb(81.2%,8.2%,13.6%);stroke-opacity:1;stroke-miterlimit:10;" d="M 0.05 0.05 C 0.15 0.05 0.25 0.05 0.35 0.05 " transform="matrix(500,0,0,500,0,0)"/>
<path style="fill:none;stroke-width:0.01;stroke-linecap:butt;stroke-linejoin:miter;stroke:rgb(5.9%,7.1%,74.6%);stroke-opacity:1;stroke-miterlimit:10;" d="M 0.35 0.05 C 0.45 0.05 0.55 0.05 0.65 0.05 " transform="matrix(500,0,0,500,0,0)"/>
<path style="fill:none;stroke-width:0.01;stroke-linecap:butt;stroke-linejoin:miter;stroke:rgb(91.7%,97.6%,61.3%);stroke-opacity:1;stroke-miterlimit:10;" d="M 0.65 0.05 C 0.75 0.05 0.85 0.05 0.95 0.05 " transform="matrix(500,0,0,500,0,0)"/>
<path style="fill:none;stroke-width:0.01;stroke-linecap:butt;stroke-linejoin:miter;stroke:rgb(42.9%,67.9%,16.7%);stroke-opacity:1;stroke-miterlimit:10;" d="M 0.95 0.05 C 0.95 0.15 0.85 0.15 0.75 0.15 " transform="matrix(500,0,0,500,0,0)"/>
<path style="fill:none;stroke-width:0.01;stroke-linecap:butt;stroke-linejoin:miter;stroke:rgb(77%,48.6%,4.8%);stroke-opacity:1;stroke-miterlimit:10;" d="M 0.75 0.15 C 0.65 0.15 0.55 0.15 0.45 0.15 " transform="matrix(500,0,0,500,0,0)"/>
<path style="fill:none;stroke-width:0.01;stroke-linecap:butt;stroke-linejoin:miter;stroke:rgb(83.8%,24.1%,31%);stroke-opacity:1;stroke-miterlimit:10;" d="M 0.45 0.15 C 0.35 0.15 0.25 0.15 0.15 0.15 " transform="matrix(500,0,0,500,0,0)"/>
<path style="fill:none;stroke-width:0.01;stroke-linecap:butt;stroke-linejoin:miter;stroke:rgb(66.1%,90.8%,75%);stroke-opacity:1;stroke-miterlimit:10;" d="M 0.15 0.15 C 0.05 0.15 0.05 0.25 0.15 0.25 " transform="matrix(500,0,0,500,0,0)"/>
<path style="fill:none;stroke-width:0.01;stroke-linecap:butt;stroke-linejoin:miter;stroke:rgb(50.3%,46.4%,40.4%);stroke-opacity:1;stroke-miterlimit:10;" d="M 0.15 0.25 C 0.25 0.25 0.35 0.25 0.45 0.25 " transform="matrix(500,0,0,500,0,0)"/>
<path style="fill:none;stroke-width:0.01;stroke-linecap:butt;stroke-linejoin:miter;stroke:rgb(6%,47.9%,18.5%);stroke-opacity:1;stroke-miterlimit:10;" d="M 0.45 0.25 C 0.55 0.25 0.65 0.25 0.75 0.25 " transform="matrix(500,0,0,500,0,0)"/>
<path style="fill:none;stroke-width:0.01;stroke-linecap:butt;stroke-linejoin:miter;stroke:rgb(97.6%,51.8%,16.8%);stroke-opacity:1;stroke-miterlimit:10;" d="M 0.75 0.25 C 0.85 0.25 0.95 0.25 0.95 0.35 " transform="matrix(500,0,0,500,0,0)"/>
<path style="fill:none;stroke-width:0.01;stroke-linecap:butt;stroke-linejoin:miter;stroke:rgb(63.7%,2.1%,32.2%);stroke-opacity:1;stroke-miterlimit:10;" d="M 0.95 0.35 C 0.85 0.35 0.75 0.35 0.65 0.35 " transform="matrix(500,0,0,500,0,0)"/>
<path style="fill:none;stroke-width:0.01;stroke-linecap:butt;stroke-linejoin:miter;stroke:rgb(44.4%,51.9%,79%);stroke-opacity:1;stroke-miterlimit:10;" d="M 0.65 0.35 C 0.55 0.35 0.45 0.35 0.35 0.35 " transform="matrix(500,0,0,500,0,0)"/>
<path style="fill:none;stroke-width:0.01;stroke-linecap:butt;stroke-linejoin:miter;stroke:rgb(27.3%,19.3%,96.9%);stroke-opacity:1;stroke-miterlimit:10;" d="M 0.35 0.35 C 0.25 0.35 0.15 0.35 0.05 0.35 " transform="matrix(500,0,0,500,0,0)"/>
<path style="fill:none;stroke-width:0.01;stroke-linecap:butt;stroke-linejoin:miter;stroke:rgb(15.7%,62.2%,49.8%);stroke-opacity:1;stroke-miterlimit:10;" d="M 0.05 0.35 C 0.05 0.45 0.15 0.45 0.25 0.45 " transform="matrix(500,0,0,500,0,0)"/>
<path style="fill:none;stroke-width:0.01;stroke-linecap:butt;stroke-linejoin:miter;stroke:rgb(23.9%,65.8%,86.6%);stroke-opacity:1;stroke-miterlimit:10;" d="M 0.25 0.45 C 0.35 0.45 0.45 0.45 0.55 0.45 " transform="matrix(500,0,0,500,0,0)"/>
<path style="fill:none;stroke-width:0.01;stroke-linecap:butt;stroke-linejoin:miter;stroke:rgb(99.6%,68.8%,60.2%);stroke-opacity:1;stroke-miterlimit:10;" d="M 0.55 0.45 C 0.65 0.45 0.75 0.45 0.85 0.45 " transform="matrix(500,0,0,500,0,0)"/>
<path style="fill:none;stroke-width:0.01;stroke-linecap:butt;stroke-linejoin:miter;stroke:rgb(47.5%,89.1%,19.3%);stroke-opacity:1;stroke-miterlimit:10;" d="M 0.85 0.45 C 0.95 0.45 0.95 0.55 0.85 0.55 " transform="matrix(500,0,0,500,0,0)"/>
<path style="fill:none;stroke-width:0.01;stroke-linecap:butt;stroke-linejoin:miter;stroke:rgb(65.4%,33.9%,74.2%);stroke-opacity:1;stroke-miterlimit:10;" d="M 0.85 0.55 C 0.75 0.55 0.65 0.55 0.55 0.55 " transform="matrix(500,0,0,500,0,0)"/>
<path style="fill:none;stroke-width:0.01;stroke-linecap:butt;stroke-linejoin:miter;stroke:rgb(23.5%,2.4%,21.2%);stroke-opacity:1;stroke-miterlimit:10;" d="M 0.55 0.55 C 0.45 0.55 0.35 0.55 0.25 0.55 " transform="matrix(500,0,0,500,0,0)"/>
<path style="fill:none;stroke-width:0.01;stroke-linecap:butt;stroke-linejoin:miter;stroke:rgb(43.7%,94.8%,12.5%);stroke-opacity:1;stroke-miterlimit:10;" d="M 0.25 0.55 C 0.15 0.55 0.05 0.55 0.05 0.65 " transform="matrix(500,0,0,500,0,0)"/>
<path style="fill:none;stroke-width:0.01;stroke-linecap:butt;stroke-linejoin:miter;stroke:rgb(29.3%,72.6%,42.3%);stroke-opacity:1;stroke-miterlimit:10;" d="M 0.05 0.65 C 0.15 0.65 0.25 0.65 0.35 0.65 " transform="matrix(500,0,0,500,0,0)"/>
<path style="fill:none;stroke-width:0.01;stroke-linecap:butt;stroke-linejoin:miter;stroke:rgb(12%,68%,48.2%);stroke-opacity:1;stroke-miterlimit:10;" d="M 0.35 0.65 C 0.45 0.65 0.55 0.65 0.65 0.65 " transform="matrix(500,0,0,500,0,0)"/>
<path style="fill:none;stroke-width:0.01;stroke-linecap:butt;stroke-linejoin:miter;stroke:rgb(28.5%,11.5%,30.1%);stroke-opacity:1;stroke-miterlimit:10;" d="M 0.65 0.65 C 0.75 0.65 0.85 0.65 0.95 0.65 " transform="matrix(500,0,0,500,0,0)"/>
<path style="fill:none;stroke-width:0.01;stroke-linecap:butt;stroke-linejoin:miter;stroke:rgb(55.3%,61.6%,13.5%);stroke-opacity:1;stroke-miterlimit:10;" d="M 0.95 0.65 C 0.95 0.75 0.85 0.75 0.75 0.75 " transform="matrix(500,0,0,500,0,0)"/>
<path style="fill:none;stroke-width:0.01;stroke-linecap:butt;stroke-linejoin:miter;stroke:rgb(76.8%,92.3%,75.3%);stroke-opacity:1;stroke-miterlimit:10;" d="M 0.75 0.75 C 0.65 0.75 0.55 0.75 0.45 0.75 " transform="matrix(500,0,0,500,0,0)"/>
<path style="fill:none;stroke-width:0.01;stroke-linecap:butt;stroke-linejoin:miter;stroke:rgb(14.4%,40.9%,48%);stroke-opacity:1;stroke-miterlimit:10;" d="M 0.45 0.75 C 0.35 0.75 0.25 0.75 0.15 0.75 " transform="matrix(500,0,0,500,0,0)"/>
<path style="fill:none;stroke-width:0.01;stroke-linecap:butt;stroke-linejoin:miter;stroke:rgb(19.1%,75.1%,47.9%);stroke-opacity:1;stroke-miterlimit:10;" d="M 0.15 0.75 C 0.05 0.75 0.05 0.85 0.15 0.85 " transform="matrix(500,0,0,500,0,0)"/>
<path style="fill:none;stroke-width:0.01;stroke-linecap:butt;stroke-linejoin:miter;stroke:rgb(61.6%,66.6%,12.3%);stroke-opacity:1;stroke-miterlimit:10;" d="M 0.15 0.85 C 0.25 0.85 0.35 0.85 0.45 0.85 " transform="matrix(500,0,0,500,0,0)"/>
<path style="fill:none;stroke-width:0.01;stroke-linecap:butt;stroke-linejoin:miter;stroke:rgb(13.9%,28.6%,55.3%);stroke-opacity:1;stroke-miterlimit:10;" d="M 0.45 0.85 C 0.55 0.85 0.65 0.85 0.75 0.85 " transform="matrix(500,0,0,500,0,0)"/>
<path style="fill:none;stroke-width:0.01;stroke-linecap:butt;stroke-linejoin:miter;stroke:rgb(30.1%,6.7%,75.5%);stroke-opacity:1;stroke-miterlimit:10;" d="M 0.75 0.85 C 0.85 0.85 0.95 0.85 0.95 0.95 " transform="matrix(500,0,0,500,0,0)"/>
<path style="fill:none;stroke-width:0.01;stroke-linecap:butt;stroke-linejoin:miter;stroke:rgb(58.1%,97.7%,9.5%);stroke-opacity:1;stroke-miterlimit:10;" d="M 0.95 0.95 C 0.85 0.95 0.75 0.95 0.65 0.95 " transform="matrix(500,0,0,500,0,0)"/>
<path style="fill:none;stroke-width:0.01;stroke-linecap:butt;stroke-linejoin:miter;stroke:rgb(18.4%,51%,99%);stroke-opacity:1;stroke-miterlimit:10;" d="M 0.65 0.95 C 0.55 0.95 0.45 0.95 0.35 0.95 " transform="matrix(500,0,0,500,0,0)"/>
<path style="fill:none;stroke-width:0.01;stroke-linecap:butt;stroke-linejoin:miter;stroke:rgb(17.9%,99.8%,31.4%);stroke-opacity:1;stroke-miterlimit:10;" d="M 0.35 0.95 C 0.25 0.95 0.15 0.95 0.05 0.95 " transform="matrix(500,0,0,500,0,0)"/>
<path style=" stroke:none;fill-rule:nonzero;fill:rgb(55%,85.9%,31.2%);fill-opacity:0.5;" d="M 52.5 14 L -5 22 L 0 88 L 52.5 14 "/>
<path style=" stroke:none;fill-rule:nonzero;fill:rgb(26%,98.2%,28.2%);fill-opacity:0.5;" d="M 143 6 L 218 -7.5 L 219 66 L 143 6 "/>
<path style=" stroke:none;fill-rule:nonzero;fill:rgb(10.6%,10.7%,9.4%);fill-opacity:0.5;" d="M 268 53 L 217.5 44.5 L 204.5 -8 L 268 53 "/>
<path style=" stroke:none;fill-rule:nonzero;fill:rgb(36%,21.2%,6%);fill-opacity:0.5;" d="M 306 80 L 381 86.5 L 379.5 19 L 306 80 "/>
<path style=" stroke:none;fill-rule:nonzero;fill:rgb(74.9%,36.3%,64%);fill-opacity:0.5;" d="M 498.5 61 L 434 81 L 449.5 18 L 498.5 61 "/>
<path style=" stroke:none;fill-rule:nonzero;fill:rgb(22.3%,55.7%,2.4%);fill-opacity:0.5;" d="M 457 190 L 384 181 L 364.5 113.5 L 457 190 "/>
<path style=" stroke:none;fill-rule:nonzero;fill:rgb(58.5%,44.7%,93.8%);fill-opacity:0.5;" d="M 304.5 163.5 L 363.5 142.5 L 384 78.5 L 304.5 163.5 "/>
<path style=" stroke:none;fill-rule:nonzero;fill:rgb(92.2%,2.6%,95.9%);fill-opacity:0.5;" d="M 273 193.5 L 206.5 174 L 191.5 101 L 273 193.5 "/>
<path style=" stroke:none;fill-rule:nonzero;fill:rgb(25.1%,36.8%,7.9%);fill-opacity:0.5;" d="M 121 136 L 185.5 143 L 210.5 195 L 121 136 "/>
<path style=" stroke:none;fill-rule:nonzero;fill:rgb(22.2%,86.1%,16.7%);fill-opacity:0.5;" d="M 86.5 184 L 33 172 L 19 111.5 L 86.5 184 "/>
<path style=" stroke:none;fill-rule:nonzero;fill:rgb(9.2%,75.9%,77.4%);fill-opacity:0.5;" d="M 76 252.5 L 14 245.5 L 38 177.5 L 76 252.5 "/>
<path style=" stroke:none;fill-rule:nonzero;fill:rgb(49.8%,80.3%,98.1%);fill-opacity:0.5;" d="M 142 275.5 L 216 298.5 L 226.5 223.5 L 142 275.5 "/>
<path style=" stroke:none;fill-rule:nonzero;fill:rgb(44.3%,53.3%,55.2%);fill-opacity:0.5;" d="M 219 219.5 L 281 210 L 294.5 272.5 L 219 219.5 "/>
<path style=" stroke:none;fill-rule:nonzero;fill:rgb(44.1%,4.4%,64.8%);fill-opacity:0.5;" d="M 330 259.5 L 397.5 275 L 383.5 215.5 L 330 259.5 "/>
<path style=" stroke:none;fill-rule:nonzero;fill:rgb(74.9%,66.8%,91.5%);fill-opacity:0.5;" d="M 432 208.5 L 499.5 189.5 L 477.5 249 L 432 208.5 "/>
<path style=" stroke:none;fill-rule:nonzero;fill:rgb(60.6%,41.3%,34%);fill-opacity:0.5;" d="M 440 377.5 L 502.5 354.5 L 479 285 L 440 377.5 "/>
<path style=" stroke:none;fill-rule:nonzero;fill:rgb(40.7%,79.2%,98.9%);fill-opacity:0.5;" d="M 385.5 361.5 L 319 340 L 294 287.5 L 385.5 361.5 "/>
<path style=" stroke:none;fill-rule:nonzero;fill:rgb(13.2%,9.3%,33.6%);fill-opacity:0.5;" d="M 200 350 L 254.5 329.5 L 252.5 256 L 200 350 "/>
<path style=" stroke:none;fill-rule:nonzero;fill:rgb(100%,76.6%,26.1%);fill-opacity:0.5;" d="M 170 302.5 L 105.5 280.5 L 101 347.5 L 170 302.5 "/>
<path style=" stroke:none;fill-rule:nonzero;fill:rgb(96%,93.1%,63.9%);fill-opacity:0.5;" d="M 8.5 302.5 L 81 308 L 94.5 361 L 8.5 302.5 "/>
<path style=" stroke:none;fill-rule:nonzero;fill:rgb(15.7%,23.3%,95.2%);fill-opacity:0.5;" d="M 17 436.5 L 69.5 436.5 L 52.5 492 L 17 436.5 "/>
<path style=" stroke:none;fill-rule:nonzero;fill:rgb(19.9%,85.1%,50%);fill-opacity:0.5;" d="M 185 471.5 L 119.5 494 L 101.5 425 L 185 471.5 "/>
<path style=" stroke:none;fill-rule:nonzero;fill:rgb(39.3%,34.8%,5.6%);fill-opacity:0.5;" d="M 282.5 471 L 225.5 447.5 L 218.5 372.5 L 282.5 471 "/>
<path style=" stroke:none;fill-rule:nonzero;fill:rgb(43.5%,93%,63.4%);fill-opacity:0.5;" d="M 378.5 406.5 L 324.5 409 L 334 481 L 378.5 406.5 "/>
<path style=" stroke:none;fill-rule:nonzero;fill:rgb(52.5%,37%,50.5%);fill-opacity:0.5;" d="M 426 469 L 479 490.5 L 503 429 L 426 469 "/>
<path style="fill:none;stroke-width:0.002;stroke-linecap:butt;stroke-linejoin:miter;stroke:rgb(44.4%,1.1%,49.7%);stroke-opacity:1;stroke-miterlimit:10;" d="M 0.524 0.768 L 0.778 0.589 " transform="matrix(500,0,0,500,0,0)"/>
<path style="fill:none;stroke-width:0.002;stroke-linecap:butt;stroke-linejoin:miter;stroke:rgb(38.1%,37.4%,86.6%);stroke-opacity:1;stroke-miterlimit:10;" d="M 0.465 0.73 L 0.111 0.904 " transform="matrix(500,0,0,500,0,0)"/>
<path style="fill:none;stroke-width:0.002;stroke-linecap:butt;stroke-linejoin:miter;stroke:rgb(34.5%,38.4%,94.8%);stroke-opacity:1;stroke-miterlimit:10;" d="M 0.839 0.593 L 0.01 0.326 " transform="matrix(500,0,0,500,0,0)"/>
<path style="fill:none;stroke-width:0.002;stroke-linecap:butt;stroke-linejoin:miter;stroke:rgb(59.2%,60.5%,75.8%);stroke-opacity:1;stroke-miterlimit:10;" d="M 0.632 0.784 L 0.019 0.855 " transform="matrix(500,0,0,500,0,0)"/>
<path style="fill:none;stroke-width:0.002;stroke-linecap:butt;stroke-linejoin:miter;stroke:rgb(27.9%,34.8%,78.2%);stroke-opacity:1;stroke-miterlimit:10;" d="M 0.042 0.017 L 0.378 0.619 " transform="matrix(500,0,0,500,0,0)"/>
<path style="fill:none;stroke-width:0.002;stroke-linecap:butt;stroke-linejoin:miter;stroke:rgb(29.6%,77.6%,4.9%);stroke-opacity:1;stroke-miterlimit:10;" d="M 0.748 0.378 L 0.897 0.836 " transform="matrix(500,0,0,500,0,0)"/>
<path style="fill:none;stroke-width:0.002;stroke-linecap:butt;stroke-linejoin:miter;stroke:rgb(49.2%,4.1%,36.2%);stroke-opacity:1;stroke-miterlimit:10;" d="M 0.819 0.85 L 0.771 0.644 " transform="matrix(500,0,0,500,0,0)"/>
<path style="fill:none;stroke-width:0.002;stroke-linecap:butt;stroke-linejoin:miter;stroke:rgb(41.2%,99.8%,21.7%);stroke-opacity:1;stroke-miterlimit:10;" d="M 0.369 0.273 L 0.674 0.002 " transform="matrix(500,0,0,500,0,0)"/>
<path style="fill:none;stroke-width:0.002;stroke-linecap:butt;stroke-linejoin:miter;stroke:rgb(17.5%,94.9%,30.8%);stroke-opacity:1;stroke-miterlimit:10;" d="M 0.713 0.179 L 0.408 0.134 " transform="matrix(500,0,0,500,0,0)"/>
<path style="fill:none;stroke-width:0.002;stroke-linecap:butt;stroke-linejoin:miter;stroke:rgb(21.6%,58.8%,28%);stroke-opacity:1;stroke-miterlimit:10;" d="M 0.351 0.676 L 0.023 0.892 " transform="matrix(500,0,0,500,0,0)"/>
</g>
</defs>
<g id="surface345">
<use xlink:href="#surface348"/>
</g>
</svg>
