<?xml version="1.0" encoding="UTF-8"?>
<svg xmlns="http://www.w3.org/2000/svg" xmlns:xlink="http://www.w3.org/1999/xlink" width="500pt" height="500pt" viewBox="0 0 500 500" version="1.1">
<defs>
<linearGradient id="linear0" gradientUnits="userSpaceOnUse" x1="0" y1="0.5" x2="1" y2="0.5" gradientTransform="matrix(500,0,0,500,0,0)">
<stop offset="0.4" style="stop-color:rgb(98.3%,99.5%,2.1%);stop-opacity:1;"/>
<stop offset="0.8" style="stop-color:rgb(85.7%,74.1%,99.9%);stop-opacity:1;"/>
</linearGradient>
<clipPath id="clip1">
  <rect x="0" y="0" width="500" height="500"/>
</clipPath>
<g id="surface348" clip-path="url(#clip1)">
<rect x="0" y="0" width="500" height="500" style="fill:url(#linear0);stroke:none;"/>
<path style=" stroke:none;fill-rule:nonzero;fill:rgb(71.6%,73.6%,98.8%);fill-opacity:1;" d="M 43 25 C 43 34.941406 34.941406 43 25 43 C 15.058594 43 7 34.941406 7 25 C 7 15.058594 15.058594 7 25 7 C 34.941406 7 43 15.058594 43 25 "/>
<path style=" stroke:none;fill-rule:nonzero;fill:rgb(98.2%,34.2%,21.8%);fill-opacity:1;" d="M 80.5 25 C 80.5 28.039062 78.039062 30.5 75 30.5 C 71.960938 30.5 69.5 28.039062 69.5 25 C 69.5 21.960938 71.960938 19.5 75 19.5 C 78.039062 19.5 80.5 21.960938 80.5 25 "/>
<path style=" stroke:none;fill-rule:nonzero;fill:rgb(45.2%,64.2%,27.7%);fill-opacity:1;" d="M 137 25 C 137 31.628906 131.628906 37 125 37 C 118.371094 37 113 31.628906 113 25 C 113 18.371094 118.371094 13 125 13 C 131.628906 13 137 18.371094 137 25 "/>
<path style=" stroke:none;fill-rule:nonzero;fill:rgb(57.7%,90.4%,60%);fill-opacity:1;" d="M 194 25 C 194 35.492188 185.492188 44 175 44 C 164.507812 44 156 35.492188 156 25 C 156 14.507812 164.507812 6 175 6 C 185.492188 6 194 14.507812 194 25 "/>
<path style=" stroke:none;fill-rule:nonzero;fill:rgb(32.1%,32.9%,59.4%);fill-opacity:1;" d="M 247 25 C 247 37.148438 237.148438 47 225 47 C 212.851562 47 203 37.148438 203 25 C 203 12.851562 212.851562 3 225 3 C 237.148438 3 247 12.851562 247 25 "/>
<path style=" stroke:none;fill-rule:nonzero;fill:rgb(18.6%,78.8%,86.5%);fill-opacity:1;" d="M 292.5 25 C 292.5 34.664062 284.664062 42.5 275 42.5 C 265.335938 42.5 257.5 34.664062 257.5 25 C 257.5 15.335938 265.335938 7.5 275 7.5 C 284.664062 7.5 292.5 15.335938 292.5 25 "/>
<path style=" stroke:none;fill-rule:nonzero;fill:rgb(94.3%,52.4%,35%);fill-opacity:1;" d="M 334 25 C 334 29.96875 329.96875 34 325 34 C 320.03125 34 316 29.96875 316 25 C 316 20.03125 320.03125 16 325 16 C 329.96875 16 334 20.03125 334 25 "/>
<path style=" stroke:none;fill-rule:nonzero;fill:rgb(49.4%,43.1%,57.4%);fill-opacity:1;" d="M 398 25 C 398 37.703125 387.703125 48 375 48 C 362.296875 48 352 37.703125 352 25 C 352 12.296875 362.296875 2 375 2 C 387.703125 2 398 12.296875 398 25 "/>
<path style=" stroke:none;fill-rule:nonzero;fill:rgb(75.7%,87.3%,87.5%);fill-opacity:1;" d="M 433.5 25 C 433.5 29.695312 429.695312 33.5 425 33.5 C 420.304688 33.5 416.5 29.695312 416.5 25 C 416.5 20.304688 420.304688 16.5 425 16.5 C 429.695312 16.5 433.5 20.304688 433.5 25 "/>
<path style=" stroke:none;fill-rule:nonzero;fill:rgb(92.3%,56.8%,36.3%);fill-opacity:1;" d="M 488 25 C 488 32.179688 482.179688 38 475 38 C 467.820312 38 462 32.179688 462 25 C 462 17.820312 467.820312 12 475 12 C 482.179688 12 488 17.820312 488 25 "/>
<path style=" stroke:none;fill-rule:nonzero;fill:rgb(37.2%,3.6%,0.8%);fill-opacity:1;" d="M 488 75 C 488 82.179688 482.179688 88 475 88 C 467.820312 88 462 82.179688 462 75 C 462 67.820312 467.820312 62 475 62 C 482.179688 62 488 67.820312 488 75 "/>
<path style=" stroke:none;fill-rule:nonzero;fill:rgb(28.7%,67.6%,30%);fill-opacity:1;" d="M 442 75 C 442 84.390625 434.390625 92 425 92 C 415.609375 92 408 84.390625 408 75 C 408 65.609375 415.609375 58 425 58 C 434.390625 58 442 65.609375 442 75 "/>
<path style=" stroke:none;fill-rule:nonzero;fill:rgb(24.3%,89.5%,13%);fill-opacity:1;" d="M 395.5 75 C 395.5 86.320312 386.320312 95.5 375 95.5 C 363.679688 95.5 354.5 86.320312 354.5 75 C 354.5 63.679688 363.679688 54.5 375 54.5 C 386.320312 54.5 395.5 63.679688 395.5 75 "/>
<path style=" stroke:none;fill-rule:nonzero;fill:rgb(0.4%,23.7%,41.5%);fill-opacity:1;" d="M 339.5 75 C 339.5 83.007812 333.007812 89.5 325 89.5 C 316.992188 89.5 310.5 83.007812 310.5 75 C 310.5 66.992188 316.992188 60.5 325 60.5 C 333.007812 60.5 339.5 66.992188 339.5 75 "/>
<path style=" stroke:none;fill-rule:nonzero;fill:rgb(9.3%,57.5%,98.4%);fill-opacity:1;" d="M 283 75 C 283 79.417969 279.417969 83 275 83 C 270.582031 83 267 79.417969 267 75 C 267 70.582031 270.582031 67 275 67 C 279.417969 67 283 70.582031 283 75 "/>
<path style=" stroke:none;fill-rule:nonzero;fill:rgb(3.3%,16.9%,73.9%);fill-opacity:1;" d="M 237.5 75 C 237.5 81.902344 231.902344 87.5 225 87.5 C 218.097656 87.5 212.5 81.902344 212.5 75 C 212.5 68.097656 218.097656 62.5 225 62.5 C 231.902344 62.5 237.5 68.097656 237.5 75 "/>
<path style=" stroke:none;fill-rule:nonzero;fill:rgb(55.3%,37.4%,99.9%);fill-opacity:1;" d="M 194 75 C 194 85.492188 185.492188 94 175 94 C 164.507812 94 156 85.492188 156 75 C 156 64.507812 164.507812 56 175 56 C 185.492188 56 194 64.507812 194 75 "/>
<path style=" stroke:none;fill-rule:nonzero;fill:rgb(14.3%,28%,21.4%);fill-opacity:1;" d="M 137.5 75 C 137.5 81.902344 131.902344 87.5 125 87.5 C 118.097656 87.5 112.5 81.902344 112.5 75 C 112.5 68.097656 118.097656 62.5 125 62.5 C 131.902344 62.5 137.5 68.097656 137.5 75 "/>
<path style=" stroke:none;fill-rule:nonzero;fill:rgb(73.4%,28%,51.7%);fill-opacity:1;" d="M 94 75 C 94 85.492188 85.492188 94 75 94 C 64.507812 94 56 85.492188 56 75 C 56 64.507812 64.507812 56 75 56 C 85.492188 56 94 64.507812 94 75 "/>
<path style=" stroke:none;fill-rule:nonzero;fill:rgb(95.1%,19%,41.2%);fill-opacity:1;" d="M 45.5 75 C 45.5 86.320312 36.320312 95.5 25 95.5 C 13.679688 95.5 4.5 86.320312 4.5 75 C 4.5 63.679688 13.679688 54.5 25 54.5 C 36.320312 54.5 45.5 63.679688 45.5 75 "/>
<path style=" stroke:none;fill-rule:nonzero;fill:rgb(7.9%,51%,43.8%);fill-opacity:1;" d="M 50 125 C 50 138.808594 38.808594 150 25 150 C 11.191406 150 0 138.808594 0 125 C 0 111.191406 11.191406 100 25 100 C 38.808594 100 50 111.191406 50 125 "/>
<path style=" stroke:none;fill-rule:nonzero;fill:rgb(6.8%,79%,74%);fill-opacity:1;" d="M 97.5 125 C 97.5 137.425781 87.425781 147.5 75 147.5 C 62.574219 147.5 52.5 137.425781 52.5 125 C 52.5 112.574219 62.574219 102.5 75 102.5 C 87.425781 102.5 97.5 112.574219 97.5 125 "/>
<path style=" stroke:none;fill-rule:nonzero;fill:rgb(7.8%,0.8%,12.5%);fill-opacity:1;" d="M 132 125 C 132 128.867188 128.867188 132 125 132 C 121.132812 132 118 128.867188 118 125 C 118 121.132812 121.132812 118 125 118 C 128.867188 118 132 121.132812 132 125 "/>
<path style=" stroke:none;fill-rule:nonzero;fill:rgb(10%,40.5%,0.6%);fill-opacity:1;" d="M 182 125 C 182 128.867188 178.867188 132 175 132 C 171.132812 132 168 128.867188 168 125 C 168 121.132812 171.132812 118 175 118 C 178.867188 118 182 121.132812 182 125 "/>
<path style=" stroke:none;fill-rule:nonzero;fill:rgb(68.6%,33.4%,72.4%);fill-opacity:1;" d="M 239.5 125 C 239.5 133.007812 233.007812 139.5 225 139.5 C 216.992188 139.5 210.5 133.007812 210.5 125 C 210.5 116.992188 216.992188 110.5 225 110.5 C 233.007812 110.5 239.5 116.992188 239.5 125 "/>
<path style=" stroke:none;fill-rule:nonzero;fill:rgb(79.1%,87.1%,49.4%);fill-opacity:1;" d="M 290.5 125 C 290.5 133.558594 283.558594 140.5 275 140.5 C 266.441406 140.5 259.5 133.558594 259.5 125 C 259.5 116.441406 266.441406 109.5 275 109.5 C 283.558594 109.5 290.5 116.441406 290.5 125 "/>
<path style=" stroke:none;fill-rule:nonzero;fill:rgb(41.9%,77.7%,11.4%);fill-opacity:1;" d="M 338.5 125 C 338.5 132.457031 332.457031 138.5 325 138.5 C 317.542969 138.5 311.5 132.457031 311.5 125 C 311.5 117.542969 317.542969 111.5 325 111.5 C 332.457031 111.5 338.5 117.542969 338.5 125 "/>
<path style=" stroke:none;fill-rule:nonzero;fill:rgb(74.6%,45.4%,40.2%);fill-opacity:1;" d="M 391 125 C 391 133.835938 383.835938 141 375 141 C 366.164062 141 359 133.835938 359 125 C 359 116.164062 366.164062 109 375 109 C 383.835938 109 391 116.164062 391 125 "/>
<path style=" stroke:none;fill-rule:nonzero;fill:rgb(18.3%,11.7%,78.5%);fill-opacity:1;" d="M 440.5 125 C 440.5 133.558594 433.558594 140.5 425 140.5 C 416.441406 140.5 409.5 133.558594 409.5 125 C 409.5 116.441406 416.441406 109.5 425 109.5 C 433.558594 109.5 440.5 116.441406 440.5 125 "/>
<path style=" stroke:none;fill-rule:nonzero;fill:rgb(69.7%,47.2%,94.3%);fill-opacity:1;" d="M 489.5 125 C 489.5 133.007812 483.007812 139.5 475 139.5 C 466.992188 139.5 460.5 133.007812 460.5 125 C 460.5 116.992188 466.992188 110.5 475 110.5 C 483.007812 110.5 489.5 116.992188 489.5 125 "/>
<path style=" stroke:none;fill-rule:nonzero;fill:rgb(60%,14.3%,47.4%);fill-opacity:1;" d="M 499.5 175 C 499.5 188.53125 488.53125 199.5 475 199.5 C 461.46875 199.5 450.5 188.53125 450.5 175 C 450.5 161.46875 461.46875 150.5 475 150.5 C 488.53125 150.5 499.5 161.46875 499.5 175 "/>
<path style=" stroke:none;fill-rule:nonzero;fill:rgb(22.6%,58.7%,49.7%);fill-opacity:1;" d="M 440.5 175 C 440.5 183.558594 433.558594 190.5 425 190.5 C 416.441406 190.5 409.5 183.558594 409.5 175 C 409.5 166.441406 416.441406 159.5 425 159.5 C 433.558594 159.5 440.5 166.441406 440.5 175 "/>
<path style=" stroke:none;fill-rule:nonzero;fill:rgb(53.2%,95.5%,97.4%);fill-opacity:1;" d="M 393 175 C 393 184.941406 384.941406 193 375 193 C 365.058594 193 357 184.941406 357 175 C 357 165.058594 365.058594 157 375 157 C 384.941406 157 393 165.058594 393 175 "/>
<path style=" stroke:none;fill-rule:nonzero;fill:rgb(79.6%,51.3%,12.9%);fill-opacity:1;" d="M 334.5 175 C 334.5 180.246094 330.246094 184.5 325 184.5 C 319.753906 184.5 315.5 180.246094 315.5 175 C 315.5 169.753906 319.753906 165.5 325 165.5 C 330.246094 165.5 334.5 169.753906 334.5 175 "/>
<path style=" stroke:none;fill-rule:nonzero;fill:rgb(17.3%,50.6%,11.6%);fill-opacity:1;" d="M 289 175 C 289 182.730469 282.730469 189 275 189 C 267.269531 189 261 182.730469 261 175 C 261 167.269531 267.269531 161 275 161 C 282.730469 161 289 167.269531 289 175 "/>
<path style=" stroke:none;fill-rule:nonzero;fill:rgb(59.4%,1.2%,62.6%);fill-opacity:1;" d="M 241.5 175 C 241.5 184.113281 234.113281 191.5 225 191.5 C 215.886719 191.5 208.5 184.113281 208.5 175 C 208.5 165.886719 215.886719 158.5 225 158.5 C 234.113281 158.5 241.5 165.886719 241.5 175 "/>
<path style=" stroke:none;fill-rule:nonzero;fill:rgb(80.6%,38.7%,91.7%);fill-opacity:1;" d="M 195.5 175 C 195.5 186.320312 186.320312 195.5 175 195.5 C 163.679688 195.5 154.5 186.320312 154.5 175 C 154.5 163.679688 163.679688 154.5 175 154.5 C 186.320312 154.5 195.5 163.679688 195.5 175 "/>
<path style=" stroke:none;fill-rule:nonzero;fill:rgb(80%,44%,6.2%);fill-opacity:1;" d="M 130.5 175 C 130.5 178.039062 128.039062 180.5 125 180.5 C 121.960938 180.5 119.5 178.039062 119.5 175 C 119.5 171.960938 121.960938 169.5 125 169.5 C 128.039062 169.5 130.5 171.960938 130.5 175 "/>
<path style=" stroke:none;fill-rule:nonzero;fill:rgb(53.9%,77.1%,91.7%);fill-opacity:1;" d="M 86 175 C 86 181.074219 81.074219 186 75 186 C 68.925781 186 64 181.074219 64 175 C 64 168.925781 68.925781 164 75 164 C 81.074219 164 86 168.925781 86 175 "/>
<path style=" stroke:none;fill-rule:nonzero;fill:rgb(42.3%,48.9%,25.4%);fill-opacity:1;" d="M 34.5 175 C 34.5 180.246094 30.246094 184.5 25 184.5 C 19.753906 184.5 15.5 180.246094 15.5 175 C 15.5 169.753906 19.753906 165.5 25 165.5 C 30.246094 165.5 34.5 169.753906 34.5 175 "/>
<path style=" stroke:none;fill-rule:nonzero;fill:rgb(2.4%,2.6%,57.1%);fill-opacity:1;" d="M 45.5 225 C 45.5 236.320312 36.320312 245.5 25 245.5 C 13.679688 245.5 4.5 236.320312 4.5 225 C 4.5 213.679688 13.679688 204.5 25 204.5 C 36.320312 204.5 45.5 213.679688 45.5 225 "/>
<path style=" stroke:none;fill-rule:nonzero;fill:rgb(58.9%,11.5%,13.7%);fill-opacity:1;" d="M 82.5 225 C 82.5 229.140625 79.140625 232.5 75 232.5 C 70.859375 232.5 67.5 229.140625 67.5 225 C 67.5 220.859375 70.859375 217.5 75 217.5 C 79.140625 217.5 82.5 220.859375 82.5 225 "/>
<path style=" stroke:none;fill-rule:nonzero;fill:rgb(69.2%,24.3%,78.4%);fill-opacity:1;" d="M 147.5 225 C 147.5 237.425781 137.425781 247.5 125 247.5 C 112.574219 247.5 102.5 237.425781 102.5 225 C 102.5 212.574219 112.574219 202.5 125 202.5 C 137.425781 202.5 147.5 212.574219 147.5 225 "/>
<path style=" stroke:none;fill-rule:nonzero;fill:rgb(73.2%,26.1%,90.9%);fill-opacity:1;" d="M 197.5 225 C 197.5 237.425781 187.425781 247.5 175 247.5 C 162.574219 247.5 152.5 237.425781 152.5 225 C 152.5 212.574219 162.574219 202.5 175 202.5 C 187.425781 202.5 197.5 212.574219 197.5 225 "/>
<path style=" stroke:none;fill-rule:nonzero;fill:rgb(83.6%,67.2%,86.2%);fill-opacity:1;" d="M 249 225 C 249 238.253906 238.253906 249 225 249 C 211.746094 249 201 238.253906 201 225 C 201 211.746094 211.746094 201 225 201 C 238.253906 201 249 211.746094 249 225 "/>
<path style=" stroke:none;fill-rule:nonzero;fill:rgb(26.6%,89.5%,50.1%);fill-opacity:1;" d="M 294 225 C 294 235.492188 285.492188 244 275 244 C 264.507812 244 256 235.492188 256 225 C 256 214.507812 264.507812 206 275 206 C 285.492188 206 294 214.507812 294 225 "/>
<path style=" stroke:none;fill-rule:nonzero;fill:rgb(83.3%,58.7%,2.8%);fill-opacity:1;" d="M 346 225 C 346 236.597656 336.597656 246 325 246 C 313.402344 246 304 236.597656 304 225 C 304 213.402344 313.402344 204 325 204 C 336.597656 204 346 213.402344 346 225 "/>
<path style=" stroke:none;fill-rule:nonzero;fill:rgb(93.3%,24.4%,99.8%);fill-opacity:1;" d="M 382 225 C 382 228.867188 378.867188 232 375 232 C 371.132812 232 368 228.867188 368 225 C 368 221.132812 371.132812 218 375 218 C 378.867188 218 382 221.132812 382 225 "/>
<path style=" stroke:none;fill-rule:nonzero;fill:rgb(96.5%,99.9%,25.7%);fill-opacity:1;" d="M 431.5 225 C 431.5 228.589844 428.589844 231.5 425 231.5 C 421.410156 231.5 418.5 228.589844 418.5 225 C 418.5 221.410156 421.410156 218.5 425 218.5 C 428.589844 218.5 431.5 221.410156 431.5 225 "/>
<path style=" stroke:none;fill-rule:nonzero;fill:rgb(92.3%,69.8%,57.3%);fill-opacity:1;" d="M 491.5 225 C 491.5 234.113281 484.113281 241.5 475 241.5 C 465.886719 241.5 458.5 234.113281 458.5 225 C 458.5 215.886719 465.886719 208.5 475 208.5 C 484.113281 208.5 491.5 215.886719 491.5 225 "/>
<path style=" stroke:none;fill-rule:nonzero;fill:rgb(84.8%,60.4%,13.9%);fill-opacity:1;" d="M 487 275 C 487 281.628906 481.628906 287 475 287 C 468.371094 287 463 281.628906 463 275 C 463 268.371094 468.371094 263 475 263 C 481.628906 263 487 268.371094 487 275 "/>
<path style=" stroke:none;fill-rule:nonzero;fill:rgb(3.7%,54.4%,64.4%);fill-opacity:1;" d="M 443 275 C 443 284.941406 434.941406 293 425 293 C 415.058594 293 407 284.941406 407 275 C 407 265.058594 415.058594 257 425 257 C 434.941406 257 443 265.058594 443 275 "/>
<path style=" stroke:none;fill-rule:nonzero;fill:rgb(8.7%,70.1%,83.7%);fill-opacity:1;" d="M 384 275 C 384 279.96875 379.96875 284 375 284 C 370.03125 284 366 279.96875 366 275 C 366 270.03125 370.03125 266 375 266 C 379.96875 266 384 270.03125 384 275 "/>
<path style=" stroke:none;fill-rule:nonzero;fill:rgb(65.1%,95.4%,78.4%);fill-opacity:1;" d="M 344.5 275 C 344.5 285.769531 335.769531 294.5 325 294.5 C 314.230469 294.5 305.5 285.769531 305.5 275 C 305.5 264.230469 314.230469 255.5 325 255.5 C 335.769531 255.5 344.5 264.230469 344.5 275 "/>
<path style=" stroke:none;fill-rule:nonzero;fill:rgb(0.2%,48.3%,38.1%);fill-opacity:1;" d="M 291 275 C 291 283.835938 283.835938 291 275 291 C 266.164062 291 259 283.835938 259 275 C 259 266.164062 266.164062 259 275 259 C 283.835938 259 291 266.164062 291 275 "/>
<path style=" stroke:none;fill-rule:nonzero;fill:rgb(59.1%,33.6%,21.5%);fill-opacity:1;" d="M 240.5 275 C 240.5 283.558594 233.558594 290.5 225 290.5 C 216.441406 290.5 209.5 283.558594 209.5 275 C 209.5 266.441406 216.441406 259.5 225 259.5 C 233.558594 259.5 240.5 266.441406 240.5 275 "/>
<path style=" stroke:none;fill-rule:nonzero;fill:rgb(58.3%,80.9%,41.5%);fill-opacity:1;" d="M 183 275 C 183 279.417969 179.417969 283 175 283 C 170.582031 283 167 279.417969 167 275 C 167 270.582031 170.582031 267 175 267 C 179.417969 267 183 270.582031 183 275 "/>
<path style=" stroke:none;fill-rule:nonzero;fill:rgb(89.6%,56%,93.2%);fill-opacity:1;" d="M 138 275 C 138 282.179688 132.179688 288 125 288 C 117.820312 288 112 282.179688 112 275 C 112 267.820312 117.820312 262 125 262 C 132.179688 262 138 267.820312 138 275 "/>
<path style=" stroke:none;fill-rule:nonzero;fill:rgb(1.1%,38.3%,28.1%);fill-opacity:1;" d="M 92 275 C 92 284.390625 84.390625 292 75 292 C 65.609375 292 58 284.390625 58 275 C 58 265.609375 65.609375 258 75 258 C 84.390625 258 92 265.609375 92 275 "/>
<path style=" stroke:none;fill-rule:nonzero;fill:rgb(75.4%,68%,84.8%);fill-opacity:1;" d="M 35.5 275 C 35.5 280.800781 30.800781 285.5 25 285.5 C 19.199219 285.5 14.5 280.800781 14.5 275 C 14.5 269.199219 19.199219 264.5 25 264.5 C 30.800781 264.5 35.5 269.199219 35.5 275 "/>
<path style=" stroke:none;fill-rule:nonzero;fill:rgb(49.8%,20.7%,98.6%);fill-opacity:1;" d="M 37 325 C 37 331.628906 31.628906 337 25 337 C 18.371094 337 13 331.628906 13 325 C 13 318.371094 18.371094 313 25 313 C 31.628906 313 37 318.371094 37 325 "/>
<path style=" stroke:none;fill-rule:nonzero;fill:rgb(61.5%,37.6%,15.6%);fill-opacity:1;" d="M 82.5 325 C 82.5 329.140625 79.140625 332.5 75 332.5 C 70.859375 332.5 67.5 329.140625 67.5 325 C 67.5 320.859375 70.859375 317.5 75 317.5 C 79.140625 317.5 82.5 320.859375 82.5 325 "/>
<path style=" stroke:none;fill-rule:nonzero;fill:rgb(33.1%,35.9%,33.6%);fill-opacity:1;" d="M 149 325 C 149 338.253906 138.253906 349 125 349 C 111.746094 349 101 338.253906 101 325 C 101 311.746094 111.746094 301 125 301 C 138.253906 301 149 311.746094 149 325 "/>
<path style=" stroke:none;fill-rule:nonzero;fill:rgb(14.8%,35.9%,29.5%);fill-opacity:1;" d="M 193.5 325 C 193.5 335.21875 185.21875 343.5 175 343.5 C 164.78125 343.5 156.5 335.21875 156.5 325 C 156.5 314.78125 164.78125 306.5 175 306.5 C 185.21875 306.5 193.5 314.78125 193.5 325 "/>
<path style=" stroke:none;fill-rule:nonzero;fill:rgb(22.6%,15%,90%);fill-opacity:1;" d="M 239 325 C 239 332.730469 232.730469 339 225 339 C 217.269531 339 211 332.730469 211 325 C 211 317.269531 217.269531 311 225 311 C 232.730469 311 239 317.269531 239 325 "/>
<path style=" stroke:none;fill-rule:nonzero;fill:rgb(41.1%,81.2%,37.5%);fill-opacity:1;" d="M 292.5 325 C 292.5 334.664062 284.664062 342.5 275 342.5 C 265.335938 342.5 257.5 334.664062 257.5 325 C 257.5 315.335938 265.335938 307.5 275 307.5 C 284.664062 307.5 292.5 315.335938 292.5 325 "/>
<path style=" stroke:none;fill-rule:nonzero;fill:rgb(28.1%,36.5%,67.3%);fill-opacity:1;" d="M 338.5 325 C 338.5 332.457031 332.457031 338.5 325 338.5 C 317.542969 338.5 311.5 332.457031 311.5 325 C 311.5 317.542969 317.542969 311.5 325 311.5 C 332.457031 311.5 338.5 317.542969 338.5 325 "/>
<path style=" stroke:none;fill-rule:nonzero;fill:rgb(25.6%,82.7%,31.3%);fill-opacity:1;" d="M 391.5 325 C 391.5 334.113281 384.113281 341.5 375 341.5 C 365.886719 341.5 358.5 334.113281 358.5 325 C 358.5 315.886719 365.886719 308.5 375 308.5 C 384.113281 308.5 391.5 315.886719 391.5 325 "/>
<path style=" stroke:none;fill-rule:nonzero;fill:rgb(47.9%,80.8%,48.6%);fill-opacity:1;" d="M 436 325 C 436 331.074219 431.074219 336 425 336 C 418.925781 336 414 331.074219 414 325 C 414 318.925781 418.925781 314 425 314 C 431.074219 314 436 318.925781 436 325 "/>
<path style=" stroke:none;fill-rule:nonzero;fill:rgb(22.9%,53.5%,35.9%);fill-opacity:1;" d="M 480.5 325 C 480.5 328.039062 478.039062 330.5 475 330.5 C 471.960938 330.5 469.5 328.039062 469.5 325 C 469.5 321.960938 471.960938 319.5 475 319.5 C 478.039062 319.5 480.5 321.960938 480.5 325 "/>
<path style=" stroke:none;fill-rule:nonzero;fill:rgb(66.2%,75.3%,19.9%);fill-opacity:1;" d="M 498 375 C 498 387.703125 487.703125 398 475 398 C 462.296875 398 452 387.703125 452 375 C 452 362.296875 462.296875 352 475 352 C 487.703125 352 498 362.296875 498 375 "/>
<path style=" stroke:none;fill-rule:nonzero;fill:rgb(86.3%,39.9%,35.6%);fill-opacity:1;" d="M 442 375 C 442 384.390625 434.390625 392 425 392 C 415.609375 392 408 384.390625 408 375 C 408 365.609375 415.609375 358 425 358 C 434.390625 358 442 365.609375 442 375 "/>
<path style=" stroke:none;fill-rule:nonzero;fill:rgb(57.8%,35.6%,55.4%);fill-opacity:1;" d="M 389.5 375 C 389.5 383.007812 383.007812 389.5 375 389.5 C 366.992188 389.5 360.5 383.007812 360.5 375 C 360.5 366.992188 366.992188 360.5 375 360.5 C 383.007812 360.5 389.5 366.992188 389.5 375 "/>
<path style=" stroke:none;fill-rule:nonzero;fill:rgb(75.3%,59.8%,67.7%);fill-opacity:1;" d="M 333 375 C 333 379.417969 329.417969 383 325 383 C 320.582031 383 317 379.417969 317 375 C 317 370.582031 320.582031 367 325 367 C 329.417969 367 333 370.582031 333 375 "/>
<path style=" stroke:none;fill-rule:nonzero;fill:rgb(56.9%,60.8%,52.8%);fill-opacity:1;" d="M 283 375 C 283 379.417969 279.417969 383 275 383 C 270.582031 383 267 379.417969 267 375 C 267 370.582031 270.582031 367 275 367 C 279.417969 367 283 370.582031 283 375 "/>
<path style=" stroke:none;fill-rule:nonzero;fill:rgb(81.7%,70.3%,49.9%);fill-opacity:1;" d="M 237 375 C 237 381.628906 231.628906 387 225 387 C 218.371094 387 213 381.628906 213 375 C 213 368.371094 218.371094 363 225 363 C 231.628906 363 237 368.371094 237 375 "/>
<path style=" stroke:none;fill-rule:nonzero;fill:rgb(66.6%,32.3%,53.6%);fill-opacity:1;" d="M 196.5 375 C 196.5 386.875 186.875 396.5 175 396.5 C 163.125 396.5 153.5 386.875 153.5 375 C 153.5 363.125 163.125 353.5 175 353.5 C 186.875 353.5 196.5 363.125 196.5 375 "/>
<path style=" stroke:none;fill-rule:nonzero;fill:rgb(15.2%,35.2%,41.8%);fill-opacity:1;" d="M 138 375 C 138 382.179688 132.179688 388 125 388 C 117.820312 388 112 382.179688 112 375 C 112 367.820312 117.820312 362 125 362 C 132.179688 362 138 367.820312 138 375 "/>
<path style=" stroke:none;fill-rule:nonzero;fill:rgb(54.4%,32.2%,39.8%);fill-opacity:1;" d="M 81 375 C 81 378.3125 78.3125 381 75 381 C 71.6875 381 69 378.3125 69 375 C 69 371.6875 71.6875 369 75 369 C 78.3125 369 81 371.6875 81 375 "/>
<path style=" stroke:none;fill-rule:nonzero;fill:rgb(82.7%,10.3%,51%);fill-opacity:1;" d="M 36 375 C 36 381.074219 31.074219 386 25 386 C 18.925781 386 14 381.074219 14 375 C 14 368.925781 18.925781 364 25 364 C 31.074219 364 36 368.925781 36 375 "/>
<path style=" stroke:none;fill-rule:nonzero;fill:rgb(12.5%,52.4%,49.7%);fill-opacity:1;" d="M 39.5 425 C 39.5 433.007812 33.007812 439.5 25 439.5 C 16.992188 439.5 10.5 433.007812 10.5 425 C 10.5 416.992188 16.992188 410.5 25 410.5 C 33.007812 410.5 39.5 416.992188 39.5 425 "/>
<path style=" stroke:none;fill-rule:nonzero;fill:rgb(51.1%,37.3%,54.8%);fill-opacity:1;" d="M 94 425 C 94 435.492188 85.492188 444 75 444 C 64.507812 444 56 435.492188 56 425 C 56 414.507812 64.507812 406 75 406 C 85.492188 406 94 414.507812 94 425 "/>
<path style=" stroke:none;fill-rule:nonzero;fill:rgb(53%,11.4%,28.1%);fill-opacity:1;" d="M 141 425 C 141 433.835938 133.835938 441 125 441 C 116.164062 441 109 433.835938 109 425 C 109 416.164062 116.164062 409 125 409 C 133.835938 409 141 416.164062 141 425 "/>
<path style=" stroke:none;fill-rule:nonzero;fill:rgb(81%,7.1%,60.1%);fill-opacity:1;" d="M 198.5 425 C 198.5 437.980469 187.980469 448.5 175 448.5 C 162.019531 448.5 151.5 437.980469 151.5 425 C 151.5 412.019531 162.019531 401.5 175 401.5 C 187.980469 401.5 198.5 412.019531 198.5 425 "/>
<path style=" stroke:none;fill-rule:nonzero;fill:rgb(92.1%,42.9%,47.1%);fill-opacity:1;" d="M 230 425 C 230 431.667969 220 431.667969 220 425 C 220 418.332031 230 418.332031 230 425 "/>
<path style=" stroke:none;fill-rule:nonzero;fill:rgb(98.2%,54.8%,23.1%);fill-opacity:1;" d="M 287.5 425 C 287.5 431.902344 281.902344 437.5 275 437.5 C 268.097656 437.5 262.5 431.902344 262.5 425 C 262.5 418.097656 268.097656 412.5 275 412.5 C 281.902344 412.5 287.5 418.097656 287.5 425 "/>
<path style=" stroke:none;fill-rule:nonzero;fill:rgb(75.4%,61.6%,87.6%);fill-opacity:1;" d="M 342.5 425 C 342.5 434.664062 334.664062 442.5 325 442.5 C 315.335938 442.5 307.5 434.664062 307.5 425 C 307.5 415.335938 315.335938 407.5 325 407.5 C 334.664062 407.5 342.5 415.335938 342.5 425 "/>
<path style=" stroke:none;fill-rule:nonzero;fill:rgb(41.4%,71.3%,69.1%);fill-opacity:1;" d="M 393 425 C 393 434.941406 384.941406 443 375 443 C 365.058594 443 357 434.941406 357 425 C 357 415.058594 365.058594 407 375 407 C 384.941406 407 393 415.058594 393 425 "/>
<path style=" stroke:none;fill-rule:nonzero;fill:rgb(39.9%,20.2%,21.7%);fill-opacity:1;" d="M 442.5 425 C 442.5 434.664062 434.664062 442.5 425 442.5 C 415.335938 442.5 407.5 434.664062 407.5 425 C 407.5 415.335938 415.335938 407.5 425 407.5 C 434.664062 407.5 442.5 415.335938 442.5 425 "/>
<path style=" stroke:none;fill-rule:nonzero;fill:rgb(31.5%,57.3%,73.1%);fill-opacity:1;" d="M 493.5 425 C 493.5 435.21875 485.21875 443.5 475 443.5 C 464.78125 443.5 456.5 435.21875 456.5 425 C 456.5 414.78125 464.78125 406.5 475 406.5 C 485.21875 406.5 493.5 414.78125 493.5 425 "/>
<path style=" stroke:none;fill-rule:nonzero;fill:rgb(1.4%,47.9%,39.4%);fill-opacity:1;" d="M 482.5 475 C 482.5 479.140625 479.140625 482.5 475 482.5 C 470.859375 482.5 467.5 479.140625 467.5 475 C 467.5 470.859375 470.859375 467.5 475 467.5 C 479.140625 467.5 482.5 470.859375 482.5 475 "/>
<path style=" stroke:none;fill-rule:nonzero;fill:rgb(83.5%,69.7%,97.6%);fill-opacity:1;" d="M 434 475 C 434 479.96875 429.96875 484 425 484 C 420.03125 484 416 479.96875 416 475 C 416 470.03125 420.03125 466 425 466 C 429.96875 466 434 470.03125 434 475 "/>
<path style=" stroke:none;fill-rule:nonzero;fill:rgb(77%,50.8%,22.7%);fill-opacity:1;" d="M 398 475 C 398 487.703125 387.703125 498 375 498 C 362.296875 498 352 487.703125 352 475 C 352 462.296875 362.296875 452 375 452 C 387.703125 452 398 462.296875 398 475 "/>
<path style=" stroke:none;fill-rule:nonzero;fill:rgb(18.9%,8%,69.6%);fill-opacity:1;" d="M 344.5 475 C 344.5 485.769531 335.769531 494.5 325 494.5 C 314.230469 494.5 305.5 485.769531 305.5 475 C 305.5 464.230469 314.230469 455.5 325 455.5 C 335.769531 455.5 344.5 464.230469 344.5 475 "/>
<path style=" stroke:none;fill-rule:nonzero;fill:rgb(95.7%,29.7%,79.8%);fill-opacity:1;" d="M 291.5 475 C 291.5 484.113281 284.113281 491.5 275 491.5 C 265.886719 491.5 258.5 484.113281 258.5 475 C 258.5 465.886719 265.886719 458.5 275 458.5 C 284.113281 458.5 291.5 465.886719 291.5 475 "/>
<path style=" stroke:none;fill-rule:nonzero;fill:rgb(28.3%,86.9%,13.7%);fill-opacity:1;" d="M 233.5 475 C 233.5 479.695312 229.695312 483.5 225 483.5 C 220.304688 483.5 216.5 479.695312 216.5 475 C 216.5 470.304688 220.304688 466.5 225 466.5 C 229.695312 466.5 233.5 470.304688 233.5 475 "/>
<path style=" stroke:none;fill-rule:nonzero;fill:rgb(17.7%,80.9%,97.5%);fill-opacity:1;" d="M 186 475 C 186 481.074219 181.074219 486 175 486 C 168.925781 486 164 481.074219 164 475 C 164 468.925781 168.925781 464 175 464 C 181.074219 464 186 468.925781 186 475 "/>
<path style=" stroke:none;fill-rule:nonzero;fill:rgb(96.5%,31.5%,98.7%);fill-opacity:1;" d="M 143 475 C 143 484.941406 134.941406 493 125 493 C 115.058594 493 107 484.941406 107 475 C 107 465.058594 115.058594 457 125 457 C 134.941406 457 143 465.058594 143 475 "/>
<path style=" stroke:none;fill-rule:nonzero;fill:rgb(89.7%,84.4%,60.4%);fill-opacity:1;" d="M 96.5 475 C 96.5 486.875 86.875 496.5 75 496.5 C 63.125 496.5 53.5 486.875 53.5 475 C 53.5 463.125 63.125 453.5 75 453.5 C 86.875 453.5 96.5 463.125 96.5 475 "/>
<path style=" stroke:none;fill-rule:nonzero;fill:rgb(50.3%,49%,3.6%);fill-opacity:1;" d="M 48 475 C 48 487.703125 37.703125 498 25 498 C 12.296875 498 2 487.703125 2 475 C 2 462.296875 12.296875 452 25 452 C 37.703125 452 48 462.296875 48 475 "/>
<path style="fill:none;stroke-width:0.01;stroke-linecap:butt;stroke-linejoin:miter;stroke:rgb(9.3%,39.8%,46.2%);stroke-opacity:1;stroke-miterlimit:10;" d="M 0.05 0.05 C 0.15 0.05 0.25 0.05 0.35 0.05 " transform="matrix(500,0,0,500,0,0)"/>
<path style="fill:none;stroke-width:0.01;stroke-linecap:butt;stroke-linejoin:miter;stroke:rgb(7%,4.9%,83.1%);stroke-opacity:1;stroke-miterlimit:10;" d="M 0.35 0.05 C 0.45 0.05 0.55 0.05 0.65 0.05 " transform="matrix(500,0,0,500,0,0)"/>
<path style="fill:none;stroke-width:0.01;stroke-linecap:butt;stroke-linejoin:miter;stroke:rgb(59.9%,25.1%,93.3%);stroke-opacity:1;stroke-miterlimit:10;" d="M 0.65 0.05 C 0.75 0.05 0.85 0.05 0.95 0.05 " transform="matrix(500,0,0,500,0,0)"/>
<path style="fill:none;stroke-width:0.01;stroke-linecap:butt;stroke-linejoin:miter;stroke:rgb(98%,62.9%,23.3%);stroke-opacity:1;stroke-miterlimit:10;" d="M 0.95 0.05 C 0.95 0.15 0.85 0.15 0.75 0.15 " transform="matrix(500,0,0,500,0,0)"/>
<path style="fill:none;stroke-width:0.01;stroke-linecap:butt;stroke-linejoin:miter;stroke:rgb(82.3%,58.8%,16%);stroke-opacity:1;stroke-miterlimit:10;" d="M 0.75 0.15 C 0.65 0.15 0.55 0.15 0.45 0.15 " transform="matrix(500,0,0,500,0,0)"/>
<path style="fill:none;stroke-width:0.01;stroke-linecap:butt;stroke-linejoin:miter;stroke:rgb(46.7%,39.1%,59.2%);stroke-opacity:1;stroke-miterlimit:10;" d="M 0.45 0.15 C 0.35 0.15 0.25 0.15 0.15 0.15 " transform="matrix(500,0,0,500,0,0)"/>
<path style="fill:none;stroke-width:0.01;stroke-linecap:butt;stroke-linejoin:miter;stroke:rgb(23.8%,22.4%,85.5%);stroke-opacity:1;stroke-miterlimit:10;" d="M 0.15 0.15 C 0.05 0.15 0.05 0.25 0.15 0.25 " transform="matrix(500,0,0,500,0,0)"/>
<path style="fill:none;stroke-width:0.01;stroke-linecap:butt;stroke-linejoin:miter;stroke:rgb(97.6%,20.2%,14.3%);stroke-opacity:1;stroke-miterlimit:10;" d="M 0.15 0.25 C 0.25 0.25 0.35 0.25 0.45 0.25 " transform="matrix(500,0,0,500,0,0)"/>
<path style="fill:none;stroke-width:0.01;stroke-linecap:butt;stroke-linejoin:miter;stroke:rgb(66.5%,28.1%,74.1%);stroke-opacity:1;stroke-miterlimit:10;" d="M 0.45 0.25 C 0.55 0.25 0.65 0.25 0.75 0.25 " transform="matrix(500,0,0,500,0,0)"/>
<path style="fill:none;stroke-width:0.01;stroke-linecap:butt;stroke-linejoin:miter;stroke:rgb(8.1%,13.4%,3.9%);stroke-opacity:1;stroke-miterlimit:10;" d="M 0.75 0.25 C 0.85 0.25 0.95 0.25 0.95 0.35 " transform="matrix(500,0,0,500,0,0)"/>
<path style="fill:none;stroke-width:0.01;stroke-linecap:butt;stroke-linejoin:miter;stroke:rgb(57.4%,9.3%,72.7%);stroke-opacity:1;stroke-miterlimit:10;" d="M 0.95 0.35 C 0.85 0.35 0.75 0.35 0.65 0.35 " transform="matrix(500,0,0,500,0,0)"/>
<path style="fill:none;stroke-width:0.01;stroke-linecap:butt;stroke-linejoin:miter;stroke:rgb(90.2%,41.7%,30.1%);stroke-opacity:1;stroke-miterlimit:10;" d="M 0.65 0.35 C 0.55 0.35 0.45 0.35 0.35 0.35 " transform="matrix(500,0,0,500,0,0)"/>
<path style="fill:none;stroke-width:0.01;stroke-linecap:butt;stroke-linejoin:miter;stroke:rgb(51.4%,82.5%,0.1%);stroke-opacity:1;stroke-miterlimit:10;" d="M 0.35 0.35 C 0.25 0.35 0.15 0.35 0.05 0.35 " transform="matrix(500,0,0,500,0,0)"/>
<path style="fill:none;stroke-width:0.01;stroke-linecap:butt;stroke-linejoin:miter;stroke:rgb(66.9%,82.1%,60%);stroke-opacity:1;stroke-miterlimit:10;" d="M 0.05 0.35 C 0.05 0.45 0.15 0.45 0.25 0.45 " transform="matrix(500,0,0,500,0,0)"/>
<path style="fill:none;stroke-width:0.01;stroke-linecap:butt;stroke-linejoin:miter;stroke:rgb(47.8%,59.6%,94.8%);stroke-opacity:1;stroke-miterlimit:10;" d="M 0.25 0.45 C 0.35 0.45 0.45 0.45 0.55 0.45 " transform="matrix(500,0,0,500,0,0)"/>
<path style="fill:none;stroke-width:0.01;stroke-linecap:butt;stroke-linejoin:miter;stroke:rgb(90.8%,82.7%,19.3%);stroke-opacity:1;stroke-miterlimit:10;" d="M 0.55 0.45 C 0.65 0.45 0.75 0.45 0.85 0.45 " transform="matrix(500,0,0,500,0,0)"/>
<path style="fill:none;stroke-width:0.01;stroke-linecap:butt;stroke-linejoin:miter;stroke:rgb(22%,97.8%,64.6%);stroke-opacity:1;stroke-miterlimit:10;" d="M 0.85 0.45 C 0.95 0.45 0.95 0.55 0.85 0.55 " transform="matrix(500,0,0,500,0,0)"/>
<path style="fill:none;stroke-width:0.01;stroke-linecap:butt;stroke-linejoin:miter;stroke:rgb(14.1%,90.8%,35%);stroke-opacity:1;stroke-miterlimit:10;" d="M 0.85 0.55 C 0.75 0.55 0.65 0.55 0.55 0.55 " transform="matrix(500,0,0,500,0,0)"/>
<path style="fill:none;stroke-width:0.01;stroke-linecap:butt;stroke-linejoin:miter;stroke:rgb(89.9%,63.3%,81.4%);stroke-opacity:1;stroke-miterlimit:10;" d="M 0.55 0.55 C 0.45 0.55 0.35 0.55 0.25 0.55 " transform="matrix(500,0,0,500,0,0)"/>
<path style="fill:none;stroke-width:0.01;stroke-linecap:butt;stroke-linejoin:miter;stroke:rgb(21.8%,62%,4.6%);stroke-opacity:1;stroke-miterlimit:10;" d="M 0.25 0.55 C 0.15 0.55 0.05 0.55 0.05 0.65 " transform="matrix(500,0,0,500,0,0)"/>
<path style="fill:none;stroke-width:0.01;stroke-linecap:butt;stroke-linejoin:miter;stroke:rgb(60.6%,89.4%,17.5%);stroke-opacity:1;stroke-miterlimit:10;" d="M 0.05 0.65 C 0.15 0.65 0.25 0.65 0.35 0.65 " transform="matrix(500,0,0,500,0,0)"/>
<path style="fill:none;stroke-width:0.01;stroke-linecap:butt;stroke-linejoin:miter;stroke:rgb(73.4%,91.9%,50.7%);stroke-opacity:1;stroke-miterlimit:10;" d="M 0.35 0.65 C 0.45 0.65 0.55 0.65 0.65 0.65 " transform="matrix(500,0,0,500,0,0)"/>
<path style="fill:none;stroke-width:0.01;stroke-linecap:butt;stroke-linejoin:miter;stroke:rgb(17.8%,74.3%,79%);stroke-opacity:1;stroke-miterlimit:10;" d="M 0.65 0.65 C 0.75 0.65 0.85 0.65 0.95 0.65 " transform="matrix(500,0,0,500,0,0)"/>
<path style="fill:none;stroke-width:0.01;stroke-linecap:butt;stroke-linejoin:miter;stroke:rgb(72.3%,74.7%,89.9%);stroke-opacity:1;stroke-miterlimit:10;" d="M 0.95 0.65 C 0.95 0.75 0.85 0.75 0.75 0.75 " transform="matrix(500,0,0,500,0,0)"/>
<path style="fill:none;stroke-width:0.01;stroke-linecap:butt;stroke-linejoin:miter;stroke:rgb(69.5%,33.8%,3.7%);stroke-opacity:1;stroke-miterlimit:10;" d="M 0.75 0.75 C 0.65 0.75 0.55 0.75 0.45 0.75 " transform="matrix(500,0,0,500,0,0)"/>
<path style="fill:none;stroke-width:0.01;stroke-linecap:butt;stroke-linejoin:miter;stroke:rgb(23.5%,83.6%,74.9%);stroke-opacity:1;stroke-miterlimit:10;" d="M 0.45 0.75 C 0.35 0.75 0.25 0.75 0.15 0.75 " transform="matrix(500,0,0,500,0,0)"/>
<path style="fill:none;stroke-width:0.01;stroke-linecap:butt;stroke-linejoin:miter;stroke:rgb(80.3%,8.3%,72.5%);stroke-opacity:1;stroke-miterlimit:10;" d="M 0.15 0.75 C 0.05 0.75 0.05 0.85 0.15 0.85 " transform="matrix(500,0,0,500,0,0)"/>
<path style="fill:none;stroke-width:0.01;stroke-linecap:butt;stroke-linejoin:miter;stroke:rgb(22.8%,15.4%,73.9%);stroke-opacity:1;stroke-miterlimit:10;" d="M 0.15 0.85 C 0.25 0.85 0.35 0.85 0.45 0.85 " transform="matrix(500,0,0,500,0,0)"/>
<path style="fill:none;stroke-width:0.01;stroke-linecap:butt;stroke-linejoin:miter;stroke:rgb(91.4%,38.7%,78.2%);stroke-opacity:1;stroke-miterlimit:10;" d="M 0.45 0.85 C 0.55 0.85 0.65 0.85 0.75 0.85 " transform="matrix(500,0,0,500,0,0)"/>
<path style="fill:none;stroke-width:0.01;stroke-linecap:butt;stroke-linejoin:miter;stroke:rgb(42.5%,16%,6.4%);stroke-opacity:1;stroke-miterlimit:10;" d="M 0.75 0.85 C 0.85 0.85 0.95 0.85 0.95 0.95 " transform="matrix(500,0,0,500,0,0)"/>
<path style="fill:none;stroke-width:0.01;stroke-linecap:butt;stroke-linejoin:miter;stroke:rgb(86.7%,75.4%,97.4%);stroke-opacity:1;stroke-miterlimit:10;" d="M 0.95 0.95 C 0.85 0.95 0.75 0.95 0.65 0.95 " transform="matrix(500,0,0,500,0,0)"/>
<path style="fill:none;stroke-width:0.01;stroke-linecap:butt;stroke-linejoin:miter;stroke:rgb(34.1%,54.3%,33.1%);stroke-opacity:1;stroke-miterlimit:10;" d="M 0.65 0.95 C 0.55 0.95 0.45 0.95 0.35 0.95 " transform="matrix(500,0,0,500,0,0)"/>
<path style="fill:none;stroke-width:0.01;stroke-linecap:butt;stroke-linejoin:miter;stroke:rgb(56.9%,86.5%,24.9%);stroke-opacity:1;stroke-miterlimit:10;" d="M 0.35 0.95 C 0.25 0.95 0.15 0.95 0.05 0.95 " transform="matrix(500,0,0,500,0,0)"/>
<path style=" stroke:none;fill-rule:nonzero;fill:rgb(8.7%,15.2%,66%);fill-opacity:0.5;" d="M 43 28 L 112 28 L 106.5 83.5 L 43 28 "/>
<path style=" stroke:none;fill-rule:nonzero;fill:rgb(76.4%,16.5%,86.3%);fill-opacity:0.5;" d="M 182.5 56 L 125.5 75 L 106.5 6.5 L 182.5 56 "/>
<path style=" stroke:none;fill-rule:nonzero;fill:rgb(93.9%,61.8%,11%);fill-opacity:0.5;" d="M 296 65.5 L 237 53 L 259.5 -21 L 296 65.5 "/>
<path style=" stroke:none;fill-rule:nonzero;fill:rgb(2%,72.6%,32.5%);fill-opacity:0.5;" d="M 382.5 5 L 322 5.5 L 329 77 L 382.5 5 "/>
<path style=" stroke:none;fill-rule:nonzero;fill:rgb(40.2%,58.7%,44.4%);fill-opacity:0.5;" d="M 425.5 70 L 495.5 85 L 507 32.5 L 425.5 70 "/>
<path style=" stroke:none;fill-rule:nonzero;fill:rgb(2.1%,18.7%,87.5%);fill-opacity:0.5;" d="M 430 185 L 495 210 L 506.5 141 L 430 185 "/>
<path style=" stroke:none;fill-rule:nonzero;fill:rgb(78.3%,6.4%,16.3%);fill-opacity:0.5;" d="M 322.5 105.5 L 375.5 118.5 L 380 185.5 L 322.5 105.5 "/>
<path style=" stroke:none;fill-rule:nonzero;fill:rgb(75.1%,39.4%,68.6%);fill-opacity:0.5;" d="M 274.5 188.5 L 213.5 183 L 208.5 127.5 L 274.5 188.5 "/>
<path style=" stroke:none;fill-rule:nonzero;fill:rgb(18.2%,3.4%,90.3%);fill-opacity:0.5;" d="M 184.5 190 L 128.5 184 L 105 123 L 184.5 190 "/>
<path style=" stroke:none;fill-rule:nonzero;fill:rgb(85%,36.6%,39.3%);fill-opacity:0.5;" d="M 45.5 100 L 99.5 114 L 87.5 176.5 L 45.5 100 "/>
<path style=" stroke:none;fill-rule:nonzero;fill:rgb(1.8%,94.6%,47.6%);fill-opacity:0.5;" d="M 55 214.5 L -14 196 L -21.5 252 L 55 214.5 "/>
<path style=" stroke:none;fill-rule:nonzero;fill:rgb(7.1%,40.3%,47.3%);fill-opacity:0.5;" d="M 187.5 255.5 L 120.5 249 L 130 185.5 L 187.5 255.5 "/>
<path style=" stroke:none;fill-rule:nonzero;fill:rgb(65.3%,5.5%,50.8%);fill-opacity:0.5;" d="M 254.5 288.5 L 201.5 281.5 L 225.5 221 L 254.5 288.5 "/>
<path style=" stroke:none;fill-rule:nonzero;fill:rgb(99.1%,22.9%,46.5%);fill-opacity:0.5;" d="M 355 296.5 L 290 311.5 L 303.5 255.5 L 355 296.5 "/>
<path style=" stroke:none;fill-rule:nonzero;fill:rgb(87.5%,0.1%,74.4%);fill-opacity:0.5;" d="M 403 212 L 454 208 L 465 263 L 403 212 "/>
<path style=" stroke:none;fill-rule:nonzero;fill:rgb(60.5%,91.1%,5.6%);fill-opacity:0.5;" d="M 494 339 L 427.5 325.5 L 429 393.5 L 494 339 "/>
<path style=" stroke:none;fill-rule:nonzero;fill:rgb(67.3%,43.8%,16.5%);fill-opacity:0.5;" d="M 374 313.5 L 310.5 329.5 L 306 399.5 L 374 313.5 "/>
<path style=" stroke:none;fill-rule:nonzero;fill:rgb(12.9%,61.1%,15.7%);fill-opacity:0.5;" d="M 269 319 L 203 318 L 198.5 370 L 269 319 "/>
<path style=" stroke:none;fill-rule:nonzero;fill:rgb(63.7%,6.4%,89.3%);fill-opacity:0.5;" d="M 113 353.5 L 165 352.5 L 149.5 291.5 L 113 353.5 "/>
<path style=" stroke:none;fill-rule:nonzero;fill:rgb(51.1%,33%,0.6%);fill-opacity:0.5;" d="M 22.5 384.5 L 79 385.5 L 58 312.5 L 22.5 384.5 "/>
<path style=" stroke:none;fill-rule:nonzero;fill:rgb(79.5%,53.4%,42.7%);fill-opacity:0.5;" d="M 1 455 L 56.5 436 L 32.5 366.5 L 1 455 "/>
<path style=" stroke:none;fill-rule:nonzero;fill:rgb(90.5%,70.5%,55.8%);fill-opacity:0.5;" d="M 151 418 L 97 397.5 L 106 461 L 151 418 "/>
<path style=" stroke:none;fill-rule:nonzero;fill:rgb(80.9%,2.8%,39.1%);fill-opacity:0.5;" d="M 220 448.5 L 273 426 L 275.5 476.5 L 220 448.5 "/>
<path style=" stroke:none;fill-rule:nonzero;fill:rgb(84.2%,27.3%,69.3%);fill-opacity:0.5;" d="M 343.5 499.5 L 405 481.5 L 421 412.5 L 343.5 499.5 "/>
<path style=" stroke:none;fill-rule:nonzero;fill:rgb(98.9%,11.9%,40.3%);fill-opacity:0.5;" d="M 451 414 L 396.5 418 L 383 468.5 L 451 414 "/>
<path style="fill:none;stroke-width:0.002;stroke-linecap:butt;stroke-linejoin:miter;stroke:rgb(35%,32.9%,89.2%);stroke-opacity:1;stroke-miterlimit:10;" d="M 0.516 0.561 L 0.353 0.309 " transform="matrix(500,0,0,500,0,0)"/>
<path style="fill:none;stroke-width:0.002;stroke-linecap:butt;stroke-linejoin:miter;stroke:rgb(17.4%,78%,21.9%);stroke-opacity:1;stroke-miterlimit:10;" d="M 0.472 0.816 L 0.167 0.184 " transform="matrix(500,0,0,500,0,0)"/>
<path style="fill:none;stroke-width:0.002;stroke-linecap:butt;stroke-linejoin:miter;stroke:rgb(35.8%,82.1%,83.8%);stroke-opacity:1;stroke-miterlimit:10;" d="M 0.713 0.775 L 0.857 0.046 " transform="matrix(500,0,0,500,0,0)"/>
<path style="fill:none;stroke-width:0.002;stroke-linecap:butt;stroke-linejoin:miter;stroke:rgb(79.1%,4%,55.8%);stroke-opacity:1;stroke-miterlimit:10;" d="M 0.293 0.254 L 0.966 0.897 " transform="matrix(500,0,0,500,0,0)"/>
<path style="fill:none;stroke-width:0.002;stroke-linecap:butt;stroke-linejoin:miter;stroke:rgb(71.1%,48.9%,13.5%);stroke-opacity:1;stroke-miterlimit:10;" d="M 0.118 0.791 L 0.611 0.239 " transform="matrix(500,0,0,500,0,0)"/>
<path style="fill:none;stroke-width:0.002;stroke-linecap:butt;stroke-linejoin:miter;stroke:rgb(75.9%,53.7%,38.8%);stroke-opacity:1;stroke-miterlimit:10;" d="M 0.475 0.447 L 0.174 0.222 " transform="matrix(500,0,0,500,0,0)"/>
<path style="fill:none;stroke-width:0.002;stroke-linecap:butt;stroke-linejoin:miter;stroke:rgb(9.1%,2.6%,17.3%);stroke-opacity:1;stroke-miterlimit:10;" d="M 0.336 0.044 L 0.694 0.788 " transform="matrix(500,0,0,500,0,0)"/>
<path style="fill:none;stroke-width:0.002;stroke-linecap:butt;stroke-linejoin:miter;stroke:rgb(68.4%,98.3%,68.5%);stroke-opacity:1;stroke-miterlimit:10;" d="M 0.237 0.25 L 0.02 0.321 " transform="matrix(500,0,0,500,0,0)"/>
<path style="fill:none;stroke-width:0.002;stroke-linecap:butt;stroke-linejoin:miter;stroke:rgb(72.6%,42.6%,4.6%);stroke-opacity:1;stroke-miterlimit:10;" d="M 0.655 0.312 L 0.144 0.439 " transform="matrix(500,0,0,500,0,0)"/>
<path style="fill:none;stroke-width:0.002;stroke-linecap:butt;stroke-linejoin:miter;stroke:rgb(58.7%,19.8%,27.6%);stroke-opacity:1;stroke-miterlimit:10;" d="M 0.574 0.977 L 0.728 0.622 " transform="matrix(500,0,0,500,0,0)"/>
</g>
</defs>
<g id="surface345">
<use xlink:href="#surface348"/>
</g>
</svg>
