<?xml version="1.0" encoding="UTF-8"?>
<svg xmlns="http://www.w3.org/2000/svg" xmlns:xlink="http://www.w3.org/1999/xlink" width="500pt" height="500pt" viewBox="0 0 500 500" version="1.1">
<defs>
<clipPath id="clip1">
  <rect x="0" y="0" width="500" height="500"/>
</clipPath>
<g id="surface317" clip-path="url(#clip1)">
<rect x="0" y="0" width="500" height="500" style="fill:rgb(63.7%,6.3%,48.5%);fill-opacity:1;stroke:none;"/>
<path style=" stroke:none;fill-rule:nonzero;fill:rgb(64.3%,27.3%,53.7%);fill-opacity:1;" d="M 228 240 C 228 249.664062 220.164062 257.5 210.5 257.5 C 200.835938 257.5 193 249.664062 193 240 C 193 230.335938 200.835938 222.5 210.5 222.5 C 220.164062 222.5 228 230.335938 228 240 "/>
<path style=" stroke:none;fill-rule:nonzero;fill:rgb(35.5%,96%,63%);fill-opacity:1;" d="M 273 386 C 273 392.902344 267.402344 398.5 260.5 398.5 C 253.597656 398.5 248 392.902344 248 386 C 248 379.097656 253.597656 373.5 260.5 373.5 C 267.402344 373.5 273 379.097656 273 386 "/>
<path style=" stroke:none;fill-rule:nonzero;fill:rgb(82.3%,42.5%,58.6%);fill-opacity:1;" d="M 439 121.5 C 439 126.746094 434.746094 131 429.5 131 C 424.253906 131 420 126.746094 420 121.5 C 420 116.253906 424.253906 112 429.5 112 C 434.746094 112 439 116.253906 439 121.5 "/>
<path style=" stroke:none;fill-rule:nonzero;fill:rgb(4.2%,55.3%,65.7%);fill-opacity:1;" d="M 94 450.5 C 94 459.058594 87.058594 466 78.5 466 C 69.941406 466 63 459.058594 63 450.5 C 63 441.941406 69.941406 435 78.5 435 C 87.058594 435 94 441.941406 94 450.5 "/>
<path style=" stroke:none;fill-rule:nonzero;fill:rgb(70.9%,4.8%,68.3%);fill-opacity:1;" d="M 419 401 C 419 414.808594 407.808594 426 394 426 C 380.191406 426 369 414.808594 369 401 C 369 387.191406 380.191406 376 394 376 C 407.808594 376 419 387.191406 419 401 "/>
<path style=" stroke:none;fill-rule:nonzero;fill:rgb(64.4%,36.2%,8%);fill-opacity:1;" d="M 37 303 C 37 316.808594 25.808594 328 12 328 C -1.808594 328 -13 316.808594 -13 303 C -13 289.191406 -1.808594 278 12 278 C 25.808594 278 37 289.191406 37 303 "/>
<path style=" stroke:none;fill-rule:nonzero;fill:rgb(13.3%,51.3%,64.1%);fill-opacity:1;" d="M 439 91 C 439 94.039062 436.539062 96.5 433.5 96.5 C 430.460938 96.5 428 94.039062 428 91 C 428 87.960938 430.460938 85.5 433.5 85.5 C 436.539062 85.5 439 87.960938 439 91 "/>
<path style=" stroke:none;fill-rule:nonzero;fill:rgb(54.1%,11.5%,4.8%);fill-opacity:1;" d="M 63.5 278.5 C 63.5 290.375 53.875 300 42 300 C 30.125 300 20.5 290.375 20.5 278.5 C 20.5 266.625 30.125 257 42 257 C 53.875 257 63.5 266.625 63.5 278.5 "/>
<path style=" stroke:none;fill-rule:nonzero;fill:rgb(12.9%,58.2%,54.7%);fill-opacity:1;" d="M 299 451 C 299 456.523438 294.523438 461 289 461 C 283.476562 461 279 456.523438 279 451 C 279 445.476562 283.476562 441 289 441 C 294.523438 441 299 445.476562 299 451 "/>
<path style=" stroke:none;fill-rule:nonzero;fill:rgb(58.3%,2.5%,38.8%);fill-opacity:1;" d="M 480 35.5 C 480 45.164062 472.164062 53 462.5 53 C 452.835938 53 445 45.164062 445 35.5 C 445 25.835938 452.835938 18 462.5 18 C 472.164062 18 480 25.835938 480 35.5 "/>
<path style=" stroke:none;fill-rule:nonzero;fill:rgb(58.1%,72.2%,78.6%);fill-opacity:1;" d="M 350 62.5 C 350 69.128906 344.628906 74.5 338 74.5 C 331.371094 74.5 326 69.128906 326 62.5 C 326 55.871094 331.371094 50.5 338 50.5 C 344.628906 50.5 350 55.871094 350 62.5 "/>
<path style=" stroke:none;fill-rule:nonzero;fill:rgb(58.3%,83.2%,92.8%);fill-opacity:1;" d="M 360 105 C 360 117.980469 349.480469 128.5 336.5 128.5 C 323.519531 128.5 313 117.980469 313 105 C 313 92.019531 323.519531 81.5 336.5 81.5 C 349.480469 81.5 360 92.019531 360 105 "/>
<path style=" stroke:none;fill-rule:nonzero;fill:rgb(22.6%,2.7%,52.3%);fill-opacity:1;" d="M 157 369 C 157 375.074219 152.074219 380 146 380 C 139.925781 380 135 375.074219 135 369 C 135 362.925781 139.925781 358 146 358 C 152.074219 358 157 362.925781 157 369 "/>
<path style=" stroke:none;fill-rule:nonzero;fill:rgb(58.4%,92.6%,18%);fill-opacity:1;" d="M 428 200.5 C 428 210.71875 419.71875 219 409.5 219 C 399.28125 219 391 210.71875 391 200.5 C 391 190.28125 399.28125 182 409.5 182 C 419.71875 182 428 190.28125 428 200.5 "/>
<path style=" stroke:none;fill-rule:nonzero;fill:rgb(57.6%,1.8%,71.4%);fill-opacity:1;" d="M 413 385.5 C 413 392.128906 407.628906 397.5 401 397.5 C 394.371094 397.5 389 392.128906 389 385.5 C 389 378.871094 394.371094 373.5 401 373.5 C 407.628906 373.5 413 378.871094 413 385.5 "/>
<path style=" stroke:none;fill-rule:nonzero;fill:rgb(24.5%,29.1%,16.4%);fill-opacity:1;" d="M 30.5 496.5 C 30.5 505.058594 23.558594 512 15 512 C 6.441406 512 -0.5 505.058594 -0.5 496.5 C -0.5 487.941406 6.441406 481 15 481 C 23.558594 481 30.5 487.941406 30.5 496.5 "/>
<path style=" stroke:none;fill-rule:nonzero;fill:rgb(84.9%,25.4%,65.8%);fill-opacity:1;" d="M 253.5 358.5 C 253.5 370.375 243.875 380 232 380 C 220.125 380 210.5 370.375 210.5 358.5 C 210.5 346.625 220.125 337 232 337 C 243.875 337 253.5 346.625 253.5 358.5 "/>
<path style=" stroke:none;fill-rule:nonzero;fill:rgb(48.9%,12.3%,69.5%);fill-opacity:1;" d="M 455.5 325.5 C 455.5 336.269531 446.769531 345 436 345 C 425.230469 345 416.5 336.269531 416.5 325.5 C 416.5 314.730469 425.230469 306 436 306 C 446.769531 306 455.5 314.730469 455.5 325.5 "/>
<path style=" stroke:none;fill-rule:nonzero;fill:rgb(58.6%,25.7%,53.8%);fill-opacity:1;" d="M 154.5 221 C 154.5 234.808594 143.308594 246 129.5 246 C 115.691406 246 104.5 234.808594 104.5 221 C 104.5 207.191406 115.691406 196 129.5 196 C 143.308594 196 154.5 207.191406 154.5 221 "/>
<path style=" stroke:none;fill-rule:nonzero;fill:rgb(22.1%,5%,96.6%);fill-opacity:1;" d="M 406.5 56 C 406.5 68.703125 396.203125 79 383.5 79 C 370.796875 79 360.5 68.703125 360.5 56 C 360.5 43.296875 370.796875 33 383.5 33 C 396.203125 33 406.5 43.296875 406.5 56 "/>
<path style=" stroke:none;fill-rule:nonzero;fill:rgb(86.2%,25%,40.6%);fill-opacity:1;" d="M 197.5 132.5 C 197.5 146.03125 186.53125 157 173 157 C 159.46875 157 148.5 146.03125 148.5 132.5 C 148.5 118.96875 159.46875 108 173 108 C 186.53125 108 197.5 118.96875 197.5 132.5 "/>
<path style=" stroke:none;fill-rule:nonzero;fill:rgb(90.5%,28.9%,52.9%);fill-opacity:1;" d="M 398.5 170 C 398.5 176.902344 392.902344 182.5 386 182.5 C 379.097656 182.5 373.5 176.902344 373.5 170 C 373.5 163.097656 379.097656 157.5 386 157.5 C 392.902344 157.5 398.5 163.097656 398.5 170 "/>
<path style=" stroke:none;fill-rule:nonzero;fill:rgb(80.7%,39.6%,42.6%);fill-opacity:1;" d="M 455 467 C 455 477.769531 446.269531 486.5 435.5 486.5 C 424.730469 486.5 416 477.769531 416 467 C 416 456.230469 424.730469 447.5 435.5 447.5 C 446.269531 447.5 455 456.230469 455 467 "/>
<path style=" stroke:none;fill-rule:nonzero;fill:rgb(69.9%,21%,69.4%);fill-opacity:1;" d="M 390.5 120 C 390.5 131.046875 381.546875 140 370.5 140 C 359.453125 140 350.5 131.046875 350.5 120 C 350.5 108.953125 359.453125 100 370.5 100 C 381.546875 100 390.5 108.953125 390.5 120 "/>
<path style=" stroke:none;fill-rule:nonzero;fill:rgb(94.9%,53.2%,18.8%);fill-opacity:1;" d="M 181 459.5 C 181 471.375 171.375 481 159.5 481 C 147.625 481 138 471.375 138 459.5 C 138 447.625 147.625 438 159.5 438 C 171.375 438 181 447.625 181 459.5 "/>
<path style=" stroke:none;fill-rule:nonzero;fill:rgb(46.8%,14.7%,30.7%);fill-opacity:1;" d="M 33 238 C 33 250.425781 22.925781 260.5 10.5 260.5 C -1.925781 260.5 -12 250.425781 -12 238 C -12 225.574219 -1.925781 215.5 10.5 215.5 C 22.925781 215.5 33 225.574219 33 238 "/>
<path style=" stroke:none;fill-rule:nonzero;fill:rgb(36.1%,82.7%,73.1%);fill-opacity:1;" d="M 379.5 5.5 C 379.5 13.785156 372.785156 20.5 364.5 20.5 C 356.214844 20.5 349.5 13.785156 349.5 5.5 C 349.5 -2.785156 356.214844 -9.5 364.5 -9.5 C 372.785156 -9.5 379.5 -2.785156 379.5 5.5 "/>
<path style=" stroke:none;fill-rule:nonzero;fill:rgb(41.2%,8.6%,7.6%);fill-opacity:1;" d="M 40 315.5 C 40 320.46875 35.96875 324.5 31 324.5 C 26.03125 324.5 22 320.46875 22 315.5 C 22 310.53125 26.03125 306.5 31 306.5 C 35.96875 306.5 40 310.53125 40 315.5 "/>
<path style=" stroke:none;fill-rule:nonzero;fill:rgb(60.2%,82.9%,17.1%);fill-opacity:1;" d="M 260 419.5 C 260 425.574219 255.074219 430.5 249 430.5 C 242.925781 430.5 238 425.574219 238 419.5 C 238 413.425781 242.925781 408.5 249 408.5 C 255.074219 408.5 260 413.425781 260 419.5 "/>
<path style=" stroke:none;fill-rule:nonzero;fill:rgb(43.5%,37.9%,68.9%);fill-opacity:1;" d="M 93 163 C 93 167.140625 89.640625 170.5 85.5 170.5 C 81.359375 170.5 78 167.140625 78 163 C 78 158.859375 81.359375 155.5 85.5 155.5 C 89.640625 155.5 93 158.859375 93 163 "/>
<path style=" stroke:none;fill-rule:nonzero;fill:rgb(16.6%,38%,19.4%);fill-opacity:1;" d="M 172.5 218 C 172.5 221.589844 169.589844 224.5 166 224.5 C 162.410156 224.5 159.5 221.589844 159.5 218 C 159.5 214.410156 162.410156 211.5 166 211.5 C 169.589844 211.5 172.5 214.410156 172.5 218 "/>
<path style=" stroke:none;fill-rule:nonzero;fill:rgb(72.5%,7.6%,51.7%);fill-opacity:1;" d="M 402.5 187.5 C 402.5 193.300781 397.800781 198 392 198 C 386.199219 198 381.5 193.300781 381.5 187.5 C 381.5 181.699219 386.199219 177 392 177 C 397.800781 177 402.5 181.699219 402.5 187.5 "/>
<path style=" stroke:none;fill-rule:nonzero;fill:rgb(27.5%,22.7%,59.8%);fill-opacity:1;" d="M 236 401 C 236 413.148438 226.148438 423 214 423 C 201.851562 423 192 413.148438 192 401 C 192 388.851562 201.851562 379 214 379 C 226.148438 379 236 388.851562 236 401 "/>
<path style=" stroke:none;fill-rule:nonzero;fill:rgb(45.7%,19%,51.9%);fill-opacity:1;" d="M 257.5 376.5 C 257.5 386.71875 249.21875 395 239 395 C 228.78125 395 220.5 386.71875 220.5 376.5 C 220.5 366.28125 228.78125 358 239 358 C 249.21875 358 257.5 366.28125 257.5 376.5 "/>
<path style=" stroke:none;fill-rule:nonzero;fill:rgb(36.7%,34%,87.8%);fill-opacity:1;" d="M 281 301 C 281 312.046875 272.046875 321 261 321 C 249.953125 321 241 312.046875 241 301 C 241 289.953125 249.953125 281 261 281 C 272.046875 281 281 289.953125 281 301 "/>
<path style=" stroke:none;fill-rule:nonzero;fill:rgb(62.1%,18.1%,95.3%);fill-opacity:1;" d="M 433 60 C 433 71.597656 423.597656 81 412 81 C 400.402344 81 391 71.597656 391 60 C 391 48.402344 400.402344 39 412 39 C 423.597656 39 433 48.402344 433 60 "/>
<path style=" stroke:none;fill-rule:nonzero;fill:rgb(20.6%,94.6%,75.9%);fill-opacity:1;" d="M 422 254.5 C 422 261.128906 416.628906 266.5 410 266.5 C 403.371094 266.5 398 261.128906 398 254.5 C 398 247.871094 403.371094 242.5 410 242.5 C 416.628906 242.5 422 247.871094 422 254.5 "/>
<path style=" stroke:none;fill-rule:nonzero;fill:rgb(54.3%,86.1%,88.3%);fill-opacity:1;" d="M 104.5 290 C 104.5 300.21875 96.21875 308.5 86 308.5 C 75.78125 308.5 67.5 300.21875 67.5 290 C 67.5 279.78125 75.78125 271.5 86 271.5 C 96.21875 271.5 104.5 279.78125 104.5 290 "/>
<path style=" stroke:none;fill-rule:nonzero;fill:rgb(51.4%,43.7%,37.3%);fill-opacity:1;" d="M 339.5 121 C 339.5 132.320312 330.320312 141.5 319 141.5 C 307.679688 141.5 298.5 132.320312 298.5 121 C 298.5 109.679688 307.679688 100.5 319 100.5 C 330.320312 100.5 339.5 109.679688 339.5 121 "/>
<path style=" stroke:none;fill-rule:nonzero;fill:rgb(41.8%,65.5%,75.6%);fill-opacity:1;" d="M 19 61.5 C 19 67.300781 14.300781 72 8.5 72 C 2.699219 72 -2 67.300781 -2 61.5 C -2 55.699219 2.699219 51 8.5 51 C 14.300781 51 19 55.699219 19 61.5 "/>
<path style=" stroke:none;fill-rule:nonzero;fill:rgb(58.3%,41.8%,93.9%);fill-opacity:1;" d="M 279 94.5 C 279 102.785156 272.285156 109.5 264 109.5 C 255.714844 109.5 249 102.785156 249 94.5 C 249 86.214844 255.714844 79.5 264 79.5 C 272.285156 79.5 279 86.214844 279 94.5 "/>
<path style=" stroke:none;fill-rule:nonzero;fill:rgb(1.3%,68.5%,73.7%);fill-opacity:1;" d="M 334 469.5 C 334 475.023438 329.523438 479.5 324 479.5 C 318.476562 479.5 314 475.023438 314 469.5 C 314 463.976562 318.476562 459.5 324 459.5 C 329.523438 459.5 334 463.976562 334 469.5 "/>
<path style=" stroke:none;fill-rule:nonzero;fill:rgb(79%,80.8%,7.1%);fill-opacity:1;" d="M 210 101.5 C 210 108.402344 204.402344 114 197.5 114 C 190.597656 114 185 108.402344 185 101.5 C 185 94.597656 190.597656 89 197.5 89 C 204.402344 89 210 94.597656 210 101.5 "/>
<path style=" stroke:none;fill-rule:nonzero;fill:rgb(8.7%,56.9%,40.2%);fill-opacity:1;" d="M 352.5 272 C 352.5 280.835938 345.335938 288 336.5 288 C 327.664062 288 320.5 280.835938 320.5 272 C 320.5 263.164062 327.664062 256 336.5 256 C 345.335938 256 352.5 263.164062 352.5 272 "/>
<path style=" stroke:none;fill-rule:nonzero;fill:rgb(76.6%,37.8%,82.5%);fill-opacity:1;" d="M 442 59 C 442 62.039062 439.539062 64.5 436.5 64.5 C 433.460938 64.5 431 62.039062 431 59 C 431 55.960938 433.460938 53.5 436.5 53.5 C 439.539062 53.5 442 55.960938 442 59 "/>
<path style=" stroke:none;fill-rule:nonzero;fill:rgb(34.2%,19.9%,23.8%);fill-opacity:1;" d="M 53 42 C 53 55.53125 42.03125 66.5 28.5 66.5 C 14.96875 66.5 4 55.53125 4 42 C 4 28.46875 14.96875 17.5 28.5 17.5 C 42.03125 17.5 53 28.46875 53 42 "/>
<path style=" stroke:none;fill-rule:nonzero;fill:rgb(43.8%,54.6%,77.5%);fill-opacity:1;" d="M 86 231.5 C 86 235.089844 83.089844 238 79.5 238 C 75.910156 238 73 235.089844 73 231.5 C 73 227.910156 75.910156 225 79.5 225 C 83.089844 225 86 227.910156 86 231.5 "/>
<path style=" stroke:none;fill-rule:nonzero;fill:rgb(2.6%,23.6%,71.9%);fill-opacity:1;" d="M 226.5 470.5 C 226.5 476.023438 222.023438 480.5 216.5 480.5 C 210.976562 480.5 206.5 476.023438 206.5 470.5 C 206.5 464.976562 210.976562 460.5 216.5 460.5 C 222.023438 460.5 226.5 464.976562 226.5 470.5 "/>
<path style=" stroke:none;fill-rule:nonzero;fill:rgb(54.4%,79.6%,60.7%);fill-opacity:1;" d="M 138.5 47.5 C 138.5 57.441406 130.441406 65.5 120.5 65.5 C 110.558594 65.5 102.5 57.441406 102.5 47.5 C 102.5 37.558594 110.558594 29.5 120.5 29.5 C 130.441406 29.5 138.5 37.558594 138.5 47.5 "/>
<path style=" stroke:none;fill-rule:nonzero;fill:rgb(64.2%,84.9%,87%);fill-opacity:1;" d="M 386 469 C 386 473.96875 381.96875 478 377 478 C 372.03125 478 368 473.96875 368 469 C 368 464.03125 372.03125 460 377 460 C 381.96875 460 386 464.03125 386 469 "/>
<path style=" stroke:none;fill-rule:nonzero;fill:rgb(94.9%,28.1%,31.4%);fill-opacity:1;" d="M 396.5 106 C 396.5 114.285156 389.785156 121 381.5 121 C 373.214844 121 366.5 114.285156 366.5 106 C 366.5 97.714844 373.214844 91 381.5 91 C 389.785156 91 396.5 97.714844 396.5 106 "/>
<path style=" stroke:none;fill-rule:nonzero;fill:rgb(11.5%,7.1%,96.7%);fill-opacity:1;" d="M 364 241.5 C 364 253.648438 354.148438 263.5 342 263.5 C 329.851562 263.5 320 253.648438 320 241.5 C 320 229.351562 329.851562 219.5 342 219.5 C 354.148438 219.5 364 229.351562 364 241.5 "/>
<path style=" stroke:none;fill-rule:nonzero;fill:rgb(12%,23.9%,96.6%);fill-opacity:1;" d="M 158 196 C 158 202.667969 148 202.667969 148 196 C 148 189.332031 158 189.332031 158 196 "/>
<path style=" stroke:none;fill-rule:nonzero;fill:rgb(55.9%,76.2%,85.4%);fill-opacity:1;" d="M 264.5 454.5 C 264.5 466.097656 255.097656 475.5 243.5 475.5 C 231.902344 475.5 222.5 466.097656 222.5 454.5 C 222.5 442.902344 231.902344 433.5 243.5 433.5 C 255.097656 433.5 264.5 442.902344 264.5 454.5 "/>
<path style=" stroke:none;fill-rule:nonzero;fill:rgb(42.5%,55.7%,95.8%);fill-opacity:1;" d="M 289 128.5 C 289 140.925781 278.925781 151 266.5 151 C 254.074219 151 244 140.925781 244 128.5 C 244 116.074219 254.074219 106 266.5 106 C 278.925781 106 289 116.074219 289 128.5 "/>
<path style=" stroke:none;fill-rule:nonzero;fill:rgb(36.6%,10.8%,18.2%);fill-opacity:1;" d="M 346 30.5 C 346 42.375 336.375 52 324.5 52 C 312.625 52 303 42.375 303 30.5 C 303 18.625 312.625 9 324.5 9 C 336.375 9 346 18.625 346 30.5 "/>
<path style=" stroke:none;fill-rule:nonzero;fill:rgb(25.5%,72.5%,44.9%);fill-opacity:1;" d="M 345 9 C 345 13.96875 340.96875 18 336 18 C 331.03125 18 327 13.96875 327 9 C 327 4.03125 331.03125 0 336 0 C 340.96875 0 345 4.03125 345 9 "/>
<path style=" stroke:none;fill-rule:nonzero;fill:rgb(91.2%,29.2%,2.5%);fill-opacity:1;" d="M 315 11.5 C 315 25.308594 303.808594 36.5 290 36.5 C 276.191406 36.5 265 25.308594 265 11.5 C 265 -2.308594 276.191406 -13.5 290 -13.5 C 303.808594 -13.5 315 -2.308594 315 11.5 "/>
<path style=" stroke:none;fill-rule:nonzero;fill:rgb(32.4%,56%,29.1%);fill-opacity:1;" d="M 333 254.5 C 333 264.992188 324.492188 273.5 314 273.5 C 303.507812 273.5 295 264.992188 295 254.5 C 295 244.007812 303.507812 235.5 314 235.5 C 324.492188 235.5 333 244.007812 333 254.5 "/>
<path style=" stroke:none;fill-rule:nonzero;fill:rgb(99.2%,80.9%,66.2%);fill-opacity:1;" d="M 48 12.5 C 48 24.925781 37.925781 35 25.5 35 C 13.074219 35 3 24.925781 3 12.5 C 3 0.0742188 13.074219 -10 25.5 -10 C 37.925781 -10 48 0.0742188 48 12.5 "/>
<path style=" stroke:none;fill-rule:nonzero;fill:rgb(0.7%,78.7%,91.8%);fill-opacity:1;" d="M 289.5 475 C 289.5 483.558594 282.558594 490.5 274 490.5 C 265.441406 490.5 258.5 483.558594 258.5 475 C 258.5 466.441406 265.441406 459.5 274 459.5 C 282.558594 459.5 289.5 466.441406 289.5 475 "/>
<path style=" stroke:none;fill-rule:nonzero;fill:rgb(24.1%,100%,38.7%);fill-opacity:1;" d="M 447.5 411.5 C 447.5 419.785156 440.785156 426.5 432.5 426.5 C 424.214844 426.5 417.5 419.785156 417.5 411.5 C 417.5 403.214844 424.214844 396.5 432.5 396.5 C 440.785156 396.5 447.5 403.214844 447.5 411.5 "/>
<path style=" stroke:none;fill-rule:nonzero;fill:rgb(83.8%,74.4%,6.3%);fill-opacity:1;" d="M 243 56 C 243 63.179688 237.179688 69 230 69 C 222.820312 69 217 63.179688 217 56 C 217 48.820312 222.820312 43 230 43 C 237.179688 43 243 48.820312 243 56 "/>
<path style=" stroke:none;fill-rule:nonzero;fill:rgb(76.5%,52.8%,58.9%);fill-opacity:1;" d="M 477 460.5 C 477 465.195312 473.195312 469 468.5 469 C 463.804688 469 460 465.195312 460 460.5 C 460 455.804688 463.804688 452 468.5 452 C 473.195312 452 477 455.804688 477 460.5 "/>
<path style=" stroke:none;fill-rule:nonzero;fill:rgb(8.9%,19.9%,4.9%);fill-opacity:1;" d="M 436 145 C 436 156.046875 427.046875 165 416 165 C 404.953125 165 396 156.046875 396 145 C 396 133.953125 404.953125 125 416 125 C 427.046875 125 436 133.953125 436 145 "/>
<path style=" stroke:none;fill-rule:nonzero;fill:rgb(30.1%,35.5%,16.2%);fill-opacity:1;" d="M 88 380.5 C 88 392.097656 78.597656 401.5 67 401.5 C 55.402344 401.5 46 392.097656 46 380.5 C 46 368.902344 55.402344 359.5 67 359.5 C 78.597656 359.5 88 368.902344 88 380.5 "/>
<path style=" stroke:none;fill-rule:nonzero;fill:rgb(8.3%,66.7%,95.6%);fill-opacity:1;" d="M 45.5 70 C 45.5 76.351562 40.351562 81.5 34 81.5 C 27.648438 81.5 22.5 76.351562 22.5 70 C 22.5 63.648438 27.648438 58.5 34 58.5 C 40.351562 58.5 45.5 63.648438 45.5 70 "/>
<path style=" stroke:none;fill-rule:nonzero;fill:rgb(56.2%,73.5%,98.5%);fill-opacity:1;" d="M 155 213.5 C 155 226.203125 144.703125 236.5 132 236.5 C 119.296875 236.5 109 226.203125 109 213.5 C 109 200.796875 119.296875 190.5 132 190.5 C 144.703125 190.5 155 200.796875 155 213.5 "/>
<path style=" stroke:none;fill-rule:nonzero;fill:rgb(37%,71.3%,69.9%);fill-opacity:1;" d="M 353.5 272.5 C 353.5 284.375 343.875 294 332 294 C 320.125 294 310.5 284.375 310.5 272.5 C 310.5 260.625 320.125 251 332 251 C 343.875 251 353.5 260.625 353.5 272.5 "/>
<path style=" stroke:none;fill-rule:nonzero;fill:rgb(16.1%,73.9%,57.4%);fill-opacity:1;" d="M 260 224.5 C 260 231.167969 250 231.167969 250 224.5 C 250 217.832031 260 217.832031 260 224.5 "/>
<path style=" stroke:none;fill-rule:nonzero;fill:rgb(71.7%,70.3%,1%);fill-opacity:1;" d="M 140 119 C 140 127.007812 133.507812 133.5 125.5 133.5 C 117.492188 133.5 111 127.007812 111 119 C 111 110.992188 117.492188 104.5 125.5 104.5 C 133.507812 104.5 140 110.992188 140 119 "/>
<path style=" stroke:none;fill-rule:nonzero;fill:rgb(60.1%,27.9%,11.8%);fill-opacity:1;" d="M 194 340 C 194 343.867188 190.867188 347 187 347 C 183.132812 347 180 343.867188 180 340 C 180 336.132812 183.132812 333 187 333 C 190.867188 333 194 336.132812 194 340 "/>
<path style=" stroke:none;fill-rule:nonzero;fill:rgb(72%,81.2%,40.8%);fill-opacity:1;" d="M 411 107 C 411 119.425781 400.925781 129.5 388.5 129.5 C 376.074219 129.5 366 119.425781 366 107 C 366 94.574219 376.074219 84.5 388.5 84.5 C 400.925781 84.5 411 94.574219 411 107 "/>
<path style=" stroke:none;fill-rule:nonzero;fill:rgb(95.7%,78.5%,0.6%);fill-opacity:1;" d="M 403.5 162.5 C 403.5 175.203125 393.203125 185.5 380.5 185.5 C 367.796875 185.5 357.5 175.203125 357.5 162.5 C 357.5 149.796875 367.796875 139.5 380.5 139.5 C 393.203125 139.5 403.5 149.796875 403.5 162.5 "/>
<path style=" stroke:none;fill-rule:nonzero;fill:rgb(89%,59.9%,56.2%);fill-opacity:1;" d="M 403.5 340 C 403.5 346.902344 397.902344 352.5 391 352.5 C 384.097656 352.5 378.5 346.902344 378.5 340 C 378.5 333.097656 384.097656 327.5 391 327.5 C 397.902344 327.5 403.5 333.097656 403.5 340 "/>
<path style=" stroke:none;fill-rule:nonzero;fill:rgb(24.3%,96.8%,8.8%);fill-opacity:1;" d="M 389.5 464 C 389.5 469.800781 384.800781 474.5 379 474.5 C 373.199219 474.5 368.5 469.800781 368.5 464 C 368.5 458.199219 373.199219 453.5 379 453.5 C 384.800781 453.5 389.5 458.199219 389.5 464 "/>
<path style=" stroke:none;fill-rule:nonzero;fill:rgb(90.1%,31.7%,93.9%);fill-opacity:1;" d="M 289.5 338 C 289.5 342.417969 285.917969 346 281.5 346 C 277.082031 346 273.5 342.417969 273.5 338 C 273.5 333.582031 277.082031 330 281.5 330 C 285.917969 330 289.5 333.582031 289.5 338 "/>
<path style=" stroke:none;fill-rule:nonzero;fill:rgb(89.5%,26.2%,60.8%);fill-opacity:1;" d="M 248.5 407 C 248.5 417.21875 240.21875 425.5 230 425.5 C 219.78125 425.5 211.5 417.21875 211.5 407 C 211.5 396.78125 219.78125 388.5 230 388.5 C 240.21875 388.5 248.5 396.78125 248.5 407 "/>
<path style=" stroke:none;fill-rule:nonzero;fill:rgb(73.2%,75.8%,64.2%);fill-opacity:1;" d="M 18.5 429 C 18.5 434.800781 13.800781 439.5 8 439.5 C 2.199219 439.5 -2.5 434.800781 -2.5 429 C -2.5 423.199219 2.199219 418.5 8 418.5 C 13.800781 418.5 18.5 423.199219 18.5 429 "/>
<path style=" stroke:none;fill-rule:nonzero;fill:rgb(23.3%,30%,90.3%);fill-opacity:1;" d="M 404.5 364 C 404.5 370.667969 394.5 370.667969 394.5 364 C 394.5 357.332031 404.5 357.332031 404.5 364 "/>
<path style=" stroke:none;fill-rule:nonzero;fill:rgb(87.4%,90.2%,69.8%);fill-opacity:1;" d="M 478 282 C 478 293.597656 468.597656 303 457 303 C 445.402344 303 436 293.597656 436 282 C 436 270.402344 445.402344 261 457 261 C 468.597656 261 478 270.402344 478 282 "/>
<path style=" stroke:none;fill-rule:nonzero;fill:rgb(29.4%,39.4%,73.4%);fill-opacity:1;" d="M 164 351 C 164 364.253906 153.253906 375 140 375 C 126.746094 375 116 364.253906 116 351 C 116 337.746094 126.746094 327 140 327 C 153.253906 327 164 337.746094 164 351 "/>
<path style=" stroke:none;fill-rule:nonzero;fill:rgb(50.9%,38.2%,94.3%);fill-opacity:1;" d="M 256 369 C 256 376.730469 249.730469 383 242 383 C 234.269531 383 228 376.730469 228 369 C 228 361.269531 234.269531 355 242 355 C 249.730469 355 256 361.269531 256 369 "/>
<path style=" stroke:none;fill-rule:nonzero;fill:rgb(70.4%,33.9%,32.1%);fill-opacity:1;" d="M 450.5 490 C 450.5 500.21875 442.21875 508.5 432 508.5 C 421.78125 508.5 413.5 500.21875 413.5 490 C 413.5 479.78125 421.78125 471.5 432 471.5 C 442.21875 471.5 450.5 479.78125 450.5 490 "/>
<path style=" stroke:none;fill-rule:nonzero;fill:rgb(81%,61.2%,41.1%);fill-opacity:1;" d="M 214.5 391.5 C 214.5 397.023438 210.023438 401.5 204.5 401.5 C 198.976562 401.5 194.5 397.023438 194.5 391.5 C 194.5 385.976562 198.976562 381.5 204.5 381.5 C 210.023438 381.5 214.5 385.976562 214.5 391.5 "/>
<path style=" stroke:none;fill-rule:nonzero;fill:rgb(77.2%,74.2%,78.4%);fill-opacity:1;" d="M 11.5 60.5 C 11.5 66.300781 6.800781 71 1 71 C -4.800781 71 -9.5 66.300781 -9.5 60.5 C -9.5 54.699219 -4.800781 50 1 50 C 6.800781 50 11.5 54.699219 11.5 60.5 "/>
<path style=" stroke:none;fill-rule:nonzero;fill:rgb(41.6%,59.6%,69.4%);fill-opacity:1;" d="M 287.5 85 C 287.5 88.867188 284.367188 92 280.5 92 C 276.632812 92 273.5 88.867188 273.5 85 C 273.5 81.132812 276.632812 78 280.5 78 C 284.367188 78 287.5 81.132812 287.5 85 "/>
<path style=" stroke:none;fill-rule:nonzero;fill:rgb(44.4%,36.3%,60%);fill-opacity:1;" d="M 463 403 C 463 416.253906 452.253906 427 439 427 C 425.746094 427 415 416.253906 415 403 C 415 389.746094 425.746094 379 439 379 C 452.253906 379 463 389.746094 463 403 "/>
<path style=" stroke:none;fill-rule:nonzero;fill:rgb(46.6%,62.2%,77.8%);fill-opacity:1;" d="M 309 331 C 309 343.425781 298.925781 353.5 286.5 353.5 C 274.074219 353.5 264 343.425781 264 331 C 264 318.574219 274.074219 308.5 286.5 308.5 C 298.925781 308.5 309 318.574219 309 331 "/>
<path style=" stroke:none;fill-rule:nonzero;fill:rgb(92.1%,22.8%,38.8%);fill-opacity:1;" d="M 413.5 117 C 413.5 128.597656 404.097656 138 392.5 138 C 380.902344 138 371.5 128.597656 371.5 117 C 371.5 105.402344 380.902344 96 392.5 96 C 404.097656 96 413.5 105.402344 413.5 117 "/>
<path style=" stroke:none;fill-rule:nonzero;fill:rgb(77.2%,40.1%,80.1%);fill-opacity:1;" d="M 495 77 C 495 90.808594 483.808594 102 470 102 C 456.191406 102 445 90.808594 445 77 C 445 63.191406 456.191406 52 470 52 C 483.808594 52 495 63.191406 495 77 "/>
<path style=" stroke:none;fill-rule:nonzero;fill:rgb(86.8%,44.9%,63.9%);fill-opacity:1;" d="M 429.5 438 C 429.5 442.140625 426.140625 445.5 422 445.5 C 417.859375 445.5 414.5 442.140625 414.5 438 C 414.5 433.859375 417.859375 430.5 422 430.5 C 426.140625 430.5 429.5 433.859375 429.5 438 "/>
<path style=" stroke:none;fill-rule:nonzero;fill:rgb(46.4%,56%,99.8%);fill-opacity:1;" d="M 372 264.5 C 372 274.992188 363.492188 283.5 353 283.5 C 342.507812 283.5 334 274.992188 334 264.5 C 334 254.007812 342.507812 245.5 353 245.5 C 363.492188 245.5 372 254.007812 372 264.5 "/>
<path style=" stroke:none;fill-rule:nonzero;fill:rgb(55.5%,71.8%,42.9%);fill-opacity:1;" d="M 252 77 C 252 85.558594 245.058594 92.5 236.5 92.5 C 227.941406 92.5 221 85.558594 221 77 C 221 68.441406 227.941406 61.5 236.5 61.5 C 245.058594 61.5 252 68.441406 252 77 "/>
<path style=" stroke:none;fill-rule:nonzero;fill:rgb(19%,4.2%,53.5%);fill-opacity:1;" d="M 196.5 6 C 196.5 17.046875 187.546875 26 176.5 26 C 165.453125 26 156.5 17.046875 156.5 6 C 156.5 -5.046875 165.453125 -14 176.5 -14 C 187.546875 -14 196.5 -5.046875 196.5 6 "/>
<path style=" stroke:none;fill-rule:nonzero;fill:rgb(29.7%,32%,40.4%);fill-opacity:1;" d="M 287.5 12 C 287.5 18.902344 281.902344 24.5 275 24.5 C 268.097656 24.5 262.5 18.902344 262.5 12 C 262.5 5.097656 268.097656 -0.5 275 -0.5 C 281.902344 -0.5 287.5 5.097656 287.5 12 "/>
<path style=" stroke:none;fill-rule:nonzero;fill:rgb(62.9%,83.8%,37.9%);fill-opacity:1;" d="M 211 131.5 C 211 137.023438 206.523438 141.5 201 141.5 C 195.476562 141.5 191 137.023438 191 131.5 C 191 125.976562 195.476562 121.5 201 121.5 C 206.523438 121.5 211 125.976562 211 131.5 "/>
<path style=" stroke:none;fill-rule:nonzero;fill:rgb(51.7%,95.7%,55.5%);fill-opacity:1;" d="M 345.5 8.5 C 345.5 22.308594 334.308594 33.5 320.5 33.5 C 306.691406 33.5 295.5 22.308594 295.5 8.5 C 295.5 -5.308594 306.691406 -16.5 320.5 -16.5 C 334.308594 -16.5 345.5 -5.308594 345.5 8.5 "/>
<path style=" stroke:none;fill-rule:nonzero;fill:rgb(39.8%,52.9%,60.6%);fill-opacity:1;" d="M 225.5 21.5 C 225.5 33.375 215.875 43 204 43 C 192.125 43 182.5 33.375 182.5 21.5 C 182.5 9.625 192.125 0 204 0 C 215.875 0 225.5 9.625 225.5 21.5 "/>
<path style=" stroke:none;fill-rule:nonzero;fill:rgb(93.2%,7.4%,39.3%);fill-opacity:1;" d="M 188.5 253 C 188.5 259.074219 183.574219 264 177.5 264 C 171.425781 264 166.5 259.074219 166.5 253 C 166.5 246.925781 171.425781 242 177.5 242 C 183.574219 242 188.5 246.925781 188.5 253 "/>
<path style="fill:none;stroke-width:0.01;stroke-linecap:butt;stroke-linejoin:miter;stroke:rgb(82%,60.4%,34.3%);stroke-opacity:1;stroke-miterlimit:10;" d="M 0.084 0.8 C 0.472 0.739 0.849 0.896 0.403 0.331 " transform="matrix(500,0,0,500,0,0)"/>
<path style="fill:none;stroke-width:0.01;stroke-linecap:butt;stroke-linejoin:miter;stroke:rgb(94.1%,62.2%,18.9%);stroke-opacity:1;stroke-miterlimit:10;" d="M 0.403 0.331 C 0.943 0.293 0.196 0.916 0.264 1 " transform="matrix(500,0,0,500,0,0)"/>
<path style="fill:none;stroke-width:0.01;stroke-linecap:butt;stroke-linejoin:miter;stroke:rgb(28.7%,96.5%,7.9%);stroke-opacity:1;stroke-miterlimit:10;" d="M 0.264 1 C 0.01 0.802 0.119 0.039 0.227 0.865 " transform="matrix(500,0,0,500,0,0)"/>
<path style="fill:none;stroke-width:0.01;stroke-linecap:butt;stroke-linejoin:miter;stroke:rgb(14.9%,75.1%,75%);stroke-opacity:1;stroke-miterlimit:10;" d="M 0.227 0.865 C 0.995 0.331 0.967 0.502 0.771 0.356 " transform="matrix(500,0,0,500,0,0)"/>
<path style="fill:none;stroke-width:0.01;stroke-linecap:butt;stroke-linejoin:miter;stroke:rgb(12.3%,88.7%,99.2%);stroke-opacity:1;stroke-miterlimit:10;" d="M 0.771 0.356 C 0.629 0.446 0.425 0.438 0.103 0.336 " transform="matrix(500,0,0,500,0,0)"/>
<path style="fill:none;stroke-width:0.01;stroke-linecap:butt;stroke-linejoin:miter;stroke:rgb(24.2%,47.3%,36.1%);stroke-opacity:1;stroke-miterlimit:10;" d="M 0.103 0.336 C 0.51 0.925 0.579 0.37 0.656 0.778 " transform="matrix(500,0,0,500,0,0)"/>
<path style="fill:none;stroke-width:0.01;stroke-linecap:butt;stroke-linejoin:miter;stroke:rgb(24.6%,46.8%,45.5%);stroke-opacity:1;stroke-miterlimit:10;" d="M 0.656 0.778 C 0.428 0.384 0.136 0.854 0.037 0.055 " transform="matrix(500,0,0,500,0,0)"/>
<path style="fill:none;stroke-width:0.01;stroke-linecap:butt;stroke-linejoin:miter;stroke:rgb(3.1%,89.8%,93.1%);stroke-opacity:1;stroke-miterlimit:10;" d="M 0.037 0.055 C 0.459 0.071 0.061 0.768 0.099 0.731 " transform="matrix(500,0,0,500,0,0)"/>
<path style="fill:none;stroke-width:0.01;stroke-linecap:butt;stroke-linejoin:miter;stroke:rgb(72.6%,0.5%,95.6%);stroke-opacity:1;stroke-miterlimit:10;" d="M 0.099 0.731 C 0.898 0.717 0.768 0.797 0.966 0.805 " transform="matrix(500,0,0,500,0,0)"/>
<path style="fill:none;stroke-width:0.01;stroke-linecap:butt;stroke-linejoin:miter;stroke:rgb(74.5%,74%,83.4%);stroke-opacity:1;stroke-miterlimit:10;" d="M 0.966 0.805 C 0.023 0.701 0.69 0.312 0.107 0.995 " transform="matrix(500,0,0,500,0,0)"/>
<path style="fill:none;stroke-width:0.01;stroke-linecap:butt;stroke-linejoin:miter;stroke:rgb(90.8%,4.7%,70.6%);stroke-opacity:1;stroke-miterlimit:10;" d="M 0.107 0.995 C 0.121 0.756 0.115 0.57 0.428 0.366 " transform="matrix(500,0,0,500,0,0)"/>
<path style="fill:none;stroke-width:0.01;stroke-linecap:butt;stroke-linejoin:miter;stroke:rgb(86.1%,88.8%,91.9%);stroke-opacity:1;stroke-miterlimit:10;" d="M 0.428 0.366 C 0.013 0.837 0.65 0.113 0.596 0.209 " transform="matrix(500,0,0,500,0,0)"/>
<path style="fill:none;stroke-width:0.01;stroke-linecap:butt;stroke-linejoin:miter;stroke:rgb(24%,45%,53.7%);stroke-opacity:1;stroke-miterlimit:10;" d="M 0.596 0.209 C 0.5 0.848 0.701 0.897 0.469 0.338 " transform="matrix(500,0,0,500,0,0)"/>
<path style="fill:none;stroke-width:0.01;stroke-linecap:butt;stroke-linejoin:miter;stroke:rgb(44.8%,8.4%,36%);stroke-opacity:1;stroke-miterlimit:10;" d="M 0.469 0.338 C 0.595 0.487 0.529 0.205 0.282 0.431 " transform="matrix(500,0,0,500,0,0)"/>
<path style="fill:none;stroke-width:0.01;stroke-linecap:butt;stroke-linejoin:miter;stroke:rgb(54.7%,65.3%,98.9%);stroke-opacity:1;stroke-miterlimit:10;" d="M 0.282 0.431 C 0.644 0.731 0.024 0.603 0.834 0.624 " transform="matrix(500,0,0,500,0,0)"/>
<path style="fill:none;stroke-width:0.01;stroke-linecap:butt;stroke-linejoin:miter;stroke:rgb(16.5%,8.2%,12.5%);stroke-opacity:1;stroke-miterlimit:10;" d="M 0.834 0.624 C 0.051 0.952 0.91 0.428 0.957 0.782 " transform="matrix(500,0,0,500,0,0)"/>
<path style="fill:none;stroke-width:0.01;stroke-linecap:butt;stroke-linejoin:miter;stroke:rgb(46.2%,98.8%,52%);stroke-opacity:1;stroke-miterlimit:10;" d="M 0.957 0.782 C 0.255 0.796 0.507 0.758 0.85 0.152 " transform="matrix(500,0,0,500,0,0)"/>
<path style="fill:none;stroke-width:0.01;stroke-linecap:butt;stroke-linejoin:miter;stroke:rgb(24.7%,84.5%,44.5%);stroke-opacity:1;stroke-miterlimit:10;" d="M 0.85 0.152 C 0.858 0.454 0.131 0.646 0.321 0.756 " transform="matrix(500,0,0,500,0,0)"/>
<path style="fill:none;stroke-width:0.01;stroke-linecap:butt;stroke-linejoin:miter;stroke:rgb(82.7%,66.2%,1.4%);stroke-opacity:1;stroke-miterlimit:10;" d="M 0.321 0.756 C 0.077 0.487 0.187 0.621 0.544 0.503 " transform="matrix(500,0,0,500,0,0)"/>
<path style="fill:none;stroke-width:0.01;stroke-linecap:butt;stroke-linejoin:miter;stroke:rgb(31.1%,35.6%,54.1%);stroke-opacity:1;stroke-miterlimit:10;" d="M 0.544 0.503 C 0.932 0.399 0.698 0.942 0.282 0.005 " transform="matrix(500,0,0,500,0,0)"/>
<path style="fill:none;stroke-width:0.01;stroke-linecap:butt;stroke-linejoin:miter;stroke:rgb(51%,15.6%,40.8%);stroke-opacity:1;stroke-miterlimit:10;" d="M 0.282 0.005 C 0.767 0.503 0.654 0.99 0.195 0.304 " transform="matrix(500,0,0,500,0,0)"/>
<path style="fill:none;stroke-width:0.01;stroke-linecap:butt;stroke-linejoin:miter;stroke:rgb(38.6%,6%,34.9%);stroke-opacity:1;stroke-miterlimit:10;" d="M 0.195 0.304 C 0.84 0.654 0.263 0.329 0.421 0.946 " transform="matrix(500,0,0,500,0,0)"/>
<path style="fill:none;stroke-width:0.01;stroke-linecap:butt;stroke-linejoin:miter;stroke:rgb(44.6%,86%,61.6%);stroke-opacity:1;stroke-miterlimit:10;" d="M 0.421 0.946 C 0.191 0.752 0.519 0.129 0.089 0.695 " transform="matrix(500,0,0,500,0,0)"/>
<path style="fill:none;stroke-width:0.01;stroke-linecap:butt;stroke-linejoin:miter;stroke:rgb(51.8%,18%,65.9%);stroke-opacity:1;stroke-miterlimit:10;" d="M 0.089 0.695 C 0.239 0.567 0.546 0.485 0.02 0.722 " transform="matrix(500,0,0,500,0,0)"/>
<path style="fill:none;stroke-width:0.01;stroke-linecap:butt;stroke-linejoin:miter;stroke:rgb(48.7%,65.1%,73%);stroke-opacity:1;stroke-miterlimit:10;" d="M 0.02 0.722 C 0.678 0.969 0.01 0.481 0.896 0.251 " transform="matrix(500,0,0,500,0,0)"/>
<path style="fill:none;stroke-width:0.01;stroke-linecap:butt;stroke-linejoin:miter;stroke:rgb(72.1%,57%,65.1%);stroke-opacity:1;stroke-miterlimit:10;" d="M 0.896 0.251 C 0.804 0.31 0.759 0.326 0.206 0.789 " transform="matrix(500,0,0,500,0,0)"/>
<path style="fill:none;stroke-width:0.01;stroke-linecap:butt;stroke-linejoin:miter;stroke:rgb(71.5%,96.4%,8%);stroke-opacity:1;stroke-miterlimit:10;" d="M 0.206 0.789 C 0.671 0.274 0.406 0.454 0.858 0.585 " transform="matrix(500,0,0,500,0,0)"/>
<path style="fill:none;stroke-width:0.01;stroke-linecap:butt;stroke-linejoin:miter;stroke:rgb(28.2%,54.1%,23.9%);stroke-opacity:1;stroke-miterlimit:10;" d="M 0.858 0.585 C 0.589 0.446 0.501 0.336 0.244 0.181 " transform="matrix(500,0,0,500,0,0)"/>
<path style="fill:none;stroke-width:0.01;stroke-linecap:butt;stroke-linejoin:miter;stroke:rgb(81.1%,46%,10.7%);stroke-opacity:1;stroke-miterlimit:10;" d="M 0.244 0.181 C 0.495 0.403 0.013 0.415 0.959 0.445 " transform="matrix(500,0,0,500,0,0)"/>
<path style="fill:none;stroke-width:0.01;stroke-linecap:butt;stroke-linejoin:miter;stroke:rgb(19.1%,18.9%,87.1%);stroke-opacity:1;stroke-miterlimit:10;" d="M 0.959 0.445 C 0.743 0.971 0.575 0.914 0.454 0.734 " transform="matrix(500,0,0,500,0,0)"/>
<path style="fill:none;stroke-width:0.01;stroke-linecap:butt;stroke-linejoin:miter;stroke:rgb(63.5%,16.3%,19.2%);stroke-opacity:1;stroke-miterlimit:10;" d="M 0.454 0.734 C 0.457 0.812 0.262 0.327 0.116 0.594 " transform="matrix(500,0,0,500,0,0)"/>
<path style="fill:none;stroke-width:0.01;stroke-linecap:butt;stroke-linejoin:miter;stroke:rgb(1.6%,78.9%,17.5%);stroke-opacity:1;stroke-miterlimit:10;" d="M 0.116 0.594 C 0.072 0.41 0.771 0.032 0.332 0.44 " transform="matrix(500,0,0,500,0,0)"/>
<path style="fill:none;stroke-width:0.01;stroke-linecap:butt;stroke-linejoin:miter;stroke:rgb(59.1%,25.4%,14.5%);stroke-opacity:1;stroke-miterlimit:10;" d="M 0.332 0.44 C 0.193 0.14 0.933 0.886 0.836 0.503 " transform="matrix(500,0,0,500,0,0)"/>
<path style=" stroke:none;fill-rule:nonzero;fill:rgb(86%,14.3%,95.5%);fill-opacity:0.5;" d="M 435 43.5 L 365.5 29 L 390 96.5 L 435 43.5 "/>
<path style=" stroke:none;fill-rule:nonzero;fill:rgb(85.6%,70.5%,73.2%);fill-opacity:0.5;" d="M 253 432.5 L 192 417.5 L 170.5 364.5 L 253 432.5 "/>
<path style=" stroke:none;fill-rule:nonzero;fill:rgb(21.2%,68.4%,4.8%);fill-opacity:0.5;" d="M 92.5 249 L 152.5 262 L 151.5 334.5 L 92.5 249 "/>
<path style=" stroke:none;fill-rule:nonzero;fill:rgb(27%,19%,69.3%);fill-opacity:0.5;" d="M 286.5 169.5 L 217 158 L 203 227.5 L 286.5 169.5 "/>
<path style=" stroke:none;fill-rule:nonzero;fill:rgb(59.6%,60.8%,87.6%);fill-opacity:0.5;" d="M 289 301.5 L 223 279.5 L 206.5 223 L 289 301.5 "/>
<path style=" stroke:none;fill-rule:nonzero;fill:rgb(81.5%,92.3%,60.8%);fill-opacity:0.5;" d="M 366 494.5 L 299.5 516 L 289 455 L 366 494.5 "/>
<path style=" stroke:none;fill-rule:nonzero;fill:rgb(76.3%,75.5%,57.4%);fill-opacity:0.5;" d="M 411.5 32.5 L 338.5 25 L 327.5 80.5 L 411.5 32.5 "/>
<path style=" stroke:none;fill-rule:nonzero;fill:rgb(35.1%,96.4%,6.8%);fill-opacity:0.5;" d="M 324.5 52.5 L 258.5 39.5 L 280 114.5 L 324.5 52.5 "/>
<path style=" stroke:none;fill-rule:nonzero;fill:rgb(40.6%,49.5%,51.6%);fill-opacity:0.5;" d="M 89 423 L 160.5 435.5 L 140 361.5 L 89 423 "/>
<path style=" stroke:none;fill-rule:nonzero;fill:rgb(6.5%,29%,83.4%);fill-opacity:0.5;" d="M 302 403.5 L 229.5 414.5 L 242 344.5 L 302 403.5 "/>
<path style=" stroke:none;fill-rule:nonzero;fill:rgb(94.6%,13%,96.9%);fill-opacity:0.5;" d="M 468.5 127 L 400 146 L 418.5 205.5 L 468.5 127 "/>
<path style=" stroke:none;fill-rule:nonzero;fill:rgb(47.2%,74.6%,42.4%);fill-opacity:0.5;" d="M 104 374 L 158.5 399 L 162 345.5 L 104 374 "/>
<path style=" stroke:none;fill-rule:nonzero;fill:rgb(93.7%,37.7%,65.4%);fill-opacity:0.5;" d="M 44 90 L 113.5 86.5 L 126 143 L 44 90 "/>
<path style=" stroke:none;fill-rule:nonzero;fill:rgb(20.3%,76.2%,34%);fill-opacity:0.5;" d="M 322.5 376 L 266 389.5 L 265 322 L 322.5 376 "/>
<path style=" stroke:none;fill-rule:nonzero;fill:rgb(66.7%,57.3%,43.3%);fill-opacity:0.5;" d="M 339 79.5 L 278.5 100 L 258.5 167 L 339 79.5 "/>
<path style=" stroke:none;fill-rule:nonzero;fill:rgb(23.6%,63.8%,12%);fill-opacity:0.5;" d="M 179 19 L 241.5 6 L 247 65.5 L 179 19 "/>
<path style=" stroke:none;fill-rule:nonzero;fill:rgb(87.1%,48%,49.9%);fill-opacity:0.5;" d="M 174.5 466.5 L 225.5 444.5 L 239.5 373.5 L 174.5 466.5 "/>
<path style=" stroke:none;fill-rule:nonzero;fill:rgb(40%,59.6%,15.8%);fill-opacity:0.5;" d="M 464.5 292 L 406 300.5 L 427 248 L 464.5 292 "/>
<path style=" stroke:none;fill-rule:nonzero;fill:rgb(91.4%,94.6%,75.4%);fill-opacity:0.5;" d="M 135 417.5 L 205.5 402.5 L 216.5 328 L 135 417.5 "/>
<path style=" stroke:none;fill-rule:nonzero;fill:rgb(50.8%,1.4%,97.7%);fill-opacity:0.5;" d="M 373 179 L 320.5 184 L 301 253.5 L 373 179 "/>
<path style=" stroke:none;fill-rule:nonzero;fill:rgb(56.5%,39.5%,10.6%);fill-opacity:0.5;" d="M 305 138 L 253 144 L 244 212 L 305 138 "/>
<path style=" stroke:none;fill-rule:nonzero;fill:rgb(76.3%,66.1%,55.1%);fill-opacity:0.5;" d="M 71.5 385 L 124.5 400.5 L 138 346.5 L 71.5 385 "/>
<path style=" stroke:none;fill-rule:nonzero;fill:rgb(20%,14.5%,58%);fill-opacity:0.5;" d="M 408.5 26.5 L 334 23 L 310 93.5 L 408.5 26.5 "/>
<path style=" stroke:none;fill-rule:nonzero;fill:rgb(44.3%,2.8%,21.3%);fill-opacity:0.5;" d="M 17 279 L 91.5 267 L 97.5 212 L 17 279 "/>
<path style=" stroke:none;fill-rule:nonzero;fill:rgb(73.5%,77.8%,29.4%);fill-opacity:0.5;" d="M 429 237.5 L 373 235.5 L 355 289 L 429 237.5 "/>
<path style="fill:none;stroke-width:0.002;stroke-linecap:butt;stroke-linejoin:miter;stroke:rgb(39.5%,89.2%,18.8%);stroke-opacity:1;stroke-miterlimit:10;" d="M 0.056 0.107 L 0.328 0.918 " transform="matrix(500,0,0,500,0,0)"/>
<path style="fill:none;stroke-width:0.002;stroke-linecap:butt;stroke-linejoin:miter;stroke:rgb(51.1%,54.1%,14.4%);stroke-opacity:1;stroke-miterlimit:10;" d="M 0.768 0.004 L 0.855 0.611 " transform="matrix(500,0,0,500,0,0)"/>
<path style="fill:none;stroke-width:0.002;stroke-linecap:butt;stroke-linejoin:miter;stroke:rgb(76%,23.9%,53%);stroke-opacity:1;stroke-miterlimit:10;" d="M 0.081 0.73 L 0.216 0.283 " transform="matrix(500,0,0,500,0,0)"/>
<path style="fill:none;stroke-width:0.002;stroke-linecap:butt;stroke-linejoin:miter;stroke:rgb(34.1%,38.4%,70.1%);stroke-opacity:1;stroke-miterlimit:10;" d="M 0.751 0.815 L 0.021 0.591 " transform="matrix(500,0,0,500,0,0)"/>
<path style="fill:none;stroke-width:0.002;stroke-linecap:butt;stroke-linejoin:miter;stroke:rgb(87%,63.4%,84%);stroke-opacity:1;stroke-miterlimit:10;" d="M 0.105 0.898 L 0.382 0.335 " transform="matrix(500,0,0,500,0,0)"/>
<path style="fill:none;stroke-width:0.002;stroke-linecap:butt;stroke-linejoin:miter;stroke:rgb(84.6%,15.8%,7.8%);stroke-opacity:1;stroke-miterlimit:10;" d="M 0.388 0.821 L 0.23 0.977 " transform="matrix(500,0,0,500,0,0)"/>
<path style="fill:none;stroke-width:0.002;stroke-linecap:butt;stroke-linejoin:miter;stroke:rgb(32.1%,71.2%,22.5%);stroke-opacity:1;stroke-miterlimit:10;" d="M 0.552 0.111 L 0.242 0.058 " transform="matrix(500,0,0,500,0,0)"/>
<path style="fill:none;stroke-width:0.002;stroke-linecap:butt;stroke-linejoin:miter;stroke:rgb(46.6%,55.8%,4%);stroke-opacity:1;stroke-miterlimit:10;" d="M 0.583 0.085 L 0.391 0.416 " transform="matrix(500,0,0,500,0,0)"/>
<path style="fill:none;stroke-width:0.002;stroke-linecap:butt;stroke-linejoin:miter;stroke:rgb(97.7%,98.7%,29.3%);stroke-opacity:1;stroke-miterlimit:10;" d="M 0.461 0.529 L 0.46 0.499 " transform="matrix(500,0,0,500,0,0)"/>
<path style="fill:none;stroke-width:0.002;stroke-linecap:butt;stroke-linejoin:miter;stroke:rgb(94.1%,73.3%,3.2%);stroke-opacity:1;stroke-miterlimit:10;" d="M 0.354 0.6 L 0.058 0.394 " transform="matrix(500,0,0,500,0,0)"/>
<path style="fill:none;stroke-width:0.002;stroke-linecap:butt;stroke-linejoin:miter;stroke:rgb(22.9%,68.7%,56.4%);stroke-opacity:1;stroke-miterlimit:10;" d="M 0.193 0.873 L 0.404 0.855 " transform="matrix(500,0,0,500,0,0)"/>
<path style="fill:none;stroke-width:0.002;stroke-linecap:butt;stroke-linejoin:miter;stroke:rgb(60.9%,76%,42%);stroke-opacity:1;stroke-miterlimit:10;" d="M 0.099 0.728 L 0.643 0.201 " transform="matrix(500,0,0,500,0,0)"/>
<path style="fill:none;stroke-width:0.002;stroke-linecap:butt;stroke-linejoin:miter;stroke:rgb(21%,95.1%,87.2%);stroke-opacity:1;stroke-miterlimit:10;" d="M 0.001 0.644 L 0.274 0.385 " transform="matrix(500,0,0,500,0,0)"/>
<path style="fill:none;stroke-width:0.002;stroke-linecap:butt;stroke-linejoin:miter;stroke:rgb(91.4%,9%,11.8%);stroke-opacity:1;stroke-miterlimit:10;" d="M 0.294 0.022 L 0.067 0.43 " transform="matrix(500,0,0,500,0,0)"/>
<path style="fill:none;stroke-width:0.002;stroke-linecap:butt;stroke-linejoin:miter;stroke:rgb(67.3%,40.8%,21.6%);stroke-opacity:1;stroke-miterlimit:10;" d="M 0.993 0.964 L 0.875 0.217 " transform="matrix(500,0,0,500,0,0)"/>
<path style="fill:none;stroke-width:0.002;stroke-linecap:butt;stroke-linejoin:miter;stroke:rgb(40.2%,36.5%,81.1%);stroke-opacity:1;stroke-miterlimit:10;" d="M 0.995 0.387 L 0.511 0.636 " transform="matrix(500,0,0,500,0,0)"/>
<path style="fill:none;stroke-width:0.002;stroke-linecap:butt;stroke-linejoin:miter;stroke:rgb(0%,33.5%,20%);stroke-opacity:1;stroke-miterlimit:10;" d="M 0.09 0.22 L 0.635 0.563 " transform="matrix(500,0,0,500,0,0)"/>
<path style="fill:none;stroke-width:0.002;stroke-linecap:butt;stroke-linejoin:miter;stroke:rgb(10.3%,1.1%,11.1%);stroke-opacity:1;stroke-miterlimit:10;" d="M 0.277 0.327 L 0.111 0.426 " transform="matrix(500,0,0,500,0,0)"/>
<path style="fill:none;stroke-width:0.002;stroke-linecap:butt;stroke-linejoin:miter;stroke:rgb(62.3%,49%,96.9%);stroke-opacity:1;stroke-miterlimit:10;" d="M 0.406 0.403 L 0.944 0.479 " transform="matrix(500,0,0,500,0,0)"/>
<path style="fill:none;stroke-width:0.002;stroke-linecap:butt;stroke-linejoin:miter;stroke:rgb(45.1%,97.7%,12.3%);stroke-opacity:1;stroke-miterlimit:10;" d="M 0.847 0.298 L 0.467 0.84 " transform="matrix(500,0,0,500,0,0)"/>
<path style="fill:none;stroke-width:0.002;stroke-linecap:butt;stroke-linejoin:miter;stroke:rgb(2.8%,56.2%,93.1%);stroke-opacity:1;stroke-miterlimit:10;" d="M 0.204 0.238 L 0.116 0.873 " transform="matrix(500,0,0,500,0,0)"/>
<path style="fill:none;stroke-width:0.002;stroke-linecap:butt;stroke-linejoin:miter;stroke:rgb(18.9%,19.5%,5.9%);stroke-opacity:1;stroke-miterlimit:10;" d="M 0.751 0.122 L 0.769 0.398 " transform="matrix(500,0,0,500,0,0)"/>
<path style="fill:none;stroke-width:0.002;stroke-linecap:butt;stroke-linejoin:miter;stroke:rgb(47.9%,35.8%,37.6%);stroke-opacity:1;stroke-miterlimit:10;" d="M 0.695 0.106 L 0.368 0.078 " transform="matrix(500,0,0,500,0,0)"/>
<path style="fill:none;stroke-width:0.002;stroke-linecap:butt;stroke-linejoin:miter;stroke:rgb(24%,82.5%,19.9%);stroke-opacity:1;stroke-miterlimit:10;" d="M 0.928 0.105 L 0.632 0.204 " transform="matrix(500,0,0,500,0,0)"/>
<path style="fill:none;stroke-width:0.002;stroke-linecap:butt;stroke-linejoin:miter;stroke:rgb(5.4%,89.8%,36.8%);stroke-opacity:1;stroke-miterlimit:10;" d="M 0.931 0.183 L 0.808 0.17 " transform="matrix(500,0,0,500,0,0)"/>
<path style="fill:none;stroke-width:0.002;stroke-linecap:butt;stroke-linejoin:miter;stroke:rgb(64.1%,94.6%,51.6%);stroke-opacity:1;stroke-miterlimit:10;" d="M 0.899 0.715 L 0.936 0.448 " transform="matrix(500,0,0,500,0,0)"/>
<path style="fill:none;stroke-width:0.002;stroke-linecap:butt;stroke-linejoin:miter;stroke:rgb(8.6%,48%,37.8%);stroke-opacity:1;stroke-miterlimit:10;" d="M 0.614 0.454 L 0.454 0.467 " transform="matrix(500,0,0,500,0,0)"/>
<path style="fill:none;stroke-width:0.002;stroke-linecap:butt;stroke-linejoin:miter;stroke:rgb(9.1%,22.6%,55.5%);stroke-opacity:1;stroke-miterlimit:10;" d="M 0.403 0.631 L 0.884 0.033 " transform="matrix(500,0,0,500,0,0)"/>
<path style="fill:none;stroke-width:0.002;stroke-linecap:butt;stroke-linejoin:miter;stroke:rgb(60.4%,44.6%,94.1%);stroke-opacity:1;stroke-miterlimit:10;" d="M 0.657 0.618 L 0.354 0.284 " transform="matrix(500,0,0,500,0,0)"/>
<path style="fill:none;stroke-width:0.002;stroke-linecap:butt;stroke-linejoin:miter;stroke:rgb(1.3%,15.8%,65%);stroke-opacity:1;stroke-miterlimit:10;" d="M 0.808 0.948 L 0.823 0.319 " transform="matrix(500,0,0,500,0,0)"/>
<path style="fill:none;stroke-width:0.002;stroke-linecap:butt;stroke-linejoin:miter;stroke:rgb(56.5%,53.5%,2.1%);stroke-opacity:1;stroke-miterlimit:10;" d="M 0.317 0.331 L 0.626 0.75 " transform="matrix(500,0,0,500,0,0)"/>
<path style="fill:none;stroke-width:0.002;stroke-linecap:butt;stroke-linejoin:miter;stroke:rgb(84.4%,94.8%,24.5%);stroke-opacity:1;stroke-miterlimit:10;" d="M 0.817 0.094 L 0.748 0.322 " transform="matrix(500,0,0,500,0,0)"/>
<path style="fill:none;stroke-width:0.002;stroke-linecap:butt;stroke-linejoin:miter;stroke:rgb(41.7%,65.5%,83.1%);stroke-opacity:1;stroke-miterlimit:10;" d="M 0.103 0.08 L 0.517 0.312 " transform="matrix(500,0,0,500,0,0)"/>
<path style="fill:none;stroke-width:0.002;stroke-linecap:butt;stroke-linejoin:miter;stroke:rgb(57.2%,23.6%,56.4%);stroke-opacity:1;stroke-miterlimit:10;" d="M 0.503 0.313 L 0.226 0.071 " transform="matrix(500,0,0,500,0,0)"/>
<path style="fill:none;stroke-width:0.002;stroke-linecap:butt;stroke-linejoin:miter;stroke:rgb(50.1%,75.8%,95.5%);stroke-opacity:1;stroke-miterlimit:10;" d="M 0.484 0.828 L 0.008 0.763 " transform="matrix(500,0,0,500,0,0)"/>
<path style="fill:none;stroke-width:0.002;stroke-linecap:butt;stroke-linejoin:miter;stroke:rgb(57.8%,43.2%,76%);stroke-opacity:1;stroke-miterlimit:10;" d="M 0.797 0.024 L 0.122 0.081 " transform="matrix(500,0,0,500,0,0)"/>
<path style="fill:none;stroke-width:0.002;stroke-linecap:butt;stroke-linejoin:miter;stroke:rgb(29.2%,16.1%,56.2%);stroke-opacity:1;stroke-miterlimit:10;" d="M 0.728 0.873 L 0.365 0.358 " transform="matrix(500,0,0,500,0,0)"/>
<path style="fill:none;stroke-width:0.002;stroke-linecap:butt;stroke-linejoin:miter;stroke:rgb(51.1%,59.1%,97.3%);stroke-opacity:1;stroke-miterlimit:10;" d="M 0.704 0.209 L 0.034 0.082 " transform="matrix(500,0,0,500,0,0)"/>
<path style="fill:none;stroke-width:0.002;stroke-linecap:butt;stroke-linejoin:miter;stroke:rgb(82.7%,53.2%,94.8%);stroke-opacity:1;stroke-miterlimit:10;" d="M 0.021 0.378 L 0.091 0.147 " transform="matrix(500,0,0,500,0,0)"/>
<path style="fill:none;stroke-width:0.002;stroke-linecap:butt;stroke-linejoin:miter;stroke:rgb(13.7%,43.4%,83.3%);stroke-opacity:1;stroke-miterlimit:10;" d="M 0.754 0.475 L 0.063 0.173 " transform="matrix(500,0,0,500,0,0)"/>
<path style="fill:none;stroke-width:0.002;stroke-linecap:butt;stroke-linejoin:miter;stroke:rgb(85.3%,71.6%,5.5%);stroke-opacity:1;stroke-miterlimit:10;" d="M 0.746 0.789 L 0.31 0.402 " transform="matrix(500,0,0,500,0,0)"/>
<path style="fill:none;stroke-width:0.002;stroke-linecap:butt;stroke-linejoin:miter;stroke:rgb(9.2%,19.9%,24.6%);stroke-opacity:1;stroke-miterlimit:10;" d="M 0.81 0.448 L 0.464 0.449 " transform="matrix(500,0,0,500,0,0)"/>
<path style="fill:none;stroke-width:0.002;stroke-linecap:butt;stroke-linejoin:miter;stroke:rgb(55.4%,22.8%,65%);stroke-opacity:1;stroke-miterlimit:10;" d="M 0.369 0.339 L 0.201 0.942 " transform="matrix(500,0,0,500,0,0)"/>
<path style="fill:none;stroke-width:0.002;stroke-linecap:butt;stroke-linejoin:miter;stroke:rgb(19.5%,90.3%,85.9%);stroke-opacity:1;stroke-miterlimit:10;" d="M 0.094 0.62 L 0.3 0.031 " transform="matrix(500,0,0,500,0,0)"/>
<path style="fill:none;stroke-width:0.002;stroke-linecap:butt;stroke-linejoin:miter;stroke:rgb(1.4%,67.3%,91.3%);stroke-opacity:1;stroke-miterlimit:10;" d="M 0.988 0.705 L 0.958 0.523 " transform="matrix(500,0,0,500,0,0)"/>
<path style="fill:none;stroke-width:0.002;stroke-linecap:butt;stroke-linejoin:miter;stroke:rgb(53%,81.2%,66.2%);stroke-opacity:1;stroke-miterlimit:10;" d="M 0.874 0.312 L 0.765 0.781 " transform="matrix(500,0,0,500,0,0)"/>
<path style="fill:none;stroke-width:0.002;stroke-linecap:butt;stroke-linejoin:miter;stroke:rgb(80.4%,50.7%,47.4%);stroke-opacity:1;stroke-miterlimit:10;" d="M 0.12 0.746 L 0.793 0.371 " transform="matrix(500,0,0,500,0,0)"/>
<path style="fill:none;stroke-width:0.002;stroke-linecap:butt;stroke-linejoin:miter;stroke:rgb(4.8%,18.5%,21.8%);stroke-opacity:1;stroke-miterlimit:10;" d="M 0.321 0.632 L 0.403 0.687 " transform="matrix(500,0,0,500,0,0)"/>
<path style="fill:none;stroke-width:0.002;stroke-linecap:butt;stroke-linejoin:miter;stroke:rgb(55.7%,23.3%,91.5%);stroke-opacity:1;stroke-miterlimit:10;" d="M 0.327 0.457 L 0.905 0.72 " transform="matrix(500,0,0,500,0,0)"/>
<path style="fill:none;stroke-width:0.002;stroke-linecap:butt;stroke-linejoin:miter;stroke:rgb(13.8%,80.7%,85.6%);stroke-opacity:1;stroke-miterlimit:10;" d="M 0.969 0.741 L 0.298 0.229 " transform="matrix(500,0,0,500,0,0)"/>
<path style="fill:none;stroke-width:0.002;stroke-linecap:butt;stroke-linejoin:miter;stroke:rgb(51.4%,27.7%,56.2%);stroke-opacity:1;stroke-miterlimit:10;" d="M 0.07 0.45 L 0.026 0.234 " transform="matrix(500,0,0,500,0,0)"/>
<path style="fill:none;stroke-width:0.002;stroke-linecap:butt;stroke-linejoin:miter;stroke:rgb(50.4%,76.2%,1.2%);stroke-opacity:1;stroke-miterlimit:10;" d="M 0.603 0.105 L 0.058 0.157 " transform="matrix(500,0,0,500,0,0)"/>
<path style="fill:none;stroke-width:0.002;stroke-linecap:butt;stroke-linejoin:miter;stroke:rgb(12.1%,64.8%,29.2%);stroke-opacity:1;stroke-miterlimit:10;" d="M 0.578 0.089 L 0.744 0.337 " transform="matrix(500,0,0,500,0,0)"/>
<path style="fill:none;stroke-width:0.002;stroke-linecap:butt;stroke-linejoin:miter;stroke:rgb(44.9%,29.8%,32.5%);stroke-opacity:1;stroke-miterlimit:10;" d="M 0.544 0.778 L 0.535 0.31 " transform="matrix(500,0,0,500,0,0)"/>
<path style="fill:none;stroke-width:0.002;stroke-linecap:butt;stroke-linejoin:miter;stroke:rgb(66.4%,16.3%,41.2%);stroke-opacity:1;stroke-miterlimit:10;" d="M 0.928 0.435 L 0.996 1 " transform="matrix(500,0,0,500,0,0)"/>
<path style="fill:none;stroke-width:0.002;stroke-linecap:butt;stroke-linejoin:miter;stroke:rgb(37.1%,42.4%,71.2%);stroke-opacity:1;stroke-miterlimit:10;" d="M 0.363 0.508 L 0.397 0.038 " transform="matrix(500,0,0,500,0,0)"/>
<path style="fill:none;stroke-width:0.002;stroke-linecap:butt;stroke-linejoin:miter;stroke:rgb(12.3%,26.3%,38.4%);stroke-opacity:1;stroke-miterlimit:10;" d="M 0.777 0.658 L 0.044 0.368 " transform="matrix(500,0,0,500,0,0)"/>
<path style="fill:none;stroke-width:0.002;stroke-linecap:butt;stroke-linejoin:miter;stroke:rgb(31.8%,26.8%,71.7%);stroke-opacity:1;stroke-miterlimit:10;" d="M 0.422 0.544 L 0.217 0.995 " transform="matrix(500,0,0,500,0,0)"/>
<path style="fill:none;stroke-width:0.002;stroke-linecap:butt;stroke-linejoin:miter;stroke:rgb(18.5%,70.1%,2.2%);stroke-opacity:1;stroke-miterlimit:10;" d="M 0.349 0.398 L 0.914 0.459 " transform="matrix(500,0,0,500,0,0)"/>
<path style="fill:none;stroke-width:0.002;stroke-linecap:butt;stroke-linejoin:miter;stroke:rgb(60.8%,66.7%,95.3%);stroke-opacity:1;stroke-miterlimit:10;" d="M 0.265 0.335 L 0.16 0.718 " transform="matrix(500,0,0,500,0,0)"/>
<path style="fill:none;stroke-width:0.002;stroke-linecap:butt;stroke-linejoin:miter;stroke:rgb(45.1%,94%,56%);stroke-opacity:1;stroke-miterlimit:10;" d="M 0.858 0.312 L 0.52 0.35 " transform="matrix(500,0,0,500,0,0)"/>
<path style="fill:none;stroke-width:0.002;stroke-linecap:butt;stroke-linejoin:miter;stroke:rgb(6.9%,72.5%,5.1%);stroke-opacity:1;stroke-miterlimit:10;" d="M 0.185 0.309 L 0.92 0.129 " transform="matrix(500,0,0,500,0,0)"/>
<path style="fill:none;stroke-width:0.002;stroke-linecap:butt;stroke-linejoin:miter;stroke:rgb(49.2%,67.8%,49.7%);stroke-opacity:1;stroke-miterlimit:10;" d="M 0.994 0.241 L 0.873 0.634 " transform="matrix(500,0,0,500,0,0)"/>
<path style="fill:none;stroke-width:0.002;stroke-linecap:butt;stroke-linejoin:miter;stroke:rgb(42.7%,46.1%,17.1%);stroke-opacity:1;stroke-miterlimit:10;" d="M 0.438 0.486 L 0.695 0.432 " transform="matrix(500,0,0,500,0,0)"/>
<path style="fill:none;stroke-width:0.002;stroke-linecap:butt;stroke-linejoin:miter;stroke:rgb(71.8%,23.1%,97.8%);stroke-opacity:1;stroke-miterlimit:10;" d="M 0.431 0.775 L 0.896 0.572 " transform="matrix(500,0,0,500,0,0)"/>
<path style="fill:none;stroke-width:0.002;stroke-linecap:butt;stroke-linejoin:miter;stroke:rgb(58.9%,70.8%,46.4%);stroke-opacity:1;stroke-miterlimit:10;" d="M 0.193 0.061 L 0.618 0.269 " transform="matrix(500,0,0,500,0,0)"/>
<path style="fill:none;stroke-width:0.002;stroke-linecap:butt;stroke-linejoin:miter;stroke:rgb(0.2%,47.7%,64.5%);stroke-opacity:1;stroke-miterlimit:10;" d="M 0.924 0.682 L 0.203 0.867 " transform="matrix(500,0,0,500,0,0)"/>
<path style="fill:none;stroke-width:0.002;stroke-linecap:butt;stroke-linejoin:miter;stroke:rgb(92.3%,79.5%,73.7%);stroke-opacity:1;stroke-miterlimit:10;" d="M 0.206 0.728 L 0.061 0.112 " transform="matrix(500,0,0,500,0,0)"/>
<path style="fill:none;stroke-width:0.002;stroke-linecap:butt;stroke-linejoin:miter;stroke:rgb(49.7%,15.9%,67.5%);stroke-opacity:1;stroke-miterlimit:10;" d="M 0.775 0.52 L 0.821 0.81 " transform="matrix(500,0,0,500,0,0)"/>
<path style="fill:none;stroke-width:0.002;stroke-linecap:butt;stroke-linejoin:miter;stroke:rgb(74.4%,91.1%,24.1%);stroke-opacity:1;stroke-miterlimit:10;" d="M 0.462 0.874 L 0.02 0.934 " transform="matrix(500,0,0,500,0,0)"/>
<path style="fill:none;stroke-width:0.002;stroke-linecap:butt;stroke-linejoin:miter;stroke:rgb(15.2%,89.8%,92.3%);stroke-opacity:1;stroke-miterlimit:10;" d="M 0.044 0.791 L 0.472 0.162 " transform="matrix(500,0,0,500,0,0)"/>
<path style="fill:none;stroke-width:0.002;stroke-linecap:butt;stroke-linejoin:miter;stroke:rgb(18.1%,86.5%,30.3%);stroke-opacity:1;stroke-miterlimit:10;" d="M 0.418 0.274 L 0.113 0.731 " transform="matrix(500,0,0,500,0,0)"/>
<path style="fill:none;stroke-width:0.002;stroke-linecap:butt;stroke-linejoin:miter;stroke:rgb(15.5%,29.1%,41.7%);stroke-opacity:1;stroke-miterlimit:10;" d="M 0.058 0.678 L 0.398 0.803 " transform="matrix(500,0,0,500,0,0)"/>
<path style="fill:none;stroke-width:0.002;stroke-linecap:butt;stroke-linejoin:miter;stroke:rgb(0.1%,64.4%,31.4%);stroke-opacity:1;stroke-miterlimit:10;" d="M 0.825 0.657 L 0.963 0.016 " transform="matrix(500,0,0,500,0,0)"/>
<path style="fill:none;stroke-width:0.002;stroke-linecap:butt;stroke-linejoin:miter;stroke:rgb(46.3%,59.5%,97.3%);stroke-opacity:1;stroke-miterlimit:10;" d="M 0.089 0.612 L 0.088 0.755 " transform="matrix(500,0,0,500,0,0)"/>
<path style="fill:none;stroke-width:0.002;stroke-linecap:butt;stroke-linejoin:miter;stroke:rgb(83.6%,2.5%,11.9%);stroke-opacity:1;stroke-miterlimit:10;" d="M 0.716 0.309 L 0.248 0.604 " transform="matrix(500,0,0,500,0,0)"/>
<path style="fill:none;stroke-width:0.002;stroke-linecap:butt;stroke-linejoin:miter;stroke:rgb(59.3%,76.3%,21.1%);stroke-opacity:1;stroke-miterlimit:10;" d="M 0.37 0.357 L 0.6 0.869 " transform="matrix(500,0,0,500,0,0)"/>
<path style="fill:none;stroke-width:0.002;stroke-linecap:butt;stroke-linejoin:miter;stroke:rgb(73.3%,20.2%,35.2%);stroke-opacity:1;stroke-miterlimit:10;" d="M 0.035 0.836 L 0.008 0.379 " transform="matrix(500,0,0,500,0,0)"/>
<path style="fill:none;stroke-width:0.002;stroke-linecap:butt;stroke-linejoin:miter;stroke:rgb(51.2%,24.3%,12%);stroke-opacity:1;stroke-miterlimit:10;" d="M 0.648 0.848 L 0.968 0.225 " transform="matrix(500,0,0,500,0,0)"/>
<path style="fill:none;stroke-width:0.002;stroke-linecap:butt;stroke-linejoin:miter;stroke:rgb(88.5%,82.5%,91%);stroke-opacity:1;stroke-miterlimit:10;" d="M 0.907 0.303 L 0.544 0.962 " transform="matrix(500,0,0,500,0,0)"/>
<path style="fill:none;stroke-width:0.002;stroke-linecap:butt;stroke-linejoin:miter;stroke:rgb(61.1%,99.3%,10.6%);stroke-opacity:1;stroke-miterlimit:10;" d="M 0.134 0.763 L 0.564 0.679 " transform="matrix(500,0,0,500,0,0)"/>
<path style="fill:none;stroke-width:0.002;stroke-linecap:butt;stroke-linejoin:miter;stroke:rgb(51.8%,39.1%,79.8%);stroke-opacity:1;stroke-miterlimit:10;" d="M 0.005 0.686 L 0.543 0.489 " transform="matrix(500,0,0,500,0,0)"/>
<path style="fill:none;stroke-width:0.002;stroke-linecap:butt;stroke-linejoin:miter;stroke:rgb(20.7%,53.4%,36.3%);stroke-opacity:1;stroke-miterlimit:10;" d="M 0.138 0.271 L 0.824 0.659 " transform="matrix(500,0,0,500,0,0)"/>
<path style="fill:none;stroke-width:0.002;stroke-linecap:butt;stroke-linejoin:miter;stroke:rgb(89.4%,4.8%,77.1%);stroke-opacity:1;stroke-miterlimit:10;" d="M 0.052 0.558 L 0.881 0.758 " transform="matrix(500,0,0,500,0,0)"/>
<path style="fill:none;stroke-width:0.002;stroke-linecap:butt;stroke-linejoin:miter;stroke:rgb(26.6%,57.7%,84%);stroke-opacity:1;stroke-miterlimit:10;" d="M 0.864 0.951 L 0.049 0.055 " transform="matrix(500,0,0,500,0,0)"/>
<path style="fill:none;stroke-width:0.002;stroke-linecap:butt;stroke-linejoin:miter;stroke:rgb(24.4%,38.4%,80.7%);stroke-opacity:1;stroke-miterlimit:10;" d="M 0.729 0.969 L 0.024 0.825 " transform="matrix(500,0,0,500,0,0)"/>
<path style="fill:none;stroke-width:0.002;stroke-linecap:butt;stroke-linejoin:miter;stroke:rgb(31.9%,82.8%,12.9%);stroke-opacity:1;stroke-miterlimit:10;" d="M 0.092 0.52 L 0.519 0.115 " transform="matrix(500,0,0,500,0,0)"/>
<path style="fill:none;stroke-width:0.002;stroke-linecap:butt;stroke-linejoin:miter;stroke:rgb(13.6%,77.4%,86.1%);stroke-opacity:1;stroke-miterlimit:10;" d="M 0.363 0.697 L 0.422 0.889 " transform="matrix(500,0,0,500,0,0)"/>
<path style="fill:none;stroke-width:0.002;stroke-linecap:butt;stroke-linejoin:miter;stroke:rgb(26.9%,83.2%,32.5%);stroke-opacity:1;stroke-miterlimit:10;" d="M 0.757 0.23 L 0.535 0.396 " transform="matrix(500,0,0,500,0,0)"/>
<path style="fill:none;stroke-width:0.002;stroke-linecap:butt;stroke-linejoin:miter;stroke:rgb(80.8%,43.4%,37.9%);stroke-opacity:1;stroke-miterlimit:10;" d="M 0.796 0.796 L 0.242 0.918 " transform="matrix(500,0,0,500,0,0)"/>
<path style="fill:none;stroke-width:0.002;stroke-linecap:butt;stroke-linejoin:miter;stroke:rgb(20.5%,8.1%,95%);stroke-opacity:1;stroke-miterlimit:10;" d="M 0.223 0.112 L 0.827 0.155 " transform="matrix(500,0,0,500,0,0)"/>
<path style="fill:none;stroke-width:0.002;stroke-linecap:butt;stroke-linejoin:miter;stroke:rgb(89.7%,23.7%,26.7%);stroke-opacity:1;stroke-miterlimit:10;" d="M 0.297 0.112 L 0.609 0.905 " transform="matrix(500,0,0,500,0,0)"/>
<path style="fill:none;stroke-width:0.002;stroke-linecap:butt;stroke-linejoin:miter;stroke:rgb(52.9%,32.6%,23.2%);stroke-opacity:1;stroke-miterlimit:10;" d="M 0.024 0.194 L 0.575 0.094 " transform="matrix(500,0,0,500,0,0)"/>
<path style="fill:none;stroke-width:0.002;stroke-linecap:butt;stroke-linejoin:miter;stroke:rgb(26.3%,99.4%,12.1%);stroke-opacity:1;stroke-miterlimit:10;" d="M 0.096 0.564 L 0.19 0.755 " transform="matrix(500,0,0,500,0,0)"/>
<path style="fill:none;stroke-width:0.002;stroke-linecap:butt;stroke-linejoin:miter;stroke:rgb(6.3%,22.7%,42.8%);stroke-opacity:1;stroke-miterlimit:10;" d="M 0.926 0.961 L 0.509 0.92 " transform="matrix(500,0,0,500,0,0)"/>
<path style="fill:none;stroke-width:0.002;stroke-linecap:butt;stroke-linejoin:miter;stroke:rgb(50.7%,88.9%,13.6%);stroke-opacity:1;stroke-miterlimit:10;" d="M 0.782 0.134 L 0.317 0.95 " transform="matrix(500,0,0,500,0,0)"/>
<path style="fill:none;stroke-width:0.002;stroke-linecap:butt;stroke-linejoin:miter;stroke:rgb(70.3%,67.4%,50.4%);stroke-opacity:1;stroke-miterlimit:10;" d="M 0.441 0.324 L 0.505 0.907 " transform="matrix(500,0,0,500,0,0)"/>
<path style="fill:none;stroke-width:0.002;stroke-linecap:butt;stroke-linejoin:miter;stroke:rgb(32.8%,45.9%,7.8%);stroke-opacity:1;stroke-miterlimit:10;" d="M 0.29 0.856 L 0.99 0.658 " transform="matrix(500,0,0,500,0,0)"/>
<path style="fill:none;stroke-width:0.002;stroke-linecap:butt;stroke-linejoin:miter;stroke:rgb(53.1%,23.8%,61%);stroke-opacity:1;stroke-miterlimit:10;" d="M 0.442 0.425 L 0.306 0.209 " transform="matrix(500,0,0,500,0,0)"/>
<path style="fill:none;stroke-width:0.002;stroke-linecap:butt;stroke-linejoin:miter;stroke:rgb(1.5%,73.2%,75.6%);stroke-opacity:1;stroke-miterlimit:10;" d="M 0.536 0.699 L 0.071 0.709 " transform="matrix(500,0,0,500,0,0)"/>
</g>
</defs>
<g id="surface314">
<use xlink:href="#surface317"/>
</g>
</svg>
