<?xml version="1.0" encoding="UTF-8"?>
<svg xmlns="http://www.w3.org/2000/svg" xmlns:xlink="http://www.w3.org/1999/xlink" width="500pt" height="500pt" viewBox="0 0 500 500" version="1.1">
<defs>
<clipPath id="clip1">
  <rect x="0" y="0" width="500" height="500"/>
</clipPath>
<g id="surface237" clip-path="url(#clip1)">
<rect x="0" y="0" width="500" height="500" style="fill:rgb(47.6%,50.2%,18.5%);fill-opacity:1;stroke:none;"/>
<path style=" stroke:none;fill-rule:nonzero;fill:rgb(96.9%,67.7%,76.2%);fill-opacity:1;" d="M 70.5 56 C 70.5 68.703125 60.203125 79 47.5 79 C 34.796875 79 24.5 68.703125 24.5 56 C 24.5 43.296875 34.796875 33 47.5 33 C 60.203125 33 70.5 43.296875 70.5 56 "/>
<path style=" stroke:none;fill-rule:nonzero;fill:rgb(90.7%,79.4%,89.6%);fill-opacity:1;" d="M 150 56 C 150 60.695312 146.195312 64.5 141.5 64.5 C 136.804688 64.5 133 60.695312 133 56 C 133 51.304688 136.804688 47.5 141.5 47.5 C 146.195312 47.5 150 51.304688 150 56 "/>
<path style=" stroke:none;fill-rule:nonzero;fill:rgb(56.4%,31.6%,62.3%);fill-opacity:1;" d="M 258.5 46 C 258.5 55.390625 250.890625 63 241.5 63 C 232.109375 63 224.5 55.390625 224.5 46 C 224.5 36.609375 232.109375 29 241.5 29 C 250.890625 29 258.5 36.609375 258.5 46 "/>
<path style=" stroke:none;fill-rule:nonzero;fill:rgb(9.8%,84.2%,72.2%);fill-opacity:1;" d="M 368 51 C 368 62.046875 359.046875 71 348 71 C 336.953125 71 328 62.046875 328 51 C 328 39.953125 336.953125 31 348 31 C 359.046875 31 368 39.953125 368 51 "/>
<path style=" stroke:none;fill-rule:nonzero;fill:rgb(9.6%,57.4%,54.9%);fill-opacity:1;" d="M 468 60 C 468 70.769531 459.269531 79.5 448.5 79.5 C 437.730469 79.5 429 70.769531 429 60 C 429 49.230469 437.730469 40.5 448.5 40.5 C 459.269531 40.5 468 49.230469 468 60 "/>
<path style=" stroke:none;fill-rule:nonzero;fill:rgb(56.5%,4.3%,39.8%);fill-opacity:1;" d="M 476 53 C 476 64.875 466.375 74.5 454.5 74.5 C 442.625 74.5 433 64.875 433 53 C 433 41.125 442.625 31.5 454.5 31.5 C 466.375 31.5 476 41.125 476 53 "/>
<path style=" stroke:none;fill-rule:nonzero;fill:rgb(82.3%,5.1%,70.8%);fill-opacity:1;" d="M 367.5 44.5 C 367.5 54.992188 358.992188 63.5 348.5 63.5 C 338.007812 63.5 329.5 54.992188 329.5 44.5 C 329.5 34.007812 338.007812 25.5 348.5 25.5 C 358.992188 25.5 367.5 34.007812 367.5 44.5 "/>
<path style=" stroke:none;fill-rule:nonzero;fill:rgb(51.1%,60%,42.8%);fill-opacity:1;" d="M 256 55.5 C 256 65.164062 248.164062 73 238.5 73 C 228.835938 73 221 65.164062 221 55.5 C 221 45.835938 228.835938 38 238.5 38 C 248.164062 38 256 45.835938 256 55.5 "/>
<path style=" stroke:none;fill-rule:nonzero;fill:rgb(93.9%,69.5%,70.7%);fill-opacity:1;" d="M 162.5 44 C 162.5 49.246094 158.246094 53.5 153 53.5 C 147.753906 53.5 143.5 49.246094 143.5 44 C 143.5 38.753906 147.753906 34.5 153 34.5 C 158.246094 34.5 162.5 38.753906 162.5 44 "/>
<path style=" stroke:none;fill-rule:nonzero;fill:rgb(14.1%,88%,46.7%);fill-opacity:1;" d="M 77.5 40.5 C 77.5 52.375 67.875 62 56 62 C 44.125 62 34.5 52.375 34.5 40.5 C 34.5 28.625 44.125 19 56 19 C 67.875 19 77.5 28.625 77.5 40.5 "/>
<path style=" stroke:none;fill-rule:nonzero;fill:rgb(67.2%,20.3%,21.8%);fill-opacity:1;" d="M 71 153.5 C 71 159.023438 66.523438 163.5 61 163.5 C 55.476562 163.5 51 159.023438 51 153.5 C 51 147.976562 55.476562 143.5 61 143.5 C 66.523438 143.5 71 147.976562 71 153.5 "/>
<path style=" stroke:none;fill-rule:nonzero;fill:rgb(47%,88.4%,82.1%);fill-opacity:1;" d="M 152 139.5 C 152 143.367188 148.867188 146.5 145 146.5 C 141.132812 146.5 138 143.367188 138 139.5 C 138 135.632812 141.132812 132.5 145 132.5 C 148.867188 132.5 152 135.632812 152 139.5 "/>
<path style=" stroke:none;fill-rule:nonzero;fill:rgb(92.2%,54.8%,70.9%);fill-opacity:1;" d="M 268.5 147 C 268.5 157.492188 259.992188 166 249.5 166 C 239.007812 166 230.5 157.492188 230.5 147 C 230.5 136.507812 239.007812 128 249.5 128 C 259.992188 128 268.5 136.507812 268.5 147 "/>
<path style=" stroke:none;fill-rule:nonzero;fill:rgb(19.8%,27.3%,63.4%);fill-opacity:1;" d="M 367.5 139.5 C 367.5 152.753906 356.753906 163.5 343.5 163.5 C 330.246094 163.5 319.5 152.753906 319.5 139.5 C 319.5 126.246094 330.246094 115.5 343.5 115.5 C 356.753906 115.5 367.5 126.246094 367.5 139.5 "/>
<path style=" stroke:none;fill-rule:nonzero;fill:rgb(73.1%,73.5%,39%);fill-opacity:1;" d="M 470 148 C 470 155.730469 463.730469 162 456 162 C 448.269531 162 442 155.730469 442 148 C 442 140.269531 448.269531 134 456 134 C 463.730469 134 470 140.269531 470 148 "/>
<path style=" stroke:none;fill-rule:nonzero;fill:rgb(14.3%,91.8%,59.2%);fill-opacity:1;" d="M 453 143.5 C 453 150.679688 447.179688 156.5 440 156.5 C 432.820312 156.5 427 150.679688 427 143.5 C 427 136.320312 432.820312 130.5 440 130.5 C 447.179688 130.5 453 136.320312 453 143.5 "/>
<path style=" stroke:none;fill-rule:nonzero;fill:rgb(71.3%,13.4%,62.3%);fill-opacity:1;" d="M 350 140 C 350 146.351562 344.851562 151.5 338.5 151.5 C 332.148438 151.5 327 146.351562 327 140 C 327 133.648438 332.148438 128.5 338.5 128.5 C 344.851562 128.5 350 133.648438 350 140 "/>
<path style=" stroke:none;fill-rule:nonzero;fill:rgb(99.7%,34.8%,82.3%);fill-opacity:1;" d="M 252.5 156 C 252.5 160.417969 248.917969 164 244.5 164 C 240.082031 164 236.5 160.417969 236.5 156 C 236.5 151.582031 240.082031 148 244.5 148 C 248.917969 148 252.5 151.582031 252.5 156 "/>
<path style=" stroke:none;fill-rule:nonzero;fill:rgb(87.4%,91.3%,54.4%);fill-opacity:1;" d="M 174 148.5 C 174 158.441406 165.941406 166.5 156 166.5 C 146.058594 166.5 138 158.441406 138 148.5 C 138 138.558594 146.058594 130.5 156 130.5 C 165.941406 130.5 174 138.558594 174 148.5 "/>
<path style=" stroke:none;fill-rule:nonzero;fill:rgb(44.7%,84.7%,69.3%);fill-opacity:1;" d="M 60.5 155.5 C 60.5 159.640625 57.140625 163 53 163 C 48.859375 163 45.5 159.640625 45.5 155.5 C 45.5 151.359375 48.859375 148 53 148 C 57.140625 148 60.5 151.359375 60.5 155.5 "/>
<path style=" stroke:none;fill-rule:nonzero;fill:rgb(80.5%,72.8%,12%);fill-opacity:1;" d="M 62.5 238.5 C 62.5 247.613281 55.113281 255 46 255 C 36.886719 255 29.5 247.613281 29.5 238.5 C 29.5 229.386719 36.886719 222 46 222 C 55.113281 222 62.5 229.386719 62.5 238.5 "/>
<path style=" stroke:none;fill-rule:nonzero;fill:rgb(92.1%,83.7%,21.8%);fill-opacity:1;" d="M 163.5 250.5 C 163.5 258.230469 157.230469 264.5 149.5 264.5 C 141.769531 264.5 135.5 258.230469 135.5 250.5 C 135.5 242.769531 141.769531 236.5 149.5 236.5 C 157.230469 236.5 163.5 242.769531 163.5 250.5 "/>
<path style=" stroke:none;fill-rule:nonzero;fill:rgb(66.4%,92.3%,27.3%);fill-opacity:1;" d="M 254 241 C 254 246.800781 249.300781 251.5 243.5 251.5 C 237.699219 251.5 233 246.800781 233 241 C 233 235.199219 237.699219 230.5 243.5 230.5 C 249.300781 230.5 254 235.199219 254 241 "/>
<path style=" stroke:none;fill-rule:nonzero;fill:rgb(37.1%,6.5%,67.8%);fill-opacity:1;" d="M 372.5 243 C 372.5 250.457031 366.457031 256.5 359 256.5 C 351.542969 256.5 345.5 250.457031 345.5 243 C 345.5 235.542969 351.542969 229.5 359 229.5 C 366.457031 229.5 372.5 235.542969 372.5 243 "/>
<path style=" stroke:none;fill-rule:nonzero;fill:rgb(62.1%,83.4%,17.6%);fill-opacity:1;" d="M 470 242 C 470 247.246094 465.746094 251.5 460.5 251.5 C 455.253906 251.5 451 247.246094 451 242 C 451 236.753906 455.253906 232.5 460.5 232.5 C 465.746094 232.5 470 236.753906 470 242 "/>
<path style=" stroke:none;fill-rule:nonzero;fill:rgb(0.2%,93.2%,75.8%);fill-opacity:1;" d="M 472 254.5 C 472 267.203125 461.703125 277.5 449 277.5 C 436.296875 277.5 426 267.203125 426 254.5 C 426 241.796875 436.296875 231.5 449 231.5 C 461.703125 231.5 472 241.796875 472 254.5 "/>
<path style=" stroke:none;fill-rule:nonzero;fill:rgb(33.5%,64.8%,41.6%);fill-opacity:1;" d="M 375.5 248.5 C 375.5 260.375 365.875 270 354 270 C 342.125 270 332.5 260.375 332.5 248.5 C 332.5 236.625 342.125 227 354 227 C 365.875 227 375.5 236.625 375.5 248.5 "/>
<path style=" stroke:none;fill-rule:nonzero;fill:rgb(22%,80.6%,69.7%);fill-opacity:1;" d="M 258 244 C 258 249.800781 253.300781 254.5 247.5 254.5 C 241.699219 254.5 237 249.800781 237 244 C 237 238.199219 241.699219 233.5 247.5 233.5 C 253.300781 233.5 258 238.199219 258 244 "/>
<path style=" stroke:none;fill-rule:nonzero;fill:rgb(28.7%,72.8%,40.8%);fill-opacity:1;" d="M 151 244.5 C 151 250.851562 145.851562 256 139.5 256 C 133.148438 256 128 250.851562 128 244.5 C 128 238.148438 133.148438 233 139.5 233 C 145.851562 233 151 238.148438 151 244.5 "/>
<path style=" stroke:none;fill-rule:nonzero;fill:rgb(22.4%,39.7%,14.8%);fill-opacity:1;" d="M 75.5 255 C 75.5 264.390625 67.890625 272 58.5 272 C 49.109375 272 41.5 264.390625 41.5 255 C 41.5 245.609375 49.109375 238 58.5 238 C 67.890625 238 75.5 245.609375 75.5 255 "/>
<path style=" stroke:none;fill-rule:nonzero;fill:rgb(68.3%,81.4%,78.8%);fill-opacity:1;" d="M 65 355 C 65 364.390625 57.390625 372 48 372 C 38.609375 372 31 364.390625 31 355 C 31 345.609375 38.609375 338 48 338 C 57.390625 338 65 345.609375 65 355 "/>
<path style=" stroke:none;fill-rule:nonzero;fill:rgb(56.4%,15.3%,80.8%);fill-opacity:1;" d="M 168 350.5 C 168 355.46875 163.96875 359.5 159 359.5 C 154.03125 359.5 150 355.46875 150 350.5 C 150 345.53125 154.03125 341.5 159 341.5 C 163.96875 341.5 168 345.53125 168 350.5 "/>
<path style=" stroke:none;fill-rule:nonzero;fill:rgb(62.6%,82.6%,45.8%);fill-opacity:1;" d="M 257 354.5 C 257 363.058594 250.058594 370 241.5 370 C 232.941406 370 226 363.058594 226 354.5 C 226 345.941406 232.941406 339 241.5 339 C 250.058594 339 257 345.941406 257 354.5 "/>
<path style=" stroke:none;fill-rule:nonzero;fill:rgb(29.9%,11.2%,9.5%);fill-opacity:1;" d="M 369.5 343 C 369.5 348.800781 364.800781 353.5 359 353.5 C 353.199219 353.5 348.5 348.800781 348.5 343 C 348.5 337.199219 353.199219 332.5 359 332.5 C 364.800781 332.5 369.5 337.199219 369.5 343 "/>
<path style=" stroke:none;fill-rule:nonzero;fill:rgb(98.6%,27.8%,46%);fill-opacity:1;" d="M 451.5 346 C 451.5 351.246094 447.246094 355.5 442 355.5 C 436.753906 355.5 432.5 351.246094 432.5 346 C 432.5 340.753906 436.753906 336.5 442 336.5 C 447.246094 336.5 451.5 340.753906 451.5 346 "/>
<path style=" stroke:none;fill-rule:nonzero;fill:rgb(41.5%,17.1%,44.1%);fill-opacity:1;" d="M 479.5 347.5 C 479.5 359.648438 469.648438 369.5 457.5 369.5 C 445.351562 369.5 435.5 359.648438 435.5 347.5 C 435.5 335.351562 445.351562 325.5 457.5 325.5 C 469.648438 325.5 479.5 335.351562 479.5 347.5 "/>
<path style=" stroke:none;fill-rule:nonzero;fill:rgb(41.6%,55.9%,52.9%);fill-opacity:1;" d="M 384 353.5 C 384 366.203125 373.703125 376.5 361 376.5 C 348.296875 376.5 338 366.203125 338 353.5 C 338 340.796875 348.296875 330.5 361 330.5 C 373.703125 330.5 384 340.796875 384 353.5 "/>
<path style=" stroke:none;fill-rule:nonzero;fill:rgb(88.1%,45.7%,25.4%);fill-opacity:1;" d="M 258.5 345.5 C 258.5 352.167969 248.5 352.167969 248.5 345.5 C 248.5 338.832031 258.5 338.832031 258.5 345.5 "/>
<path style=" stroke:none;fill-rule:nonzero;fill:rgb(38.3%,12.2%,74.5%);fill-opacity:1;" d="M 179.5 360.5 C 179.5 373.203125 169.203125 383.5 156.5 383.5 C 143.796875 383.5 133.5 373.203125 133.5 360.5 C 133.5 347.796875 143.796875 337.5 156.5 337.5 C 169.203125 337.5 179.5 347.796875 179.5 360.5 "/>
<path style=" stroke:none;fill-rule:nonzero;fill:rgb(12.4%,8.4%,42.4%);fill-opacity:1;" d="M 70 353.5 C 70 363.992188 61.492188 372.5 51 372.5 C 40.507812 372.5 32 363.992188 32 353.5 C 32 343.007812 40.507812 334.5 51 334.5 C 61.492188 334.5 70 343.007812 70 353.5 "/>
<path style=" stroke:none;fill-rule:nonzero;fill:rgb(78.4%,96.5%,95.7%);fill-opacity:1;" d="M 74.5 444.5 C 74.5 452.785156 67.785156 459.5 59.5 459.5 C 51.214844 459.5 44.5 452.785156 44.5 444.5 C 44.5 436.214844 51.214844 429.5 59.5 429.5 C 67.785156 429.5 74.5 436.214844 74.5 444.5 "/>
<path style=" stroke:none;fill-rule:nonzero;fill:rgb(78.6%,39.2%,17.3%);fill-opacity:1;" d="M 180.5 457 C 180.5 469.425781 170.425781 479.5 158 479.5 C 145.574219 479.5 135.5 469.425781 135.5 457 C 135.5 444.574219 145.574219 434.5 158 434.5 C 170.425781 434.5 180.5 444.574219 180.5 457 "/>
<path style=" stroke:none;fill-rule:nonzero;fill:rgb(98.6%,61.5%,80.7%);fill-opacity:1;" d="M 272.5 442.5 C 272.5 450.785156 265.785156 457.5 257.5 457.5 C 249.214844 457.5 242.5 450.785156 242.5 442.5 C 242.5 434.214844 249.214844 427.5 257.5 427.5 C 265.785156 427.5 272.5 434.214844 272.5 442.5 "/>
<path style=" stroke:none;fill-rule:nonzero;fill:rgb(25%,4.6%,53.1%);fill-opacity:1;" d="M 369.5 452 C 369.5 459.179688 363.679688 465 356.5 465 C 349.320312 465 343.5 459.179688 343.5 452 C 343.5 444.820312 349.320312 439 356.5 439 C 363.679688 439 369.5 444.820312 369.5 452 "/>
<path style=" stroke:none;fill-rule:nonzero;fill:rgb(12.8%,6.1%,66.4%);fill-opacity:1;" d="M 458.5 458 C 458.5 461.039062 456.039062 463.5 453 463.5 C 449.960938 463.5 447.5 461.039062 447.5 458 C 447.5 454.960938 449.960938 452.5 453 452.5 C 456.039062 452.5 458.5 454.960938 458.5 458 "/>
<path style=" stroke:none;fill-rule:nonzero;fill:rgb(77.5%,17.4%,22.5%);fill-opacity:1;" d="M 459.5 446.5 C 459.5 457.269531 450.769531 466 440 466 C 429.230469 466 420.5 457.269531 420.5 446.5 C 420.5 435.730469 429.230469 427 440 427 C 450.769531 427 459.5 435.730469 459.5 446.5 "/>
<path style=" stroke:none;fill-rule:nonzero;fill:rgb(37.1%,91.7%,2.6%);fill-opacity:1;" d="M 363.5 440 C 363.5 449.390625 355.890625 457 346.5 457 C 337.109375 457 329.5 449.390625 329.5 440 C 329.5 430.609375 337.109375 423 346.5 423 C 355.890625 423 363.5 430.609375 363.5 440 "/>
<path style=" stroke:none;fill-rule:nonzero;fill:rgb(54.3%,78.1%,25.9%);fill-opacity:1;" d="M 259.5 442.5 C 259.5 446.089844 256.589844 449 253 449 C 249.410156 449 246.5 446.089844 246.5 442.5 C 246.5 438.910156 249.410156 436 253 436 C 256.589844 436 259.5 438.910156 259.5 442.5 "/>
<path style=" stroke:none;fill-rule:nonzero;fill:rgb(75.9%,61.4%,96.1%);fill-opacity:1;" d="M 172.5 448 C 172.5 457.664062 164.664062 465.5 155 465.5 C 145.335938 465.5 137.5 457.664062 137.5 448 C 137.5 438.335938 145.335938 430.5 155 430.5 C 164.664062 430.5 172.5 438.335938 172.5 448 "/>
<path style=" stroke:none;fill-rule:nonzero;fill:rgb(18%,55.2%,79.3%);fill-opacity:1;" d="M 75.5 450.5 C 75.5 460.71875 67.21875 469 57 469 C 46.78125 469 38.5 460.71875 38.5 450.5 C 38.5 440.28125 46.78125 432 57 432 C 67.21875 432 75.5 440.28125 75.5 450.5 "/>
<path style=" stroke:none;fill-rule:nonzero;fill:rgb(38.2%,72%,3.1%);fill-opacity:1;" d="M 56.5 449 C 56.5 454.523438 52.023438 459 46.5 459 C 40.976562 459 36.5 454.523438 36.5 449 C 36.5 443.476562 40.976562 439 46.5 439 C 52.023438 439 56.5 443.476562 56.5 449 "/>
<path style=" stroke:none;fill-rule:nonzero;fill:rgb(87.5%,55.2%,2.7%);fill-opacity:1;" d="M 169 442.5 C 169 449.128906 163.628906 454.5 157 454.5 C 150.371094 454.5 145 449.128906 145 442.5 C 145 435.871094 150.371094 430.5 157 430.5 C 163.628906 430.5 169 435.871094 169 442.5 "/>
<path style=" stroke:none;fill-rule:nonzero;fill:rgb(27.9%,49.1%,73.5%);fill-opacity:1;" d="M 271.5 449.5 C 271.5 457.230469 265.230469 463.5 257.5 463.5 C 249.769531 463.5 243.5 457.230469 243.5 449.5 C 243.5 441.769531 249.769531 435.5 257.5 435.5 C 265.230469 435.5 271.5 441.769531 271.5 449.5 "/>
<path style=" stroke:none;fill-rule:nonzero;fill:rgb(95.7%,9.4%,15.9%);fill-opacity:1;" d="M 356.5 460.5 C 356.5 469.335938 349.335938 476.5 340.5 476.5 C 331.664062 476.5 324.5 469.335938 324.5 460.5 C 324.5 451.664062 331.664062 444.5 340.5 444.5 C 349.335938 444.5 356.5 451.664062 356.5 460.5 "/>
<path style=" stroke:none;fill-rule:nonzero;fill:rgb(85.1%,48.7%,29.2%);fill-opacity:1;" d="M 480 455 C 480 468.808594 468.808594 480 455 480 C 441.191406 480 430 468.808594 430 455 C 430 441.191406 441.191406 430 455 430 C 468.808594 430 480 441.191406 480 455 "/>
<path style=" stroke:none;fill-rule:nonzero;fill:rgb(20.2%,71.9%,92.3%);fill-opacity:1;" d="M 482 439 C 482 451.703125 471.703125 462 459 462 C 446.296875 462 436 451.703125 436 439 C 436 426.296875 446.296875 416 459 416 C 471.703125 416 482 426.296875 482 439 "/>
<path style=" stroke:none;fill-rule:nonzero;fill:rgb(41.6%,19.2%,33.8%);fill-opacity:1;" d="M 363.5 441.5 C 363.5 450.890625 355.890625 458.5 346.5 458.5 C 337.109375 458.5 329.5 450.890625 329.5 441.5 C 329.5 432.109375 337.109375 424.5 346.5 424.5 C 355.890625 424.5 363.5 432.109375 363.5 441.5 "/>
<path style=" stroke:none;fill-rule:nonzero;fill:rgb(21.9%,72.3%,8.2%);fill-opacity:1;" d="M 261 453.5 C 261 465.375 251.375 475 239.5 475 C 227.625 475 218 465.375 218 453.5 C 218 441.625 227.625 432 239.5 432 C 251.375 432 261 441.625 261 453.5 "/>
<path style=" stroke:none;fill-rule:nonzero;fill:rgb(89.6%,51.5%,52.8%);fill-opacity:1;" d="M 165.5 454.5 C 165.5 462.507812 159.007812 469 151 469 C 142.992188 469 136.5 462.507812 136.5 454.5 C 136.5 446.492188 142.992188 440 151 440 C 159.007812 440 165.5 446.492188 165.5 454.5 "/>
<path style=" stroke:none;fill-rule:nonzero;fill:rgb(62.4%,13.3%,83.4%);fill-opacity:1;" d="M 51.5 440 C 51.5 443.039062 49.039062 445.5 46 445.5 C 42.960938 445.5 40.5 443.039062 40.5 440 C 40.5 436.960938 42.960938 434.5 46 434.5 C 49.039062 434.5 51.5 436.960938 51.5 440 "/>
<path style=" stroke:none;fill-rule:nonzero;fill:rgb(96.2%,16.3%,83.9%);fill-opacity:1;" d="M 82 343.5 C 82 357.03125 71.03125 368 57.5 368 C 43.96875 368 33 357.03125 33 343.5 C 33 329.96875 43.96875 319 57.5 319 C 71.03125 319 82 329.96875 82 343.5 "/>
<path style=" stroke:none;fill-rule:nonzero;fill:rgb(96.4%,82%,4.1%);fill-opacity:1;" d="M 174.5 351 C 174.5 360.390625 166.890625 368 157.5 368 C 148.109375 368 140.5 360.390625 140.5 351 C 140.5 341.609375 148.109375 334 157.5 334 C 166.890625 334 174.5 341.609375 174.5 351 "/>
<path style=" stroke:none;fill-rule:nonzero;fill:rgb(56.8%,78.8%,17.3%);fill-opacity:1;" d="M 266.5 340 C 266.5 344.140625 263.140625 347.5 259 347.5 C 254.859375 347.5 251.5 344.140625 251.5 340 C 251.5 335.859375 254.859375 332.5 259 332.5 C 263.140625 332.5 266.5 335.859375 266.5 340 "/>
<path style=" stroke:none;fill-rule:nonzero;fill:rgb(30.9%,69.3%,44.9%);fill-opacity:1;" d="M 354.5 347.5 C 354.5 356.335938 347.335938 363.5 338.5 363.5 C 329.664062 363.5 322.5 356.335938 322.5 347.5 C 322.5 338.664062 329.664062 331.5 338.5 331.5 C 347.335938 331.5 354.5 338.664062 354.5 347.5 "/>
<path style=" stroke:none;fill-rule:nonzero;fill:rgb(52.4%,27%,9.3%);fill-opacity:1;" d="M 452 348.5 C 452 355.167969 442 355.167969 442 348.5 C 442 341.832031 452 341.832031 452 348.5 "/>
<path style=" stroke:none;fill-rule:nonzero;fill:rgb(96.7%,63.9%,18.2%);fill-opacity:1;" d="M 464.5 339.5 C 464.5 346.402344 458.902344 352 452 352 C 445.097656 352 439.5 346.402344 439.5 339.5 C 439.5 332.597656 445.097656 327 452 327 C 458.902344 327 464.5 332.597656 464.5 339.5 "/>
<path style=" stroke:none;fill-rule:nonzero;fill:rgb(46%,70.2%,88.1%);fill-opacity:1;" d="M 365.5 350 C 365.5 355.523438 361.023438 360 355.5 360 C 349.976562 360 345.5 355.523438 345.5 350 C 345.5 344.476562 349.976562 340 355.5 340 C 361.023438 340 365.5 344.476562 365.5 350 "/>
<path style=" stroke:none;fill-rule:nonzero;fill:rgb(4.1%,5.6%,62.6%);fill-opacity:1;" d="M 276.5 349 C 276.5 362.53125 265.53125 373.5 252 373.5 C 238.46875 373.5 227.5 362.53125 227.5 349 C 227.5 335.46875 238.46875 324.5 252 324.5 C 265.53125 324.5 276.5 335.46875 276.5 349 "/>
<path style=" stroke:none;fill-rule:nonzero;fill:rgb(73.7%,17.3%,87.3%);fill-opacity:1;" d="M 174 340.5 C 174 351.820312 164.820312 361 153.5 361 C 142.179688 361 133 351.820312 133 340.5 C 133 329.179688 142.179688 320 153.5 320 C 164.820312 320 174 329.179688 174 340.5 "/>
<path style=" stroke:none;fill-rule:nonzero;fill:rgb(57.5%,27.1%,6.6%);fill-opacity:1;" d="M 69 345 C 69 357.703125 58.703125 368 46 368 C 33.296875 368 23 357.703125 23 345 C 23 332.296875 33.296875 322 46 322 C 58.703125 322 69 332.296875 69 345 "/>
<path style=" stroke:none;fill-rule:nonzero;fill:rgb(48.3%,77.6%,71.2%);fill-opacity:1;" d="M 61 255 C 61 264.941406 52.941406 273 43 273 C 33.058594 273 25 264.941406 25 255 C 25 245.058594 33.058594 237 43 237 C 52.941406 237 61 245.058594 61 255 "/>
<path style=" stroke:none;fill-rule:nonzero;fill:rgb(88.2%,0.1%,43.6%);fill-opacity:1;" d="M 154.5 243.5 C 154.5 252.335938 147.335938 259.5 138.5 259.5 C 129.664062 259.5 122.5 252.335938 122.5 243.5 C 122.5 234.664062 129.664062 227.5 138.5 227.5 C 147.335938 227.5 154.5 234.664062 154.5 243.5 "/>
<path style=" stroke:none;fill-rule:nonzero;fill:rgb(91.9%,81%,89.2%);fill-opacity:1;" d="M 274.5 249 C 274.5 262.53125 263.53125 273.5 250 273.5 C 236.46875 273.5 225.5 262.53125 225.5 249 C 225.5 235.46875 236.46875 224.5 250 224.5 C 263.53125 224.5 274.5 235.46875 274.5 249 "/>
<path style=" stroke:none;fill-rule:nonzero;fill:rgb(28.8%,56.7%,40.6%);fill-opacity:1;" d="M 355.5 253 C 355.5 261.558594 348.558594 268.5 340 268.5 C 331.441406 268.5 324.5 261.558594 324.5 253 C 324.5 244.441406 331.441406 237.5 340 237.5 C 348.558594 237.5 355.5 244.441406 355.5 253 "/>
<path style=" stroke:none;fill-rule:nonzero;fill:rgb(11.1%,11.1%,64.2%);fill-opacity:1;" d="M 465.5 248.5 C 465.5 254.574219 460.574219 259.5 454.5 259.5 C 448.425781 259.5 443.5 254.574219 443.5 248.5 C 443.5 242.425781 448.425781 237.5 454.5 237.5 C 460.574219 237.5 465.5 242.425781 465.5 248.5 "/>
<path style=" stroke:none;fill-rule:nonzero;fill:rgb(95.5%,4.5%,85%);fill-opacity:1;" d="M 473 249 C 473 259.492188 464.492188 268 454 268 C 443.507812 268 435 259.492188 435 249 C 435 238.507812 443.507812 230 454 230 C 464.492188 230 473 238.507812 473 249 "/>
<path style=" stroke:none;fill-rule:nonzero;fill:rgb(98.3%,26.5%,86.9%);fill-opacity:1;" d="M 348.5 260 C 348.5 266.667969 338.5 266.667969 338.5 260 C 338.5 253.332031 348.5 253.332031 348.5 260 "/>
<path style=" stroke:none;fill-rule:nonzero;fill:rgb(53.5%,29.5%,32.7%);fill-opacity:1;" d="M 261 250 C 261 260.21875 252.71875 268.5 242.5 268.5 C 232.28125 268.5 224 260.21875 224 250 C 224 239.78125 232.28125 231.5 242.5 231.5 C 252.71875 231.5 261 239.78125 261 250 "/>
<path style=" stroke:none;fill-rule:nonzero;fill:rgb(59.3%,34.6%,97.9%);fill-opacity:1;" d="M 169.5 252 C 169.5 265.53125 158.53125 276.5 145 276.5 C 131.46875 276.5 120.5 265.53125 120.5 252 C 120.5 238.46875 131.46875 227.5 145 227.5 C 158.53125 227.5 169.5 238.46875 169.5 252 "/>
<path style=" stroke:none;fill-rule:nonzero;fill:rgb(26.3%,58.9%,90.7%);fill-opacity:1;" d="M 83 254.5 C 83 267.480469 72.480469 278 59.5 278 C 46.519531 278 36 267.480469 36 254.5 C 36 241.519531 46.519531 231 59.5 231 C 72.480469 231 83 241.519531 83 254.5 "/>
<path style=" stroke:none;fill-rule:nonzero;fill:rgb(6.2%,64.3%,58.4%);fill-opacity:1;" d="M 67 159 C 67 171.148438 57.148438 181 45 181 C 32.851562 181 23 171.148438 23 159 C 23 146.851562 32.851562 137 45 137 C 57.148438 137 67 146.851562 67 159 "/>
<path style=" stroke:none;fill-rule:nonzero;fill:rgb(57.1%,61.5%,19%);fill-opacity:1;" d="M 174 159.5 C 174 169.71875 165.71875 178 155.5 178 C 145.28125 178 137 169.71875 137 159.5 C 137 149.28125 145.28125 141 155.5 141 C 165.71875 141 174 149.28125 174 159.5 "/>
<path style=" stroke:none;fill-rule:nonzero;fill:rgb(4.7%,82.1%,47.4%);fill-opacity:1;" d="M 267.5 153.5 C 267.5 160.679688 261.679688 166.5 254.5 166.5 C 247.320312 166.5 241.5 160.679688 241.5 153.5 C 241.5 146.320312 247.320312 140.5 254.5 140.5 C 261.679688 140.5 267.5 146.320312 267.5 153.5 "/>
<path style=" stroke:none;fill-rule:nonzero;fill:rgb(91.2%,82.7%,91.4%);fill-opacity:1;" d="M 365 160 C 365 163.589844 362.089844 166.5 358.5 166.5 C 354.910156 166.5 352 163.589844 352 160 C 352 156.410156 354.910156 153.5 358.5 153.5 C 362.089844 153.5 365 156.410156 365 160 "/>
<path style=" stroke:none;fill-rule:nonzero;fill:rgb(45.6%,88.2%,19.5%);fill-opacity:1;" d="M 467.5 143.5 C 467.5 154.820312 458.320312 164 447 164 C 435.679688 164 426.5 154.820312 426.5 143.5 C 426.5 132.179688 435.679688 123 447 123 C 458.320312 123 467.5 132.179688 467.5 143.5 "/>
<path style=" stroke:none;fill-rule:nonzero;fill:rgb(59%,70.5%,51%);fill-opacity:1;" d="M 448.5 150 C 448.5 156.667969 438.5 156.667969 438.5 150 C 438.5 143.332031 448.5 143.332031 448.5 150 "/>
<path style=" stroke:none;fill-rule:nonzero;fill:rgb(10.3%,12.2%,63.6%);fill-opacity:1;" d="M 352 158.5 C 352 164.574219 347.074219 169.5 341 169.5 C 334.925781 169.5 330 164.574219 330 158.5 C 330 152.425781 334.925781 147.5 341 147.5 C 347.074219 147.5 352 152.425781 352 158.5 "/>
<path style=" stroke:none;fill-rule:nonzero;fill:rgb(83.2%,97.4%,50.5%);fill-opacity:1;" d="M 264.5 142.5 C 264.5 152.164062 256.664062 160 247 160 C 237.335938 160 229.5 152.164062 229.5 142.5 C 229.5 132.835938 237.335938 125 247 125 C 256.664062 125 264.5 132.835938 264.5 142.5 "/>
<path style=" stroke:none;fill-rule:nonzero;fill:rgb(88.9%,64.1%,6.9%);fill-opacity:1;" d="M 179.5 153.5 C 179.5 167.308594 168.308594 178.5 154.5 178.5 C 140.691406 178.5 129.5 167.308594 129.5 153.5 C 129.5 139.691406 140.691406 128.5 154.5 128.5 C 168.308594 128.5 179.5 139.691406 179.5 153.5 "/>
<path style=" stroke:none;fill-rule:nonzero;fill:rgb(91.1%,52.8%,21.6%);fill-opacity:1;" d="M 60 160.5 C 60 170.992188 51.492188 179.5 41 179.5 C 30.507812 179.5 22 170.992188 22 160.5 C 22 150.007812 30.507812 141.5 41 141.5 C 51.492188 141.5 60 150.007812 60 160.5 "/>
<path style=" stroke:none;fill-rule:nonzero;fill:rgb(75.6%,92.7%,30.1%);fill-opacity:1;" d="M 79 59 C 79 69.21875 70.71875 77.5 60.5 77.5 C 50.28125 77.5 42 69.21875 42 59 C 42 48.78125 50.28125 40.5 60.5 40.5 C 70.71875 40.5 79 48.78125 79 59 "/>
<path style=" stroke:none;fill-rule:nonzero;fill:rgb(59.1%,6.2%,56.9%);fill-opacity:1;" d="M 158.5 53.5 C 158.5 61.230469 152.230469 67.5 144.5 67.5 C 136.769531 67.5 130.5 61.230469 130.5 53.5 C 130.5 45.769531 136.769531 39.5 144.5 39.5 C 152.230469 39.5 158.5 45.769531 158.5 53.5 "/>
<path style=" stroke:none;fill-rule:nonzero;fill:rgb(95.6%,0.6%,83.2%);fill-opacity:1;" d="M 261 57 C 261 68.046875 252.046875 77 241 77 C 229.953125 77 221 68.046875 221 57 C 221 45.953125 229.953125 37 241 37 C 252.046875 37 261 45.953125 261 57 "/>
<path style=" stroke:none;fill-rule:nonzero;fill:rgb(51.7%,79.2%,81.2%);fill-opacity:1;" d="M 361 47.5 C 361 58.269531 352.269531 67 341.5 67 C 330.730469 67 322 58.269531 322 47.5 C 322 36.730469 330.730469 28 341.5 28 C 352.269531 28 361 36.730469 361 47.5 "/>
<path style=" stroke:none;fill-rule:nonzero;fill:rgb(7.8%,62.5%,5.3%);fill-opacity:1;" d="M 482 44.5 C 482 56.648438 472.148438 66.5 460 66.5 C 447.851562 66.5 438 56.648438 438 44.5 C 438 32.351562 447.851562 22.5 460 22.5 C 472.148438 22.5 482 32.351562 482 44.5 "/>
<path style=" stroke:none;fill-rule:nonzero;fill:rgb(85.2%,62.5%,91%);fill-opacity:1;" d="M 474 55.5 C 474 67.648438 464.148438 77.5 452 77.5 C 439.851562 77.5 430 67.648438 430 55.5 C 430 43.351562 439.851562 33.5 452 33.5 C 464.148438 33.5 474 43.351562 474 55.5 "/>
<path style=" stroke:none;fill-rule:nonzero;fill:rgb(49.6%,54.5%,96%);fill-opacity:1;" d="M 369.5 39 C 369.5 48.941406 361.441406 57 351.5 57 C 341.558594 57 333.5 48.941406 333.5 39 C 333.5 29.058594 341.558594 21 351.5 21 C 361.441406 21 369.5 29.058594 369.5 39 "/>
<path style=" stroke:none;fill-rule:nonzero;fill:rgb(89%,35.3%,11%);fill-opacity:1;" d="M 268 41 C 268 49.285156 261.285156 56 253 56 C 244.714844 56 238 49.285156 238 41 C 238 32.714844 244.714844 26 253 26 C 261.285156 26 268 32.714844 268 41 "/>
<path style=" stroke:none;fill-rule:nonzero;fill:rgb(11.7%,83.7%,16.2%);fill-opacity:1;" d="M 168.5 50 C 168.5 56.351562 163.351562 61.5 157 61.5 C 150.648438 61.5 145.5 56.351562 145.5 50 C 145.5 43.648438 150.648438 38.5 157 38.5 C 163.351562 38.5 168.5 43.648438 168.5 50 "/>
<path style=" stroke:none;fill-rule:nonzero;fill:rgb(77.6%,65.1%,89.4%);fill-opacity:1;" d="M 50 47 C 50 52.523438 45.523438 57 40 57 C 34.476562 57 30 52.523438 30 47 C 30 41.476562 34.476562 37 40 37 C 45.523438 37 50 41.476562 50 47 "/>
<path style="fill:none;stroke-width:0.01;stroke-linecap:butt;stroke-linejoin:miter;stroke:rgb(19%,62.1%,40.4%);stroke-opacity:1;stroke-miterlimit:10;" d="M 0.097 0.102 C 0.291 0.108 0.522 0.104 0.708 0.111 " transform="matrix(500,0,0,500,0,0)"/>
<path style="fill:none;stroke-width:0.01;stroke-linecap:butt;stroke-linejoin:miter;stroke:rgb(26.8%,79.7%,55.9%);stroke-opacity:1;stroke-miterlimit:10;" d="M 0.708 0.111 C 0.892 0.079 0.886 0.119 0.709 0.09 " transform="matrix(500,0,0,500,0,0)"/>
<path style="fill:none;stroke-width:0.01;stroke-linecap:butt;stroke-linejoin:miter;stroke:rgb(27.8%,4.4%,40%);stroke-opacity:1;stroke-miterlimit:10;" d="M 0.709 0.09 C 0.515 0.098 0.32 0.092 0.093 0.081 " transform="matrix(500,0,0,500,0,0)"/>
<path style="fill:none;stroke-width:0.01;stroke-linecap:butt;stroke-linejoin:miter;stroke:rgb(36.1%,66.2%,15.6%);stroke-opacity:1;stroke-miterlimit:10;" d="M 0.093 0.081 C 0.112 0.301 0.291 0.281 0.491 0.315 " transform="matrix(500,0,0,500,0,0)"/>
<path style="fill:none;stroke-width:0.01;stroke-linecap:butt;stroke-linejoin:miter;stroke:rgb(56.5%,27.3%,76.8%);stroke-opacity:1;stroke-miterlimit:10;" d="M 0.491 0.315 C 0.684 0.294 0.918 0.279 0.881 0.304 " transform="matrix(500,0,0,500,0,0)"/>
<path style="fill:none;stroke-width:0.01;stroke-linecap:butt;stroke-linejoin:miter;stroke:rgb(40.8%,19.7%,61.4%);stroke-opacity:1;stroke-miterlimit:10;" d="M 0.881 0.304 C 0.721 0.309 0.49 0.313 0.279 0.307 " transform="matrix(500,0,0,500,0,0)"/>
<path style="fill:none;stroke-width:0.01;stroke-linecap:butt;stroke-linejoin:miter;stroke:rgb(48.5%,36.3%,86.7%);stroke-opacity:1;stroke-miterlimit:10;" d="M 0.279 0.307 C 0.112 0.284 0.106 0.495 0.286 0.521 " transform="matrix(500,0,0,500,0,0)"/>
<path style="fill:none;stroke-width:0.01;stroke-linecap:butt;stroke-linejoin:miter;stroke:rgb(3.7%,52.8%,68.4%);stroke-opacity:1;stroke-miterlimit:10;" d="M 0.286 0.521 C 0.517 0.501 0.703 0.507 0.916 0.502 " transform="matrix(500,0,0,500,0,0)"/>
<path style="fill:none;stroke-width:0.01;stroke-linecap:butt;stroke-linejoin:miter;stroke:rgb(49.2%,7.8%,28.7%);stroke-opacity:1;stroke-miterlimit:10;" d="M 0.916 0.502 C 0.903 0.497 0.694 0.494 0.482 0.5 " transform="matrix(500,0,0,500,0,0)"/>
<path style="fill:none;stroke-width:0.01;stroke-linecap:butt;stroke-linejoin:miter;stroke:rgb(84.2%,49.8%,12.9%);stroke-opacity:1;stroke-miterlimit:10;" d="M 0.482 0.5 C 0.303 0.491 0.108 0.496 0.121 0.686 " transform="matrix(500,0,0,500,0,0)"/>
<path style="fill:none;stroke-width:0.01;stroke-linecap:butt;stroke-linejoin:miter;stroke:rgb(4.8%,64.7%,69.9%);stroke-opacity:1;stroke-miterlimit:10;" d="M 0.121 0.686 C 0.303 0.707 0.512 0.695 0.709 0.688 " transform="matrix(500,0,0,500,0,0)"/>
<path style="fill:none;stroke-width:0.01;stroke-linecap:butt;stroke-linejoin:miter;stroke:rgb(23.1%,75.6%,81.8%);stroke-opacity:1;stroke-miterlimit:10;" d="M 0.709 0.688 C 0.898 0.698 0.888 0.701 0.722 0.694 " transform="matrix(500,0,0,500,0,0)"/>
<path style="fill:none;stroke-width:0.01;stroke-linecap:butt;stroke-linejoin:miter;stroke:rgb(99.5%,94.1%,60.6%);stroke-opacity:1;stroke-miterlimit:10;" d="M 0.722 0.694 C 0.484 0.687 0.31 0.715 0.097 0.709 " transform="matrix(500,0,0,500,0,0)"/>
<path style="fill:none;stroke-width:0.01;stroke-linecap:butt;stroke-linejoin:miter;stroke:rgb(1.8%,67.8%,7.3%);stroke-opacity:1;stroke-miterlimit:10;" d="M 0.097 0.709 C 0.102 0.917 0.292 0.919 0.492 0.92 " transform="matrix(500,0,0,500,0,0)"/>
<path style="fill:none;stroke-width:0.01;stroke-linecap:butt;stroke-linejoin:miter;stroke:rgb(94.4%,49.1%,43.1%);stroke-opacity:1;stroke-miterlimit:10;" d="M 0.492 0.92 C 0.68 0.891 0.915 0.879 0.905 0.881 " transform="matrix(500,0,0,500,0,0)"/>
<path style="fill:none;stroke-width:0.01;stroke-linecap:butt;stroke-linejoin:miter;stroke:rgb(88.8%,26.6%,92.9%);stroke-opacity:1;stroke-miterlimit:10;" d="M 0.905 0.881 C 0.693 0.917 0.486 0.877 0.313 0.908 " transform="matrix(500,0,0,500,0,0)"/>
<path style="fill:none;stroke-width:0.01;stroke-linecap:butt;stroke-linejoin:miter;stroke:rgb(92.5%,98.4%,71.7%);stroke-opacity:1;stroke-miterlimit:10;" d="M 0.313 0.908 C 0.118 0.901 0.108 0.913 0.306 0.877 " transform="matrix(500,0,0,500,0,0)"/>
<path style="fill:none;stroke-width:0.01;stroke-linecap:butt;stroke-linejoin:miter;stroke:rgb(14.7%,42.3%,48.1%);stroke-opacity:1;stroke-miterlimit:10;" d="M 0.306 0.877 C 0.493 0.905 0.706 0.921 0.91 0.912 " transform="matrix(500,0,0,500,0,0)"/>
<path style="fill:none;stroke-width:0.01;stroke-linecap:butt;stroke-linejoin:miter;stroke:rgb(49%,69.3%,92.9%);stroke-opacity:1;stroke-miterlimit:10;" d="M 0.91 0.912 C 0.919 0.897 0.719 0.912 0.484 0.894 " transform="matrix(500,0,0,500,0,0)"/>
<path style="fill:none;stroke-width:0.01;stroke-linecap:butt;stroke-linejoin:miter;stroke:rgb(22.8%,60.3%,33.8%);stroke-opacity:1;stroke-miterlimit:10;" d="M 0.484 0.894 C 0.303 0.884 0.117 0.892 0.12 0.686 " transform="matrix(500,0,0,500,0,0)"/>
<path style="fill:none;stroke-width:0.01;stroke-linecap:butt;stroke-linejoin:miter;stroke:rgb(58.1%,96.7%,60.9%);stroke-opacity:1;stroke-miterlimit:10;" d="M 0.12 0.686 C 0.317 0.688 0.485 0.696 0.679 0.703 " transform="matrix(500,0,0,500,0,0)"/>
<path style="fill:none;stroke-width:0.01;stroke-linecap:butt;stroke-linejoin:miter;stroke:rgb(98.1%,81.4%,68.2%);stroke-opacity:1;stroke-miterlimit:10;" d="M 0.679 0.703 C 0.907 0.718 0.906 0.687 0.713 0.702 " transform="matrix(500,0,0,500,0,0)"/>
<path style="fill:none;stroke-width:0.01;stroke-linecap:butt;stroke-linejoin:miter;stroke:rgb(70.3%,9.5%,11.5%);stroke-opacity:1;stroke-miterlimit:10;" d="M 0.713 0.702 C 0.506 0.68 0.286 0.699 0.094 0.699 " transform="matrix(500,0,0,500,0,0)"/>
<path style="fill:none;stroke-width:0.01;stroke-linecap:butt;stroke-linejoin:miter;stroke:rgb(23.5%,12.7%,96.2%);stroke-opacity:1;stroke-miterlimit:10;" d="M 0.094 0.699 C 0.122 0.498 0.312 0.509 0.477 0.489 " transform="matrix(500,0,0,500,0,0)"/>
<path style="fill:none;stroke-width:0.01;stroke-linecap:butt;stroke-linejoin:miter;stroke:rgb(72.9%,79.5%,89.5%);stroke-opacity:1;stroke-miterlimit:10;" d="M 0.477 0.489 C 0.689 0.495 0.894 0.482 0.907 0.504 " transform="matrix(500,0,0,500,0,0)"/>
<path style="fill:none;stroke-width:0.01;stroke-linecap:butt;stroke-linejoin:miter;stroke:rgb(87.4%,58%,73%);stroke-opacity:1;stroke-miterlimit:10;" d="M 0.907 0.504 C 0.704 0.477 0.48 0.486 0.318 0.481 " transform="matrix(500,0,0,500,0,0)"/>
<path style="fill:none;stroke-width:0.01;stroke-linecap:butt;stroke-linejoin:miter;stroke:rgb(62.5%,92.4%,59.5%);stroke-opacity:1;stroke-miterlimit:10;" d="M 0.318 0.481 C 0.082 0.51 0.09 0.322 0.317 0.311 " transform="matrix(500,0,0,500,0,0)"/>
<path style="fill:none;stroke-width:0.01;stroke-linecap:butt;stroke-linejoin:miter;stroke:rgb(85.2%,50.5%,89.5%);stroke-opacity:1;stroke-miterlimit:10;" d="M 0.317 0.311 C 0.521 0.308 0.703 0.318 0.9 0.307 " transform="matrix(500,0,0,500,0,0)"/>
<path style="fill:none;stroke-width:0.01;stroke-linecap:butt;stroke-linejoin:miter;stroke:rgb(21.4%,74.5%,79.6%);stroke-opacity:1;stroke-miterlimit:10;" d="M 0.9 0.307 C 0.895 0.31 0.708 0.282 0.497 0.291 " transform="matrix(500,0,0,500,0,0)"/>
<path style="fill:none;stroke-width:0.01;stroke-linecap:butt;stroke-linejoin:miter;stroke:rgb(56.4%,80.3%,81.7%);stroke-opacity:1;stroke-miterlimit:10;" d="M 0.497 0.291 C 0.321 0.302 0.095 0.312 0.081 0.104 " transform="matrix(500,0,0,500,0,0)"/>
<path style="fill:none;stroke-width:0.01;stroke-linecap:butt;stroke-linejoin:miter;stroke:rgb(37.4%,2.1%,46.2%);stroke-opacity:1;stroke-miterlimit:10;" d="M 0.081 0.104 C 0.314 0.106 0.514 0.1 0.702 0.117 " transform="matrix(500,0,0,500,0,0)"/>
<path style="fill:none;stroke-width:0.01;stroke-linecap:butt;stroke-linejoin:miter;stroke:rgb(98.7%,99.4%,39.9%);stroke-opacity:1;stroke-miterlimit:10;" d="M 0.702 0.117 C 0.883 0.111 0.912 0.083 0.712 0.113 " transform="matrix(500,0,0,500,0,0)"/>
<path style="fill:none;stroke-width:0.01;stroke-linecap:butt;stroke-linejoin:miter;stroke:rgb(98.4%,5.9%,5.9%);stroke-opacity:1;stroke-miterlimit:10;" d="M 0.712 0.113 C 0.477 0.106 0.321 0.1 0.108 0.086 " transform="matrix(500,0,0,500,0,0)"/>
<path style=" stroke:none;fill-rule:nonzero;fill:rgb(42.1%,97.9%,7.8%);fill-opacity:0.5;" d="M 160.5 173 L 88 159 L 94 97.5 L 160.5 173 "/>
<path style=" stroke:none;fill-rule:nonzero;fill:rgb(7.1%,35.6%,38.7%);fill-opacity:0.5;" d="M 374.5 57 L 315 61 L 317.5 114.5 L 374.5 57 "/>
<path style=" stroke:none;fill-rule:nonzero;fill:rgb(54.3%,73.9%,32.9%);fill-opacity:0.5;" d="M 336 173.5 L 405.5 175.5 L 391 116 L 336 173.5 "/>
<path style=" stroke:none;fill-rule:nonzero;fill:rgb(71.8%,22.6%,96.3%);fill-opacity:0.5;" d="M 184.5 45.5 L 241.5 50 L 250.5 124.5 L 184.5 45.5 "/>
<path style=" stroke:none;fill-rule:nonzero;fill:rgb(77.2%,84.5%,82.2%);fill-opacity:0.5;" d="M 68 129.5 L 135.5 137 L 144 66 L 68 129.5 "/>
<path style=" stroke:none;fill-rule:nonzero;fill:rgb(95.4%,83.3%,10.2%);fill-opacity:0.5;" d="M 310.5 356.5 L 247 355.5 L 268 292.5 L 310.5 356.5 "/>
<path style=" stroke:none;fill-rule:nonzero;fill:rgb(90.4%,37%,15.1%);fill-opacity:0.5;" d="M 460 370 L 402.5 380.5 L 384 306.5 L 460 370 "/>
<path style=" stroke:none;fill-rule:nonzero;fill:rgb(53.5%,77.1%,59.5%);fill-opacity:0.5;" d="M 204.5 263.5 L 154.5 287.5 L 171 345 L 204.5 263.5 "/>
<path style=" stroke:none;fill-rule:nonzero;fill:rgb(52%,65.8%,40.5%);fill-opacity:0.5;" d="M 95 385.5 L 166 404 L 156 339.5 L 95 385.5 "/>
<path style=" stroke:none;fill-rule:nonzero;fill:rgb(7.3%,47.5%,7.9%);fill-opacity:0.5;" d="M 273 270.5 L 347.5 286.5 L 368 354 L 273 270.5 "/>
<path style=" stroke:none;fill-rule:nonzero;fill:rgb(56%,29.9%,83.1%);fill-opacity:0.5;" d="M 471.5 410.5 L 419 416 L 394.5 350 L 471.5 410.5 "/>
<path style=" stroke:none;fill-rule:nonzero;fill:rgb(32.7%,54.1%,39.5%);fill-opacity:0.5;" d="M 220 368.5 L 161 349 L 139.5 417.5 L 220 368.5 "/>
<path style=" stroke:none;fill-rule:nonzero;fill:rgb(15.6%,27.1%,31%);fill-opacity:0.5;" d="M 61 462.5 L 130.5 445.5 L 145.5 395.5 L 61 462.5 "/>
<path style=" stroke:none;fill-rule:nonzero;fill:rgb(91.2%,16.6%,23.1%);fill-opacity:0.5;" d="M 361.5 410 L 301 422.5 L 304 359.5 L 361.5 410 "/>
<path style=" stroke:none;fill-rule:nonzero;fill:rgb(70.8%,57%,74.8%);fill-opacity:0.5;" d="M 374 456.5 L 434.5 431.5 L 454 364 L 374 456.5 "/>
<path style=" stroke:none;fill-rule:nonzero;fill:rgb(74.7%,39.7%,26.8%);fill-opacity:0.5;" d="M 243.5 227.5 L 177 226.5 L 202 151.5 L 243.5 227.5 "/>
<path style=" stroke:none;fill-rule:nonzero;fill:rgb(9.9%,60.6%,54.9%);fill-opacity:0.5;" d="M 125 280 L 60 272.5 L 71 209.5 L 125 280 "/>
<path style=" stroke:none;fill-rule:nonzero;fill:rgb(43.3%,0.2%,75.7%);fill-opacity:0.5;" d="M 299 123 L 365.5 132 L 347 195.5 L 299 123 "/>
<path style=" stroke:none;fill-rule:nonzero;fill:rgb(10.3%,73.1%,86.4%);fill-opacity:0.5;" d="M 463.5 181.5 L 402.5 201 L 402.5 271 L 463.5 181.5 "/>
<path style=" stroke:none;fill-rule:nonzero;fill:rgb(6.6%,67.1%,84.3%);fill-opacity:0.5;" d="M 289 250.5 L 224.5 253.5 L 200.5 196 L 289 250.5 "/>
<path style=" stroke:none;fill-rule:nonzero;fill:rgb(49.5%,30.7%,19.1%);fill-opacity:0.5;" d="M 134.5 66 L 76.5 84.5 L 100.5 152 L 134.5 66 "/>
<path style=" stroke:none;fill-rule:nonzero;fill:rgb(94.7%,66.2%,0.3%);fill-opacity:0.5;" d="M 294 57.5 L 352.5 69.5 L 372 126 L 294 57.5 "/>
<path style=" stroke:none;fill-rule:nonzero;fill:rgb(82.1%,27.7%,99.6%);fill-opacity:0.5;" d="M 358.5 32.5 L 412 33 L 392.5 93.5 L 358.5 32.5 "/>
<path style=" stroke:none;fill-rule:nonzero;fill:rgb(67.2%,38%,44.5%);fill-opacity:0.5;" d="M 248 23.5 L 176.5 10.5 L 166.5 65.5 L 248 23.5 "/>
<path style=" stroke:none;fill-rule:nonzero;fill:rgb(63.6%,56%,37.8%);fill-opacity:0.5;" d="M 92 124 L 146 117 L 159.5 50.5 L 92 124 "/>
<path style="fill:none;stroke-width:0.002;stroke-linecap:butt;stroke-linejoin:miter;stroke:rgb(84.1%,76.9%,74.5%);stroke-opacity:1;stroke-miterlimit:10;" d="M 0.412 0.35 L 0.425 0.118 " transform="matrix(500,0,0,500,0,0)"/>
<path style="fill:none;stroke-width:0.002;stroke-linecap:butt;stroke-linejoin:miter;stroke:rgb(33.4%,93.6%,57.5%);stroke-opacity:1;stroke-miterlimit:10;" d="M 0.766 0.233 L 0.194 0.455 " transform="matrix(500,0,0,500,0,0)"/>
<path style="fill:none;stroke-width:0.002;stroke-linecap:butt;stroke-linejoin:miter;stroke:rgb(9.5%,43.2%,70.5%);stroke-opacity:1;stroke-miterlimit:10;" d="M 0.779 0.894 L 0.315 0.978 " transform="matrix(500,0,0,500,0,0)"/>
<path style="fill:none;stroke-width:0.002;stroke-linecap:butt;stroke-linejoin:miter;stroke:rgb(14.8%,72.1%,7.3%);stroke-opacity:1;stroke-miterlimit:10;" d="M 0.79 0.83 L 0.857 0.079 " transform="matrix(500,0,0,500,0,0)"/>
<path style="fill:none;stroke-width:0.002;stroke-linecap:butt;stroke-linejoin:miter;stroke:rgb(73.3%,85%,94.1%);stroke-opacity:1;stroke-miterlimit:10;" d="M 0.383 0.132 L 0.432 0.277 " transform="matrix(500,0,0,500,0,0)"/>
<path style="fill:none;stroke-width:0.002;stroke-linecap:butt;stroke-linejoin:miter;stroke:rgb(65.7%,44.7%,46.6%);stroke-opacity:1;stroke-miterlimit:10;" d="M 0.466 0.971 L 0.316 0.749 " transform="matrix(500,0,0,500,0,0)"/>
<path style="fill:none;stroke-width:0.002;stroke-linecap:butt;stroke-linejoin:miter;stroke:rgb(44.2%,69.4%,39.1%);stroke-opacity:1;stroke-miterlimit:10;" d="M 0.016 0.82 L 0.148 0.524 " transform="matrix(500,0,0,500,0,0)"/>
<path style="fill:none;stroke-width:0.002;stroke-linecap:butt;stroke-linejoin:miter;stroke:rgb(5%,15.3%,23.1%);stroke-opacity:1;stroke-miterlimit:10;" d="M 0.748 0.958 L 0.225 0.204 " transform="matrix(500,0,0,500,0,0)"/>
<path style="fill:none;stroke-width:0.002;stroke-linecap:butt;stroke-linejoin:miter;stroke:rgb(55.1%,52.1%,68%);stroke-opacity:1;stroke-miterlimit:10;" d="M 0.329 0.955 L 0.824 0.398 " transform="matrix(500,0,0,500,0,0)"/>
<path style="fill:none;stroke-width:0.002;stroke-linecap:butt;stroke-linejoin:miter;stroke:rgb(62.3%,92.1%,85%);stroke-opacity:1;stroke-miterlimit:10;" d="M 0.354 0.078 L 0.307 0.406 " transform="matrix(500,0,0,500,0,0)"/>
<path style="fill:none;stroke-width:0.002;stroke-linecap:butt;stroke-linejoin:miter;stroke:rgb(14.8%,64%,10.2%);stroke-opacity:1;stroke-miterlimit:10;" d="M 0.184 0.551 L 0.634 0.281 " transform="matrix(500,0,0,500,0,0)"/>
<path style="fill:none;stroke-width:0.002;stroke-linecap:butt;stroke-linejoin:miter;stroke:rgb(78.7%,37.6%,98.7%);stroke-opacity:1;stroke-miterlimit:10;" d="M 0.624 0.713 L 0.048 0.676 " transform="matrix(500,0,0,500,0,0)"/>
<path style="fill:none;stroke-width:0.002;stroke-linecap:butt;stroke-linejoin:miter;stroke:rgb(51.5%,50.9%,38.6%);stroke-opacity:1;stroke-miterlimit:10;" d="M 0.512 0.919 L 0.483 0.293 " transform="matrix(500,0,0,500,0,0)"/>
<path style="fill:none;stroke-width:0.002;stroke-linecap:butt;stroke-linejoin:miter;stroke:rgb(54.3%,70.7%,50.5%);stroke-opacity:1;stroke-miterlimit:10;" d="M 0.34 0.101 L 0.282 0.136 " transform="matrix(500,0,0,500,0,0)"/>
<path style="fill:none;stroke-width:0.002;stroke-linecap:butt;stroke-linejoin:miter;stroke:rgb(10%,9%,80.1%);stroke-opacity:1;stroke-miterlimit:10;" d="M 0.793 0.895 L 0.284 0.54 " transform="matrix(500,0,0,500,0,0)"/>
<path style="fill:none;stroke-width:0.002;stroke-linecap:butt;stroke-linejoin:miter;stroke:rgb(41.3%,41.1%,53.9%);stroke-opacity:1;stroke-miterlimit:10;" d="M 0.789 0.725 L 0.965 0.426 " transform="matrix(500,0,0,500,0,0)"/>
<path style="fill:none;stroke-width:0.002;stroke-linecap:butt;stroke-linejoin:miter;stroke:rgb(78%,16.8%,98.9%);stroke-opacity:1;stroke-miterlimit:10;" d="M 0.361 0.434 L 0.221 0.103 " transform="matrix(500,0,0,500,0,0)"/>
<path style="fill:none;stroke-width:0.002;stroke-linecap:butt;stroke-linejoin:miter;stroke:rgb(14.7%,10.2%,86.4%);stroke-opacity:1;stroke-miterlimit:10;" d="M 0.714 0.575 L 0.06 0.091 " transform="matrix(500,0,0,500,0,0)"/>
<path style="fill:none;stroke-width:0.002;stroke-linecap:butt;stroke-linejoin:miter;stroke:rgb(32.3%,96.3%,34.4%);stroke-opacity:1;stroke-miterlimit:10;" d="M 0.165 0.331 L 0.229 0.42 " transform="matrix(500,0,0,500,0,0)"/>
<path style="fill:none;stroke-width:0.002;stroke-linecap:butt;stroke-linejoin:miter;stroke:rgb(17.6%,27.7%,42.7%);stroke-opacity:1;stroke-miterlimit:10;" d="M 0.833 0.757 L 0.613 0.422 " transform="matrix(500,0,0,500,0,0)"/>
</g>
</defs>
<g id="surface234">
<use xlink:href="#surface237"/>
</g>
</svg>
