<?xml version="1.0" encoding="UTF-8"?>
<svg xmlns="http://www.w3.org/2000/svg" xmlns:xlink="http://www.w3.org/1999/xlink" width="500pt" height="500pt" viewBox="0 0 500 500" version="1.1">
<defs>
<linearGradient id="linear0" gradientUnits="userSpaceOnUse" x1="0" y1="0.5" x2="1" y2="0.5" gradientTransform="matrix(500,0,0,500,0,0)">
<stop offset="0.4" style="stop-color:rgb(94%,94%,64.6%);stop-opacity:1;"/>
<stop offset="0.8" style="stop-color:rgb(78%,56.9%,46.4%);stop-opacity:1;"/>
</linearGradient>
<clipPath id="clip1">
  <rect x="0" y="0" width="500" height="500"/>
</clipPath>
<g id="surface348" clip-path="url(#clip1)">
<rect x="0" y="0" width="500" height="500" style="fill:url(#linear0);stroke:none;"/>
<path style=" stroke:none;fill-rule:nonzero;fill:rgb(54.9%,51.7%,57%);fill-opacity:1;" d="M 36.5 25 C 36.5 31.351562 31.351562 36.5 25 36.5 C 18.648438 36.5 13.5 31.351562 13.5 25 C 13.5 18.648438 18.648438 13.5 25 13.5 C 31.351562 13.5 36.5 18.648438 36.5 25 "/>
<path style=" stroke:none;fill-rule:nonzero;fill:rgb(4.7%,51.2%,85.2%);fill-opacity:1;" d="M 81 25 C 81 28.3125 78.3125 31 75 31 C 71.6875 31 69 28.3125 69 25 C 69 21.6875 71.6875 19 75 19 C 78.3125 19 81 21.6875 81 25 "/>
<path style=" stroke:none;fill-rule:nonzero;fill:rgb(9.4%,57.9%,32%);fill-opacity:1;" d="M 142.5 25 C 142.5 34.664062 134.664062 42.5 125 42.5 C 115.335938 42.5 107.5 34.664062 107.5 25 C 107.5 15.335938 115.335938 7.5 125 7.5 C 134.664062 7.5 142.5 15.335938 142.5 25 "/>
<path style=" stroke:none;fill-rule:nonzero;fill:rgb(0.3%,78.2%,95.9%);fill-opacity:1;" d="M 192.5 25 C 192.5 34.664062 184.664062 42.5 175 42.5 C 165.335938 42.5 157.5 34.664062 157.5 25 C 157.5 15.335938 165.335938 7.5 175 7.5 C 184.664062 7.5 192.5 15.335938 192.5 25 "/>
<path style=" stroke:none;fill-rule:nonzero;fill:rgb(47.6%,33%,64.8%);fill-opacity:1;" d="M 230 25 C 230 31.667969 220 31.667969 220 25 C 220 18.332031 230 18.332031 230 25 "/>
<path style=" stroke:none;fill-rule:nonzero;fill:rgb(23.4%,75.6%,44.7%);fill-opacity:1;" d="M 289.5 25 C 289.5 33.007812 283.007812 39.5 275 39.5 C 266.992188 39.5 260.5 33.007812 260.5 25 C 260.5 16.992188 266.992188 10.5 275 10.5 C 283.007812 10.5 289.5 16.992188 289.5 25 "/>
<path style=" stroke:none;fill-rule:nonzero;fill:rgb(49.4%,63.2%,90.5%);fill-opacity:1;" d="M 341 25 C 341 33.835938 333.835938 41 325 41 C 316.164062 41 309 33.835938 309 25 C 309 16.164062 316.164062 9 325 9 C 333.835938 9 341 16.164062 341 25 "/>
<path style=" stroke:none;fill-rule:nonzero;fill:rgb(86.9%,96.1%,86.9%);fill-opacity:1;" d="M 383 25 C 383 29.417969 379.417969 33 375 33 C 370.582031 33 367 29.417969 367 25 C 367 20.582031 370.582031 17 375 17 C 379.417969 17 383 20.582031 383 25 "/>
<path style=" stroke:none;fill-rule:nonzero;fill:rgb(6.5%,64.9%,48.4%);fill-opacity:1;" d="M 436.5 25 C 436.5 31.351562 431.351562 36.5 425 36.5 C 418.648438 36.5 413.5 31.351562 413.5 25 C 413.5 18.648438 418.648438 13.5 425 13.5 C 431.351562 13.5 436.5 18.648438 436.5 25 "/>
<path style=" stroke:none;fill-rule:nonzero;fill:rgb(63.9%,92.3%,98.1%);fill-opacity:1;" d="M 489 25 C 489 32.730469 482.730469 39 475 39 C 467.269531 39 461 32.730469 461 25 C 461 17.269531 467.269531 11 475 11 C 482.730469 11 489 17.269531 489 25 "/>
<path style=" stroke:none;fill-rule:nonzero;fill:rgb(79.8%,55.5%,4.8%);fill-opacity:1;" d="M 490.5 75 C 490.5 83.558594 483.558594 90.5 475 90.5 C 466.441406 90.5 459.5 83.558594 459.5 75 C 459.5 66.441406 466.441406 59.5 475 59.5 C 483.558594 59.5 490.5 66.441406 490.5 75 "/>
<path style=" stroke:none;fill-rule:nonzero;fill:rgb(48%,28.4%,66.6%);fill-opacity:1;" d="M 439.5 75 C 439.5 83.007812 433.007812 89.5 425 89.5 C 416.992188 89.5 410.5 83.007812 410.5 75 C 410.5 66.992188 416.992188 60.5 425 60.5 C 433.007812 60.5 439.5 66.992188 439.5 75 "/>
<path style=" stroke:none;fill-rule:nonzero;fill:rgb(32.4%,66.1%,97.8%);fill-opacity:1;" d="M 392.5 75 C 392.5 84.664062 384.664062 92.5 375 92.5 C 365.335938 92.5 357.5 84.664062 357.5 75 C 357.5 65.335938 365.335938 57.5 375 57.5 C 384.664062 57.5 392.5 65.335938 392.5 75 "/>
<path style=" stroke:none;fill-rule:nonzero;fill:rgb(11.1%,1.6%,97.3%);fill-opacity:1;" d="M 349 75 C 349 88.253906 338.253906 99 325 99 C 311.746094 99 301 88.253906 301 75 C 301 61.746094 311.746094 51 325 51 C 338.253906 51 349 61.746094 349 75 "/>
<path style=" stroke:none;fill-rule:nonzero;fill:rgb(58%,70.8%,52.3%);fill-opacity:1;" d="M 294 75 C 294 85.492188 285.492188 94 275 94 C 264.507812 94 256 85.492188 256 75 C 256 64.507812 264.507812 56 275 56 C 285.492188 56 294 64.507812 294 75 "/>
<path style=" stroke:none;fill-rule:nonzero;fill:rgb(92.3%,56.1%,55.2%);fill-opacity:1;" d="M 244.5 75 C 244.5 85.769531 235.769531 94.5 225 94.5 C 214.230469 94.5 205.5 85.769531 205.5 75 C 205.5 64.230469 214.230469 55.5 225 55.5 C 235.769531 55.5 244.5 64.230469 244.5 75 "/>
<path style=" stroke:none;fill-rule:nonzero;fill:rgb(5.8%,46.3%,42.6%);fill-opacity:1;" d="M 185.5 75 C 185.5 80.800781 180.800781 85.5 175 85.5 C 169.199219 85.5 164.5 80.800781 164.5 75 C 164.5 69.199219 169.199219 64.5 175 64.5 C 180.800781 64.5 185.5 69.199219 185.5 75 "/>
<path style=" stroke:none;fill-rule:nonzero;fill:rgb(72.6%,18.4%,34.1%);fill-opacity:1;" d="M 141 75 C 141 83.835938 133.835938 91 125 91 C 116.164062 91 109 83.835938 109 75 C 109 66.164062 116.164062 59 125 59 C 133.835938 59 141 66.164062 141 75 "/>
<path style=" stroke:none;fill-rule:nonzero;fill:rgb(37.2%,89.6%,57.1%);fill-opacity:1;" d="M 88.5 75 C 88.5 82.457031 82.457031 88.5 75 88.5 C 67.542969 88.5 61.5 82.457031 61.5 75 C 61.5 67.542969 67.542969 61.5 75 61.5 C 82.457031 61.5 88.5 67.542969 88.5 75 "/>
<path style=" stroke:none;fill-rule:nonzero;fill:rgb(91.7%,32.1%,26.5%);fill-opacity:1;" d="M 31.5 75 C 31.5 78.589844 28.589844 81.5 25 81.5 C 21.410156 81.5 18.5 78.589844 18.5 75 C 18.5 71.410156 21.410156 68.5 25 68.5 C 28.589844 68.5 31.5 71.410156 31.5 75 "/>
<path style=" stroke:none;fill-rule:nonzero;fill:rgb(83.5%,76.4%,55%);fill-opacity:1;" d="M 42.5 125 C 42.5 134.664062 34.664062 142.5 25 142.5 C 15.335938 142.5 7.5 134.664062 7.5 125 C 7.5 115.335938 15.335938 107.5 25 107.5 C 34.664062 107.5 42.5 115.335938 42.5 125 "/>
<path style=" stroke:none;fill-rule:nonzero;fill:rgb(82.1%,0.5%,8.4%);fill-opacity:1;" d="M 100 125 C 100 138.808594 88.808594 150 75 150 C 61.191406 150 50 138.808594 50 125 C 50 111.191406 61.191406 100 75 100 C 88.808594 100 100 111.191406 100 125 "/>
<path style=" stroke:none;fill-rule:nonzero;fill:rgb(38.4%,2.1%,2.7%);fill-opacity:1;" d="M 147.5 125 C 147.5 137.425781 137.425781 147.5 125 147.5 C 112.574219 147.5 102.5 137.425781 102.5 125 C 102.5 112.574219 112.574219 102.5 125 102.5 C 137.425781 102.5 147.5 112.574219 147.5 125 "/>
<path style=" stroke:none;fill-rule:nonzero;fill:rgb(43.2%,90.5%,41.8%);fill-opacity:1;" d="M 180.5 125 C 180.5 128.039062 178.039062 130.5 175 130.5 C 171.960938 130.5 169.5 128.039062 169.5 125 C 169.5 121.960938 171.960938 119.5 175 119.5 C 178.039062 119.5 180.5 121.960938 180.5 125 "/>
<path style=" stroke:none;fill-rule:nonzero;fill:rgb(1.5%,24%,81.2%);fill-opacity:1;" d="M 242 125 C 242 134.390625 234.390625 142 225 142 C 215.609375 142 208 134.390625 208 125 C 208 115.609375 215.609375 108 225 108 C 234.390625 108 242 115.609375 242 125 "/>
<path style=" stroke:none;fill-rule:nonzero;fill:rgb(28.2%,19%,85.3%);fill-opacity:1;" d="M 292 125 C 292 134.390625 284.390625 142 275 142 C 265.609375 142 258 134.390625 258 125 C 258 115.609375 265.609375 108 275 108 C 284.390625 108 292 115.609375 292 125 "/>
<path style=" stroke:none;fill-rule:nonzero;fill:rgb(91.1%,4%,2.9%);fill-opacity:1;" d="M 335.5 125 C 335.5 130.800781 330.800781 135.5 325 135.5 C 319.199219 135.5 314.5 130.800781 314.5 125 C 314.5 119.199219 319.199219 114.5 325 114.5 C 330.800781 114.5 335.5 119.199219 335.5 125 "/>
<path style=" stroke:none;fill-rule:nonzero;fill:rgb(57.5%,50.6%,31.8%);fill-opacity:1;" d="M 392 125 C 392 134.390625 384.390625 142 375 142 C 365.609375 142 358 134.390625 358 125 C 358 115.609375 365.609375 108 375 108 C 384.390625 108 392 115.609375 392 125 "/>
<path style=" stroke:none;fill-rule:nonzero;fill:rgb(18.4%,83.6%,42.8%);fill-opacity:1;" d="M 449.5 125 C 449.5 138.53125 438.53125 149.5 425 149.5 C 411.46875 149.5 400.5 138.53125 400.5 125 C 400.5 111.46875 411.46875 100.5 425 100.5 C 438.53125 100.5 449.5 111.46875 449.5 125 "/>
<path style=" stroke:none;fill-rule:nonzero;fill:rgb(7.1%,0.7%,2.7%);fill-opacity:1;" d="M 486.5 125 C 486.5 131.351562 481.351562 136.5 475 136.5 C 468.648438 136.5 463.5 131.351562 463.5 125 C 463.5 118.648438 468.648438 113.5 475 113.5 C 481.351562 113.5 486.5 118.648438 486.5 125 "/>
<path style=" stroke:none;fill-rule:nonzero;fill:rgb(79.1%,31.5%,3.1%);fill-opacity:1;" d="M 483.5 175 C 483.5 179.695312 479.695312 183.5 475 183.5 C 470.304688 183.5 466.5 179.695312 466.5 175 C 466.5 170.304688 470.304688 166.5 475 166.5 C 479.695312 166.5 483.5 170.304688 483.5 175 "/>
<path style=" stroke:none;fill-rule:nonzero;fill:rgb(30.4%,36.8%,30.8%);fill-opacity:1;" d="M 431.5 175 C 431.5 178.589844 428.589844 181.5 425 181.5 C 421.410156 181.5 418.5 178.589844 418.5 175 C 418.5 171.410156 421.410156 168.5 425 168.5 C 428.589844 168.5 431.5 171.410156 431.5 175 "/>
<path style=" stroke:none;fill-rule:nonzero;fill:rgb(72.2%,58.9%,61.2%);fill-opacity:1;" d="M 392 175 C 392 184.390625 384.390625 192 375 192 C 365.609375 192 358 184.390625 358 175 C 358 165.609375 365.609375 158 375 158 C 384.390625 158 392 165.609375 392 175 "/>
<path style=" stroke:none;fill-rule:nonzero;fill:rgb(94.4%,71.9%,98.3%);fill-opacity:1;" d="M 347 175 C 347 187.148438 337.148438 197 325 197 C 312.851562 197 303 187.148438 303 175 C 303 162.851562 312.851562 153 325 153 C 337.148438 153 347 162.851562 347 175 "/>
<path style=" stroke:none;fill-rule:nonzero;fill:rgb(15%,54.2%,63.9%);fill-opacity:1;" d="M 287.5 175 C 287.5 181.902344 281.902344 187.5 275 187.5 C 268.097656 187.5 262.5 181.902344 262.5 175 C 262.5 168.097656 268.097656 162.5 275 162.5 C 281.902344 162.5 287.5 168.097656 287.5 175 "/>
<path style=" stroke:none;fill-rule:nonzero;fill:rgb(93.2%,68.7%,74.1%);fill-opacity:1;" d="M 235.5 175 C 235.5 180.800781 230.800781 185.5 225 185.5 C 219.199219 185.5 214.5 180.800781 214.5 175 C 214.5 169.199219 219.199219 164.5 225 164.5 C 230.800781 164.5 235.5 169.199219 235.5 175 "/>
<path style=" stroke:none;fill-rule:nonzero;fill:rgb(19%,73.1%,25.8%);fill-opacity:1;" d="M 184.5 175 C 184.5 180.246094 180.246094 184.5 175 184.5 C 169.753906 184.5 165.5 180.246094 165.5 175 C 165.5 169.753906 169.753906 165.5 175 165.5 C 180.246094 165.5 184.5 169.753906 184.5 175 "/>
<path style=" stroke:none;fill-rule:nonzero;fill:rgb(4.6%,26.9%,54.6%);fill-opacity:1;" d="M 130.5 175 C 130.5 178.039062 128.039062 180.5 125 180.5 C 121.960938 180.5 119.5 178.039062 119.5 175 C 119.5 171.960938 121.960938 169.5 125 169.5 C 128.039062 169.5 130.5 171.960938 130.5 175 "/>
<path style=" stroke:none;fill-rule:nonzero;fill:rgb(12.6%,46%,12.5%);fill-opacity:1;" d="M 81.5 175 C 81.5 178.589844 78.589844 181.5 75 181.5 C 71.410156 181.5 68.5 178.589844 68.5 175 C 68.5 171.410156 71.410156 168.5 75 168.5 C 78.589844 168.5 81.5 171.410156 81.5 175 "/>
<path style=" stroke:none;fill-rule:nonzero;fill:rgb(58.3%,99.8%,69.3%);fill-opacity:1;" d="M 47 175 C 47 187.148438 37.148438 197 25 197 C 12.851562 197 3 187.148438 3 175 C 3 162.851562 12.851562 153 25 153 C 37.148438 153 47 162.851562 47 175 "/>
<path style=" stroke:none;fill-rule:nonzero;fill:rgb(48%,67.9%,85.1%);fill-opacity:1;" d="M 43 225 C 43 234.941406 34.941406 243 25 243 C 15.058594 243 7 234.941406 7 225 C 7 215.058594 15.058594 207 25 207 C 34.941406 207 43 215.058594 43 225 "/>
<path style=" stroke:none;fill-rule:nonzero;fill:rgb(40.3%,63.5%,96.2%);fill-opacity:1;" d="M 91 225 C 91 233.835938 83.835938 241 75 241 C 66.164062 241 59 233.835938 59 225 C 59 216.164062 66.164062 209 75 209 C 83.835938 209 91 216.164062 91 225 "/>
<path style=" stroke:none;fill-rule:nonzero;fill:rgb(66.4%,60.1%,23.6%);fill-opacity:1;" d="M 145.5 225 C 145.5 236.320312 136.320312 245.5 125 245.5 C 113.679688 245.5 104.5 236.320312 104.5 225 C 104.5 213.679688 113.679688 204.5 125 204.5 C 136.320312 204.5 145.5 213.679688 145.5 225 "/>
<path style=" stroke:none;fill-rule:nonzero;fill:rgb(99.4%,71.8%,56.3%);fill-opacity:1;" d="M 192.5 225 C 192.5 234.664062 184.664062 242.5 175 242.5 C 165.335938 242.5 157.5 234.664062 157.5 225 C 157.5 215.335938 165.335938 207.5 175 207.5 C 184.664062 207.5 192.5 215.335938 192.5 225 "/>
<path style=" stroke:none;fill-rule:nonzero;fill:rgb(59%,9.9%,15.5%);fill-opacity:1;" d="M 230 225 C 230 231.667969 220 231.667969 220 225 C 220 218.332031 230 218.332031 230 225 "/>
<path style=" stroke:none;fill-rule:nonzero;fill:rgb(86.3%,98.3%,96.1%);fill-opacity:1;" d="M 296 225 C 296 236.597656 286.597656 246 275 246 C 263.402344 246 254 236.597656 254 225 C 254 213.402344 263.402344 204 275 204 C 286.597656 204 296 213.402344 296 225 "/>
<path style=" stroke:none;fill-rule:nonzero;fill:rgb(61.6%,59.3%,90.2%);fill-opacity:1;" d="M 336.5 225 C 336.5 231.351562 331.351562 236.5 325 236.5 C 318.648438 236.5 313.5 231.351562 313.5 225 C 313.5 218.648438 318.648438 213.5 325 213.5 C 331.351562 213.5 336.5 218.648438 336.5 225 "/>
<path style=" stroke:none;fill-rule:nonzero;fill:rgb(25.9%,80.3%,19.2%);fill-opacity:1;" d="M 388 225 C 388 232.179688 382.179688 238 375 238 C 367.820312 238 362 232.179688 362 225 C 362 217.820312 367.820312 212 375 212 C 382.179688 212 388 217.820312 388 225 "/>
<path style=" stroke:none;fill-rule:nonzero;fill:rgb(55.7%,98.4%,35.5%);fill-opacity:1;" d="M 445 225 C 445 236.046875 436.046875 245 425 245 C 413.953125 245 405 236.046875 405 225 C 405 213.953125 413.953125 205 425 205 C 436.046875 205 445 213.953125 445 225 "/>
<path style=" stroke:none;fill-rule:nonzero;fill:rgb(58.4%,10.3%,88.5%);fill-opacity:1;" d="M 482 225 C 482 228.867188 478.867188 232 475 232 C 471.132812 232 468 228.867188 468 225 C 468 221.132812 471.132812 218 475 218 C 478.867188 218 482 221.132812 482 225 "/>
<path style=" stroke:none;fill-rule:nonzero;fill:rgb(99.3%,90.4%,51.7%);fill-opacity:1;" d="M 497 275 C 497 287.148438 487.148438 297 475 297 C 462.851562 297 453 287.148438 453 275 C 453 262.851562 462.851562 253 475 253 C 487.148438 253 497 262.851562 497 275 "/>
<path style=" stroke:none;fill-rule:nonzero;fill:rgb(28.3%,83.3%,35.7%);fill-opacity:1;" d="M 439 275 C 439 282.730469 432.730469 289 425 289 C 417.269531 289 411 282.730469 411 275 C 411 267.269531 417.269531 261 425 261 C 432.730469 261 439 267.269531 439 275 "/>
<path style=" stroke:none;fill-rule:nonzero;fill:rgb(35.4%,23.1%,26.6%);fill-opacity:1;" d="M 394 275 C 394 285.492188 385.492188 294 375 294 C 364.507812 294 356 285.492188 356 275 C 356 264.507812 364.507812 256 375 256 C 385.492188 256 394 264.507812 394 275 "/>
<path style=" stroke:none;fill-rule:nonzero;fill:rgb(37.1%,39.2%,84.9%);fill-opacity:1;" d="M 340 275 C 340 283.285156 333.285156 290 325 290 C 316.714844 290 310 283.285156 310 275 C 310 266.714844 316.714844 260 325 260 C 333.285156 260 340 266.714844 340 275 "/>
<path style=" stroke:none;fill-rule:nonzero;fill:rgb(76.2%,28.7%,10.5%);fill-opacity:1;" d="M 294.5 275 C 294.5 285.769531 285.769531 294.5 275 294.5 C 264.230469 294.5 255.5 285.769531 255.5 275 C 255.5 264.230469 264.230469 255.5 275 255.5 C 285.769531 255.5 294.5 264.230469 294.5 275 "/>
<path style=" stroke:none;fill-rule:nonzero;fill:rgb(66.8%,21.7%,42.6%);fill-opacity:1;" d="M 247 275 C 247 287.148438 237.148438 297 225 297 C 212.851562 297 203 287.148438 203 275 C 203 262.851562 212.851562 253 225 253 C 237.148438 253 247 262.851562 247 275 "/>
<path style=" stroke:none;fill-rule:nonzero;fill:rgb(74.2%,72.7%,41.7%);fill-opacity:1;" d="M 184.5 275 C 184.5 280.246094 180.246094 284.5 175 284.5 C 169.753906 284.5 165.5 280.246094 165.5 275 C 165.5 269.753906 169.753906 265.5 175 265.5 C 180.246094 265.5 184.5 269.753906 184.5 275 "/>
<path style=" stroke:none;fill-rule:nonzero;fill:rgb(69.5%,41.6%,86.8%);fill-opacity:1;" d="M 132.5 275 C 132.5 279.140625 129.140625 282.5 125 282.5 C 120.859375 282.5 117.5 279.140625 117.5 275 C 117.5 270.859375 120.859375 267.5 125 267.5 C 129.140625 267.5 132.5 270.859375 132.5 275 "/>
<path style=" stroke:none;fill-rule:nonzero;fill:rgb(71.2%,84.4%,71%);fill-opacity:1;" d="M 91.5 275 C 91.5 284.113281 84.113281 291.5 75 291.5 C 65.886719 291.5 58.5 284.113281 58.5 275 C 58.5 265.886719 65.886719 258.5 75 258.5 C 84.113281 258.5 91.5 265.886719 91.5 275 "/>
<path style=" stroke:none;fill-rule:nonzero;fill:rgb(68%,99.4%,87.6%);fill-opacity:1;" d="M 36.5 275 C 36.5 281.351562 31.351562 286.5 25 286.5 C 18.648438 286.5 13.5 281.351562 13.5 275 C 13.5 268.648438 18.648438 263.5 25 263.5 C 31.351562 263.5 36.5 268.648438 36.5 275 "/>
<path style=" stroke:none;fill-rule:nonzero;fill:rgb(62.4%,30%,53.1%);fill-opacity:1;" d="M 43 325 C 43 334.941406 34.941406 343 25 343 C 15.058594 343 7 334.941406 7 325 C 7 315.058594 15.058594 307 25 307 C 34.941406 307 43 315.058594 43 325 "/>
<path style=" stroke:none;fill-rule:nonzero;fill:rgb(53.8%,81.2%,30.5%);fill-opacity:1;" d="M 100 325 C 100 338.808594 88.808594 350 75 350 C 61.191406 350 50 338.808594 50 325 C 50 311.191406 61.191406 300 75 300 C 88.808594 300 100 311.191406 100 325 "/>
<path style=" stroke:none;fill-rule:nonzero;fill:rgb(85.1%,94.8%,74.4%);fill-opacity:1;" d="M 135.5 325 C 135.5 330.800781 130.800781 335.5 125 335.5 C 119.199219 335.5 114.5 330.800781 114.5 325 C 114.5 319.199219 119.199219 314.5 125 314.5 C 130.800781 314.5 135.5 319.199219 135.5 325 "/>
<path style=" stroke:none;fill-rule:nonzero;fill:rgb(76.5%,10.2%,94.2%);fill-opacity:1;" d="M 180 325 C 180 331.667969 170 331.667969 170 325 C 170 318.332031 180 318.332031 180 325 "/>
<path style=" stroke:none;fill-rule:nonzero;fill:rgb(86%,48.5%,42.3%);fill-opacity:1;" d="M 247.5 325 C 247.5 337.425781 237.425781 347.5 225 347.5 C 212.574219 347.5 202.5 337.425781 202.5 325 C 202.5 312.574219 212.574219 302.5 225 302.5 C 237.425781 302.5 247.5 312.574219 247.5 325 "/>
<path style=" stroke:none;fill-rule:nonzero;fill:rgb(47.1%,86.7%,16.5%);fill-opacity:1;" d="M 288.5 325 C 288.5 332.457031 282.457031 338.5 275 338.5 C 267.542969 338.5 261.5 332.457031 261.5 325 C 261.5 317.542969 267.542969 311.5 275 311.5 C 282.457031 311.5 288.5 317.542969 288.5 325 "/>
<path style=" stroke:none;fill-rule:nonzero;fill:rgb(89.8%,79.4%,59.4%);fill-opacity:1;" d="M 344 325 C 344 335.492188 335.492188 344 325 344 C 314.507812 344 306 335.492188 306 325 C 306 314.507812 314.507812 306 325 306 C 335.492188 306 344 314.507812 344 325 "/>
<path style=" stroke:none;fill-rule:nonzero;fill:rgb(29.2%,18.2%,49.5%);fill-opacity:1;" d="M 390.5 325 C 390.5 333.558594 383.558594 340.5 375 340.5 C 366.441406 340.5 359.5 333.558594 359.5 325 C 359.5 316.441406 366.441406 309.5 375 309.5 C 383.558594 309.5 390.5 316.441406 390.5 325 "/>
<path style=" stroke:none;fill-rule:nonzero;fill:rgb(59.8%,59.8%,69.7%);fill-opacity:1;" d="M 442 325 C 442 334.390625 434.390625 342 425 342 C 415.609375 342 408 334.390625 408 325 C 408 315.609375 415.609375 308 425 308 C 434.390625 308 442 315.609375 442 325 "/>
<path style=" stroke:none;fill-rule:nonzero;fill:rgb(36.5%,33.5%,37.5%);fill-opacity:1;" d="M 498 325 C 498 337.703125 487.703125 348 475 348 C 462.296875 348 452 337.703125 452 325 C 452 312.296875 462.296875 302 475 302 C 487.703125 302 498 312.296875 498 325 "/>
<path style=" stroke:none;fill-rule:nonzero;fill:rgb(95.5%,77.4%,35.2%);fill-opacity:1;" d="M 499 375 C 499 388.253906 488.253906 399 475 399 C 461.746094 399 451 388.253906 451 375 C 451 361.746094 461.746094 351 475 351 C 488.253906 351 499 361.746094 499 375 "/>
<path style=" stroke:none;fill-rule:nonzero;fill:rgb(91.3%,19.5%,42.5%);fill-opacity:1;" d="M 441 375 C 441 383.835938 433.835938 391 425 391 C 416.164062 391 409 383.835938 409 375 C 409 366.164062 416.164062 359 425 359 C 433.835938 359 441 366.164062 441 375 "/>
<path style=" stroke:none;fill-rule:nonzero;fill:rgb(72.4%,1.7%,98.8%);fill-opacity:1;" d="M 396.5 375 C 396.5 386.875 386.875 396.5 375 396.5 C 363.125 396.5 353.5 386.875 353.5 375 C 353.5 363.125 363.125 353.5 375 353.5 C 386.875 353.5 396.5 363.125 396.5 375 "/>
<path style=" stroke:none;fill-rule:nonzero;fill:rgb(31.9%,84.8%,94.3%);fill-opacity:1;" d="M 350 375 C 350 388.808594 338.808594 400 325 400 C 311.191406 400 300 388.808594 300 375 C 300 361.191406 311.191406 350 325 350 C 338.808594 350 350 361.191406 350 375 "/>
<path style=" stroke:none;fill-rule:nonzero;fill:rgb(50.7%,29.7%,49.1%);fill-opacity:1;" d="M 286.5 375 C 286.5 381.351562 281.351562 386.5 275 386.5 C 268.648438 386.5 263.5 381.351562 263.5 375 C 263.5 368.648438 268.648438 363.5 275 363.5 C 281.351562 363.5 286.5 368.648438 286.5 375 "/>
<path style=" stroke:none;fill-rule:nonzero;fill:rgb(50.2%,89.5%,39.4%);fill-opacity:1;" d="M 231 375 C 231 378.3125 228.3125 381 225 381 C 221.6875 381 219 378.3125 219 375 C 219 371.6875 221.6875 369 225 369 C 228.3125 369 231 371.6875 231 375 "/>
<path style=" stroke:none;fill-rule:nonzero;fill:rgb(10.9%,13.7%,39.6%);fill-opacity:1;" d="M 189.5 375 C 189.5 383.007812 183.007812 389.5 175 389.5 C 166.992188 389.5 160.5 383.007812 160.5 375 C 160.5 366.992188 166.992188 360.5 175 360.5 C 183.007812 360.5 189.5 366.992188 189.5 375 "/>
<path style=" stroke:none;fill-rule:nonzero;fill:rgb(16.1%,2.6%,52%);fill-opacity:1;" d="M 145 375 C 145 386.046875 136.046875 395 125 395 C 113.953125 395 105 386.046875 105 375 C 105 363.953125 113.953125 355 125 355 C 136.046875 355 145 363.953125 145 375 "/>
<path style=" stroke:none;fill-rule:nonzero;fill:rgb(70%,36.1%,12.1%);fill-opacity:1;" d="M 88 375 C 88 382.179688 82.179688 388 75 388 C 67.820312 388 62 382.179688 62 375 C 62 367.820312 67.820312 362 75 362 C 82.179688 362 88 367.820312 88 375 "/>
<path style=" stroke:none;fill-rule:nonzero;fill:rgb(51.5%,16.4%,28.7%);fill-opacity:1;" d="M 44 375 C 44 385.492188 35.492188 394 25 394 C 14.507812 394 6 385.492188 6 375 C 6 364.507812 14.507812 356 25 356 C 35.492188 356 44 364.507812 44 375 "/>
<path style=" stroke:none;fill-rule:nonzero;fill:rgb(30.6%,96.6%,62.6%);fill-opacity:1;" d="M 42.5 425 C 42.5 434.664062 34.664062 442.5 25 442.5 C 15.335938 442.5 7.5 434.664062 7.5 425 C 7.5 415.335938 15.335938 407.5 25 407.5 C 34.664062 407.5 42.5 415.335938 42.5 425 "/>
<path style=" stroke:none;fill-rule:nonzero;fill:rgb(90.4%,54.2%,92.4%);fill-opacity:1;" d="M 93.5 425 C 93.5 435.21875 85.21875 443.5 75 443.5 C 64.78125 443.5 56.5 435.21875 56.5 425 C 56.5 414.78125 64.78125 406.5 75 406.5 C 85.21875 406.5 93.5 414.78125 93.5 425 "/>
<path style=" stroke:none;fill-rule:nonzero;fill:rgb(48.1%,92.6%,17.3%);fill-opacity:1;" d="M 145.5 425 C 145.5 436.320312 136.320312 445.5 125 445.5 C 113.679688 445.5 104.5 436.320312 104.5 425 C 104.5 413.679688 113.679688 404.5 125 404.5 C 136.320312 404.5 145.5 413.679688 145.5 425 "/>
<path style=" stroke:none;fill-rule:nonzero;fill:rgb(85.8%,68%,69.9%);fill-opacity:1;" d="M 183.5 425 C 183.5 429.695312 179.695312 433.5 175 433.5 C 170.304688 433.5 166.5 429.695312 166.5 425 C 166.5 420.304688 170.304688 416.5 175 416.5 C 179.695312 416.5 183.5 420.304688 183.5 425 "/>
<path style=" stroke:none;fill-rule:nonzero;fill:rgb(54.3%,94.5%,9.8%);fill-opacity:1;" d="M 240 425 C 240 433.285156 233.285156 440 225 440 C 216.714844 440 210 433.285156 210 425 C 210 416.714844 216.714844 410 225 410 C 233.285156 410 240 416.714844 240 425 "/>
<path style=" stroke:none;fill-rule:nonzero;fill:rgb(73.9%,47.3%,91.8%);fill-opacity:1;" d="M 295 425 C 295 436.046875 286.046875 445 275 445 C 263.953125 445 255 436.046875 255 425 C 255 413.953125 263.953125 405 275 405 C 286.046875 405 295 413.953125 295 425 "/>
<path style=" stroke:none;fill-rule:nonzero;fill:rgb(78%,21.9%,85.7%);fill-opacity:1;" d="M 343.5 425 C 343.5 435.21875 335.21875 443.5 325 443.5 C 314.78125 443.5 306.5 435.21875 306.5 425 C 306.5 414.78125 314.78125 406.5 325 406.5 C 335.21875 406.5 343.5 414.78125 343.5 425 "/>
<path style=" stroke:none;fill-rule:nonzero;fill:rgb(78.1%,8.5%,30.8%);fill-opacity:1;" d="M 396.5 425 C 396.5 436.875 386.875 446.5 375 446.5 C 363.125 446.5 353.5 436.875 353.5 425 C 353.5 413.125 363.125 403.5 375 403.5 C 386.875 403.5 396.5 413.125 396.5 425 "/>
<path style=" stroke:none;fill-rule:nonzero;fill:rgb(93.5%,27.6%,94.9%);fill-opacity:1;" d="M 450 425 C 450 438.808594 438.808594 450 425 450 C 411.191406 450 400 438.808594 400 425 C 400 411.191406 411.191406 400 425 400 C 438.808594 400 450 411.191406 450 425 "/>
<path style=" stroke:none;fill-rule:nonzero;fill:rgb(44.5%,64.6%,46.1%);fill-opacity:1;" d="M 488 425 C 488 432.179688 482.179688 438 475 438 C 467.820312 438 462 432.179688 462 425 C 462 417.820312 467.820312 412 475 412 C 482.179688 412 488 417.820312 488 425 "/>
<path style=" stroke:none;fill-rule:nonzero;fill:rgb(25.6%,76.3%,98%);fill-opacity:1;" d="M 493 475 C 493 484.941406 484.941406 493 475 493 C 465.058594 493 457 484.941406 457 475 C 457 465.058594 465.058594 457 475 457 C 484.941406 457 493 465.058594 493 475 "/>
<path style=" stroke:none;fill-rule:nonzero;fill:rgb(63.2%,17.1%,94%);fill-opacity:1;" d="M 430.5 475 C 430.5 478.039062 428.039062 480.5 425 480.5 C 421.960938 480.5 419.5 478.039062 419.5 475 C 419.5 471.960938 421.960938 469.5 425 469.5 C 428.039062 469.5 430.5 471.960938 430.5 475 "/>
<path style=" stroke:none;fill-rule:nonzero;fill:rgb(44.3%,7.9%,80.3%);fill-opacity:1;" d="M 396.5 475 C 396.5 486.875 386.875 496.5 375 496.5 C 363.125 496.5 353.5 486.875 353.5 475 C 353.5 463.125 363.125 453.5 375 453.5 C 386.875 453.5 396.5 463.125 396.5 475 "/>
<path style=" stroke:none;fill-rule:nonzero;fill:rgb(21.4%,29.8%,96%);fill-opacity:1;" d="M 336.5 475 C 336.5 481.351562 331.351562 486.5 325 486.5 C 318.648438 486.5 313.5 481.351562 313.5 475 C 313.5 468.648438 318.648438 463.5 325 463.5 C 331.351562 463.5 336.5 468.648438 336.5 475 "/>
<path style=" stroke:none;fill-rule:nonzero;fill:rgb(46.4%,3%,39.2%);fill-opacity:1;" d="M 286 475 C 286 481.074219 281.074219 486 275 486 C 268.925781 486 264 481.074219 264 475 C 264 468.925781 268.925781 464 275 464 C 281.074219 464 286 468.925781 286 475 "/>
<path style=" stroke:none;fill-rule:nonzero;fill:rgb(80%,39.1%,92.4%);fill-opacity:1;" d="M 248.5 475 C 248.5 487.980469 237.980469 498.5 225 498.5 C 212.019531 498.5 201.5 487.980469 201.5 475 C 201.5 462.019531 212.019531 451.5 225 451.5 C 237.980469 451.5 248.5 462.019531 248.5 475 "/>
<path style=" stroke:none;fill-rule:nonzero;fill:rgb(40%,72.6%,14.9%);fill-opacity:1;" d="M 195.5 475 C 195.5 486.320312 186.320312 495.5 175 495.5 C 163.679688 495.5 154.5 486.320312 154.5 475 C 154.5 463.679688 163.679688 454.5 175 454.5 C 186.320312 454.5 195.5 463.679688 195.5 475 "/>
<path style=" stroke:none;fill-rule:nonzero;fill:rgb(84.2%,17.7%,37.2%);fill-opacity:1;" d="M 136 475 C 136 481.074219 131.074219 486 125 486 C 118.925781 486 114 481.074219 114 475 C 114 468.925781 118.925781 464 125 464 C 131.074219 464 136 468.925781 136 475 "/>
<path style=" stroke:none;fill-rule:nonzero;fill:rgb(77.5%,60.7%,70%);fill-opacity:1;" d="M 94 475 C 94 485.492188 85.492188 494 75 494 C 64.507812 494 56 485.492188 56 475 C 56 464.507812 64.507812 456 75 456 C 85.492188 456 94 464.507812 94 475 "/>
<path style=" stroke:none;fill-rule:nonzero;fill:rgb(67.5%,9.9%,36.5%);fill-opacity:1;" d="M 32.5 475 C 32.5 479.140625 29.140625 482.5 25 482.5 C 20.859375 482.5 17.5 479.140625 17.5 475 C 17.5 470.859375 20.859375 467.5 25 467.5 C 29.140625 467.5 32.5 470.859375 32.5 475 "/>
<path style="fill:none;stroke-width:0.01;stroke-linecap:butt;stroke-linejoin:miter;stroke:rgb(44.8%,92.5%,18%);stroke-opacity:1;stroke-miterlimit:10;" d="M 0.05 0.05 C 0.15 0.05 0.25 0.05 0.35 0.05 " transform="matrix(500,0,0,500,0,0)"/>
<path style="fill:none;stroke-width:0.01;stroke-linecap:butt;stroke-linejoin:miter;stroke:rgb(3.7%,50.1%,43.7%);stroke-opacity:1;stroke-miterlimit:10;" d="M 0.35 0.05 C 0.45 0.05 0.55 0.05 0.65 0.05 " transform="matrix(500,0,0,500,0,0)"/>
<path style="fill:none;stroke-width:0.01;stroke-linecap:butt;stroke-linejoin:miter;stroke:rgb(23.5%,87.7%,34.3%);stroke-opacity:1;stroke-miterlimit:10;" d="M 0.65 0.05 C 0.75 0.05 0.85 0.05 0.95 0.05 " transform="matrix(500,0,0,500,0,0)"/>
<path style="fill:none;stroke-width:0.01;stroke-linecap:butt;stroke-linejoin:miter;stroke:rgb(93.4%,64.5%,40.3%);stroke-opacity:1;stroke-miterlimit:10;" d="M 0.95 0.05 C 0.95 0.15 0.85 0.15 0.75 0.15 " transform="matrix(500,0,0,500,0,0)"/>
<path style="fill:none;stroke-width:0.01;stroke-linecap:butt;stroke-linejoin:miter;stroke:rgb(53.4%,76.2%,49.7%);stroke-opacity:1;stroke-miterlimit:10;" d="M 0.75 0.15 C 0.65 0.15 0.55 0.15 0.45 0.15 " transform="matrix(500,0,0,500,0,0)"/>
<path style="fill:none;stroke-width:0.01;stroke-linecap:butt;stroke-linejoin:miter;stroke:rgb(14.6%,99%,41.7%);stroke-opacity:1;stroke-miterlimit:10;" d="M 0.45 0.15 C 0.35 0.15 0.25 0.15 0.15 0.15 " transform="matrix(500,0,0,500,0,0)"/>
<path style="fill:none;stroke-width:0.01;stroke-linecap:butt;stroke-linejoin:miter;stroke:rgb(95.8%,2%,25.3%);stroke-opacity:1;stroke-miterlimit:10;" d="M 0.15 0.15 C 0.05 0.15 0.05 0.25 0.15 0.25 " transform="matrix(500,0,0,500,0,0)"/>
<path style="fill:none;stroke-width:0.01;stroke-linecap:butt;stroke-linejoin:miter;stroke:rgb(10.7%,80.8%,59.3%);stroke-opacity:1;stroke-miterlimit:10;" d="M 0.15 0.25 C 0.25 0.25 0.35 0.25 0.45 0.25 " transform="matrix(500,0,0,500,0,0)"/>
<path style="fill:none;stroke-width:0.01;stroke-linecap:butt;stroke-linejoin:miter;stroke:rgb(92.6%,40%,55.7%);stroke-opacity:1;stroke-miterlimit:10;" d="M 0.45 0.25 C 0.55 0.25 0.65 0.25 0.75 0.25 " transform="matrix(500,0,0,500,0,0)"/>
<path style="fill:none;stroke-width:0.01;stroke-linecap:butt;stroke-linejoin:miter;stroke:rgb(21.2%,49.2%,19.5%);stroke-opacity:1;stroke-miterlimit:10;" d="M 0.75 0.25 C 0.85 0.25 0.95 0.25 0.95 0.35 " transform="matrix(500,0,0,500,0,0)"/>
<path style="fill:none;stroke-width:0.01;stroke-linecap:butt;stroke-linejoin:miter;stroke:rgb(37.5%,47.6%,70.6%);stroke-opacity:1;stroke-miterlimit:10;" d="M 0.95 0.35 C 0.85 0.35 0.75 0.35 0.65 0.35 " transform="matrix(500,0,0,500,0,0)"/>
<path style="fill:none;stroke-width:0.01;stroke-linecap:butt;stroke-linejoin:miter;stroke:rgb(9.6%,49%,3.7%);stroke-opacity:1;stroke-miterlimit:10;" d="M 0.65 0.35 C 0.55 0.35 0.45 0.35 0.35 0.35 " transform="matrix(500,0,0,500,0,0)"/>
<path style="fill:none;stroke-width:0.01;stroke-linecap:butt;stroke-linejoin:miter;stroke:rgb(58.9%,16.9%,3.1%);stroke-opacity:1;stroke-miterlimit:10;" d="M 0.35 0.35 C 0.25 0.35 0.15 0.35 0.05 0.35 " transform="matrix(500,0,0,500,0,0)"/>
<path style="fill:none;stroke-width:0.01;stroke-linecap:butt;stroke-linejoin:miter;stroke:rgb(89.1%,59.4%,83.3%);stroke-opacity:1;stroke-miterlimit:10;" d="M 0.05 0.35 C 0.05 0.45 0.15 0.45 0.25 0.45 " transform="matrix(500,0,0,500,0,0)"/>
<path style="fill:none;stroke-width:0.01;stroke-linecap:butt;stroke-linejoin:miter;stroke:rgb(91.9%,98.3%,88%);stroke-opacity:1;stroke-miterlimit:10;" d="M 0.25 0.45 C 0.35 0.45 0.45 0.45 0.55 0.45 " transform="matrix(500,0,0,500,0,0)"/>
<path style="fill:none;stroke-width:0.01;stroke-linecap:butt;stroke-linejoin:miter;stroke:rgb(52.3%,93.2%,96%);stroke-opacity:1;stroke-miterlimit:10;" d="M 0.55 0.45 C 0.65 0.45 0.75 0.45 0.85 0.45 " transform="matrix(500,0,0,500,0,0)"/>
<path style="fill:none;stroke-width:0.01;stroke-linecap:butt;stroke-linejoin:miter;stroke:rgb(79.6%,64.5%,89.1%);stroke-opacity:1;stroke-miterlimit:10;" d="M 0.85 0.45 C 0.95 0.45 0.95 0.55 0.85 0.55 " transform="matrix(500,0,0,500,0,0)"/>
<path style="fill:none;stroke-width:0.01;stroke-linecap:butt;stroke-linejoin:miter;stroke:rgb(28.1%,20.6%,76.7%);stroke-opacity:1;stroke-miterlimit:10;" d="M 0.85 0.55 C 0.75 0.55 0.65 0.55 0.55 0.55 " transform="matrix(500,0,0,500,0,0)"/>
<path style="fill:none;stroke-width:0.01;stroke-linecap:butt;stroke-linejoin:miter;stroke:rgb(2.5%,93.1%,79.1%);stroke-opacity:1;stroke-miterlimit:10;" d="M 0.55 0.55 C 0.45 0.55 0.35 0.55 0.25 0.55 " transform="matrix(500,0,0,500,0,0)"/>
<path style="fill:none;stroke-width:0.01;stroke-linecap:butt;stroke-linejoin:miter;stroke:rgb(8.4%,91%,44.7%);stroke-opacity:1;stroke-miterlimit:10;" d="M 0.25 0.55 C 0.15 0.55 0.05 0.55 0.05 0.65 " transform="matrix(500,0,0,500,0,0)"/>
<path style="fill:none;stroke-width:0.01;stroke-linecap:butt;stroke-linejoin:miter;stroke:rgb(53.6%,59.8%,60.8%);stroke-opacity:1;stroke-miterlimit:10;" d="M 0.05 0.65 C 0.15 0.65 0.25 0.65 0.35 0.65 " transform="matrix(500,0,0,500,0,0)"/>
<path style="fill:none;stroke-width:0.01;stroke-linecap:butt;stroke-linejoin:miter;stroke:rgb(38.2%,14.4%,9%);stroke-opacity:1;stroke-miterlimit:10;" d="M 0.35 0.65 C 0.45 0.65 0.55 0.65 0.65 0.65 " transform="matrix(500,0,0,500,0,0)"/>
<path style="fill:none;stroke-width:0.01;stroke-linecap:butt;stroke-linejoin:miter;stroke:rgb(39.5%,24.4%,0.3%);stroke-opacity:1;stroke-miterlimit:10;" d="M 0.65 0.65 C 0.75 0.65 0.85 0.65 0.95 0.65 " transform="matrix(500,0,0,500,0,0)"/>
<path style="fill:none;stroke-width:0.01;stroke-linecap:butt;stroke-linejoin:miter;stroke:rgb(76.5%,92.5%,48.7%);stroke-opacity:1;stroke-miterlimit:10;" d="M 0.95 0.65 C 0.95 0.75 0.85 0.75 0.75 0.75 " transform="matrix(500,0,0,500,0,0)"/>
<path style="fill:none;stroke-width:0.01;stroke-linecap:butt;stroke-linejoin:miter;stroke:rgb(35.2%,20.3%,40.6%);stroke-opacity:1;stroke-miterlimit:10;" d="M 0.75 0.75 C 0.65 0.75 0.55 0.75 0.45 0.75 " transform="matrix(500,0,0,500,0,0)"/>
<path style="fill:none;stroke-width:0.01;stroke-linecap:butt;stroke-linejoin:miter;stroke:rgb(84.9%,58.7%,29.2%);stroke-opacity:1;stroke-miterlimit:10;" d="M 0.45 0.75 C 0.35 0.75 0.25 0.75 0.15 0.75 " transform="matrix(500,0,0,500,0,0)"/>
<path style="fill:none;stroke-width:0.01;stroke-linecap:butt;stroke-linejoin:miter;stroke:rgb(56%,29.4%,1.7%);stroke-opacity:1;stroke-miterlimit:10;" d="M 0.15 0.75 C 0.05 0.75 0.05 0.85 0.15 0.85 " transform="matrix(500,0,0,500,0,0)"/>
<path style="fill:none;stroke-width:0.01;stroke-linecap:butt;stroke-linejoin:miter;stroke:rgb(63%,8.5%,90.5%);stroke-opacity:1;stroke-miterlimit:10;" d="M 0.15 0.85 C 0.25 0.85 0.35 0.85 0.45 0.85 " transform="matrix(500,0,0,500,0,0)"/>
<path style="fill:none;stroke-width:0.01;stroke-linecap:butt;stroke-linejoin:miter;stroke:rgb(56%,89.5%,16.4%);stroke-opacity:1;stroke-miterlimit:10;" d="M 0.45 0.85 C 0.55 0.85 0.65 0.85 0.75 0.85 " transform="matrix(500,0,0,500,0,0)"/>
<path style="fill:none;stroke-width:0.01;stroke-linecap:butt;stroke-linejoin:miter;stroke:rgb(14.5%,61.2%,50.1%);stroke-opacity:1;stroke-miterlimit:10;" d="M 0.75 0.85 C 0.85 0.85 0.95 0.85 0.95 0.95 " transform="matrix(500,0,0,500,0,0)"/>
<path style="fill:none;stroke-width:0.01;stroke-linecap:butt;stroke-linejoin:miter;stroke:rgb(19.2%,80.2%,17.4%);stroke-opacity:1;stroke-miterlimit:10;" d="M 0.95 0.95 C 0.85 0.95 0.75 0.95 0.65 0.95 " transform="matrix(500,0,0,500,0,0)"/>
<path style="fill:none;stroke-width:0.01;stroke-linecap:butt;stroke-linejoin:miter;stroke:rgb(84.1%,64.7%,40.8%);stroke-opacity:1;stroke-miterlimit:10;" d="M 0.65 0.95 C 0.55 0.95 0.45 0.95 0.35 0.95 " transform="matrix(500,0,0,500,0,0)"/>
<path style="fill:none;stroke-width:0.01;stroke-linecap:butt;stroke-linejoin:miter;stroke:rgb(30.4%,64.2%,83.1%);stroke-opacity:1;stroke-miterlimit:10;" d="M 0.35 0.95 C 0.25 0.95 0.15 0.95 0.05 0.95 " transform="matrix(500,0,0,500,0,0)"/>
<path style=" stroke:none;fill-rule:nonzero;fill:rgb(55.9%,25.2%,29.5%);fill-opacity:0.5;" d="M 85 64.5 L 23 82.5 L 15.5 16 L 85 64.5 "/>
<path style=" stroke:none;fill-rule:nonzero;fill:rgb(99.8%,92.7%,3.2%);fill-opacity:0.5;" d="M 147.5 81 L 213.5 103.5 L 233.5 43 L 147.5 81 "/>
<path style=" stroke:none;fill-rule:nonzero;fill:rgb(9.4%,29.2%,45.5%);fill-opacity:0.5;" d="M 265 76 L 194 78 L 186.5 9 L 265 76 "/>
<path style=" stroke:none;fill-rule:nonzero;fill:rgb(84.1%,47.9%,54.2%);fill-opacity:0.5;" d="M 362.5 22.5 L 304 39 L 313.5 112.5 L 362.5 22.5 "/>
<path style=" stroke:none;fill-rule:nonzero;fill:rgb(78.3%,49.8%,41%);fill-opacity:0.5;" d="M 433 54.5 L 489 61.5 L 503.5 2 L 433 54.5 "/>
<path style=" stroke:none;fill-rule:nonzero;fill:rgb(16.2%,49.9%,98.4%);fill-opacity:0.5;" d="M 405.5 154 L 461.5 148 L 478.5 93 L 405.5 154 "/>
<path style=" stroke:none;fill-rule:nonzero;fill:rgb(6.1%,85.7%,39.9%);fill-opacity:0.5;" d="M 366 110 L 299 94 L 285 168.5 L 366 110 "/>
<path style=" stroke:none;fill-rule:nonzero;fill:rgb(87%,33.7%,21.5%);fill-opacity:0.5;" d="M 231.5 186.5 L 283.5 188.5 L 289.5 114 L 231.5 186.5 "/>
<path style=" stroke:none;fill-rule:nonzero;fill:rgb(2.7%,4.1%,58.3%);fill-opacity:0.5;" d="M 117.5 178 L 171.5 178 L 166 121 L 117.5 178 "/>
<path style=" stroke:none;fill-rule:nonzero;fill:rgb(0.5%,73.6%,23.1%);fill-opacity:0.5;" d="M 25 172.5 L 79 148 L 86 93.5 L 25 172.5 "/>
<path style=" stroke:none;fill-rule:nonzero;fill:rgb(21.7%,1.3%,29.5%);fill-opacity:0.5;" d="M 72.5 239.5 L 15.5 225.5 L 33.5 289.5 L 72.5 239.5 "/>
<path style=" stroke:none;fill-rule:nonzero;fill:rgb(71.3%,10.3%,7.2%);fill-opacity:0.5;" d="M 185.5 257 L 133 242 L 137.5 180 L 185.5 257 "/>
<path style=" stroke:none;fill-rule:nonzero;fill:rgb(93.2%,20.9%,3.5%);fill-opacity:0.5;" d="M 227.5 282.5 L 288.5 259 L 294 184 L 227.5 282.5 "/>
<path style=" stroke:none;fill-rule:nonzero;fill:rgb(74.3%,37.2%,62.4%);fill-opacity:0.5;" d="M 376.5 300 L 315.5 302 L 305 250 L 376.5 300 "/>
<path style=" stroke:none;fill-rule:nonzero;fill:rgb(84.5%,60.9%,70.8%);fill-opacity:0.5;" d="M 462 206.5 L 409 190.5 L 399 251 L 462 206.5 "/>
<path style=" stroke:none;fill-rule:nonzero;fill:rgb(92.7%,39.3%,65.9%);fill-opacity:0.5;" d="M 490 400 L 421 390.5 L 441.5 325.5 L 490 400 "/>
<path style=" stroke:none;fill-rule:nonzero;fill:rgb(17.6%,58.7%,69.1%);fill-opacity:0.5;" d="M 330 362 L 398 380.5 L 386 307 L 330 362 "/>
<path style=" stroke:none;fill-rule:nonzero;fill:rgb(7.2%,96.9%,14.9%);fill-opacity:0.5;" d="M 221.5 301.5 L 296 281 L 318 349 L 221.5 301.5 "/>
<path style=" stroke:none;fill-rule:nonzero;fill:rgb(63.8%,69.7%,61%);fill-opacity:0.5;" d="M 180 356.5 L 106.5 355 L 122 283.5 L 180 356.5 "/>
<path style=" stroke:none;fill-rule:nonzero;fill:rgb(20.9%,12.3%,91.8%);fill-opacity:0.5;" d="M 2 351 L 67 352 L 56.5 289.5 L 2 351 "/>
<path style=" stroke:none;fill-rule:nonzero;fill:rgb(80.9%,42.3%,52.4%);fill-opacity:0.5;" d="M 80.5 452.5 L 12 454 L 17.5 386.5 L 80.5 452.5 "/>
<path style=" stroke:none;fill-rule:nonzero;fill:rgb(99.7%,62.5%,42.5%);fill-opacity:0.5;" d="M 196.5 493 L 143 496 L 137.5 426.5 L 196.5 493 "/>
<path style=" stroke:none;fill-rule:nonzero;fill:rgb(72.1%,74.7%,82.2%);fill-opacity:0.5;" d="M 221 416.5 L 278 416.5 L 259.5 471.5 L 221 416.5 "/>
<path style=" stroke:none;fill-rule:nonzero;fill:rgb(43.1%,32.1%,37.5%);fill-opacity:0.5;" d="M 346 427 L 412.5 404.5 L 420 477.5 L 346 427 "/>
<path style=" stroke:none;fill-rule:nonzero;fill:rgb(87.5%,75.2%,30.1%);fill-opacity:0.5;" d="M 498.5 472 L 427.5 463.5 L 423.5 399.5 L 498.5 472 "/>
<path style="fill:none;stroke-width:0.002;stroke-linecap:butt;stroke-linejoin:miter;stroke:rgb(51.9%,98.2%,7.3%);stroke-opacity:1;stroke-miterlimit:10;" d="M 0.019 0.549 L 0.777 0.004 " transform="matrix(500,0,0,500,0,0)"/>
<path style="fill:none;stroke-width:0.002;stroke-linecap:butt;stroke-linejoin:miter;stroke:rgb(26.5%,7.3%,1.6%);stroke-opacity:1;stroke-miterlimit:10;" d="M 0.143 0.486 L 0.488 0.939 " transform="matrix(500,0,0,500,0,0)"/>
<path style="fill:none;stroke-width:0.002;stroke-linecap:butt;stroke-linejoin:miter;stroke:rgb(74%,98.4%,97.5%);stroke-opacity:1;stroke-miterlimit:10;" d="M 0.677 0.448 L 0.632 0.934 " transform="matrix(500,0,0,500,0,0)"/>
<path style="fill:none;stroke-width:0.002;stroke-linecap:butt;stroke-linejoin:miter;stroke:rgb(14.6%,80.2%,72.7%);stroke-opacity:1;stroke-miterlimit:10;" d="M 0.839 0.792 L 0.206 0.706 " transform="matrix(500,0,0,500,0,0)"/>
<path style="fill:none;stroke-width:0.002;stroke-linecap:butt;stroke-linejoin:miter;stroke:rgb(8%,96.9%,35.8%);stroke-opacity:1;stroke-miterlimit:10;" d="M 0.51 0.647 L 0.704 0.937 " transform="matrix(500,0,0,500,0,0)"/>
<path style="fill:none;stroke-width:0.002;stroke-linecap:butt;stroke-linejoin:miter;stroke:rgb(62.5%,78.4%,14.1%);stroke-opacity:1;stroke-miterlimit:10;" d="M 0.196 0.217 L 0.212 0.76 " transform="matrix(500,0,0,500,0,0)"/>
<path style="fill:none;stroke-width:0.002;stroke-linecap:butt;stroke-linejoin:miter;stroke:rgb(45%,61.9%,36.5%);stroke-opacity:1;stroke-miterlimit:10;" d="M 0.201 0.487 L 0.607 0.428 " transform="matrix(500,0,0,500,0,0)"/>
<path style="fill:none;stroke-width:0.002;stroke-linecap:butt;stroke-linejoin:miter;stroke:rgb(86.4%,16.5%,34.4%);stroke-opacity:1;stroke-miterlimit:10;" d="M 0.925 0.139 L 0.353 0.131 " transform="matrix(500,0,0,500,0,0)"/>
<path style="fill:none;stroke-width:0.002;stroke-linecap:butt;stroke-linejoin:miter;stroke:rgb(10.2%,81.3%,11.3%);stroke-opacity:1;stroke-miterlimit:10;" d="M 0.471 0.281 L 0.51 0.353 " transform="matrix(500,0,0,500,0,0)"/>
<path style="fill:none;stroke-width:0.002;stroke-linecap:butt;stroke-linejoin:miter;stroke:rgb(38.7%,67.7%,21.8%);stroke-opacity:1;stroke-miterlimit:10;" d="M 0.091 0.512 L 0.952 0.804 " transform="matrix(500,0,0,500,0,0)"/>
</g>
</defs>
<g id="surface345">
<use xlink:href="#surface348"/>
</g>
</svg>
