<?xml version="1.0" encoding="UTF-8"?>
<svg xmlns="http://www.w3.org/2000/svg" xmlns:xlink="http://www.w3.org/1999/xlink" width="500pt" height="500pt" viewBox="0 0 500 500" version="1.1">
<defs>
<clipPath id="clip1">
  <rect x="0" y="0" width="500" height="500"/>
</clipPath>
<g id="surface287" clip-path="url(#clip1)">
<rect x="0" y="0" width="500" height="500" style="fill:rgb(91.3%,56%,47.3%);fill-opacity:1;stroke:none;"/>
<path style=" stroke:none;fill-rule:nonzero;fill:rgb(22.8%,38.9%,47.3%);fill-opacity:1;" d="M 191.5 204.5 C 191.5 214.441406 183.441406 222.5 173.5 222.5 C 163.558594 222.5 155.5 214.441406 155.5 204.5 C 155.5 194.558594 163.558594 186.5 173.5 186.5 C 183.441406 186.5 191.5 194.558594 191.5 204.5 "/>
<path style=" stroke:none;fill-rule:nonzero;fill:rgb(78.7%,24.9%,49.9%);fill-opacity:1;" d="M 242.5 105 C 242.5 116.320312 233.320312 125.5 222 125.5 C 210.679688 125.5 201.5 116.320312 201.5 105 C 201.5 93.679688 210.679688 84.5 222 84.5 C 233.320312 84.5 242.5 93.679688 242.5 105 "/>
<path style=" stroke:none;fill-rule:nonzero;fill:rgb(69.1%,14.1%,58.6%);fill-opacity:1;" d="M 164 164 C 164 177.253906 153.253906 188 140 188 C 126.746094 188 116 177.253906 116 164 C 116 150.746094 126.746094 140 140 140 C 153.253906 140 164 150.746094 164 164 "/>
<path style=" stroke:none;fill-rule:nonzero;fill:rgb(52.5%,84.7%,89.4%);fill-opacity:1;" d="M 216 44 C 216 50.902344 210.402344 56.5 203.5 56.5 C 196.597656 56.5 191 50.902344 191 44 C 191 37.097656 196.597656 31.5 203.5 31.5 C 210.402344 31.5 216 37.097656 216 44 "/>
<path style=" stroke:none;fill-rule:nonzero;fill:rgb(74.1%,13.6%,17.5%);fill-opacity:1;" d="M 187.5 237 C 187.5 243.074219 182.574219 248 176.5 248 C 170.425781 248 165.5 243.074219 165.5 237 C 165.5 230.925781 170.425781 226 176.5 226 C 182.574219 226 187.5 230.925781 187.5 237 "/>
<path style=" stroke:none;fill-rule:nonzero;fill:rgb(30%,55.4%,5.2%);fill-opacity:1;" d="M 188 93 C 188 100.179688 182.179688 106 175 106 C 167.820312 106 162 100.179688 162 93 C 162 85.820312 167.820312 80 175 80 C 182.179688 80 188 85.820312 188 93 "/>
<path style=" stroke:none;fill-rule:nonzero;fill:rgb(7.8%,86.4%,90.2%);fill-opacity:1;" d="M 32 180 C 32 191.875 22.375 201.5 10.5 201.5 C -1.375 201.5 -11 191.875 -11 180 C -11 168.125 -1.375 158.5 10.5 158.5 C 22.375 158.5 32 168.125 32 180 "/>
<path style=" stroke:none;fill-rule:nonzero;fill:rgb(18.8%,47.4%,25%);fill-opacity:1;" d="M 256.5 232.5 C 256.5 244.648438 246.648438 254.5 234.5 254.5 C 222.351562 254.5 212.5 244.648438 212.5 232.5 C 212.5 220.351562 222.351562 210.5 234.5 210.5 C 246.648438 210.5 256.5 220.351562 256.5 232.5 "/>
<path style=" stroke:none;fill-rule:nonzero;fill:rgb(75.2%,7.4%,88.9%);fill-opacity:1;" d="M 131.5 196.5 C 131.5 205.890625 123.890625 213.5 114.5 213.5 C 105.109375 213.5 97.5 205.890625 97.5 196.5 C 97.5 187.109375 105.109375 179.5 114.5 179.5 C 123.890625 179.5 131.5 187.109375 131.5 196.5 "/>
<path style=" stroke:none;fill-rule:nonzero;fill:rgb(30.3%,28.1%,63.2%);fill-opacity:1;" d="M 340.5 158 C 340.5 166.835938 333.335938 174 324.5 174 C 315.664062 174 308.5 166.835938 308.5 158 C 308.5 149.164062 315.664062 142 324.5 142 C 333.335938 142 340.5 149.164062 340.5 158 "/>
<path style=" stroke:none;fill-rule:nonzero;fill:rgb(7.4%,44.9%,60.2%);fill-opacity:1;" d="M 80 497.5 C 80 501.917969 76.417969 505.5 72 505.5 C 67.582031 505.5 64 501.917969 64 497.5 C 64 493.082031 67.582031 489.5 72 489.5 C 76.417969 489.5 80 493.082031 80 497.5 "/>
<path style=" stroke:none;fill-rule:nonzero;fill:rgb(22.7%,22.3%,97.5%);fill-opacity:1;" d="M 161.5 333.5 C 161.5 337.640625 158.140625 341 154 341 C 149.859375 341 146.5 337.640625 146.5 333.5 C 146.5 329.359375 149.859375 326 154 326 C 158.140625 326 161.5 329.359375 161.5 333.5 "/>
<path style=" stroke:none;fill-rule:nonzero;fill:rgb(15.1%,68.2%,68%);fill-opacity:1;" d="M 257.5 376 C 257.5 389.253906 246.753906 400 233.5 400 C 220.246094 400 209.5 389.253906 209.5 376 C 209.5 362.746094 220.246094 352 233.5 352 C 246.753906 352 257.5 362.746094 257.5 376 "/>
<path style=" stroke:none;fill-rule:nonzero;fill:rgb(48.4%,43.9%,74.7%);fill-opacity:1;" d="M 203.5 206 C 203.5 212.902344 197.902344 218.5 191 218.5 C 184.097656 218.5 178.5 212.902344 178.5 206 C 178.5 199.097656 184.097656 193.5 191 193.5 C 197.902344 193.5 203.5 199.097656 203.5 206 "/>
<path style=" stroke:none;fill-rule:nonzero;fill:rgb(12.6%,59.9%,17.5%);fill-opacity:1;" d="M 344 268.5 C 344 275.167969 334 275.167969 334 268.5 C 334 261.832031 344 261.832031 344 268.5 "/>
<path style=" stroke:none;fill-rule:nonzero;fill:rgb(42.2%,91.1%,31.2%);fill-opacity:1;" d="M 352.5 173 C 352.5 179.628906 347.128906 185 340.5 185 C 333.871094 185 328.5 179.628906 328.5 173 C 328.5 166.371094 333.871094 161 340.5 161 C 347.128906 161 352.5 166.371094 352.5 173 "/>
<path style=" stroke:none;fill-rule:nonzero;fill:rgb(56.9%,82.9%,67.4%);fill-opacity:1;" d="M 248.5 317.5 C 248.5 321.367188 245.367188 324.5 241.5 324.5 C 237.632812 324.5 234.5 321.367188 234.5 317.5 C 234.5 313.632812 237.632812 310.5 241.5 310.5 C 245.367188 310.5 248.5 313.632812 248.5 317.5 "/>
<path style=" stroke:none;fill-rule:nonzero;fill:rgb(62%,60.3%,93.9%);fill-opacity:1;" d="M 330.5 223.5 C 330.5 234.820312 321.320312 244 310 244 C 298.679688 244 289.5 234.820312 289.5 223.5 C 289.5 212.179688 298.679688 203 310 203 C 321.320312 203 330.5 212.179688 330.5 223.5 "/>
<path style=" stroke:none;fill-rule:nonzero;fill:rgb(35.8%,67.6%,57.2%);fill-opacity:1;" d="M 202 163.5 C 202 170.402344 196.402344 176 189.5 176 C 182.597656 176 177 170.402344 177 163.5 C 177 156.597656 182.597656 151 189.5 151 C 196.402344 151 202 156.597656 202 163.5 "/>
<path style=" stroke:none;fill-rule:nonzero;fill:rgb(55%,90.6%,88.3%);fill-opacity:1;" d="M 479.5 340.5 C 479.5 349.613281 472.113281 357 463 357 C 453.886719 357 446.5 349.613281 446.5 340.5 C 446.5 331.386719 453.886719 324 463 324 C 472.113281 324 479.5 331.386719 479.5 340.5 "/>
<path style=" stroke:none;fill-rule:nonzero;fill:rgb(16%,79%,97.4%);fill-opacity:1;" d="M 326.5 204 C 326.5 215.875 316.875 225.5 305 225.5 C 293.125 225.5 283.5 215.875 283.5 204 C 283.5 192.125 293.125 182.5 305 182.5 C 316.875 182.5 326.5 192.125 326.5 204 "/>
<path style=" stroke:none;fill-rule:nonzero;fill:rgb(25.5%,47.4%,93.9%);fill-opacity:1;" d="M 423 318.5 C 423 325.167969 413 325.167969 413 318.5 C 413 311.832031 423 311.832031 423 318.5 "/>
<path style=" stroke:none;fill-rule:nonzero;fill:rgb(50.9%,64.7%,39.7%);fill-opacity:1;" d="M 119 137 C 119 143.667969 109 143.667969 109 137 C 109 130.332031 119 130.332031 119 137 "/>
<path style=" stroke:none;fill-rule:nonzero;fill:rgb(70.2%,11.9%,73.3%);fill-opacity:1;" d="M 486.5 175.5 C 486.5 183.507812 480.007812 190 472 190 C 463.992188 190 457.5 183.507812 457.5 175.5 C 457.5 167.492188 463.992188 161 472 161 C 480.007812 161 486.5 167.492188 486.5 175.5 "/>
<path style=" stroke:none;fill-rule:nonzero;fill:rgb(91.3%,16.8%,39.3%);fill-opacity:1;" d="M 27.5 129.5 C 27.5 142.203125 17.203125 152.5 4.5 152.5 C -8.203125 152.5 -18.5 142.203125 -18.5 129.5 C -18.5 116.796875 -8.203125 106.5 4.5 106.5 C 17.203125 106.5 27.5 116.796875 27.5 129.5 "/>
<path style=" stroke:none;fill-rule:nonzero;fill:rgb(74.1%,82.7%,14.6%);fill-opacity:1;" d="M 478.5 24 C 478.5 32.285156 471.785156 39 463.5 39 C 455.214844 39 448.5 32.285156 448.5 24 C 448.5 15.714844 455.214844 9 463.5 9 C 471.785156 9 478.5 15.714844 478.5 24 "/>
<path style=" stroke:none;fill-rule:nonzero;fill:rgb(11.1%,96.5%,95.6%);fill-opacity:1;" d="M 290.5 6 C 290.5 11.246094 286.246094 15.5 281 15.5 C 275.753906 15.5 271.5 11.246094 271.5 6 C 271.5 0.753906 275.753906 -3.5 281 -3.5 C 286.246094 -3.5 290.5 0.753906 290.5 6 "/>
<path style=" stroke:none;fill-rule:nonzero;fill:rgb(77.1%,99.9%,31.3%);fill-opacity:1;" d="M 266.5 171 C 266.5 182.320312 257.320312 191.5 246 191.5 C 234.679688 191.5 225.5 182.320312 225.5 171 C 225.5 159.679688 234.679688 150.5 246 150.5 C 257.320312 150.5 266.5 159.679688 266.5 171 "/>
<path style=" stroke:none;fill-rule:nonzero;fill:rgb(55.3%,98.3%,57.2%);fill-opacity:1;" d="M 260.5 161.5 C 260.5 165.367188 257.367188 168.5 253.5 168.5 C 249.632812 168.5 246.5 165.367188 246.5 161.5 C 246.5 157.632812 249.632812 154.5 253.5 154.5 C 257.367188 154.5 260.5 157.632812 260.5 161.5 "/>
<path style=" stroke:none;fill-rule:nonzero;fill:rgb(74.2%,80.2%,41.8%);fill-opacity:1;" d="M 380 187 C 380 194.457031 373.957031 200.5 366.5 200.5 C 359.042969 200.5 353 194.457031 353 187 C 353 179.542969 359.042969 173.5 366.5 173.5 C 373.957031 173.5 380 179.542969 380 187 "/>
<path style=" stroke:none;fill-rule:nonzero;fill:rgb(16.7%,35.9%,8.6%);fill-opacity:1;" d="M 216.5 176.5 C 216.5 188.925781 206.425781 199 194 199 C 181.574219 199 171.5 188.925781 171.5 176.5 C 171.5 164.074219 181.574219 154 194 154 C 206.425781 154 216.5 164.074219 216.5 176.5 "/>
<path style=" stroke:none;fill-rule:nonzero;fill:rgb(81.3%,46.3%,37.3%);fill-opacity:1;" d="M 467.5 367 C 467.5 373.902344 461.902344 379.5 455 379.5 C 448.097656 379.5 442.5 373.902344 442.5 367 C 442.5 360.097656 448.097656 354.5 455 354.5 C 461.902344 354.5 467.5 360.097656 467.5 367 "/>
<path style=" stroke:none;fill-rule:nonzero;fill:rgb(38.1%,9.6%,29.4%);fill-opacity:1;" d="M 199 357.5 C 199 361.089844 196.089844 364 192.5 364 C 188.910156 364 186 361.089844 186 357.5 C 186 353.910156 188.910156 351 192.5 351 C 196.089844 351 199 353.910156 199 357.5 "/>
<path style=" stroke:none;fill-rule:nonzero;fill:rgb(2.8%,32.6%,92.7%);fill-opacity:1;" d="M 426.5 433 C 426.5 441.007812 420.007812 447.5 412 447.5 C 403.992188 447.5 397.5 441.007812 397.5 433 C 397.5 424.992188 403.992188 418.5 412 418.5 C 420.007812 418.5 426.5 424.992188 426.5 433 "/>
<path style=" stroke:none;fill-rule:nonzero;fill:rgb(23.4%,30.3%,96.2%);fill-opacity:1;" d="M 286 423.5 C 286 428.195312 282.195312 432 277.5 432 C 272.804688 432 269 428.195312 269 423.5 C 269 418.804688 272.804688 415 277.5 415 C 282.195312 415 286 418.804688 286 423.5 "/>
<path style=" stroke:none;fill-rule:nonzero;fill:rgb(91.9%,83.6%,43.6%);fill-opacity:1;" d="M 417.5 406 C 417.5 419.808594 406.308594 431 392.5 431 C 378.691406 431 367.5 419.808594 367.5 406 C 367.5 392.191406 378.691406 381 392.5 381 C 406.308594 381 417.5 392.191406 417.5 406 "/>
<path style=" stroke:none;fill-rule:nonzero;fill:rgb(42.8%,61.8%,0%);fill-opacity:1;" d="M 69.5 273 C 69.5 282.941406 61.441406 291 51.5 291 C 41.558594 291 33.5 282.941406 33.5 273 C 33.5 263.058594 41.558594 255 51.5 255 C 61.441406 255 69.5 263.058594 69.5 273 "/>
<path style=" stroke:none;fill-rule:nonzero;fill:rgb(25.3%,29.3%,98.3%);fill-opacity:1;" d="M 496 323.5 C 496 330.957031 489.957031 337 482.5 337 C 475.042969 337 469 330.957031 469 323.5 C 469 316.042969 475.042969 310 482.5 310 C 489.957031 310 496 316.042969 496 323.5 "/>
<path style=" stroke:none;fill-rule:nonzero;fill:rgb(94.2%,75.7%,6.1%);fill-opacity:1;" d="M 302.5 232 C 302.5 235.039062 300.039062 237.5 297 237.5 C 293.960938 237.5 291.5 235.039062 291.5 232 C 291.5 228.960938 293.960938 226.5 297 226.5 C 300.039062 226.5 302.5 228.960938 302.5 232 "/>
<path style=" stroke:none;fill-rule:nonzero;fill:rgb(38.8%,45.3%,6.2%);fill-opacity:1;" d="M 321 325 C 321 330.800781 316.300781 335.5 310.5 335.5 C 304.699219 335.5 300 330.800781 300 325 C 300 319.199219 304.699219 314.5 310.5 314.5 C 316.300781 314.5 321 319.199219 321 325 "/>
<path style=" stroke:none;fill-rule:nonzero;fill:rgb(90.7%,36.4%,18.4%);fill-opacity:1;" d="M 328.5 54 C 328.5 63.664062 320.664062 71.5 311 71.5 C 301.335938 71.5 293.5 63.664062 293.5 54 C 293.5 44.335938 301.335938 36.5 311 36.5 C 320.664062 36.5 328.5 44.335938 328.5 54 "/>
<path style=" stroke:none;fill-rule:nonzero;fill:rgb(66.4%,65.1%,56.6%);fill-opacity:1;" d="M 431 209 C 431 220.597656 421.597656 230 410 230 C 398.402344 230 389 220.597656 389 209 C 389 197.402344 398.402344 188 410 188 C 421.597656 188 431 197.402344 431 209 "/>
<path style=" stroke:none;fill-rule:nonzero;fill:rgb(57.6%,81.9%,86.5%);fill-opacity:1;" d="M 335.5 166 C 335.5 173.179688 329.679688 179 322.5 179 C 315.320312 179 309.5 173.179688 309.5 166 C 309.5 158.820312 315.320312 153 322.5 153 C 329.679688 153 335.5 158.820312 335.5 166 "/>
<path style=" stroke:none;fill-rule:nonzero;fill:rgb(12.9%,13.3%,62.3%);fill-opacity:1;" d="M 411 95 C 411 104.941406 402.941406 113 393 113 C 383.058594 113 375 104.941406 375 95 C 375 85.058594 383.058594 77 393 77 C 402.941406 77 411 85.058594 411 95 "/>
<path style=" stroke:none;fill-rule:nonzero;fill:rgb(28.8%,50.1%,12.1%);fill-opacity:1;" d="M 329 182.5 C 329 192.992188 320.492188 201.5 310 201.5 C 299.507812 201.5 291 192.992188 291 182.5 C 291 172.007812 299.507812 163.5 310 163.5 C 320.492188 163.5 329 172.007812 329 182.5 "/>
<path style=" stroke:none;fill-rule:nonzero;fill:rgb(17.5%,2.7%,44.2%);fill-opacity:1;" d="M 415 131 C 415 134.3125 412.3125 137 409 137 C 405.6875 137 403 134.3125 403 131 C 403 127.6875 405.6875 125 409 125 C 412.3125 125 415 127.6875 415 131 "/>
<path style=" stroke:none;fill-rule:nonzero;fill:rgb(24.5%,87.7%,81.4%);fill-opacity:1;" d="M 326 150.5 C 326 162.375 316.375 172 304.5 172 C 292.625 172 283 162.375 283 150.5 C 283 138.625 292.625 129 304.5 129 C 316.375 129 326 138.625 326 150.5 "/>
<path style=" stroke:none;fill-rule:nonzero;fill:rgb(89.5%,4.9%,82.1%);fill-opacity:1;" d="M 351.5 326 C 351.5 332.074219 346.574219 337 340.5 337 C 334.425781 337 329.5 332.074219 329.5 326 C 329.5 319.925781 334.425781 315 340.5 315 C 346.574219 315 351.5 319.925781 351.5 326 "/>
<path style=" stroke:none;fill-rule:nonzero;fill:rgb(77.6%,64.8%,43.9%);fill-opacity:1;" d="M 359 102 C 359 114.425781 348.925781 124.5 336.5 124.5 C 324.074219 124.5 314 114.425781 314 102 C 314 89.574219 324.074219 79.5 336.5 79.5 C 348.925781 79.5 359 89.574219 359 102 "/>
<path style=" stroke:none;fill-rule:nonzero;fill:rgb(19.8%,56%,44.7%);fill-opacity:1;" d="M 456 82 C 456 85.867188 452.867188 89 449 89 C 445.132812 89 442 85.867188 442 82 C 442 78.132812 445.132812 75 449 75 C 452.867188 75 456 78.132812 456 82 "/>
<path style=" stroke:none;fill-rule:nonzero;fill:rgb(85.8%,78.5%,17.9%);fill-opacity:1;" d="M 265.5 319.5 C 265.5 327.230469 259.230469 333.5 251.5 333.5 C 243.769531 333.5 237.5 327.230469 237.5 319.5 C 237.5 311.769531 243.769531 305.5 251.5 305.5 C 259.230469 305.5 265.5 311.769531 265.5 319.5 "/>
<path style=" stroke:none;fill-rule:nonzero;fill:rgb(90.7%,52.6%,64.4%);fill-opacity:1;" d="M 355.5 202.5 C 355.5 214.925781 345.425781 225 333 225 C 320.574219 225 310.5 214.925781 310.5 202.5 C 310.5 190.074219 320.574219 180 333 180 C 345.425781 180 355.5 190.074219 355.5 202.5 "/>
<path style=" stroke:none;fill-rule:nonzero;fill:rgb(15.8%,23.9%,21.5%);fill-opacity:1;" d="M 117.5 159.5 C 117.5 166.679688 111.679688 172.5 104.5 172.5 C 97.320312 172.5 91.5 166.679688 91.5 159.5 C 91.5 152.320312 97.320312 146.5 104.5 146.5 C 111.679688 146.5 117.5 152.320312 117.5 159.5 "/>
<path style=" stroke:none;fill-rule:nonzero;fill:rgb(92.9%,45.2%,5%);fill-opacity:1;" d="M 368.5 333.5 C 368.5 338.195312 364.695312 342 360 342 C 355.304688 342 351.5 338.195312 351.5 333.5 C 351.5 328.804688 355.304688 325 360 325 C 364.695312 325 368.5 328.804688 368.5 333.5 "/>
<path style=" stroke:none;fill-rule:nonzero;fill:rgb(53.1%,41.1%,85.7%);fill-opacity:1;" d="M 225.5 228.5 C 225.5 233.46875 221.46875 237.5 216.5 237.5 C 211.53125 237.5 207.5 233.46875 207.5 228.5 C 207.5 223.53125 211.53125 219.5 216.5 219.5 C 221.46875 219.5 225.5 223.53125 225.5 228.5 "/>
<path style=" stroke:none;fill-rule:nonzero;fill:rgb(38%,79.4%,82.4%);fill-opacity:1;" d="M 196 405.5 C 196 411.574219 191.074219 416.5 185 416.5 C 178.925781 416.5 174 411.574219 174 405.5 C 174 399.425781 178.925781 394.5 185 394.5 C 191.074219 394.5 196 399.425781 196 405.5 "/>
<path style=" stroke:none;fill-rule:nonzero;fill:rgb(11.6%,73%,60%);fill-opacity:1;" d="M 359.5 285 C 359.5 290.523438 355.023438 295 349.5 295 C 343.976562 295 339.5 290.523438 339.5 285 C 339.5 279.476562 343.976562 275 349.5 275 C 355.023438 275 359.5 279.476562 359.5 285 "/>
<path style=" stroke:none;fill-rule:nonzero;fill:rgb(15%,29.2%,88.2%);fill-opacity:1;" d="M 235.5 455.5 C 235.5 467.925781 225.425781 478 213 478 C 200.574219 478 190.5 467.925781 190.5 455.5 C 190.5 443.074219 200.574219 433 213 433 C 225.425781 433 235.5 443.074219 235.5 455.5 "/>
<path style=" stroke:none;fill-rule:nonzero;fill:rgb(89.4%,77.5%,58.5%);fill-opacity:1;" d="M 230.5 246 C 230.5 250.695312 226.695312 254.5 222 254.5 C 217.304688 254.5 213.5 250.695312 213.5 246 C 213.5 241.304688 217.304688 237.5 222 237.5 C 226.695312 237.5 230.5 241.304688 230.5 246 "/>
<path style=" stroke:none;fill-rule:nonzero;fill:rgb(89.9%,44.4%,19%);fill-opacity:1;" d="M 462 207 C 462 211.695312 458.195312 215.5 453.5 215.5 C 448.804688 215.5 445 211.695312 445 207 C 445 202.304688 448.804688 198.5 453.5 198.5 C 458.195312 198.5 462 202.304688 462 207 "/>
<path style=" stroke:none;fill-rule:nonzero;fill:rgb(34.2%,36.6%,56.7%);fill-opacity:1;" d="M 156 197.5 C 156 209.097656 146.597656 218.5 135 218.5 C 123.402344 218.5 114 209.097656 114 197.5 C 114 185.902344 123.402344 176.5 135 176.5 C 146.597656 176.5 156 185.902344 156 197.5 "/>
<path style=" stroke:none;fill-rule:nonzero;fill:rgb(77.7%,11.2%,0%);fill-opacity:1;" d="M 253.5 181 C 253.5 190.664062 245.664062 198.5 236 198.5 C 226.335938 198.5 218.5 190.664062 218.5 181 C 218.5 171.335938 226.335938 163.5 236 163.5 C 245.664062 163.5 253.5 171.335938 253.5 181 "/>
<path style=" stroke:none;fill-rule:nonzero;fill:rgb(6.7%,24.9%,75.7%);fill-opacity:1;" d="M 338.5 148.5 C 338.5 152.367188 335.367188 155.5 331.5 155.5 C 327.632812 155.5 324.5 152.367188 324.5 148.5 C 324.5 144.632812 327.632812 141.5 331.5 141.5 C 335.367188 141.5 338.5 144.632812 338.5 148.5 "/>
<path style=" stroke:none;fill-rule:nonzero;fill:rgb(54.5%,1.5%,5.2%);fill-opacity:1;" d="M 309 197 C 309 207.769531 300.269531 216.5 289.5 216.5 C 278.730469 216.5 270 207.769531 270 197 C 270 186.230469 278.730469 177.5 289.5 177.5 C 300.269531 177.5 309 186.230469 309 197 "/>
<path style=" stroke:none;fill-rule:nonzero;fill:rgb(88.5%,54.4%,37%);fill-opacity:1;" d="M 121.5 93.5 C 121.5 105.097656 112.097656 114.5 100.5 114.5 C 88.902344 114.5 79.5 105.097656 79.5 93.5 C 79.5 81.902344 88.902344 72.5 100.5 72.5 C 112.097656 72.5 121.5 81.902344 121.5 93.5 "/>
<path style=" stroke:none;fill-rule:nonzero;fill:rgb(44%,28.7%,14.7%);fill-opacity:1;" d="M 354 1.5 C 354 12.269531 345.269531 21 334.5 21 C 323.730469 21 315 12.269531 315 1.5 C 315 -9.269531 323.730469 -18 334.5 -18 C 345.269531 -18 354 -9.269531 354 1.5 "/>
<path style=" stroke:none;fill-rule:nonzero;fill:rgb(0.8%,23.3%,47.6%);fill-opacity:1;" d="M 75 293.5 C 75 307.308594 63.808594 318.5 50 318.5 C 36.191406 318.5 25 307.308594 25 293.5 C 25 279.691406 36.191406 268.5 50 268.5 C 63.808594 268.5 75 279.691406 75 293.5 "/>
<path style=" stroke:none;fill-rule:nonzero;fill:rgb(3.1%,69.5%,32.5%);fill-opacity:1;" d="M 257 11.5 C 257 23.375 247.375 33 235.5 33 C 223.625 33 214 23.375 214 11.5 C 214 -0.375 223.625 -10 235.5 -10 C 247.375 -10 257 -0.375 257 11.5 "/>
<path style=" stroke:none;fill-rule:nonzero;fill:rgb(19.3%,78.5%,52.7%);fill-opacity:1;" d="M 211 236.5 C 211 243.957031 204.957031 250 197.5 250 C 190.042969 250 184 243.957031 184 236.5 C 184 229.042969 190.042969 223 197.5 223 C 204.957031 223 211 229.042969 211 236.5 "/>
<path style=" stroke:none;fill-rule:nonzero;fill:rgb(41%,63.3%,75.2%);fill-opacity:1;" d="M 219 283 C 219 295.425781 208.925781 305.5 196.5 305.5 C 184.074219 305.5 174 295.425781 174 283 C 174 270.574219 184.074219 260.5 196.5 260.5 C 208.925781 260.5 219 270.574219 219 283 "/>
<path style=" stroke:none;fill-rule:nonzero;fill:rgb(45.5%,68.9%,45.5%);fill-opacity:1;" d="M 105.5 407.5 C 105.5 416.613281 98.113281 424 89 424 C 79.886719 424 72.5 416.613281 72.5 407.5 C 72.5 398.386719 79.886719 391 89 391 C 98.113281 391 105.5 398.386719 105.5 407.5 "/>
<path style=" stroke:none;fill-rule:nonzero;fill:rgb(3.1%,11.7%,49.8%);fill-opacity:1;" d="M 326 174 C 326 182.558594 319.058594 189.5 310.5 189.5 C 301.941406 189.5 295 182.558594 295 174 C 295 165.441406 301.941406 158.5 310.5 158.5 C 319.058594 158.5 326 165.441406 326 174 "/>
<path style=" stroke:none;fill-rule:nonzero;fill:rgb(54.5%,21.2%,91%);fill-opacity:1;" d="M 172.5 371 C 172.5 384.53125 161.53125 395.5 148 395.5 C 134.46875 395.5 123.5 384.53125 123.5 371 C 123.5 357.46875 134.46875 346.5 148 346.5 C 161.53125 346.5 172.5 357.46875 172.5 371 "/>
<path style=" stroke:none;fill-rule:nonzero;fill:rgb(38%,77.6%,43.1%);fill-opacity:1;" d="M 286 425 C 286 434.664062 278.164062 442.5 268.5 442.5 C 258.835938 442.5 251 434.664062 251 425 C 251 415.335938 258.835938 407.5 268.5 407.5 C 278.164062 407.5 286 415.335938 286 425 "/>
<path style=" stroke:none;fill-rule:nonzero;fill:rgb(80.5%,92.9%,96.4%);fill-opacity:1;" d="M 103.5 191 C 103.5 199.558594 96.558594 206.5 88 206.5 C 79.441406 206.5 72.5 199.558594 72.5 191 C 72.5 182.441406 79.441406 175.5 88 175.5 C 96.558594 175.5 103.5 182.441406 103.5 191 "/>
<path style=" stroke:none;fill-rule:nonzero;fill:rgb(29.1%,8.4%,50.3%);fill-opacity:1;" d="M 397 411.5 C 397 415.640625 393.640625 419 389.5 419 C 385.359375 419 382 415.640625 382 411.5 C 382 407.359375 385.359375 404 389.5 404 C 393.640625 404 397 407.359375 397 411.5 "/>
<path style=" stroke:none;fill-rule:nonzero;fill:rgb(73.9%,23.2%,76.9%);fill-opacity:1;" d="M 241 277.5 C 241 281.367188 237.867188 284.5 234 284.5 C 230.132812 284.5 227 281.367188 227 277.5 C 227 273.632812 230.132812 270.5 234 270.5 C 237.867188 270.5 241 273.632812 241 277.5 "/>
<path style=" stroke:none;fill-rule:nonzero;fill:rgb(52.5%,30.6%,39%);fill-opacity:1;" d="M 419.5 309 C 419.5 314.246094 415.246094 318.5 410 318.5 C 404.753906 318.5 400.5 314.246094 400.5 309 C 400.5 303.753906 404.753906 299.5 410 299.5 C 415.246094 299.5 419.5 303.753906 419.5 309 "/>
<path style=" stroke:none;fill-rule:nonzero;fill:rgb(3.4%,1.4%,19%);fill-opacity:1;" d="M 248 254 C 248 262.285156 241.285156 269 233 269 C 224.714844 269 218 262.285156 218 254 C 218 245.714844 224.714844 239 233 239 C 241.285156 239 248 245.714844 248 254 "/>
<path style=" stroke:none;fill-rule:nonzero;fill:rgb(34.3%,82.2%,1.2%);fill-opacity:1;" d="M 363 351.5 C 363 363.925781 352.925781 374 340.5 374 C 328.074219 374 318 363.925781 318 351.5 C 318 339.074219 328.074219 329 340.5 329 C 352.925781 329 363 339.074219 363 351.5 "/>
<path style=" stroke:none;fill-rule:nonzero;fill:rgb(40.9%,12.4%,18.7%);fill-opacity:1;" d="M 323.5 163.5 C 323.5 167.640625 320.140625 171 316 171 C 311.859375 171 308.5 167.640625 308.5 163.5 C 308.5 159.359375 311.859375 156 316 156 C 320.140625 156 323.5 159.359375 323.5 163.5 "/>
<path style=" stroke:none;fill-rule:nonzero;fill:rgb(45.7%,50.7%,45.2%);fill-opacity:1;" d="M 273 86 C 273 94.285156 266.285156 101 258 101 C 249.714844 101 243 94.285156 243 86 C 243 77.714844 249.714844 71 258 71 C 266.285156 71 273 77.714844 273 86 "/>
<path style=" stroke:none;fill-rule:nonzero;fill:rgb(85.2%,47.4%,84.9%);fill-opacity:1;" d="M 12 236.5 C 12 240.367188 8.867188 243.5 5 243.5 C 1.132812 243.5 -2 240.367188 -2 236.5 C -2 232.632812 1.132812 229.5 5 229.5 C 8.867188 229.5 12 232.632812 12 236.5 "/>
<path style=" stroke:none;fill-rule:nonzero;fill:rgb(67.6%,97.5%,0.5%);fill-opacity:1;" d="M 268 130 C 268 133.867188 264.867188 137 261 137 C 257.132812 137 254 133.867188 254 130 C 254 126.132812 257.132812 123 261 123 C 264.867188 123 268 126.132812 268 130 "/>
<path style=" stroke:none;fill-rule:nonzero;fill:rgb(78.6%,15.3%,91.3%);fill-opacity:1;" d="M 342 173.5 C 342 184.269531 333.269531 193 322.5 193 C 311.730469 193 303 184.269531 303 173.5 C 303 162.730469 311.730469 154 322.5 154 C 333.269531 154 342 162.730469 342 173.5 "/>
<path style=" stroke:none;fill-rule:nonzero;fill:rgb(43.8%,94.2%,16.4%);fill-opacity:1;" d="M 343.5 121.5 C 343.5 129.230469 337.230469 135.5 329.5 135.5 C 321.769531 135.5 315.5 129.230469 315.5 121.5 C 315.5 113.769531 321.769531 107.5 329.5 107.5 C 337.230469 107.5 343.5 113.769531 343.5 121.5 "/>
<path style=" stroke:none;fill-rule:nonzero;fill:rgb(1.7%,53.7%,97.4%);fill-opacity:1;" d="M 96 95 C 96 101.902344 90.402344 107.5 83.5 107.5 C 76.597656 107.5 71 101.902344 71 95 C 71 88.097656 76.597656 82.5 83.5 82.5 C 90.402344 82.5 96 88.097656 96 95 "/>
<path style=" stroke:none;fill-rule:nonzero;fill:rgb(93.1%,24.1%,27.8%);fill-opacity:1;" d="M 311 70.5 C 311 80.441406 302.941406 88.5 293 88.5 C 283.058594 88.5 275 80.441406 275 70.5 C 275 60.558594 283.058594 52.5 293 52.5 C 302.941406 52.5 311 60.558594 311 70.5 "/>
<path style=" stroke:none;fill-rule:nonzero;fill:rgb(16.5%,0.2%,32%);fill-opacity:1;" d="M 72.5 289.5 C 72.5 297.230469 66.230469 303.5 58.5 303.5 C 50.769531 303.5 44.5 297.230469 44.5 289.5 C 44.5 281.769531 50.769531 275.5 58.5 275.5 C 66.230469 275.5 72.5 281.769531 72.5 289.5 "/>
<path style=" stroke:none;fill-rule:nonzero;fill:rgb(75.5%,99.7%,44.5%);fill-opacity:1;" d="M 490 20.5 C 490 26.300781 485.300781 31 479.5 31 C 473.699219 31 469 26.300781 469 20.5 C 469 14.699219 473.699219 10 479.5 10 C 485.300781 10 490 14.699219 490 20.5 "/>
<path style=" stroke:none;fill-rule:nonzero;fill:rgb(92.8%,2.6%,12.8%);fill-opacity:1;" d="M 91.5 343 C 91.5 349.667969 81.5 349.667969 81.5 343 C 81.5 336.332031 91.5 336.332031 91.5 343 "/>
<path style=" stroke:none;fill-rule:nonzero;fill:rgb(79.8%,61.9%,92.8%);fill-opacity:1;" d="M 174 458.5 C 174 470.925781 163.925781 481 151.5 481 C 139.074219 481 129 470.925781 129 458.5 C 129 446.074219 139.074219 436 151.5 436 C 163.925781 436 174 446.074219 174 458.5 "/>
<path style=" stroke:none;fill-rule:nonzero;fill:rgb(52.8%,63.5%,83%);fill-opacity:1;" d="M 306 321.5 C 306 332.820312 296.820312 342 285.5 342 C 274.179688 342 265 332.820312 265 321.5 C 265 310.179688 274.179688 301 285.5 301 C 296.820312 301 306 310.179688 306 321.5 "/>
<path style=" stroke:none;fill-rule:nonzero;fill:rgb(51.8%,25.2%,92.9%);fill-opacity:1;" d="M 214 265 C 214 268.589844 211.089844 271.5 207.5 271.5 C 203.910156 271.5 201 268.589844 201 265 C 201 261.410156 203.910156 258.5 207.5 258.5 C 211.089844 258.5 214 261.410156 214 265 "/>
<path style=" stroke:none;fill-rule:nonzero;fill:rgb(25.1%,9.6%,30.8%);fill-opacity:1;" d="M 182.5 319.5 C 182.5 324.46875 178.46875 328.5 173.5 328.5 C 168.53125 328.5 164.5 324.46875 164.5 319.5 C 164.5 314.53125 168.53125 310.5 173.5 310.5 C 178.46875 310.5 182.5 314.53125 182.5 319.5 "/>
<path style=" stroke:none;fill-rule:nonzero;fill:rgb(1.5%,34.4%,62.5%);fill-opacity:1;" d="M 396.5 188 C 396.5 199.597656 387.097656 209 375.5 209 C 363.902344 209 354.5 199.597656 354.5 188 C 354.5 176.402344 363.902344 167 375.5 167 C 387.097656 167 396.5 176.402344 396.5 188 "/>
<path style=" stroke:none;fill-rule:nonzero;fill:rgb(79.2%,4.9%,87%);fill-opacity:1;" d="M 93.5 246.5 C 93.5 257.546875 84.546875 266.5 73.5 266.5 C 62.453125 266.5 53.5 257.546875 53.5 246.5 C 53.5 235.453125 62.453125 226.5 73.5 226.5 C 84.546875 226.5 93.5 235.453125 93.5 246.5 "/>
<path style=" stroke:none;fill-rule:nonzero;fill:rgb(86.9%,67.5%,33%);fill-opacity:1;" d="M 297.5 266.5 C 297.5 275.058594 290.558594 282 282 282 C 273.441406 282 266.5 275.058594 266.5 266.5 C 266.5 257.941406 273.441406 251 282 251 C 290.558594 251 297.5 257.941406 297.5 266.5 "/>
<path style=" stroke:none;fill-rule:nonzero;fill:rgb(96.4%,87.9%,76.2%);fill-opacity:1;" d="M 345 358 C 345 367.664062 337.164062 375.5 327.5 375.5 C 317.835938 375.5 310 367.664062 310 358 C 310 348.335938 317.835938 340.5 327.5 340.5 C 337.164062 340.5 345 348.335938 345 358 "/>
<path style=" stroke:none;fill-rule:nonzero;fill:rgb(58.3%,63.1%,25.7%);fill-opacity:1;" d="M 371 220.5 C 371 232.375 361.375 242 349.5 242 C 337.625 242 328 232.375 328 220.5 C 328 208.625 337.625 199 349.5 199 C 361.375 199 371 208.625 371 220.5 "/>
<path style="fill:none;stroke-width:0.01;stroke-linecap:butt;stroke-linejoin:miter;stroke:rgb(37.2%,39.9%,13.9%);stroke-opacity:1;stroke-miterlimit:10;" d="M 0.667 0.041 C 0.726 0.358 0.532 0.407 0.381 0.288 " transform="matrix(500,0,0,500,0,0)"/>
<path style="fill:none;stroke-width:0.01;stroke-linecap:butt;stroke-linejoin:miter;stroke:rgb(58.5%,98.8%,58.2%);stroke-opacity:1;stroke-miterlimit:10;" d="M 0.381 0.288 C 0.599 0.388 0.359 0.167 0.091 0.105 " transform="matrix(500,0,0,500,0,0)"/>
<path style="fill:none;stroke-width:0.01;stroke-linecap:butt;stroke-linejoin:miter;stroke:rgb(71.5%,21.1%,73.8%);stroke-opacity:1;stroke-miterlimit:10;" d="M 0.091 0.105 C 0.621 0.611 0.075 0.31 0.795 0.297 " transform="matrix(500,0,0,500,0,0)"/>
<path style="fill:none;stroke-width:0.01;stroke-linecap:butt;stroke-linejoin:miter;stroke:rgb(50.2%,51.8%,64.1%);stroke-opacity:1;stroke-miterlimit:10;" d="M 0.795 0.297 C 0.322 0.783 0.5 0.603 0.478 0.591 " transform="matrix(500,0,0,500,0,0)"/>
<path style="fill:none;stroke-width:0.01;stroke-linecap:butt;stroke-linejoin:miter;stroke:rgb(64.3%,39.3%,5%);stroke-opacity:1;stroke-miterlimit:10;" d="M 0.478 0.591 C 0.976 0.727 0.153 0.617 0.797 0.618 " transform="matrix(500,0,0,500,0,0)"/>
<path style="fill:none;stroke-width:0.01;stroke-linecap:butt;stroke-linejoin:miter;stroke:rgb(32.6%,18.4%,82.5%);stroke-opacity:1;stroke-miterlimit:10;" d="M 0.797 0.618 C 0.651 0.456 0.93 0.7 0.477 0.691 " transform="matrix(500,0,0,500,0,0)"/>
<path style="fill:none;stroke-width:0.01;stroke-linecap:butt;stroke-linejoin:miter;stroke:rgb(64.7%,38.1%,42.6%);stroke-opacity:1;stroke-miterlimit:10;" d="M 0.477 0.691 C 0.889 0.385 0.616 0.062 0.308 0.237 " transform="matrix(500,0,0,500,0,0)"/>
<path style="fill:none;stroke-width:0.01;stroke-linecap:butt;stroke-linejoin:miter;stroke:rgb(45.3%,57.5%,39.3%);stroke-opacity:1;stroke-miterlimit:10;" d="M 0.308 0.237 C 0.618 0.189 0.531 0.124 0.025 0.321 " transform="matrix(500,0,0,500,0,0)"/>
<path style="fill:none;stroke-width:0.01;stroke-linecap:butt;stroke-linejoin:miter;stroke:rgb(48.5%,26.6%,54.4%);stroke-opacity:1;stroke-miterlimit:10;" d="M 0.025 0.321 C 0.927 0.234 0.403 0.045 0.356 0.386 " transform="matrix(500,0,0,500,0,0)"/>
<path style="fill:none;stroke-width:0.01;stroke-linecap:butt;stroke-linejoin:miter;stroke:rgb(80.9%,9.1%,77.3%);stroke-opacity:1;stroke-miterlimit:10;" d="M 0.356 0.386 C 0.056 0.206 0.906 0.494 0.189 0.358 " transform="matrix(500,0,0,500,0,0)"/>
<path style="fill:none;stroke-width:0.01;stroke-linecap:butt;stroke-linejoin:miter;stroke:rgb(92%,63%,90.6%);stroke-opacity:1;stroke-miterlimit:10;" d="M 0.189 0.358 C 0.647 0.308 0.308 0.414 0.618 0.965 " transform="matrix(500,0,0,500,0,0)"/>
<path style="fill:none;stroke-width:0.01;stroke-linecap:butt;stroke-linejoin:miter;stroke:rgb(78.2%,22.9%,65.5%);stroke-opacity:1;stroke-miterlimit:10;" d="M 0.618 0.965 C 0.639 0.996 0.342 0.438 0.187 0.761 " transform="matrix(500,0,0,500,0,0)"/>
<path style="fill:none;stroke-width:0.01;stroke-linecap:butt;stroke-linejoin:miter;stroke:rgb(48%,21%,34.2%);stroke-opacity:1;stroke-miterlimit:10;" d="M 0.187 0.761 C 0.999 0.533 0.185 0.578 0.667 0.331 " transform="matrix(500,0,0,500,0,0)"/>
<path style="fill:none;stroke-width:0.01;stroke-linecap:butt;stroke-linejoin:miter;stroke:rgb(9.1%,35.9%,88.2%);stroke-opacity:1;stroke-miterlimit:10;" d="M 0.667 0.331 C 0.457 0.667 0.305 0.215 0.216 0.399 " transform="matrix(500,0,0,500,0,0)"/>
<path style="fill:none;stroke-width:0.01;stroke-linecap:butt;stroke-linejoin:miter;stroke:rgb(55.8%,38.8%,55.3%);stroke-opacity:1;stroke-miterlimit:10;" d="M 0.216 0.399 C 0.434 0.246 0.489 0.568 0.339 0.391 " transform="matrix(500,0,0,500,0,0)"/>
<path style="fill:none;stroke-width:0.01;stroke-linecap:butt;stroke-linejoin:miter;stroke:rgb(6.7%,82.3%,11.9%);stroke-opacity:1;stroke-miterlimit:10;" d="M 0.339 0.391 C 0.192 0.102 0.713 0.037 0.686 0.523 " transform="matrix(500,0,0,500,0,0)"/>
<path style="fill:none;stroke-width:0.01;stroke-linecap:butt;stroke-linejoin:miter;stroke:rgb(64.4%,52.7%,73.3%);stroke-opacity:1;stroke-miterlimit:10;" d="M 0.686 0.523 C 0.676 0.59 0.457 0.715 0.583 0.572 " transform="matrix(500,0,0,500,0,0)"/>
<path style="fill:none;stroke-width:0.01;stroke-linecap:butt;stroke-linejoin:miter;stroke:rgb(6.3%,48.2%,77.2%);stroke-opacity:1;stroke-miterlimit:10;" d="M 0.583 0.572 C 0.125 0.965 0.963 0.606 0.483 0.323 " transform="matrix(500,0,0,500,0,0)"/>
<path style="fill:none;stroke-width:0.01;stroke-linecap:butt;stroke-linejoin:miter;stroke:rgb(89%,93.7%,62.5%);stroke-opacity:1;stroke-miterlimit:10;" d="M 0.483 0.323 C 0.94 0.536 0.254 0.841 0.662 0.651 " transform="matrix(500,0,0,500,0,0)"/>
<path style="fill:none;stroke-width:0.01;stroke-linecap:butt;stroke-linejoin:miter;stroke:rgb(74.5%,62.6%,72.4%);stroke-opacity:1;stroke-miterlimit:10;" d="M 0.662 0.651 C 0.451 0.55 0.548 0.998 0.464 0.67 " transform="matrix(500,0,0,500,0,0)"/>
<path style="fill:none;stroke-width:0.01;stroke-linecap:butt;stroke-linejoin:miter;stroke:rgb(81.1%,40.5%,68.5%);stroke-opacity:1;stroke-miterlimit:10;" d="M 0.464 0.67 C 0.313 0.283 0.082 0.619 0.915 0.331 " transform="matrix(500,0,0,500,0,0)"/>
<path style="fill:none;stroke-width:0.01;stroke-linecap:butt;stroke-linejoin:miter;stroke:rgb(45.7%,55.8%,4.2%);stroke-opacity:1;stroke-miterlimit:10;" d="M 0.915 0.331 C 0.473 0.56 0.463 0.311 0.049 0.155 " transform="matrix(500,0,0,500,0,0)"/>
<path style="fill:none;stroke-width:0.01;stroke-linecap:butt;stroke-linejoin:miter;stroke:rgb(92.4%,41.7%,89.3%);stroke-opacity:1;stroke-miterlimit:10;" d="M 0.049 0.155 C 0.515 0.266 0.127 0.581 0.873 0.337 " transform="matrix(500,0,0,500,0,0)"/>
<path style="fill:none;stroke-width:0.01;stroke-linecap:butt;stroke-linejoin:miter;stroke:rgb(75%,99.2%,67.3%);stroke-opacity:1;stroke-miterlimit:10;" d="M 0.873 0.337 C 0.657 0.736 0.686 0.639 0.561 0.766 " transform="matrix(500,0,0,500,0,0)"/>
<path style="fill:none;stroke-width:0.01;stroke-linecap:butt;stroke-linejoin:miter;stroke:rgb(78.7%,89.3%,33.2%);stroke-opacity:1;stroke-miterlimit:10;" d="M 0.561 0.766 C 0.969 0.374 0.097 0.916 0.435 0.941 " transform="matrix(500,0,0,500,0,0)"/>
<path style="fill:none;stroke-width:0.01;stroke-linecap:butt;stroke-linejoin:miter;stroke:rgb(9.9%,6.7%,22.9%);stroke-opacity:1;stroke-miterlimit:10;" d="M 0.435 0.941 C 0.596 0.617 0.57 0.415 0.217 0.635 " transform="matrix(500,0,0,500,0,0)"/>
<path style="fill:none;stroke-width:0.01;stroke-linecap:butt;stroke-linejoin:miter;stroke:rgb(47.2%,69.9%,48.9%);stroke-opacity:1;stroke-miterlimit:10;" d="M 0.217 0.635 C 0.935 0.814 0.482 0.103 0.664 0.39 " transform="matrix(500,0,0,500,0,0)"/>
<path style="fill:none;stroke-width:0.01;stroke-linecap:butt;stroke-linejoin:miter;stroke:rgb(10.2%,34.3%,81%);stroke-opacity:1;stroke-miterlimit:10;" d="M 0.664 0.39 C 0.486 0.587 0.772 0.376 0.407 0.181 " transform="matrix(500,0,0,500,0,0)"/>
<path style="fill:none;stroke-width:0.01;stroke-linecap:butt;stroke-linejoin:miter;stroke:rgb(46%,79.8%,25.2%);stroke-opacity:1;stroke-miterlimit:10;" d="M 0.407 0.181 C 0.664 0.192 0.503 0.438 0.661 0.268 " transform="matrix(500,0,0,500,0,0)"/>
<path style="fill:none;stroke-width:0.01;stroke-linecap:butt;stroke-linejoin:miter;stroke:rgb(87.2%,74.1%,62%);stroke-opacity:1;stroke-miterlimit:10;" d="M 0.661 0.268 C 0.647 0.586 0.488 0.064 0.637 0.611 " transform="matrix(500,0,0,500,0,0)"/>
<path style="fill:none;stroke-width:0.01;stroke-linecap:butt;stroke-linejoin:miter;stroke:rgb(56.4%,4.4%,98.4%);stroke-opacity:1;stroke-miterlimit:10;" d="M 0.637 0.611 C 0.657 0.534 0.267 0.718 0.409 0.779 " transform="matrix(500,0,0,500,0,0)"/>
<path style="fill:none;stroke-width:0.01;stroke-linecap:butt;stroke-linejoin:miter;stroke:rgb(98%,89.9%,40.5%);stroke-opacity:1;stroke-miterlimit:10;" d="M 0.409 0.779 C 0.138 0.559 0.716 0.78 0.446 0.344 " transform="matrix(500,0,0,500,0,0)"/>
<path style="fill:none;stroke-width:0.01;stroke-linecap:butt;stroke-linejoin:miter;stroke:rgb(97%,13.5%,6.5%);stroke-opacity:1;stroke-miterlimit:10;" d="M 0.446 0.344 C 0.876 0.695 0.149 0.518 0.692 0.605 " transform="matrix(500,0,0,500,0,0)"/>
<path style=" stroke:none;fill-rule:nonzero;fill:rgb(47%,88.7%,21.3%);fill-opacity:0.5;" d="M 400.5 95 L 347.5 76.5 L 356.5 140 L 400.5 95 "/>
<path style=" stroke:none;fill-rule:nonzero;fill:rgb(58%,89.8%,5.9%);fill-opacity:0.5;" d="M 419 446 L 346.5 427 L 345.5 372.5 L 419 446 "/>
<path style=" stroke:none;fill-rule:nonzero;fill:rgb(47.8%,48.8%,13.8%);fill-opacity:0.5;" d="M 8 285 L 69 304.5 L 86 239 L 8 285 "/>
<path style=" stroke:none;fill-rule:nonzero;fill:rgb(35.1%,73.2%,72.4%);fill-opacity:0.5;" d="M 367.5 385.5 L 309.5 374 L 315.5 319 L 367.5 385.5 "/>
<path style=" stroke:none;fill-rule:nonzero;fill:rgb(86.5%,37.3%,97.1%);fill-opacity:0.5;" d="M 250 386 L 191 384 L 167 326.5 L 250 386 "/>
<path style=" stroke:none;fill-rule:nonzero;fill:rgb(62.3%,45.6%,47%);fill-opacity:0.5;" d="M 491.5 259.5 L 416.5 250.5 L 427 199 L 491.5 259.5 "/>
<path style=" stroke:none;fill-rule:nonzero;fill:rgb(15.8%,57.5%,9.3%);fill-opacity:0.5;" d="M 15 145 L 67 153 L 66.5 216.5 L 15 145 "/>
<path style=" stroke:none;fill-rule:nonzero;fill:rgb(65.9%,56.8%,57%);fill-opacity:0.5;" d="M 213 264 L 281.5 277 L 265 209 L 213 264 "/>
<path style=" stroke:none;fill-rule:nonzero;fill:rgb(34.5%,34.9%,55.6%);fill-opacity:0.5;" d="M 257 428.5 L 206 422.5 L 201 353.5 L 257 428.5 "/>
<path style=" stroke:none;fill-rule:nonzero;fill:rgb(45.3%,32.6%,64.9%);fill-opacity:0.5;" d="M 416.5 320.5 L 342 315.5 L 329.5 245.5 L 416.5 320.5 "/>
<path style=" stroke:none;fill-rule:nonzero;fill:rgb(43.8%,52.4%,79.9%);fill-opacity:0.5;" d="M 407.5 461 L 356.5 437.5 L 349 385 L 407.5 461 "/>
<path style=" stroke:none;fill-rule:nonzero;fill:rgb(69.4%,61%,92.5%);fill-opacity:0.5;" d="M 178.5 383.5 L 238.5 376.5 L 217.5 307 L 178.5 383.5 "/>
<path style=" stroke:none;fill-rule:nonzero;fill:rgb(19.6%,23.2%,77.9%);fill-opacity:0.5;" d="M 141 33 L 193.5 18 L 179 69 L 141 33 "/>
<path style=" stroke:none;fill-rule:nonzero;fill:rgb(49.6%,92.7%,69.4%);fill-opacity:0.5;" d="M 104 159.5 L 177.5 177 L 193 235.5 L 104 159.5 "/>
<path style=" stroke:none;fill-rule:nonzero;fill:rgb(38.4%,62.4%,2.4%);fill-opacity:0.5;" d="M 282 76 L 222.5 51 L 212.5 117 L 282 76 "/>
<path style=" stroke:none;fill-rule:nonzero;fill:rgb(15.3%,2.8%,64.5%);fill-opacity:0.5;" d="M 352.5 308 L 278 309.5 L 279 235 L 352.5 308 "/>
<path style=" stroke:none;fill-rule:nonzero;fill:rgb(99.6%,79.7%,15%);fill-opacity:0.5;" d="M 79.5 49.5 L 154 25 L 175 98.5 L 79.5 49.5 "/>
<path style=" stroke:none;fill-rule:nonzero;fill:rgb(53.4%,46.2%,68.6%);fill-opacity:0.5;" d="M 325 394 L 254.5 394 L 246.5 337 L 325 394 "/>
<path style=" stroke:none;fill-rule:nonzero;fill:rgb(96.6%,17.6%,1.2%);fill-opacity:0.5;" d="M 408 304.5 L 337 301.5 L 352 242 L 408 304.5 "/>
<path style=" stroke:none;fill-rule:nonzero;fill:rgb(45%,93%,83.6%);fill-opacity:0.5;" d="M 265 113.5 L 191.5 128 L 170 200.5 L 265 113.5 "/>
<path style=" stroke:none;fill-rule:nonzero;fill:rgb(2.8%,61.1%,63.1%);fill-opacity:0.5;" d="M 198 204 L 259 220.5 L 265 288.5 L 198 204 "/>
<path style=" stroke:none;fill-rule:nonzero;fill:rgb(48.8%,66.7%,21.1%);fill-opacity:0.5;" d="M 134 134.5 L 207.5 131 L 193.5 183.5 L 134 134.5 "/>
<path style=" stroke:none;fill-rule:nonzero;fill:rgb(82.2%,98.9%,90.8%);fill-opacity:0.5;" d="M 116 217 L 185.5 193 L 200.5 258.5 L 116 217 "/>
<path style=" stroke:none;fill-rule:nonzero;fill:rgb(27.8%,92.4%,56.8%);fill-opacity:0.5;" d="M 67.5 75.5 L 133 93.5 L 143.5 166 L 67.5 75.5 "/>
<path style=" stroke:none;fill-rule:nonzero;fill:rgb(48.7%,49.9%,39.9%);fill-opacity:0.5;" d="M 371.5 117 L 296.5 103.5 L 280.5 175.5 L 371.5 117 "/>
<path style="fill:none;stroke-width:0.002;stroke-linecap:butt;stroke-linejoin:miter;stroke:rgb(16%,65%,70.6%);stroke-opacity:1;stroke-miterlimit:10;" d="M 0.674 0.573 L 0.012 0.406 " transform="matrix(500,0,0,500,0,0)"/>
<path style="fill:none;stroke-width:0.002;stroke-linecap:butt;stroke-linejoin:miter;stroke:rgb(83.1%,24%,74.8%);stroke-opacity:1;stroke-miterlimit:10;" d="M 0.161 0.44 L 0.107 0.713 " transform="matrix(500,0,0,500,0,0)"/>
<path style="fill:none;stroke-width:0.002;stroke-linecap:butt;stroke-linejoin:miter;stroke:rgb(47.8%,5.1%,68.1%);stroke-opacity:1;stroke-miterlimit:10;" d="M 0.692 0.634 L 0.173 0.303 " transform="matrix(500,0,0,500,0,0)"/>
<path style="fill:none;stroke-width:0.002;stroke-linecap:butt;stroke-linejoin:miter;stroke:rgb(28.1%,41.1%,55.9%);stroke-opacity:1;stroke-miterlimit:10;" d="M 0.498 0.78 L 0.68 0.764 " transform="matrix(500,0,0,500,0,0)"/>
<path style="fill:none;stroke-width:0.002;stroke-linecap:butt;stroke-linejoin:miter;stroke:rgb(86.2%,7.6%,36.7%);stroke-opacity:1;stroke-miterlimit:10;" d="M 0.306 0.667 L 0.427 0.122 " transform="matrix(500,0,0,500,0,0)"/>
<path style="fill:none;stroke-width:0.002;stroke-linecap:butt;stroke-linejoin:miter;stroke:rgb(92.6%,4.4%,74.5%);stroke-opacity:1;stroke-miterlimit:10;" d="M 0.938 0.954 L 0.549 0.962 " transform="matrix(500,0,0,500,0,0)"/>
<path style="fill:none;stroke-width:0.002;stroke-linecap:butt;stroke-linejoin:miter;stroke:rgb(64%,9.2%,11.2%);stroke-opacity:1;stroke-miterlimit:10;" d="M 0.358 0.705 L 0.028 0.032 " transform="matrix(500,0,0,500,0,0)"/>
<path style="fill:none;stroke-width:0.002;stroke-linecap:butt;stroke-linejoin:miter;stroke:rgb(55.8%,89.5%,77.3%);stroke-opacity:1;stroke-miterlimit:10;" d="M 0.096 0.91 L 0.55 0.02 " transform="matrix(500,0,0,500,0,0)"/>
<path style="fill:none;stroke-width:0.002;stroke-linecap:butt;stroke-linejoin:miter;stroke:rgb(47.7%,17.1%,93.1%);stroke-opacity:1;stroke-miterlimit:10;" d="M 0.366 0.461 L 0.168 0.825 " transform="matrix(500,0,0,500,0,0)"/>
<path style="fill:none;stroke-width:0.002;stroke-linecap:butt;stroke-linejoin:miter;stroke:rgb(26.3%,81.9%,5.2%);stroke-opacity:1;stroke-miterlimit:10;" d="M 0.045 0.446 L 0.563 0.878 " transform="matrix(500,0,0,500,0,0)"/>
<path style="fill:none;stroke-width:0.002;stroke-linecap:butt;stroke-linejoin:miter;stroke:rgb(89.2%,24.1%,26.4%);stroke-opacity:1;stroke-miterlimit:10;" d="M 0.602 0.582 L 0.026 0.31 " transform="matrix(500,0,0,500,0,0)"/>
<path style="fill:none;stroke-width:0.002;stroke-linecap:butt;stroke-linejoin:miter;stroke:rgb(96.8%,28.4%,18.4%);stroke-opacity:1;stroke-miterlimit:10;" d="M 0.776 0.22 L 0.561 0.131 " transform="matrix(500,0,0,500,0,0)"/>
<path style="fill:none;stroke-width:0.002;stroke-linecap:butt;stroke-linejoin:miter;stroke:rgb(35.2%,83.8%,2.1%);stroke-opacity:1;stroke-miterlimit:10;" d="M 0.179 0.431 L 0.485 0.255 " transform="matrix(500,0,0,500,0,0)"/>
<path style="fill:none;stroke-width:0.002;stroke-linecap:butt;stroke-linejoin:miter;stroke:rgb(76.1%,0.9%,23.3%);stroke-opacity:1;stroke-miterlimit:10;" d="M 0.959 0.745 L 0.104 0.59 " transform="matrix(500,0,0,500,0,0)"/>
<path style="fill:none;stroke-width:0.002;stroke-linecap:butt;stroke-linejoin:miter;stroke:rgb(22.2%,87.2%,51%);stroke-opacity:1;stroke-miterlimit:10;" d="M 0.436 0.028 L 0.862 0.386 " transform="matrix(500,0,0,500,0,0)"/>
<path style="fill:none;stroke-width:0.002;stroke-linecap:butt;stroke-linejoin:miter;stroke:rgb(76%,41.3%,34.6%);stroke-opacity:1;stroke-miterlimit:10;" d="M 0.128 0.84 L 0.702 0.611 " transform="matrix(500,0,0,500,0,0)"/>
<path style="fill:none;stroke-width:0.002;stroke-linecap:butt;stroke-linejoin:miter;stroke:rgb(39.9%,39%,29.6%);stroke-opacity:1;stroke-miterlimit:10;" d="M 0.679 0.325 L 0.829 0.267 " transform="matrix(500,0,0,500,0,0)"/>
<path style="fill:none;stroke-width:0.002;stroke-linecap:butt;stroke-linejoin:miter;stroke:rgb(74%,56.5%,30.6%);stroke-opacity:1;stroke-miterlimit:10;" d="M 0.978 0.28 L 0.407 0.174 " transform="matrix(500,0,0,500,0,0)"/>
<path style="fill:none;stroke-width:0.002;stroke-linecap:butt;stroke-linejoin:miter;stroke:rgb(23.3%,34.8%,62.4%);stroke-opacity:1;stroke-miterlimit:10;" d="M 0.486 0.293 L 0.873 0.023 " transform="matrix(500,0,0,500,0,0)"/>
<path style="fill:none;stroke-width:0.002;stroke-linecap:butt;stroke-linejoin:miter;stroke:rgb(24%,85.3%,31.5%);stroke-opacity:1;stroke-miterlimit:10;" d="M 0.527 0.244 L 0.517 0.716 " transform="matrix(500,0,0,500,0,0)"/>
<path style="fill:none;stroke-width:0.002;stroke-linecap:butt;stroke-linejoin:miter;stroke:rgb(62.8%,64.8%,26.8%);stroke-opacity:1;stroke-miterlimit:10;" d="M 0.376 0.512 L 0.119 0.112 " transform="matrix(500,0,0,500,0,0)"/>
<path style="fill:none;stroke-width:0.002;stroke-linecap:butt;stroke-linejoin:miter;stroke:rgb(66.5%,30.8%,63.8%);stroke-opacity:1;stroke-miterlimit:10;" d="M 0.198 0.374 L 0.785 0.059 " transform="matrix(500,0,0,500,0,0)"/>
<path style="fill:none;stroke-width:0.002;stroke-linecap:butt;stroke-linejoin:miter;stroke:rgb(99.1%,60.4%,77.2%);stroke-opacity:1;stroke-miterlimit:10;" d="M 0.314 0.72 L 0.319 0.369 " transform="matrix(500,0,0,500,0,0)"/>
<path style="fill:none;stroke-width:0.002;stroke-linecap:butt;stroke-linejoin:miter;stroke:rgb(73%,60.6%,29.9%);stroke-opacity:1;stroke-miterlimit:10;" d="M 0.087 0.508 L 0.365 0.517 " transform="matrix(500,0,0,500,0,0)"/>
<path style="fill:none;stroke-width:0.002;stroke-linecap:butt;stroke-linejoin:miter;stroke:rgb(78%,87.2%,50.3%);stroke-opacity:1;stroke-miterlimit:10;" d="M 0.667 0.375 L 0.548 0.221 " transform="matrix(500,0,0,500,0,0)"/>
<path style="fill:none;stroke-width:0.002;stroke-linecap:butt;stroke-linejoin:miter;stroke:rgb(66.6%,80.3%,11.3%);stroke-opacity:1;stroke-miterlimit:10;" d="M 0.577 0.119 L 0.699 0.869 " transform="matrix(500,0,0,500,0,0)"/>
<path style="fill:none;stroke-width:0.002;stroke-linecap:butt;stroke-linejoin:miter;stroke:rgb(47.5%,24%,13.3%);stroke-opacity:1;stroke-miterlimit:10;" d="M 0.462 0.557 L 0.17 0.315 " transform="matrix(500,0,0,500,0,0)"/>
<path style="fill:none;stroke-width:0.002;stroke-linecap:butt;stroke-linejoin:miter;stroke:rgb(6.1%,14.9%,28.4%);stroke-opacity:1;stroke-miterlimit:10;" d="M 0.285 0.823 L 0.736 0.81 " transform="matrix(500,0,0,500,0,0)"/>
<path style="fill:none;stroke-width:0.002;stroke-linecap:butt;stroke-linejoin:miter;stroke:rgb(30.5%,41%,16%);stroke-opacity:1;stroke-miterlimit:10;" d="M 0.022 0.636 L 0.193 0.353 " transform="matrix(500,0,0,500,0,0)"/>
<path style="fill:none;stroke-width:0.002;stroke-linecap:butt;stroke-linejoin:miter;stroke:rgb(61.7%,61.3%,39.7%);stroke-opacity:1;stroke-miterlimit:10;" d="M 0.772 0.214 L 0.185 0.962 " transform="matrix(500,0,0,500,0,0)"/>
<path style="fill:none;stroke-width:0.002;stroke-linecap:butt;stroke-linejoin:miter;stroke:rgb(33.9%,62.6%,23%);stroke-opacity:1;stroke-miterlimit:10;" d="M 0.479 0.598 L 0.079 0.609 " transform="matrix(500,0,0,500,0,0)"/>
<path style="fill:none;stroke-width:0.002;stroke-linecap:butt;stroke-linejoin:miter;stroke:rgb(4.8%,69.4%,85.8%);stroke-opacity:1;stroke-miterlimit:10;" d="M 0.226 0.247 L 0.155 0.93 " transform="matrix(500,0,0,500,0,0)"/>
<path style="fill:none;stroke-width:0.002;stroke-linecap:butt;stroke-linejoin:miter;stroke:rgb(95.7%,98.5%,55.3%);stroke-opacity:1;stroke-miterlimit:10;" d="M 0.268 0.231 L 0.083 0.96 " transform="matrix(500,0,0,500,0,0)"/>
<path style="fill:none;stroke-width:0.002;stroke-linecap:butt;stroke-linejoin:miter;stroke:rgb(47.3%,91.6%,10.4%);stroke-opacity:1;stroke-miterlimit:10;" d="M 0.173 0.066 L 0.402 0.189 " transform="matrix(500,0,0,500,0,0)"/>
<path style="fill:none;stroke-width:0.002;stroke-linecap:butt;stroke-linejoin:miter;stroke:rgb(71%,74.8%,30.6%);stroke-opacity:1;stroke-miterlimit:10;" d="M 0.93 0.693 L 0.315 0.204 " transform="matrix(500,0,0,500,0,0)"/>
<path style="fill:none;stroke-width:0.002;stroke-linecap:butt;stroke-linejoin:miter;stroke:rgb(13.4%,78.9%,4.7%);stroke-opacity:1;stroke-miterlimit:10;" d="M 0.621 0.954 L 0.233 0.586 " transform="matrix(500,0,0,500,0,0)"/>
<path style="fill:none;stroke-width:0.002;stroke-linecap:butt;stroke-linejoin:miter;stroke:rgb(61.8%,58.7%,66.5%);stroke-opacity:1;stroke-miterlimit:10;" d="M 0.272 0.385 L 0.35 0.723 " transform="matrix(500,0,0,500,0,0)"/>
<path style="fill:none;stroke-width:0.002;stroke-linecap:butt;stroke-linejoin:miter;stroke:rgb(59%,66.5%,30.3%);stroke-opacity:1;stroke-miterlimit:10;" d="M 0.248 0.864 L 0.273 0.868 " transform="matrix(500,0,0,500,0,0)"/>
<path style="fill:none;stroke-width:0.002;stroke-linecap:butt;stroke-linejoin:miter;stroke:rgb(79.6%,39.7%,18.4%);stroke-opacity:1;stroke-miterlimit:10;" d="M 0.155 0.285 L 0.553 0.859 " transform="matrix(500,0,0,500,0,0)"/>
<path style="fill:none;stroke-width:0.002;stroke-linecap:butt;stroke-linejoin:miter;stroke:rgb(66.3%,84.1%,86.9%);stroke-opacity:1;stroke-miterlimit:10;" d="M 0.784 0.746 L 0.232 0.01 " transform="matrix(500,0,0,500,0,0)"/>
<path style="fill:none;stroke-width:0.002;stroke-linecap:butt;stroke-linejoin:miter;stroke:rgb(4.6%,19.4%,54.1%);stroke-opacity:1;stroke-miterlimit:10;" d="M 0.986 0.706 L 0.332 0.631 " transform="matrix(500,0,0,500,0,0)"/>
<path style="fill:none;stroke-width:0.002;stroke-linecap:butt;stroke-linejoin:miter;stroke:rgb(36.6%,2.4%,36.9%);stroke-opacity:1;stroke-miterlimit:10;" d="M 0.654 0.562 L 0.147 0.449 " transform="matrix(500,0,0,500,0,0)"/>
<path style="fill:none;stroke-width:0.002;stroke-linecap:butt;stroke-linejoin:miter;stroke:rgb(41%,88.2%,4.1%);stroke-opacity:1;stroke-miterlimit:10;" d="M 0.317 0.731 L 0.336 0.179 " transform="matrix(500,0,0,500,0,0)"/>
<path style="fill:none;stroke-width:0.002;stroke-linecap:butt;stroke-linejoin:miter;stroke:rgb(90.1%,89%,63.8%);stroke-opacity:1;stroke-miterlimit:10;" d="M 0.617 0.474 L 0.88 0.483 " transform="matrix(500,0,0,500,0,0)"/>
<path style="fill:none;stroke-width:0.002;stroke-linecap:butt;stroke-linejoin:miter;stroke:rgb(15.4%,62.9%,52.7%);stroke-opacity:1;stroke-miterlimit:10;" d="M 0.828 0.92 L 0.973 0.078 " transform="matrix(500,0,0,500,0,0)"/>
<path style="fill:none;stroke-width:0.002;stroke-linecap:butt;stroke-linejoin:miter;stroke:rgb(55.9%,47.1%,53.1%);stroke-opacity:1;stroke-miterlimit:10;" d="M 0.913 0.641 L 0.285 0.584 " transform="matrix(500,0,0,500,0,0)"/>
<path style="fill:none;stroke-width:0.002;stroke-linecap:butt;stroke-linejoin:miter;stroke:rgb(87.1%,96%,76.3%);stroke-opacity:1;stroke-miterlimit:10;" d="M 0.839 0.382 L 0.42 0.185 " transform="matrix(500,0,0,500,0,0)"/>
<path style="fill:none;stroke-width:0.002;stroke-linecap:butt;stroke-linejoin:miter;stroke:rgb(6.7%,98.9%,28.3%);stroke-opacity:1;stroke-miterlimit:10;" d="M 0.416 0.632 L 0.45 0.312 " transform="matrix(500,0,0,500,0,0)"/>
<path style="fill:none;stroke-width:0.002;stroke-linecap:butt;stroke-linejoin:miter;stroke:rgb(38.3%,55.5%,53.9%);stroke-opacity:1;stroke-miterlimit:10;" d="M 0.482 0.346 L 0.019 0.727 " transform="matrix(500,0,0,500,0,0)"/>
<path style="fill:none;stroke-width:0.002;stroke-linecap:butt;stroke-linejoin:miter;stroke:rgb(46.2%,74.1%,100%);stroke-opacity:1;stroke-miterlimit:10;" d="M 0.65 0.557 L 0.167 0.676 " transform="matrix(500,0,0,500,0,0)"/>
<path style="fill:none;stroke-width:0.002;stroke-linecap:butt;stroke-linejoin:miter;stroke:rgb(54.5%,73.9%,80.2%);stroke-opacity:1;stroke-miterlimit:10;" d="M 0.966 0.106 L 0.476 0.546 " transform="matrix(500,0,0,500,0,0)"/>
<path style="fill:none;stroke-width:0.002;stroke-linecap:butt;stroke-linejoin:miter;stroke:rgb(54%,51.7%,57.1%);stroke-opacity:1;stroke-miterlimit:10;" d="M 0.212 0.876 L 0.537 0.717 " transform="matrix(500,0,0,500,0,0)"/>
<path style="fill:none;stroke-width:0.002;stroke-linecap:butt;stroke-linejoin:miter;stroke:rgb(7.9%,65.2%,72.4%);stroke-opacity:1;stroke-miterlimit:10;" d="M 0.596 0.89 L 0.232 0.362 " transform="matrix(500,0,0,500,0,0)"/>
<path style="fill:none;stroke-width:0.002;stroke-linecap:butt;stroke-linejoin:miter;stroke:rgb(28.1%,4.1%,15.1%);stroke-opacity:1;stroke-miterlimit:10;" d="M 0.057 0.06 L 0.903 0.01 " transform="matrix(500,0,0,500,0,0)"/>
<path style="fill:none;stroke-width:0.002;stroke-linecap:butt;stroke-linejoin:miter;stroke:rgb(20.7%,68.3%,91.9%);stroke-opacity:1;stroke-miterlimit:10;" d="M 0.355 0.527 L 0.534 0.66 " transform="matrix(500,0,0,500,0,0)"/>
<path style="fill:none;stroke-width:0.002;stroke-linecap:butt;stroke-linejoin:miter;stroke:rgb(46.7%,34.7%,24.1%);stroke-opacity:1;stroke-miterlimit:10;" d="M 0.001 0.551 L 0.571 0.789 " transform="matrix(500,0,0,500,0,0)"/>
<path style="fill:none;stroke-width:0.002;stroke-linecap:butt;stroke-linejoin:miter;stroke:rgb(96.5%,46.7%,59.4%);stroke-opacity:1;stroke-miterlimit:10;" d="M 0.152 0.631 L 0.005 0.108 " transform="matrix(500,0,0,500,0,0)"/>
<path style="fill:none;stroke-width:0.002;stroke-linecap:butt;stroke-linejoin:miter;stroke:rgb(8.1%,50.9%,33.7%);stroke-opacity:1;stroke-miterlimit:10;" d="M 0.219 0.566 L 0.663 0.281 " transform="matrix(500,0,0,500,0,0)"/>
<path style="fill:none;stroke-width:0.002;stroke-linecap:butt;stroke-linejoin:miter;stroke:rgb(92.3%,35.4%,46.5%);stroke-opacity:1;stroke-miterlimit:10;" d="M 0.613 0.376 L 0.134 0.148 " transform="matrix(500,0,0,500,0,0)"/>
<path style="fill:none;stroke-width:0.002;stroke-linecap:butt;stroke-linejoin:miter;stroke:rgb(99.9%,77%,98.8%);stroke-opacity:1;stroke-miterlimit:10;" d="M 0.378 0.689 L 0.321 0.228 " transform="matrix(500,0,0,500,0,0)"/>
<path style="fill:none;stroke-width:0.002;stroke-linecap:butt;stroke-linejoin:miter;stroke:rgb(51.7%,71.6%,16.2%);stroke-opacity:1;stroke-miterlimit:10;" d="M 0.448 0.515 L 0.833 0.806 " transform="matrix(500,0,0,500,0,0)"/>
<path style="fill:none;stroke-width:0.002;stroke-linecap:butt;stroke-linejoin:miter;stroke:rgb(50.5%,94.2%,62.6%);stroke-opacity:1;stroke-miterlimit:10;" d="M 0.866 0.064 L 0.805 0.757 " transform="matrix(500,0,0,500,0,0)"/>
<path style="fill:none;stroke-width:0.002;stroke-linecap:butt;stroke-linejoin:miter;stroke:rgb(63.2%,40.7%,70%);stroke-opacity:1;stroke-miterlimit:10;" d="M 0.286 0.953 L 0.032 0.457 " transform="matrix(500,0,0,500,0,0)"/>
<path style="fill:none;stroke-width:0.002;stroke-linecap:butt;stroke-linejoin:miter;stroke:rgb(92.9%,32.6%,80%);stroke-opacity:1;stroke-miterlimit:10;" d="M 0.483 0.178 L 0.657 0.093 " transform="matrix(500,0,0,500,0,0)"/>
<path style="fill:none;stroke-width:0.002;stroke-linecap:butt;stroke-linejoin:miter;stroke:rgb(69.4%,14.4%,29%);stroke-opacity:1;stroke-miterlimit:10;" d="M 0.331 0.209 L 0.568 0.918 " transform="matrix(500,0,0,500,0,0)"/>
<path style="fill:none;stroke-width:0.002;stroke-linecap:butt;stroke-linejoin:miter;stroke:rgb(70.3%,70.6%,25.2%);stroke-opacity:1;stroke-miterlimit:10;" d="M 0.677 0.339 L 0.812 0.638 " transform="matrix(500,0,0,500,0,0)"/>
<path style="fill:none;stroke-width:0.002;stroke-linecap:butt;stroke-linejoin:miter;stroke:rgb(86.4%,50.3%,20.1%);stroke-opacity:1;stroke-miterlimit:10;" d="M 0.219 0.132 L 0.792 0.75 " transform="matrix(500,0,0,500,0,0)"/>
<path style="fill:none;stroke-width:0.002;stroke-linecap:butt;stroke-linejoin:miter;stroke:rgb(64.9%,8.5%,35.6%);stroke-opacity:1;stroke-miterlimit:10;" d="M 0.932 0.84 L 0.886 0.435 " transform="matrix(500,0,0,500,0,0)"/>
<path style="fill:none;stroke-width:0.002;stroke-linecap:butt;stroke-linejoin:miter;stroke:rgb(88.7%,68.8%,27%);stroke-opacity:1;stroke-miterlimit:10;" d="M 0.155 0.652 L 0.412 0.312 " transform="matrix(500,0,0,500,0,0)"/>
<path style="fill:none;stroke-width:0.002;stroke-linecap:butt;stroke-linejoin:miter;stroke:rgb(64.3%,89.1%,55.4%);stroke-opacity:1;stroke-miterlimit:10;" d="M 0.066 0.653 L 0.321 0.121 " transform="matrix(500,0,0,500,0,0)"/>
</g>
</defs>
<g id="surface284">
<use xlink:href="#surface287"/>
</g>
</svg>
