<?xml version="1.0" encoding="UTF-8"?>
<svg xmlns="http://www.w3.org/2000/svg" xmlns:xlink="http://www.w3.org/1999/xlink" width="500pt" height="500pt" viewBox="0 0 500 500" version="1.1">
<defs>
<radialGradient id="radial0" gradientUnits="userSpaceOnUse" cx="0.5" cy="0.5" fx="0.5" fy="0.5" r="0.6" gradientTransform="matrix(500,0,0,500,0,0)">
<stop offset="0.466667" style="stop-color:rgb(94.9%,94.7%,94.3%);stop-opacity:1;"/>
<stop offset="0.6" style="stop-color:rgb(69.4%,94.6%,73.4%);stop-opacity:1;"/>
</radialGradient>
<clipPath id="clip1">
  <rect x="0" y="0" width="500" height="500"/>
</clipPath>
<g id="surface348" clip-path="url(#clip1)">
<rect x="0" y="0" width="500" height="500" style="fill:url(#radial0);stroke:none;"/>
<path style=" stroke:none;fill-rule:nonzero;fill:rgb(90.6%,42.9%,1.9%);fill-opacity:1;" d="M 42 25 C 42 34.390625 34.390625 42 25 42 C 15.609375 42 8 34.390625 8 25 C 8 15.609375 15.609375 8 25 8 C 34.390625 8 42 15.609375 42 25 "/>
<path style=" stroke:none;fill-rule:nonzero;fill:rgb(82.8%,51%,62.9%);fill-opacity:1;" d="M 88.5 25 C 88.5 32.457031 82.457031 38.5 75 38.5 C 67.542969 38.5 61.5 32.457031 61.5 25 C 61.5 17.542969 67.542969 11.5 75 11.5 C 82.457031 11.5 88.5 17.542969 88.5 25 "/>
<path style=" stroke:none;fill-rule:nonzero;fill:rgb(55.5%,90.6%,90.2%);fill-opacity:1;" d="M 144.5 25 C 144.5 35.769531 135.769531 44.5 125 44.5 C 114.230469 44.5 105.5 35.769531 105.5 25 C 105.5 14.230469 114.230469 5.5 125 5.5 C 135.769531 5.5 144.5 14.230469 144.5 25 "/>
<path style=" stroke:none;fill-rule:nonzero;fill:rgb(34.2%,48.5%,23.4%);fill-opacity:1;" d="M 194.5 25 C 194.5 35.769531 185.769531 44.5 175 44.5 C 164.230469 44.5 155.5 35.769531 155.5 25 C 155.5 14.230469 164.230469 5.5 175 5.5 C 185.769531 5.5 194.5 14.230469 194.5 25 "/>
<path style=" stroke:none;fill-rule:nonzero;fill:rgb(21.8%,7.5%,85.9%);fill-opacity:1;" d="M 239.5 25 C 239.5 33.007812 233.007812 39.5 225 39.5 C 216.992188 39.5 210.5 33.007812 210.5 25 C 210.5 16.992188 216.992188 10.5 225 10.5 C 233.007812 10.5 239.5 16.992188 239.5 25 "/>
<path style=" stroke:none;fill-rule:nonzero;fill:rgb(94.1%,87.6%,76.9%);fill-opacity:1;" d="M 282 25 C 282 28.867188 278.867188 32 275 32 C 271.132812 32 268 28.867188 268 25 C 268 21.132812 271.132812 18 275 18 C 278.867188 18 282 21.132812 282 25 "/>
<path style=" stroke:none;fill-rule:nonzero;fill:rgb(53.9%,9.9%,24.7%);fill-opacity:1;" d="M 336.5 25 C 336.5 31.351562 331.351562 36.5 325 36.5 C 318.648438 36.5 313.5 31.351562 313.5 25 C 313.5 18.648438 318.648438 13.5 325 13.5 C 331.351562 13.5 336.5 18.648438 336.5 25 "/>
<path style=" stroke:none;fill-rule:nonzero;fill:rgb(17.1%,63.6%,16.1%);fill-opacity:1;" d="M 393 25 C 393 34.941406 384.941406 43 375 43 C 365.058594 43 357 34.941406 357 25 C 357 15.058594 365.058594 7 375 7 C 384.941406 7 393 15.058594 393 25 "/>
<path style=" stroke:none;fill-rule:nonzero;fill:rgb(57.1%,43.2%,24.6%);fill-opacity:1;" d="M 436.5 25 C 436.5 31.351562 431.351562 36.5 425 36.5 C 418.648438 36.5 413.5 31.351562 413.5 25 C 413.5 18.648438 418.648438 13.5 425 13.5 C 431.351562 13.5 436.5 18.648438 436.5 25 "/>
<path style=" stroke:none;fill-rule:nonzero;fill:rgb(72.3%,41.2%,90.5%);fill-opacity:1;" d="M 495 25 C 495 36.046875 486.046875 45 475 45 C 463.953125 45 455 36.046875 455 25 C 455 13.953125 463.953125 5 475 5 C 486.046875 5 495 13.953125 495 25 "/>
<path style=" stroke:none;fill-rule:nonzero;fill:rgb(8.9%,57.9%,87.1%);fill-opacity:1;" d="M 497 75 C 497 87.148438 487.148438 97 475 97 C 462.851562 97 453 87.148438 453 75 C 453 62.851562 462.851562 53 475 53 C 487.148438 53 497 62.851562 497 75 "/>
<path style=" stroke:none;fill-rule:nonzero;fill:rgb(12.5%,50.7%,1.2%);fill-opacity:1;" d="M 435 75 C 435 80.523438 430.523438 85 425 85 C 419.476562 85 415 80.523438 415 75 C 415 69.476562 419.476562 65 425 65 C 430.523438 65 435 69.476562 435 75 "/>
<path style=" stroke:none;fill-rule:nonzero;fill:rgb(43.5%,85.5%,79.5%);fill-opacity:1;" d="M 390 75 C 390 83.285156 383.285156 90 375 90 C 366.714844 90 360 83.285156 360 75 C 360 66.714844 366.714844 60 375 60 C 383.285156 60 390 66.714844 390 75 "/>
<path style=" stroke:none;fill-rule:nonzero;fill:rgb(85%,0.7%,38.2%);fill-opacity:1;" d="M 347.5 75 C 347.5 87.425781 337.425781 97.5 325 97.5 C 312.574219 97.5 302.5 87.425781 302.5 75 C 302.5 62.574219 312.574219 52.5 325 52.5 C 337.425781 52.5 347.5 62.574219 347.5 75 "/>
<path style=" stroke:none;fill-rule:nonzero;fill:rgb(4.2%,68.7%,91.6%);fill-opacity:1;" d="M 281.5 75 C 281.5 78.589844 278.589844 81.5 275 81.5 C 271.410156 81.5 268.5 78.589844 268.5 75 C 268.5 71.410156 271.410156 68.5 275 68.5 C 278.589844 68.5 281.5 71.410156 281.5 75 "/>
<path style=" stroke:none;fill-rule:nonzero;fill:rgb(49.9%,72%,58.4%);fill-opacity:1;" d="M 236 75 C 236 81.074219 231.074219 86 225 86 C 218.925781 86 214 81.074219 214 75 C 214 68.925781 218.925781 64 225 64 C 231.074219 64 236 68.925781 236 75 "/>
<path style=" stroke:none;fill-rule:nonzero;fill:rgb(1.8%,13.3%,7.4%);fill-opacity:1;" d="M 181.5 75 C 181.5 78.589844 178.589844 81.5 175 81.5 C 171.410156 81.5 168.5 78.589844 168.5 75 C 168.5 71.410156 171.410156 68.5 175 68.5 C 178.589844 68.5 181.5 71.410156 181.5 75 "/>
<path style=" stroke:none;fill-rule:nonzero;fill:rgb(21.7%,88.6%,30.7%);fill-opacity:1;" d="M 149 75 C 149 88.253906 138.253906 99 125 99 C 111.746094 99 101 88.253906 101 75 C 101 61.746094 111.746094 51 125 51 C 138.253906 51 149 61.746094 149 75 "/>
<path style=" stroke:none;fill-rule:nonzero;fill:rgb(52.4%,51.9%,41.1%);fill-opacity:1;" d="M 88 75 C 88 82.179688 82.179688 88 75 88 C 67.820312 88 62 82.179688 62 75 C 62 67.820312 67.820312 62 75 62 C 82.179688 62 88 67.820312 88 75 "/>
<path style=" stroke:none;fill-rule:nonzero;fill:rgb(8.5%,40%,84.5%);fill-opacity:1;" d="M 35 75 C 35 80.523438 30.523438 85 25 85 C 19.476562 85 15 80.523438 15 75 C 15 69.476562 19.476562 65 25 65 C 30.523438 65 35 69.476562 35 75 "/>
<path style=" stroke:none;fill-rule:nonzero;fill:rgb(27.3%,93.3%,1.5%);fill-opacity:1;" d="M 41 125 C 41 133.835938 33.835938 141 25 141 C 16.164062 141 9 133.835938 9 125 C 9 116.164062 16.164062 109 25 109 C 33.835938 109 41 116.164062 41 125 "/>
<path style=" stroke:none;fill-rule:nonzero;fill:rgb(95.6%,32%,67.1%);fill-opacity:1;" d="M 100 125 C 100 138.808594 88.808594 150 75 150 C 61.191406 150 50 138.808594 50 125 C 50 111.191406 61.191406 100 75 100 C 88.808594 100 100 111.191406 100 125 "/>
<path style=" stroke:none;fill-rule:nonzero;fill:rgb(78.8%,72.7%,90.5%);fill-opacity:1;" d="M 143 125 C 143 134.941406 134.941406 143 125 143 C 115.058594 143 107 134.941406 107 125 C 107 115.058594 115.058594 107 125 107 C 134.941406 107 143 115.058594 143 125 "/>
<path style=" stroke:none;fill-rule:nonzero;fill:rgb(95%,75.5%,24.2%);fill-opacity:1;" d="M 195 125 C 195 136.046875 186.046875 145 175 145 C 163.953125 145 155 136.046875 155 125 C 155 113.953125 163.953125 105 175 105 C 186.046875 105 195 113.953125 195 125 "/>
<path style=" stroke:none;fill-rule:nonzero;fill:rgb(33.7%,31.2%,51.2%);fill-opacity:1;" d="M 245 125 C 245 136.046875 236.046875 145 225 145 C 213.953125 145 205 136.046875 205 125 C 205 113.953125 213.953125 105 225 105 C 236.046875 105 245 113.953125 245 125 "/>
<path style=" stroke:none;fill-rule:nonzero;fill:rgb(62.1%,92%,40%);fill-opacity:1;" d="M 298.5 125 C 298.5 137.980469 287.980469 148.5 275 148.5 C 262.019531 148.5 251.5 137.980469 251.5 125 C 251.5 112.019531 262.019531 101.5 275 101.5 C 287.980469 101.5 298.5 112.019531 298.5 125 "/>
<path style=" stroke:none;fill-rule:nonzero;fill:rgb(33.1%,6%,99.3%);fill-opacity:1;" d="M 339.5 125 C 339.5 133.007812 333.007812 139.5 325 139.5 C 316.992188 139.5 310.5 133.007812 310.5 125 C 310.5 116.992188 316.992188 110.5 325 110.5 C 333.007812 110.5 339.5 116.992188 339.5 125 "/>
<path style=" stroke:none;fill-rule:nonzero;fill:rgb(17.1%,23.3%,70%);fill-opacity:1;" d="M 397.5 125 C 397.5 137.425781 387.425781 147.5 375 147.5 C 362.574219 147.5 352.5 137.425781 352.5 125 C 352.5 112.574219 362.574219 102.5 375 102.5 C 387.425781 102.5 397.5 112.574219 397.5 125 "/>
<path style=" stroke:none;fill-rule:nonzero;fill:rgb(6%,58.7%,13.5%);fill-opacity:1;" d="M 433 125 C 433 129.417969 429.417969 133 425 133 C 420.582031 133 417 129.417969 417 125 C 417 120.582031 420.582031 117 425 117 C 429.417969 117 433 120.582031 433 125 "/>
<path style=" stroke:none;fill-rule:nonzero;fill:rgb(46.6%,0.8%,88.9%);fill-opacity:1;" d="M 488 125 C 488 132.179688 482.179688 138 475 138 C 467.820312 138 462 132.179688 462 125 C 462 117.820312 467.820312 112 475 112 C 482.179688 112 488 117.820312 488 125 "/>
<path style=" stroke:none;fill-rule:nonzero;fill:rgb(42.3%,59.8%,46.7%);fill-opacity:1;" d="M 495 175 C 495 186.046875 486.046875 195 475 195 C 463.953125 195 455 186.046875 455 175 C 455 163.953125 463.953125 155 475 155 C 486.046875 155 495 163.953125 495 175 "/>
<path style=" stroke:none;fill-rule:nonzero;fill:rgb(26.2%,95.6%,2.7%);fill-opacity:1;" d="M 430 175 C 430 181.667969 420 181.667969 420 175 C 420 168.332031 430 168.332031 430 175 "/>
<path style=" stroke:none;fill-rule:nonzero;fill:rgb(12.5%,54.9%,55.4%);fill-opacity:1;" d="M 383.5 175 C 383.5 179.695312 379.695312 183.5 375 183.5 C 370.304688 183.5 366.5 179.695312 366.5 175 C 366.5 170.304688 370.304688 166.5 375 166.5 C 379.695312 166.5 383.5 170.304688 383.5 175 "/>
<path style=" stroke:none;fill-rule:nonzero;fill:rgb(62.3%,19.2%,39%);fill-opacity:1;" d="M 343 175 C 343 184.941406 334.941406 193 325 193 C 315.058594 193 307 184.941406 307 175 C 307 165.058594 315.058594 157 325 157 C 334.941406 157 343 165.058594 343 175 "/>
<path style=" stroke:none;fill-rule:nonzero;fill:rgb(43.7%,63.9%,27.4%);fill-opacity:1;" d="M 298 175 C 298 187.703125 287.703125 198 275 198 C 262.296875 198 252 187.703125 252 175 C 252 162.296875 262.296875 152 275 152 C 287.703125 152 298 162.296875 298 175 "/>
<path style=" stroke:none;fill-rule:nonzero;fill:rgb(48%,34.2%,8.2%);fill-opacity:1;" d="M 244 175 C 244 185.492188 235.492188 194 225 194 C 214.507812 194 206 185.492188 206 175 C 206 164.507812 214.507812 156 225 156 C 235.492188 156 244 164.507812 244 175 "/>
<path style=" stroke:none;fill-rule:nonzero;fill:rgb(17.9%,97%,44.1%);fill-opacity:1;" d="M 194.5 175 C 194.5 185.769531 185.769531 194.5 175 194.5 C 164.230469 194.5 155.5 185.769531 155.5 175 C 155.5 164.230469 164.230469 155.5 175 155.5 C 185.769531 155.5 194.5 164.230469 194.5 175 "/>
<path style=" stroke:none;fill-rule:nonzero;fill:rgb(96.1%,73.6%,25.8%);fill-opacity:1;" d="M 145 175 C 145 186.046875 136.046875 195 125 195 C 113.953125 195 105 186.046875 105 175 C 105 163.953125 113.953125 155 125 155 C 136.046875 155 145 163.953125 145 175 "/>
<path style=" stroke:none;fill-rule:nonzero;fill:rgb(10.4%,94.1%,14.7%);fill-opacity:1;" d="M 85 175 C 85 180.523438 80.523438 185 75 185 C 69.476562 185 65 180.523438 65 175 C 65 169.476562 69.476562 165 75 165 C 80.523438 165 85 169.476562 85 175 "/>
<path style=" stroke:none;fill-rule:nonzero;fill:rgb(97%,11.6%,35.8%);fill-opacity:1;" d="M 38 175 C 38 182.179688 32.179688 188 25 188 C 17.820312 188 12 182.179688 12 175 C 12 167.820312 17.820312 162 25 162 C 32.179688 162 38 167.820312 38 175 "/>
<path style=" stroke:none;fill-rule:nonzero;fill:rgb(1%,95.6%,39.7%);fill-opacity:1;" d="M 48.5 225 C 48.5 237.980469 37.980469 248.5 25 248.5 C 12.019531 248.5 1.5 237.980469 1.5 225 C 1.5 212.019531 12.019531 201.5 25 201.5 C 37.980469 201.5 48.5 212.019531 48.5 225 "/>
<path style=" stroke:none;fill-rule:nonzero;fill:rgb(37.6%,44.1%,7.8%);fill-opacity:1;" d="M 98.5 225 C 98.5 237.980469 87.980469 248.5 75 248.5 C 62.019531 248.5 51.5 237.980469 51.5 225 C 51.5 212.019531 62.019531 201.5 75 201.5 C 87.980469 201.5 98.5 212.019531 98.5 225 "/>
<path style=" stroke:none;fill-rule:nonzero;fill:rgb(45.1%,99.4%,81.8%);fill-opacity:1;" d="M 145.5 225 C 145.5 236.320312 136.320312 245.5 125 245.5 C 113.679688 245.5 104.5 236.320312 104.5 225 C 104.5 213.679688 113.679688 204.5 125 204.5 C 136.320312 204.5 145.5 213.679688 145.5 225 "/>
<path style=" stroke:none;fill-rule:nonzero;fill:rgb(15.3%,20.4%,62.1%);fill-opacity:1;" d="M 197 225 C 197 237.148438 187.148438 247 175 247 C 162.851562 247 153 237.148438 153 225 C 153 212.851562 162.851562 203 175 203 C 187.148438 203 197 212.851562 197 225 "/>
<path style=" stroke:none;fill-rule:nonzero;fill:rgb(70.4%,46.1%,77.6%);fill-opacity:1;" d="M 241.5 225 C 241.5 234.113281 234.113281 241.5 225 241.5 C 215.886719 241.5 208.5 234.113281 208.5 225 C 208.5 215.886719 215.886719 208.5 225 208.5 C 234.113281 208.5 241.5 215.886719 241.5 225 "/>
<path style=" stroke:none;fill-rule:nonzero;fill:rgb(38.7%,8.2%,96%);fill-opacity:1;" d="M 292 225 C 292 234.390625 284.390625 242 275 242 C 265.609375 242 258 234.390625 258 225 C 258 215.609375 265.609375 208 275 208 C 284.390625 208 292 215.609375 292 225 "/>
<path style=" stroke:none;fill-rule:nonzero;fill:rgb(24.5%,52.3%,47.9%);fill-opacity:1;" d="M 333 225 C 333 229.417969 329.417969 233 325 233 C 320.582031 233 317 229.417969 317 225 C 317 220.582031 320.582031 217 325 217 C 329.417969 217 333 220.582031 333 225 "/>
<path style=" stroke:none;fill-rule:nonzero;fill:rgb(34.1%,30.3%,57.1%);fill-opacity:1;" d="M 399.5 225 C 399.5 238.53125 388.53125 249.5 375 249.5 C 361.46875 249.5 350.5 238.53125 350.5 225 C 350.5 211.46875 361.46875 200.5 375 200.5 C 388.53125 200.5 399.5 211.46875 399.5 225 "/>
<path style=" stroke:none;fill-rule:nonzero;fill:rgb(37.9%,72.4%,35.9%);fill-opacity:1;" d="M 436.5 225 C 436.5 231.351562 431.351562 236.5 425 236.5 C 418.648438 236.5 413.5 231.351562 413.5 225 C 413.5 218.648438 418.648438 213.5 425 213.5 C 431.351562 213.5 436.5 218.648438 436.5 225 "/>
<path style=" stroke:none;fill-rule:nonzero;fill:rgb(30.9%,93.1%,33.4%);fill-opacity:1;" d="M 491.5 225 C 491.5 234.113281 484.113281 241.5 475 241.5 C 465.886719 241.5 458.5 234.113281 458.5 225 C 458.5 215.886719 465.886719 208.5 475 208.5 C 484.113281 208.5 491.5 215.886719 491.5 225 "/>
<path style=" stroke:none;fill-rule:nonzero;fill:rgb(59.8%,79.5%,96.9%);fill-opacity:1;" d="M 492.5 275 C 492.5 284.664062 484.664062 292.5 475 292.5 C 465.335938 292.5 457.5 284.664062 457.5 275 C 457.5 265.335938 465.335938 257.5 475 257.5 C 484.664062 257.5 492.5 265.335938 492.5 275 "/>
<path style=" stroke:none;fill-rule:nonzero;fill:rgb(80.6%,63.4%,90.6%);fill-opacity:1;" d="M 449.5 275 C 449.5 288.53125 438.53125 299.5 425 299.5 C 411.46875 299.5 400.5 288.53125 400.5 275 C 400.5 261.46875 411.46875 250.5 425 250.5 C 438.53125 250.5 449.5 261.46875 449.5 275 "/>
<path style=" stroke:none;fill-rule:nonzero;fill:rgb(23.6%,5.1%,93.6%);fill-opacity:1;" d="M 395 275 C 395 286.046875 386.046875 295 375 295 C 363.953125 295 355 286.046875 355 275 C 355 263.953125 363.953125 255 375 255 C 386.046875 255 395 263.953125 395 275 "/>
<path style=" stroke:none;fill-rule:nonzero;fill:rgb(80.6%,40.6%,96.9%);fill-opacity:1;" d="M 344.5 275 C 344.5 285.769531 335.769531 294.5 325 294.5 C 314.230469 294.5 305.5 285.769531 305.5 275 C 305.5 264.230469 314.230469 255.5 325 255.5 C 335.769531 255.5 344.5 264.230469 344.5 275 "/>
<path style=" stroke:none;fill-rule:nonzero;fill:rgb(70%,2.8%,56.8%);fill-opacity:1;" d="M 295 275 C 295 286.046875 286.046875 295 275 295 C 263.953125 295 255 286.046875 255 275 C 255 263.953125 263.953125 255 275 255 C 286.046875 255 295 263.953125 295 275 "/>
<path style=" stroke:none;fill-rule:nonzero;fill:rgb(62.3%,53%,80.5%);fill-opacity:1;" d="M 246.5 275 C 246.5 286.875 236.875 296.5 225 296.5 C 213.125 296.5 203.5 286.875 203.5 275 C 203.5 263.125 213.125 253.5 225 253.5 C 236.875 253.5 246.5 263.125 246.5 275 "/>
<path style=" stroke:none;fill-rule:nonzero;fill:rgb(42.1%,43.6%,63.6%);fill-opacity:1;" d="M 186 275 C 186 281.074219 181.074219 286 175 286 C 168.925781 286 164 281.074219 164 275 C 164 268.925781 168.925781 264 175 264 C 181.074219 264 186 268.925781 186 275 "/>
<path style=" stroke:none;fill-rule:nonzero;fill:rgb(68.9%,60.8%,86.9%);fill-opacity:1;" d="M 131.5 275 C 131.5 278.589844 128.589844 281.5 125 281.5 C 121.410156 281.5 118.5 278.589844 118.5 275 C 118.5 271.410156 121.410156 268.5 125 268.5 C 128.589844 268.5 131.5 271.410156 131.5 275 "/>
<path style=" stroke:none;fill-rule:nonzero;fill:rgb(45.4%,22.7%,23.6%);fill-opacity:1;" d="M 96.5 275 C 96.5 286.875 86.875 296.5 75 296.5 C 63.125 296.5 53.5 286.875 53.5 275 C 53.5 263.125 63.125 253.5 75 253.5 C 86.875 253.5 96.5 263.125 96.5 275 "/>
<path style=" stroke:none;fill-rule:nonzero;fill:rgb(18.7%,54.9%,51.8%);fill-opacity:1;" d="M 49 275 C 49 288.253906 38.253906 299 25 299 C 11.746094 299 1 288.253906 1 275 C 1 261.746094 11.746094 251 25 251 C 38.253906 251 49 261.746094 49 275 "/>
<path style=" stroke:none;fill-rule:nonzero;fill:rgb(86.1%,71.2%,44.7%);fill-opacity:1;" d="M 30 325 C 30 331.667969 20 331.667969 20 325 C 20 318.332031 30 318.332031 30 325 "/>
<path style=" stroke:none;fill-rule:nonzero;fill:rgb(57.8%,67%,74.2%);fill-opacity:1;" d="M 86.5 325 C 86.5 331.351562 81.351562 336.5 75 336.5 C 68.648438 336.5 63.5 331.351562 63.5 325 C 63.5 318.648438 68.648438 313.5 75 313.5 C 81.351562 313.5 86.5 318.648438 86.5 325 "/>
<path style=" stroke:none;fill-rule:nonzero;fill:rgb(38.3%,16.4%,60.9%);fill-opacity:1;" d="M 131 325 C 131 328.3125 128.3125 331 125 331 C 121.6875 331 119 328.3125 119 325 C 119 321.6875 121.6875 319 125 319 C 128.3125 319 131 321.6875 131 325 "/>
<path style=" stroke:none;fill-rule:nonzero;fill:rgb(18.9%,68.9%,43.6%);fill-opacity:1;" d="M 198.5 325 C 198.5 337.980469 187.980469 348.5 175 348.5 C 162.019531 348.5 151.5 337.980469 151.5 325 C 151.5 312.019531 162.019531 301.5 175 301.5 C 187.980469 301.5 198.5 312.019531 198.5 325 "/>
<path style=" stroke:none;fill-rule:nonzero;fill:rgb(35.9%,66.8%,20.2%);fill-opacity:1;" d="M 244 325 C 244 335.492188 235.492188 344 225 344 C 214.507812 344 206 335.492188 206 325 C 206 314.507812 214.507812 306 225 306 C 235.492188 306 244 314.507812 244 325 "/>
<path style=" stroke:none;fill-rule:nonzero;fill:rgb(89.8%,8%,16.3%);fill-opacity:1;" d="M 298.5 325 C 298.5 337.980469 287.980469 348.5 275 348.5 C 262.019531 348.5 251.5 337.980469 251.5 325 C 251.5 312.019531 262.019531 301.5 275 301.5 C 287.980469 301.5 298.5 312.019531 298.5 325 "/>
<path style=" stroke:none;fill-rule:nonzero;fill:rgb(7.3%,97.5%,87.2%);fill-opacity:1;" d="M 331.5 325 C 331.5 328.589844 328.589844 331.5 325 331.5 C 321.410156 331.5 318.5 328.589844 318.5 325 C 318.5 321.410156 321.410156 318.5 325 318.5 C 328.589844 318.5 331.5 321.410156 331.5 325 "/>
<path style=" stroke:none;fill-rule:nonzero;fill:rgb(17.7%,93.2%,32.5%);fill-opacity:1;" d="M 391 325 C 391 333.835938 383.835938 341 375 341 C 366.164062 341 359 333.835938 359 325 C 359 316.164062 366.164062 309 375 309 C 383.835938 309 391 316.164062 391 325 "/>
<path style=" stroke:none;fill-rule:nonzero;fill:rgb(10.5%,29.1%,2.3%);fill-opacity:1;" d="M 430 325 C 430 331.667969 420 331.667969 420 325 C 420 318.332031 430 318.332031 430 325 "/>
<path style=" stroke:none;fill-rule:nonzero;fill:rgb(54.1%,71.4%,83.3%);fill-opacity:1;" d="M 480 325 C 480 331.667969 470 331.667969 470 325 C 470 318.332031 480 318.332031 480 325 "/>
<path style=" stroke:none;fill-rule:nonzero;fill:rgb(62.5%,99.3%,10.8%);fill-opacity:1;" d="M 499.5 375 C 499.5 388.53125 488.53125 399.5 475 399.5 C 461.46875 399.5 450.5 388.53125 450.5 375 C 450.5 361.46875 461.46875 350.5 475 350.5 C 488.53125 350.5 499.5 361.46875 499.5 375 "/>
<path style=" stroke:none;fill-rule:nonzero;fill:rgb(22%,36.8%,32.4%);fill-opacity:1;" d="M 441.5 375 C 441.5 384.113281 434.113281 391.5 425 391.5 C 415.886719 391.5 408.5 384.113281 408.5 375 C 408.5 365.886719 415.886719 358.5 425 358.5 C 434.113281 358.5 441.5 365.886719 441.5 375 "/>
<path style=" stroke:none;fill-rule:nonzero;fill:rgb(82.6%,97.5%,59.6%);fill-opacity:1;" d="M 391 375 C 391 383.835938 383.835938 391 375 391 C 366.164062 391 359 383.835938 359 375 C 359 366.164062 366.164062 359 375 359 C 383.835938 359 391 366.164062 391 375 "/>
<path style=" stroke:none;fill-rule:nonzero;fill:rgb(88.9%,55.8%,89%);fill-opacity:1;" d="M 349 375 C 349 388.253906 338.253906 399 325 399 C 311.746094 399 301 388.253906 301 375 C 301 361.746094 311.746094 351 325 351 C 338.253906 351 349 361.746094 349 375 "/>
<path style=" stroke:none;fill-rule:nonzero;fill:rgb(59.3%,2.1%,89.7%);fill-opacity:1;" d="M 295 375 C 295 386.046875 286.046875 395 275 395 C 263.953125 395 255 386.046875 255 375 C 255 363.953125 263.953125 355 275 355 C 286.046875 355 295 363.953125 295 375 "/>
<path style=" stroke:none;fill-rule:nonzero;fill:rgb(25.8%,41.8%,9.2%);fill-opacity:1;" d="M 235.5 375 C 235.5 380.800781 230.800781 385.5 225 385.5 C 219.199219 385.5 214.5 380.800781 214.5 375 C 214.5 369.199219 219.199219 364.5 225 364.5 C 230.800781 364.5 235.5 369.199219 235.5 375 "/>
<path style=" stroke:none;fill-rule:nonzero;fill:rgb(85.7%,19.6%,79.2%);fill-opacity:1;" d="M 180 375 C 180 381.667969 170 381.667969 170 375 C 170 368.332031 180 368.332031 180 375 "/>
<path style=" stroke:none;fill-rule:nonzero;fill:rgb(80%,59.8%,95.1%);fill-opacity:1;" d="M 137.5 375 C 137.5 381.902344 131.902344 387.5 125 387.5 C 118.097656 387.5 112.5 381.902344 112.5 375 C 112.5 368.097656 118.097656 362.5 125 362.5 C 131.902344 362.5 137.5 368.097656 137.5 375 "/>
<path style=" stroke:none;fill-rule:nonzero;fill:rgb(55.5%,2.3%,43.2%);fill-opacity:1;" d="M 87 375 C 87 381.628906 81.628906 387 75 387 C 68.371094 387 63 381.628906 63 375 C 63 368.371094 68.371094 363 75 363 C 81.628906 363 87 368.371094 87 375 "/>
<path style=" stroke:none;fill-rule:nonzero;fill:rgb(28.8%,57.8%,88.7%);fill-opacity:1;" d="M 46.5 375 C 46.5 386.875 36.875 396.5 25 396.5 C 13.125 396.5 3.5 386.875 3.5 375 C 3.5 363.125 13.125 353.5 25 353.5 C 36.875 353.5 46.5 363.125 46.5 375 "/>
<path style=" stroke:none;fill-rule:nonzero;fill:rgb(26.3%,71.3%,52.6%);fill-opacity:1;" d="M 50 425 C 50 438.808594 38.808594 450 25 450 C 11.191406 450 0 438.808594 0 425 C 0 411.191406 11.191406 400 25 400 C 38.808594 400 50 411.191406 50 425 "/>
<path style=" stroke:none;fill-rule:nonzero;fill:rgb(61.4%,64.4%,99.6%);fill-opacity:1;" d="M 91 425 C 91 433.835938 83.835938 441 75 441 C 66.164062 441 59 433.835938 59 425 C 59 416.164062 66.164062 409 75 409 C 83.835938 409 91 416.164062 91 425 "/>
<path style=" stroke:none;fill-rule:nonzero;fill:rgb(52.4%,87.6%,36.8%);fill-opacity:1;" d="M 139.5 425 C 139.5 433.007812 133.007812 439.5 125 439.5 C 116.992188 439.5 110.5 433.007812 110.5 425 C 110.5 416.992188 116.992188 410.5 125 410.5 C 133.007812 410.5 139.5 416.992188 139.5 425 "/>
<path style=" stroke:none;fill-rule:nonzero;fill:rgb(23.9%,73.3%,51.1%);fill-opacity:1;" d="M 187.5 425 C 187.5 431.902344 181.902344 437.5 175 437.5 C 168.097656 437.5 162.5 431.902344 162.5 425 C 162.5 418.097656 168.097656 412.5 175 412.5 C 181.902344 412.5 187.5 418.097656 187.5 425 "/>
<path style=" stroke:none;fill-rule:nonzero;fill:rgb(97.6%,32.9%,37.7%);fill-opacity:1;" d="M 240.5 425 C 240.5 433.558594 233.558594 440.5 225 440.5 C 216.441406 440.5 209.5 433.558594 209.5 425 C 209.5 416.441406 216.441406 409.5 225 409.5 C 233.558594 409.5 240.5 416.441406 240.5 425 "/>
<path style=" stroke:none;fill-rule:nonzero;fill:rgb(21.4%,86.4%,95.2%);fill-opacity:1;" d="M 285.5 425 C 285.5 430.800781 280.800781 435.5 275 435.5 C 269.199219 435.5 264.5 430.800781 264.5 425 C 264.5 419.199219 269.199219 414.5 275 414.5 C 280.800781 414.5 285.5 419.199219 285.5 425 "/>
<path style=" stroke:none;fill-rule:nonzero;fill:rgb(43.7%,43.9%,92.4%);fill-opacity:1;" d="M 336 425 C 336 431.074219 331.074219 436 325 436 C 318.925781 436 314 431.074219 314 425 C 314 418.925781 318.925781 414 325 414 C 331.074219 414 336 418.925781 336 425 "/>
<path style=" stroke:none;fill-rule:nonzero;fill:rgb(81.9%,5.7%,5%);fill-opacity:1;" d="M 391 425 C 391 433.835938 383.835938 441 375 441 C 366.164062 441 359 433.835938 359 425 C 359 416.164062 366.164062 409 375 409 C 383.835938 409 391 416.164062 391 425 "/>
<path style=" stroke:none;fill-rule:nonzero;fill:rgb(90%,28.9%,44.8%);fill-opacity:1;" d="M 433.5 425 C 433.5 429.695312 429.695312 433.5 425 433.5 C 420.304688 433.5 416.5 429.695312 416.5 425 C 416.5 420.304688 420.304688 416.5 425 416.5 C 429.695312 416.5 433.5 420.304688 433.5 425 "/>
<path style=" stroke:none;fill-rule:nonzero;fill:rgb(92.7%,71.7%,6.8%);fill-opacity:1;" d="M 480.5 425 C 480.5 428.039062 478.039062 430.5 475 430.5 C 471.960938 430.5 469.5 428.039062 469.5 425 C 469.5 421.960938 471.960938 419.5 475 419.5 C 478.039062 419.5 480.5 421.960938 480.5 425 "/>
<path style=" stroke:none;fill-rule:nonzero;fill:rgb(2.5%,6.3%,62.6%);fill-opacity:1;" d="M 496 475 C 496 486.597656 486.597656 496 475 496 C 463.402344 496 454 486.597656 454 475 C 454 463.402344 463.402344 454 475 454 C 486.597656 454 496 463.402344 496 475 "/>
<path style=" stroke:none;fill-rule:nonzero;fill:rgb(22.3%,57.1%,38.3%);fill-opacity:1;" d="M 443.5 475 C 443.5 485.21875 435.21875 493.5 425 493.5 C 414.78125 493.5 406.5 485.21875 406.5 475 C 406.5 464.78125 414.78125 456.5 425 456.5 C 435.21875 456.5 443.5 464.78125 443.5 475 "/>
<path style=" stroke:none;fill-rule:nonzero;fill:rgb(21.3%,69.6%,77.1%);fill-opacity:1;" d="M 400 475 C 400 488.808594 388.808594 500 375 500 C 361.191406 500 350 488.808594 350 475 C 350 461.191406 361.191406 450 375 450 C 388.808594 450 400 461.191406 400 475 "/>
<path style=" stroke:none;fill-rule:nonzero;fill:rgb(79.2%,3.6%,25%);fill-opacity:1;" d="M 343 475 C 343 484.941406 334.941406 493 325 493 C 315.058594 493 307 484.941406 307 475 C 307 465.058594 315.058594 457 325 457 C 334.941406 457 343 465.058594 343 475 "/>
<path style=" stroke:none;fill-rule:nonzero;fill:rgb(42.9%,59%,39.1%);fill-opacity:1;" d="M 281 475 C 281 478.3125 278.3125 481 275 481 C 271.6875 481 269 478.3125 269 475 C 269 471.6875 271.6875 469 275 469 C 278.3125 469 281 471.6875 281 475 "/>
<path style=" stroke:none;fill-rule:nonzero;fill:rgb(76%,23.8%,29.4%);fill-opacity:1;" d="M 233 475 C 233 479.417969 229.417969 483 225 483 C 220.582031 483 217 479.417969 217 475 C 217 470.582031 220.582031 467 225 467 C 229.417969 467 233 470.582031 233 475 "/>
<path style=" stroke:none;fill-rule:nonzero;fill:rgb(75%,35.6%,51.5%);fill-opacity:1;" d="M 187 475 C 187 481.628906 181.628906 487 175 487 C 168.371094 487 163 481.628906 163 475 C 163 468.371094 168.371094 463 175 463 C 181.628906 463 187 468.371094 187 475 "/>
<path style=" stroke:none;fill-rule:nonzero;fill:rgb(91.6%,15.5%,44.9%);fill-opacity:1;" d="M 142.5 475 C 142.5 484.664062 134.664062 492.5 125 492.5 C 115.335938 492.5 107.5 484.664062 107.5 475 C 107.5 465.335938 115.335938 457.5 125 457.5 C 134.664062 457.5 142.5 465.335938 142.5 475 "/>
<path style=" stroke:none;fill-rule:nonzero;fill:rgb(65.2%,52.8%,59%);fill-opacity:1;" d="M 89 475 C 89 482.730469 82.730469 489 75 489 C 67.269531 489 61 482.730469 61 475 C 61 467.269531 67.269531 461 75 461 C 82.730469 461 89 467.269531 89 475 "/>
<path style=" stroke:none;fill-rule:nonzero;fill:rgb(37.4%,96.2%,63.2%);fill-opacity:1;" d="M 32 475 C 32 478.867188 28.867188 482 25 482 C 21.132812 482 18 478.867188 18 475 C 18 471.132812 21.132812 468 25 468 C 28.867188 468 32 471.132812 32 475 "/>
<path style="fill:none;stroke-width:0.01;stroke-linecap:butt;stroke-linejoin:miter;stroke:rgb(19.7%,91.6%,89.9%);stroke-opacity:1;stroke-miterlimit:10;" d="M 0.05 0.05 C 0.15 0.05 0.25 0.05 0.35 0.05 " transform="matrix(500,0,0,500,0,0)"/>
<path style="fill:none;stroke-width:0.01;stroke-linecap:butt;stroke-linejoin:miter;stroke:rgb(82.3%,39.8%,98.3%);stroke-opacity:1;stroke-miterlimit:10;" d="M 0.35 0.05 C 0.45 0.05 0.55 0.05 0.65 0.05 " transform="matrix(500,0,0,500,0,0)"/>
<path style="fill:none;stroke-width:0.01;stroke-linecap:butt;stroke-linejoin:miter;stroke:rgb(42.4%,59.7%,41%);stroke-opacity:1;stroke-miterlimit:10;" d="M 0.65 0.05 C 0.75 0.05 0.85 0.05 0.95 0.05 " transform="matrix(500,0,0,500,0,0)"/>
<path style="fill:none;stroke-width:0.01;stroke-linecap:butt;stroke-linejoin:miter;stroke:rgb(94.2%,0.9%,85.7%);stroke-opacity:1;stroke-miterlimit:10;" d="M 0.95 0.05 C 0.95 0.15 0.85 0.15 0.75 0.15 " transform="matrix(500,0,0,500,0,0)"/>
<path style="fill:none;stroke-width:0.01;stroke-linecap:butt;stroke-linejoin:miter;stroke:rgb(86%,67.6%,96.1%);stroke-opacity:1;stroke-miterlimit:10;" d="M 0.75 0.15 C 0.65 0.15 0.55 0.15 0.45 0.15 " transform="matrix(500,0,0,500,0,0)"/>
<path style="fill:none;stroke-width:0.01;stroke-linecap:butt;stroke-linejoin:miter;stroke:rgb(64.7%,73.8%,32.4%);stroke-opacity:1;stroke-miterlimit:10;" d="M 0.45 0.15 C 0.35 0.15 0.25 0.15 0.15 0.15 " transform="matrix(500,0,0,500,0,0)"/>
<path style="fill:none;stroke-width:0.01;stroke-linecap:butt;stroke-linejoin:miter;stroke:rgb(82%,56.1%,77.1%);stroke-opacity:1;stroke-miterlimit:10;" d="M 0.15 0.15 C 0.05 0.15 0.05 0.25 0.15 0.25 " transform="matrix(500,0,0,500,0,0)"/>
<path style="fill:none;stroke-width:0.01;stroke-linecap:butt;stroke-linejoin:miter;stroke:rgb(48.6%,64.1%,39.9%);stroke-opacity:1;stroke-miterlimit:10;" d="M 0.15 0.25 C 0.25 0.25 0.35 0.25 0.45 0.25 " transform="matrix(500,0,0,500,0,0)"/>
<path style="fill:none;stroke-width:0.01;stroke-linecap:butt;stroke-linejoin:miter;stroke:rgb(48.7%,0.8%,54.3%);stroke-opacity:1;stroke-miterlimit:10;" d="M 0.45 0.25 C 0.55 0.25 0.65 0.25 0.75 0.25 " transform="matrix(500,0,0,500,0,0)"/>
<path style="fill:none;stroke-width:0.01;stroke-linecap:butt;stroke-linejoin:miter;stroke:rgb(42.3%,45.5%,25.7%);stroke-opacity:1;stroke-miterlimit:10;" d="M 0.75 0.25 C 0.85 0.25 0.95 0.25 0.95 0.35 " transform="matrix(500,0,0,500,0,0)"/>
<path style="fill:none;stroke-width:0.01;stroke-linecap:butt;stroke-linejoin:miter;stroke:rgb(19.7%,91.3%,60.5%);stroke-opacity:1;stroke-miterlimit:10;" d="M 0.95 0.35 C 0.85 0.35 0.75 0.35 0.65 0.35 " transform="matrix(500,0,0,500,0,0)"/>
<path style="fill:none;stroke-width:0.01;stroke-linecap:butt;stroke-linejoin:miter;stroke:rgb(0.7%,44.4%,36.6%);stroke-opacity:1;stroke-miterlimit:10;" d="M 0.65 0.35 C 0.55 0.35 0.45 0.35 0.35 0.35 " transform="matrix(500,0,0,500,0,0)"/>
<path style="fill:none;stroke-width:0.01;stroke-linecap:butt;stroke-linejoin:miter;stroke:rgb(89.2%,69.1%,17.6%);stroke-opacity:1;stroke-miterlimit:10;" d="M 0.35 0.35 C 0.25 0.35 0.15 0.35 0.05 0.35 " transform="matrix(500,0,0,500,0,0)"/>
<path style="fill:none;stroke-width:0.01;stroke-linecap:butt;stroke-linejoin:miter;stroke:rgb(32.4%,96.1%,42.3%);stroke-opacity:1;stroke-miterlimit:10;" d="M 0.05 0.35 C 0.05 0.45 0.15 0.45 0.25 0.45 " transform="matrix(500,0,0,500,0,0)"/>
<path style="fill:none;stroke-width:0.01;stroke-linecap:butt;stroke-linejoin:miter;stroke:rgb(79.8%,81.5%,52.3%);stroke-opacity:1;stroke-miterlimit:10;" d="M 0.25 0.45 C 0.35 0.45 0.45 0.45 0.55 0.45 " transform="matrix(500,0,0,500,0,0)"/>
<path style="fill:none;stroke-width:0.01;stroke-linecap:butt;stroke-linejoin:miter;stroke:rgb(71.9%,92.9%,76.4%);stroke-opacity:1;stroke-miterlimit:10;" d="M 0.55 0.45 C 0.65 0.45 0.75 0.45 0.85 0.45 " transform="matrix(500,0,0,500,0,0)"/>
<path style="fill:none;stroke-width:0.01;stroke-linecap:butt;stroke-linejoin:miter;stroke:rgb(61.6%,56.4%,40.7%);stroke-opacity:1;stroke-miterlimit:10;" d="M 0.85 0.45 C 0.95 0.45 0.95 0.55 0.85 0.55 " transform="matrix(500,0,0,500,0,0)"/>
<path style="fill:none;stroke-width:0.01;stroke-linecap:butt;stroke-linejoin:miter;stroke:rgb(39.9%,71.2%,98.3%);stroke-opacity:1;stroke-miterlimit:10;" d="M 0.85 0.55 C 0.75 0.55 0.65 0.55 0.55 0.55 " transform="matrix(500,0,0,500,0,0)"/>
<path style="fill:none;stroke-width:0.01;stroke-linecap:butt;stroke-linejoin:miter;stroke:rgb(74.2%,20.8%,0.1%);stroke-opacity:1;stroke-miterlimit:10;" d="M 0.55 0.55 C 0.45 0.55 0.35 0.55 0.25 0.55 " transform="matrix(500,0,0,500,0,0)"/>
<path style="fill:none;stroke-width:0.01;stroke-linecap:butt;stroke-linejoin:miter;stroke:rgb(48.7%,6.4%,41.4%);stroke-opacity:1;stroke-miterlimit:10;" d="M 0.25 0.55 C 0.15 0.55 0.05 0.55 0.05 0.65 " transform="matrix(500,0,0,500,0,0)"/>
<path style="fill:none;stroke-width:0.01;stroke-linecap:butt;stroke-linejoin:miter;stroke:rgb(40.9%,42%,19.2%);stroke-opacity:1;stroke-miterlimit:10;" d="M 0.05 0.65 C 0.15 0.65 0.25 0.65 0.35 0.65 " transform="matrix(500,0,0,500,0,0)"/>
<path style="fill:none;stroke-width:0.01;stroke-linecap:butt;stroke-linejoin:miter;stroke:rgb(51.9%,72%,5.2%);stroke-opacity:1;stroke-miterlimit:10;" d="M 0.35 0.65 C 0.45 0.65 0.55 0.65 0.65 0.65 " transform="matrix(500,0,0,500,0,0)"/>
<path style="fill:none;stroke-width:0.01;stroke-linecap:butt;stroke-linejoin:miter;stroke:rgb(36.4%,95.5%,96%);stroke-opacity:1;stroke-miterlimit:10;" d="M 0.65 0.65 C 0.75 0.65 0.85 0.65 0.95 0.65 " transform="matrix(500,0,0,500,0,0)"/>
<path style="fill:none;stroke-width:0.01;stroke-linecap:butt;stroke-linejoin:miter;stroke:rgb(34.6%,99.8%,49%);stroke-opacity:1;stroke-miterlimit:10;" d="M 0.95 0.65 C 0.95 0.75 0.85 0.75 0.75 0.75 " transform="matrix(500,0,0,500,0,0)"/>
<path style="fill:none;stroke-width:0.01;stroke-linecap:butt;stroke-linejoin:miter;stroke:rgb(24.2%,16.2%,29.3%);stroke-opacity:1;stroke-miterlimit:10;" d="M 0.75 0.75 C 0.65 0.75 0.55 0.75 0.45 0.75 " transform="matrix(500,0,0,500,0,0)"/>
<path style="fill:none;stroke-width:0.01;stroke-linecap:butt;stroke-linejoin:miter;stroke:rgb(92.8%,73.6%,81.3%);stroke-opacity:1;stroke-miterlimit:10;" d="M 0.45 0.75 C 0.35 0.75 0.25 0.75 0.15 0.75 " transform="matrix(500,0,0,500,0,0)"/>
<path style="fill:none;stroke-width:0.01;stroke-linecap:butt;stroke-linejoin:miter;stroke:rgb(21.1%,8.9%,76.4%);stroke-opacity:1;stroke-miterlimit:10;" d="M 0.15 0.75 C 0.05 0.75 0.05 0.85 0.15 0.85 " transform="matrix(500,0,0,500,0,0)"/>
<path style="fill:none;stroke-width:0.01;stroke-linecap:butt;stroke-linejoin:miter;stroke:rgb(80.6%,84.4%,18.2%);stroke-opacity:1;stroke-miterlimit:10;" d="M 0.15 0.85 C 0.25 0.85 0.35 0.85 0.45 0.85 " transform="matrix(500,0,0,500,0,0)"/>
<path style="fill:none;stroke-width:0.01;stroke-linecap:butt;stroke-linejoin:miter;stroke:rgb(96.8%,68.5%,97.2%);stroke-opacity:1;stroke-miterlimit:10;" d="M 0.45 0.85 C 0.55 0.85 0.65 0.85 0.75 0.85 " transform="matrix(500,0,0,500,0,0)"/>
<path style="fill:none;stroke-width:0.01;stroke-linecap:butt;stroke-linejoin:miter;stroke:rgb(14.6%,74.4%,45%);stroke-opacity:1;stroke-miterlimit:10;" d="M 0.75 0.85 C 0.85 0.85 0.95 0.85 0.95 0.95 " transform="matrix(500,0,0,500,0,0)"/>
<path style="fill:none;stroke-width:0.01;stroke-linecap:butt;stroke-linejoin:miter;stroke:rgb(87%,44.4%,80.6%);stroke-opacity:1;stroke-miterlimit:10;" d="M 0.95 0.95 C 0.85 0.95 0.75 0.95 0.65 0.95 " transform="matrix(500,0,0,500,0,0)"/>
<path style="fill:none;stroke-width:0.01;stroke-linecap:butt;stroke-linejoin:miter;stroke:rgb(20.7%,85.3%,20.3%);stroke-opacity:1;stroke-miterlimit:10;" d="M 0.65 0.95 C 0.55 0.95 0.45 0.95 0.35 0.95 " transform="matrix(500,0,0,500,0,0)"/>
<path style="fill:none;stroke-width:0.01;stroke-linecap:butt;stroke-linejoin:miter;stroke:rgb(61.1%,85.8%,53.3%);stroke-opacity:1;stroke-miterlimit:10;" d="M 0.35 0.95 C 0.25 0.95 0.15 0.95 0.05 0.95 " transform="matrix(500,0,0,500,0,0)"/>
<path style=" stroke:none;fill-rule:nonzero;fill:rgb(15.9%,65.9%,36.8%);fill-opacity:0.5;" d="M 23.5 47 L 97.5 72 L 93.5 135 L 23.5 47 "/>
<path style=" stroke:none;fill-rule:nonzero;fill:rgb(13.8%,41.1%,31.3%);fill-opacity:0.5;" d="M 132 28.5 L 203.5 29.5 L 218.5 90.5 L 132 28.5 "/>
<path style=" stroke:none;fill-rule:nonzero;fill:rgb(97%,5%,52.1%);fill-opacity:0.5;" d="M 223 49.5 L 290 25 L 280.5 92.5 L 223 49.5 "/>
<path style=" stroke:none;fill-rule:nonzero;fill:rgb(80.9%,19.9%,29.2%);fill-opacity:0.5;" d="M 340 24.5 L 408 12 L 417.5 68 L 340 24.5 "/>
<path style=" stroke:none;fill-rule:nonzero;fill:rgb(73.4%,60.3%,73.1%);fill-opacity:0.5;" d="M 474 87 L 416.5 79.5 L 400 18.5 L 474 87 "/>
<path style=" stroke:none;fill-rule:nonzero;fill:rgb(45.3%,29%,61.5%);fill-opacity:0.5;" d="M 475 169 L 400 161 L 397 89 L 475 169 "/>
<path style=" stroke:none;fill-rule:nonzero;fill:rgb(90.7%,41.3%,99%);fill-opacity:0.5;" d="M 365.5 148.5 L 291 152 L 292.5 222 L 365.5 148.5 "/>
<path style=" stroke:none;fill-rule:nonzero;fill:rgb(22.6%,56.8%,53.7%);fill-opacity:0.5;" d="M 268.5 108 L 193.5 127.5 L 171.5 200 L 268.5 108 "/>
<path style=" stroke:none;fill-rule:nonzero;fill:rgb(88.9%,62.9%,88%);fill-opacity:0.5;" d="M 150 184 L 83.5 183 L 84.5 121 L 150 184 "/>
<path style=" stroke:none;fill-rule:nonzero;fill:rgb(60.9%,60.9%,29.3%);fill-opacity:0.5;" d="M 3 188.5 L 74.5 172.5 L 72 99.5 L 3 188.5 "/>
<path style=" stroke:none;fill-rule:nonzero;fill:rgb(1.9%,74.5%,31.4%);fill-opacity:0.5;" d="M 74 210.5 L 19 188 L 26 239 L 74 210.5 "/>
<path style=" stroke:none;fill-rule:nonzero;fill:rgb(8.1%,85.6%,58%);fill-opacity:0.5;" d="M 123 275 L 173.5 272.5 L 186.5 208 L 123 275 "/>
<path style=" stroke:none;fill-rule:nonzero;fill:rgb(4.8%,96.8%,13.4%);fill-opacity:0.5;" d="M 279 289.5 L 226 303.5 L 240 234.5 L 279 289.5 "/>
<path style=" stroke:none;fill-rule:nonzero;fill:rgb(35.7%,17.2%,40.5%);fill-opacity:0.5;" d="M 326.5 246 L 386 228.5 L 394 284.5 L 326.5 246 "/>
<path style=" stroke:none;fill-rule:nonzero;fill:rgb(42.7%,47.4%,48%);fill-opacity:0.5;" d="M 485 221 L 428.5 218 L 404.5 292.5 L 485 221 "/>
<path style=" stroke:none;fill-rule:nonzero;fill:rgb(10%,40.1%,38.3%);fill-opacity:0.5;" d="M 453 314 L 378 291.5 L 358 342 L 453 314 "/>
<path style=" stroke:none;fill-rule:nonzero;fill:rgb(63.3%,89.6%,75.3%);fill-opacity:0.5;" d="M 384 374 L 326.5 391.5 L 336.5 338 L 384 374 "/>
<path style=" stroke:none;fill-rule:nonzero;fill:rgb(25.2%,37.3%,45%);fill-opacity:0.5;" d="M 206.5 376 L 261.5 392 L 253.5 328 L 206.5 376 "/>
<path style=" stroke:none;fill-rule:nonzero;fill:rgb(64.7%,80.3%,16.1%);fill-opacity:0.5;" d="M 197 305 L 138 287 L 136 352.5 L 197 305 "/>
<path style=" stroke:none;fill-rule:nonzero;fill:rgb(22.4%,19.4%,35.4%);fill-opacity:0.5;" d="M 87.5 305.5 L 31.5 313 L 10.5 366 L 87.5 305.5 "/>
<path style=" stroke:none;fill-rule:nonzero;fill:rgb(88.1%,59.8%,96.6%);fill-opacity:0.5;" d="M 42.5 452.5 L 102.5 460.5 L 81.5 388 L 42.5 452.5 "/>
<path style=" stroke:none;fill-rule:nonzero;fill:rgb(95.1%,99.6%,76.9%);fill-opacity:0.5;" d="M 106 411 L 169.5 401 L 152 459 L 106 411 "/>
<path style=" stroke:none;fill-rule:nonzero;fill:rgb(7.7%,56.6%,8.6%);fill-opacity:0.5;" d="M 215.5 459.5 L 279.5 441 L 298 379.5 L 215.5 459.5 "/>
<path style=" stroke:none;fill-rule:nonzero;fill:rgb(88.2%,80.4%,42.5%);fill-opacity:0.5;" d="M 368 436 L 301 418 L 303.5 480.5 L 368 436 "/>
<path style=" stroke:none;fill-rule:nonzero;fill:rgb(93.8%,30.3%,24%);fill-opacity:0.5;" d="M 415 452.5 L 489 471.5 L 493.5 399 L 415 452.5 "/>
<path style="fill:none;stroke-width:0.002;stroke-linecap:butt;stroke-linejoin:miter;stroke:rgb(22.3%,85.4%,4%);stroke-opacity:1;stroke-miterlimit:10;" d="M 0.819 0.248 L 0.798 0.776 " transform="matrix(500,0,0,500,0,0)"/>
<path style="fill:none;stroke-width:0.002;stroke-linecap:butt;stroke-linejoin:miter;stroke:rgb(27.1%,48.7%,3.2%);stroke-opacity:1;stroke-miterlimit:10;" d="M 0.511 0.112 L 0.481 0.461 " transform="matrix(500,0,0,500,0,0)"/>
<path style="fill:none;stroke-width:0.002;stroke-linecap:butt;stroke-linejoin:miter;stroke:rgb(1%,91.9%,59.9%);stroke-opacity:1;stroke-miterlimit:10;" d="M 0.679 0.052 L 0.606 0.54 " transform="matrix(500,0,0,500,0,0)"/>
<path style="fill:none;stroke-width:0.002;stroke-linecap:butt;stroke-linejoin:miter;stroke:rgb(36.6%,77.9%,31.3%);stroke-opacity:1;stroke-miterlimit:10;" d="M 0.111 0.164 L 0.629 0.221 " transform="matrix(500,0,0,500,0,0)"/>
<path style="fill:none;stroke-width:0.002;stroke-linecap:butt;stroke-linejoin:miter;stroke:rgb(0.1%,85.7%,89.2%);stroke-opacity:1;stroke-miterlimit:10;" d="M 0.92 0.742 L 0.048 0.511 " transform="matrix(500,0,0,500,0,0)"/>
<path style="fill:none;stroke-width:0.002;stroke-linecap:butt;stroke-linejoin:miter;stroke:rgb(25.9%,61.5%,36.3%);stroke-opacity:1;stroke-miterlimit:10;" d="M 0.26 0.898 L 0.674 0.616 " transform="matrix(500,0,0,500,0,0)"/>
<path style="fill:none;stroke-width:0.002;stroke-linecap:butt;stroke-linejoin:miter;stroke:rgb(87%,73.7%,97.6%);stroke-opacity:1;stroke-miterlimit:10;" d="M 0.993 0.743 L 0.041 0.881 " transform="matrix(500,0,0,500,0,0)"/>
<path style="fill:none;stroke-width:0.002;stroke-linecap:butt;stroke-linejoin:miter;stroke:rgb(37.5%,96%,75.7%);stroke-opacity:1;stroke-miterlimit:10;" d="M 0.644 0.27 L 0.725 0.596 " transform="matrix(500,0,0,500,0,0)"/>
<path style="fill:none;stroke-width:0.002;stroke-linecap:butt;stroke-linejoin:miter;stroke:rgb(3.5%,38.9%,76%);stroke-opacity:1;stroke-miterlimit:10;" d="M 0.627 0.378 L 0.971 0.359 " transform="matrix(500,0,0,500,0,0)"/>
<path style="fill:none;stroke-width:0.002;stroke-linecap:butt;stroke-linejoin:miter;stroke:rgb(72.2%,42.5%,78.7%);stroke-opacity:1;stroke-miterlimit:10;" d="M 0.877 0.693 L 0.326 0.749 " transform="matrix(500,0,0,500,0,0)"/>
</g>
</defs>
<g id="surface345">
<use xlink:href="#surface348"/>
</g>
</svg>
