<?xml version="1.0" encoding="UTF-8"?>
<svg xmlns="http://www.w3.org/2000/svg" xmlns:xlink="http://www.w3.org/1999/xlink" width="500pt" height="500pt" viewBox="0 0 500 500" version="1.1">
<defs>
<linearGradient id="linear0" gradientUnits="userSpaceOnUse" x1="0" y1="0.5" x2="1" y2="0.5" gradientTransform="matrix(500,0,0,500,0,0)">
<stop offset="0.4" style="stop-color:rgb(80.8%,79.8%,78.1%);stop-opacity:1;"/>
<stop offset="0.8" style="stop-color:rgb(86.5%,86.6%,93.3%);stop-opacity:1;"/>
</linearGradient>
<clipPath id="clip1">
  <rect x="0" y="0" width="500" height="500"/>
</clipPath>
<g id="surface348" clip-path="url(#clip1)">
<rect x="0" y="0" width="500" height="500" style="fill:url(#linear0);stroke:none;"/>
<path style=" stroke:none;fill-rule:nonzero;fill:rgb(71.6%,11.9%,45.4%);fill-opacity:1;" d="M 46.5 25 C 46.5 36.875 36.875 46.5 25 46.5 C 13.125 46.5 3.5 36.875 3.5 25 C 3.5 13.125 13.125 3.5 25 3.5 C 36.875 3.5 46.5 13.125 46.5 25 "/>
<path style=" stroke:none;fill-rule:nonzero;fill:rgb(51.6%,15.6%,14.9%);fill-opacity:1;" d="M 90 25 C 90 33.285156 83.285156 40 75 40 C 66.714844 40 60 33.285156 60 25 C 60 16.714844 66.714844 10 75 10 C 83.285156 10 90 16.714844 90 25 "/>
<path style=" stroke:none;fill-rule:nonzero;fill:rgb(99.4%,51.1%,54.4%);fill-opacity:1;" d="M 144.5 25 C 144.5 35.769531 135.769531 44.5 125 44.5 C 114.230469 44.5 105.5 35.769531 105.5 25 C 105.5 14.230469 114.230469 5.5 125 5.5 C 135.769531 5.5 144.5 14.230469 144.5 25 "/>
<path style=" stroke:none;fill-rule:nonzero;fill:rgb(10.9%,71.6%,71.7%);fill-opacity:1;" d="M 195.5 25 C 195.5 36.320312 186.320312 45.5 175 45.5 C 163.679688 45.5 154.5 36.320312 154.5 25 C 154.5 13.679688 163.679688 4.5 175 4.5 C 186.320312 4.5 195.5 13.679688 195.5 25 "/>
<path style=" stroke:none;fill-rule:nonzero;fill:rgb(62.9%,12.2%,62.3%);fill-opacity:1;" d="M 245 25 C 245 36.046875 236.046875 45 225 45 C 213.953125 45 205 36.046875 205 25 C 205 13.953125 213.953125 5 225 5 C 236.046875 5 245 13.953125 245 25 "/>
<path style=" stroke:none;fill-rule:nonzero;fill:rgb(5.4%,46%,9.8%);fill-opacity:1;" d="M 282 25 C 282 28.867188 278.867188 32 275 32 C 271.132812 32 268 28.867188 268 25 C 268 21.132812 271.132812 18 275 18 C 278.867188 18 282 21.132812 282 25 "/>
<path style=" stroke:none;fill-rule:nonzero;fill:rgb(92.2%,13.3%,11.3%);fill-opacity:1;" d="M 333.5 25 C 333.5 29.695312 329.695312 33.5 325 33.5 C 320.304688 33.5 316.5 29.695312 316.5 25 C 316.5 20.304688 320.304688 16.5 325 16.5 C 329.695312 16.5 333.5 20.304688 333.5 25 "/>
<path style=" stroke:none;fill-rule:nonzero;fill:rgb(67.2%,65.1%,86.1%);fill-opacity:1;" d="M 397.5 25 C 397.5 37.425781 387.425781 47.5 375 47.5 C 362.574219 47.5 352.5 37.425781 352.5 25 C 352.5 12.574219 362.574219 2.5 375 2.5 C 387.425781 2.5 397.5 12.574219 397.5 25 "/>
<path style=" stroke:none;fill-rule:nonzero;fill:rgb(29.3%,46.5%,23.7%);fill-opacity:1;" d="M 435 25 C 435 30.523438 430.523438 35 425 35 C 419.476562 35 415 30.523438 415 25 C 415 19.476562 419.476562 15 425 15 C 430.523438 15 435 19.476562 435 25 "/>
<path style=" stroke:none;fill-rule:nonzero;fill:rgb(49.3%,78.5%,93.2%);fill-opacity:1;" d="M 489.5 25 C 489.5 33.007812 483.007812 39.5 475 39.5 C 466.992188 39.5 460.5 33.007812 460.5 25 C 460.5 16.992188 466.992188 10.5 475 10.5 C 483.007812 10.5 489.5 16.992188 489.5 25 "/>
<path style=" stroke:none;fill-rule:nonzero;fill:rgb(92.8%,31.6%,15.9%);fill-opacity:1;" d="M 484 75 C 484 79.96875 479.96875 84 475 84 C 470.03125 84 466 79.96875 466 75 C 466 70.03125 470.03125 66 475 66 C 479.96875 66 484 70.03125 484 75 "/>
<path style=" stroke:none;fill-rule:nonzero;fill:rgb(17.7%,83.5%,26.1%);fill-opacity:1;" d="M 449 75 C 449 88.253906 438.253906 99 425 99 C 411.746094 99 401 88.253906 401 75 C 401 61.746094 411.746094 51 425 51 C 438.253906 51 449 61.746094 449 75 "/>
<path style=" stroke:none;fill-rule:nonzero;fill:rgb(43.8%,80.7%,99.7%);fill-opacity:1;" d="M 392.5 75 C 392.5 84.664062 384.664062 92.5 375 92.5 C 365.335938 92.5 357.5 84.664062 357.5 75 C 357.5 65.335938 365.335938 57.5 375 57.5 C 384.664062 57.5 392.5 65.335938 392.5 75 "/>
<path style=" stroke:none;fill-rule:nonzero;fill:rgb(30.3%,27%,29.8%);fill-opacity:1;" d="M 340.5 75 C 340.5 83.558594 333.558594 90.5 325 90.5 C 316.441406 90.5 309.5 83.558594 309.5 75 C 309.5 66.441406 316.441406 59.5 325 59.5 C 333.558594 59.5 340.5 66.441406 340.5 75 "/>
<path style=" stroke:none;fill-rule:nonzero;fill:rgb(76.4%,15.6%,31.8%);fill-opacity:1;" d="M 287.5 75 C 287.5 81.902344 281.902344 87.5 275 87.5 C 268.097656 87.5 262.5 81.902344 262.5 75 C 262.5 68.097656 268.097656 62.5 275 62.5 C 281.902344 62.5 287.5 68.097656 287.5 75 "/>
<path style=" stroke:none;fill-rule:nonzero;fill:rgb(39.7%,24.2%,54.3%);fill-opacity:1;" d="M 235 75 C 235 80.523438 230.523438 85 225 85 C 219.476562 85 215 80.523438 215 75 C 215 69.476562 219.476562 65 225 65 C 230.523438 65 235 69.476562 235 75 "/>
<path style=" stroke:none;fill-rule:nonzero;fill:rgb(38.6%,73.9%,48.3%);fill-opacity:1;" d="M 189 75 C 189 82.730469 182.730469 89 175 89 C 167.269531 89 161 82.730469 161 75 C 161 67.269531 167.269531 61 175 61 C 182.730469 61 189 67.269531 189 75 "/>
<path style=" stroke:none;fill-rule:nonzero;fill:rgb(92%,66.3%,98.8%);fill-opacity:1;" d="M 147.5 75 C 147.5 87.425781 137.425781 97.5 125 97.5 C 112.574219 97.5 102.5 87.425781 102.5 75 C 102.5 62.574219 112.574219 52.5 125 52.5 C 137.425781 52.5 147.5 62.574219 147.5 75 "/>
<path style=" stroke:none;fill-rule:nonzero;fill:rgb(34.8%,70.6%,10.3%);fill-opacity:1;" d="M 84 75 C 84 79.96875 79.96875 84 75 84 C 70.03125 84 66 79.96875 66 75 C 66 70.03125 70.03125 66 75 66 C 79.96875 66 84 70.03125 84 75 "/>
<path style=" stroke:none;fill-rule:nonzero;fill:rgb(41.5%,76.5%,42.9%);fill-opacity:1;" d="M 43.5 75 C 43.5 85.21875 35.21875 93.5 25 93.5 C 14.78125 93.5 6.5 85.21875 6.5 75 C 6.5 64.78125 14.78125 56.5 25 56.5 C 35.21875 56.5 43.5 64.78125 43.5 75 "/>
<path style=" stroke:none;fill-rule:nonzero;fill:rgb(0.7%,4.7%,99.7%);fill-opacity:1;" d="M 31.5 125 C 31.5 128.589844 28.589844 131.5 25 131.5 C 21.410156 131.5 18.5 128.589844 18.5 125 C 18.5 121.410156 21.410156 118.5 25 118.5 C 28.589844 118.5 31.5 121.410156 31.5 125 "/>
<path style=" stroke:none;fill-rule:nonzero;fill:rgb(44.8%,32.4%,14.9%);fill-opacity:1;" d="M 83 125 C 83 129.417969 79.417969 133 75 133 C 70.582031 133 67 129.417969 67 125 C 67 120.582031 70.582031 117 75 117 C 79.417969 117 83 120.582031 83 125 "/>
<path style=" stroke:none;fill-rule:nonzero;fill:rgb(7.1%,23.6%,95.7%);fill-opacity:1;" d="M 141.5 125 C 141.5 134.113281 134.113281 141.5 125 141.5 C 115.886719 141.5 108.5 134.113281 108.5 125 C 108.5 115.886719 115.886719 108.5 125 108.5 C 134.113281 108.5 141.5 115.886719 141.5 125 "/>
<path style=" stroke:none;fill-rule:nonzero;fill:rgb(65.3%,72%,57.3%);fill-opacity:1;" d="M 188.5 125 C 188.5 132.457031 182.457031 138.5 175 138.5 C 167.542969 138.5 161.5 132.457031 161.5 125 C 161.5 117.542969 167.542969 111.5 175 111.5 C 182.457031 111.5 188.5 117.542969 188.5 125 "/>
<path style=" stroke:none;fill-rule:nonzero;fill:rgb(80.3%,88.4%,11.2%);fill-opacity:1;" d="M 232 125 C 232 128.867188 228.867188 132 225 132 C 221.132812 132 218 128.867188 218 125 C 218 121.132812 221.132812 118 225 118 C 228.867188 118 232 121.132812 232 125 "/>
<path style=" stroke:none;fill-rule:nonzero;fill:rgb(78.3%,83%,97.8%);fill-opacity:1;" d="M 299 125 C 299 138.253906 288.253906 149 275 149 C 261.746094 149 251 138.253906 251 125 C 251 111.746094 261.746094 101 275 101 C 288.253906 101 299 111.746094 299 125 "/>
<path style=" stroke:none;fill-rule:nonzero;fill:rgb(64%,19.3%,79.8%);fill-opacity:1;" d="M 348.5 125 C 348.5 137.980469 337.980469 148.5 325 148.5 C 312.019531 148.5 301.5 137.980469 301.5 125 C 301.5 112.019531 312.019531 101.5 325 101.5 C 337.980469 101.5 348.5 112.019531 348.5 125 "/>
<path style=" stroke:none;fill-rule:nonzero;fill:rgb(78.5%,95.4%,16.6%);fill-opacity:1;" d="M 385 125 C 385 130.523438 380.523438 135 375 135 C 369.476562 135 365 130.523438 365 125 C 365 119.476562 369.476562 115 375 115 C 380.523438 115 385 119.476562 385 125 "/>
<path style=" stroke:none;fill-rule:nonzero;fill:rgb(50.9%,78.5%,3.9%);fill-opacity:1;" d="M 436 125 C 436 131.074219 431.074219 136 425 136 C 418.925781 136 414 131.074219 414 125 C 414 118.925781 418.925781 114 425 114 C 431.074219 114 436 118.925781 436 125 "/>
<path style=" stroke:none;fill-rule:nonzero;fill:rgb(65.3%,76%,49%);fill-opacity:1;" d="M 496 125 C 496 136.597656 486.597656 146 475 146 C 463.402344 146 454 136.597656 454 125 C 454 113.402344 463.402344 104 475 104 C 486.597656 104 496 113.402344 496 125 "/>
<path style=" stroke:none;fill-rule:nonzero;fill:rgb(76.2%,3.3%,20.2%);fill-opacity:1;" d="M 481.5 175 C 481.5 178.589844 478.589844 181.5 475 181.5 C 471.410156 181.5 468.5 178.589844 468.5 175 C 468.5 171.410156 471.410156 168.5 475 168.5 C 478.589844 168.5 481.5 171.410156 481.5 175 "/>
<path style=" stroke:none;fill-rule:nonzero;fill:rgb(38.1%,74.7%,14.1%);fill-opacity:1;" d="M 433 175 C 433 179.417969 429.417969 183 425 183 C 420.582031 183 417 179.417969 417 175 C 417 170.582031 420.582031 167 425 167 C 429.417969 167 433 170.582031 433 175 "/>
<path style=" stroke:none;fill-rule:nonzero;fill:rgb(55.2%,41.2%,29.7%);fill-opacity:1;" d="M 391 175 C 391 183.835938 383.835938 191 375 191 C 366.164062 191 359 183.835938 359 175 C 359 166.164062 366.164062 159 375 159 C 383.835938 159 391 166.164062 391 175 "/>
<path style=" stroke:none;fill-rule:nonzero;fill:rgb(65%,42.3%,25.9%);fill-opacity:1;" d="M 344 175 C 344 185.492188 335.492188 194 325 194 C 314.507812 194 306 185.492188 306 175 C 306 164.507812 314.507812 156 325 156 C 335.492188 156 344 164.507812 344 175 "/>
<path style=" stroke:none;fill-rule:nonzero;fill:rgb(26.5%,71.6%,97.5%);fill-opacity:1;" d="M 296.5 175 C 296.5 186.875 286.875 196.5 275 196.5 C 263.125 196.5 253.5 186.875 253.5 175 C 253.5 163.125 263.125 153.5 275 153.5 C 286.875 153.5 296.5 163.125 296.5 175 "/>
<path style=" stroke:none;fill-rule:nonzero;fill:rgb(28.2%,81.3%,39.3%);fill-opacity:1;" d="M 238 175 C 238 182.179688 232.179688 188 225 188 C 217.820312 188 212 182.179688 212 175 C 212 167.820312 217.820312 162 225 162 C 232.179688 162 238 167.820312 238 175 "/>
<path style=" stroke:none;fill-rule:nonzero;fill:rgb(9.1%,32.9%,36.6%);fill-opacity:1;" d="M 181 175 C 181 178.3125 178.3125 181 175 181 C 171.6875 181 169 178.3125 169 175 C 169 171.6875 171.6875 169 175 169 C 178.3125 169 181 171.6875 181 175 "/>
<path style=" stroke:none;fill-rule:nonzero;fill:rgb(3.9%,29.8%,21.7%);fill-opacity:1;" d="M 141 175 C 141 183.835938 133.835938 191 125 191 C 116.164062 191 109 183.835938 109 175 C 109 166.164062 116.164062 159 125 159 C 133.835938 159 141 166.164062 141 175 "/>
<path style=" stroke:none;fill-rule:nonzero;fill:rgb(84%,65.1%,65.2%);fill-opacity:1;" d="M 83.5 175 C 83.5 179.695312 79.695312 183.5 75 183.5 C 70.304688 183.5 66.5 179.695312 66.5 175 C 66.5 170.304688 70.304688 166.5 75 166.5 C 79.695312 166.5 83.5 170.304688 83.5 175 "/>
<path style=" stroke:none;fill-rule:nonzero;fill:rgb(87.2%,54.6%,68.4%);fill-opacity:1;" d="M 41 175 C 41 183.835938 33.835938 191 25 191 C 16.164062 191 9 183.835938 9 175 C 9 166.164062 16.164062 159 25 159 C 33.835938 159 41 166.164062 41 175 "/>
<path style=" stroke:none;fill-rule:nonzero;fill:rgb(8.1%,44.8%,94.9%);fill-opacity:1;" d="M 36.5 225 C 36.5 231.351562 31.351562 236.5 25 236.5 C 18.648438 236.5 13.5 231.351562 13.5 225 C 13.5 218.648438 18.648438 213.5 25 213.5 C 31.351562 213.5 36.5 218.648438 36.5 225 "/>
<path style=" stroke:none;fill-rule:nonzero;fill:rgb(38.5%,75.5%,92.4%);fill-opacity:1;" d="M 99.5 225 C 99.5 238.53125 88.53125 249.5 75 249.5 C 61.46875 249.5 50.5 238.53125 50.5 225 C 50.5 211.46875 61.46875 200.5 75 200.5 C 88.53125 200.5 99.5 211.46875 99.5 225 "/>
<path style=" stroke:none;fill-rule:nonzero;fill:rgb(14.4%,17.1%,49.3%);fill-opacity:1;" d="M 130 225 C 130 231.667969 120 231.667969 120 225 C 120 218.332031 130 218.332031 130 225 "/>
<path style=" stroke:none;fill-rule:nonzero;fill:rgb(68.3%,82%,29.3%);fill-opacity:1;" d="M 180.5 225 C 180.5 228.039062 178.039062 230.5 175 230.5 C 171.960938 230.5 169.5 228.039062 169.5 225 C 169.5 221.960938 171.960938 219.5 175 219.5 C 178.039062 219.5 180.5 221.960938 180.5 225 "/>
<path style=" stroke:none;fill-rule:nonzero;fill:rgb(92.7%,50.9%,74.4%);fill-opacity:1;" d="M 240 225 C 240 233.285156 233.285156 240 225 240 C 216.714844 240 210 233.285156 210 225 C 210 216.714844 216.714844 210 225 210 C 233.285156 210 240 216.714844 240 225 "/>
<path style=" stroke:none;fill-rule:nonzero;fill:rgb(54.8%,17.7%,40.8%);fill-opacity:1;" d="M 299.5 225 C 299.5 238.53125 288.53125 249.5 275 249.5 C 261.46875 249.5 250.5 238.53125 250.5 225 C 250.5 211.46875 261.46875 200.5 275 200.5 C 288.53125 200.5 299.5 211.46875 299.5 225 "/>
<path style=" stroke:none;fill-rule:nonzero;fill:rgb(67.8%,35.7%,60.7%);fill-opacity:1;" d="M 334 225 C 334 229.96875 329.96875 234 325 234 C 320.03125 234 316 229.96875 316 225 C 316 220.03125 320.03125 216 325 216 C 329.96875 216 334 220.03125 334 225 "/>
<path style=" stroke:none;fill-rule:nonzero;fill:rgb(40.2%,20.4%,17.5%);fill-opacity:1;" d="M 383 225 C 383 229.417969 379.417969 233 375 233 C 370.582031 233 367 229.417969 367 225 C 367 220.582031 370.582031 217 375 217 C 379.417969 217 383 220.582031 383 225 "/>
<path style=" stroke:none;fill-rule:nonzero;fill:rgb(46.9%,7.4%,57.5%);fill-opacity:1;" d="M 431.5 225 C 431.5 228.589844 428.589844 231.5 425 231.5 C 421.410156 231.5 418.5 228.589844 418.5 225 C 418.5 221.410156 421.410156 218.5 425 218.5 C 428.589844 218.5 431.5 221.410156 431.5 225 "/>
<path style=" stroke:none;fill-rule:nonzero;fill:rgb(30.5%,67.2%,14%);fill-opacity:1;" d="M 482 225 C 482 228.867188 478.867188 232 475 232 C 471.132812 232 468 228.867188 468 225 C 468 221.132812 471.132812 218 475 218 C 478.867188 218 482 221.132812 482 225 "/>
<path style=" stroke:none;fill-rule:nonzero;fill:rgb(79.4%,6.1%,10.7%);fill-opacity:1;" d="M 484 275 C 484 279.96875 479.96875 284 475 284 C 470.03125 284 466 279.96875 466 275 C 466 270.03125 470.03125 266 475 266 C 479.96875 266 484 270.03125 484 275 "/>
<path style=" stroke:none;fill-rule:nonzero;fill:rgb(13.5%,40.1%,75%);fill-opacity:1;" d="M 448.5 275 C 448.5 287.980469 437.980469 298.5 425 298.5 C 412.019531 298.5 401.5 287.980469 401.5 275 C 401.5 262.019531 412.019531 251.5 425 251.5 C 437.980469 251.5 448.5 262.019531 448.5 275 "/>
<path style=" stroke:none;fill-rule:nonzero;fill:rgb(78.7%,79.3%,80.4%);fill-opacity:1;" d="M 391.5 275 C 391.5 284.113281 384.113281 291.5 375 291.5 C 365.886719 291.5 358.5 284.113281 358.5 275 C 358.5 265.886719 365.886719 258.5 375 258.5 C 384.113281 258.5 391.5 265.886719 391.5 275 "/>
<path style=" stroke:none;fill-rule:nonzero;fill:rgb(47.6%,90.8%,67.7%);fill-opacity:1;" d="M 330.5 275 C 330.5 278.039062 328.039062 280.5 325 280.5 C 321.960938 280.5 319.5 278.039062 319.5 275 C 319.5 271.960938 321.960938 269.5 325 269.5 C 328.039062 269.5 330.5 271.960938 330.5 275 "/>
<path style=" stroke:none;fill-rule:nonzero;fill:rgb(1.2%,71.2%,60.2%);fill-opacity:1;" d="M 298 275 C 298 287.703125 287.703125 298 275 298 C 262.296875 298 252 287.703125 252 275 C 252 262.296875 262.296875 252 275 252 C 287.703125 252 298 262.296875 298 275 "/>
<path style=" stroke:none;fill-rule:nonzero;fill:rgb(96.1%,84.7%,26.9%);fill-opacity:1;" d="M 232.5 275 C 232.5 279.140625 229.140625 282.5 225 282.5 C 220.859375 282.5 217.5 279.140625 217.5 275 C 217.5 270.859375 220.859375 267.5 225 267.5 C 229.140625 267.5 232.5 270.859375 232.5 275 "/>
<path style=" stroke:none;fill-rule:nonzero;fill:rgb(62.7%,31.9%,26.7%);fill-opacity:1;" d="M 192.5 275 C 192.5 284.664062 184.664062 292.5 175 292.5 C 165.335938 292.5 157.5 284.664062 157.5 275 C 157.5 265.335938 165.335938 257.5 175 257.5 C 184.664062 257.5 192.5 265.335938 192.5 275 "/>
<path style=" stroke:none;fill-rule:nonzero;fill:rgb(96.2%,48.1%,54%);fill-opacity:1;" d="M 148 275 C 148 287.703125 137.703125 298 125 298 C 112.296875 298 102 287.703125 102 275 C 102 262.296875 112.296875 252 125 252 C 137.703125 252 148 262.296875 148 275 "/>
<path style=" stroke:none;fill-rule:nonzero;fill:rgb(61.3%,72.8%,25.3%);fill-opacity:1;" d="M 97.5 275 C 97.5 287.425781 87.425781 297.5 75 297.5 C 62.574219 297.5 52.5 287.425781 52.5 275 C 52.5 262.574219 62.574219 252.5 75 252.5 C 87.425781 252.5 97.5 262.574219 97.5 275 "/>
<path style=" stroke:none;fill-rule:nonzero;fill:rgb(33.5%,69.6%,0.3%);fill-opacity:1;" d="M 37.5 275 C 37.5 281.902344 31.902344 287.5 25 287.5 C 18.097656 287.5 12.5 281.902344 12.5 275 C 12.5 268.097656 18.097656 262.5 25 262.5 C 31.902344 262.5 37.5 268.097656 37.5 275 "/>
<path style=" stroke:none;fill-rule:nonzero;fill:rgb(27.4%,68.9%,74.3%);fill-opacity:1;" d="M 48 325 C 48 337.703125 37.703125 348 25 348 C 12.296875 348 2 337.703125 2 325 C 2 312.296875 12.296875 302 25 302 C 37.703125 302 48 312.296875 48 325 "/>
<path style=" stroke:none;fill-rule:nonzero;fill:rgb(36.6%,15%,15.7%);fill-opacity:1;" d="M 100 325 C 100 338.808594 88.808594 350 75 350 C 61.191406 350 50 338.808594 50 325 C 50 311.191406 61.191406 300 75 300 C 88.808594 300 100 311.191406 100 325 "/>
<path style=" stroke:none;fill-rule:nonzero;fill:rgb(51.5%,58.8%,85.7%);fill-opacity:1;" d="M 131 325 C 131 328.3125 128.3125 331 125 331 C 121.6875 331 119 328.3125 119 325 C 119 321.6875 121.6875 319 125 319 C 128.3125 319 131 321.6875 131 325 "/>
<path style=" stroke:none;fill-rule:nonzero;fill:rgb(96.4%,14.3%,83.1%);fill-opacity:1;" d="M 182 325 C 182 328.867188 178.867188 332 175 332 C 171.132812 332 168 328.867188 168 325 C 168 321.132812 171.132812 318 175 318 C 178.867188 318 182 321.132812 182 325 "/>
<path style=" stroke:none;fill-rule:nonzero;fill:rgb(41.6%,21.7%,91.4%);fill-opacity:1;" d="M 233 325 C 233 329.417969 229.417969 333 225 333 C 220.582031 333 217 329.417969 217 325 C 217 320.582031 220.582031 317 225 317 C 229.417969 317 233 320.582031 233 325 "/>
<path style=" stroke:none;fill-rule:nonzero;fill:rgb(60.4%,95%,93.1%);fill-opacity:1;" d="M 291.5 325 C 291.5 334.113281 284.113281 341.5 275 341.5 C 265.886719 341.5 258.5 334.113281 258.5 325 C 258.5 315.886719 265.886719 308.5 275 308.5 C 284.113281 308.5 291.5 315.886719 291.5 325 "/>
<path style=" stroke:none;fill-rule:nonzero;fill:rgb(58.3%,37.7%,93.5%);fill-opacity:1;" d="M 343 325 C 343 334.941406 334.941406 343 325 343 C 315.058594 343 307 334.941406 307 325 C 307 315.058594 315.058594 307 325 307 C 334.941406 307 343 315.058594 343 325 "/>
<path style=" stroke:none;fill-rule:nonzero;fill:rgb(86.4%,37.5%,73.7%);fill-opacity:1;" d="M 396 325 C 396 336.597656 386.597656 346 375 346 C 363.402344 346 354 336.597656 354 325 C 354 313.402344 363.402344 304 375 304 C 386.597656 304 396 313.402344 396 325 "/>
<path style=" stroke:none;fill-rule:nonzero;fill:rgb(75%,88.1%,28.6%);fill-opacity:1;" d="M 437 325 C 437 331.628906 431.628906 337 425 337 C 418.371094 337 413 331.628906 413 325 C 413 318.371094 418.371094 313 425 313 C 431.628906 313 437 318.371094 437 325 "/>
<path style=" stroke:none;fill-rule:nonzero;fill:rgb(33.4%,42.8%,69.1%);fill-opacity:1;" d="M 485 325 C 485 330.523438 480.523438 335 475 335 C 469.476562 335 465 330.523438 465 325 C 465 319.476562 469.476562 315 475 315 C 480.523438 315 485 319.476562 485 325 "/>
<path style=" stroke:none;fill-rule:nonzero;fill:rgb(19.8%,77.3%,58.9%);fill-opacity:1;" d="M 483.5 375 C 483.5 379.695312 479.695312 383.5 475 383.5 C 470.304688 383.5 466.5 379.695312 466.5 375 C 466.5 370.304688 470.304688 366.5 475 366.5 C 479.695312 366.5 483.5 370.304688 483.5 375 "/>
<path style=" stroke:none;fill-rule:nonzero;fill:rgb(44.1%,38%,67%);fill-opacity:1;" d="M 440 375 C 440 383.285156 433.285156 390 425 390 C 416.714844 390 410 383.285156 410 375 C 410 366.714844 416.714844 360 425 360 C 433.285156 360 440 366.714844 440 375 "/>
<path style=" stroke:none;fill-rule:nonzero;fill:rgb(49.1%,5.2%,63.1%);fill-opacity:1;" d="M 396 375 C 396 386.597656 386.597656 396 375 396 C 363.402344 396 354 386.597656 354 375 C 354 363.402344 363.402344 354 375 354 C 386.597656 354 396 363.402344 396 375 "/>
<path style=" stroke:none;fill-rule:nonzero;fill:rgb(37.8%,13.9%,78.5%);fill-opacity:1;" d="M 333.5 375 C 333.5 379.695312 329.695312 383.5 325 383.5 C 320.304688 383.5 316.5 379.695312 316.5 375 C 316.5 370.304688 320.304688 366.5 325 366.5 C 329.695312 366.5 333.5 370.304688 333.5 375 "/>
<path style=" stroke:none;fill-rule:nonzero;fill:rgb(2.3%,86%,49.3%);fill-opacity:1;" d="M 281.5 375 C 281.5 378.589844 278.589844 381.5 275 381.5 C 271.410156 381.5 268.5 378.589844 268.5 375 C 268.5 371.410156 271.410156 368.5 275 368.5 C 278.589844 368.5 281.5 371.410156 281.5 375 "/>
<path style=" stroke:none;fill-rule:nonzero;fill:rgb(38.8%,46.2%,70%);fill-opacity:1;" d="M 240 375 C 240 383.285156 233.285156 390 225 390 C 216.714844 390 210 383.285156 210 375 C 210 366.714844 216.714844 360 225 360 C 233.285156 360 240 366.714844 240 375 "/>
<path style=" stroke:none;fill-rule:nonzero;fill:rgb(8.6%,77.9%,97.7%);fill-opacity:1;" d="M 187.5 375 C 187.5 381.902344 181.902344 387.5 175 387.5 C 168.097656 387.5 162.5 381.902344 162.5 375 C 162.5 368.097656 168.097656 362.5 175 362.5 C 181.902344 362.5 187.5 368.097656 187.5 375 "/>
<path style=" stroke:none;fill-rule:nonzero;fill:rgb(21.2%,1.6%,46.4%);fill-opacity:1;" d="M 136.5 375 C 136.5 381.351562 131.351562 386.5 125 386.5 C 118.648438 386.5 113.5 381.351562 113.5 375 C 113.5 368.648438 118.648438 363.5 125 363.5 C 131.351562 363.5 136.5 368.648438 136.5 375 "/>
<path style=" stroke:none;fill-rule:nonzero;fill:rgb(75%,86.3%,15.3%);fill-opacity:1;" d="M 97.5 375 C 97.5 387.425781 87.425781 397.5 75 397.5 C 62.574219 397.5 52.5 387.425781 52.5 375 C 52.5 362.574219 62.574219 352.5 75 352.5 C 87.425781 352.5 97.5 362.574219 97.5 375 "/>
<path style=" stroke:none;fill-rule:nonzero;fill:rgb(97.7%,58.1%,17.3%);fill-opacity:1;" d="M 49.5 375 C 49.5 388.53125 38.53125 399.5 25 399.5 C 11.46875 399.5 0.5 388.53125 0.5 375 C 0.5 361.46875 11.46875 350.5 25 350.5 C 38.53125 350.5 49.5 361.46875 49.5 375 "/>
<path style=" stroke:none;fill-rule:nonzero;fill:rgb(74.4%,99%,6.3%);fill-opacity:1;" d="M 41.5 425 C 41.5 434.113281 34.113281 441.5 25 441.5 C 15.886719 441.5 8.5 434.113281 8.5 425 C 8.5 415.886719 15.886719 408.5 25 408.5 C 34.113281 408.5 41.5 415.886719 41.5 425 "/>
<path style=" stroke:none;fill-rule:nonzero;fill:rgb(59.8%,53.1%,99.2%);fill-opacity:1;" d="M 98 425 C 98 437.703125 87.703125 448 75 448 C 62.296875 448 52 437.703125 52 425 C 52 412.296875 62.296875 402 75 402 C 87.703125 402 98 412.296875 98 425 "/>
<path style=" stroke:none;fill-rule:nonzero;fill:rgb(1.6%,6.4%,77.6%);fill-opacity:1;" d="M 144.5 425 C 144.5 435.769531 135.769531 444.5 125 444.5 C 114.230469 444.5 105.5 435.769531 105.5 425 C 105.5 414.230469 114.230469 405.5 125 405.5 C 135.769531 405.5 144.5 414.230469 144.5 425 "/>
<path style=" stroke:none;fill-rule:nonzero;fill:rgb(18.7%,13.7%,25.4%);fill-opacity:1;" d="M 199 425 C 199 438.253906 188.253906 449 175 449 C 161.746094 449 151 438.253906 151 425 C 151 411.746094 161.746094 401 175 401 C 188.253906 401 199 411.746094 199 425 "/>
<path style=" stroke:none;fill-rule:nonzero;fill:rgb(87.7%,20%,30.7%);fill-opacity:1;" d="M 242 425 C 242 434.390625 234.390625 442 225 442 C 215.609375 442 208 434.390625 208 425 C 208 415.609375 215.609375 408 225 408 C 234.390625 408 242 415.609375 242 425 "/>
<path style=" stroke:none;fill-rule:nonzero;fill:rgb(17%,98.7%,79%);fill-opacity:1;" d="M 292 425 C 292 434.390625 284.390625 442 275 442 C 265.609375 442 258 434.390625 258 425 C 258 415.609375 265.609375 408 275 408 C 284.390625 408 292 415.609375 292 425 "/>
<path style=" stroke:none;fill-rule:nonzero;fill:rgb(6.9%,97.4%,85.3%);fill-opacity:1;" d="M 334 425 C 334 429.96875 329.96875 434 325 434 C 320.03125 434 316 429.96875 316 425 C 316 420.03125 320.03125 416 325 416 C 329.96875 416 334 420.03125 334 425 "/>
<path style=" stroke:none;fill-rule:nonzero;fill:rgb(16.2%,22.4%,93.9%);fill-opacity:1;" d="M 380.5 425 C 380.5 428.039062 378.039062 430.5 375 430.5 C 371.960938 430.5 369.5 428.039062 369.5 425 C 369.5 421.960938 371.960938 419.5 375 419.5 C 378.039062 419.5 380.5 421.960938 380.5 425 "/>
<path style=" stroke:none;fill-rule:nonzero;fill:rgb(54.3%,36.3%,92.1%);fill-opacity:1;" d="M 432.5 425 C 432.5 429.140625 429.140625 432.5 425 432.5 C 420.859375 432.5 417.5 429.140625 417.5 425 C 417.5 420.859375 420.859375 417.5 425 417.5 C 429.140625 417.5 432.5 420.859375 432.5 425 "/>
<path style=" stroke:none;fill-rule:nonzero;fill:rgb(8%,2%,96.1%);fill-opacity:1;" d="M 485.5 425 C 485.5 430.800781 480.800781 435.5 475 435.5 C 469.199219 435.5 464.5 430.800781 464.5 425 C 464.5 419.199219 469.199219 414.5 475 414.5 C 480.800781 414.5 485.5 419.199219 485.5 425 "/>
<path style=" stroke:none;fill-rule:nonzero;fill:rgb(99%,36.2%,80.1%);fill-opacity:1;" d="M 492 475 C 492 484.390625 484.390625 492 475 492 C 465.609375 492 458 484.390625 458 475 C 458 465.609375 465.609375 458 475 458 C 484.390625 458 492 465.609375 492 475 "/>
<path style=" stroke:none;fill-rule:nonzero;fill:rgb(67.6%,98.3%,79.8%);fill-opacity:1;" d="M 446 475 C 446 486.597656 436.597656 496 425 496 C 413.402344 496 404 486.597656 404 475 C 404 463.402344 413.402344 454 425 454 C 436.597656 454 446 463.402344 446 475 "/>
<path style=" stroke:none;fill-rule:nonzero;fill:rgb(89.9%,46.5%,50.9%);fill-opacity:1;" d="M 395 475 C 395 486.046875 386.046875 495 375 495 C 363.953125 495 355 486.046875 355 475 C 355 463.953125 363.953125 455 375 455 C 386.046875 455 395 463.953125 395 475 "/>
<path style=" stroke:none;fill-rule:nonzero;fill:rgb(15.6%,83.3%,54.3%);fill-opacity:1;" d="M 337.5 475 C 337.5 481.902344 331.902344 487.5 325 487.5 C 318.097656 487.5 312.5 481.902344 312.5 475 C 312.5 468.097656 318.097656 462.5 325 462.5 C 331.902344 462.5 337.5 468.097656 337.5 475 "/>
<path style=" stroke:none;fill-rule:nonzero;fill:rgb(35.1%,2.4%,63%);fill-opacity:1;" d="M 294 475 C 294 485.492188 285.492188 494 275 494 C 264.507812 494 256 485.492188 256 475 C 256 464.507812 264.507812 456 275 456 C 285.492188 456 294 464.507812 294 475 "/>
<path style=" stroke:none;fill-rule:nonzero;fill:rgb(94.3%,85.8%,14.2%);fill-opacity:1;" d="M 242 475 C 242 484.390625 234.390625 492 225 492 C 215.609375 492 208 484.390625 208 475 C 208 465.609375 215.609375 458 225 458 C 234.390625 458 242 465.609375 242 475 "/>
<path style=" stroke:none;fill-rule:nonzero;fill:rgb(29.2%,52.2%,20.3%);fill-opacity:1;" d="M 190 475 C 190 483.285156 183.285156 490 175 490 C 166.714844 490 160 483.285156 160 475 C 160 466.714844 166.714844 460 175 460 C 183.285156 460 190 466.714844 190 475 "/>
<path style=" stroke:none;fill-rule:nonzero;fill:rgb(24.4%,16.5%,1.8%);fill-opacity:1;" d="M 140 475 C 140 483.285156 133.285156 490 125 490 C 116.714844 490 110 483.285156 110 475 C 110 466.714844 116.714844 460 125 460 C 133.285156 460 140 466.714844 140 475 "/>
<path style=" stroke:none;fill-rule:nonzero;fill:rgb(79.1%,99.1%,99.1%);fill-opacity:1;" d="M 95.5 475 C 95.5 486.320312 86.320312 495.5 75 495.5 C 63.679688 495.5 54.5 486.320312 54.5 475 C 54.5 463.679688 63.679688 454.5 75 454.5 C 86.320312 454.5 95.5 463.679688 95.5 475 "/>
<path style=" stroke:none;fill-rule:nonzero;fill:rgb(65.3%,36.2%,53.2%);fill-opacity:1;" d="M 44.5 475 C 44.5 485.769531 35.769531 494.5 25 494.5 C 14.230469 494.5 5.5 485.769531 5.5 475 C 5.5 464.230469 14.230469 455.5 25 455.5 C 35.769531 455.5 44.5 464.230469 44.5 475 "/>
<path style="fill:none;stroke-width:0.01;stroke-linecap:butt;stroke-linejoin:miter;stroke:rgb(94.2%,76.6%,45.5%);stroke-opacity:1;stroke-miterlimit:10;" d="M 0.05 0.05 C 0.15 0.05 0.25 0.05 0.35 0.05 " transform="matrix(500,0,0,500,0,0)"/>
<path style="fill:none;stroke-width:0.01;stroke-linecap:butt;stroke-linejoin:miter;stroke:rgb(47.3%,98.6%,19%);stroke-opacity:1;stroke-miterlimit:10;" d="M 0.35 0.05 C 0.45 0.05 0.55 0.05 0.65 0.05 " transform="matrix(500,0,0,500,0,0)"/>
<path style="fill:none;stroke-width:0.01;stroke-linecap:butt;stroke-linejoin:miter;stroke:rgb(65.7%,19.2%,28.6%);stroke-opacity:1;stroke-miterlimit:10;" d="M 0.65 0.05 C 0.75 0.05 0.85 0.05 0.95 0.05 " transform="matrix(500,0,0,500,0,0)"/>
<path style="fill:none;stroke-width:0.01;stroke-linecap:butt;stroke-linejoin:miter;stroke:rgb(22.1%,49%,31.4%);stroke-opacity:1;stroke-miterlimit:10;" d="M 0.95 0.05 C 0.95 0.15 0.85 0.15 0.75 0.15 " transform="matrix(500,0,0,500,0,0)"/>
<path style="fill:none;stroke-width:0.01;stroke-linecap:butt;stroke-linejoin:miter;stroke:rgb(98.4%,84.3%,2.8%);stroke-opacity:1;stroke-miterlimit:10;" d="M 0.75 0.15 C 0.65 0.15 0.55 0.15 0.45 0.15 " transform="matrix(500,0,0,500,0,0)"/>
<path style="fill:none;stroke-width:0.01;stroke-linecap:butt;stroke-linejoin:miter;stroke:rgb(43.8%,28.5%,72.4%);stroke-opacity:1;stroke-miterlimit:10;" d="M 0.45 0.15 C 0.35 0.15 0.25 0.15 0.15 0.15 " transform="matrix(500,0,0,500,0,0)"/>
<path style="fill:none;stroke-width:0.01;stroke-linecap:butt;stroke-linejoin:miter;stroke:rgb(74.5%,43.3%,69.3%);stroke-opacity:1;stroke-miterlimit:10;" d="M 0.15 0.15 C 0.05 0.15 0.05 0.25 0.15 0.25 " transform="matrix(500,0,0,500,0,0)"/>
<path style="fill:none;stroke-width:0.01;stroke-linecap:butt;stroke-linejoin:miter;stroke:rgb(86.4%,56.2%,74.4%);stroke-opacity:1;stroke-miterlimit:10;" d="M 0.15 0.25 C 0.25 0.25 0.35 0.25 0.45 0.25 " transform="matrix(500,0,0,500,0,0)"/>
<path style="fill:none;stroke-width:0.01;stroke-linecap:butt;stroke-linejoin:miter;stroke:rgb(88.4%,29.7%,48.7%);stroke-opacity:1;stroke-miterlimit:10;" d="M 0.45 0.25 C 0.55 0.25 0.65 0.25 0.75 0.25 " transform="matrix(500,0,0,500,0,0)"/>
<path style="fill:none;stroke-width:0.01;stroke-linecap:butt;stroke-linejoin:miter;stroke:rgb(29.4%,87.5%,40.9%);stroke-opacity:1;stroke-miterlimit:10;" d="M 0.75 0.25 C 0.85 0.25 0.95 0.25 0.95 0.35 " transform="matrix(500,0,0,500,0,0)"/>
<path style="fill:none;stroke-width:0.01;stroke-linecap:butt;stroke-linejoin:miter;stroke:rgb(85.5%,3.1%,47.9%);stroke-opacity:1;stroke-miterlimit:10;" d="M 0.95 0.35 C 0.85 0.35 0.75 0.35 0.65 0.35 " transform="matrix(500,0,0,500,0,0)"/>
<path style="fill:none;stroke-width:0.01;stroke-linecap:butt;stroke-linejoin:miter;stroke:rgb(68.9%,2.8%,26.9%);stroke-opacity:1;stroke-miterlimit:10;" d="M 0.65 0.35 C 0.55 0.35 0.45 0.35 0.35 0.35 " transform="matrix(500,0,0,500,0,0)"/>
<path style="fill:none;stroke-width:0.01;stroke-linecap:butt;stroke-linejoin:miter;stroke:rgb(29.8%,64.9%,54.7%);stroke-opacity:1;stroke-miterlimit:10;" d="M 0.35 0.35 C 0.25 0.35 0.15 0.35 0.05 0.35 " transform="matrix(500,0,0,500,0,0)"/>
<path style="fill:none;stroke-width:0.01;stroke-linecap:butt;stroke-linejoin:miter;stroke:rgb(55.9%,2.6%,55%);stroke-opacity:1;stroke-miterlimit:10;" d="M 0.05 0.35 C 0.05 0.45 0.15 0.45 0.25 0.45 " transform="matrix(500,0,0,500,0,0)"/>
<path style="fill:none;stroke-width:0.01;stroke-linecap:butt;stroke-linejoin:miter;stroke:rgb(3.2%,56%,62.1%);stroke-opacity:1;stroke-miterlimit:10;" d="M 0.25 0.45 C 0.35 0.45 0.45 0.45 0.55 0.45 " transform="matrix(500,0,0,500,0,0)"/>
<path style="fill:none;stroke-width:0.01;stroke-linecap:butt;stroke-linejoin:miter;stroke:rgb(57.7%,27%,17.4%);stroke-opacity:1;stroke-miterlimit:10;" d="M 0.55 0.45 C 0.65 0.45 0.75 0.45 0.85 0.45 " transform="matrix(500,0,0,500,0,0)"/>
<path style="fill:none;stroke-width:0.01;stroke-linecap:butt;stroke-linejoin:miter;stroke:rgb(4.4%,21.6%,97.2%);stroke-opacity:1;stroke-miterlimit:10;" d="M 0.85 0.45 C 0.95 0.45 0.95 0.55 0.85 0.55 " transform="matrix(500,0,0,500,0,0)"/>
<path style="fill:none;stroke-width:0.01;stroke-linecap:butt;stroke-linejoin:miter;stroke:rgb(77.9%,44.1%,65.3%);stroke-opacity:1;stroke-miterlimit:10;" d="M 0.85 0.55 C 0.75 0.55 0.65 0.55 0.55 0.55 " transform="matrix(500,0,0,500,0,0)"/>
<path style="fill:none;stroke-width:0.01;stroke-linecap:butt;stroke-linejoin:miter;stroke:rgb(22.3%,63.6%,90.4%);stroke-opacity:1;stroke-miterlimit:10;" d="M 0.55 0.55 C 0.45 0.55 0.35 0.55 0.25 0.55 " transform="matrix(500,0,0,500,0,0)"/>
<path style="fill:none;stroke-width:0.01;stroke-linecap:butt;stroke-linejoin:miter;stroke:rgb(63.4%,48.8%,11.4%);stroke-opacity:1;stroke-miterlimit:10;" d="M 0.25 0.55 C 0.15 0.55 0.05 0.55 0.05 0.65 " transform="matrix(500,0,0,500,0,0)"/>
<path style="fill:none;stroke-width:0.01;stroke-linecap:butt;stroke-linejoin:miter;stroke:rgb(15.8%,75.2%,57.6%);stroke-opacity:1;stroke-miterlimit:10;" d="M 0.05 0.65 C 0.15 0.65 0.25 0.65 0.35 0.65 " transform="matrix(500,0,0,500,0,0)"/>
<path style="fill:none;stroke-width:0.01;stroke-linecap:butt;stroke-linejoin:miter;stroke:rgb(95.6%,80.1%,80.8%);stroke-opacity:1;stroke-miterlimit:10;" d="M 0.35 0.65 C 0.45 0.65 0.55 0.65 0.65 0.65 " transform="matrix(500,0,0,500,0,0)"/>
<path style="fill:none;stroke-width:0.01;stroke-linecap:butt;stroke-linejoin:miter;stroke:rgb(44.1%,58.9%,78.7%);stroke-opacity:1;stroke-miterlimit:10;" d="M 0.65 0.65 C 0.75 0.65 0.85 0.65 0.95 0.65 " transform="matrix(500,0,0,500,0,0)"/>
<path style="fill:none;stroke-width:0.01;stroke-linecap:butt;stroke-linejoin:miter;stroke:rgb(75.7%,33.6%,62.5%);stroke-opacity:1;stroke-miterlimit:10;" d="M 0.95 0.65 C 0.95 0.75 0.85 0.75 0.75 0.75 " transform="matrix(500,0,0,500,0,0)"/>
<path style="fill:none;stroke-width:0.01;stroke-linecap:butt;stroke-linejoin:miter;stroke:rgb(86.5%,47.2%,26.8%);stroke-opacity:1;stroke-miterlimit:10;" d="M 0.75 0.75 C 0.65 0.75 0.55 0.75 0.45 0.75 " transform="matrix(500,0,0,500,0,0)"/>
<path style="fill:none;stroke-width:0.01;stroke-linecap:butt;stroke-linejoin:miter;stroke:rgb(80.6%,83.9%,22.6%);stroke-opacity:1;stroke-miterlimit:10;" d="M 0.45 0.75 C 0.35 0.75 0.25 0.75 0.15 0.75 " transform="matrix(500,0,0,500,0,0)"/>
<path style="fill:none;stroke-width:0.01;stroke-linecap:butt;stroke-linejoin:miter;stroke:rgb(4.1%,47.3%,34.3%);stroke-opacity:1;stroke-miterlimit:10;" d="M 0.15 0.75 C 0.05 0.75 0.05 0.85 0.15 0.85 " transform="matrix(500,0,0,500,0,0)"/>
<path style="fill:none;stroke-width:0.01;stroke-linecap:butt;stroke-linejoin:miter;stroke:rgb(55.4%,20.9%,90.1%);stroke-opacity:1;stroke-miterlimit:10;" d="M 0.15 0.85 C 0.25 0.85 0.35 0.85 0.45 0.85 " transform="matrix(500,0,0,500,0,0)"/>
<path style="fill:none;stroke-width:0.01;stroke-linecap:butt;stroke-linejoin:miter;stroke:rgb(88.9%,66.5%,71.4%);stroke-opacity:1;stroke-miterlimit:10;" d="M 0.45 0.85 C 0.55 0.85 0.65 0.85 0.75 0.85 " transform="matrix(500,0,0,500,0,0)"/>
<path style="fill:none;stroke-width:0.01;stroke-linecap:butt;stroke-linejoin:miter;stroke:rgb(53.1%,23.9%,15.8%);stroke-opacity:1;stroke-miterlimit:10;" d="M 0.75 0.85 C 0.85 0.85 0.95 0.85 0.95 0.95 " transform="matrix(500,0,0,500,0,0)"/>
<path style="fill:none;stroke-width:0.01;stroke-linecap:butt;stroke-linejoin:miter;stroke:rgb(35.1%,88.5%,17.9%);stroke-opacity:1;stroke-miterlimit:10;" d="M 0.95 0.95 C 0.85 0.95 0.75 0.95 0.65 0.95 " transform="matrix(500,0,0,500,0,0)"/>
<path style="fill:none;stroke-width:0.01;stroke-linecap:butt;stroke-linejoin:miter;stroke:rgb(65.4%,33.2%,74.4%);stroke-opacity:1;stroke-miterlimit:10;" d="M 0.65 0.95 C 0.55 0.95 0.45 0.95 0.35 0.95 " transform="matrix(500,0,0,500,0,0)"/>
<path style="fill:none;stroke-width:0.01;stroke-linecap:butt;stroke-linejoin:miter;stroke:rgb(62.3%,29.5%,92.6%);stroke-opacity:1;stroke-miterlimit:10;" d="M 0.35 0.95 C 0.25 0.95 0.15 0.95 0.05 0.95 " transform="matrix(500,0,0,500,0,0)"/>
<path style=" stroke:none;fill-rule:nonzero;fill:rgb(6.3%,31.6%,85.5%);fill-opacity:0.5;" d="M 44 84.5 L 105 97.5 L 126.5 47 L 44 84.5 "/>
<path style=" stroke:none;fill-rule:nonzero;fill:rgb(65.1%,59.3%,0.5%);fill-opacity:0.5;" d="M 156.5 73 L 102 74.5 L 107.5 10.5 L 156.5 73 "/>
<path style=" stroke:none;fill-rule:nonzero;fill:rgb(20.3%,19.3%,44.8%);fill-opacity:0.5;" d="M 268 59.5 L 213.5 66 L 232.5 -8 L 268 59.5 "/>
<path style=" stroke:none;fill-rule:nonzero;fill:rgb(35.9%,40.1%,21.1%);fill-opacity:0.5;" d="M 305 17 L 379 22.5 L 385 75 L 305 17 "/>
<path style=" stroke:none;fill-rule:nonzero;fill:rgb(32.5%,4.9%,86.7%);fill-opacity:0.5;" d="M 447.5 24.5 L 509 47.5 L 495 99 L 447.5 24.5 "/>
<path style=" stroke:none;fill-rule:nonzero;fill:rgb(62.1%,73.8%,87.6%);fill-opacity:0.5;" d="M 474.5 105.5 L 420 129 L 411.5 187.5 L 474.5 105.5 "/>
<path style=" stroke:none;fill-rule:nonzero;fill:rgb(39.4%,28.2%,95.5%);fill-opacity:0.5;" d="M 308 130 L 366 111 L 373.5 162 L 308 130 "/>
<path style=" stroke:none;fill-rule:nonzero;fill:rgb(94.2%,73.5%,90.2%);fill-opacity:0.5;" d="M 231.5 170.5 L 301.5 166.5 L 285.5 112 L 231.5 170.5 "/>
<path style=" stroke:none;fill-rule:nonzero;fill:rgb(24.4%,87%,27.1%);fill-opacity:0.5;" d="M 106 146 L 165 137.5 L 154.5 191 L 106 146 "/>
<path style=" stroke:none;fill-rule:nonzero;fill:rgb(85.5%,17.4%,47.6%);fill-opacity:0.5;" d="M 45 179 L 100 185 L 121 110.5 L 45 179 "/>
<path style=" stroke:none;fill-rule:nonzero;fill:rgb(17.1%,81.8%,36%);fill-opacity:0.5;" d="M 42.5 211.5 L 93 190.5 L 85.5 264 L 42.5 211.5 "/>
<path style=" stroke:none;fill-rule:nonzero;fill:rgb(25.4%,53.5%,30.5%);fill-opacity:0.5;" d="M 196.5 275.5 L 143.5 262.5 L 162 199 L 196.5 275.5 "/>
<path style=" stroke:none;fill-rule:nonzero;fill:rgb(89.1%,14.8%,13.2%);fill-opacity:0.5;" d="M 275 200.5 L 216.5 199 L 219.5 254.5 L 275 200.5 "/>
<path style=" stroke:none;fill-rule:nonzero;fill:rgb(91.1%,78.6%,30.7%);fill-opacity:0.5;" d="M 304.5 263.5 L 365 272 L 360 208 L 304.5 263.5 "/>
<path style=" stroke:none;fill-rule:nonzero;fill:rgb(78.5%,53.9%,66.9%);fill-opacity:0.5;" d="M 447 244 L 505 255.5 L 480 323.5 L 447 244 "/>
<path style=" stroke:none;fill-rule:nonzero;fill:rgb(72.2%,24.7%,38.2%);fill-opacity:0.5;" d="M 475 304.5 L 402.5 289 L 387 352.5 L 475 304.5 "/>
<path style=" stroke:none;fill-rule:nonzero;fill:rgb(40.4%,18%,91.4%);fill-opacity:0.5;" d="M 382 309.5 L 326 331 L 335.5 391.5 L 382 309.5 "/>
<path style=" stroke:none;fill-rule:nonzero;fill:rgb(49.8%,84.2%,53.2%);fill-opacity:0.5;" d="M 273 375 L 223 355.5 L 209 305.5 L 273 375 "/>
<path style=" stroke:none;fill-rule:nonzero;fill:rgb(67.2%,25.9%,10.1%);fill-opacity:0.5;" d="M 179.5 360 L 120 365.5 L 133 303.5 L 179.5 360 "/>
<path style=" stroke:none;fill-rule:nonzero;fill:rgb(86.5%,35.6%,16.6%);fill-opacity:0.5;" d="M 20 379 L 82.5 386.5 L 96 326 L 20 379 "/>
<path style=" stroke:none;fill-rule:nonzero;fill:rgb(74.5%,17.7%,38.9%);fill-opacity:0.5;" d="M 71.5 464 L 11 440.5 L 22.5 374 L 71.5 464 "/>
<path style=" stroke:none;fill-rule:nonzero;fill:rgb(41.3%,1.4%,72.9%);fill-opacity:0.5;" d="M 168.5 458 L 116.5 444 L 108.5 393 L 168.5 458 "/>
<path style=" stroke:none;fill-rule:nonzero;fill:rgb(85.8%,57.8%,63.6%);fill-opacity:0.5;" d="M 233.5 459 L 299 438 L 307 385 L 233.5 459 "/>
<path style=" stroke:none;fill-rule:nonzero;fill:rgb(15.2%,79.4%,94.1%);fill-opacity:0.5;" d="M 341.5 467 L 415.5 462.5 L 428 393.5 L 341.5 467 "/>
<path style=" stroke:none;fill-rule:nonzero;fill:rgb(8.6%,52.4%,22%);fill-opacity:0.5;" d="M 470 408.5 L 406 411.5 L 425.5 472.5 L 470 408.5 "/>
<path style="fill:none;stroke-width:0.002;stroke-linecap:butt;stroke-linejoin:miter;stroke:rgb(90.4%,4.7%,82%);stroke-opacity:1;stroke-miterlimit:10;" d="M 0.609 0.054 L 0.4 0.679 " transform="matrix(500,0,0,500,0,0)"/>
<path style="fill:none;stroke-width:0.002;stroke-linecap:butt;stroke-linejoin:miter;stroke:rgb(66.4%,70.5%,46.5%);stroke-opacity:1;stroke-miterlimit:10;" d="M 0.892 0.259 L 0.904 0.203 " transform="matrix(500,0,0,500,0,0)"/>
<path style="fill:none;stroke-width:0.002;stroke-linecap:butt;stroke-linejoin:miter;stroke:rgb(75.7%,41.5%,63.5%);stroke-opacity:1;stroke-miterlimit:10;" d="M 0.641 0.09 L 0.339 0.65 " transform="matrix(500,0,0,500,0,0)"/>
<path style="fill:none;stroke-width:0.002;stroke-linecap:butt;stroke-linejoin:miter;stroke:rgb(81.6%,4.8%,29.7%);stroke-opacity:1;stroke-miterlimit:10;" d="M 0.295 0.792 L 0.861 0.59 " transform="matrix(500,0,0,500,0,0)"/>
<path style="fill:none;stroke-width:0.002;stroke-linecap:butt;stroke-linejoin:miter;stroke:rgb(7.4%,45.2%,5.6%);stroke-opacity:1;stroke-miterlimit:10;" d="M 0.436 0.776 L 0.462 0.839 " transform="matrix(500,0,0,500,0,0)"/>
<path style="fill:none;stroke-width:0.002;stroke-linecap:butt;stroke-linejoin:miter;stroke:rgb(0%,79.1%,57.9%);stroke-opacity:1;stroke-miterlimit:10;" d="M 0.415 0.353 L 0.936 0.885 " transform="matrix(500,0,0,500,0,0)"/>
<path style="fill:none;stroke-width:0.002;stroke-linecap:butt;stroke-linejoin:miter;stroke:rgb(9.8%,0.3%,63.9%);stroke-opacity:1;stroke-miterlimit:10;" d="M 0.467 0.199 L 0.414 0.719 " transform="matrix(500,0,0,500,0,0)"/>
<path style="fill:none;stroke-width:0.002;stroke-linecap:butt;stroke-linejoin:miter;stroke:rgb(66.4%,48.2%,67.9%);stroke-opacity:1;stroke-miterlimit:10;" d="M 0.676 0.836 L 0.567 0.561 " transform="matrix(500,0,0,500,0,0)"/>
<path style="fill:none;stroke-width:0.002;stroke-linecap:butt;stroke-linejoin:miter;stroke:rgb(53.9%,17.8%,35.9%);stroke-opacity:1;stroke-miterlimit:10;" d="M 0.618 0.845 L 0.826 0.669 " transform="matrix(500,0,0,500,0,0)"/>
<path style="fill:none;stroke-width:0.002;stroke-linecap:butt;stroke-linejoin:miter;stroke:rgb(48.8%,77.5%,10.3%);stroke-opacity:1;stroke-miterlimit:10;" d="M 0.989 0.58 L 0.802 0 " transform="matrix(500,0,0,500,0,0)"/>
</g>
</defs>
<g id="surface345">
<use xlink:href="#surface348"/>
</g>
</svg>
