<?xml version="1.0" encoding="UTF-8"?>
<svg xmlns="http://www.w3.org/2000/svg" xmlns:xlink="http://www.w3.org/1999/xlink" width="500pt" height="500pt" viewBox="0 0 500 500" version="1.1">
<defs>
<clipPath id="clip1">
  <rect x="0" y="0" width="500" height="500"/>
</clipPath>
<g id="surface6" clip-path="url(#clip1)">
<path style=" stroke:none;fill-rule:nonzero;fill:rgb(39.5%,39.5%,39.5%);fill-opacity:1;" d="M 0 0 L 250 0 L 250 250 L 0 250 Z M 0 0 "/>
<path style=" stroke:none;fill-rule:nonzero;fill:rgb(29%,29%,29%);fill-opacity:1;" d="M 250 0 L 500 0 L 500 250 L 250 250 Z M 250 0 "/>
<path style=" stroke:none;fill-rule:nonzero;fill:rgb(45.1%,45.1%,45.1%);fill-opacity:1;" d="M 250 250 L 500 250 L 500 500 L 250 500 Z M 250 250 "/>
<path style=" stroke:none;fill-rule:nonzero;fill:rgb(26%,26%,26%);fill-opacity:1;" d="M 0 250 L 250 250 L 250 500 L 0 500 Z M 0 250 "/>
<path style=" stroke:none;fill-rule:nonzero;fill:rgb(31.4%,5.9%,45.7%);fill-opacity:1;" d="M 147 144 C 147 169.957031 125.957031 191 100 191 C 74.042969 191 53 169.957031 53 144 C 53 118.042969 74.042969 97 100 97 C 125.957031 97 147 118.042969 147 144 C 147 169.957031 125.957031 191 100 191 C 74.042969 191 53 169.957031 53 144 C 53 118.042969 74.042969 97 100 97 C 125.957031 97 147 118.042969 147 144 "/>
<path style="fill:none;stroke-width:0.0152857;stroke-linecap:butt;stroke-linejoin:miter;stroke:rgb(35.4%,86.5%,67.1%);stroke-opacity:1;stroke-miterlimit:10;" d="M 0.87 0.309 C 0.944 0.108 0.95 0.179 0.736 0.445 " transform="matrix(500,0,0,500,0,0)"/>
<path style=" stroke:none;fill-rule:nonzero;fill:rgb(41.2%,35.3%,71.2%);fill-opacity:1;" d="M 430.5 317.5 L 359.5 337 L 372.5 408 L 430.5 317.5 "/>
<path style="fill:none;stroke-width:0.0197;stroke-linecap:butt;stroke-linejoin:miter;stroke:rgb(30.6%,78.7%,21.1%);stroke-opacity:1;stroke-miterlimit:10;" d="M 0.138 0.852 L 0.093 0.849 " transform="matrix(500,0,0,500,0,0)"/>
<path style="fill:none;stroke-width:0.04;stroke-linecap:butt;stroke-linejoin:miter;stroke:rgb(0%,0%,0%);stroke-opacity:1;stroke-miterlimit:10;" d="M 0 0 L 0 1 " transform="matrix(500,0,0,500,0,0)"/>
<path style="fill:none;stroke-width:0.01;stroke-linecap:butt;stroke-linejoin:miter;stroke:rgb(0%,0%,0%);stroke-opacity:1;stroke-miterlimit:10;" d="M 0.5 0 L 0.5 1 " transform="matrix(500,0,0,500,0,0)"/>
<path style="fill:none;stroke-width:0.04;stroke-linecap:butt;stroke-linejoin:miter;stroke:rgb(0%,0%,0%);stroke-opacity:1;stroke-miterlimit:10;" d="M 1 0 L 1 1 " transform="matrix(500,0,0,500,0,0)"/>
<path style="fill:none;stroke-width:0.04;stroke-linecap:butt;stroke-linejoin:miter;stroke:rgb(0%,0%,0%);stroke-opacity:1;stroke-miterlimit:10;" d="M 0 0 L 1 0 " transform="matrix(500,0,0,500,0,0)"/>
<path style="fill:none;stroke-width:0.01;stroke-linecap:butt;stroke-linejoin:miter;stroke:rgb(0%,0%,0%);stroke-opacity:1;stroke-miterlimit:10;" d="M 0 0.5 L 1 0.5 " transform="matrix(500,0,0,500,0,0)"/>
<path style="fill:none;stroke-width:0.04;stroke-linecap:butt;stroke-linejoin:miter;stroke:rgb(0%,0%,0%);stroke-opacity:1;stroke-miterlimit:10;" d="M 0 1 L 1 1 " transform="matrix(500,0,0,500,0,0)"/>
</g>
</defs>
<g id="surface3">
<use xlink:href="#surface6"/>
</g>
</svg>
