<?xml version="1.0" encoding="UTF-8"?>
<svg xmlns="http://www.w3.org/2000/svg" xmlns:xlink="http://www.w3.org/1999/xlink" width="500pt" height="500pt" viewBox="0 0 500 500" version="1.1">
<defs>
<clipPath id="clip1">
  <rect x="0" y="0" width="500" height="500"/>
</clipPath>
<g id="surface6" clip-path="url(#clip1)">
<path style=" stroke:none;fill-rule:nonzero;fill:rgb(21.2%,21.2%,21.2%);fill-opacity:1;" d="M 0 0 L 250 0 L 250 250 L 0 250 Z M 0 0 "/>
<path style=" stroke:none;fill-rule:nonzero;fill:rgb(35.8%,35.8%,35.8%);fill-opacity:1;" d="M 250 0 L 500 0 L 500 250 L 250 250 Z M 250 0 "/>
<path style=" stroke:none;fill-rule:nonzero;fill:rgb(27.6%,27.6%,27.6%);fill-opacity:1;" d="M 250 250 L 500 250 L 500 500 L 250 500 Z M 250 250 "/>
<path style=" stroke:none;fill-rule:nonzero;fill:rgb(38.5%,38.5%,38.5%);fill-opacity:1;" d="M 0 250 L 250 250 L 250 500 L 0 500 Z M 0 250 "/>
<path style=" stroke:none;fill-rule:nonzero;fill:rgb(70.7%,60.3%,37.6%);fill-opacity:1;" d="M 183.5 117.5 C 183.5 147.597656 159.097656 172 129 172 C 98.902344 172 74.5 147.597656 74.5 117.5 C 74.5 87.402344 98.902344 63 129 63 C 159.097656 63 183.5 87.402344 183.5 117.5 C 183.5 147.597656 159.097656 172 129 172 C 98.902344 172 74.5 147.597656 74.5 117.5 C 74.5 87.402344 98.902344 63 129 63 C 159.097656 63 183.5 87.402344 183.5 117.5 "/>
<path style="fill:none;stroke-width:0.0172857;stroke-linecap:butt;stroke-linejoin:miter;stroke:rgb(5.4%,13%,46.4%);stroke-opacity:1;stroke-miterlimit:10;" d="M 0.782 0.127 C 0.738 0.066 0.579 0.327 0.772 0.43 " transform="matrix(500,0,0,500,0,0)"/>
<path style=" stroke:none;fill-rule:nonzero;fill:rgb(2.7%,92.6%,51.8%);fill-opacity:1;" d="M 316 448 L 420.5 438 L 420.5 333.5 L 316 448 "/>
<path style="fill:none;stroke-width:0.0157;stroke-linecap:butt;stroke-linejoin:miter;stroke:rgb(0.7%,56%,35.8%);stroke-opacity:1;stroke-miterlimit:10;" d="M 0.395 0.863 L 0.267 0.558 " transform="matrix(500,0,0,500,0,0)"/>
<path style="fill:none;stroke-width:0.04;stroke-linecap:butt;stroke-linejoin:miter;stroke:rgb(0%,0%,0%);stroke-opacity:1;stroke-miterlimit:10;" d="M 0 0 L 0 1 " transform="matrix(500,0,0,500,0,0)"/>
<path style="fill:none;stroke-width:0.01;stroke-linecap:butt;stroke-linejoin:miter;stroke:rgb(0%,0%,0%);stroke-opacity:1;stroke-miterlimit:10;" d="M 0.5 0 L 0.5 1 " transform="matrix(500,0,0,500,0,0)"/>
<path style="fill:none;stroke-width:0.04;stroke-linecap:butt;stroke-linejoin:miter;stroke:rgb(0%,0%,0%);stroke-opacity:1;stroke-miterlimit:10;" d="M 1 0 L 1 1 " transform="matrix(500,0,0,500,0,0)"/>
<path style="fill:none;stroke-width:0.04;stroke-linecap:butt;stroke-linejoin:miter;stroke:rgb(0%,0%,0%);stroke-opacity:1;stroke-miterlimit:10;" d="M 0 0 L 1 0 " transform="matrix(500,0,0,500,0,0)"/>
<path style="fill:none;stroke-width:0.01;stroke-linecap:butt;stroke-linejoin:miter;stroke:rgb(0%,0%,0%);stroke-opacity:1;stroke-miterlimit:10;" d="M 0 0.5 L 1 0.5 " transform="matrix(500,0,0,500,0,0)"/>
<path style="fill:none;stroke-width:0.04;stroke-linecap:butt;stroke-linejoin:miter;stroke:rgb(0%,0%,0%);stroke-opacity:1;stroke-miterlimit:10;" d="M 0 1 L 1 1 " transform="matrix(500,0,0,500,0,0)"/>
</g>
</defs>
<g id="surface3">
<use xlink:href="#surface6"/>
</g>
</svg>
