<?xml version="1.0" encoding="UTF-8"?>
<svg xmlns="http://www.w3.org/2000/svg" xmlns:xlink="http://www.w3.org/1999/xlink" width="500pt" height="500pt" viewBox="0 0 500 500" version="1.1">
<defs>
<clipPath id="clip1">
  <rect x="0" y="0" width="500" height="500"/>
</clipPath>
<g id="surface6" clip-path="url(#clip1)">
<path style=" stroke:none;fill-rule:nonzero;fill:rgb(31.5%,31.5%,31.5%);fill-opacity:1;" d="M 0 0 L 250 0 L 250 250 L 0 250 Z M 0 0 "/>
<path style=" stroke:none;fill-rule:nonzero;fill:rgb(50.4%,50.4%,50.4%);fill-opacity:1;" d="M 250 0 L 500 0 L 500 250 L 250 250 Z M 250 0 "/>
<path style=" stroke:none;fill-rule:nonzero;fill:rgb(57.9%,57.9%,57.9%);fill-opacity:1;" d="M 250 250 L 500 250 L 500 500 L 250 500 Z M 250 250 "/>
<path style=" stroke:none;fill-rule:nonzero;fill:rgb(51.7%,51.7%,51.7%);fill-opacity:1;" d="M 0 250 L 250 250 L 250 500 L 0 500 Z M 0 250 "/>
<path style=" stroke:none;fill-rule:nonzero;fill:rgb(62.4%,59.5%,78.9%);fill-opacity:1;" d="M 182.5 105 C 182.5 128.472656 163.472656 147.5 140 147.5 C 116.527344 147.5 97.5 128.472656 97.5 105 C 97.5 81.527344 116.527344 62.5 140 62.5 C 163.472656 62.5 182.5 81.527344 182.5 105 C 182.5 128.472656 163.472656 147.5 140 147.5 C 116.527344 147.5 97.5 128.472656 97.5 105 C 97.5 81.527344 116.527344 62.5 140 62.5 C 163.472656 62.5 182.5 81.527344 182.5 105 "/>
<path style="fill:none;stroke-width:0.0161429;stroke-linecap:butt;stroke-linejoin:miter;stroke:rgb(79.3%,1.2%,89.1%);stroke-opacity:1;stroke-miterlimit:10;" d="M 0.67 0.301 C 0.838 0.173 0.619 0.153 0.813 0.376 " transform="matrix(500,0,0,500,0,0)"/>
<path style=" stroke:none;fill-rule:nonzero;fill:rgb(79.9%,28.4%,47.1%);fill-opacity:1;" d="M 444.5 306 L 351.5 288 L 352 381 L 444.5 306 "/>
<path style="fill:none;stroke-width:0.0187;stroke-linecap:butt;stroke-linejoin:miter;stroke:rgb(76.2%,24.7%,11.1%);stroke-opacity:1;stroke-miterlimit:10;" d="M 0.259 0.628 L 0.204 0.833 " transform="matrix(500,0,0,500,0,0)"/>
<path style="fill:none;stroke-width:0.04;stroke-linecap:butt;stroke-linejoin:miter;stroke:rgb(0%,0%,0%);stroke-opacity:1;stroke-miterlimit:10;" d="M 0 0 L 0 1 " transform="matrix(500,0,0,500,0,0)"/>
<path style="fill:none;stroke-width:0.01;stroke-linecap:butt;stroke-linejoin:miter;stroke:rgb(0%,0%,0%);stroke-opacity:1;stroke-miterlimit:10;" d="M 0.5 0 L 0.5 1 " transform="matrix(500,0,0,500,0,0)"/>
<path style="fill:none;stroke-width:0.04;stroke-linecap:butt;stroke-linejoin:miter;stroke:rgb(0%,0%,0%);stroke-opacity:1;stroke-miterlimit:10;" d="M 1 0 L 1 1 " transform="matrix(500,0,0,500,0,0)"/>
<path style="fill:none;stroke-width:0.04;stroke-linecap:butt;stroke-linejoin:miter;stroke:rgb(0%,0%,0%);stroke-opacity:1;stroke-miterlimit:10;" d="M 0 0 L 1 0 " transform="matrix(500,0,0,500,0,0)"/>
<path style="fill:none;stroke-width:0.01;stroke-linecap:butt;stroke-linejoin:miter;stroke:rgb(0%,0%,0%);stroke-opacity:1;stroke-miterlimit:10;" d="M 0 0.5 L 1 0.5 " transform="matrix(500,0,0,500,0,0)"/>
<path style="fill:none;stroke-width:0.04;stroke-linecap:butt;stroke-linejoin:miter;stroke:rgb(0%,0%,0%);stroke-opacity:1;stroke-miterlimit:10;" d="M 0 1 L 1 1 " transform="matrix(500,0,0,500,0,0)"/>
</g>
</defs>
<g id="surface3">
<use xlink:href="#surface6"/>
</g>
</svg>
