<?xml version="1.0" encoding="UTF-8"?>
<svg xmlns="http://www.w3.org/2000/svg" xmlns:xlink="http://www.w3.org/1999/xlink" width="500pt" height="500pt" viewBox="0 0 500 500" version="1.1">
<defs>
<clipPath id="clip1">
  <rect x="0" y="0" width="500" height="500"/>
</clipPath>
<g id="surface6" clip-path="url(#clip1)">
<path style=" stroke:none;fill-rule:nonzero;fill:rgb(58.1%,58.1%,58.1%);fill-opacity:1;" d="M 0 0 L 250 0 L 250 250 L 0 250 Z M 0 0 "/>
<path style=" stroke:none;fill-rule:nonzero;fill:rgb(27.2%,27.2%,27.2%);fill-opacity:1;" d="M 250 0 L 500 0 L 500 250 L 250 250 Z M 250 0 "/>
<path style=" stroke:none;fill-rule:nonzero;fill:rgb(42.8%,42.8%,42.8%);fill-opacity:1;" d="M 250 250 L 500 250 L 500 500 L 250 500 Z M 250 250 "/>
<path style=" stroke:none;fill-rule:nonzero;fill:rgb(58.1%,58.1%,58.1%);fill-opacity:1;" d="M 0 250 L 250 250 L 250 500 L 0 500 Z M 0 250 "/>
<path style=" stroke:none;fill-rule:nonzero;fill:rgb(82.5%,73.6%,6.7%);fill-opacity:1;" d="M 186.5 124.5 C 186.5 158.1875 159.1875 185.5 125.5 185.5 C 91.8125 185.5 64.5 158.1875 64.5 124.5 C 64.5 90.8125 91.8125 63.5 125.5 63.5 C 159.1875 63.5 186.5 90.8125 186.5 124.5 C 186.5 158.1875 159.1875 185.5 125.5 185.5 C 91.8125 185.5 64.5 158.1875 64.5 124.5 C 64.5 90.8125 91.8125 63.5 125.5 63.5 C 159.1875 63.5 186.5 90.8125 186.5 124.5 "/>
<path style="fill:none;stroke-width:0.0145714;stroke-linecap:butt;stroke-linejoin:miter;stroke:rgb(36.8%,1.6%,60.7%);stroke-opacity:1;stroke-miterlimit:10;" d="M 0.694 0.171 C 0.632 0.341 0.824 0.446 0.665 0.128 " transform="matrix(500,0,0,500,0,0)"/>
<path style=" stroke:none;fill-rule:nonzero;fill:rgb(61.5%,56.4%,57.8%);fill-opacity:1;" d="M 313.5 312.5 L 411 313.5 L 430.5 411 L 313.5 312.5 "/>
<path style="fill:none;stroke-width:0.0162;stroke-linecap:butt;stroke-linejoin:miter;stroke:rgb(48.7%,41.7%,62.9%);stroke-opacity:1;stroke-miterlimit:10;" d="M 0.185 0.564 L 0.253 0.859 " transform="matrix(500,0,0,500,0,0)"/>
<path style="fill:none;stroke-width:0.04;stroke-linecap:butt;stroke-linejoin:miter;stroke:rgb(0%,0%,0%);stroke-opacity:1;stroke-miterlimit:10;" d="M 0 0 L 0 1 " transform="matrix(500,0,0,500,0,0)"/>
<path style="fill:none;stroke-width:0.01;stroke-linecap:butt;stroke-linejoin:miter;stroke:rgb(0%,0%,0%);stroke-opacity:1;stroke-miterlimit:10;" d="M 0.5 0 L 0.5 1 " transform="matrix(500,0,0,500,0,0)"/>
<path style="fill:none;stroke-width:0.04;stroke-linecap:butt;stroke-linejoin:miter;stroke:rgb(0%,0%,0%);stroke-opacity:1;stroke-miterlimit:10;" d="M 1 0 L 1 1 " transform="matrix(500,0,0,500,0,0)"/>
<path style="fill:none;stroke-width:0.04;stroke-linecap:butt;stroke-linejoin:miter;stroke:rgb(0%,0%,0%);stroke-opacity:1;stroke-miterlimit:10;" d="M 0 0 L 1 0 " transform="matrix(500,0,0,500,0,0)"/>
<path style="fill:none;stroke-width:0.01;stroke-linecap:butt;stroke-linejoin:miter;stroke:rgb(0%,0%,0%);stroke-opacity:1;stroke-miterlimit:10;" d="M 0 0.5 L 1 0.5 " transform="matrix(500,0,0,500,0,0)"/>
<path style="fill:none;stroke-width:0.04;stroke-linecap:butt;stroke-linejoin:miter;stroke:rgb(0%,0%,0%);stroke-opacity:1;stroke-miterlimit:10;" d="M 0 1 L 1 1 " transform="matrix(500,0,0,500,0,0)"/>
</g>
</defs>
<g id="surface3">
<use xlink:href="#surface6"/>
</g>
</svg>
