<?xml version="1.0" encoding="UTF-8"?>
<svg xmlns="http://www.w3.org/2000/svg" xmlns:xlink="http://www.w3.org/1999/xlink" width="500pt" height="500pt" viewBox="0 0 500 500" version="1.1">
<defs>
<clipPath id="clip1">
  <rect x="0" y="0" width="500" height="500"/>
</clipPath>
<g id="surface6" clip-path="url(#clip1)">
<path style=" stroke:none;fill-rule:nonzero;fill:rgb(32.3%,32.3%,32.3%);fill-opacity:1;" d="M 0 0 L 250 0 L 250 250 L 0 250 Z M 0 0 "/>
<path style=" stroke:none;fill-rule:nonzero;fill:rgb(41.1%,41.1%,41.1%);fill-opacity:1;" d="M 250 0 L 500 0 L 500 250 L 250 250 Z M 250 0 "/>
<path style=" stroke:none;fill-rule:nonzero;fill:rgb(24.7%,24.7%,24.7%);fill-opacity:1;" d="M 250 250 L 500 250 L 500 500 L 250 500 Z M 250 250 "/>
<path style=" stroke:none;fill-rule:nonzero;fill:rgb(32.8%,32.8%,32.8%);fill-opacity:1;" d="M 0 250 L 250 250 L 250 500 L 0 500 Z M 0 250 "/>
<path style=" stroke:none;fill-rule:nonzero;fill:rgb(68.8%,35.5%,20.7%);fill-opacity:1;" d="M 156 120.5 C 156 148.390625 133.390625 171 105.5 171 C 77.609375 171 55 148.390625 55 120.5 C 55 92.609375 77.609375 70 105.5 70 C 133.390625 70 156 92.609375 156 120.5 C 156 148.390625 133.390625 171 105.5 171 C 77.609375 171 55 148.390625 55 120.5 C 55 92.609375 77.609375 70 105.5 70 C 133.390625 70 156 92.609375 156 120.5 "/>
<path style="fill:none;stroke-width:0.0172857;stroke-linecap:butt;stroke-linejoin:miter;stroke:rgb(40.9%,80.1%,99.7%);stroke-opacity:1;stroke-miterlimit:10;" d="M 0.709 0.438 C 0.717 0.281 0.632 0.317 0.823 0.351 " transform="matrix(500,0,0,500,0,0)"/>
<path style=" stroke:none;fill-rule:nonzero;fill:rgb(52%,73.9%,90%);fill-opacity:1;" d="M 449.5 302 L 385 297 L 387.5 361.5 L 449.5 302 "/>
<path style="fill:none;stroke-width:0.0181;stroke-linecap:butt;stroke-linejoin:miter;stroke:rgb(9.5%,99.6%,14.4%);stroke-opacity:1;stroke-miterlimit:10;" d="M 0.424 0.742 L 0.45 0.715 " transform="matrix(500,0,0,500,0,0)"/>
<path style="fill:none;stroke-width:0.04;stroke-linecap:butt;stroke-linejoin:miter;stroke:rgb(0%,0%,0%);stroke-opacity:1;stroke-miterlimit:10;" d="M 0 0 L 0 1 " transform="matrix(500,0,0,500,0,0)"/>
<path style="fill:none;stroke-width:0.01;stroke-linecap:butt;stroke-linejoin:miter;stroke:rgb(0%,0%,0%);stroke-opacity:1;stroke-miterlimit:10;" d="M 0.5 0 L 0.5 1 " transform="matrix(500,0,0,500,0,0)"/>
<path style="fill:none;stroke-width:0.04;stroke-linecap:butt;stroke-linejoin:miter;stroke:rgb(0%,0%,0%);stroke-opacity:1;stroke-miterlimit:10;" d="M 1 0 L 1 1 " transform="matrix(500,0,0,500,0,0)"/>
<path style="fill:none;stroke-width:0.04;stroke-linecap:butt;stroke-linejoin:miter;stroke:rgb(0%,0%,0%);stroke-opacity:1;stroke-miterlimit:10;" d="M 0 0 L 1 0 " transform="matrix(500,0,0,500,0,0)"/>
<path style="fill:none;stroke-width:0.01;stroke-linecap:butt;stroke-linejoin:miter;stroke:rgb(0%,0%,0%);stroke-opacity:1;stroke-miterlimit:10;" d="M 0 0.5 L 1 0.5 " transform="matrix(500,0,0,500,0,0)"/>
<path style="fill:none;stroke-width:0.04;stroke-linecap:butt;stroke-linejoin:miter;stroke:rgb(0%,0%,0%);stroke-opacity:1;stroke-miterlimit:10;" d="M 0 1 L 1 1 " transform="matrix(500,0,0,500,0,0)"/>
</g>
</defs>
<g id="surface3">
<use xlink:href="#surface6"/>
</g>
</svg>
