<?xml version="1.0" encoding="UTF-8"?>
<svg xmlns="http://www.w3.org/2000/svg" xmlns:xlink="http://www.w3.org/1999/xlink" width="500pt" height="500pt" viewBox="0 0 500 500" version="1.1">
<defs>
<clipPath id="clip1">
  <rect x="0" y="0" width="500" height="500"/>
</clipPath>
<g id="surface6" clip-path="url(#clip1)">
<path style=" stroke:none;fill-rule:nonzero;fill:rgb(44.8%,44.8%,44.8%);fill-opacity:1;" d="M 0 0 L 250 0 L 250 250 L 0 250 Z M 0 0 "/>
<path style=" stroke:none;fill-rule:nonzero;fill:rgb(48.4%,48.4%,48.4%);fill-opacity:1;" d="M 250 0 L 500 0 L 500 250 L 250 250 Z M 250 0 "/>
<path style=" stroke:none;fill-rule:nonzero;fill:rgb(44.6%,44.6%,44.6%);fill-opacity:1;" d="M 250 250 L 500 250 L 500 500 L 250 500 Z M 250 250 "/>
<path style=" stroke:none;fill-rule:nonzero;fill:rgb(57.1%,57.1%,57.1%);fill-opacity:1;" d="M 0 250 L 250 250 L 250 500 L 0 500 Z M 0 250 "/>
<path style=" stroke:none;fill-rule:nonzero;fill:rgb(34.1%,38%,58.6%);fill-opacity:1;" d="M 199.5 111 C 199.5 145.242188 171.742188 173 137.5 173 C 103.257812 173 75.5 145.242188 75.5 111 C 75.5 76.757812 103.257812 49 137.5 49 C 171.742188 49 199.5 76.757812 199.5 111 C 199.5 145.242188 171.742188 173 137.5 173 C 103.257812 173 75.5 145.242188 75.5 111 C 75.5 76.757812 103.257812 49 137.5 49 C 171.742188 49 199.5 76.757812 199.5 111 "/>
<path style="fill:none;stroke-width:0.0197143;stroke-linecap:butt;stroke-linejoin:miter;stroke:rgb(49.5%,69.5%,57.2%);stroke-opacity:1;stroke-miterlimit:10;" d="M 0.747 0.06 C 0.614 0.349 0.798 0.076 0.909 0.074 " transform="matrix(500,0,0,500,0,0)"/>
<path style=" stroke:none;fill-rule:nonzero;fill:rgb(67.9%,75.4%,8.8%);fill-opacity:1;" d="M 305 426 L 394 420 L 379.5 331 L 305 426 "/>
<path style="fill:none;stroke-width:0.0134;stroke-linecap:butt;stroke-linejoin:miter;stroke:rgb(61.8%,82.9%,86.5%);stroke-opacity:1;stroke-miterlimit:10;" d="M 0.197 0.901 L 0.154 0.653 " transform="matrix(500,0,0,500,0,0)"/>
<path style="fill:none;stroke-width:0.04;stroke-linecap:butt;stroke-linejoin:miter;stroke:rgb(0%,0%,0%);stroke-opacity:1;stroke-miterlimit:10;" d="M 0 0 L 0 1 " transform="matrix(500,0,0,500,0,0)"/>
<path style="fill:none;stroke-width:0.01;stroke-linecap:butt;stroke-linejoin:miter;stroke:rgb(0%,0%,0%);stroke-opacity:1;stroke-miterlimit:10;" d="M 0.5 0 L 0.5 1 " transform="matrix(500,0,0,500,0,0)"/>
<path style="fill:none;stroke-width:0.04;stroke-linecap:butt;stroke-linejoin:miter;stroke:rgb(0%,0%,0%);stroke-opacity:1;stroke-miterlimit:10;" d="M 1 0 L 1 1 " transform="matrix(500,0,0,500,0,0)"/>
<path style="fill:none;stroke-width:0.04;stroke-linecap:butt;stroke-linejoin:miter;stroke:rgb(0%,0%,0%);stroke-opacity:1;stroke-miterlimit:10;" d="M 0 0 L 1 0 " transform="matrix(500,0,0,500,0,0)"/>
<path style="fill:none;stroke-width:0.01;stroke-linecap:butt;stroke-linejoin:miter;stroke:rgb(0%,0%,0%);stroke-opacity:1;stroke-miterlimit:10;" d="M 0 0.5 L 1 0.5 " transform="matrix(500,0,0,500,0,0)"/>
<path style="fill:none;stroke-width:0.04;stroke-linecap:butt;stroke-linejoin:miter;stroke:rgb(0%,0%,0%);stroke-opacity:1;stroke-miterlimit:10;" d="M 0 1 L 1 1 " transform="matrix(500,0,0,500,0,0)"/>
</g>
</defs>
<g id="surface3">
<use xlink:href="#surface6"/>
</g>
</svg>
